M48
INCH
T120C0.012
T119C0.035
T118C0.134
T117C0.043
T116C0.028
T115C0.032
%
T120
X004200Y001100
X026500Y022900
X022450Y020400
X016800Y016500
X017100Y020000
X017700Y022600
X020200Y018800
X024900Y018500
X021300Y017900
X021650Y023300
X006750Y022600
X012200Y019400
X016800Y014900
X019900Y015850
X020150Y010900
X012700Y014700
X011900Y010900
X014500Y012300
X013900Y013000
X015900Y013000
X015900Y016600
X015300Y006900
X017500Y006900
X008700Y016500
X012800Y016700
X013900Y016600
X014700Y016900
X011850Y022600
X007300Y013700
X006700Y011600
X006800Y012100
X006900Y012600
T116
X014610Y024780
X012840Y024780
X011840Y024780
X010840Y024780
X009840Y024780
X008840Y024780
X007840Y024780
X006840Y024780
X005840Y024780
X004840Y024780
X003840Y024780
X023610Y024780
X022610Y024780
X021610Y024780
X020610Y024780
X019610Y024780
X018610Y024780
X017610Y024780
X016610Y024780
X015610Y024780
T115
X014931Y026850
X014144Y026850
X018868Y026850
X018081Y026850
X017294Y026850
X016506Y026850
X020443Y027637
X019656Y027637
X018868Y027637
X018081Y027637
X017294Y027637
X016506Y027637
X015719Y026850
X015719Y027637
X014931Y027637
X014144Y027637
X013357Y027637
X012569Y027637
X011782Y027637
X010994Y027637
X010207Y027637
X009420Y027637
X008632Y027637
X007845Y027637
X007057Y027637
X006270Y027637
X013357Y026850
X012569Y026850
X011782Y026850
X010994Y026850
X010207Y026850
X009420Y026850
X008632Y026850
X007845Y026850
X007057Y026850
X006270Y026850
X021231Y026850
X020443Y026850
X019656Y026850
X021231Y027637
T119
X002200Y011000
X002600Y020900
X002900Y003200
X023170Y020950
X003400Y027100
X022700Y027400
X016810Y021540
X011400Y021550
X013750Y023700
X022600Y009250
X023950Y002400
X019650Y005950
X019650Y004600
X002950Y009750
X008900Y007800
X009000Y005700
X005750Y009200
T117
X005560Y011870
X004560Y011870
X005560Y012870
X004556Y012874
X005560Y013870
X004560Y013870
X005560Y014870
X004560Y014870
X005560Y015870
X004560Y015870
X004560Y016870
X004560Y017870
X004560Y018870
X004560Y019870
X004560Y020870
X005560Y016870
X005560Y017870
X005560Y018870
X005560Y019870
X005560Y020870
T118
X001600Y024890
X001600Y016650
X001600Y001650
X025900Y024890
X025900Y016650
X025900Y001650
M30
