G04 start of page 12 for group -4062 idx -4062 *
G04 Title: (unknown), soldermask *
G04 Creator: pcb 20110918 *
G04 CreationDate: Wed 26 Feb 2014 10:51:57 GMT UTC *
G04 For: michael *
G04 Format: Gerber/RS-274X *
G04 PCB-Dimensions: 275000 304000 *
G04 PCB-Coordinate-Origin: lower left *
%MOIN*%
%FSLAX25Y25*%
%LNBOTTOMMASK*%
%ADD140C,0.0808*%
%ADD139C,0.0001*%
%ADD138C,0.0660*%
%ADD137C,0.0651*%
G54D137*X149314Y268497D03*
X141440D03*
G54D138*X146100Y247800D03*
G54D137*X188684Y268497D03*
X180810D03*
X172936D03*
X165062D03*
X204432Y276371D03*
X196558D03*
X188684D03*
X180810D03*
X172936D03*
X165062D03*
X157188Y268497D03*
Y276371D03*
X149314D03*
X141440D03*
X133566D03*
X125692D03*
X117818D03*
X109944D03*
X102070D03*
X94196D03*
X86322D03*
X78448D03*
X70574D03*
X62700D03*
G54D139*G36*
X51560Y122740D02*Y114660D01*
X59640D01*
Y122740D01*
X51560D01*
G37*
G54D140*X45600Y118700D03*
X55600Y128700D03*
X45561Y128739D03*
X55600Y138700D03*
X45600D03*
X55600Y148700D03*
X45600D03*
X55600Y158700D03*
X45600D03*
Y168700D03*
Y178700D03*
Y188700D03*
Y198700D03*
Y208700D03*
X55600Y168700D03*
Y178700D03*
Y188700D03*
Y198700D03*
Y208700D03*
G54D137*X133566Y268497D03*
X125692D03*
X117818D03*
X109944D03*
X102070D03*
X94196D03*
X86322D03*
X78448D03*
X70574D03*
G54D139*G36*
X59447Y271750D02*Y265244D01*
X65953D01*
Y271750D01*
X59447D01*
G37*
G36*
X125100Y251100D02*Y244500D01*
X131700D01*
Y251100D01*
X125100D01*
G37*
G54D138*X118400Y247800D03*
X108400D03*
X98400D03*
X88400D03*
X78400D03*
X68400D03*
X58400D03*
X48400D03*
X38400D03*
G54D137*X212306Y268497D03*
X204432D03*
X196558D03*
X212306Y276371D03*
G54D139*G36*
X232800Y251100D02*Y244500D01*
X239400D01*
Y251100D01*
X232800D01*
G37*
G54D138*X226100Y247800D03*
X216100D03*
X206100D03*
X196100D03*
X186100D03*
X176100D03*
X166100D03*
X156100D03*
M02*
