G04 start of page 15 for group -4015 idx -4015 *
G04 Title: (unknown), toppaste *
G04 Creator: pcb 20110918 *
G04 CreationDate: Wed 26 Feb 2014 10:51:57 GMT UTC *
G04 For: michael *
G04 Format: Gerber/RS-274X *
G04 PCB-Dimensions: 275000 304000 *
G04 PCB-Coordinate-Origin: lower left *
%MOIN*%
%FSLAX25Y25*%
%LNTOPPASTE*%
%ADD158R,0.0906X0.0906*%
%ADD157R,0.0600X0.0600*%
%ADD156R,0.0110X0.0110*%
%ADD155C,0.0290*%
%ADD154R,0.0650X0.0650*%
%ADD153R,0.0551X0.0551*%
%ADD152R,0.0315X0.0315*%
%ADD151R,0.0709X0.0709*%
%ADD150R,0.0630X0.0630*%
%ADD149R,0.0158X0.0158*%
%ADD148C,0.0001*%
%ADD147R,0.0200X0.0200*%
%ADD146R,0.0450X0.0450*%
G54D146*X219200Y160400D02*Y159000D01*
X211200Y160400D02*Y159000D01*
G54D147*X154300Y227750D02*Y221250D01*
X149300Y227750D02*Y221250D01*
X144300Y227750D02*Y221250D01*
X139300Y227750D02*Y221250D01*
X134300Y227750D02*Y221250D01*
X129300Y227750D02*Y221250D01*
X124300Y227750D02*Y221250D01*
Y207250D02*Y200750D01*
X129300Y207250D02*Y200750D01*
X134300Y207250D02*Y200750D01*
X139300Y207250D02*Y200750D01*
X144300Y207250D02*Y200750D01*
X149300Y207250D02*Y200750D01*
X154300Y207250D02*Y200750D01*
G54D148*G36*
X203516Y29048D02*Y27079D01*
X205484D01*
Y29048D01*
X203516D01*
G37*
G36*
Y32984D02*Y31015D01*
X205484D01*
Y32984D01*
X203516D01*
G37*
G54D147*X212000Y227500D02*Y221000D01*
X207000Y227500D02*Y221000D01*
X202000Y227500D02*Y221000D01*
X197000Y227500D02*Y221000D01*
X192000Y227500D02*Y221000D01*
X187000Y227500D02*Y221000D01*
X182000Y227500D02*Y221000D01*
Y207000D02*Y200500D01*
X187000Y207000D02*Y200500D01*
X192000Y207000D02*Y200500D01*
X197000Y207000D02*Y200500D01*
X202000Y207000D02*Y200500D01*
X207000Y207000D02*Y200500D01*
X212000Y207000D02*Y200500D01*
X104200Y227350D02*Y220850D01*
X99200Y227350D02*Y220850D01*
X94200Y227350D02*Y220850D01*
X89200Y227350D02*Y220850D01*
X84200Y227350D02*Y220850D01*
X79200Y227350D02*Y220850D01*
X74200Y227350D02*Y220850D01*
Y206850D02*Y200350D01*
X79200Y206850D02*Y200350D01*
X84200Y206850D02*Y200350D01*
X89200Y206850D02*Y200350D01*
X94200Y206850D02*Y200350D01*
X99200Y206850D02*Y200350D01*
X104200Y206850D02*Y200350D01*
G54D146*X137641Y85178D02*Y83778D01*
X145641Y85178D02*Y83778D01*
X219159Y171422D02*Y170022D01*
X211159Y171422D02*Y170022D01*
X235500Y93200D02*Y91800D01*
X243500Y93200D02*Y91800D01*
G54D149*X109882Y30870D02*Y27130D01*
X115000Y30870D02*Y27130D01*
X104764Y30870D02*Y27130D01*
X112441Y30870D02*Y27130D01*
X107323Y30870D02*Y27130D01*
G54D150*X96693Y28508D02*X98661D01*
X121102D02*X123071D01*
G54D151*X94921Y18665D02*Y18271D01*
G54D148*G36*
X101417Y22208D02*Y14728D01*
X108897D01*
Y22208D01*
X101417D01*
G37*
G36*
X110866D02*Y14728D01*
X118346D01*
Y22208D01*
X110866D01*
G37*
G54D151*X124842Y18665D02*Y18271D01*
G54D146*X133600Y94600D02*Y93200D01*
X141600Y94600D02*Y93200D01*
G54D152*X178643Y36044D02*Y33288D01*
X174312Y37619D02*Y34863D01*
X169982Y36044D02*Y33288D01*
X165651Y35256D02*Y32500D01*
X161320Y36044D02*Y33288D01*
X156990Y35256D02*Y32500D01*
X152659Y36044D02*Y33288D01*
X148328Y36044D02*Y33288D01*
G54D153*X145179Y24626D02*Y22658D01*
X151478Y75414D02*X153053D01*
X173919D02*X175494D01*
X197541Y20296D02*Y18327D01*
G54D148*G36*
X32073Y82262D02*Y70762D01*
X43573D01*
Y82262D01*
X32073D01*
G37*
G36*
Y67262D02*Y55762D01*
X43573D01*
Y67262D01*
X32073D01*
G37*
G36*
X47073Y82262D02*Y70762D01*
X58573D01*
Y82262D01*
X47073D01*
G37*
G36*
Y67262D02*Y55762D01*
X58573D01*
Y67262D01*
X47073D01*
G37*
G54D154*X68823Y78012D02*X74323D01*
X68823Y60012D02*X74323D01*
G54D148*G36*
X245044Y66970D02*Y55470D01*
X256544D01*
Y66970D01*
X245044D01*
G37*
G36*
Y81970D02*Y70470D01*
X256544D01*
Y81970D01*
X245044D01*
G37*
G36*
X230044Y66970D02*Y55470D01*
X241544D01*
Y66970D01*
X230044D01*
G37*
G36*
Y81970D02*Y70470D01*
X241544D01*
Y81970D01*
X230044D01*
G37*
G54D154*X214294Y59720D02*X219794D01*
X214294Y77720D02*X219794D01*
G54D155*X88578Y111191D02*X96678D01*
X88578Y116191D02*X96678D01*
X88578Y121191D02*X96678D01*
X88578Y126191D02*X96678D01*
X88578Y131191D02*X96678D01*
X72578Y111191D02*X80678D01*
X72578Y116191D02*X80678D01*
X72578Y121191D02*X80678D01*
X72578Y126191D02*X80678D01*
X72578Y131191D02*X80678D01*
G54D156*X113933Y168800D02*X118831D01*
X113933Y166832D02*X118831D01*
X113933Y164863D02*X118831D01*
X113933Y162895D02*X118831D01*
X113933Y160926D02*X118831D01*
X113933Y158958D02*X118831D01*
X113933Y156989D02*X118831D01*
X113933Y155021D02*X118831D01*
X113933Y153052D02*X118831D01*
X113933Y151084D02*X118831D01*
X113933Y149115D02*X118831D01*
X113933Y147147D02*X118831D01*
X113933Y145178D02*X118831D01*
X113933Y143210D02*X118831D01*
X113933Y141241D02*X118831D01*
X113933Y139273D02*X118831D01*
X113933Y137304D02*X118831D01*
X113933Y135336D02*X118831D01*
X113933Y133367D02*X118831D01*
X113933Y131399D02*X118831D01*
X113933Y129430D02*X118831D01*
X113933Y127462D02*X118831D01*
X113933Y125493D02*X118831D01*
X113933Y123525D02*X118831D01*
X113933Y121556D02*X118831D01*
X125319Y115068D02*Y110170D01*
X127287Y115068D02*Y110170D01*
X129256Y115068D02*Y110170D01*
X131224Y115068D02*Y110170D01*
X133193Y115068D02*Y110170D01*
X135161Y115068D02*Y110170D01*
X137130Y115068D02*Y110170D01*
X139098Y115068D02*Y110170D01*
X141067Y115068D02*Y110170D01*
X143035Y115068D02*Y110170D01*
X145004Y115068D02*Y110170D01*
X146972Y115068D02*Y110170D01*
X148941Y115068D02*Y110170D01*
X150909Y115068D02*Y110170D01*
X152878Y115068D02*Y110170D01*
X154846Y115068D02*Y110170D01*
X156815Y115068D02*Y110170D01*
X158783Y115068D02*Y110170D01*
X160752Y115068D02*Y110170D01*
X162720Y115068D02*Y110170D01*
X164689Y115068D02*Y110170D01*
X166657Y115068D02*Y110170D01*
X168626Y115068D02*Y110170D01*
X170594Y115068D02*Y110170D01*
X172563Y115068D02*Y110170D01*
X179051Y121556D02*X183949D01*
X179051Y123524D02*X183949D01*
X179051Y125493D02*X183949D01*
X179051Y127461D02*X183949D01*
X179051Y129430D02*X183949D01*
X179051Y131398D02*X183949D01*
X179051Y133367D02*X183949D01*
X179051Y135335D02*X183949D01*
X179051Y137304D02*X183949D01*
X179051Y139272D02*X183949D01*
X179051Y141241D02*X183949D01*
X179051Y143209D02*X183949D01*
X179051Y145178D02*X183949D01*
X179051Y147146D02*X183949D01*
X179051Y149115D02*X183949D01*
X179051Y151083D02*X183949D01*
X179051Y153052D02*X183949D01*
X179051Y155020D02*X183949D01*
X179051Y156989D02*X183949D01*
X179051Y158957D02*X183949D01*
X179051Y160926D02*X183949D01*
X179051Y162894D02*X183949D01*
X179051Y164863D02*X183949D01*
X179051Y166831D02*X183949D01*
X179051Y168800D02*X183949D01*
X172563Y180186D02*Y175288D01*
X170595Y180186D02*Y175288D01*
X168626Y180186D02*Y175288D01*
X166658Y180186D02*Y175288D01*
X164689Y180186D02*Y175288D01*
X162721Y180186D02*Y175288D01*
X160752Y180186D02*Y175288D01*
X158784Y180186D02*Y175288D01*
X156815Y180186D02*Y175288D01*
X154847Y180186D02*Y175288D01*
X152878Y180186D02*Y175288D01*
X150910Y180186D02*Y175288D01*
X148941Y180186D02*Y175288D01*
X146973Y180186D02*Y175288D01*
X145004Y180186D02*Y175288D01*
X143036Y180186D02*Y175288D01*
X141067Y180186D02*Y175288D01*
X139099Y180186D02*Y175288D01*
X137130Y180186D02*Y175288D01*
X135162Y180186D02*Y175288D01*
X133193Y180186D02*Y175288D01*
X131225Y180186D02*Y175288D01*
X129256Y180186D02*Y175288D01*
X127288Y180186D02*Y175288D01*
X125319Y180186D02*Y175288D01*
G54D157*X83400Y28200D02*Y27200D01*
X71400Y28200D02*Y27200D01*
G54D158*X41677Y32000D02*X42464D01*
X58606D02*X59393D01*
G54D146*X209000Y46700D02*Y45300D01*
X217000Y46700D02*Y45300D01*
X223241Y224478D02*Y223078D01*
X231241Y224478D02*Y223078D01*
X223300Y233600D02*Y232200D01*
X231300Y233600D02*Y232200D01*
X47500Y93200D02*Y91800D01*
X39500Y93200D02*Y91800D01*
G54D148*G36*
X107016Y108984D02*Y107016D01*
X108984D01*
Y108984D01*
X107016D01*
G37*
G36*
X110953D02*Y107016D01*
X112921D01*
Y108984D01*
X110953D01*
G37*
G36*
X152952Y95484D02*Y93516D01*
X154922D01*
Y95484D01*
X152952D01*
G37*
G36*
X149016D02*Y93516D01*
X150984D01*
Y95484D01*
X149016D01*
G37*
G36*
X195516Y154484D02*Y152516D01*
X197484D01*
Y154484D01*
X195516D01*
G37*
G36*
Y150548D02*Y148578D01*
X197484D01*
Y150548D01*
X195516D01*
G37*
G36*
X153722Y101498D02*Y99528D01*
X155690D01*
Y101498D01*
X153722D01*
G37*
G36*
Y105434D02*Y103466D01*
X155690D01*
Y105434D01*
X153722D01*
G37*
G36*
X193016Y174484D02*Y172516D01*
X194984D01*
Y174484D01*
X193016D01*
G37*
G36*
X189078D02*Y172516D01*
X191048D01*
Y174484D01*
X189078D01*
G37*
G36*
X111016Y206422D02*Y204452D01*
X112984D01*
Y206422D01*
X111016D01*
G37*
G36*
Y202484D02*Y200516D01*
X112984D01*
Y202484D01*
X111016D01*
G37*
G36*
X218516Y206422D02*Y204452D01*
X220484D01*
Y206422D01*
X218516D01*
G37*
G36*
Y202484D02*Y200516D01*
X220484D01*
Y202484D01*
X218516D01*
G37*
G36*
X149516Y189922D02*Y187952D01*
X151484D01*
Y189922D01*
X149516D01*
G37*
G36*
Y185984D02*Y184016D01*
X151484D01*
Y185984D01*
X149516D01*
G37*
G36*
X148578Y101548D02*Y99578D01*
X150548D01*
Y101548D01*
X148578D01*
G37*
G36*
Y105484D02*Y103516D01*
X150548D01*
Y105484D01*
X148578D01*
G37*
G36*
X160516Y206422D02*Y204452D01*
X162484D01*
Y206422D01*
X160516D01*
G37*
G36*
Y202484D02*Y200516D01*
X162484D01*
Y202484D01*
X160516D01*
G37*
G54D146*X66500Y93200D02*Y91800D01*
X74500Y93200D02*Y91800D01*
G54D148*G36*
X117016Y186984D02*Y185016D01*
X118984D01*
Y186984D01*
X117016D01*
G37*
G36*
Y183048D02*Y181078D01*
X118984D01*
Y183048D01*
X117016D01*
G37*
G36*
X180016Y106421D02*Y104453D01*
X181984D01*
Y106421D01*
X180016D01*
G37*
G36*
Y102484D02*Y100516D01*
X181984D01*
Y102484D01*
X180016D01*
G37*
G36*
X189516Y154484D02*Y152516D01*
X191484D01*
Y154484D01*
X189516D01*
G37*
G36*
Y150548D02*Y148578D01*
X191484D01*
Y150548D01*
X189516D01*
G37*
G36*
X189508Y141178D02*Y139208D01*
X191478D01*
Y141178D01*
X189508D01*
G37*
G36*
Y145114D02*Y143146D01*
X191478D01*
Y145114D01*
X189508D01*
G37*
G54D158*X243877Y277329D02*X244664D01*
X260806D02*X261593D01*
G54D157*X244641Y293378D02*Y292378D01*
X256641Y293378D02*Y292378D01*
M02*
