M48
INCH
T120C0.035
T119C0.012
T118C0.134
T117C0.043
T116C0.032
T115C0.028
%
T119
X008700Y016500
X007300Y013700
X006700Y011600
X006800Y012100
X006900Y012600
X006750Y022600
X024900Y018500
X024900Y023500
X015900Y013000
X020150Y010900
X015900Y016600
X020200Y018800
X019900Y015850
X021300Y017900
X016800Y014900
X016800Y016500
X017100Y020000
X017500Y006900
X017100Y022680
X022450Y020400
X004200Y001100
X012200Y019400
X012700Y014700
X011900Y010900
X014500Y012300
X012800Y016700
X013900Y013000
X013900Y016600
X014700Y016900
X011440Y022240
X015300Y006900
T115
X012840Y024780
X013840Y024780
X015610Y024780
X016610Y024780
X017610Y024780
X018610Y024780
X019610Y024780
X020610Y024780
X021610Y024780
X022610Y024780
X023610Y024780
X024610Y024780
X004840Y024780
X005840Y024780
X006840Y024780
X007840Y024780
X008840Y024780
X009840Y024780
X010840Y024780
X011840Y024780
T116
X023199Y026850
X022411Y026850
X021624Y026850
X020837Y026850
X023199Y027637
X022411Y027637
X021624Y027637
X020837Y027637
X020049Y027637
X019262Y027637
X018474Y027637
X020049Y026850
X019262Y026850
X018474Y026850
X017687Y026850
X017687Y027637
X016900Y027637
X016112Y027637
X015325Y027637
X014537Y027637
X013750Y027637
X012963Y027637
X016900Y026850
X016112Y026850
X015325Y026850
X014537Y026850
X013750Y026850
X012963Y026850
X012175Y026850
X012175Y027637
X011388Y027637
X010600Y027637
X009813Y027637
X009026Y027637
X008238Y027637
X007451Y027637
X006663Y027637
X005876Y027637
X005089Y027637
X004301Y027637
X011388Y026850
X010600Y026850
X009813Y026850
X009026Y026850
X008238Y026850
X007451Y026850
X006663Y026850
X005876Y026850
X005089Y026850
X004301Y026850
T120
X003120Y027200
X002950Y009750
X002200Y011000
X002600Y020900
X023950Y002400
X025640Y027820
X019650Y005950
X019650Y004600
X022600Y009250
X016810Y021540
X023170Y020950
X002900Y003200
X011400Y021550
X008900Y007800
X009000Y005700
X005750Y009200
T117
X005560Y016870
X005560Y017870
X005560Y018870
X005560Y019870
X004560Y016870
X004560Y017870
X004560Y018870
X004560Y019870
X004560Y020870
X005560Y020870
X005560Y013870
X004560Y013870
X005560Y014870
X004560Y014870
X005560Y011870
X004560Y011870
X005560Y012870
X004556Y012874
X005560Y015870
X004560Y015870
T118
X001600Y016650
X025900Y016650
X025900Y001650
X001600Y001650
M30
