G04 start of page 11 for group -4063 idx -4063 *
G04 Title: (unknown), componentmask *
G04 Creator: pcb 20110918 *
G04 CreationDate: Wed 07 May 2014 09:59:53 GMT UTC *
G04 For: michael *
G04 Format: Gerber/RS-274X *
G04 PCB-Dimensions: 275000 304000 *
G04 PCB-Coordinate-Origin: lower left *
%MOIN*%
%FSLAX25Y25*%
%LNTOPMASK*%
%ADD136R,0.0300X0.0300*%
%ADD135R,0.0140X0.0140*%
%ADD134C,0.0410*%
%ADD133R,0.1006X0.1006*%
%ADD132R,0.0611X0.0611*%
%ADD131R,0.0375X0.0375*%
%ADD130R,0.0769X0.0769*%
%ADD129R,0.0660X0.0660*%
%ADD128R,0.0690X0.0690*%
%ADD127R,0.0218X0.0218*%
%ADD126R,0.0750X0.0750*%
%ADD125R,0.0510X0.0510*%
%ADD124C,0.0808*%
%ADD123C,0.0651*%
%ADD122C,0.0001*%
%ADD121C,0.0660*%
G54D121*X128400Y247800D03*
X138400D03*
G54D122*G36*
X152800Y251100D02*Y244500D01*
X159400D01*
Y251100D01*
X152800D01*
G37*
G54D121*X166100Y247800D03*
X176100D03*
X186100D03*
X196100D03*
X206100D03*
X216100D03*
X226100D03*
X236100D03*
X246100D03*
G54D123*X231988Y268500D03*
X224114D03*
X216240D03*
X208366D03*
X231988Y276374D03*
X224114D03*
X216240D03*
X208366D03*
X200492D03*
X192618D03*
X184744D03*
X200492Y268500D03*
X192618D03*
X184744D03*
X176870D03*
Y276374D03*
X168996D03*
X161122D03*
X153248D03*
X145374D03*
X137500D03*
X129626D03*
G54D124*X55600Y168700D03*
Y178700D03*
Y188700D03*
Y198700D03*
X45600Y168700D03*
Y178700D03*
Y188700D03*
Y198700D03*
Y208700D03*
G54D122*G36*
X45100Y251100D02*Y244500D01*
X51700D01*
Y251100D01*
X45100D01*
G37*
G54D124*X55600Y208700D03*
G54D121*X58400Y247800D03*
X68400D03*
G54D124*X55600Y138700D03*
X45600D03*
X55600Y148700D03*
X45600D03*
G54D122*G36*
X51560Y122740D02*Y114660D01*
X59640D01*
Y122740D01*
X51560D01*
G37*
G54D124*X45600Y118700D03*
X55600Y128700D03*
X45561Y128739D03*
X55600Y158700D03*
X45600D03*
G54D121*X78400Y247800D03*
X88400D03*
X98400D03*
X108400D03*
X118400D03*
G54D123*X168996Y268500D03*
X161122D03*
X153248D03*
G54D122*G36*
X142121Y271753D02*Y265247D01*
X148627D01*
Y271753D01*
X142121D01*
G37*
G54D123*X137500Y268500D03*
X129626D03*
X121752D03*
Y276374D03*
X113878D03*
X106004D03*
X98130D03*
X90256D03*
X82382D03*
X74508D03*
X66634D03*
X58760D03*
X50886D03*
X43012D03*
X113878Y268500D03*
X106004D03*
X98130D03*
X90256D03*
G54D122*G36*
X79129Y271753D02*Y265247D01*
X85635D01*
Y271753D01*
X79129D01*
G37*
G54D123*X74508Y268500D03*
X66634D03*
X58760D03*
X50886D03*
X43012D03*
G54D125*X219200Y160400D02*Y159000D01*
X211200Y160400D02*Y159000D01*
X219159Y171422D02*Y170022D01*
X211159Y171422D02*Y170022D01*
X235500Y93200D02*Y91800D01*
X243500Y93200D02*Y91800D01*
G54D122*G36*
X229544Y82470D02*Y54970D01*
X257044D01*
Y82470D01*
X229544D01*
G37*
G36*
X244544Y67470D02*Y54970D01*
X257044D01*
Y67470D01*
X244544D01*
G37*
G36*
Y82470D02*Y69970D01*
X257044D01*
Y82470D01*
X244544D01*
G37*
G36*
X229544Y67470D02*Y54970D01*
X242044D01*
Y67470D01*
X229544D01*
G37*
G36*
Y82470D02*Y69970D01*
X242044D01*
Y82470D01*
X229544D01*
G37*
G36*
X203216Y29348D02*Y26779D01*
X205784D01*
Y29348D01*
X203216D01*
G37*
G36*
Y33284D02*Y30715D01*
X205784D01*
Y33284D01*
X203216D01*
G37*
G54D126*X214294Y59720D02*X219794D01*
X214294Y77720D02*X219794D01*
G54D125*X209000Y46700D02*Y45300D01*
X217000Y46700D02*Y45300D01*
G54D127*X109882Y30870D02*Y27130D01*
X115000Y30870D02*Y27130D01*
X104764Y30870D02*Y27130D01*
X112441Y30870D02*Y27130D01*
X107323Y30870D02*Y27130D01*
G54D128*X96693Y28508D02*X98661D01*
G54D129*X83400Y28200D02*Y27200D01*
X71400Y28200D02*Y27200D01*
G54D128*X121102Y28508D02*X123071D01*
G54D130*X94921Y18665D02*Y18271D01*
G54D122*G36*
X101117Y22508D02*Y14428D01*
X109197D01*
Y22508D01*
X101117D01*
G37*
G36*
X110566D02*Y14428D01*
X118646D01*
Y22508D01*
X110566D01*
G37*
G54D130*X124842Y18665D02*Y18271D01*
G54D131*X161320Y36044D02*Y33288D01*
X156990Y35256D02*Y32500D01*
X152659Y36044D02*Y33288D01*
X148328Y36044D02*Y33288D01*
X178643Y36044D02*Y33288D01*
X174312Y37619D02*Y34863D01*
X169982Y36044D02*Y33288D01*
X165651Y35256D02*Y32500D01*
G54D132*X145179Y24626D02*Y22658D01*
X197541Y20296D02*Y18327D01*
G54D122*G36*
X31573Y82762D02*Y55262D01*
X59073D01*
Y82762D01*
X31573D01*
G37*
G36*
Y70262D01*
X44073D01*
Y82762D01*
X31573D01*
G37*
G36*
Y67762D02*Y55262D01*
X44073D01*
Y67762D01*
X31573D01*
G37*
G36*
X46573Y82762D02*Y70262D01*
X59073D01*
Y82762D01*
X46573D01*
G37*
G36*
Y67762D02*Y55262D01*
X59073D01*
Y67762D01*
X46573D01*
G37*
G54D126*X68823Y78012D02*X74323D01*
X68823Y60012D02*X74323D01*
G54D133*X41677Y32000D02*X42464D01*
X58606D02*X59393D01*
G54D125*X47500Y93200D02*Y91800D01*
X39500Y93200D02*Y91800D01*
X66500Y93200D02*Y91800D01*
X74500Y93200D02*Y91800D01*
G54D134*X88578Y111191D02*X96678D01*
X88578Y116191D02*X96678D01*
X88578Y121191D02*X96678D01*
X88578Y126191D02*X96678D01*
X88578Y131191D02*X96678D01*
X72578Y111191D02*X80678D01*
X72578Y116191D02*X80678D01*
X72578Y121191D02*X80678D01*
X72578Y126191D02*X80678D01*
X72578Y131191D02*X80678D01*
G54D122*G36*
X106716Y109284D02*Y106716D01*
X109284D01*
Y109284D01*
X106716D01*
G37*
G36*
X110653D02*Y106716D01*
X113221D01*
Y109284D01*
X110653D01*
G37*
G54D135*X113933Y131399D02*X118831D01*
X113933Y129430D02*X118831D01*
X113933Y127462D02*X118831D01*
X113933Y125493D02*X118831D01*
X113933Y123525D02*X118831D01*
X113933Y121556D02*X118831D01*
G54D125*X137641Y85178D02*Y83778D01*
X145641Y85178D02*Y83778D01*
X133600Y94600D02*Y93200D01*
X141600Y94600D02*Y93200D01*
G54D122*G36*
X179716Y106721D02*Y104153D01*
X182284D01*
Y106721D01*
X179716D01*
G37*
G36*
Y102784D02*Y100216D01*
X182284D01*
Y102784D01*
X179716D01*
G37*
G54D132*X173919Y75414D02*X175494D01*
G54D122*G36*
X152652Y95784D02*Y93216D01*
X155222D01*
Y95784D01*
X152652D01*
G37*
G36*
X148716D02*Y93216D01*
X151284D01*
Y95784D01*
X148716D01*
G37*
G36*
X153422Y101798D02*Y99228D01*
X155990D01*
Y101798D01*
X153422D01*
G37*
G36*
Y105734D02*Y103166D01*
X155990D01*
Y105734D01*
X153422D01*
G37*
G36*
X148278Y101848D02*Y99278D01*
X150848D01*
Y101848D01*
X148278D01*
G37*
G36*
Y105784D02*Y103216D01*
X150848D01*
Y105784D01*
X148278D01*
G37*
G54D132*X151478Y75414D02*X153053D01*
G54D135*X160752Y115068D02*Y110170D01*
X162720Y115068D02*Y110170D01*
X164689Y115068D02*Y110170D01*
X166657Y115068D02*Y110170D01*
X168626Y115068D02*Y110170D01*
X170594Y115068D02*Y110170D01*
X156815Y115068D02*Y110170D01*
X158783Y115068D02*Y110170D01*
X172563Y115068D02*Y110170D01*
X141067Y115068D02*Y110170D01*
X143035Y115068D02*Y110170D01*
X145004Y115068D02*Y110170D01*
X146972Y115068D02*Y110170D01*
X148941Y115068D02*Y110170D01*
X150909Y115068D02*Y110170D01*
X152878Y115068D02*Y110170D01*
X154846Y115068D02*Y110170D01*
X133193Y115068D02*Y110170D01*
X135161Y115068D02*Y110170D01*
X137130Y115068D02*Y110170D01*
X139098Y115068D02*Y110170D01*
X179051Y133367D02*X183949D01*
X179051Y135335D02*X183949D01*
X179051Y129430D02*X183949D01*
X179051Y131398D02*X183949D01*
X179051Y121556D02*X183949D01*
X179051Y123524D02*X183949D01*
X179051Y125493D02*X183949D01*
X179051Y127461D02*X183949D01*
X179051Y137304D02*X183949D01*
X179051Y139272D02*X183949D01*
X179051Y141241D02*X183949D01*
X179051Y143209D02*X183949D01*
X179051Y153052D02*X183949D01*
X179051Y155020D02*X183949D01*
X179051Y156989D02*X183949D01*
X179051Y158957D02*X183949D01*
X179051Y164863D02*X183949D01*
X179051Y166831D02*X183949D01*
X179051Y168800D02*X183949D01*
X179051Y145178D02*X183949D01*
X179051Y147146D02*X183949D01*
X179051Y149115D02*X183949D01*
X179051Y151083D02*X183949D01*
X179051Y160926D02*X183949D01*
X179051Y162894D02*X183949D01*
X113933Y168800D02*X118831D01*
X113933Y166832D02*X118831D01*
X113933Y164863D02*X118831D01*
X113933Y162895D02*X118831D01*
X125319Y115068D02*Y110170D01*
X127287Y115068D02*Y110170D01*
X129256Y115068D02*Y110170D01*
X131224Y115068D02*Y110170D01*
X113933Y156989D02*X118831D01*
X113933Y155021D02*X118831D01*
X113933Y153052D02*X118831D01*
X113933Y151084D02*X118831D01*
X113933Y149115D02*X118831D01*
X113933Y147147D02*X118831D01*
X113933Y141241D02*X118831D01*
X113933Y139273D02*X118831D01*
X113933Y137304D02*X118831D01*
X113933Y135336D02*X118831D01*
X113933Y133367D02*X118831D01*
X113933Y160926D02*X118831D01*
X113933Y158958D02*X118831D01*
X113933Y145178D02*X118831D01*
X113933Y143210D02*X118831D01*
G54D136*X154300Y227750D02*Y221250D01*
X149300Y227750D02*Y221250D01*
X144300Y227750D02*Y221250D01*
X139300Y227750D02*Y221250D01*
X134300Y227750D02*Y221250D01*
X129300Y227750D02*Y221250D01*
X124300Y227750D02*Y221250D01*
X212000Y227500D02*Y221000D01*
X207000Y227500D02*Y221000D01*
X202000Y227500D02*Y221000D01*
G54D125*X223241Y224478D02*Y223078D01*
X231241Y224478D02*Y223078D01*
G54D136*X197000Y227500D02*Y221000D01*
X192000Y227500D02*Y221000D01*
X187000Y227500D02*Y221000D01*
X182000Y227500D02*Y221000D01*
Y207000D02*Y200500D01*
X187000Y207000D02*Y200500D01*
X192000Y207000D02*Y200500D01*
X197000Y207000D02*Y200500D01*
X202000Y207000D02*Y200500D01*
X207000Y207000D02*Y200500D01*
X212000Y207000D02*Y200500D01*
G54D122*G36*
X218216Y206722D02*Y204152D01*
X220784D01*
Y206722D01*
X218216D01*
G37*
G36*
Y202784D02*Y200216D01*
X220784D01*
Y202784D01*
X218216D01*
G37*
G54D136*X104200Y227350D02*Y220850D01*
X99200Y227350D02*Y220850D01*
X94200Y227350D02*Y220850D01*
X89200Y227350D02*Y220850D01*
X84200Y227350D02*Y220850D01*
X79200Y227350D02*Y220850D01*
X74200Y227350D02*Y220850D01*
G54D125*X34500Y239300D02*X35900D01*
X34500Y247300D02*X35900D01*
G54D136*X74200Y206850D02*Y200350D01*
X79200Y206850D02*Y200350D01*
X84200Y206850D02*Y200350D01*
X89200Y206850D02*Y200350D01*
X94200Y206850D02*Y200350D01*
X99200Y206850D02*Y200350D01*
X104200Y206850D02*Y200350D01*
X124300Y207250D02*Y200750D01*
X129300Y207250D02*Y200750D01*
X134300Y207250D02*Y200750D01*
X139300Y207250D02*Y200750D01*
G54D122*G36*
X110716Y206722D02*Y204152D01*
X113284D01*
Y206722D01*
X110716D01*
G37*
G36*
Y202784D02*Y200216D01*
X113284D01*
Y202784D01*
X110716D01*
G37*
G54D136*X144300Y207250D02*Y200750D01*
X149300Y207250D02*Y200750D01*
X154300Y207250D02*Y200750D01*
G54D122*G36*
X160216Y206722D02*Y204152D01*
X162784D01*
Y206722D01*
X160216D01*
G37*
G36*
Y202784D02*Y200216D01*
X162784D01*
Y202784D01*
X160216D01*
G37*
G54D133*X247000Y206464D02*Y205677D01*
Y223393D02*Y222606D01*
G54D129*X259500Y256000D02*X260500D01*
X259500Y244000D02*X260500D01*
G54D122*G36*
X116716Y187284D02*Y184716D01*
X119284D01*
Y187284D01*
X116716D01*
G37*
G36*
Y183348D02*Y180778D01*
X119284D01*
Y183348D01*
X116716D01*
G37*
G36*
X195216Y154784D02*Y152216D01*
X197784D01*
Y154784D01*
X195216D01*
G37*
G36*
Y150848D02*Y148278D01*
X197784D01*
Y150848D01*
X195216D01*
G37*
G36*
X189216Y154784D02*Y152216D01*
X191784D01*
Y154784D01*
X189216D01*
G37*
G36*
Y150848D02*Y148278D01*
X191784D01*
Y150848D01*
X189216D01*
G37*
G36*
X189208Y141478D02*Y138908D01*
X191778D01*
Y141478D01*
X189208D01*
G37*
G36*
Y145414D02*Y142846D01*
X191778D01*
Y145414D01*
X189208D01*
G37*
G36*
X192716Y174784D02*Y172216D01*
X195284D01*
Y174784D01*
X192716D01*
G37*
G36*
X188778D02*Y172216D01*
X191348D01*
Y174784D01*
X188778D01*
G37*
G54D135*X168626Y180186D02*Y175288D01*
X166658Y180186D02*Y175288D01*
X164689Y180186D02*Y175288D01*
X162721Y180186D02*Y175288D01*
X160752Y180186D02*Y175288D01*
X158784Y180186D02*Y175288D01*
X156815Y180186D02*Y175288D01*
X154847Y180186D02*Y175288D01*
X152878Y180186D02*Y175288D01*
X150910Y180186D02*Y175288D01*
G54D122*G36*
X149216Y190222D02*Y187652D01*
X151784D01*
Y190222D01*
X149216D01*
G37*
G36*
Y186284D02*Y183716D01*
X151784D01*
Y186284D01*
X149216D01*
G37*
G54D135*X172563Y180186D02*Y175288D01*
X170595Y180186D02*Y175288D01*
X145004Y180186D02*Y175288D01*
X143036Y180186D02*Y175288D01*
X141067Y180186D02*Y175288D01*
X139099Y180186D02*Y175288D01*
X137130Y180186D02*Y175288D01*
X135162Y180186D02*Y175288D01*
X133193Y180186D02*Y175288D01*
X131225Y180186D02*Y175288D01*
X129256Y180186D02*Y175288D01*
X127288Y180186D02*Y175288D01*
X125319Y180186D02*Y175288D01*
X148941Y180186D02*Y175288D01*
X146973Y180186D02*Y175288D01*
M02*
