%TF.GenerationSoftware,KiCad,Pcbnew,8.0.4-8.0.4-0~ubuntu22.04.1*%
%TF.CreationDate,2024-07-18T12:57:02-06:00*%
%TF.ProjectId,PowerBook,506f7765-7242-46f6-9f6b-2e6b69636164,rev?*%
%TF.SameCoordinates,Original*%
%TF.FileFunction,Legend,Top*%
%TF.FilePolarity,Positive*%
%FSLAX46Y46*%
G04 Gerber Fmt 4.6, Leading zero omitted, Abs format (unit mm)*
G04 Created by KiCad (PCBNEW 8.0.4-8.0.4-0~ubuntu22.04.1) date 2024-07-18 12:57:02*
%MOMM*%
%LPD*%
G01*
G04 APERTURE LIST*
%ADD10C,0.150000*%
%ADD11C,0.200000*%
%ADD12C,0.120000*%
%ADD13C,0.000000*%
%ADD14C,0.127000*%
%ADD15C,0.300000*%
G04 APERTURE END LIST*
D10*
X154940000Y-73939400D02*
X154940000Y-74422000D01*
X155016200Y-74091800D02*
X155041600Y-74269600D01*
X155270200Y-74218800D02*
X155016200Y-74091800D01*
X137668000Y-79756000D02*
X140208000Y-79756000D01*
X140208000Y-90424000D01*
X137668000Y-90424000D01*
X137668000Y-79756000D01*
G36*
X137668000Y-79756000D02*
G01*
X140208000Y-79756000D01*
X140208000Y-90424000D01*
X137668000Y-90424000D01*
X137668000Y-79756000D01*
G37*
X155244800Y-74193400D02*
X154940000Y-73939400D01*
D11*
X154635200Y-74193400D02*
X155244800Y-74193400D01*
D10*
X154940000Y-74422000D02*
X155270200Y-74218800D01*
X116010690Y-78079600D02*
X120615710Y-78079600D01*
X119103140Y-74371200D02*
X123771660Y-74371200D01*
X118727886Y-72964959D02*
X119299314Y-72964959D01*
X119013600Y-73964959D02*
X119013600Y-72964959D01*
X120204076Y-73964959D02*
X119870743Y-73488768D01*
X119632648Y-73964959D02*
X119632648Y-72964959D01*
X119632648Y-72964959D02*
X120013600Y-72964959D01*
X120013600Y-72964959D02*
X120108838Y-73012578D01*
X120108838Y-73012578D02*
X120156457Y-73060197D01*
X120156457Y-73060197D02*
X120204076Y-73155435D01*
X120204076Y-73155435D02*
X120204076Y-73298292D01*
X120204076Y-73298292D02*
X120156457Y-73393530D01*
X120156457Y-73393530D02*
X120108838Y-73441149D01*
X120108838Y-73441149D02*
X120013600Y-73488768D01*
X120013600Y-73488768D02*
X119632648Y-73488768D01*
X120632648Y-73964959D02*
X120632648Y-72964959D01*
X120632648Y-72964959D02*
X120965981Y-73679244D01*
X120965981Y-73679244D02*
X121299314Y-72964959D01*
X121299314Y-72964959D02*
X121299314Y-73964959D01*
X121537410Y-74060197D02*
X122299314Y-74060197D01*
X122727886Y-72964959D02*
X122918362Y-72964959D01*
X122918362Y-72964959D02*
X123013600Y-73012578D01*
X123013600Y-73012578D02*
X123108838Y-73107816D01*
X123108838Y-73107816D02*
X123156457Y-73298292D01*
X123156457Y-73298292D02*
X123156457Y-73631625D01*
X123156457Y-73631625D02*
X123108838Y-73822101D01*
X123108838Y-73822101D02*
X123013600Y-73917340D01*
X123013600Y-73917340D02*
X122918362Y-73964959D01*
X122918362Y-73964959D02*
X122727886Y-73964959D01*
X122727886Y-73964959D02*
X122632648Y-73917340D01*
X122632648Y-73917340D02*
X122537410Y-73822101D01*
X122537410Y-73822101D02*
X122489791Y-73631625D01*
X122489791Y-73631625D02*
X122489791Y-73298292D01*
X122489791Y-73298292D02*
X122537410Y-73107816D01*
X122537410Y-73107816D02*
X122632648Y-73012578D01*
X122632648Y-73012578D02*
X122727886Y-72964959D01*
X123585029Y-73964959D02*
X123585029Y-72964959D01*
X123585029Y-72964959D02*
X124156457Y-73964959D01*
X124156457Y-73964959D02*
X124156457Y-72964959D01*
X147628551Y-90615419D02*
X147628551Y-91329704D01*
X147628551Y-91329704D02*
X147580932Y-91472561D01*
X147580932Y-91472561D02*
X147485694Y-91567800D01*
X147485694Y-91567800D02*
X147342837Y-91615419D01*
X147342837Y-91615419D02*
X147247599Y-91615419D01*
X148580932Y-91615419D02*
X148104742Y-91615419D01*
X148104742Y-91615419D02*
X148104742Y-90615419D01*
X149485694Y-91520180D02*
X149438075Y-91567800D01*
X149438075Y-91567800D02*
X149295218Y-91615419D01*
X149295218Y-91615419D02*
X149199980Y-91615419D01*
X149199980Y-91615419D02*
X149057123Y-91567800D01*
X149057123Y-91567800D02*
X148961885Y-91472561D01*
X148961885Y-91472561D02*
X148914266Y-91377323D01*
X148914266Y-91377323D02*
X148866647Y-91186847D01*
X148866647Y-91186847D02*
X148866647Y-91043990D01*
X148866647Y-91043990D02*
X148914266Y-90853514D01*
X148914266Y-90853514D02*
X148961885Y-90758276D01*
X148961885Y-90758276D02*
X149057123Y-90663038D01*
X149057123Y-90663038D02*
X149199980Y-90615419D01*
X149199980Y-90615419D02*
X149295218Y-90615419D01*
X149295218Y-90615419D02*
X149438075Y-90663038D01*
X149438075Y-90663038D02*
X149485694Y-90710657D01*
X150199980Y-90615419D02*
X150199980Y-91329704D01*
X150199980Y-91329704D02*
X150152361Y-91472561D01*
X150152361Y-91472561D02*
X150057123Y-91567800D01*
X150057123Y-91567800D02*
X149914266Y-91615419D01*
X149914266Y-91615419D02*
X149819028Y-91615419D01*
X151152361Y-91615419D02*
X150676171Y-91615419D01*
X150676171Y-91615419D02*
X150676171Y-90615419D01*
X152057123Y-91520180D02*
X152009504Y-91567800D01*
X152009504Y-91567800D02*
X151866647Y-91615419D01*
X151866647Y-91615419D02*
X151771409Y-91615419D01*
X151771409Y-91615419D02*
X151628552Y-91567800D01*
X151628552Y-91567800D02*
X151533314Y-91472561D01*
X151533314Y-91472561D02*
X151485695Y-91377323D01*
X151485695Y-91377323D02*
X151438076Y-91186847D01*
X151438076Y-91186847D02*
X151438076Y-91043990D01*
X151438076Y-91043990D02*
X151485695Y-90853514D01*
X151485695Y-90853514D02*
X151533314Y-90758276D01*
X151533314Y-90758276D02*
X151628552Y-90663038D01*
X151628552Y-90663038D02*
X151771409Y-90615419D01*
X151771409Y-90615419D02*
X151866647Y-90615419D01*
X151866647Y-90615419D02*
X152009504Y-90663038D01*
X152009504Y-90663038D02*
X152057123Y-90710657D01*
X152771409Y-90615419D02*
X152771409Y-91329704D01*
X152771409Y-91329704D02*
X152723790Y-91472561D01*
X152723790Y-91472561D02*
X152628552Y-91567800D01*
X152628552Y-91567800D02*
X152485695Y-91615419D01*
X152485695Y-91615419D02*
X152390457Y-91615419D01*
X153723790Y-91615419D02*
X153247600Y-91615419D01*
X153247600Y-91615419D02*
X153247600Y-90615419D01*
X154628552Y-91520180D02*
X154580933Y-91567800D01*
X154580933Y-91567800D02*
X154438076Y-91615419D01*
X154438076Y-91615419D02*
X154342838Y-91615419D01*
X154342838Y-91615419D02*
X154199981Y-91567800D01*
X154199981Y-91567800D02*
X154104743Y-91472561D01*
X154104743Y-91472561D02*
X154057124Y-91377323D01*
X154057124Y-91377323D02*
X154009505Y-91186847D01*
X154009505Y-91186847D02*
X154009505Y-91043990D01*
X154009505Y-91043990D02*
X154057124Y-90853514D01*
X154057124Y-90853514D02*
X154104743Y-90758276D01*
X154104743Y-90758276D02*
X154199981Y-90663038D01*
X154199981Y-90663038D02*
X154342838Y-90615419D01*
X154342838Y-90615419D02*
X154438076Y-90615419D01*
X154438076Y-90615419D02*
X154580933Y-90663038D01*
X154580933Y-90663038D02*
X154628552Y-90710657D01*
X155342838Y-90615419D02*
X155342838Y-91329704D01*
X155342838Y-91329704D02*
X155295219Y-91472561D01*
X155295219Y-91472561D02*
X155199981Y-91567800D01*
X155199981Y-91567800D02*
X155057124Y-91615419D01*
X155057124Y-91615419D02*
X154961886Y-91615419D01*
X156295219Y-91615419D02*
X155819029Y-91615419D01*
X155819029Y-91615419D02*
X155819029Y-90615419D01*
X157199981Y-91520180D02*
X157152362Y-91567800D01*
X157152362Y-91567800D02*
X157009505Y-91615419D01*
X157009505Y-91615419D02*
X156914267Y-91615419D01*
X156914267Y-91615419D02*
X156771410Y-91567800D01*
X156771410Y-91567800D02*
X156676172Y-91472561D01*
X156676172Y-91472561D02*
X156628553Y-91377323D01*
X156628553Y-91377323D02*
X156580934Y-91186847D01*
X156580934Y-91186847D02*
X156580934Y-91043990D01*
X156580934Y-91043990D02*
X156628553Y-90853514D01*
X156628553Y-90853514D02*
X156676172Y-90758276D01*
X156676172Y-90758276D02*
X156771410Y-90663038D01*
X156771410Y-90663038D02*
X156914267Y-90615419D01*
X156914267Y-90615419D02*
X157009505Y-90615419D01*
X157009505Y-90615419D02*
X157152362Y-90663038D01*
X157152362Y-90663038D02*
X157199981Y-90710657D01*
X101654780Y-108345048D02*
X101702400Y-108392667D01*
X101702400Y-108392667D02*
X101750019Y-108535524D01*
X101750019Y-108535524D02*
X101750019Y-108630762D01*
X101750019Y-108630762D02*
X101702400Y-108773619D01*
X101702400Y-108773619D02*
X101607161Y-108868857D01*
X101607161Y-108868857D02*
X101511923Y-108916476D01*
X101511923Y-108916476D02*
X101321447Y-108964095D01*
X101321447Y-108964095D02*
X101178590Y-108964095D01*
X101178590Y-108964095D02*
X100988114Y-108916476D01*
X100988114Y-108916476D02*
X100892876Y-108868857D01*
X100892876Y-108868857D02*
X100797638Y-108773619D01*
X100797638Y-108773619D02*
X100750019Y-108630762D01*
X100750019Y-108630762D02*
X100750019Y-108535524D01*
X100750019Y-108535524D02*
X100797638Y-108392667D01*
X100797638Y-108392667D02*
X100845257Y-108345048D01*
X100750019Y-107726000D02*
X100750019Y-107535524D01*
X100750019Y-107535524D02*
X100797638Y-107440286D01*
X100797638Y-107440286D02*
X100892876Y-107345048D01*
X100892876Y-107345048D02*
X101083352Y-107297429D01*
X101083352Y-107297429D02*
X101416685Y-107297429D01*
X101416685Y-107297429D02*
X101607161Y-107345048D01*
X101607161Y-107345048D02*
X101702400Y-107440286D01*
X101702400Y-107440286D02*
X101750019Y-107535524D01*
X101750019Y-107535524D02*
X101750019Y-107726000D01*
X101750019Y-107726000D02*
X101702400Y-107821238D01*
X101702400Y-107821238D02*
X101607161Y-107916476D01*
X101607161Y-107916476D02*
X101416685Y-107964095D01*
X101416685Y-107964095D02*
X101083352Y-107964095D01*
X101083352Y-107964095D02*
X100892876Y-107916476D01*
X100892876Y-107916476D02*
X100797638Y-107821238D01*
X100797638Y-107821238D02*
X100750019Y-107726000D01*
X101750019Y-106868857D02*
X100750019Y-106868857D01*
X100750019Y-106868857D02*
X101750019Y-106297429D01*
X101750019Y-106297429D02*
X100750019Y-106297429D01*
X101750019Y-105821238D02*
X100750019Y-105821238D01*
X100750019Y-105821238D02*
X101750019Y-105249810D01*
X101750019Y-105249810D02*
X100750019Y-105249810D01*
X101226209Y-104773619D02*
X101226209Y-104440286D01*
X101750019Y-104297429D02*
X101750019Y-104773619D01*
X101750019Y-104773619D02*
X100750019Y-104773619D01*
X100750019Y-104773619D02*
X100750019Y-104297429D01*
X101654780Y-103297429D02*
X101702400Y-103345048D01*
X101702400Y-103345048D02*
X101750019Y-103487905D01*
X101750019Y-103487905D02*
X101750019Y-103583143D01*
X101750019Y-103583143D02*
X101702400Y-103726000D01*
X101702400Y-103726000D02*
X101607161Y-103821238D01*
X101607161Y-103821238D02*
X101511923Y-103868857D01*
X101511923Y-103868857D02*
X101321447Y-103916476D01*
X101321447Y-103916476D02*
X101178590Y-103916476D01*
X101178590Y-103916476D02*
X100988114Y-103868857D01*
X100988114Y-103868857D02*
X100892876Y-103821238D01*
X100892876Y-103821238D02*
X100797638Y-103726000D01*
X100797638Y-103726000D02*
X100750019Y-103583143D01*
X100750019Y-103583143D02*
X100750019Y-103487905D01*
X100750019Y-103487905D02*
X100797638Y-103345048D01*
X100797638Y-103345048D02*
X100845257Y-103297429D01*
X100750019Y-103011714D02*
X100750019Y-102440286D01*
X101750019Y-102726000D02*
X100750019Y-102726000D01*
X100750019Y-101916476D02*
X100750019Y-101726000D01*
X100750019Y-101726000D02*
X100797638Y-101630762D01*
X100797638Y-101630762D02*
X100892876Y-101535524D01*
X100892876Y-101535524D02*
X101083352Y-101487905D01*
X101083352Y-101487905D02*
X101416685Y-101487905D01*
X101416685Y-101487905D02*
X101607161Y-101535524D01*
X101607161Y-101535524D02*
X101702400Y-101630762D01*
X101702400Y-101630762D02*
X101750019Y-101726000D01*
X101750019Y-101726000D02*
X101750019Y-101916476D01*
X101750019Y-101916476D02*
X101702400Y-102011714D01*
X101702400Y-102011714D02*
X101607161Y-102106952D01*
X101607161Y-102106952D02*
X101416685Y-102154571D01*
X101416685Y-102154571D02*
X101083352Y-102154571D01*
X101083352Y-102154571D02*
X100892876Y-102106952D01*
X100892876Y-102106952D02*
X100797638Y-102011714D01*
X100797638Y-102011714D02*
X100750019Y-101916476D01*
X101750019Y-100487905D02*
X101273828Y-100821238D01*
X101750019Y-101059333D02*
X100750019Y-101059333D01*
X100750019Y-101059333D02*
X100750019Y-100678381D01*
X100750019Y-100678381D02*
X100797638Y-100583143D01*
X100797638Y-100583143D02*
X100845257Y-100535524D01*
X100845257Y-100535524D02*
X100940495Y-100487905D01*
X100940495Y-100487905D02*
X101083352Y-100487905D01*
X101083352Y-100487905D02*
X101178590Y-100535524D01*
X101178590Y-100535524D02*
X101226209Y-100583143D01*
X101226209Y-100583143D02*
X101273828Y-100678381D01*
X101273828Y-100678381D02*
X101273828Y-101059333D01*
X101750019Y-99297428D02*
X100750019Y-99297428D01*
X100750019Y-99297428D02*
X100750019Y-99059333D01*
X100750019Y-99059333D02*
X100797638Y-98916476D01*
X100797638Y-98916476D02*
X100892876Y-98821238D01*
X100892876Y-98821238D02*
X100988114Y-98773619D01*
X100988114Y-98773619D02*
X101178590Y-98726000D01*
X101178590Y-98726000D02*
X101321447Y-98726000D01*
X101321447Y-98726000D02*
X101511923Y-98773619D01*
X101511923Y-98773619D02*
X101607161Y-98821238D01*
X101607161Y-98821238D02*
X101702400Y-98916476D01*
X101702400Y-98916476D02*
X101750019Y-99059333D01*
X101750019Y-99059333D02*
X101750019Y-99297428D01*
X100750019Y-98106952D02*
X100750019Y-97916476D01*
X100750019Y-97916476D02*
X100797638Y-97821238D01*
X100797638Y-97821238D02*
X100892876Y-97726000D01*
X100892876Y-97726000D02*
X101083352Y-97678381D01*
X101083352Y-97678381D02*
X101416685Y-97678381D01*
X101416685Y-97678381D02*
X101607161Y-97726000D01*
X101607161Y-97726000D02*
X101702400Y-97821238D01*
X101702400Y-97821238D02*
X101750019Y-97916476D01*
X101750019Y-97916476D02*
X101750019Y-98106952D01*
X101750019Y-98106952D02*
X101702400Y-98202190D01*
X101702400Y-98202190D02*
X101607161Y-98297428D01*
X101607161Y-98297428D02*
X101416685Y-98345047D01*
X101416685Y-98345047D02*
X101083352Y-98345047D01*
X101083352Y-98345047D02*
X100892876Y-98297428D01*
X100892876Y-98297428D02*
X100797638Y-98202190D01*
X100797638Y-98202190D02*
X100750019Y-98106952D01*
X101226209Y-97249809D02*
X101226209Y-96916476D01*
X101750019Y-96773619D02*
X101750019Y-97249809D01*
X101750019Y-97249809D02*
X100750019Y-97249809D01*
X100750019Y-97249809D02*
X100750019Y-96773619D01*
X101702400Y-96392666D02*
X101750019Y-96249809D01*
X101750019Y-96249809D02*
X101750019Y-96011714D01*
X101750019Y-96011714D02*
X101702400Y-95916476D01*
X101702400Y-95916476D02*
X101654780Y-95868857D01*
X101654780Y-95868857D02*
X101559542Y-95821238D01*
X101559542Y-95821238D02*
X101464304Y-95821238D01*
X101464304Y-95821238D02*
X101369066Y-95868857D01*
X101369066Y-95868857D02*
X101321447Y-95916476D01*
X101321447Y-95916476D02*
X101273828Y-96011714D01*
X101273828Y-96011714D02*
X101226209Y-96202190D01*
X101226209Y-96202190D02*
X101178590Y-96297428D01*
X101178590Y-96297428D02*
X101130971Y-96345047D01*
X101130971Y-96345047D02*
X101035733Y-96392666D01*
X101035733Y-96392666D02*
X100940495Y-96392666D01*
X100940495Y-96392666D02*
X100845257Y-96345047D01*
X100845257Y-96345047D02*
X100797638Y-96297428D01*
X100797638Y-96297428D02*
X100750019Y-96202190D01*
X100750019Y-96202190D02*
X100750019Y-95964095D01*
X100750019Y-95964095D02*
X100797638Y-95821238D01*
X101750019Y-94630761D02*
X100750019Y-94630761D01*
X100750019Y-94630761D02*
X101750019Y-94059333D01*
X101750019Y-94059333D02*
X100750019Y-94059333D01*
X100750019Y-93392666D02*
X100750019Y-93202190D01*
X100750019Y-93202190D02*
X100797638Y-93106952D01*
X100797638Y-93106952D02*
X100892876Y-93011714D01*
X100892876Y-93011714D02*
X101083352Y-92964095D01*
X101083352Y-92964095D02*
X101416685Y-92964095D01*
X101416685Y-92964095D02*
X101607161Y-93011714D01*
X101607161Y-93011714D02*
X101702400Y-93106952D01*
X101702400Y-93106952D02*
X101750019Y-93202190D01*
X101750019Y-93202190D02*
X101750019Y-93392666D01*
X101750019Y-93392666D02*
X101702400Y-93487904D01*
X101702400Y-93487904D02*
X101607161Y-93583142D01*
X101607161Y-93583142D02*
X101416685Y-93630761D01*
X101416685Y-93630761D02*
X101083352Y-93630761D01*
X101083352Y-93630761D02*
X100892876Y-93583142D01*
X100892876Y-93583142D02*
X100797638Y-93487904D01*
X100797638Y-93487904D02*
X100750019Y-93392666D01*
X100750019Y-92678380D02*
X100750019Y-92106952D01*
X101750019Y-92392666D02*
X100750019Y-92392666D01*
X101654780Y-90440285D02*
X101702400Y-90487904D01*
X101702400Y-90487904D02*
X101750019Y-90630761D01*
X101750019Y-90630761D02*
X101750019Y-90725999D01*
X101750019Y-90725999D02*
X101702400Y-90868856D01*
X101702400Y-90868856D02*
X101607161Y-90964094D01*
X101607161Y-90964094D02*
X101511923Y-91011713D01*
X101511923Y-91011713D02*
X101321447Y-91059332D01*
X101321447Y-91059332D02*
X101178590Y-91059332D01*
X101178590Y-91059332D02*
X100988114Y-91011713D01*
X100988114Y-91011713D02*
X100892876Y-90964094D01*
X100892876Y-90964094D02*
X100797638Y-90868856D01*
X100797638Y-90868856D02*
X100750019Y-90725999D01*
X100750019Y-90725999D02*
X100750019Y-90630761D01*
X100750019Y-90630761D02*
X100797638Y-90487904D01*
X100797638Y-90487904D02*
X100845257Y-90440285D01*
X100750019Y-89821237D02*
X100750019Y-89630761D01*
X100750019Y-89630761D02*
X100797638Y-89535523D01*
X100797638Y-89535523D02*
X100892876Y-89440285D01*
X100892876Y-89440285D02*
X101083352Y-89392666D01*
X101083352Y-89392666D02*
X101416685Y-89392666D01*
X101416685Y-89392666D02*
X101607161Y-89440285D01*
X101607161Y-89440285D02*
X101702400Y-89535523D01*
X101702400Y-89535523D02*
X101750019Y-89630761D01*
X101750019Y-89630761D02*
X101750019Y-89821237D01*
X101750019Y-89821237D02*
X101702400Y-89916475D01*
X101702400Y-89916475D02*
X101607161Y-90011713D01*
X101607161Y-90011713D02*
X101416685Y-90059332D01*
X101416685Y-90059332D02*
X101083352Y-90059332D01*
X101083352Y-90059332D02*
X100892876Y-90011713D01*
X100892876Y-90011713D02*
X100797638Y-89916475D01*
X100797638Y-89916475D02*
X100750019Y-89821237D01*
X100750019Y-89106951D02*
X101750019Y-88773618D01*
X101750019Y-88773618D02*
X100750019Y-88440285D01*
X101226209Y-88106951D02*
X101226209Y-87773618D01*
X101750019Y-87630761D02*
X101750019Y-88106951D01*
X101750019Y-88106951D02*
X100750019Y-88106951D01*
X100750019Y-88106951D02*
X100750019Y-87630761D01*
X101750019Y-86630761D02*
X101273828Y-86964094D01*
X101750019Y-87202189D02*
X100750019Y-87202189D01*
X100750019Y-87202189D02*
X100750019Y-86821237D01*
X100750019Y-86821237D02*
X100797638Y-86725999D01*
X100797638Y-86725999D02*
X100845257Y-86678380D01*
X100845257Y-86678380D02*
X100940495Y-86630761D01*
X100940495Y-86630761D02*
X101083352Y-86630761D01*
X101083352Y-86630761D02*
X101178590Y-86678380D01*
X101178590Y-86678380D02*
X101226209Y-86725999D01*
X101226209Y-86725999D02*
X101273828Y-86821237D01*
X101273828Y-86821237D02*
X101273828Y-87202189D01*
X100750019Y-85583141D02*
X100750019Y-85011713D01*
X101750019Y-85297427D02*
X100750019Y-85297427D01*
X101750019Y-84678379D02*
X100750019Y-84678379D01*
X101226209Y-84678379D02*
X101226209Y-84106951D01*
X101750019Y-84106951D02*
X100750019Y-84106951D01*
X101750019Y-83630760D02*
X100750019Y-83630760D01*
X101702400Y-83202189D02*
X101750019Y-83059332D01*
X101750019Y-83059332D02*
X101750019Y-82821237D01*
X101750019Y-82821237D02*
X101702400Y-82725999D01*
X101702400Y-82725999D02*
X101654780Y-82678380D01*
X101654780Y-82678380D02*
X101559542Y-82630761D01*
X101559542Y-82630761D02*
X101464304Y-82630761D01*
X101464304Y-82630761D02*
X101369066Y-82678380D01*
X101369066Y-82678380D02*
X101321447Y-82725999D01*
X101321447Y-82725999D02*
X101273828Y-82821237D01*
X101273828Y-82821237D02*
X101226209Y-83011713D01*
X101226209Y-83011713D02*
X101178590Y-83106951D01*
X101178590Y-83106951D02*
X101130971Y-83154570D01*
X101130971Y-83154570D02*
X101035733Y-83202189D01*
X101035733Y-83202189D02*
X100940495Y-83202189D01*
X100940495Y-83202189D02*
X100845257Y-83154570D01*
X100845257Y-83154570D02*
X100797638Y-83106951D01*
X100797638Y-83106951D02*
X100750019Y-83011713D01*
X100750019Y-83011713D02*
X100750019Y-82773618D01*
X100750019Y-82773618D02*
X100797638Y-82630761D01*
X100750019Y-81583141D02*
X100750019Y-81011713D01*
X101750019Y-81297427D02*
X100750019Y-81297427D01*
X101226209Y-80678379D02*
X101226209Y-80345046D01*
X101750019Y-80202189D02*
X101750019Y-80678379D01*
X101750019Y-80678379D02*
X100750019Y-80678379D01*
X100750019Y-80678379D02*
X100750019Y-80202189D01*
X100750019Y-79868855D02*
X101750019Y-79202189D01*
X100750019Y-79202189D02*
X101750019Y-79868855D01*
X100750019Y-78964093D02*
X100750019Y-78392665D01*
X101750019Y-78678379D02*
X100750019Y-78678379D01*
X173397104Y-103684247D02*
X173397104Y-103208057D01*
X173682819Y-103779485D02*
X172682819Y-103446152D01*
X172682819Y-103446152D02*
X173682819Y-103112819D01*
X173587580Y-102208057D02*
X173635200Y-102255676D01*
X173635200Y-102255676D02*
X173682819Y-102398533D01*
X173682819Y-102398533D02*
X173682819Y-102493771D01*
X173682819Y-102493771D02*
X173635200Y-102636628D01*
X173635200Y-102636628D02*
X173539961Y-102731866D01*
X173539961Y-102731866D02*
X173444723Y-102779485D01*
X173444723Y-102779485D02*
X173254247Y-102827104D01*
X173254247Y-102827104D02*
X173111390Y-102827104D01*
X173111390Y-102827104D02*
X172920914Y-102779485D01*
X172920914Y-102779485D02*
X172825676Y-102731866D01*
X172825676Y-102731866D02*
X172730438Y-102636628D01*
X172730438Y-102636628D02*
X172682819Y-102493771D01*
X172682819Y-102493771D02*
X172682819Y-102398533D01*
X172682819Y-102398533D02*
X172730438Y-102255676D01*
X172730438Y-102255676D02*
X172778057Y-102208057D01*
X172682819Y-101922342D02*
X172682819Y-101350914D01*
X173682819Y-101636628D02*
X172682819Y-101636628D01*
X167086037Y-125875239D02*
X167133656Y-125732382D01*
X167133656Y-125732382D02*
X167181275Y-125684763D01*
X167181275Y-125684763D02*
X167276513Y-125637144D01*
X167276513Y-125637144D02*
X167419370Y-125637144D01*
X167419370Y-125637144D02*
X167514608Y-125684763D01*
X167514608Y-125684763D02*
X167562228Y-125732382D01*
X167562228Y-125732382D02*
X167609847Y-125827620D01*
X167609847Y-125827620D02*
X167609847Y-126208572D01*
X167609847Y-126208572D02*
X166609847Y-126208572D01*
X166609847Y-126208572D02*
X166609847Y-125875239D01*
X166609847Y-125875239D02*
X166657466Y-125780001D01*
X166657466Y-125780001D02*
X166705085Y-125732382D01*
X166705085Y-125732382D02*
X166800323Y-125684763D01*
X166800323Y-125684763D02*
X166895561Y-125684763D01*
X166895561Y-125684763D02*
X166990799Y-125732382D01*
X166990799Y-125732382D02*
X167038418Y-125780001D01*
X167038418Y-125780001D02*
X167086037Y-125875239D01*
X167086037Y-125875239D02*
X167086037Y-126208572D01*
X167609847Y-125065715D02*
X167562228Y-125160953D01*
X167562228Y-125160953D02*
X167466989Y-125208572D01*
X167466989Y-125208572D02*
X166609847Y-125208572D01*
X166943180Y-124256191D02*
X167609847Y-124256191D01*
X166943180Y-124684762D02*
X167466989Y-124684762D01*
X167466989Y-124684762D02*
X167562228Y-124637143D01*
X167562228Y-124637143D02*
X167609847Y-124541905D01*
X167609847Y-124541905D02*
X167609847Y-124399048D01*
X167609847Y-124399048D02*
X167562228Y-124303810D01*
X167562228Y-124303810D02*
X167514608Y-124256191D01*
X167562228Y-123399048D02*
X167609847Y-123494286D01*
X167609847Y-123494286D02*
X167609847Y-123684762D01*
X167609847Y-123684762D02*
X167562228Y-123780000D01*
X167562228Y-123780000D02*
X167466989Y-123827619D01*
X167466989Y-123827619D02*
X167086037Y-123827619D01*
X167086037Y-123827619D02*
X166990799Y-123780000D01*
X166990799Y-123780000D02*
X166943180Y-123684762D01*
X166943180Y-123684762D02*
X166943180Y-123494286D01*
X166943180Y-123494286D02*
X166990799Y-123399048D01*
X166990799Y-123399048D02*
X167086037Y-123351429D01*
X167086037Y-123351429D02*
X167181275Y-123351429D01*
X167181275Y-123351429D02*
X167276513Y-123827619D01*
X167562228Y-122970476D02*
X167609847Y-122827619D01*
X167609847Y-122827619D02*
X167609847Y-122589524D01*
X167609847Y-122589524D02*
X167562228Y-122494286D01*
X167562228Y-122494286D02*
X167514608Y-122446667D01*
X167514608Y-122446667D02*
X167419370Y-122399048D01*
X167419370Y-122399048D02*
X167324132Y-122399048D01*
X167324132Y-122399048D02*
X167228894Y-122446667D01*
X167228894Y-122446667D02*
X167181275Y-122494286D01*
X167181275Y-122494286D02*
X167133656Y-122589524D01*
X167133656Y-122589524D02*
X167086037Y-122780000D01*
X167086037Y-122780000D02*
X167038418Y-122875238D01*
X167038418Y-122875238D02*
X166990799Y-122922857D01*
X166990799Y-122922857D02*
X166895561Y-122970476D01*
X166895561Y-122970476D02*
X166800323Y-122970476D01*
X166800323Y-122970476D02*
X166705085Y-122922857D01*
X166705085Y-122922857D02*
X166657466Y-122875238D01*
X166657466Y-122875238D02*
X166609847Y-122780000D01*
X166609847Y-122780000D02*
X166609847Y-122541905D01*
X166609847Y-122541905D02*
X166657466Y-122399048D01*
X167514608Y-121399048D02*
X167562228Y-121446667D01*
X167562228Y-121446667D02*
X167609847Y-121589524D01*
X167609847Y-121589524D02*
X167609847Y-121684762D01*
X167609847Y-121684762D02*
X167562228Y-121827619D01*
X167562228Y-121827619D02*
X167466989Y-121922857D01*
X167466989Y-121922857D02*
X167371751Y-121970476D01*
X167371751Y-121970476D02*
X167181275Y-122018095D01*
X167181275Y-122018095D02*
X167038418Y-122018095D01*
X167038418Y-122018095D02*
X166847942Y-121970476D01*
X166847942Y-121970476D02*
X166752704Y-121922857D01*
X166752704Y-121922857D02*
X166657466Y-121827619D01*
X166657466Y-121827619D02*
X166609847Y-121684762D01*
X166609847Y-121684762D02*
X166609847Y-121589524D01*
X166609847Y-121589524D02*
X166657466Y-121446667D01*
X166657466Y-121446667D02*
X166705085Y-121399048D01*
X167562228Y-121018095D02*
X167609847Y-120875238D01*
X167609847Y-120875238D02*
X167609847Y-120637143D01*
X167609847Y-120637143D02*
X167562228Y-120541905D01*
X167562228Y-120541905D02*
X167514608Y-120494286D01*
X167514608Y-120494286D02*
X167419370Y-120446667D01*
X167419370Y-120446667D02*
X167324132Y-120446667D01*
X167324132Y-120446667D02*
X167228894Y-120494286D01*
X167228894Y-120494286D02*
X167181275Y-120541905D01*
X167181275Y-120541905D02*
X167133656Y-120637143D01*
X167133656Y-120637143D02*
X167086037Y-120827619D01*
X167086037Y-120827619D02*
X167038418Y-120922857D01*
X167038418Y-120922857D02*
X166990799Y-120970476D01*
X166990799Y-120970476D02*
X166895561Y-121018095D01*
X166895561Y-121018095D02*
X166800323Y-121018095D01*
X166800323Y-121018095D02*
X166705085Y-120970476D01*
X166705085Y-120970476D02*
X166657466Y-120922857D01*
X166657466Y-120922857D02*
X166609847Y-120827619D01*
X166609847Y-120827619D02*
X166609847Y-120589524D01*
X166609847Y-120589524D02*
X166657466Y-120446667D01*
X167609847Y-120018095D02*
X166609847Y-120018095D01*
X166847942Y-117970476D02*
X166800323Y-118065715D01*
X166800323Y-118065715D02*
X166800323Y-118256191D01*
X166800323Y-118256191D02*
X166847942Y-118351429D01*
X166847942Y-118351429D02*
X166943180Y-118446667D01*
X166943180Y-118446667D02*
X167038418Y-118494286D01*
X167038418Y-118494286D02*
X167228894Y-118494286D01*
X167228894Y-118494286D02*
X167324132Y-118446667D01*
X167324132Y-118446667D02*
X167419370Y-118351429D01*
X167419370Y-118351429D02*
X167466989Y-118256191D01*
X167466989Y-118256191D02*
X167466989Y-118065715D01*
X167466989Y-118065715D02*
X167419370Y-117970476D01*
X166466989Y-118160953D02*
X166514608Y-118399048D01*
X166514608Y-118399048D02*
X166657466Y-118637143D01*
X166657466Y-118637143D02*
X166895561Y-118780000D01*
X166895561Y-118780000D02*
X167133656Y-118827619D01*
X167133656Y-118827619D02*
X167371751Y-118780000D01*
X167371751Y-118780000D02*
X167609847Y-118637143D01*
X167609847Y-118637143D02*
X167752704Y-118399048D01*
X167752704Y-118399048D02*
X167800323Y-118160953D01*
X167800323Y-118160953D02*
X167752704Y-117922857D01*
X167752704Y-117922857D02*
X167609847Y-117684762D01*
X167609847Y-117684762D02*
X167371751Y-117541905D01*
X167371751Y-117541905D02*
X167133656Y-117494286D01*
X167133656Y-117494286D02*
X166895561Y-117541905D01*
X166895561Y-117541905D02*
X166657466Y-117684762D01*
X166657466Y-117684762D02*
X166514608Y-117922857D01*
X166514608Y-117922857D02*
X166466989Y-118160953D01*
X167086037Y-116303809D02*
X167086037Y-115970476D01*
X167609847Y-115827619D02*
X167609847Y-116303809D01*
X167609847Y-116303809D02*
X166609847Y-116303809D01*
X166609847Y-116303809D02*
X166609847Y-115827619D01*
X167609847Y-115399047D02*
X166943180Y-115399047D01*
X167133656Y-115399047D02*
X167038418Y-115351428D01*
X167038418Y-115351428D02*
X166990799Y-115303809D01*
X166990799Y-115303809D02*
X166943180Y-115208571D01*
X166943180Y-115208571D02*
X166943180Y-115113333D01*
X167609847Y-114779999D02*
X166943180Y-114779999D01*
X166609847Y-114779999D02*
X166657466Y-114827618D01*
X166657466Y-114827618D02*
X166705085Y-114779999D01*
X166705085Y-114779999D02*
X166657466Y-114732380D01*
X166657466Y-114732380D02*
X166609847Y-114779999D01*
X166609847Y-114779999D02*
X166705085Y-114779999D01*
X167562228Y-113875238D02*
X167609847Y-113970476D01*
X167609847Y-113970476D02*
X167609847Y-114160952D01*
X167609847Y-114160952D02*
X167562228Y-114256190D01*
X167562228Y-114256190D02*
X167514608Y-114303809D01*
X167514608Y-114303809D02*
X167419370Y-114351428D01*
X167419370Y-114351428D02*
X167133656Y-114351428D01*
X167133656Y-114351428D02*
X167038418Y-114303809D01*
X167038418Y-114303809D02*
X166990799Y-114256190D01*
X166990799Y-114256190D02*
X166943180Y-114160952D01*
X166943180Y-114160952D02*
X166943180Y-113970476D01*
X166943180Y-113970476D02*
X166990799Y-113875238D01*
X167609847Y-112684761D02*
X166609847Y-112684761D01*
X167086037Y-112684761D02*
X167086037Y-112113333D01*
X167609847Y-112113333D02*
X166609847Y-112113333D01*
X167562228Y-111256190D02*
X167609847Y-111351428D01*
X167609847Y-111351428D02*
X167609847Y-111541904D01*
X167609847Y-111541904D02*
X167562228Y-111637142D01*
X167562228Y-111637142D02*
X167466989Y-111684761D01*
X167466989Y-111684761D02*
X167086037Y-111684761D01*
X167086037Y-111684761D02*
X166990799Y-111637142D01*
X166990799Y-111637142D02*
X166943180Y-111541904D01*
X166943180Y-111541904D02*
X166943180Y-111351428D01*
X166943180Y-111351428D02*
X166990799Y-111256190D01*
X166990799Y-111256190D02*
X167086037Y-111208571D01*
X167086037Y-111208571D02*
X167181275Y-111208571D01*
X167181275Y-111208571D02*
X167276513Y-111684761D01*
X167609847Y-110637142D02*
X167562228Y-110732380D01*
X167562228Y-110732380D02*
X167466989Y-110779999D01*
X167466989Y-110779999D02*
X166609847Y-110779999D01*
X166943180Y-109827618D02*
X167752704Y-109827618D01*
X167752704Y-109827618D02*
X167847942Y-109875237D01*
X167847942Y-109875237D02*
X167895561Y-109922856D01*
X167895561Y-109922856D02*
X167943180Y-110018094D01*
X167943180Y-110018094D02*
X167943180Y-110160951D01*
X167943180Y-110160951D02*
X167895561Y-110256189D01*
X167562228Y-109827618D02*
X167609847Y-109922856D01*
X167609847Y-109922856D02*
X167609847Y-110113332D01*
X167609847Y-110113332D02*
X167562228Y-110208570D01*
X167562228Y-110208570D02*
X167514608Y-110256189D01*
X167514608Y-110256189D02*
X167419370Y-110303808D01*
X167419370Y-110303808D02*
X167133656Y-110303808D01*
X167133656Y-110303808D02*
X167038418Y-110256189D01*
X167038418Y-110256189D02*
X166990799Y-110208570D01*
X166990799Y-110208570D02*
X166943180Y-110113332D01*
X166943180Y-110113332D02*
X166943180Y-109922856D01*
X166943180Y-109922856D02*
X166990799Y-109827618D01*
X167562228Y-108970475D02*
X167609847Y-109065713D01*
X167609847Y-109065713D02*
X167609847Y-109256189D01*
X167609847Y-109256189D02*
X167562228Y-109351427D01*
X167562228Y-109351427D02*
X167466989Y-109399046D01*
X167466989Y-109399046D02*
X167086037Y-109399046D01*
X167086037Y-109399046D02*
X166990799Y-109351427D01*
X166990799Y-109351427D02*
X166943180Y-109256189D01*
X166943180Y-109256189D02*
X166943180Y-109065713D01*
X166943180Y-109065713D02*
X166990799Y-108970475D01*
X166990799Y-108970475D02*
X167086037Y-108922856D01*
X167086037Y-108922856D02*
X167181275Y-108922856D01*
X167181275Y-108922856D02*
X167276513Y-109399046D01*
X167562228Y-108541903D02*
X167609847Y-108446665D01*
X167609847Y-108446665D02*
X167609847Y-108256189D01*
X167609847Y-108256189D02*
X167562228Y-108160951D01*
X167562228Y-108160951D02*
X167466989Y-108113332D01*
X167466989Y-108113332D02*
X167419370Y-108113332D01*
X167419370Y-108113332D02*
X167324132Y-108160951D01*
X167324132Y-108160951D02*
X167276513Y-108256189D01*
X167276513Y-108256189D02*
X167276513Y-108399046D01*
X167276513Y-108399046D02*
X167228894Y-108494284D01*
X167228894Y-108494284D02*
X167133656Y-108541903D01*
X167133656Y-108541903D02*
X167086037Y-108541903D01*
X167086037Y-108541903D02*
X166990799Y-108494284D01*
X166990799Y-108494284D02*
X166943180Y-108399046D01*
X166943180Y-108399046D02*
X166943180Y-108256189D01*
X166943180Y-108256189D02*
X166990799Y-108160951D01*
X167609847Y-107541903D02*
X167562228Y-107637141D01*
X167562228Y-107637141D02*
X167514608Y-107684760D01*
X167514608Y-107684760D02*
X167419370Y-107732379D01*
X167419370Y-107732379D02*
X167133656Y-107732379D01*
X167133656Y-107732379D02*
X167038418Y-107684760D01*
X167038418Y-107684760D02*
X166990799Y-107637141D01*
X166990799Y-107637141D02*
X166943180Y-107541903D01*
X166943180Y-107541903D02*
X166943180Y-107399046D01*
X166943180Y-107399046D02*
X166990799Y-107303808D01*
X166990799Y-107303808D02*
X167038418Y-107256189D01*
X167038418Y-107256189D02*
X167133656Y-107208570D01*
X167133656Y-107208570D02*
X167419370Y-107208570D01*
X167419370Y-107208570D02*
X167514608Y-107256189D01*
X167514608Y-107256189D02*
X167562228Y-107303808D01*
X167562228Y-107303808D02*
X167609847Y-107399046D01*
X167609847Y-107399046D02*
X167609847Y-107541903D01*
X166943180Y-106779998D02*
X167609847Y-106779998D01*
X167038418Y-106779998D02*
X166990799Y-106732379D01*
X166990799Y-106732379D02*
X166943180Y-106637141D01*
X166943180Y-106637141D02*
X166943180Y-106494284D01*
X166943180Y-106494284D02*
X166990799Y-106399046D01*
X166990799Y-106399046D02*
X167086037Y-106351427D01*
X167086037Y-106351427D02*
X167609847Y-106351427D01*
X169219791Y-127375239D02*
X168219791Y-127375239D01*
X168219791Y-127375239D02*
X168219791Y-126994287D01*
X168219791Y-126994287D02*
X168267410Y-126899049D01*
X168267410Y-126899049D02*
X168315029Y-126851430D01*
X168315029Y-126851430D02*
X168410267Y-126803811D01*
X168410267Y-126803811D02*
X168553124Y-126803811D01*
X168553124Y-126803811D02*
X168648362Y-126851430D01*
X168648362Y-126851430D02*
X168695981Y-126899049D01*
X168695981Y-126899049D02*
X168743600Y-126994287D01*
X168743600Y-126994287D02*
X168743600Y-127375239D01*
X169124552Y-125803811D02*
X169172172Y-125851430D01*
X169172172Y-125851430D02*
X169219791Y-125994287D01*
X169219791Y-125994287D02*
X169219791Y-126089525D01*
X169219791Y-126089525D02*
X169172172Y-126232382D01*
X169172172Y-126232382D02*
X169076933Y-126327620D01*
X169076933Y-126327620D02*
X168981695Y-126375239D01*
X168981695Y-126375239D02*
X168791219Y-126422858D01*
X168791219Y-126422858D02*
X168648362Y-126422858D01*
X168648362Y-126422858D02*
X168457886Y-126375239D01*
X168457886Y-126375239D02*
X168362648Y-126327620D01*
X168362648Y-126327620D02*
X168267410Y-126232382D01*
X168267410Y-126232382D02*
X168219791Y-126089525D01*
X168219791Y-126089525D02*
X168219791Y-125994287D01*
X168219791Y-125994287D02*
X168267410Y-125851430D01*
X168267410Y-125851430D02*
X168315029Y-125803811D01*
X168695981Y-125041906D02*
X168743600Y-124899049D01*
X168743600Y-124899049D02*
X168791219Y-124851430D01*
X168791219Y-124851430D02*
X168886457Y-124803811D01*
X168886457Y-124803811D02*
X169029314Y-124803811D01*
X169029314Y-124803811D02*
X169124552Y-124851430D01*
X169124552Y-124851430D02*
X169172172Y-124899049D01*
X169172172Y-124899049D02*
X169219791Y-124994287D01*
X169219791Y-124994287D02*
X169219791Y-125375239D01*
X169219791Y-125375239D02*
X168219791Y-125375239D01*
X168219791Y-125375239D02*
X168219791Y-125041906D01*
X168219791Y-125041906D02*
X168267410Y-124946668D01*
X168267410Y-124946668D02*
X168315029Y-124899049D01*
X168315029Y-124899049D02*
X168410267Y-124851430D01*
X168410267Y-124851430D02*
X168505505Y-124851430D01*
X168505505Y-124851430D02*
X168600743Y-124899049D01*
X168600743Y-124899049D02*
X168648362Y-124946668D01*
X168648362Y-124946668D02*
X168695981Y-125041906D01*
X168695981Y-125041906D02*
X168695981Y-125375239D01*
X168457886Y-122803810D02*
X168410267Y-122899049D01*
X168410267Y-122899049D02*
X168410267Y-123089525D01*
X168410267Y-123089525D02*
X168457886Y-123184763D01*
X168457886Y-123184763D02*
X168553124Y-123280001D01*
X168553124Y-123280001D02*
X168648362Y-123327620D01*
X168648362Y-123327620D02*
X168838838Y-123327620D01*
X168838838Y-123327620D02*
X168934076Y-123280001D01*
X168934076Y-123280001D02*
X169029314Y-123184763D01*
X169029314Y-123184763D02*
X169076933Y-123089525D01*
X169076933Y-123089525D02*
X169076933Y-122899049D01*
X169076933Y-122899049D02*
X169029314Y-122803810D01*
X168076933Y-122994287D02*
X168124552Y-123232382D01*
X168124552Y-123232382D02*
X168267410Y-123470477D01*
X168267410Y-123470477D02*
X168505505Y-123613334D01*
X168505505Y-123613334D02*
X168743600Y-123660953D01*
X168743600Y-123660953D02*
X168981695Y-123613334D01*
X168981695Y-123613334D02*
X169219791Y-123470477D01*
X169219791Y-123470477D02*
X169362648Y-123232382D01*
X169362648Y-123232382D02*
X169410267Y-122994287D01*
X169410267Y-122994287D02*
X169362648Y-122756191D01*
X169362648Y-122756191D02*
X169219791Y-122518096D01*
X169219791Y-122518096D02*
X168981695Y-122375239D01*
X168981695Y-122375239D02*
X168743600Y-122327620D01*
X168743600Y-122327620D02*
X168505505Y-122375239D01*
X168505505Y-122375239D02*
X168267410Y-122518096D01*
X168267410Y-122518096D02*
X168124552Y-122756191D01*
X168124552Y-122756191D02*
X168076933Y-122994287D01*
X168219791Y-121280000D02*
X168219791Y-120708572D01*
X169219791Y-120994286D02*
X168219791Y-120994286D01*
X169172172Y-119994286D02*
X169219791Y-120089524D01*
X169219791Y-120089524D02*
X169219791Y-120280000D01*
X169219791Y-120280000D02*
X169172172Y-120375238D01*
X169172172Y-120375238D02*
X169076933Y-120422857D01*
X169076933Y-120422857D02*
X168695981Y-120422857D01*
X168695981Y-120422857D02*
X168600743Y-120375238D01*
X168600743Y-120375238D02*
X168553124Y-120280000D01*
X168553124Y-120280000D02*
X168553124Y-120089524D01*
X168553124Y-120089524D02*
X168600743Y-119994286D01*
X168600743Y-119994286D02*
X168695981Y-119946667D01*
X168695981Y-119946667D02*
X168791219Y-119946667D01*
X168791219Y-119946667D02*
X168886457Y-120422857D01*
X169172172Y-119089524D02*
X169219791Y-119184762D01*
X169219791Y-119184762D02*
X169219791Y-119375238D01*
X169219791Y-119375238D02*
X169172172Y-119470476D01*
X169172172Y-119470476D02*
X169124552Y-119518095D01*
X169124552Y-119518095D02*
X169029314Y-119565714D01*
X169029314Y-119565714D02*
X168743600Y-119565714D01*
X168743600Y-119565714D02*
X168648362Y-119518095D01*
X168648362Y-119518095D02*
X168600743Y-119470476D01*
X168600743Y-119470476D02*
X168553124Y-119375238D01*
X168553124Y-119375238D02*
X168553124Y-119184762D01*
X168553124Y-119184762D02*
X168600743Y-119089524D01*
X169219791Y-118660952D02*
X168219791Y-118660952D01*
X169219791Y-118232381D02*
X168695981Y-118232381D01*
X168695981Y-118232381D02*
X168600743Y-118280000D01*
X168600743Y-118280000D02*
X168553124Y-118375238D01*
X168553124Y-118375238D02*
X168553124Y-118518095D01*
X168553124Y-118518095D02*
X168600743Y-118613333D01*
X168600743Y-118613333D02*
X168648362Y-118660952D01*
X169219791Y-116994285D02*
X168219791Y-116994285D01*
X168600743Y-116994285D02*
X168553124Y-116899047D01*
X168553124Y-116899047D02*
X168553124Y-116708571D01*
X168553124Y-116708571D02*
X168600743Y-116613333D01*
X168600743Y-116613333D02*
X168648362Y-116565714D01*
X168648362Y-116565714D02*
X168743600Y-116518095D01*
X168743600Y-116518095D02*
X169029314Y-116518095D01*
X169029314Y-116518095D02*
X169124552Y-116565714D01*
X169124552Y-116565714D02*
X169172172Y-116613333D01*
X169172172Y-116613333D02*
X169219791Y-116708571D01*
X169219791Y-116708571D02*
X169219791Y-116899047D01*
X169219791Y-116899047D02*
X169172172Y-116994285D01*
X168553124Y-116184761D02*
X169219791Y-115946666D01*
X168553124Y-115708571D02*
X169219791Y-115946666D01*
X169219791Y-115946666D02*
X169457886Y-116041904D01*
X169457886Y-116041904D02*
X169505505Y-116089523D01*
X169505505Y-116089523D02*
X169553124Y-116184761D01*
X168934076Y-114613332D02*
X168934076Y-114137142D01*
X169219791Y-114708570D02*
X168219791Y-114375237D01*
X168219791Y-114375237D02*
X169219791Y-114041904D01*
X168553124Y-113708570D02*
X169219791Y-113708570D01*
X168648362Y-113708570D02*
X168600743Y-113660951D01*
X168600743Y-113660951D02*
X168553124Y-113565713D01*
X168553124Y-113565713D02*
X168553124Y-113422856D01*
X168553124Y-113422856D02*
X168600743Y-113327618D01*
X168600743Y-113327618D02*
X168695981Y-113279999D01*
X168695981Y-113279999D02*
X169219791Y-113279999D01*
X169219791Y-112375237D02*
X168219791Y-112375237D01*
X169172172Y-112375237D02*
X169219791Y-112470475D01*
X169219791Y-112470475D02*
X169219791Y-112660951D01*
X169219791Y-112660951D02*
X169172172Y-112756189D01*
X169172172Y-112756189D02*
X169124552Y-112803808D01*
X169124552Y-112803808D02*
X169029314Y-112851427D01*
X169029314Y-112851427D02*
X168743600Y-112851427D01*
X168743600Y-112851427D02*
X168648362Y-112803808D01*
X168648362Y-112803808D02*
X168600743Y-112756189D01*
X168600743Y-112756189D02*
X168553124Y-112660951D01*
X168553124Y-112660951D02*
X168553124Y-112470475D01*
X168553124Y-112470475D02*
X168600743Y-112375237D01*
X169219791Y-111899046D02*
X168553124Y-111899046D01*
X168743600Y-111899046D02*
X168648362Y-111851427D01*
X168648362Y-111851427D02*
X168600743Y-111803808D01*
X168600743Y-111803808D02*
X168553124Y-111708570D01*
X168553124Y-111708570D02*
X168553124Y-111613332D01*
X169219791Y-111137141D02*
X169172172Y-111232379D01*
X169172172Y-111232379D02*
X169124552Y-111279998D01*
X169124552Y-111279998D02*
X169029314Y-111327617D01*
X169029314Y-111327617D02*
X168743600Y-111327617D01*
X168743600Y-111327617D02*
X168648362Y-111279998D01*
X168648362Y-111279998D02*
X168600743Y-111232379D01*
X168600743Y-111232379D02*
X168553124Y-111137141D01*
X168553124Y-111137141D02*
X168553124Y-110994284D01*
X168553124Y-110994284D02*
X168600743Y-110899046D01*
X168600743Y-110899046D02*
X168648362Y-110851427D01*
X168648362Y-110851427D02*
X168743600Y-110803808D01*
X168743600Y-110803808D02*
X169029314Y-110803808D01*
X169029314Y-110803808D02*
X169124552Y-110851427D01*
X169124552Y-110851427D02*
X169172172Y-110899046D01*
X169172172Y-110899046D02*
X169219791Y-110994284D01*
X169219791Y-110994284D02*
X169219791Y-111137141D01*
X169219791Y-109946665D02*
X168219791Y-109946665D01*
X169172172Y-109946665D02*
X169219791Y-110041903D01*
X169219791Y-110041903D02*
X169219791Y-110232379D01*
X169219791Y-110232379D02*
X169172172Y-110327617D01*
X169172172Y-110327617D02*
X169124552Y-110375236D01*
X169124552Y-110375236D02*
X169029314Y-110422855D01*
X169029314Y-110422855D02*
X168743600Y-110422855D01*
X168743600Y-110422855D02*
X168648362Y-110375236D01*
X168648362Y-110375236D02*
X168600743Y-110327617D01*
X168600743Y-110327617D02*
X168553124Y-110232379D01*
X168553124Y-110232379D02*
X168553124Y-110041903D01*
X168553124Y-110041903D02*
X168600743Y-109946665D01*
X169219791Y-109041903D02*
X168695981Y-109041903D01*
X168695981Y-109041903D02*
X168600743Y-109089522D01*
X168600743Y-109089522D02*
X168553124Y-109184760D01*
X168553124Y-109184760D02*
X168553124Y-109375236D01*
X168553124Y-109375236D02*
X168600743Y-109470474D01*
X169172172Y-109041903D02*
X169219791Y-109137141D01*
X169219791Y-109137141D02*
X169219791Y-109375236D01*
X169219791Y-109375236D02*
X169172172Y-109470474D01*
X169172172Y-109470474D02*
X169076933Y-109518093D01*
X169076933Y-109518093D02*
X168981695Y-109518093D01*
X168981695Y-109518093D02*
X168886457Y-109470474D01*
X168886457Y-109470474D02*
X168838838Y-109375236D01*
X168838838Y-109375236D02*
X168838838Y-109137141D01*
X168838838Y-109137141D02*
X168791219Y-109041903D01*
X169172172Y-108518093D02*
X169219791Y-108518093D01*
X169219791Y-108518093D02*
X169315029Y-108565712D01*
X169315029Y-108565712D02*
X169362648Y-108613331D01*
X169219791Y-106851427D02*
X169219791Y-107327617D01*
X169219791Y-107327617D02*
X168219791Y-107327617D01*
X169219791Y-106041903D02*
X169219791Y-106518093D01*
X169219791Y-106518093D02*
X168219791Y-106518093D01*
X169124552Y-105137141D02*
X169172172Y-105184760D01*
X169172172Y-105184760D02*
X169219791Y-105327617D01*
X169219791Y-105327617D02*
X169219791Y-105422855D01*
X169219791Y-105422855D02*
X169172172Y-105565712D01*
X169172172Y-105565712D02*
X169076933Y-105660950D01*
X169076933Y-105660950D02*
X168981695Y-105708569D01*
X168981695Y-105708569D02*
X168791219Y-105756188D01*
X168791219Y-105756188D02*
X168648362Y-105756188D01*
X168648362Y-105756188D02*
X168457886Y-105708569D01*
X168457886Y-105708569D02*
X168362648Y-105660950D01*
X168362648Y-105660950D02*
X168267410Y-105565712D01*
X168267410Y-105565712D02*
X168219791Y-105422855D01*
X168219791Y-105422855D02*
X168219791Y-105327617D01*
X168219791Y-105327617D02*
X168267410Y-105184760D01*
X168267410Y-105184760D02*
X168315029Y-105137141D01*
X120753019Y-118268571D02*
X120753019Y-118839999D01*
X120753019Y-118554285D02*
X119753019Y-118554285D01*
X119753019Y-118554285D02*
X119895876Y-118649523D01*
X119895876Y-118649523D02*
X119991114Y-118744761D01*
X119991114Y-118744761D02*
X120038733Y-118839999D01*
X120753019Y-117316190D02*
X120753019Y-117887618D01*
X120753019Y-117601904D02*
X119753019Y-117601904D01*
X119753019Y-117601904D02*
X119895876Y-117697142D01*
X119895876Y-117697142D02*
X119991114Y-117792380D01*
X119991114Y-117792380D02*
X120038733Y-117887618D01*
X119753019Y-116697142D02*
X119753019Y-116601904D01*
X119753019Y-116601904D02*
X119800638Y-116506666D01*
X119800638Y-116506666D02*
X119848257Y-116459047D01*
X119848257Y-116459047D02*
X119943495Y-116411428D01*
X119943495Y-116411428D02*
X120133971Y-116363809D01*
X120133971Y-116363809D02*
X120372066Y-116363809D01*
X120372066Y-116363809D02*
X120562542Y-116411428D01*
X120562542Y-116411428D02*
X120657780Y-116459047D01*
X120657780Y-116459047D02*
X120705400Y-116506666D01*
X120705400Y-116506666D02*
X120753019Y-116601904D01*
X120753019Y-116601904D02*
X120753019Y-116697142D01*
X120753019Y-116697142D02*
X120705400Y-116792380D01*
X120705400Y-116792380D02*
X120657780Y-116839999D01*
X120657780Y-116839999D02*
X120562542Y-116887618D01*
X120562542Y-116887618D02*
X120372066Y-116935237D01*
X120372066Y-116935237D02*
X120133971Y-116935237D01*
X120133971Y-116935237D02*
X119943495Y-116887618D01*
X119943495Y-116887618D02*
X119848257Y-116839999D01*
X119848257Y-116839999D02*
X119800638Y-116792380D01*
X119800638Y-116792380D02*
X119753019Y-116697142D01*
X120848257Y-116173333D02*
X120848257Y-115411428D01*
X119753019Y-115316189D02*
X119753019Y-114744761D01*
X120753019Y-115030475D02*
X119753019Y-115030475D01*
X139569819Y-103803220D02*
X138569819Y-103803220D01*
X138569819Y-103803220D02*
X139284104Y-103469887D01*
X139284104Y-103469887D02*
X138569819Y-103136554D01*
X138569819Y-103136554D02*
X139569819Y-103136554D01*
X139569819Y-102231792D02*
X139046009Y-102231792D01*
X139046009Y-102231792D02*
X138950771Y-102279411D01*
X138950771Y-102279411D02*
X138903152Y-102374649D01*
X138903152Y-102374649D02*
X138903152Y-102565125D01*
X138903152Y-102565125D02*
X138950771Y-102660363D01*
X139522200Y-102231792D02*
X139569819Y-102327030D01*
X139569819Y-102327030D02*
X139569819Y-102565125D01*
X139569819Y-102565125D02*
X139522200Y-102660363D01*
X139522200Y-102660363D02*
X139426961Y-102707982D01*
X139426961Y-102707982D02*
X139331723Y-102707982D01*
X139331723Y-102707982D02*
X139236485Y-102660363D01*
X139236485Y-102660363D02*
X139188866Y-102565125D01*
X139188866Y-102565125D02*
X139188866Y-102327030D01*
X139188866Y-102327030D02*
X139141247Y-102231792D01*
X138903152Y-101755601D02*
X139569819Y-101755601D01*
X138998390Y-101755601D02*
X138950771Y-101707982D01*
X138950771Y-101707982D02*
X138903152Y-101612744D01*
X138903152Y-101612744D02*
X138903152Y-101469887D01*
X138903152Y-101469887D02*
X138950771Y-101374649D01*
X138950771Y-101374649D02*
X139046009Y-101327030D01*
X139046009Y-101327030D02*
X139569819Y-101327030D01*
X138903152Y-100422268D02*
X139569819Y-100422268D01*
X138903152Y-100850839D02*
X139426961Y-100850839D01*
X139426961Y-100850839D02*
X139522200Y-100803220D01*
X139522200Y-100803220D02*
X139569819Y-100707982D01*
X139569819Y-100707982D02*
X139569819Y-100565125D01*
X139569819Y-100565125D02*
X139522200Y-100469887D01*
X139522200Y-100469887D02*
X139474580Y-100422268D01*
X138903152Y-100088934D02*
X138903152Y-99707982D01*
X139569819Y-99946077D02*
X138712676Y-99946077D01*
X138712676Y-99946077D02*
X138617438Y-99898458D01*
X138617438Y-99898458D02*
X138569819Y-99803220D01*
X138569819Y-99803220D02*
X138569819Y-99707982D01*
X139569819Y-98946077D02*
X139046009Y-98946077D01*
X139046009Y-98946077D02*
X138950771Y-98993696D01*
X138950771Y-98993696D02*
X138903152Y-99088934D01*
X138903152Y-99088934D02*
X138903152Y-99279410D01*
X138903152Y-99279410D02*
X138950771Y-99374648D01*
X139522200Y-98946077D02*
X139569819Y-99041315D01*
X139569819Y-99041315D02*
X139569819Y-99279410D01*
X139569819Y-99279410D02*
X139522200Y-99374648D01*
X139522200Y-99374648D02*
X139426961Y-99422267D01*
X139426961Y-99422267D02*
X139331723Y-99422267D01*
X139331723Y-99422267D02*
X139236485Y-99374648D01*
X139236485Y-99374648D02*
X139188866Y-99279410D01*
X139188866Y-99279410D02*
X139188866Y-99041315D01*
X139188866Y-99041315D02*
X139141247Y-98946077D01*
X139522200Y-98041315D02*
X139569819Y-98136553D01*
X139569819Y-98136553D02*
X139569819Y-98327029D01*
X139569819Y-98327029D02*
X139522200Y-98422267D01*
X139522200Y-98422267D02*
X139474580Y-98469886D01*
X139474580Y-98469886D02*
X139379342Y-98517505D01*
X139379342Y-98517505D02*
X139093628Y-98517505D01*
X139093628Y-98517505D02*
X138998390Y-98469886D01*
X138998390Y-98469886D02*
X138950771Y-98422267D01*
X138950771Y-98422267D02*
X138903152Y-98327029D01*
X138903152Y-98327029D02*
X138903152Y-98136553D01*
X138903152Y-98136553D02*
X138950771Y-98041315D01*
X138903152Y-97755600D02*
X138903152Y-97374648D01*
X138569819Y-97612743D02*
X139426961Y-97612743D01*
X139426961Y-97612743D02*
X139522200Y-97565124D01*
X139522200Y-97565124D02*
X139569819Y-97469886D01*
X139569819Y-97469886D02*
X139569819Y-97374648D01*
X138903152Y-96612743D02*
X139569819Y-96612743D01*
X138903152Y-97041314D02*
X139426961Y-97041314D01*
X139426961Y-97041314D02*
X139522200Y-96993695D01*
X139522200Y-96993695D02*
X139569819Y-96898457D01*
X139569819Y-96898457D02*
X139569819Y-96755600D01*
X139569819Y-96755600D02*
X139522200Y-96660362D01*
X139522200Y-96660362D02*
X139474580Y-96612743D01*
X139569819Y-96136552D02*
X138903152Y-96136552D01*
X139093628Y-96136552D02*
X138998390Y-96088933D01*
X138998390Y-96088933D02*
X138950771Y-96041314D01*
X138950771Y-96041314D02*
X138903152Y-95946076D01*
X138903152Y-95946076D02*
X138903152Y-95850838D01*
X139522200Y-95136552D02*
X139569819Y-95231790D01*
X139569819Y-95231790D02*
X139569819Y-95422266D01*
X139569819Y-95422266D02*
X139522200Y-95517504D01*
X139522200Y-95517504D02*
X139426961Y-95565123D01*
X139426961Y-95565123D02*
X139046009Y-95565123D01*
X139046009Y-95565123D02*
X138950771Y-95517504D01*
X138950771Y-95517504D02*
X138903152Y-95422266D01*
X138903152Y-95422266D02*
X138903152Y-95231790D01*
X138903152Y-95231790D02*
X138950771Y-95136552D01*
X138950771Y-95136552D02*
X139046009Y-95088933D01*
X139046009Y-95088933D02*
X139141247Y-95088933D01*
X139141247Y-95088933D02*
X139236485Y-95565123D01*
X139569819Y-94231790D02*
X138569819Y-94231790D01*
X139522200Y-94231790D02*
X139569819Y-94327028D01*
X139569819Y-94327028D02*
X139569819Y-94517504D01*
X139569819Y-94517504D02*
X139522200Y-94612742D01*
X139522200Y-94612742D02*
X139474580Y-94660361D01*
X139474580Y-94660361D02*
X139379342Y-94707980D01*
X139379342Y-94707980D02*
X139093628Y-94707980D01*
X139093628Y-94707980D02*
X138998390Y-94660361D01*
X138998390Y-94660361D02*
X138950771Y-94612742D01*
X138950771Y-94612742D02*
X138903152Y-94517504D01*
X138903152Y-94517504D02*
X138903152Y-94327028D01*
X138903152Y-94327028D02*
X138950771Y-94231790D01*
X139046009Y-92660361D02*
X139093628Y-92517504D01*
X139093628Y-92517504D02*
X139141247Y-92469885D01*
X139141247Y-92469885D02*
X139236485Y-92422266D01*
X139236485Y-92422266D02*
X139379342Y-92422266D01*
X139379342Y-92422266D02*
X139474580Y-92469885D01*
X139474580Y-92469885D02*
X139522200Y-92517504D01*
X139522200Y-92517504D02*
X139569819Y-92612742D01*
X139569819Y-92612742D02*
X139569819Y-92993694D01*
X139569819Y-92993694D02*
X138569819Y-92993694D01*
X138569819Y-92993694D02*
X138569819Y-92660361D01*
X138569819Y-92660361D02*
X138617438Y-92565123D01*
X138617438Y-92565123D02*
X138665057Y-92517504D01*
X138665057Y-92517504D02*
X138760295Y-92469885D01*
X138760295Y-92469885D02*
X138855533Y-92469885D01*
X138855533Y-92469885D02*
X138950771Y-92517504D01*
X138950771Y-92517504D02*
X138998390Y-92565123D01*
X138998390Y-92565123D02*
X139046009Y-92660361D01*
X139046009Y-92660361D02*
X139046009Y-92993694D01*
X138903152Y-92088932D02*
X139569819Y-91850837D01*
X138903152Y-91612742D02*
X139569819Y-91850837D01*
X139569819Y-91850837D02*
X139807914Y-91946075D01*
X139807914Y-91946075D02*
X139855533Y-91993694D01*
X139855533Y-91993694D02*
X139903152Y-92088932D01*
X139474580Y-91231789D02*
X139522200Y-91184170D01*
X139522200Y-91184170D02*
X139569819Y-91231789D01*
X139569819Y-91231789D02*
X139522200Y-91279408D01*
X139522200Y-91279408D02*
X139474580Y-91231789D01*
X139474580Y-91231789D02*
X139569819Y-91231789D01*
X138950771Y-91231789D02*
X138998390Y-91184170D01*
X138998390Y-91184170D02*
X139046009Y-91231789D01*
X139046009Y-91231789D02*
X138998390Y-91279408D01*
X138998390Y-91279408D02*
X138950771Y-91231789D01*
X138950771Y-91231789D02*
X139046009Y-91231789D01*
X101560112Y-124156121D02*
X101702969Y-124203740D01*
X101702969Y-124203740D02*
X101750588Y-124251359D01*
X101750588Y-124251359D02*
X101798207Y-124346597D01*
X101798207Y-124346597D02*
X101798207Y-124489454D01*
X101798207Y-124489454D02*
X101750588Y-124584692D01*
X101750588Y-124584692D02*
X101702969Y-124632312D01*
X101702969Y-124632312D02*
X101607731Y-124679931D01*
X101607731Y-124679931D02*
X101226779Y-124679931D01*
X101226779Y-124679931D02*
X101226779Y-123679931D01*
X101226779Y-123679931D02*
X101560112Y-123679931D01*
X101560112Y-123679931D02*
X101655350Y-123727550D01*
X101655350Y-123727550D02*
X101702969Y-123775169D01*
X101702969Y-123775169D02*
X101750588Y-123870407D01*
X101750588Y-123870407D02*
X101750588Y-123965645D01*
X101750588Y-123965645D02*
X101702969Y-124060883D01*
X101702969Y-124060883D02*
X101655350Y-124108502D01*
X101655350Y-124108502D02*
X101560112Y-124156121D01*
X101560112Y-124156121D02*
X101226779Y-124156121D01*
X102369636Y-124679931D02*
X102274398Y-124632312D01*
X102274398Y-124632312D02*
X102226779Y-124537073D01*
X102226779Y-124537073D02*
X102226779Y-123679931D01*
X103179160Y-124013264D02*
X103179160Y-124679931D01*
X102750589Y-124013264D02*
X102750589Y-124537073D01*
X102750589Y-124537073D02*
X102798208Y-124632312D01*
X102798208Y-124632312D02*
X102893446Y-124679931D01*
X102893446Y-124679931D02*
X103036303Y-124679931D01*
X103036303Y-124679931D02*
X103131541Y-124632312D01*
X103131541Y-124632312D02*
X103179160Y-124584692D01*
X104036303Y-124632312D02*
X103941065Y-124679931D01*
X103941065Y-124679931D02*
X103750589Y-124679931D01*
X103750589Y-124679931D02*
X103655351Y-124632312D01*
X103655351Y-124632312D02*
X103607732Y-124537073D01*
X103607732Y-124537073D02*
X103607732Y-124156121D01*
X103607732Y-124156121D02*
X103655351Y-124060883D01*
X103655351Y-124060883D02*
X103750589Y-124013264D01*
X103750589Y-124013264D02*
X103941065Y-124013264D01*
X103941065Y-124013264D02*
X104036303Y-124060883D01*
X104036303Y-124060883D02*
X104083922Y-124156121D01*
X104083922Y-124156121D02*
X104083922Y-124251359D01*
X104083922Y-124251359D02*
X103607732Y-124346597D01*
X104464875Y-124632312D02*
X104607732Y-124679931D01*
X104607732Y-124679931D02*
X104845827Y-124679931D01*
X104845827Y-124679931D02*
X104941065Y-124632312D01*
X104941065Y-124632312D02*
X104988684Y-124584692D01*
X104988684Y-124584692D02*
X105036303Y-124489454D01*
X105036303Y-124489454D02*
X105036303Y-124394216D01*
X105036303Y-124394216D02*
X104988684Y-124298978D01*
X104988684Y-124298978D02*
X104941065Y-124251359D01*
X104941065Y-124251359D02*
X104845827Y-124203740D01*
X104845827Y-124203740D02*
X104655351Y-124156121D01*
X104655351Y-124156121D02*
X104560113Y-124108502D01*
X104560113Y-124108502D02*
X104512494Y-124060883D01*
X104512494Y-124060883D02*
X104464875Y-123965645D01*
X104464875Y-123965645D02*
X104464875Y-123870407D01*
X104464875Y-123870407D02*
X104512494Y-123775169D01*
X104512494Y-123775169D02*
X104560113Y-123727550D01*
X104560113Y-123727550D02*
X104655351Y-123679931D01*
X104655351Y-123679931D02*
X104893446Y-123679931D01*
X104893446Y-123679931D02*
X105036303Y-123727550D01*
X106036303Y-124584692D02*
X105988684Y-124632312D01*
X105988684Y-124632312D02*
X105845827Y-124679931D01*
X105845827Y-124679931D02*
X105750589Y-124679931D01*
X105750589Y-124679931D02*
X105607732Y-124632312D01*
X105607732Y-124632312D02*
X105512494Y-124537073D01*
X105512494Y-124537073D02*
X105464875Y-124441835D01*
X105464875Y-124441835D02*
X105417256Y-124251359D01*
X105417256Y-124251359D02*
X105417256Y-124108502D01*
X105417256Y-124108502D02*
X105464875Y-123918026D01*
X105464875Y-123918026D02*
X105512494Y-123822788D01*
X105512494Y-123822788D02*
X105607732Y-123727550D01*
X105607732Y-123727550D02*
X105750589Y-123679931D01*
X105750589Y-123679931D02*
X105845827Y-123679931D01*
X105845827Y-123679931D02*
X105988684Y-123727550D01*
X105988684Y-123727550D02*
X106036303Y-123775169D01*
X106417256Y-124632312D02*
X106560113Y-124679931D01*
X106560113Y-124679931D02*
X106798208Y-124679931D01*
X106798208Y-124679931D02*
X106893446Y-124632312D01*
X106893446Y-124632312D02*
X106941065Y-124584692D01*
X106941065Y-124584692D02*
X106988684Y-124489454D01*
X106988684Y-124489454D02*
X106988684Y-124394216D01*
X106988684Y-124394216D02*
X106941065Y-124298978D01*
X106941065Y-124298978D02*
X106893446Y-124251359D01*
X106893446Y-124251359D02*
X106798208Y-124203740D01*
X106798208Y-124203740D02*
X106607732Y-124156121D01*
X106607732Y-124156121D02*
X106512494Y-124108502D01*
X106512494Y-124108502D02*
X106464875Y-124060883D01*
X106464875Y-124060883D02*
X106417256Y-123965645D01*
X106417256Y-123965645D02*
X106417256Y-123870407D01*
X106417256Y-123870407D02*
X106464875Y-123775169D01*
X106464875Y-123775169D02*
X106512494Y-123727550D01*
X106512494Y-123727550D02*
X106607732Y-123679931D01*
X106607732Y-123679931D02*
X106845827Y-123679931D01*
X106845827Y-123679931D02*
X106988684Y-123727550D01*
X107417256Y-124679931D02*
X107417256Y-123679931D01*
X108512494Y-123679931D02*
X108845827Y-124679931D01*
X108845827Y-124679931D02*
X109179160Y-123679931D01*
X109464875Y-123775169D02*
X109512494Y-123727550D01*
X109512494Y-123727550D02*
X109607732Y-123679931D01*
X109607732Y-123679931D02*
X109845827Y-123679931D01*
X109845827Y-123679931D02*
X109941065Y-123727550D01*
X109941065Y-123727550D02*
X109988684Y-123775169D01*
X109988684Y-123775169D02*
X110036303Y-123870407D01*
X110036303Y-123870407D02*
X110036303Y-123965645D01*
X110036303Y-123965645D02*
X109988684Y-124108502D01*
X109988684Y-124108502D02*
X109417256Y-124679931D01*
X109417256Y-124679931D02*
X110036303Y-124679931D01*
X111226780Y-124298978D02*
X111988685Y-124298978D01*
X113179161Y-123775169D02*
X113226780Y-123727550D01*
X113226780Y-123727550D02*
X113322018Y-123679931D01*
X113322018Y-123679931D02*
X113560113Y-123679931D01*
X113560113Y-123679931D02*
X113655351Y-123727550D01*
X113655351Y-123727550D02*
X113702970Y-123775169D01*
X113702970Y-123775169D02*
X113750589Y-123870407D01*
X113750589Y-123870407D02*
X113750589Y-123965645D01*
X113750589Y-123965645D02*
X113702970Y-124108502D01*
X113702970Y-124108502D02*
X113131542Y-124679931D01*
X113131542Y-124679931D02*
X113750589Y-124679931D01*
X114369637Y-123679931D02*
X114464875Y-123679931D01*
X114464875Y-123679931D02*
X114560113Y-123727550D01*
X114560113Y-123727550D02*
X114607732Y-123775169D01*
X114607732Y-123775169D02*
X114655351Y-123870407D01*
X114655351Y-123870407D02*
X114702970Y-124060883D01*
X114702970Y-124060883D02*
X114702970Y-124298978D01*
X114702970Y-124298978D02*
X114655351Y-124489454D01*
X114655351Y-124489454D02*
X114607732Y-124584692D01*
X114607732Y-124584692D02*
X114560113Y-124632312D01*
X114560113Y-124632312D02*
X114464875Y-124679931D01*
X114464875Y-124679931D02*
X114369637Y-124679931D01*
X114369637Y-124679931D02*
X114274399Y-124632312D01*
X114274399Y-124632312D02*
X114226780Y-124584692D01*
X114226780Y-124584692D02*
X114179161Y-124489454D01*
X114179161Y-124489454D02*
X114131542Y-124298978D01*
X114131542Y-124298978D02*
X114131542Y-124060883D01*
X114131542Y-124060883D02*
X114179161Y-123870407D01*
X114179161Y-123870407D02*
X114226780Y-123775169D01*
X114226780Y-123775169D02*
X114274399Y-123727550D01*
X114274399Y-123727550D02*
X114369637Y-123679931D01*
X115083923Y-123775169D02*
X115131542Y-123727550D01*
X115131542Y-123727550D02*
X115226780Y-123679931D01*
X115226780Y-123679931D02*
X115464875Y-123679931D01*
X115464875Y-123679931D02*
X115560113Y-123727550D01*
X115560113Y-123727550D02*
X115607732Y-123775169D01*
X115607732Y-123775169D02*
X115655351Y-123870407D01*
X115655351Y-123870407D02*
X115655351Y-123965645D01*
X115655351Y-123965645D02*
X115607732Y-124108502D01*
X115607732Y-124108502D02*
X115036304Y-124679931D01*
X115036304Y-124679931D02*
X115655351Y-124679931D01*
X115988685Y-123679931D02*
X116607732Y-123679931D01*
X116607732Y-123679931D02*
X116274399Y-124060883D01*
X116274399Y-124060883D02*
X116417256Y-124060883D01*
X116417256Y-124060883D02*
X116512494Y-124108502D01*
X116512494Y-124108502D02*
X116560113Y-124156121D01*
X116560113Y-124156121D02*
X116607732Y-124251359D01*
X116607732Y-124251359D02*
X116607732Y-124489454D01*
X116607732Y-124489454D02*
X116560113Y-124584692D01*
X116560113Y-124584692D02*
X116512494Y-124632312D01*
X116512494Y-124632312D02*
X116417256Y-124679931D01*
X116417256Y-124679931D02*
X116131542Y-124679931D01*
X116131542Y-124679931D02*
X116036304Y-124632312D01*
X116036304Y-124632312D02*
X115988685Y-124584692D01*
X117036304Y-124584692D02*
X117083923Y-124632312D01*
X117083923Y-124632312D02*
X117036304Y-124679931D01*
X117036304Y-124679931D02*
X116988685Y-124632312D01*
X116988685Y-124632312D02*
X117036304Y-124584692D01*
X117036304Y-124584692D02*
X117036304Y-124679931D01*
X118036303Y-124679931D02*
X117464875Y-124679931D01*
X117750589Y-124679931D02*
X117750589Y-123679931D01*
X117750589Y-123679931D02*
X117655351Y-123822788D01*
X117655351Y-123822788D02*
X117560113Y-123918026D01*
X117560113Y-123918026D02*
X117464875Y-123965645D01*
X118655351Y-123679931D02*
X118750589Y-123679931D01*
X118750589Y-123679931D02*
X118845827Y-123727550D01*
X118845827Y-123727550D02*
X118893446Y-123775169D01*
X118893446Y-123775169D02*
X118941065Y-123870407D01*
X118941065Y-123870407D02*
X118988684Y-124060883D01*
X118988684Y-124060883D02*
X118988684Y-124298978D01*
X118988684Y-124298978D02*
X118941065Y-124489454D01*
X118941065Y-124489454D02*
X118893446Y-124584692D01*
X118893446Y-124584692D02*
X118845827Y-124632312D01*
X118845827Y-124632312D02*
X118750589Y-124679931D01*
X118750589Y-124679931D02*
X118655351Y-124679931D01*
X118655351Y-124679931D02*
X118560113Y-124632312D01*
X118560113Y-124632312D02*
X118512494Y-124584692D01*
X118512494Y-124584692D02*
X118464875Y-124489454D01*
X118464875Y-124489454D02*
X118417256Y-124298978D01*
X118417256Y-124298978D02*
X118417256Y-124060883D01*
X118417256Y-124060883D02*
X118464875Y-123870407D01*
X118464875Y-123870407D02*
X118512494Y-123775169D01*
X118512494Y-123775169D02*
X118560113Y-123727550D01*
X118560113Y-123727550D02*
X118655351Y-123679931D01*
X119845827Y-124679931D02*
X119845827Y-124156121D01*
X119845827Y-124156121D02*
X119798208Y-124060883D01*
X119798208Y-124060883D02*
X119702970Y-124013264D01*
X119702970Y-124013264D02*
X119512494Y-124013264D01*
X119512494Y-124013264D02*
X119417256Y-124060883D01*
X119845827Y-124632312D02*
X119750589Y-124679931D01*
X119750589Y-124679931D02*
X119512494Y-124679931D01*
X119512494Y-124679931D02*
X119417256Y-124632312D01*
X119417256Y-124632312D02*
X119369637Y-124537073D01*
X119369637Y-124537073D02*
X119369637Y-124441835D01*
X119369637Y-124441835D02*
X119417256Y-124346597D01*
X119417256Y-124346597D02*
X119512494Y-124298978D01*
X119512494Y-124298978D02*
X119750589Y-124298978D01*
X119750589Y-124298978D02*
X119845827Y-124251359D01*
X101702969Y-126289875D02*
X101226779Y-126289875D01*
X101226779Y-126289875D02*
X101226779Y-125289875D01*
X102036303Y-126289875D02*
X102036303Y-125623208D01*
X102036303Y-125289875D02*
X101988684Y-125337494D01*
X101988684Y-125337494D02*
X102036303Y-125385113D01*
X102036303Y-125385113D02*
X102083922Y-125337494D01*
X102083922Y-125337494D02*
X102036303Y-125289875D01*
X102036303Y-125289875D02*
X102036303Y-125385113D01*
X102941064Y-126242256D02*
X102845826Y-126289875D01*
X102845826Y-126289875D02*
X102655350Y-126289875D01*
X102655350Y-126289875D02*
X102560112Y-126242256D01*
X102560112Y-126242256D02*
X102512493Y-126194636D01*
X102512493Y-126194636D02*
X102464874Y-126099398D01*
X102464874Y-126099398D02*
X102464874Y-125813684D01*
X102464874Y-125813684D02*
X102512493Y-125718446D01*
X102512493Y-125718446D02*
X102560112Y-125670827D01*
X102560112Y-125670827D02*
X102655350Y-125623208D01*
X102655350Y-125623208D02*
X102845826Y-125623208D01*
X102845826Y-125623208D02*
X102941064Y-125670827D01*
X103750588Y-126242256D02*
X103655350Y-126289875D01*
X103655350Y-126289875D02*
X103464874Y-126289875D01*
X103464874Y-126289875D02*
X103369636Y-126242256D01*
X103369636Y-126242256D02*
X103322017Y-126147017D01*
X103322017Y-126147017D02*
X103322017Y-125766065D01*
X103322017Y-125766065D02*
X103369636Y-125670827D01*
X103369636Y-125670827D02*
X103464874Y-125623208D01*
X103464874Y-125623208D02*
X103655350Y-125623208D01*
X103655350Y-125623208D02*
X103750588Y-125670827D01*
X103750588Y-125670827D02*
X103798207Y-125766065D01*
X103798207Y-125766065D02*
X103798207Y-125861303D01*
X103798207Y-125861303D02*
X103322017Y-125956541D01*
X104226779Y-125623208D02*
X104226779Y-126289875D01*
X104226779Y-125718446D02*
X104274398Y-125670827D01*
X104274398Y-125670827D02*
X104369636Y-125623208D01*
X104369636Y-125623208D02*
X104512493Y-125623208D01*
X104512493Y-125623208D02*
X104607731Y-125670827D01*
X104607731Y-125670827D02*
X104655350Y-125766065D01*
X104655350Y-125766065D02*
X104655350Y-126289875D01*
X105083922Y-126242256D02*
X105179160Y-126289875D01*
X105179160Y-126289875D02*
X105369636Y-126289875D01*
X105369636Y-126289875D02*
X105464874Y-126242256D01*
X105464874Y-126242256D02*
X105512493Y-126147017D01*
X105512493Y-126147017D02*
X105512493Y-126099398D01*
X105512493Y-126099398D02*
X105464874Y-126004160D01*
X105464874Y-126004160D02*
X105369636Y-125956541D01*
X105369636Y-125956541D02*
X105226779Y-125956541D01*
X105226779Y-125956541D02*
X105131541Y-125908922D01*
X105131541Y-125908922D02*
X105083922Y-125813684D01*
X105083922Y-125813684D02*
X105083922Y-125766065D01*
X105083922Y-125766065D02*
X105131541Y-125670827D01*
X105131541Y-125670827D02*
X105226779Y-125623208D01*
X105226779Y-125623208D02*
X105369636Y-125623208D01*
X105369636Y-125623208D02*
X105464874Y-125670827D01*
X106322017Y-126242256D02*
X106226779Y-126289875D01*
X106226779Y-126289875D02*
X106036303Y-126289875D01*
X106036303Y-126289875D02*
X105941065Y-126242256D01*
X105941065Y-126242256D02*
X105893446Y-126147017D01*
X105893446Y-126147017D02*
X105893446Y-125766065D01*
X105893446Y-125766065D02*
X105941065Y-125670827D01*
X105941065Y-125670827D02*
X106036303Y-125623208D01*
X106036303Y-125623208D02*
X106226779Y-125623208D01*
X106226779Y-125623208D02*
X106322017Y-125670827D01*
X106322017Y-125670827D02*
X106369636Y-125766065D01*
X106369636Y-125766065D02*
X106369636Y-125861303D01*
X106369636Y-125861303D02*
X105893446Y-125956541D01*
X107226779Y-126289875D02*
X107226779Y-125289875D01*
X107226779Y-126242256D02*
X107131541Y-126289875D01*
X107131541Y-126289875D02*
X106941065Y-126289875D01*
X106941065Y-126289875D02*
X106845827Y-126242256D01*
X106845827Y-126242256D02*
X106798208Y-126194636D01*
X106798208Y-126194636D02*
X106750589Y-126099398D01*
X106750589Y-126099398D02*
X106750589Y-125813684D01*
X106750589Y-125813684D02*
X106798208Y-125718446D01*
X106798208Y-125718446D02*
X106845827Y-125670827D01*
X106845827Y-125670827D02*
X106941065Y-125623208D01*
X106941065Y-125623208D02*
X107131541Y-125623208D01*
X107131541Y-125623208D02*
X107226779Y-125670827D01*
X109036303Y-126194636D02*
X108988684Y-126242256D01*
X108988684Y-126242256D02*
X108845827Y-126289875D01*
X108845827Y-126289875D02*
X108750589Y-126289875D01*
X108750589Y-126289875D02*
X108607732Y-126242256D01*
X108607732Y-126242256D02*
X108512494Y-126147017D01*
X108512494Y-126147017D02*
X108464875Y-126051779D01*
X108464875Y-126051779D02*
X108417256Y-125861303D01*
X108417256Y-125861303D02*
X108417256Y-125718446D01*
X108417256Y-125718446D02*
X108464875Y-125527970D01*
X108464875Y-125527970D02*
X108512494Y-125432732D01*
X108512494Y-125432732D02*
X108607732Y-125337494D01*
X108607732Y-125337494D02*
X108750589Y-125289875D01*
X108750589Y-125289875D02*
X108845827Y-125289875D01*
X108845827Y-125289875D02*
X108988684Y-125337494D01*
X108988684Y-125337494D02*
X109036303Y-125385113D01*
X109464875Y-125766065D02*
X109798208Y-125766065D01*
X109941065Y-126289875D02*
X109464875Y-126289875D01*
X109464875Y-126289875D02*
X109464875Y-125289875D01*
X109464875Y-125289875D02*
X109941065Y-125289875D01*
X110941065Y-126289875D02*
X110607732Y-125813684D01*
X110369637Y-126289875D02*
X110369637Y-125289875D01*
X110369637Y-125289875D02*
X110750589Y-125289875D01*
X110750589Y-125289875D02*
X110845827Y-125337494D01*
X110845827Y-125337494D02*
X110893446Y-125385113D01*
X110893446Y-125385113D02*
X110941065Y-125480351D01*
X110941065Y-125480351D02*
X110941065Y-125623208D01*
X110941065Y-125623208D02*
X110893446Y-125718446D01*
X110893446Y-125718446D02*
X110845827Y-125766065D01*
X110845827Y-125766065D02*
X110750589Y-125813684D01*
X110750589Y-125813684D02*
X110369637Y-125813684D01*
X111369637Y-126289875D02*
X111369637Y-125289875D01*
X111369637Y-125289875D02*
X111941065Y-126289875D01*
X111941065Y-126289875D02*
X111941065Y-125289875D01*
X112417256Y-125908922D02*
X113179161Y-125908922D01*
X113845827Y-125289875D02*
X114036303Y-125289875D01*
X114036303Y-125289875D02*
X114131541Y-125337494D01*
X114131541Y-125337494D02*
X114226779Y-125432732D01*
X114226779Y-125432732D02*
X114274398Y-125623208D01*
X114274398Y-125623208D02*
X114274398Y-125956541D01*
X114274398Y-125956541D02*
X114226779Y-126147017D01*
X114226779Y-126147017D02*
X114131541Y-126242256D01*
X114131541Y-126242256D02*
X114036303Y-126289875D01*
X114036303Y-126289875D02*
X113845827Y-126289875D01*
X113845827Y-126289875D02*
X113750589Y-126242256D01*
X113750589Y-126242256D02*
X113655351Y-126147017D01*
X113655351Y-126147017D02*
X113607732Y-125956541D01*
X113607732Y-125956541D02*
X113607732Y-125623208D01*
X113607732Y-125623208D02*
X113655351Y-125432732D01*
X113655351Y-125432732D02*
X113750589Y-125337494D01*
X113750589Y-125337494D02*
X113845827Y-125289875D01*
X114702970Y-126289875D02*
X114702970Y-125289875D01*
X114702970Y-125766065D02*
X115274398Y-125766065D01*
X115274398Y-126289875D02*
X115274398Y-125289875D01*
X116226779Y-126289875D02*
X115750589Y-126289875D01*
X115750589Y-126289875D02*
X115750589Y-125289875D01*
X116560113Y-125908922D02*
X117322018Y-125908922D01*
X117750589Y-126242256D02*
X117893446Y-126289875D01*
X117893446Y-126289875D02*
X118131541Y-126289875D01*
X118131541Y-126289875D02*
X118226779Y-126242256D01*
X118226779Y-126242256D02*
X118274398Y-126194636D01*
X118274398Y-126194636D02*
X118322017Y-126099398D01*
X118322017Y-126099398D02*
X118322017Y-126004160D01*
X118322017Y-126004160D02*
X118274398Y-125908922D01*
X118274398Y-125908922D02*
X118226779Y-125861303D01*
X118226779Y-125861303D02*
X118131541Y-125813684D01*
X118131541Y-125813684D02*
X117941065Y-125766065D01*
X117941065Y-125766065D02*
X117845827Y-125718446D01*
X117845827Y-125718446D02*
X117798208Y-125670827D01*
X117798208Y-125670827D02*
X117750589Y-125575589D01*
X117750589Y-125575589D02*
X117750589Y-125480351D01*
X117750589Y-125480351D02*
X117798208Y-125385113D01*
X117798208Y-125385113D02*
X117845827Y-125337494D01*
X117845827Y-125337494D02*
X117941065Y-125289875D01*
X117941065Y-125289875D02*
X118179160Y-125289875D01*
X118179160Y-125289875D02*
X118322017Y-125337494D01*
X119417256Y-125623208D02*
X119655351Y-126289875D01*
X119655351Y-126289875D02*
X119893446Y-125623208D01*
X120226780Y-125385113D02*
X120274399Y-125337494D01*
X120274399Y-125337494D02*
X120369637Y-125289875D01*
X120369637Y-125289875D02*
X120607732Y-125289875D01*
X120607732Y-125289875D02*
X120702970Y-125337494D01*
X120702970Y-125337494D02*
X120750589Y-125385113D01*
X120750589Y-125385113D02*
X120798208Y-125480351D01*
X120798208Y-125480351D02*
X120798208Y-125575589D01*
X120798208Y-125575589D02*
X120750589Y-125718446D01*
X120750589Y-125718446D02*
X120179161Y-126289875D01*
X120179161Y-126289875D02*
X120798208Y-126289875D01*
X101226779Y-127899819D02*
X101226779Y-126899819D01*
X101655350Y-127899819D02*
X101655350Y-127376009D01*
X101655350Y-127376009D02*
X101607731Y-127280771D01*
X101607731Y-127280771D02*
X101512493Y-127233152D01*
X101512493Y-127233152D02*
X101369636Y-127233152D01*
X101369636Y-127233152D02*
X101274398Y-127280771D01*
X101274398Y-127280771D02*
X101226779Y-127328390D01*
X101988684Y-127233152D02*
X102369636Y-127233152D01*
X102131541Y-126899819D02*
X102131541Y-127756961D01*
X102131541Y-127756961D02*
X102179160Y-127852200D01*
X102179160Y-127852200D02*
X102274398Y-127899819D01*
X102274398Y-127899819D02*
X102369636Y-127899819D01*
X102560113Y-127233152D02*
X102941065Y-127233152D01*
X102702970Y-126899819D02*
X102702970Y-127756961D01*
X102702970Y-127756961D02*
X102750589Y-127852200D01*
X102750589Y-127852200D02*
X102845827Y-127899819D01*
X102845827Y-127899819D02*
X102941065Y-127899819D01*
X103274399Y-127233152D02*
X103274399Y-128233152D01*
X103274399Y-127280771D02*
X103369637Y-127233152D01*
X103369637Y-127233152D02*
X103560113Y-127233152D01*
X103560113Y-127233152D02*
X103655351Y-127280771D01*
X103655351Y-127280771D02*
X103702970Y-127328390D01*
X103702970Y-127328390D02*
X103750589Y-127423628D01*
X103750589Y-127423628D02*
X103750589Y-127709342D01*
X103750589Y-127709342D02*
X103702970Y-127804580D01*
X103702970Y-127804580D02*
X103655351Y-127852200D01*
X103655351Y-127852200D02*
X103560113Y-127899819D01*
X103560113Y-127899819D02*
X103369637Y-127899819D01*
X103369637Y-127899819D02*
X103274399Y-127852200D01*
X104131542Y-127852200D02*
X104226780Y-127899819D01*
X104226780Y-127899819D02*
X104417256Y-127899819D01*
X104417256Y-127899819D02*
X104512494Y-127852200D01*
X104512494Y-127852200D02*
X104560113Y-127756961D01*
X104560113Y-127756961D02*
X104560113Y-127709342D01*
X104560113Y-127709342D02*
X104512494Y-127614104D01*
X104512494Y-127614104D02*
X104417256Y-127566485D01*
X104417256Y-127566485D02*
X104274399Y-127566485D01*
X104274399Y-127566485D02*
X104179161Y-127518866D01*
X104179161Y-127518866D02*
X104131542Y-127423628D01*
X104131542Y-127423628D02*
X104131542Y-127376009D01*
X104131542Y-127376009D02*
X104179161Y-127280771D01*
X104179161Y-127280771D02*
X104274399Y-127233152D01*
X104274399Y-127233152D02*
X104417256Y-127233152D01*
X104417256Y-127233152D02*
X104512494Y-127280771D01*
X104988685Y-127804580D02*
X105036304Y-127852200D01*
X105036304Y-127852200D02*
X104988685Y-127899819D01*
X104988685Y-127899819D02*
X104941066Y-127852200D01*
X104941066Y-127852200D02*
X104988685Y-127804580D01*
X104988685Y-127804580D02*
X104988685Y-127899819D01*
X104988685Y-127280771D02*
X105036304Y-127328390D01*
X105036304Y-127328390D02*
X104988685Y-127376009D01*
X104988685Y-127376009D02*
X104941066Y-127328390D01*
X104941066Y-127328390D02*
X104988685Y-127280771D01*
X104988685Y-127280771D02*
X104988685Y-127376009D01*
X106179160Y-126852200D02*
X105322018Y-128137914D01*
X107226779Y-126852200D02*
X106369637Y-128137914D01*
X107702970Y-127899819D02*
X107607732Y-127852200D01*
X107607732Y-127852200D02*
X107560113Y-127804580D01*
X107560113Y-127804580D02*
X107512494Y-127709342D01*
X107512494Y-127709342D02*
X107512494Y-127423628D01*
X107512494Y-127423628D02*
X107560113Y-127328390D01*
X107560113Y-127328390D02*
X107607732Y-127280771D01*
X107607732Y-127280771D02*
X107702970Y-127233152D01*
X107702970Y-127233152D02*
X107845827Y-127233152D01*
X107845827Y-127233152D02*
X107941065Y-127280771D01*
X107941065Y-127280771D02*
X107988684Y-127328390D01*
X107988684Y-127328390D02*
X108036303Y-127423628D01*
X108036303Y-127423628D02*
X108036303Y-127709342D01*
X108036303Y-127709342D02*
X107988684Y-127804580D01*
X107988684Y-127804580D02*
X107941065Y-127852200D01*
X107941065Y-127852200D02*
X107845827Y-127899819D01*
X107845827Y-127899819D02*
X107702970Y-127899819D01*
X108464875Y-127899819D02*
X108464875Y-126899819D01*
X108893446Y-127899819D02*
X108893446Y-127376009D01*
X108893446Y-127376009D02*
X108845827Y-127280771D01*
X108845827Y-127280771D02*
X108750589Y-127233152D01*
X108750589Y-127233152D02*
X108607732Y-127233152D01*
X108607732Y-127233152D02*
X108512494Y-127280771D01*
X108512494Y-127280771D02*
X108464875Y-127328390D01*
X109274399Y-127233152D02*
X109464875Y-127899819D01*
X109464875Y-127899819D02*
X109655351Y-127423628D01*
X109655351Y-127423628D02*
X109845827Y-127899819D01*
X109845827Y-127899819D02*
X110036303Y-127233152D01*
X110417256Y-127899819D02*
X110417256Y-127233152D01*
X110417256Y-127423628D02*
X110464875Y-127328390D01*
X110464875Y-127328390D02*
X110512494Y-127280771D01*
X110512494Y-127280771D02*
X110607732Y-127233152D01*
X110607732Y-127233152D02*
X110702970Y-127233152D01*
X111036304Y-127804580D02*
X111083923Y-127852200D01*
X111083923Y-127852200D02*
X111036304Y-127899819D01*
X111036304Y-127899819D02*
X110988685Y-127852200D01*
X110988685Y-127852200D02*
X111036304Y-127804580D01*
X111036304Y-127804580D02*
X111036304Y-127899819D01*
X111655351Y-127899819D02*
X111560113Y-127852200D01*
X111560113Y-127852200D02*
X111512494Y-127804580D01*
X111512494Y-127804580D02*
X111464875Y-127709342D01*
X111464875Y-127709342D02*
X111464875Y-127423628D01*
X111464875Y-127423628D02*
X111512494Y-127328390D01*
X111512494Y-127328390D02*
X111560113Y-127280771D01*
X111560113Y-127280771D02*
X111655351Y-127233152D01*
X111655351Y-127233152D02*
X111798208Y-127233152D01*
X111798208Y-127233152D02*
X111893446Y-127280771D01*
X111893446Y-127280771D02*
X111941065Y-127328390D01*
X111941065Y-127328390D02*
X111988684Y-127423628D01*
X111988684Y-127423628D02*
X111988684Y-127709342D01*
X111988684Y-127709342D02*
X111941065Y-127804580D01*
X111941065Y-127804580D02*
X111893446Y-127852200D01*
X111893446Y-127852200D02*
X111798208Y-127899819D01*
X111798208Y-127899819D02*
X111655351Y-127899819D01*
X112417256Y-127899819D02*
X112417256Y-127233152D01*
X112417256Y-127423628D02*
X112464875Y-127328390D01*
X112464875Y-127328390D02*
X112512494Y-127280771D01*
X112512494Y-127280771D02*
X112607732Y-127233152D01*
X112607732Y-127233152D02*
X112702970Y-127233152D01*
X113464875Y-127233152D02*
X113464875Y-128042676D01*
X113464875Y-128042676D02*
X113417256Y-128137914D01*
X113417256Y-128137914D02*
X113369637Y-128185533D01*
X113369637Y-128185533D02*
X113274399Y-128233152D01*
X113274399Y-128233152D02*
X113131542Y-128233152D01*
X113131542Y-128233152D02*
X113036304Y-128185533D01*
X113464875Y-127852200D02*
X113369637Y-127899819D01*
X113369637Y-127899819D02*
X113179161Y-127899819D01*
X113179161Y-127899819D02*
X113083923Y-127852200D01*
X113083923Y-127852200D02*
X113036304Y-127804580D01*
X113036304Y-127804580D02*
X112988685Y-127709342D01*
X112988685Y-127709342D02*
X112988685Y-127423628D01*
X112988685Y-127423628D02*
X113036304Y-127328390D01*
X113036304Y-127328390D02*
X113083923Y-127280771D01*
X113083923Y-127280771D02*
X113179161Y-127233152D01*
X113179161Y-127233152D02*
X113369637Y-127233152D01*
X113369637Y-127233152D02*
X113464875Y-127280771D01*
X114655351Y-126852200D02*
X113798209Y-128137914D01*
X115417256Y-127852200D02*
X115322018Y-127899819D01*
X115322018Y-127899819D02*
X115131542Y-127899819D01*
X115131542Y-127899819D02*
X115036304Y-127852200D01*
X115036304Y-127852200D02*
X114988685Y-127804580D01*
X114988685Y-127804580D02*
X114941066Y-127709342D01*
X114941066Y-127709342D02*
X114941066Y-127423628D01*
X114941066Y-127423628D02*
X114988685Y-127328390D01*
X114988685Y-127328390D02*
X115036304Y-127280771D01*
X115036304Y-127280771D02*
X115131542Y-127233152D01*
X115131542Y-127233152D02*
X115322018Y-127233152D01*
X115322018Y-127233152D02*
X115417256Y-127280771D01*
X116226780Y-127852200D02*
X116131542Y-127899819D01*
X116131542Y-127899819D02*
X115941066Y-127899819D01*
X115941066Y-127899819D02*
X115845828Y-127852200D01*
X115845828Y-127852200D02*
X115798209Y-127756961D01*
X115798209Y-127756961D02*
X115798209Y-127376009D01*
X115798209Y-127376009D02*
X115845828Y-127280771D01*
X115845828Y-127280771D02*
X115941066Y-127233152D01*
X115941066Y-127233152D02*
X116131542Y-127233152D01*
X116131542Y-127233152D02*
X116226780Y-127280771D01*
X116226780Y-127280771D02*
X116274399Y-127376009D01*
X116274399Y-127376009D02*
X116274399Y-127471247D01*
X116274399Y-127471247D02*
X115798209Y-127566485D01*
X116702971Y-127899819D02*
X116702971Y-127233152D01*
X116702971Y-127423628D02*
X116750590Y-127328390D01*
X116750590Y-127328390D02*
X116798209Y-127280771D01*
X116798209Y-127280771D02*
X116893447Y-127233152D01*
X116893447Y-127233152D02*
X116988685Y-127233152D01*
X117322019Y-127233152D02*
X117322019Y-127899819D01*
X117322019Y-127328390D02*
X117369638Y-127280771D01*
X117369638Y-127280771D02*
X117464876Y-127233152D01*
X117464876Y-127233152D02*
X117607733Y-127233152D01*
X117607733Y-127233152D02*
X117702971Y-127280771D01*
X117702971Y-127280771D02*
X117750590Y-127376009D01*
X117750590Y-127376009D02*
X117750590Y-127899819D01*
X117988686Y-127995057D02*
X118750590Y-127995057D01*
X119131543Y-127899819D02*
X119036305Y-127852200D01*
X119036305Y-127852200D02*
X118988686Y-127804580D01*
X118988686Y-127804580D02*
X118941067Y-127709342D01*
X118941067Y-127709342D02*
X118941067Y-127423628D01*
X118941067Y-127423628D02*
X118988686Y-127328390D01*
X118988686Y-127328390D02*
X119036305Y-127280771D01*
X119036305Y-127280771D02*
X119131543Y-127233152D01*
X119131543Y-127233152D02*
X119274400Y-127233152D01*
X119274400Y-127233152D02*
X119369638Y-127280771D01*
X119369638Y-127280771D02*
X119417257Y-127328390D01*
X119417257Y-127328390D02*
X119464876Y-127423628D01*
X119464876Y-127423628D02*
X119464876Y-127709342D01*
X119464876Y-127709342D02*
X119417257Y-127804580D01*
X119417257Y-127804580D02*
X119369638Y-127852200D01*
X119369638Y-127852200D02*
X119274400Y-127899819D01*
X119274400Y-127899819D02*
X119131543Y-127899819D01*
X119893448Y-127899819D02*
X119893448Y-126899819D01*
X120322019Y-127899819D02*
X120322019Y-127376009D01*
X120322019Y-127376009D02*
X120274400Y-127280771D01*
X120274400Y-127280771D02*
X120179162Y-127233152D01*
X120179162Y-127233152D02*
X120036305Y-127233152D01*
X120036305Y-127233152D02*
X119941067Y-127280771D01*
X119941067Y-127280771D02*
X119893448Y-127328390D01*
X120941067Y-127899819D02*
X120845829Y-127852200D01*
X120845829Y-127852200D02*
X120798210Y-127756961D01*
X120798210Y-127756961D02*
X120798210Y-126899819D01*
X121083925Y-127995057D02*
X121845829Y-127995057D01*
X122036306Y-127852200D02*
X122131544Y-127899819D01*
X122131544Y-127899819D02*
X122322020Y-127899819D01*
X122322020Y-127899819D02*
X122417258Y-127852200D01*
X122417258Y-127852200D02*
X122464877Y-127756961D01*
X122464877Y-127756961D02*
X122464877Y-127709342D01*
X122464877Y-127709342D02*
X122417258Y-127614104D01*
X122417258Y-127614104D02*
X122322020Y-127566485D01*
X122322020Y-127566485D02*
X122179163Y-127566485D01*
X122179163Y-127566485D02*
X122083925Y-127518866D01*
X122083925Y-127518866D02*
X122036306Y-127423628D01*
X122036306Y-127423628D02*
X122036306Y-127376009D01*
X122036306Y-127376009D02*
X122083925Y-127280771D01*
X122083925Y-127280771D02*
X122179163Y-127233152D01*
X122179163Y-127233152D02*
X122322020Y-127233152D01*
X122322020Y-127233152D02*
X122417258Y-127280771D01*
X122655354Y-127995057D02*
X123417258Y-127995057D01*
X123560116Y-127233152D02*
X123798211Y-127899819D01*
X123798211Y-127899819D02*
X124036306Y-127233152D01*
X124369640Y-126995057D02*
X124417259Y-126947438D01*
X124417259Y-126947438D02*
X124512497Y-126899819D01*
X124512497Y-126899819D02*
X124750592Y-126899819D01*
X124750592Y-126899819D02*
X124845830Y-126947438D01*
X124845830Y-126947438D02*
X124893449Y-126995057D01*
X124893449Y-126995057D02*
X124941068Y-127090295D01*
X124941068Y-127090295D02*
X124941068Y-127185533D01*
X124941068Y-127185533D02*
X124893449Y-127328390D01*
X124893449Y-127328390D02*
X124322021Y-127899819D01*
X124322021Y-127899819D02*
X124941068Y-127899819D01*
X125369640Y-127804580D02*
X125417259Y-127852200D01*
X125417259Y-127852200D02*
X125369640Y-127899819D01*
X125369640Y-127899819D02*
X125322021Y-127852200D01*
X125322021Y-127852200D02*
X125369640Y-127804580D01*
X125369640Y-127804580D02*
X125369640Y-127899819D01*
X125702973Y-127233152D02*
X126083925Y-127233152D01*
X125845830Y-126899819D02*
X125845830Y-127756961D01*
X125845830Y-127756961D02*
X125893449Y-127852200D01*
X125893449Y-127852200D02*
X125988687Y-127899819D01*
X125988687Y-127899819D02*
X126083925Y-127899819D01*
X126322021Y-127899819D02*
X126845830Y-127233152D01*
X126322021Y-127233152D02*
X126845830Y-127899819D01*
X127083926Y-127233152D02*
X127464878Y-127233152D01*
X127226783Y-126899819D02*
X127226783Y-127756961D01*
X127226783Y-127756961D02*
X127274402Y-127852200D01*
X127274402Y-127852200D02*
X127369640Y-127899819D01*
X127369640Y-127899819D02*
X127464878Y-127899819D01*
X173133609Y-116957123D02*
X173133609Y-116623790D01*
X173657419Y-116480933D02*
X173657419Y-116957123D01*
X173657419Y-116957123D02*
X172657419Y-116957123D01*
X172657419Y-116957123D02*
X172657419Y-116480933D01*
X172657419Y-116147599D02*
X173657419Y-115480933D01*
X172657419Y-115480933D02*
X173657419Y-116147599D01*
X172657419Y-115242837D02*
X172657419Y-114671409D01*
X173657419Y-114957123D02*
X172657419Y-114957123D01*
X173752657Y-114576171D02*
X173752657Y-113814266D01*
X173657419Y-113099980D02*
X173657419Y-113576170D01*
X173657419Y-113576170D02*
X172657419Y-113576170D01*
X173133609Y-112766646D02*
X173133609Y-112433313D01*
X173657419Y-112290456D02*
X173657419Y-112766646D01*
X173657419Y-112766646D02*
X172657419Y-112766646D01*
X172657419Y-112766646D02*
X172657419Y-112290456D01*
X173657419Y-111861884D02*
X172657419Y-111861884D01*
X172657419Y-111861884D02*
X172657419Y-111623789D01*
X172657419Y-111623789D02*
X172705038Y-111480932D01*
X172705038Y-111480932D02*
X172800276Y-111385694D01*
X172800276Y-111385694D02*
X172895514Y-111338075D01*
X172895514Y-111338075D02*
X173085990Y-111290456D01*
X173085990Y-111290456D02*
X173228847Y-111290456D01*
X173228847Y-111290456D02*
X173419323Y-111338075D01*
X173419323Y-111338075D02*
X173514561Y-111385694D01*
X173514561Y-111385694D02*
X173609800Y-111480932D01*
X173609800Y-111480932D02*
X173657419Y-111623789D01*
X173657419Y-111623789D02*
X173657419Y-111861884D01*
X117978719Y-95713371D02*
X117978719Y-96284799D01*
X117978719Y-95999085D02*
X116978719Y-95999085D01*
X116978719Y-95999085D02*
X117121576Y-96094323D01*
X117121576Y-96094323D02*
X117216814Y-96189561D01*
X117216814Y-96189561D02*
X117264433Y-96284799D01*
X117978719Y-94760990D02*
X117978719Y-95332418D01*
X117978719Y-95046704D02*
X116978719Y-95046704D01*
X116978719Y-95046704D02*
X117121576Y-95141942D01*
X117121576Y-95141942D02*
X117216814Y-95237180D01*
X117216814Y-95237180D02*
X117264433Y-95332418D01*
X116978719Y-94141942D02*
X116978719Y-94046704D01*
X116978719Y-94046704D02*
X117026338Y-93951466D01*
X117026338Y-93951466D02*
X117073957Y-93903847D01*
X117073957Y-93903847D02*
X117169195Y-93856228D01*
X117169195Y-93856228D02*
X117359671Y-93808609D01*
X117359671Y-93808609D02*
X117597766Y-93808609D01*
X117597766Y-93808609D02*
X117788242Y-93856228D01*
X117788242Y-93856228D02*
X117883480Y-93903847D01*
X117883480Y-93903847D02*
X117931100Y-93951466D01*
X117931100Y-93951466D02*
X117978719Y-94046704D01*
X117978719Y-94046704D02*
X117978719Y-94141942D01*
X117978719Y-94141942D02*
X117931100Y-94237180D01*
X117931100Y-94237180D02*
X117883480Y-94284799D01*
X117883480Y-94284799D02*
X117788242Y-94332418D01*
X117788242Y-94332418D02*
X117597766Y-94380037D01*
X117597766Y-94380037D02*
X117359671Y-94380037D01*
X117359671Y-94380037D02*
X117169195Y-94332418D01*
X117169195Y-94332418D02*
X117073957Y-94284799D01*
X117073957Y-94284799D02*
X117026338Y-94237180D01*
X117026338Y-94237180D02*
X116978719Y-94141942D01*
X118073957Y-93618133D02*
X118073957Y-92856228D01*
X116978719Y-92760989D02*
X116978719Y-92189561D01*
X117978719Y-92475275D02*
X116978719Y-92475275D01*
X108427739Y-94959052D02*
X107427739Y-94959052D01*
X107427739Y-94959052D02*
X107427739Y-94578100D01*
X107427739Y-94578100D02*
X107475358Y-94482862D01*
X107475358Y-94482862D02*
X107522977Y-94435243D01*
X107522977Y-94435243D02*
X107618215Y-94387624D01*
X107618215Y-94387624D02*
X107761072Y-94387624D01*
X107761072Y-94387624D02*
X107856310Y-94435243D01*
X107856310Y-94435243D02*
X107903929Y-94482862D01*
X107903929Y-94482862D02*
X107951548Y-94578100D01*
X107951548Y-94578100D02*
X107951548Y-94959052D01*
X107427739Y-94054290D02*
X108427739Y-93816195D01*
X108427739Y-93816195D02*
X107713453Y-93625719D01*
X107713453Y-93625719D02*
X108427739Y-93435243D01*
X108427739Y-93435243D02*
X107427739Y-93197148D01*
X108427739Y-92244767D02*
X107951548Y-92578100D01*
X108427739Y-92816195D02*
X107427739Y-92816195D01*
X107427739Y-92816195D02*
X107427739Y-92435243D01*
X107427739Y-92435243D02*
X107475358Y-92340005D01*
X107475358Y-92340005D02*
X107522977Y-92292386D01*
X107522977Y-92292386D02*
X107618215Y-92244767D01*
X107618215Y-92244767D02*
X107761072Y-92244767D01*
X107761072Y-92244767D02*
X107856310Y-92292386D01*
X107856310Y-92292386D02*
X107903929Y-92340005D01*
X107903929Y-92340005D02*
X107951548Y-92435243D01*
X107951548Y-92435243D02*
X107951548Y-92816195D01*
X115159862Y-78491999D02*
X115731290Y-78491999D01*
X115445576Y-79491999D02*
X115445576Y-78491999D01*
X116636052Y-79491999D02*
X116302719Y-79015808D01*
X116064624Y-79491999D02*
X116064624Y-78491999D01*
X116064624Y-78491999D02*
X116445576Y-78491999D01*
X116445576Y-78491999D02*
X116540814Y-78539618D01*
X116540814Y-78539618D02*
X116588433Y-78587237D01*
X116588433Y-78587237D02*
X116636052Y-78682475D01*
X116636052Y-78682475D02*
X116636052Y-78825332D01*
X116636052Y-78825332D02*
X116588433Y-78920570D01*
X116588433Y-78920570D02*
X116540814Y-78968189D01*
X116540814Y-78968189D02*
X116445576Y-79015808D01*
X116445576Y-79015808D02*
X116064624Y-79015808D01*
X117064624Y-79491999D02*
X117064624Y-78491999D01*
X117064624Y-78491999D02*
X117397957Y-79206284D01*
X117397957Y-79206284D02*
X117731290Y-78491999D01*
X117731290Y-78491999D02*
X117731290Y-79491999D01*
X117969386Y-79587237D02*
X118731290Y-79587237D01*
X119159862Y-78491999D02*
X119350338Y-78491999D01*
X119350338Y-78491999D02*
X119445576Y-78539618D01*
X119445576Y-78539618D02*
X119540814Y-78634856D01*
X119540814Y-78634856D02*
X119588433Y-78825332D01*
X119588433Y-78825332D02*
X119588433Y-79158665D01*
X119588433Y-79158665D02*
X119540814Y-79349141D01*
X119540814Y-79349141D02*
X119445576Y-79444380D01*
X119445576Y-79444380D02*
X119350338Y-79491999D01*
X119350338Y-79491999D02*
X119159862Y-79491999D01*
X119159862Y-79491999D02*
X119064624Y-79444380D01*
X119064624Y-79444380D02*
X118969386Y-79349141D01*
X118969386Y-79349141D02*
X118921767Y-79158665D01*
X118921767Y-79158665D02*
X118921767Y-78825332D01*
X118921767Y-78825332D02*
X118969386Y-78634856D01*
X118969386Y-78634856D02*
X119064624Y-78539618D01*
X119064624Y-78539618D02*
X119159862Y-78491999D01*
X120350338Y-78968189D02*
X120017005Y-78968189D01*
X120017005Y-79491999D02*
X120017005Y-78491999D01*
X120017005Y-78491999D02*
X120493195Y-78491999D01*
X121207481Y-78968189D02*
X120874148Y-78968189D01*
X120874148Y-79491999D02*
X120874148Y-78491999D01*
X120874148Y-78491999D02*
X121350338Y-78491999D01*
X114895333Y-93704580D02*
X114847714Y-93752200D01*
X114847714Y-93752200D02*
X114704857Y-93799819D01*
X114704857Y-93799819D02*
X114609619Y-93799819D01*
X114609619Y-93799819D02*
X114466762Y-93752200D01*
X114466762Y-93752200D02*
X114371524Y-93656961D01*
X114371524Y-93656961D02*
X114323905Y-93561723D01*
X114323905Y-93561723D02*
X114276286Y-93371247D01*
X114276286Y-93371247D02*
X114276286Y-93228390D01*
X114276286Y-93228390D02*
X114323905Y-93037914D01*
X114323905Y-93037914D02*
X114371524Y-92942676D01*
X114371524Y-92942676D02*
X114466762Y-92847438D01*
X114466762Y-92847438D02*
X114609619Y-92799819D01*
X114609619Y-92799819D02*
X114704857Y-92799819D01*
X114704857Y-92799819D02*
X114847714Y-92847438D01*
X114847714Y-92847438D02*
X114895333Y-92895057D01*
X115228667Y-92799819D02*
X115847714Y-92799819D01*
X115847714Y-92799819D02*
X115514381Y-93180771D01*
X115514381Y-93180771D02*
X115657238Y-93180771D01*
X115657238Y-93180771D02*
X115752476Y-93228390D01*
X115752476Y-93228390D02*
X115800095Y-93276009D01*
X115800095Y-93276009D02*
X115847714Y-93371247D01*
X115847714Y-93371247D02*
X115847714Y-93609342D01*
X115847714Y-93609342D02*
X115800095Y-93704580D01*
X115800095Y-93704580D02*
X115752476Y-93752200D01*
X115752476Y-93752200D02*
X115657238Y-93799819D01*
X115657238Y-93799819D02*
X115371524Y-93799819D01*
X115371524Y-93799819D02*
X115276286Y-93752200D01*
X115276286Y-93752200D02*
X115228667Y-93704580D01*
X109397833Y-103153380D02*
X109350214Y-103201000D01*
X109350214Y-103201000D02*
X109207357Y-103248619D01*
X109207357Y-103248619D02*
X109112119Y-103248619D01*
X109112119Y-103248619D02*
X108969262Y-103201000D01*
X108969262Y-103201000D02*
X108874024Y-103105761D01*
X108874024Y-103105761D02*
X108826405Y-103010523D01*
X108826405Y-103010523D02*
X108778786Y-102820047D01*
X108778786Y-102820047D02*
X108778786Y-102677190D01*
X108778786Y-102677190D02*
X108826405Y-102486714D01*
X108826405Y-102486714D02*
X108874024Y-102391476D01*
X108874024Y-102391476D02*
X108969262Y-102296238D01*
X108969262Y-102296238D02*
X109112119Y-102248619D01*
X109112119Y-102248619D02*
X109207357Y-102248619D01*
X109207357Y-102248619D02*
X109350214Y-102296238D01*
X109350214Y-102296238D02*
X109397833Y-102343857D01*
X110254976Y-102581952D02*
X110254976Y-103248619D01*
X110016881Y-102201000D02*
X109778786Y-102915285D01*
X109778786Y-102915285D02*
X110397833Y-102915285D01*
X115299915Y-100859239D02*
X115299915Y-101668762D01*
X115299915Y-101668762D02*
X115347534Y-101764000D01*
X115347534Y-101764000D02*
X115395153Y-101811620D01*
X115395153Y-101811620D02*
X115490391Y-101859239D01*
X115490391Y-101859239D02*
X115680867Y-101859239D01*
X115680867Y-101859239D02*
X115776105Y-101811620D01*
X115776105Y-101811620D02*
X115823724Y-101764000D01*
X115823724Y-101764000D02*
X115871343Y-101668762D01*
X115871343Y-101668762D02*
X115871343Y-100859239D01*
X116252296Y-100859239D02*
X116871343Y-100859239D01*
X116871343Y-100859239D02*
X116538010Y-101240191D01*
X116538010Y-101240191D02*
X116680867Y-101240191D01*
X116680867Y-101240191D02*
X116776105Y-101287810D01*
X116776105Y-101287810D02*
X116823724Y-101335429D01*
X116823724Y-101335429D02*
X116871343Y-101430667D01*
X116871343Y-101430667D02*
X116871343Y-101668762D01*
X116871343Y-101668762D02*
X116823724Y-101764000D01*
X116823724Y-101764000D02*
X116776105Y-101811620D01*
X116776105Y-101811620D02*
X116680867Y-101859239D01*
X116680867Y-101859239D02*
X116395153Y-101859239D01*
X116395153Y-101859239D02*
X116299915Y-101811620D01*
X116299915Y-101811620D02*
X116252296Y-101764000D01*
X114463534Y-95942320D02*
X114415915Y-95989940D01*
X114415915Y-95989940D02*
X114273058Y-96037559D01*
X114273058Y-96037559D02*
X114177820Y-96037559D01*
X114177820Y-96037559D02*
X114034963Y-95989940D01*
X114034963Y-95989940D02*
X113939725Y-95894701D01*
X113939725Y-95894701D02*
X113892106Y-95799463D01*
X113892106Y-95799463D02*
X113844487Y-95608987D01*
X113844487Y-95608987D02*
X113844487Y-95466130D01*
X113844487Y-95466130D02*
X113892106Y-95275654D01*
X113892106Y-95275654D02*
X113939725Y-95180416D01*
X113939725Y-95180416D02*
X114034963Y-95085178D01*
X114034963Y-95085178D02*
X114177820Y-95037559D01*
X114177820Y-95037559D02*
X114273058Y-95037559D01*
X114273058Y-95037559D02*
X114415915Y-95085178D01*
X114415915Y-95085178D02*
X114463534Y-95132797D01*
X114844487Y-95132797D02*
X114892106Y-95085178D01*
X114892106Y-95085178D02*
X114987344Y-95037559D01*
X114987344Y-95037559D02*
X115225439Y-95037559D01*
X115225439Y-95037559D02*
X115320677Y-95085178D01*
X115320677Y-95085178D02*
X115368296Y-95132797D01*
X115368296Y-95132797D02*
X115415915Y-95228035D01*
X115415915Y-95228035D02*
X115415915Y-95323273D01*
X115415915Y-95323273D02*
X115368296Y-95466130D01*
X115368296Y-95466130D02*
X114796868Y-96037559D01*
X114796868Y-96037559D02*
X115415915Y-96037559D01*
X120749793Y-101845280D02*
X120702174Y-101892900D01*
X120702174Y-101892900D02*
X120559317Y-101940519D01*
X120559317Y-101940519D02*
X120464079Y-101940519D01*
X120464079Y-101940519D02*
X120321222Y-101892900D01*
X120321222Y-101892900D02*
X120225984Y-101797661D01*
X120225984Y-101797661D02*
X120178365Y-101702423D01*
X120178365Y-101702423D02*
X120130746Y-101511947D01*
X120130746Y-101511947D02*
X120130746Y-101369090D01*
X120130746Y-101369090D02*
X120178365Y-101178614D01*
X120178365Y-101178614D02*
X120225984Y-101083376D01*
X120225984Y-101083376D02*
X120321222Y-100988138D01*
X120321222Y-100988138D02*
X120464079Y-100940519D01*
X120464079Y-100940519D02*
X120559317Y-100940519D01*
X120559317Y-100940519D02*
X120702174Y-100988138D01*
X120702174Y-100988138D02*
X120749793Y-101035757D01*
X121654555Y-100940519D02*
X121178365Y-100940519D01*
X121178365Y-100940519D02*
X121130746Y-101416709D01*
X121130746Y-101416709D02*
X121178365Y-101369090D01*
X121178365Y-101369090D02*
X121273603Y-101321471D01*
X121273603Y-101321471D02*
X121511698Y-101321471D01*
X121511698Y-101321471D02*
X121606936Y-101369090D01*
X121606936Y-101369090D02*
X121654555Y-101416709D01*
X121654555Y-101416709D02*
X121702174Y-101511947D01*
X121702174Y-101511947D02*
X121702174Y-101750042D01*
X121702174Y-101750042D02*
X121654555Y-101845280D01*
X121654555Y-101845280D02*
X121606936Y-101892900D01*
X121606936Y-101892900D02*
X121511698Y-101940519D01*
X121511698Y-101940519D02*
X121273603Y-101940519D01*
X121273603Y-101940519D02*
X121178365Y-101892900D01*
X121178365Y-101892900D02*
X121130746Y-101845280D01*
X105088687Y-115300012D02*
X105021343Y-115300012D01*
X105021343Y-115300012D02*
X104886656Y-115232668D01*
X104886656Y-115232668D02*
X104819313Y-115165325D01*
X104819313Y-115165325D02*
X104751969Y-115030638D01*
X104751969Y-115030638D02*
X104751969Y-114895951D01*
X104751969Y-114895951D02*
X104785641Y-114794936D01*
X104785641Y-114794936D02*
X104886656Y-114626577D01*
X104886656Y-114626577D02*
X104987671Y-114525562D01*
X104987671Y-114525562D02*
X105156030Y-114424546D01*
X105156030Y-114424546D02*
X105257045Y-114390875D01*
X105257045Y-114390875D02*
X105391732Y-114390875D01*
X105391732Y-114390875D02*
X105526419Y-114458218D01*
X105526419Y-114458218D02*
X105593763Y-114525562D01*
X105593763Y-114525562D02*
X105661106Y-114660249D01*
X105661106Y-114660249D02*
X105661106Y-114727592D01*
X106334541Y-115266340D02*
X106199854Y-115131653D01*
X106199854Y-115131653D02*
X106098839Y-115097981D01*
X106098839Y-115097981D02*
X106031496Y-115097981D01*
X106031496Y-115097981D02*
X105863137Y-115131653D01*
X105863137Y-115131653D02*
X105694778Y-115232668D01*
X105694778Y-115232668D02*
X105425404Y-115502042D01*
X105425404Y-115502042D02*
X105391732Y-115603058D01*
X105391732Y-115603058D02*
X105391732Y-115670401D01*
X105391732Y-115670401D02*
X105425404Y-115771416D01*
X105425404Y-115771416D02*
X105560091Y-115906103D01*
X105560091Y-115906103D02*
X105661106Y-115939775D01*
X105661106Y-115939775D02*
X105728450Y-115939775D01*
X105728450Y-115939775D02*
X105829465Y-115906103D01*
X105829465Y-115906103D02*
X105997824Y-115737745D01*
X105997824Y-115737745D02*
X106031496Y-115636729D01*
X106031496Y-115636729D02*
X106031496Y-115569386D01*
X106031496Y-115569386D02*
X105997824Y-115468371D01*
X105997824Y-115468371D02*
X105863137Y-115333684D01*
X105863137Y-115333684D02*
X105762122Y-115300012D01*
X105762122Y-115300012D02*
X105694778Y-115300012D01*
X105694778Y-115300012D02*
X105593763Y-115333684D01*
X110995619Y-74816694D02*
X109995619Y-74816694D01*
X109995619Y-74816694D02*
X109995619Y-74578599D01*
X109995619Y-74578599D02*
X110043238Y-74435742D01*
X110043238Y-74435742D02*
X110138476Y-74340504D01*
X110138476Y-74340504D02*
X110233714Y-74292885D01*
X110233714Y-74292885D02*
X110424190Y-74245266D01*
X110424190Y-74245266D02*
X110567047Y-74245266D01*
X110567047Y-74245266D02*
X110757523Y-74292885D01*
X110757523Y-74292885D02*
X110852761Y-74340504D01*
X110852761Y-74340504D02*
X110948000Y-74435742D01*
X110948000Y-74435742D02*
X110995619Y-74578599D01*
X110995619Y-74578599D02*
X110995619Y-74816694D01*
X110995619Y-73292885D02*
X110995619Y-73864313D01*
X110995619Y-73578599D02*
X109995619Y-73578599D01*
X109995619Y-73578599D02*
X110138476Y-73673837D01*
X110138476Y-73673837D02*
X110233714Y-73769075D01*
X110233714Y-73769075D02*
X110281333Y-73864313D01*
X137851242Y-123975019D02*
X137517909Y-123498828D01*
X137279814Y-123975019D02*
X137279814Y-122975019D01*
X137279814Y-122975019D02*
X137660766Y-122975019D01*
X137660766Y-122975019D02*
X137756004Y-123022638D01*
X137756004Y-123022638D02*
X137803623Y-123070257D01*
X137803623Y-123070257D02*
X137851242Y-123165495D01*
X137851242Y-123165495D02*
X137851242Y-123308352D01*
X137851242Y-123308352D02*
X137803623Y-123403590D01*
X137803623Y-123403590D02*
X137756004Y-123451209D01*
X137756004Y-123451209D02*
X137660766Y-123498828D01*
X137660766Y-123498828D02*
X137279814Y-123498828D01*
X138708385Y-123308352D02*
X138708385Y-123975019D01*
X138470290Y-122927400D02*
X138232195Y-123641685D01*
X138232195Y-123641685D02*
X138851242Y-123641685D01*
X139184576Y-123070257D02*
X139232195Y-123022638D01*
X139232195Y-123022638D02*
X139327433Y-122975019D01*
X139327433Y-122975019D02*
X139565528Y-122975019D01*
X139565528Y-122975019D02*
X139660766Y-123022638D01*
X139660766Y-123022638D02*
X139708385Y-123070257D01*
X139708385Y-123070257D02*
X139756004Y-123165495D01*
X139756004Y-123165495D02*
X139756004Y-123260733D01*
X139756004Y-123260733D02*
X139708385Y-123403590D01*
X139708385Y-123403590D02*
X139136957Y-123975019D01*
X139136957Y-123975019D02*
X139756004Y-123975019D01*
X137776242Y-113586419D02*
X137442909Y-113110228D01*
X137204814Y-113586419D02*
X137204814Y-112586419D01*
X137204814Y-112586419D02*
X137585766Y-112586419D01*
X137585766Y-112586419D02*
X137681004Y-112634038D01*
X137681004Y-112634038D02*
X137728623Y-112681657D01*
X137728623Y-112681657D02*
X137776242Y-112776895D01*
X137776242Y-112776895D02*
X137776242Y-112919752D01*
X137776242Y-112919752D02*
X137728623Y-113014990D01*
X137728623Y-113014990D02*
X137681004Y-113062609D01*
X137681004Y-113062609D02*
X137585766Y-113110228D01*
X137585766Y-113110228D02*
X137204814Y-113110228D01*
X138728623Y-113586419D02*
X138157195Y-113586419D01*
X138442909Y-113586419D02*
X138442909Y-112586419D01*
X138442909Y-112586419D02*
X138347671Y-112729276D01*
X138347671Y-112729276D02*
X138252433Y-112824514D01*
X138252433Y-112824514D02*
X138157195Y-112872133D01*
X139585766Y-112586419D02*
X139395290Y-112586419D01*
X139395290Y-112586419D02*
X139300052Y-112634038D01*
X139300052Y-112634038D02*
X139252433Y-112681657D01*
X139252433Y-112681657D02*
X139157195Y-112824514D01*
X139157195Y-112824514D02*
X139109576Y-113014990D01*
X139109576Y-113014990D02*
X139109576Y-113395942D01*
X139109576Y-113395942D02*
X139157195Y-113491180D01*
X139157195Y-113491180D02*
X139204814Y-113538800D01*
X139204814Y-113538800D02*
X139300052Y-113586419D01*
X139300052Y-113586419D02*
X139490528Y-113586419D01*
X139490528Y-113586419D02*
X139585766Y-113538800D01*
X139585766Y-113538800D02*
X139633385Y-113491180D01*
X139633385Y-113491180D02*
X139681004Y-113395942D01*
X139681004Y-113395942D02*
X139681004Y-113157847D01*
X139681004Y-113157847D02*
X139633385Y-113062609D01*
X139633385Y-113062609D02*
X139585766Y-113014990D01*
X139585766Y-113014990D02*
X139490528Y-112967371D01*
X139490528Y-112967371D02*
X139300052Y-112967371D01*
X139300052Y-112967371D02*
X139204814Y-113014990D01*
X139204814Y-113014990D02*
X139157195Y-113062609D01*
X139157195Y-113062609D02*
X139109576Y-113157847D01*
X116777419Y-88315704D02*
X117586942Y-88315704D01*
X117586942Y-88315704D02*
X117682180Y-88268085D01*
X117682180Y-88268085D02*
X117729800Y-88220466D01*
X117729800Y-88220466D02*
X117777419Y-88125228D01*
X117777419Y-88125228D02*
X117777419Y-87934752D01*
X117777419Y-87934752D02*
X117729800Y-87839514D01*
X117729800Y-87839514D02*
X117682180Y-87791895D01*
X117682180Y-87791895D02*
X117586942Y-87744276D01*
X117586942Y-87744276D02*
X116777419Y-87744276D01*
X116872657Y-87315704D02*
X116825038Y-87268085D01*
X116825038Y-87268085D02*
X116777419Y-87172847D01*
X116777419Y-87172847D02*
X116777419Y-86934752D01*
X116777419Y-86934752D02*
X116825038Y-86839514D01*
X116825038Y-86839514D02*
X116872657Y-86791895D01*
X116872657Y-86791895D02*
X116967895Y-86744276D01*
X116967895Y-86744276D02*
X117063133Y-86744276D01*
X117063133Y-86744276D02*
X117205990Y-86791895D01*
X117205990Y-86791895D02*
X117777419Y-87363323D01*
X117777419Y-87363323D02*
X117777419Y-86744276D01*
X165396942Y-75975380D02*
X165349323Y-76023000D01*
X165349323Y-76023000D02*
X165206466Y-76070619D01*
X165206466Y-76070619D02*
X165111228Y-76070619D01*
X165111228Y-76070619D02*
X164968371Y-76023000D01*
X164968371Y-76023000D02*
X164873133Y-75927761D01*
X164873133Y-75927761D02*
X164825514Y-75832523D01*
X164825514Y-75832523D02*
X164777895Y-75642047D01*
X164777895Y-75642047D02*
X164777895Y-75499190D01*
X164777895Y-75499190D02*
X164825514Y-75308714D01*
X164825514Y-75308714D02*
X164873133Y-75213476D01*
X164873133Y-75213476D02*
X164968371Y-75118238D01*
X164968371Y-75118238D02*
X165111228Y-75070619D01*
X165111228Y-75070619D02*
X165206466Y-75070619D01*
X165206466Y-75070619D02*
X165349323Y-75118238D01*
X165349323Y-75118238D02*
X165396942Y-75165857D01*
X166349323Y-76070619D02*
X165777895Y-76070619D01*
X166063609Y-76070619D02*
X166063609Y-75070619D01*
X166063609Y-75070619D02*
X165968371Y-75213476D01*
X165968371Y-75213476D02*
X165873133Y-75308714D01*
X165873133Y-75308714D02*
X165777895Y-75356333D01*
X166730276Y-75165857D02*
X166777895Y-75118238D01*
X166777895Y-75118238D02*
X166873133Y-75070619D01*
X166873133Y-75070619D02*
X167111228Y-75070619D01*
X167111228Y-75070619D02*
X167206466Y-75118238D01*
X167206466Y-75118238D02*
X167254085Y-75165857D01*
X167254085Y-75165857D02*
X167301704Y-75261095D01*
X167301704Y-75261095D02*
X167301704Y-75356333D01*
X167301704Y-75356333D02*
X167254085Y-75499190D01*
X167254085Y-75499190D02*
X166682657Y-76070619D01*
X166682657Y-76070619D02*
X167301704Y-76070619D01*
X156500533Y-74730780D02*
X156452914Y-74778400D01*
X156452914Y-74778400D02*
X156310057Y-74826019D01*
X156310057Y-74826019D02*
X156214819Y-74826019D01*
X156214819Y-74826019D02*
X156071962Y-74778400D01*
X156071962Y-74778400D02*
X155976724Y-74683161D01*
X155976724Y-74683161D02*
X155929105Y-74587923D01*
X155929105Y-74587923D02*
X155881486Y-74397447D01*
X155881486Y-74397447D02*
X155881486Y-74254590D01*
X155881486Y-74254590D02*
X155929105Y-74064114D01*
X155929105Y-74064114D02*
X155976724Y-73968876D01*
X155976724Y-73968876D02*
X156071962Y-73873638D01*
X156071962Y-73873638D02*
X156214819Y-73826019D01*
X156214819Y-73826019D02*
X156310057Y-73826019D01*
X156310057Y-73826019D02*
X156452914Y-73873638D01*
X156452914Y-73873638D02*
X156500533Y-73921257D01*
X157452914Y-74826019D02*
X156881486Y-74826019D01*
X157167200Y-74826019D02*
X157167200Y-73826019D01*
X157167200Y-73826019D02*
X157071962Y-73968876D01*
X157071962Y-73968876D02*
X156976724Y-74064114D01*
X156976724Y-74064114D02*
X156881486Y-74111733D01*
X137825842Y-119377619D02*
X137492509Y-118901428D01*
X137254414Y-119377619D02*
X137254414Y-118377619D01*
X137254414Y-118377619D02*
X137635366Y-118377619D01*
X137635366Y-118377619D02*
X137730604Y-118425238D01*
X137730604Y-118425238D02*
X137778223Y-118472857D01*
X137778223Y-118472857D02*
X137825842Y-118568095D01*
X137825842Y-118568095D02*
X137825842Y-118710952D01*
X137825842Y-118710952D02*
X137778223Y-118806190D01*
X137778223Y-118806190D02*
X137730604Y-118853809D01*
X137730604Y-118853809D02*
X137635366Y-118901428D01*
X137635366Y-118901428D02*
X137254414Y-118901428D01*
X138778223Y-119377619D02*
X138206795Y-119377619D01*
X138492509Y-119377619D02*
X138492509Y-118377619D01*
X138492509Y-118377619D02*
X138397271Y-118520476D01*
X138397271Y-118520476D02*
X138302033Y-118615714D01*
X138302033Y-118615714D02*
X138206795Y-118663333D01*
X139111557Y-118377619D02*
X139778223Y-118377619D01*
X139778223Y-118377619D02*
X139349652Y-119377619D01*
X137928642Y-109649419D02*
X137595309Y-109173228D01*
X137357214Y-109649419D02*
X137357214Y-108649419D01*
X137357214Y-108649419D02*
X137738166Y-108649419D01*
X137738166Y-108649419D02*
X137833404Y-108697038D01*
X137833404Y-108697038D02*
X137881023Y-108744657D01*
X137881023Y-108744657D02*
X137928642Y-108839895D01*
X137928642Y-108839895D02*
X137928642Y-108982752D01*
X137928642Y-108982752D02*
X137881023Y-109077990D01*
X137881023Y-109077990D02*
X137833404Y-109125609D01*
X137833404Y-109125609D02*
X137738166Y-109173228D01*
X137738166Y-109173228D02*
X137357214Y-109173228D01*
X138881023Y-109649419D02*
X138309595Y-109649419D01*
X138595309Y-109649419D02*
X138595309Y-108649419D01*
X138595309Y-108649419D02*
X138500071Y-108792276D01*
X138500071Y-108792276D02*
X138404833Y-108887514D01*
X138404833Y-108887514D02*
X138309595Y-108935133D01*
X139214357Y-108649419D02*
X139833404Y-108649419D01*
X139833404Y-108649419D02*
X139500071Y-109030371D01*
X139500071Y-109030371D02*
X139642928Y-109030371D01*
X139642928Y-109030371D02*
X139738166Y-109077990D01*
X139738166Y-109077990D02*
X139785785Y-109125609D01*
X139785785Y-109125609D02*
X139833404Y-109220847D01*
X139833404Y-109220847D02*
X139833404Y-109458942D01*
X139833404Y-109458942D02*
X139785785Y-109554180D01*
X139785785Y-109554180D02*
X139738166Y-109601800D01*
X139738166Y-109601800D02*
X139642928Y-109649419D01*
X139642928Y-109649419D02*
X139357214Y-109649419D01*
X139357214Y-109649419D02*
X139261976Y-109601800D01*
X139261976Y-109601800D02*
X139214357Y-109554180D01*
X165923933Y-74730780D02*
X165876314Y-74778400D01*
X165876314Y-74778400D02*
X165733457Y-74826019D01*
X165733457Y-74826019D02*
X165638219Y-74826019D01*
X165638219Y-74826019D02*
X165495362Y-74778400D01*
X165495362Y-74778400D02*
X165400124Y-74683161D01*
X165400124Y-74683161D02*
X165352505Y-74587923D01*
X165352505Y-74587923D02*
X165304886Y-74397447D01*
X165304886Y-74397447D02*
X165304886Y-74254590D01*
X165304886Y-74254590D02*
X165352505Y-74064114D01*
X165352505Y-74064114D02*
X165400124Y-73968876D01*
X165400124Y-73968876D02*
X165495362Y-73873638D01*
X165495362Y-73873638D02*
X165638219Y-73826019D01*
X165638219Y-73826019D02*
X165733457Y-73826019D01*
X165733457Y-73826019D02*
X165876314Y-73873638D01*
X165876314Y-73873638D02*
X165923933Y-73921257D01*
X166257267Y-73826019D02*
X166923933Y-73826019D01*
X166923933Y-73826019D02*
X166495362Y-74826019D01*
X129717895Y-116421819D02*
X129717895Y-117231342D01*
X129717895Y-117231342D02*
X129765514Y-117326580D01*
X129765514Y-117326580D02*
X129813133Y-117374200D01*
X129813133Y-117374200D02*
X129908371Y-117421819D01*
X129908371Y-117421819D02*
X130098847Y-117421819D01*
X130098847Y-117421819D02*
X130194085Y-117374200D01*
X130194085Y-117374200D02*
X130241704Y-117326580D01*
X130241704Y-117326580D02*
X130289323Y-117231342D01*
X130289323Y-117231342D02*
X130289323Y-116421819D01*
X131194085Y-116755152D02*
X131194085Y-117421819D01*
X130955990Y-116374200D02*
X130717895Y-117088485D01*
X130717895Y-117088485D02*
X131336942Y-117088485D01*
X137825842Y-120698419D02*
X137492509Y-120222228D01*
X137254414Y-120698419D02*
X137254414Y-119698419D01*
X137254414Y-119698419D02*
X137635366Y-119698419D01*
X137635366Y-119698419D02*
X137730604Y-119746038D01*
X137730604Y-119746038D02*
X137778223Y-119793657D01*
X137778223Y-119793657D02*
X137825842Y-119888895D01*
X137825842Y-119888895D02*
X137825842Y-120031752D01*
X137825842Y-120031752D02*
X137778223Y-120126990D01*
X137778223Y-120126990D02*
X137730604Y-120174609D01*
X137730604Y-120174609D02*
X137635366Y-120222228D01*
X137635366Y-120222228D02*
X137254414Y-120222228D01*
X138778223Y-120698419D02*
X138206795Y-120698419D01*
X138492509Y-120698419D02*
X138492509Y-119698419D01*
X138492509Y-119698419D02*
X138397271Y-119841276D01*
X138397271Y-119841276D02*
X138302033Y-119936514D01*
X138302033Y-119936514D02*
X138206795Y-119984133D01*
X139349652Y-120126990D02*
X139254414Y-120079371D01*
X139254414Y-120079371D02*
X139206795Y-120031752D01*
X139206795Y-120031752D02*
X139159176Y-119936514D01*
X139159176Y-119936514D02*
X139159176Y-119888895D01*
X139159176Y-119888895D02*
X139206795Y-119793657D01*
X139206795Y-119793657D02*
X139254414Y-119746038D01*
X139254414Y-119746038D02*
X139349652Y-119698419D01*
X139349652Y-119698419D02*
X139540128Y-119698419D01*
X139540128Y-119698419D02*
X139635366Y-119746038D01*
X139635366Y-119746038D02*
X139682985Y-119793657D01*
X139682985Y-119793657D02*
X139730604Y-119888895D01*
X139730604Y-119888895D02*
X139730604Y-119936514D01*
X139730604Y-119936514D02*
X139682985Y-120031752D01*
X139682985Y-120031752D02*
X139635366Y-120079371D01*
X139635366Y-120079371D02*
X139540128Y-120126990D01*
X139540128Y-120126990D02*
X139349652Y-120126990D01*
X139349652Y-120126990D02*
X139254414Y-120174609D01*
X139254414Y-120174609D02*
X139206795Y-120222228D01*
X139206795Y-120222228D02*
X139159176Y-120317466D01*
X139159176Y-120317466D02*
X139159176Y-120507942D01*
X139159176Y-120507942D02*
X139206795Y-120603180D01*
X139206795Y-120603180D02*
X139254414Y-120650800D01*
X139254414Y-120650800D02*
X139349652Y-120698419D01*
X139349652Y-120698419D02*
X139540128Y-120698419D01*
X139540128Y-120698419D02*
X139635366Y-120650800D01*
X139635366Y-120650800D02*
X139682985Y-120603180D01*
X139682985Y-120603180D02*
X139730604Y-120507942D01*
X139730604Y-120507942D02*
X139730604Y-120317466D01*
X139730604Y-120317466D02*
X139682985Y-120222228D01*
X139682985Y-120222228D02*
X139635366Y-120174609D01*
X139635366Y-120174609D02*
X139540128Y-120126990D01*
X159453342Y-73302019D02*
X159120009Y-72825828D01*
X158881914Y-73302019D02*
X158881914Y-72302019D01*
X158881914Y-72302019D02*
X159262866Y-72302019D01*
X159262866Y-72302019D02*
X159358104Y-72349638D01*
X159358104Y-72349638D02*
X159405723Y-72397257D01*
X159405723Y-72397257D02*
X159453342Y-72492495D01*
X159453342Y-72492495D02*
X159453342Y-72635352D01*
X159453342Y-72635352D02*
X159405723Y-72730590D01*
X159405723Y-72730590D02*
X159358104Y-72778209D01*
X159358104Y-72778209D02*
X159262866Y-72825828D01*
X159262866Y-72825828D02*
X158881914Y-72825828D01*
X159834295Y-72397257D02*
X159881914Y-72349638D01*
X159881914Y-72349638D02*
X159977152Y-72302019D01*
X159977152Y-72302019D02*
X160215247Y-72302019D01*
X160215247Y-72302019D02*
X160310485Y-72349638D01*
X160310485Y-72349638D02*
X160358104Y-72397257D01*
X160358104Y-72397257D02*
X160405723Y-72492495D01*
X160405723Y-72492495D02*
X160405723Y-72587733D01*
X160405723Y-72587733D02*
X160358104Y-72730590D01*
X160358104Y-72730590D02*
X159786676Y-73302019D01*
X159786676Y-73302019D02*
X160405723Y-73302019D01*
X161024771Y-72302019D02*
X161120009Y-72302019D01*
X161120009Y-72302019D02*
X161215247Y-72349638D01*
X161215247Y-72349638D02*
X161262866Y-72397257D01*
X161262866Y-72397257D02*
X161310485Y-72492495D01*
X161310485Y-72492495D02*
X161358104Y-72682971D01*
X161358104Y-72682971D02*
X161358104Y-72921066D01*
X161358104Y-72921066D02*
X161310485Y-73111542D01*
X161310485Y-73111542D02*
X161262866Y-73206780D01*
X161262866Y-73206780D02*
X161215247Y-73254400D01*
X161215247Y-73254400D02*
X161120009Y-73302019D01*
X161120009Y-73302019D02*
X161024771Y-73302019D01*
X161024771Y-73302019D02*
X160929533Y-73254400D01*
X160929533Y-73254400D02*
X160881914Y-73206780D01*
X160881914Y-73206780D02*
X160834295Y-73111542D01*
X160834295Y-73111542D02*
X160786676Y-72921066D01*
X160786676Y-72921066D02*
X160786676Y-72682971D01*
X160786676Y-72682971D02*
X160834295Y-72492495D01*
X160834295Y-72492495D02*
X160881914Y-72397257D01*
X160881914Y-72397257D02*
X160929533Y-72349638D01*
X160929533Y-72349638D02*
X161024771Y-72302019D01*
X117557561Y-84979657D02*
X117462323Y-84932038D01*
X117462323Y-84932038D02*
X117367085Y-84836800D01*
X117367085Y-84836800D02*
X117224228Y-84693942D01*
X117224228Y-84693942D02*
X117128990Y-84646323D01*
X117128990Y-84646323D02*
X117033752Y-84646323D01*
X117081371Y-84884419D02*
X116986133Y-84836800D01*
X116986133Y-84836800D02*
X116890895Y-84741561D01*
X116890895Y-84741561D02*
X116843276Y-84551085D01*
X116843276Y-84551085D02*
X116843276Y-84217752D01*
X116843276Y-84217752D02*
X116890895Y-84027276D01*
X116890895Y-84027276D02*
X116986133Y-83932038D01*
X116986133Y-83932038D02*
X117081371Y-83884419D01*
X117081371Y-83884419D02*
X117271847Y-83884419D01*
X117271847Y-83884419D02*
X117367085Y-83932038D01*
X117367085Y-83932038D02*
X117462323Y-84027276D01*
X117462323Y-84027276D02*
X117509942Y-84217752D01*
X117509942Y-84217752D02*
X117509942Y-84551085D01*
X117509942Y-84551085D02*
X117462323Y-84741561D01*
X117462323Y-84741561D02*
X117367085Y-84836800D01*
X117367085Y-84836800D02*
X117271847Y-84884419D01*
X117271847Y-84884419D02*
X117081371Y-84884419D01*
X118462323Y-84884419D02*
X117890895Y-84884419D01*
X118176609Y-84884419D02*
X118176609Y-83884419D01*
X118176609Y-83884419D02*
X118081371Y-84027276D01*
X118081371Y-84027276D02*
X117986133Y-84122514D01*
X117986133Y-84122514D02*
X117890895Y-84170133D01*
X129532142Y-103632380D02*
X129484523Y-103680000D01*
X129484523Y-103680000D02*
X129341666Y-103727619D01*
X129341666Y-103727619D02*
X129246428Y-103727619D01*
X129246428Y-103727619D02*
X129103571Y-103680000D01*
X129103571Y-103680000D02*
X129008333Y-103584761D01*
X129008333Y-103584761D02*
X128960714Y-103489523D01*
X128960714Y-103489523D02*
X128913095Y-103299047D01*
X128913095Y-103299047D02*
X128913095Y-103156190D01*
X128913095Y-103156190D02*
X128960714Y-102965714D01*
X128960714Y-102965714D02*
X129008333Y-102870476D01*
X129008333Y-102870476D02*
X129103571Y-102775238D01*
X129103571Y-102775238D02*
X129246428Y-102727619D01*
X129246428Y-102727619D02*
X129341666Y-102727619D01*
X129341666Y-102727619D02*
X129484523Y-102775238D01*
X129484523Y-102775238D02*
X129532142Y-102822857D01*
X130484523Y-103727619D02*
X129913095Y-103727619D01*
X130198809Y-103727619D02*
X130198809Y-102727619D01*
X130198809Y-102727619D02*
X130103571Y-102870476D01*
X130103571Y-102870476D02*
X130008333Y-102965714D01*
X130008333Y-102965714D02*
X129913095Y-103013333D01*
X131389285Y-102727619D02*
X130913095Y-102727619D01*
X130913095Y-102727619D02*
X130865476Y-103203809D01*
X130865476Y-103203809D02*
X130913095Y-103156190D01*
X130913095Y-103156190D02*
X131008333Y-103108571D01*
X131008333Y-103108571D02*
X131246428Y-103108571D01*
X131246428Y-103108571D02*
X131341666Y-103156190D01*
X131341666Y-103156190D02*
X131389285Y-103203809D01*
X131389285Y-103203809D02*
X131436904Y-103299047D01*
X131436904Y-103299047D02*
X131436904Y-103537142D01*
X131436904Y-103537142D02*
X131389285Y-103632380D01*
X131389285Y-103632380D02*
X131341666Y-103680000D01*
X131341666Y-103680000D02*
X131246428Y-103727619D01*
X131246428Y-103727619D02*
X131008333Y-103727619D01*
X131008333Y-103727619D02*
X130913095Y-103680000D01*
X130913095Y-103680000D02*
X130865476Y-103632380D01*
X130040142Y-84800619D02*
X129706809Y-84324428D01*
X129468714Y-84800619D02*
X129468714Y-83800619D01*
X129468714Y-83800619D02*
X129849666Y-83800619D01*
X129849666Y-83800619D02*
X129944904Y-83848238D01*
X129944904Y-83848238D02*
X129992523Y-83895857D01*
X129992523Y-83895857D02*
X130040142Y-83991095D01*
X130040142Y-83991095D02*
X130040142Y-84133952D01*
X130040142Y-84133952D02*
X129992523Y-84229190D01*
X129992523Y-84229190D02*
X129944904Y-84276809D01*
X129944904Y-84276809D02*
X129849666Y-84324428D01*
X129849666Y-84324428D02*
X129468714Y-84324428D01*
X130421095Y-83895857D02*
X130468714Y-83848238D01*
X130468714Y-83848238D02*
X130563952Y-83800619D01*
X130563952Y-83800619D02*
X130802047Y-83800619D01*
X130802047Y-83800619D02*
X130897285Y-83848238D01*
X130897285Y-83848238D02*
X130944904Y-83895857D01*
X130944904Y-83895857D02*
X130992523Y-83991095D01*
X130992523Y-83991095D02*
X130992523Y-84086333D01*
X130992523Y-84086333D02*
X130944904Y-84229190D01*
X130944904Y-84229190D02*
X130373476Y-84800619D01*
X130373476Y-84800619D02*
X130992523Y-84800619D01*
X131373476Y-83895857D02*
X131421095Y-83848238D01*
X131421095Y-83848238D02*
X131516333Y-83800619D01*
X131516333Y-83800619D02*
X131754428Y-83800619D01*
X131754428Y-83800619D02*
X131849666Y-83848238D01*
X131849666Y-83848238D02*
X131897285Y-83895857D01*
X131897285Y-83895857D02*
X131944904Y-83991095D01*
X131944904Y-83991095D02*
X131944904Y-84086333D01*
X131944904Y-84086333D02*
X131897285Y-84229190D01*
X131897285Y-84229190D02*
X131325857Y-84800619D01*
X131325857Y-84800619D02*
X131944904Y-84800619D01*
X126204742Y-74806980D02*
X126157123Y-74854600D01*
X126157123Y-74854600D02*
X126014266Y-74902219D01*
X126014266Y-74902219D02*
X125919028Y-74902219D01*
X125919028Y-74902219D02*
X125776171Y-74854600D01*
X125776171Y-74854600D02*
X125680933Y-74759361D01*
X125680933Y-74759361D02*
X125633314Y-74664123D01*
X125633314Y-74664123D02*
X125585695Y-74473647D01*
X125585695Y-74473647D02*
X125585695Y-74330790D01*
X125585695Y-74330790D02*
X125633314Y-74140314D01*
X125633314Y-74140314D02*
X125680933Y-74045076D01*
X125680933Y-74045076D02*
X125776171Y-73949838D01*
X125776171Y-73949838D02*
X125919028Y-73902219D01*
X125919028Y-73902219D02*
X126014266Y-73902219D01*
X126014266Y-73902219D02*
X126157123Y-73949838D01*
X126157123Y-73949838D02*
X126204742Y-73997457D01*
X127157123Y-74902219D02*
X126585695Y-74902219D01*
X126871409Y-74902219D02*
X126871409Y-73902219D01*
X126871409Y-73902219D02*
X126776171Y-74045076D01*
X126776171Y-74045076D02*
X126680933Y-74140314D01*
X126680933Y-74140314D02*
X126585695Y-74187933D01*
X128014266Y-74235552D02*
X128014266Y-74902219D01*
X127776171Y-73854600D02*
X127538076Y-74568885D01*
X127538076Y-74568885D02*
X128157123Y-74568885D01*
X108940695Y-114796219D02*
X108940695Y-115605742D01*
X108940695Y-115605742D02*
X108988314Y-115700980D01*
X108988314Y-115700980D02*
X109035933Y-115748600D01*
X109035933Y-115748600D02*
X109131171Y-115796219D01*
X109131171Y-115796219D02*
X109321647Y-115796219D01*
X109321647Y-115796219D02*
X109416885Y-115748600D01*
X109416885Y-115748600D02*
X109464504Y-115700980D01*
X109464504Y-115700980D02*
X109512123Y-115605742D01*
X109512123Y-115605742D02*
X109512123Y-114796219D01*
X110512123Y-115796219D02*
X109940695Y-115796219D01*
X110226409Y-115796219D02*
X110226409Y-114796219D01*
X110226409Y-114796219D02*
X110131171Y-114939076D01*
X110131171Y-114939076D02*
X110035933Y-115034314D01*
X110035933Y-115034314D02*
X109940695Y-115081933D01*
X108760419Y-74994494D02*
X107760419Y-74994494D01*
X107760419Y-74994494D02*
X107760419Y-74756399D01*
X107760419Y-74756399D02*
X107808038Y-74613542D01*
X107808038Y-74613542D02*
X107903276Y-74518304D01*
X107903276Y-74518304D02*
X107998514Y-74470685D01*
X107998514Y-74470685D02*
X108188990Y-74423066D01*
X108188990Y-74423066D02*
X108331847Y-74423066D01*
X108331847Y-74423066D02*
X108522323Y-74470685D01*
X108522323Y-74470685D02*
X108617561Y-74518304D01*
X108617561Y-74518304D02*
X108712800Y-74613542D01*
X108712800Y-74613542D02*
X108760419Y-74756399D01*
X108760419Y-74756399D02*
X108760419Y-74994494D01*
X107855657Y-74042113D02*
X107808038Y-73994494D01*
X107808038Y-73994494D02*
X107760419Y-73899256D01*
X107760419Y-73899256D02*
X107760419Y-73661161D01*
X107760419Y-73661161D02*
X107808038Y-73565923D01*
X107808038Y-73565923D02*
X107855657Y-73518304D01*
X107855657Y-73518304D02*
X107950895Y-73470685D01*
X107950895Y-73470685D02*
X108046133Y-73470685D01*
X108046133Y-73470685D02*
X108188990Y-73518304D01*
X108188990Y-73518304D02*
X108760419Y-74089732D01*
X108760419Y-74089732D02*
X108760419Y-73470685D01*
X137903242Y-112265619D02*
X137569909Y-111789428D01*
X137331814Y-112265619D02*
X137331814Y-111265619D01*
X137331814Y-111265619D02*
X137712766Y-111265619D01*
X137712766Y-111265619D02*
X137808004Y-111313238D01*
X137808004Y-111313238D02*
X137855623Y-111360857D01*
X137855623Y-111360857D02*
X137903242Y-111456095D01*
X137903242Y-111456095D02*
X137903242Y-111598952D01*
X137903242Y-111598952D02*
X137855623Y-111694190D01*
X137855623Y-111694190D02*
X137808004Y-111741809D01*
X137808004Y-111741809D02*
X137712766Y-111789428D01*
X137712766Y-111789428D02*
X137331814Y-111789428D01*
X138855623Y-112265619D02*
X138284195Y-112265619D01*
X138569909Y-112265619D02*
X138569909Y-111265619D01*
X138569909Y-111265619D02*
X138474671Y-111408476D01*
X138474671Y-111408476D02*
X138379433Y-111503714D01*
X138379433Y-111503714D02*
X138284195Y-111551333D01*
X139760385Y-111265619D02*
X139284195Y-111265619D01*
X139284195Y-111265619D02*
X139236576Y-111741809D01*
X139236576Y-111741809D02*
X139284195Y-111694190D01*
X139284195Y-111694190D02*
X139379433Y-111646571D01*
X139379433Y-111646571D02*
X139617528Y-111646571D01*
X139617528Y-111646571D02*
X139712766Y-111694190D01*
X139712766Y-111694190D02*
X139760385Y-111741809D01*
X139760385Y-111741809D02*
X139808004Y-111837047D01*
X139808004Y-111837047D02*
X139808004Y-112075142D01*
X139808004Y-112075142D02*
X139760385Y-112170380D01*
X139760385Y-112170380D02*
X139712766Y-112218000D01*
X139712766Y-112218000D02*
X139617528Y-112265619D01*
X139617528Y-112265619D02*
X139379433Y-112265619D01*
X139379433Y-112265619D02*
X139284195Y-112218000D01*
X139284195Y-112218000D02*
X139236576Y-112170380D01*
X165307180Y-113749057D02*
X165354800Y-113796676D01*
X165354800Y-113796676D02*
X165402419Y-113939533D01*
X165402419Y-113939533D02*
X165402419Y-114034771D01*
X165402419Y-114034771D02*
X165354800Y-114177628D01*
X165354800Y-114177628D02*
X165259561Y-114272866D01*
X165259561Y-114272866D02*
X165164323Y-114320485D01*
X165164323Y-114320485D02*
X164973847Y-114368104D01*
X164973847Y-114368104D02*
X164830990Y-114368104D01*
X164830990Y-114368104D02*
X164640514Y-114320485D01*
X164640514Y-114320485D02*
X164545276Y-114272866D01*
X164545276Y-114272866D02*
X164450038Y-114177628D01*
X164450038Y-114177628D02*
X164402419Y-114034771D01*
X164402419Y-114034771D02*
X164402419Y-113939533D01*
X164402419Y-113939533D02*
X164450038Y-113796676D01*
X164450038Y-113796676D02*
X164497657Y-113749057D01*
X165402419Y-112796676D02*
X165402419Y-113368104D01*
X165402419Y-113082390D02*
X164402419Y-113082390D01*
X164402419Y-113082390D02*
X164545276Y-113177628D01*
X164545276Y-113177628D02*
X164640514Y-113272866D01*
X164640514Y-113272866D02*
X164688133Y-113368104D01*
X164402419Y-111939533D02*
X164402419Y-112130009D01*
X164402419Y-112130009D02*
X164450038Y-112225247D01*
X164450038Y-112225247D02*
X164497657Y-112272866D01*
X164497657Y-112272866D02*
X164640514Y-112368104D01*
X164640514Y-112368104D02*
X164830990Y-112415723D01*
X164830990Y-112415723D02*
X165211942Y-112415723D01*
X165211942Y-112415723D02*
X165307180Y-112368104D01*
X165307180Y-112368104D02*
X165354800Y-112320485D01*
X165354800Y-112320485D02*
X165402419Y-112225247D01*
X165402419Y-112225247D02*
X165402419Y-112034771D01*
X165402419Y-112034771D02*
X165354800Y-111939533D01*
X165354800Y-111939533D02*
X165307180Y-111891914D01*
X165307180Y-111891914D02*
X165211942Y-111844295D01*
X165211942Y-111844295D02*
X164973847Y-111844295D01*
X164973847Y-111844295D02*
X164878609Y-111891914D01*
X164878609Y-111891914D02*
X164830990Y-111939533D01*
X164830990Y-111939533D02*
X164783371Y-112034771D01*
X164783371Y-112034771D02*
X164783371Y-112225247D01*
X164783371Y-112225247D02*
X164830990Y-112320485D01*
X164830990Y-112320485D02*
X164878609Y-112368104D01*
X164878609Y-112368104D02*
X164973847Y-112415723D01*
X161612342Y-77010419D02*
X161279009Y-76534228D01*
X161040914Y-77010419D02*
X161040914Y-76010419D01*
X161040914Y-76010419D02*
X161421866Y-76010419D01*
X161421866Y-76010419D02*
X161517104Y-76058038D01*
X161517104Y-76058038D02*
X161564723Y-76105657D01*
X161564723Y-76105657D02*
X161612342Y-76200895D01*
X161612342Y-76200895D02*
X161612342Y-76343752D01*
X161612342Y-76343752D02*
X161564723Y-76438990D01*
X161564723Y-76438990D02*
X161517104Y-76486609D01*
X161517104Y-76486609D02*
X161421866Y-76534228D01*
X161421866Y-76534228D02*
X161040914Y-76534228D01*
X162564723Y-77010419D02*
X161993295Y-77010419D01*
X162279009Y-77010419D02*
X162279009Y-76010419D01*
X162279009Y-76010419D02*
X162183771Y-76153276D01*
X162183771Y-76153276D02*
X162088533Y-76248514D01*
X162088533Y-76248514D02*
X161993295Y-76296133D01*
X163517104Y-77010419D02*
X162945676Y-77010419D01*
X163231390Y-77010419D02*
X163231390Y-76010419D01*
X163231390Y-76010419D02*
X163136152Y-76153276D01*
X163136152Y-76153276D02*
X163040914Y-76248514D01*
X163040914Y-76248514D02*
X162945676Y-76296133D01*
X111949719Y-100871257D02*
X111473528Y-101204590D01*
X111949719Y-101442685D02*
X110949719Y-101442685D01*
X110949719Y-101442685D02*
X110949719Y-101061733D01*
X110949719Y-101061733D02*
X110997338Y-100966495D01*
X110997338Y-100966495D02*
X111044957Y-100918876D01*
X111044957Y-100918876D02*
X111140195Y-100871257D01*
X111140195Y-100871257D02*
X111283052Y-100871257D01*
X111283052Y-100871257D02*
X111378290Y-100918876D01*
X111378290Y-100918876D02*
X111425909Y-100966495D01*
X111425909Y-100966495D02*
X111473528Y-101061733D01*
X111473528Y-101061733D02*
X111473528Y-101442685D01*
X110949719Y-99966495D02*
X110949719Y-100442685D01*
X110949719Y-100442685D02*
X111425909Y-100490304D01*
X111425909Y-100490304D02*
X111378290Y-100442685D01*
X111378290Y-100442685D02*
X111330671Y-100347447D01*
X111330671Y-100347447D02*
X111330671Y-100109352D01*
X111330671Y-100109352D02*
X111378290Y-100014114D01*
X111378290Y-100014114D02*
X111425909Y-99966495D01*
X111425909Y-99966495D02*
X111521147Y-99918876D01*
X111521147Y-99918876D02*
X111759242Y-99918876D01*
X111759242Y-99918876D02*
X111854480Y-99966495D01*
X111854480Y-99966495D02*
X111902100Y-100014114D01*
X111902100Y-100014114D02*
X111949719Y-100109352D01*
X111949719Y-100109352D02*
X111949719Y-100347447D01*
X111949719Y-100347447D02*
X111902100Y-100442685D01*
X111902100Y-100442685D02*
X111854480Y-100490304D01*
X110949719Y-99061733D02*
X110949719Y-99252209D01*
X110949719Y-99252209D02*
X110997338Y-99347447D01*
X110997338Y-99347447D02*
X111044957Y-99395066D01*
X111044957Y-99395066D02*
X111187814Y-99490304D01*
X111187814Y-99490304D02*
X111378290Y-99537923D01*
X111378290Y-99537923D02*
X111759242Y-99537923D01*
X111759242Y-99537923D02*
X111854480Y-99490304D01*
X111854480Y-99490304D02*
X111902100Y-99442685D01*
X111902100Y-99442685D02*
X111949719Y-99347447D01*
X111949719Y-99347447D02*
X111949719Y-99156971D01*
X111949719Y-99156971D02*
X111902100Y-99061733D01*
X111902100Y-99061733D02*
X111854480Y-99014114D01*
X111854480Y-99014114D02*
X111759242Y-98966495D01*
X111759242Y-98966495D02*
X111521147Y-98966495D01*
X111521147Y-98966495D02*
X111425909Y-99014114D01*
X111425909Y-99014114D02*
X111378290Y-99061733D01*
X111378290Y-99061733D02*
X111330671Y-99156971D01*
X111330671Y-99156971D02*
X111330671Y-99347447D01*
X111330671Y-99347447D02*
X111378290Y-99442685D01*
X111378290Y-99442685D02*
X111425909Y-99490304D01*
X111425909Y-99490304D02*
X111521147Y-99537923D01*
X102392315Y-120287060D02*
X103099422Y-119579954D01*
X103099422Y-119579954D02*
X103267781Y-119748312D01*
X103267781Y-119748312D02*
X103335124Y-119882999D01*
X103335124Y-119882999D02*
X103335124Y-120017686D01*
X103335124Y-120017686D02*
X103301452Y-120118702D01*
X103301452Y-120118702D02*
X103200437Y-120287060D01*
X103200437Y-120287060D02*
X103099422Y-120388076D01*
X103099422Y-120388076D02*
X102931063Y-120489091D01*
X102931063Y-120489091D02*
X102830048Y-120522763D01*
X102830048Y-120522763D02*
X102695361Y-120522763D01*
X102695361Y-120522763D02*
X102560674Y-120455419D01*
X102560674Y-120455419D02*
X102392315Y-120287060D01*
X103739185Y-120219717D02*
X104176918Y-120657450D01*
X104176918Y-120657450D02*
X103671842Y-120691121D01*
X103671842Y-120691121D02*
X103772857Y-120792137D01*
X103772857Y-120792137D02*
X103806529Y-120893152D01*
X103806529Y-120893152D02*
X103806529Y-120960495D01*
X103806529Y-120960495D02*
X103772857Y-121061511D01*
X103772857Y-121061511D02*
X103604498Y-121229869D01*
X103604498Y-121229869D02*
X103503483Y-121263541D01*
X103503483Y-121263541D02*
X103436139Y-121263541D01*
X103436139Y-121263541D02*
X103335124Y-121229869D01*
X103335124Y-121229869D02*
X103133094Y-121027839D01*
X103133094Y-121027839D02*
X103099422Y-120926824D01*
X103099422Y-120926824D02*
X103099422Y-120859480D01*
X173759019Y-94315457D02*
X173282828Y-94648790D01*
X173759019Y-94886885D02*
X172759019Y-94886885D01*
X172759019Y-94886885D02*
X172759019Y-94505933D01*
X172759019Y-94505933D02*
X172806638Y-94410695D01*
X172806638Y-94410695D02*
X172854257Y-94363076D01*
X172854257Y-94363076D02*
X172949495Y-94315457D01*
X172949495Y-94315457D02*
X173092352Y-94315457D01*
X173092352Y-94315457D02*
X173187590Y-94363076D01*
X173187590Y-94363076D02*
X173235209Y-94410695D01*
X173235209Y-94410695D02*
X173282828Y-94505933D01*
X173282828Y-94505933D02*
X173282828Y-94886885D01*
X172759019Y-93982123D02*
X172759019Y-93363076D01*
X172759019Y-93363076D02*
X173139971Y-93696409D01*
X173139971Y-93696409D02*
X173139971Y-93553552D01*
X173139971Y-93553552D02*
X173187590Y-93458314D01*
X173187590Y-93458314D02*
X173235209Y-93410695D01*
X173235209Y-93410695D02*
X173330447Y-93363076D01*
X173330447Y-93363076D02*
X173568542Y-93363076D01*
X173568542Y-93363076D02*
X173663780Y-93410695D01*
X173663780Y-93410695D02*
X173711400Y-93458314D01*
X173711400Y-93458314D02*
X173759019Y-93553552D01*
X173759019Y-93553552D02*
X173759019Y-93839266D01*
X173759019Y-93839266D02*
X173711400Y-93934504D01*
X173711400Y-93934504D02*
X173663780Y-93982123D01*
X172759019Y-92744028D02*
X172759019Y-92648790D01*
X172759019Y-92648790D02*
X172806638Y-92553552D01*
X172806638Y-92553552D02*
X172854257Y-92505933D01*
X172854257Y-92505933D02*
X172949495Y-92458314D01*
X172949495Y-92458314D02*
X173139971Y-92410695D01*
X173139971Y-92410695D02*
X173378066Y-92410695D01*
X173378066Y-92410695D02*
X173568542Y-92458314D01*
X173568542Y-92458314D02*
X173663780Y-92505933D01*
X173663780Y-92505933D02*
X173711400Y-92553552D01*
X173711400Y-92553552D02*
X173759019Y-92648790D01*
X173759019Y-92648790D02*
X173759019Y-92744028D01*
X173759019Y-92744028D02*
X173711400Y-92839266D01*
X173711400Y-92839266D02*
X173663780Y-92886885D01*
X173663780Y-92886885D02*
X173568542Y-92934504D01*
X173568542Y-92934504D02*
X173378066Y-92982123D01*
X173378066Y-92982123D02*
X173139971Y-92982123D01*
X173139971Y-92982123D02*
X172949495Y-92934504D01*
X172949495Y-92934504D02*
X172854257Y-92886885D01*
X172854257Y-92886885D02*
X172806638Y-92839266D01*
X172806638Y-92839266D02*
X172759019Y-92744028D01*
X153687304Y-112491380D02*
X153687304Y-111681857D01*
X153687304Y-111681857D02*
X153639685Y-111586619D01*
X153639685Y-111586619D02*
X153592066Y-111539000D01*
X153592066Y-111539000D02*
X153496828Y-111491380D01*
X153496828Y-111491380D02*
X153306352Y-111491380D01*
X153306352Y-111491380D02*
X153211114Y-111539000D01*
X153211114Y-111539000D02*
X153163495Y-111586619D01*
X153163495Y-111586619D02*
X153115876Y-111681857D01*
X153115876Y-111681857D02*
X153115876Y-112491380D01*
X152687304Y-111539000D02*
X152544447Y-111491380D01*
X152544447Y-111491380D02*
X152306352Y-111491380D01*
X152306352Y-111491380D02*
X152211114Y-111539000D01*
X152211114Y-111539000D02*
X152163495Y-111586619D01*
X152163495Y-111586619D02*
X152115876Y-111681857D01*
X152115876Y-111681857D02*
X152115876Y-111777095D01*
X152115876Y-111777095D02*
X152163495Y-111872333D01*
X152163495Y-111872333D02*
X152211114Y-111919952D01*
X152211114Y-111919952D02*
X152306352Y-111967571D01*
X152306352Y-111967571D02*
X152496828Y-112015190D01*
X152496828Y-112015190D02*
X152592066Y-112062809D01*
X152592066Y-112062809D02*
X152639685Y-112110428D01*
X152639685Y-112110428D02*
X152687304Y-112205666D01*
X152687304Y-112205666D02*
X152687304Y-112300904D01*
X152687304Y-112300904D02*
X152639685Y-112396142D01*
X152639685Y-112396142D02*
X152592066Y-112443761D01*
X152592066Y-112443761D02*
X152496828Y-112491380D01*
X152496828Y-112491380D02*
X152258733Y-112491380D01*
X152258733Y-112491380D02*
X152115876Y-112443761D01*
X151353971Y-112015190D02*
X151211114Y-111967571D01*
X151211114Y-111967571D02*
X151163495Y-111919952D01*
X151163495Y-111919952D02*
X151115876Y-111824714D01*
X151115876Y-111824714D02*
X151115876Y-111681857D01*
X151115876Y-111681857D02*
X151163495Y-111586619D01*
X151163495Y-111586619D02*
X151211114Y-111539000D01*
X151211114Y-111539000D02*
X151306352Y-111491380D01*
X151306352Y-111491380D02*
X151687304Y-111491380D01*
X151687304Y-111491380D02*
X151687304Y-112491380D01*
X151687304Y-112491380D02*
X151353971Y-112491380D01*
X151353971Y-112491380D02*
X151258733Y-112443761D01*
X151258733Y-112443761D02*
X151211114Y-112396142D01*
X151211114Y-112396142D02*
X151163495Y-112300904D01*
X151163495Y-112300904D02*
X151163495Y-112205666D01*
X151163495Y-112205666D02*
X151211114Y-112110428D01*
X151211114Y-112110428D02*
X151258733Y-112062809D01*
X151258733Y-112062809D02*
X151353971Y-112015190D01*
X151353971Y-112015190D02*
X151687304Y-112015190D01*
X168779475Y-79997588D02*
X168779475Y-80712712D01*
X168779475Y-80712712D02*
X168731801Y-80855737D01*
X168731801Y-80855737D02*
X168636451Y-80951087D01*
X168636451Y-80951087D02*
X168493426Y-80998761D01*
X168493426Y-80998761D02*
X168398076Y-80998761D01*
X169160874Y-79997588D02*
X169780648Y-79997588D01*
X169780648Y-79997588D02*
X169446924Y-80378988D01*
X169446924Y-80378988D02*
X169589948Y-80378988D01*
X169589948Y-80378988D02*
X169685298Y-80426663D01*
X169685298Y-80426663D02*
X169732973Y-80474337D01*
X169732973Y-80474337D02*
X169780648Y-80569687D01*
X169780648Y-80569687D02*
X169780648Y-80808062D01*
X169780648Y-80808062D02*
X169732973Y-80903412D01*
X169732973Y-80903412D02*
X169685298Y-80951087D01*
X169685298Y-80951087D02*
X169589948Y-80998761D01*
X169589948Y-80998761D02*
X169303899Y-80998761D01*
X169303899Y-80998761D02*
X169208549Y-80951087D01*
X169208549Y-80951087D02*
X169160874Y-80903412D01*
X137825842Y-108277819D02*
X137492509Y-107801628D01*
X137254414Y-108277819D02*
X137254414Y-107277819D01*
X137254414Y-107277819D02*
X137635366Y-107277819D01*
X137635366Y-107277819D02*
X137730604Y-107325438D01*
X137730604Y-107325438D02*
X137778223Y-107373057D01*
X137778223Y-107373057D02*
X137825842Y-107468295D01*
X137825842Y-107468295D02*
X137825842Y-107611152D01*
X137825842Y-107611152D02*
X137778223Y-107706390D01*
X137778223Y-107706390D02*
X137730604Y-107754009D01*
X137730604Y-107754009D02*
X137635366Y-107801628D01*
X137635366Y-107801628D02*
X137254414Y-107801628D01*
X138778223Y-108277819D02*
X138206795Y-108277819D01*
X138492509Y-108277819D02*
X138492509Y-107277819D01*
X138492509Y-107277819D02*
X138397271Y-107420676D01*
X138397271Y-107420676D02*
X138302033Y-107515914D01*
X138302033Y-107515914D02*
X138206795Y-107563533D01*
X139159176Y-107373057D02*
X139206795Y-107325438D01*
X139206795Y-107325438D02*
X139302033Y-107277819D01*
X139302033Y-107277819D02*
X139540128Y-107277819D01*
X139540128Y-107277819D02*
X139635366Y-107325438D01*
X139635366Y-107325438D02*
X139682985Y-107373057D01*
X139682985Y-107373057D02*
X139730604Y-107468295D01*
X139730604Y-107468295D02*
X139730604Y-107563533D01*
X139730604Y-107563533D02*
X139682985Y-107706390D01*
X139682985Y-107706390D02*
X139111557Y-108277819D01*
X139111557Y-108277819D02*
X139730604Y-108277819D01*
X137851242Y-122705019D02*
X137517909Y-122228828D01*
X137279814Y-122705019D02*
X137279814Y-121705019D01*
X137279814Y-121705019D02*
X137660766Y-121705019D01*
X137660766Y-121705019D02*
X137756004Y-121752638D01*
X137756004Y-121752638D02*
X137803623Y-121800257D01*
X137803623Y-121800257D02*
X137851242Y-121895495D01*
X137851242Y-121895495D02*
X137851242Y-122038352D01*
X137851242Y-122038352D02*
X137803623Y-122133590D01*
X137803623Y-122133590D02*
X137756004Y-122181209D01*
X137756004Y-122181209D02*
X137660766Y-122228828D01*
X137660766Y-122228828D02*
X137279814Y-122228828D01*
X138803623Y-122705019D02*
X138232195Y-122705019D01*
X138517909Y-122705019D02*
X138517909Y-121705019D01*
X138517909Y-121705019D02*
X138422671Y-121847876D01*
X138422671Y-121847876D02*
X138327433Y-121943114D01*
X138327433Y-121943114D02*
X138232195Y-121990733D01*
X139279814Y-122705019D02*
X139470290Y-122705019D01*
X139470290Y-122705019D02*
X139565528Y-122657400D01*
X139565528Y-122657400D02*
X139613147Y-122609780D01*
X139613147Y-122609780D02*
X139708385Y-122466923D01*
X139708385Y-122466923D02*
X139756004Y-122276447D01*
X139756004Y-122276447D02*
X139756004Y-121895495D01*
X139756004Y-121895495D02*
X139708385Y-121800257D01*
X139708385Y-121800257D02*
X139660766Y-121752638D01*
X139660766Y-121752638D02*
X139565528Y-121705019D01*
X139565528Y-121705019D02*
X139375052Y-121705019D01*
X139375052Y-121705019D02*
X139279814Y-121752638D01*
X139279814Y-121752638D02*
X139232195Y-121800257D01*
X139232195Y-121800257D02*
X139184576Y-121895495D01*
X139184576Y-121895495D02*
X139184576Y-122133590D01*
X139184576Y-122133590D02*
X139232195Y-122228828D01*
X139232195Y-122228828D02*
X139279814Y-122276447D01*
X139279814Y-122276447D02*
X139375052Y-122324066D01*
X139375052Y-122324066D02*
X139565528Y-122324066D01*
X139565528Y-122324066D02*
X139660766Y-122276447D01*
X139660766Y-122276447D02*
X139708385Y-122228828D01*
X139708385Y-122228828D02*
X139756004Y-122133590D01*
X126687342Y-94003019D02*
X126354009Y-93526828D01*
X126115914Y-94003019D02*
X126115914Y-93003019D01*
X126115914Y-93003019D02*
X126496866Y-93003019D01*
X126496866Y-93003019D02*
X126592104Y-93050638D01*
X126592104Y-93050638D02*
X126639723Y-93098257D01*
X126639723Y-93098257D02*
X126687342Y-93193495D01*
X126687342Y-93193495D02*
X126687342Y-93336352D01*
X126687342Y-93336352D02*
X126639723Y-93431590D01*
X126639723Y-93431590D02*
X126592104Y-93479209D01*
X126592104Y-93479209D02*
X126496866Y-93526828D01*
X126496866Y-93526828D02*
X126115914Y-93526828D01*
X127068295Y-93098257D02*
X127115914Y-93050638D01*
X127115914Y-93050638D02*
X127211152Y-93003019D01*
X127211152Y-93003019D02*
X127449247Y-93003019D01*
X127449247Y-93003019D02*
X127544485Y-93050638D01*
X127544485Y-93050638D02*
X127592104Y-93098257D01*
X127592104Y-93098257D02*
X127639723Y-93193495D01*
X127639723Y-93193495D02*
X127639723Y-93288733D01*
X127639723Y-93288733D02*
X127592104Y-93431590D01*
X127592104Y-93431590D02*
X127020676Y-94003019D01*
X127020676Y-94003019D02*
X127639723Y-94003019D01*
X128592104Y-94003019D02*
X128020676Y-94003019D01*
X128306390Y-94003019D02*
X128306390Y-93003019D01*
X128306390Y-93003019D02*
X128211152Y-93145876D01*
X128211152Y-93145876D02*
X128115914Y-93241114D01*
X128115914Y-93241114D02*
X128020676Y-93288733D01*
X135012133Y-93831580D02*
X134964514Y-93879200D01*
X134964514Y-93879200D02*
X134821657Y-93926819D01*
X134821657Y-93926819D02*
X134726419Y-93926819D01*
X134726419Y-93926819D02*
X134583562Y-93879200D01*
X134583562Y-93879200D02*
X134488324Y-93783961D01*
X134488324Y-93783961D02*
X134440705Y-93688723D01*
X134440705Y-93688723D02*
X134393086Y-93498247D01*
X134393086Y-93498247D02*
X134393086Y-93355390D01*
X134393086Y-93355390D02*
X134440705Y-93164914D01*
X134440705Y-93164914D02*
X134488324Y-93069676D01*
X134488324Y-93069676D02*
X134583562Y-92974438D01*
X134583562Y-92974438D02*
X134726419Y-92926819D01*
X134726419Y-92926819D02*
X134821657Y-92926819D01*
X134821657Y-92926819D02*
X134964514Y-92974438D01*
X134964514Y-92974438D02*
X135012133Y-93022057D01*
X135488324Y-93926819D02*
X135678800Y-93926819D01*
X135678800Y-93926819D02*
X135774038Y-93879200D01*
X135774038Y-93879200D02*
X135821657Y-93831580D01*
X135821657Y-93831580D02*
X135916895Y-93688723D01*
X135916895Y-93688723D02*
X135964514Y-93498247D01*
X135964514Y-93498247D02*
X135964514Y-93117295D01*
X135964514Y-93117295D02*
X135916895Y-93022057D01*
X135916895Y-93022057D02*
X135869276Y-92974438D01*
X135869276Y-92974438D02*
X135774038Y-92926819D01*
X135774038Y-92926819D02*
X135583562Y-92926819D01*
X135583562Y-92926819D02*
X135488324Y-92974438D01*
X135488324Y-92974438D02*
X135440705Y-93022057D01*
X135440705Y-93022057D02*
X135393086Y-93117295D01*
X135393086Y-93117295D02*
X135393086Y-93355390D01*
X135393086Y-93355390D02*
X135440705Y-93450628D01*
X135440705Y-93450628D02*
X135488324Y-93498247D01*
X135488324Y-93498247D02*
X135583562Y-93545866D01*
X135583562Y-93545866D02*
X135774038Y-93545866D01*
X135774038Y-93545866D02*
X135869276Y-93498247D01*
X135869276Y-93498247D02*
X135916895Y-93450628D01*
X135916895Y-93450628D02*
X135964514Y-93355390D01*
X167513095Y-98413219D02*
X167513095Y-99222742D01*
X167513095Y-99222742D02*
X167560714Y-99317980D01*
X167560714Y-99317980D02*
X167608333Y-99365600D01*
X167608333Y-99365600D02*
X167703571Y-99413219D01*
X167703571Y-99413219D02*
X167894047Y-99413219D01*
X167894047Y-99413219D02*
X167989285Y-99365600D01*
X167989285Y-99365600D02*
X168036904Y-99317980D01*
X168036904Y-99317980D02*
X168084523Y-99222742D01*
X168084523Y-99222742D02*
X168084523Y-98413219D01*
X168703571Y-98841790D02*
X168608333Y-98794171D01*
X168608333Y-98794171D02*
X168560714Y-98746552D01*
X168560714Y-98746552D02*
X168513095Y-98651314D01*
X168513095Y-98651314D02*
X168513095Y-98603695D01*
X168513095Y-98603695D02*
X168560714Y-98508457D01*
X168560714Y-98508457D02*
X168608333Y-98460838D01*
X168608333Y-98460838D02*
X168703571Y-98413219D01*
X168703571Y-98413219D02*
X168894047Y-98413219D01*
X168894047Y-98413219D02*
X168989285Y-98460838D01*
X168989285Y-98460838D02*
X169036904Y-98508457D01*
X169036904Y-98508457D02*
X169084523Y-98603695D01*
X169084523Y-98603695D02*
X169084523Y-98651314D01*
X169084523Y-98651314D02*
X169036904Y-98746552D01*
X169036904Y-98746552D02*
X168989285Y-98794171D01*
X168989285Y-98794171D02*
X168894047Y-98841790D01*
X168894047Y-98841790D02*
X168703571Y-98841790D01*
X168703571Y-98841790D02*
X168608333Y-98889409D01*
X168608333Y-98889409D02*
X168560714Y-98937028D01*
X168560714Y-98937028D02*
X168513095Y-99032266D01*
X168513095Y-99032266D02*
X168513095Y-99222742D01*
X168513095Y-99222742D02*
X168560714Y-99317980D01*
X168560714Y-99317980D02*
X168608333Y-99365600D01*
X168608333Y-99365600D02*
X168703571Y-99413219D01*
X168703571Y-99413219D02*
X168894047Y-99413219D01*
X168894047Y-99413219D02*
X168989285Y-99365600D01*
X168989285Y-99365600D02*
X169036904Y-99317980D01*
X169036904Y-99317980D02*
X169084523Y-99222742D01*
X169084523Y-99222742D02*
X169084523Y-99032266D01*
X169084523Y-99032266D02*
X169036904Y-98937028D01*
X169036904Y-98937028D02*
X168989285Y-98889409D01*
X168989285Y-98889409D02*
X168894047Y-98841790D01*
X111867961Y-119549057D02*
X111772723Y-119501438D01*
X111772723Y-119501438D02*
X111677485Y-119406200D01*
X111677485Y-119406200D02*
X111534628Y-119263342D01*
X111534628Y-119263342D02*
X111439390Y-119215723D01*
X111439390Y-119215723D02*
X111344152Y-119215723D01*
X111391771Y-119453819D02*
X111296533Y-119406200D01*
X111296533Y-119406200D02*
X111201295Y-119310961D01*
X111201295Y-119310961D02*
X111153676Y-119120485D01*
X111153676Y-119120485D02*
X111153676Y-118787152D01*
X111153676Y-118787152D02*
X111201295Y-118596676D01*
X111201295Y-118596676D02*
X111296533Y-118501438D01*
X111296533Y-118501438D02*
X111391771Y-118453819D01*
X111391771Y-118453819D02*
X111582247Y-118453819D01*
X111582247Y-118453819D02*
X111677485Y-118501438D01*
X111677485Y-118501438D02*
X111772723Y-118596676D01*
X111772723Y-118596676D02*
X111820342Y-118787152D01*
X111820342Y-118787152D02*
X111820342Y-119120485D01*
X111820342Y-119120485D02*
X111772723Y-119310961D01*
X111772723Y-119310961D02*
X111677485Y-119406200D01*
X111677485Y-119406200D02*
X111582247Y-119453819D01*
X111582247Y-119453819D02*
X111391771Y-119453819D01*
X112201295Y-118549057D02*
X112248914Y-118501438D01*
X112248914Y-118501438D02*
X112344152Y-118453819D01*
X112344152Y-118453819D02*
X112582247Y-118453819D01*
X112582247Y-118453819D02*
X112677485Y-118501438D01*
X112677485Y-118501438D02*
X112725104Y-118549057D01*
X112725104Y-118549057D02*
X112772723Y-118644295D01*
X112772723Y-118644295D02*
X112772723Y-118739533D01*
X112772723Y-118739533D02*
X112725104Y-118882390D01*
X112725104Y-118882390D02*
X112153676Y-119453819D01*
X112153676Y-119453819D02*
X112772723Y-119453819D01*
X116247942Y-106982419D02*
X115914609Y-106506228D01*
X115676514Y-106982419D02*
X115676514Y-105982419D01*
X115676514Y-105982419D02*
X116057466Y-105982419D01*
X116057466Y-105982419D02*
X116152704Y-106030038D01*
X116152704Y-106030038D02*
X116200323Y-106077657D01*
X116200323Y-106077657D02*
X116247942Y-106172895D01*
X116247942Y-106172895D02*
X116247942Y-106315752D01*
X116247942Y-106315752D02*
X116200323Y-106410990D01*
X116200323Y-106410990D02*
X116152704Y-106458609D01*
X116152704Y-106458609D02*
X116057466Y-106506228D01*
X116057466Y-106506228D02*
X115676514Y-106506228D01*
X117105085Y-106315752D02*
X117105085Y-106982419D01*
X116866990Y-105934800D02*
X116628895Y-106649085D01*
X116628895Y-106649085D02*
X117247942Y-106649085D01*
X118152704Y-106982419D02*
X117581276Y-106982419D01*
X117866990Y-106982419D02*
X117866990Y-105982419D01*
X117866990Y-105982419D02*
X117771752Y-106125276D01*
X117771752Y-106125276D02*
X117676514Y-106220514D01*
X117676514Y-106220514D02*
X117581276Y-106268133D01*
X127990695Y-88812019D02*
X127990695Y-89621542D01*
X127990695Y-89621542D02*
X128038314Y-89716780D01*
X128038314Y-89716780D02*
X128085933Y-89764400D01*
X128085933Y-89764400D02*
X128181171Y-89812019D01*
X128181171Y-89812019D02*
X128371647Y-89812019D01*
X128371647Y-89812019D02*
X128466885Y-89764400D01*
X128466885Y-89764400D02*
X128514504Y-89716780D01*
X128514504Y-89716780D02*
X128562123Y-89621542D01*
X128562123Y-89621542D02*
X128562123Y-88812019D01*
X128943076Y-88812019D02*
X129609742Y-88812019D01*
X129609742Y-88812019D02*
X129181171Y-89812019D01*
X114347666Y-75482809D02*
X114014333Y-75482809D01*
X114014333Y-76006619D02*
X114014333Y-75006619D01*
X114014333Y-75006619D02*
X114490523Y-75006619D01*
X114823857Y-75101857D02*
X114871476Y-75054238D01*
X114871476Y-75054238D02*
X114966714Y-75006619D01*
X114966714Y-75006619D02*
X115204809Y-75006619D01*
X115204809Y-75006619D02*
X115300047Y-75054238D01*
X115300047Y-75054238D02*
X115347666Y-75101857D01*
X115347666Y-75101857D02*
X115395285Y-75197095D01*
X115395285Y-75197095D02*
X115395285Y-75292333D01*
X115395285Y-75292333D02*
X115347666Y-75435190D01*
X115347666Y-75435190D02*
X114776238Y-76006619D01*
X114776238Y-76006619D02*
X115395285Y-76006619D01*
X135938419Y-98534457D02*
X135462228Y-98867790D01*
X135938419Y-99105885D02*
X134938419Y-99105885D01*
X134938419Y-99105885D02*
X134938419Y-98724933D01*
X134938419Y-98724933D02*
X134986038Y-98629695D01*
X134986038Y-98629695D02*
X135033657Y-98582076D01*
X135033657Y-98582076D02*
X135128895Y-98534457D01*
X135128895Y-98534457D02*
X135271752Y-98534457D01*
X135271752Y-98534457D02*
X135366990Y-98582076D01*
X135366990Y-98582076D02*
X135414609Y-98629695D01*
X135414609Y-98629695D02*
X135462228Y-98724933D01*
X135462228Y-98724933D02*
X135462228Y-99105885D01*
X135033657Y-98153504D02*
X134986038Y-98105885D01*
X134986038Y-98105885D02*
X134938419Y-98010647D01*
X134938419Y-98010647D02*
X134938419Y-97772552D01*
X134938419Y-97772552D02*
X134986038Y-97677314D01*
X134986038Y-97677314D02*
X135033657Y-97629695D01*
X135033657Y-97629695D02*
X135128895Y-97582076D01*
X135128895Y-97582076D02*
X135224133Y-97582076D01*
X135224133Y-97582076D02*
X135366990Y-97629695D01*
X135366990Y-97629695D02*
X135938419Y-98201123D01*
X135938419Y-98201123D02*
X135938419Y-97582076D01*
X134938419Y-97248742D02*
X134938419Y-96629695D01*
X134938419Y-96629695D02*
X135319371Y-96963028D01*
X135319371Y-96963028D02*
X135319371Y-96820171D01*
X135319371Y-96820171D02*
X135366990Y-96724933D01*
X135366990Y-96724933D02*
X135414609Y-96677314D01*
X135414609Y-96677314D02*
X135509847Y-96629695D01*
X135509847Y-96629695D02*
X135747942Y-96629695D01*
X135747942Y-96629695D02*
X135843180Y-96677314D01*
X135843180Y-96677314D02*
X135890800Y-96724933D01*
X135890800Y-96724933D02*
X135938419Y-96820171D01*
X135938419Y-96820171D02*
X135938419Y-97105885D01*
X135938419Y-97105885D02*
X135890800Y-97201123D01*
X135890800Y-97201123D02*
X135843180Y-97248742D01*
X133570742Y-117193219D02*
X133237409Y-116717028D01*
X132999314Y-117193219D02*
X132999314Y-116193219D01*
X132999314Y-116193219D02*
X133380266Y-116193219D01*
X133380266Y-116193219D02*
X133475504Y-116240838D01*
X133475504Y-116240838D02*
X133523123Y-116288457D01*
X133523123Y-116288457D02*
X133570742Y-116383695D01*
X133570742Y-116383695D02*
X133570742Y-116526552D01*
X133570742Y-116526552D02*
X133523123Y-116621790D01*
X133523123Y-116621790D02*
X133475504Y-116669409D01*
X133475504Y-116669409D02*
X133380266Y-116717028D01*
X133380266Y-116717028D02*
X132999314Y-116717028D01*
X133951695Y-116288457D02*
X133999314Y-116240838D01*
X133999314Y-116240838D02*
X134094552Y-116193219D01*
X134094552Y-116193219D02*
X134332647Y-116193219D01*
X134332647Y-116193219D02*
X134427885Y-116240838D01*
X134427885Y-116240838D02*
X134475504Y-116288457D01*
X134475504Y-116288457D02*
X134523123Y-116383695D01*
X134523123Y-116383695D02*
X134523123Y-116478933D01*
X134523123Y-116478933D02*
X134475504Y-116621790D01*
X134475504Y-116621790D02*
X133904076Y-117193219D01*
X133904076Y-117193219D02*
X134523123Y-117193219D01*
X135427885Y-116193219D02*
X134951695Y-116193219D01*
X134951695Y-116193219D02*
X134904076Y-116669409D01*
X134904076Y-116669409D02*
X134951695Y-116621790D01*
X134951695Y-116621790D02*
X135046933Y-116574171D01*
X135046933Y-116574171D02*
X135285028Y-116574171D01*
X135285028Y-116574171D02*
X135380266Y-116621790D01*
X135380266Y-116621790D02*
X135427885Y-116669409D01*
X135427885Y-116669409D02*
X135475504Y-116764647D01*
X135475504Y-116764647D02*
X135475504Y-117002742D01*
X135475504Y-117002742D02*
X135427885Y-117097980D01*
X135427885Y-117097980D02*
X135380266Y-117145600D01*
X135380266Y-117145600D02*
X135285028Y-117193219D01*
X135285028Y-117193219D02*
X135046933Y-117193219D01*
X135046933Y-117193219D02*
X134951695Y-117145600D01*
X134951695Y-117145600D02*
X134904076Y-117097980D01*
X128049195Y-97494219D02*
X128049195Y-98303742D01*
X128049195Y-98303742D02*
X128096814Y-98398980D01*
X128096814Y-98398980D02*
X128144433Y-98446600D01*
X128144433Y-98446600D02*
X128239671Y-98494219D01*
X128239671Y-98494219D02*
X128430147Y-98494219D01*
X128430147Y-98494219D02*
X128525385Y-98446600D01*
X128525385Y-98446600D02*
X128573004Y-98398980D01*
X128573004Y-98398980D02*
X128620623Y-98303742D01*
X128620623Y-98303742D02*
X128620623Y-97494219D01*
X129573004Y-97494219D02*
X129096814Y-97494219D01*
X129096814Y-97494219D02*
X129049195Y-97970409D01*
X129049195Y-97970409D02*
X129096814Y-97922790D01*
X129096814Y-97922790D02*
X129192052Y-97875171D01*
X129192052Y-97875171D02*
X129430147Y-97875171D01*
X129430147Y-97875171D02*
X129525385Y-97922790D01*
X129525385Y-97922790D02*
X129573004Y-97970409D01*
X129573004Y-97970409D02*
X129620623Y-98065647D01*
X129620623Y-98065647D02*
X129620623Y-98303742D01*
X129620623Y-98303742D02*
X129573004Y-98398980D01*
X129573004Y-98398980D02*
X129525385Y-98446600D01*
X129525385Y-98446600D02*
X129430147Y-98494219D01*
X129430147Y-98494219D02*
X129192052Y-98494219D01*
X129192052Y-98494219D02*
X129096814Y-98446600D01*
X129096814Y-98446600D02*
X129049195Y-98398980D01*
X137827042Y-110970219D02*
X137493709Y-110494028D01*
X137255614Y-110970219D02*
X137255614Y-109970219D01*
X137255614Y-109970219D02*
X137636566Y-109970219D01*
X137636566Y-109970219D02*
X137731804Y-110017838D01*
X137731804Y-110017838D02*
X137779423Y-110065457D01*
X137779423Y-110065457D02*
X137827042Y-110160695D01*
X137827042Y-110160695D02*
X137827042Y-110303552D01*
X137827042Y-110303552D02*
X137779423Y-110398790D01*
X137779423Y-110398790D02*
X137731804Y-110446409D01*
X137731804Y-110446409D02*
X137636566Y-110494028D01*
X137636566Y-110494028D02*
X137255614Y-110494028D01*
X138779423Y-110970219D02*
X138207995Y-110970219D01*
X138493709Y-110970219D02*
X138493709Y-109970219D01*
X138493709Y-109970219D02*
X138398471Y-110113076D01*
X138398471Y-110113076D02*
X138303233Y-110208314D01*
X138303233Y-110208314D02*
X138207995Y-110255933D01*
X139636566Y-110303552D02*
X139636566Y-110970219D01*
X139398471Y-109922600D02*
X139160376Y-110636885D01*
X139160376Y-110636885D02*
X139779423Y-110636885D01*
X129768695Y-114348019D02*
X129768695Y-115157542D01*
X129768695Y-115157542D02*
X129816314Y-115252780D01*
X129816314Y-115252780D02*
X129863933Y-115300400D01*
X129863933Y-115300400D02*
X129959171Y-115348019D01*
X129959171Y-115348019D02*
X130149647Y-115348019D01*
X130149647Y-115348019D02*
X130244885Y-115300400D01*
X130244885Y-115300400D02*
X130292504Y-115252780D01*
X130292504Y-115252780D02*
X130340123Y-115157542D01*
X130340123Y-115157542D02*
X130340123Y-114348019D01*
X130863933Y-115348019D02*
X131054409Y-115348019D01*
X131054409Y-115348019D02*
X131149647Y-115300400D01*
X131149647Y-115300400D02*
X131197266Y-115252780D01*
X131197266Y-115252780D02*
X131292504Y-115109923D01*
X131292504Y-115109923D02*
X131340123Y-114919447D01*
X131340123Y-114919447D02*
X131340123Y-114538495D01*
X131340123Y-114538495D02*
X131292504Y-114443257D01*
X131292504Y-114443257D02*
X131244885Y-114395638D01*
X131244885Y-114395638D02*
X131149647Y-114348019D01*
X131149647Y-114348019D02*
X130959171Y-114348019D01*
X130959171Y-114348019D02*
X130863933Y-114395638D01*
X130863933Y-114395638D02*
X130816314Y-114443257D01*
X130816314Y-114443257D02*
X130768695Y-114538495D01*
X130768695Y-114538495D02*
X130768695Y-114776590D01*
X130768695Y-114776590D02*
X130816314Y-114871828D01*
X130816314Y-114871828D02*
X130863933Y-114919447D01*
X130863933Y-114919447D02*
X130959171Y-114967066D01*
X130959171Y-114967066D02*
X131149647Y-114967066D01*
X131149647Y-114967066D02*
X131244885Y-114919447D01*
X131244885Y-114919447D02*
X131292504Y-114871828D01*
X131292504Y-114871828D02*
X131340123Y-114776590D01*
X127914495Y-77712219D02*
X127914495Y-78521742D01*
X127914495Y-78521742D02*
X127962114Y-78616980D01*
X127962114Y-78616980D02*
X128009733Y-78664600D01*
X128009733Y-78664600D02*
X128104971Y-78712219D01*
X128104971Y-78712219D02*
X128295447Y-78712219D01*
X128295447Y-78712219D02*
X128390685Y-78664600D01*
X128390685Y-78664600D02*
X128438304Y-78616980D01*
X128438304Y-78616980D02*
X128485923Y-78521742D01*
X128485923Y-78521742D02*
X128485923Y-77712219D01*
X129390685Y-77712219D02*
X129200209Y-77712219D01*
X129200209Y-77712219D02*
X129104971Y-77759838D01*
X129104971Y-77759838D02*
X129057352Y-77807457D01*
X129057352Y-77807457D02*
X128962114Y-77950314D01*
X128962114Y-77950314D02*
X128914495Y-78140790D01*
X128914495Y-78140790D02*
X128914495Y-78521742D01*
X128914495Y-78521742D02*
X128962114Y-78616980D01*
X128962114Y-78616980D02*
X129009733Y-78664600D01*
X129009733Y-78664600D02*
X129104971Y-78712219D01*
X129104971Y-78712219D02*
X129295447Y-78712219D01*
X129295447Y-78712219D02*
X129390685Y-78664600D01*
X129390685Y-78664600D02*
X129438304Y-78616980D01*
X129438304Y-78616980D02*
X129485923Y-78521742D01*
X129485923Y-78521742D02*
X129485923Y-78283647D01*
X129485923Y-78283647D02*
X129438304Y-78188409D01*
X129438304Y-78188409D02*
X129390685Y-78140790D01*
X129390685Y-78140790D02*
X129295447Y-78093171D01*
X129295447Y-78093171D02*
X129104971Y-78093171D01*
X129104971Y-78093171D02*
X129009733Y-78140790D01*
X129009733Y-78140790D02*
X128962114Y-78188409D01*
X128962114Y-78188409D02*
X128914495Y-78283647D01*
X125925342Y-117304780D02*
X125877723Y-117352400D01*
X125877723Y-117352400D02*
X125734866Y-117400019D01*
X125734866Y-117400019D02*
X125639628Y-117400019D01*
X125639628Y-117400019D02*
X125496771Y-117352400D01*
X125496771Y-117352400D02*
X125401533Y-117257161D01*
X125401533Y-117257161D02*
X125353914Y-117161923D01*
X125353914Y-117161923D02*
X125306295Y-116971447D01*
X125306295Y-116971447D02*
X125306295Y-116828590D01*
X125306295Y-116828590D02*
X125353914Y-116638114D01*
X125353914Y-116638114D02*
X125401533Y-116542876D01*
X125401533Y-116542876D02*
X125496771Y-116447638D01*
X125496771Y-116447638D02*
X125639628Y-116400019D01*
X125639628Y-116400019D02*
X125734866Y-116400019D01*
X125734866Y-116400019D02*
X125877723Y-116447638D01*
X125877723Y-116447638D02*
X125925342Y-116495257D01*
X126877723Y-117400019D02*
X126306295Y-117400019D01*
X126592009Y-117400019D02*
X126592009Y-116400019D01*
X126592009Y-116400019D02*
X126496771Y-116542876D01*
X126496771Y-116542876D02*
X126401533Y-116638114D01*
X126401533Y-116638114D02*
X126306295Y-116685733D01*
X127830104Y-117400019D02*
X127258676Y-117400019D01*
X127544390Y-117400019D02*
X127544390Y-116400019D01*
X127544390Y-116400019D02*
X127449152Y-116542876D01*
X127449152Y-116542876D02*
X127353914Y-116638114D01*
X127353914Y-116638114D02*
X127258676Y-116685733D01*
X133998642Y-88678980D02*
X133951023Y-88726600D01*
X133951023Y-88726600D02*
X133808166Y-88774219D01*
X133808166Y-88774219D02*
X133712928Y-88774219D01*
X133712928Y-88774219D02*
X133570071Y-88726600D01*
X133570071Y-88726600D02*
X133474833Y-88631361D01*
X133474833Y-88631361D02*
X133427214Y-88536123D01*
X133427214Y-88536123D02*
X133379595Y-88345647D01*
X133379595Y-88345647D02*
X133379595Y-88202790D01*
X133379595Y-88202790D02*
X133427214Y-88012314D01*
X133427214Y-88012314D02*
X133474833Y-87917076D01*
X133474833Y-87917076D02*
X133570071Y-87821838D01*
X133570071Y-87821838D02*
X133712928Y-87774219D01*
X133712928Y-87774219D02*
X133808166Y-87774219D01*
X133808166Y-87774219D02*
X133951023Y-87821838D01*
X133951023Y-87821838D02*
X133998642Y-87869457D01*
X134951023Y-88774219D02*
X134379595Y-88774219D01*
X134665309Y-88774219D02*
X134665309Y-87774219D01*
X134665309Y-87774219D02*
X134570071Y-87917076D01*
X134570071Y-87917076D02*
X134474833Y-88012314D01*
X134474833Y-88012314D02*
X134379595Y-88059933D01*
X135284357Y-87774219D02*
X135903404Y-87774219D01*
X135903404Y-87774219D02*
X135570071Y-88155171D01*
X135570071Y-88155171D02*
X135712928Y-88155171D01*
X135712928Y-88155171D02*
X135808166Y-88202790D01*
X135808166Y-88202790D02*
X135855785Y-88250409D01*
X135855785Y-88250409D02*
X135903404Y-88345647D01*
X135903404Y-88345647D02*
X135903404Y-88583742D01*
X135903404Y-88583742D02*
X135855785Y-88678980D01*
X135855785Y-88678980D02*
X135808166Y-88726600D01*
X135808166Y-88726600D02*
X135712928Y-88774219D01*
X135712928Y-88774219D02*
X135427214Y-88774219D01*
X135427214Y-88774219D02*
X135331976Y-88726600D01*
X135331976Y-88726600D02*
X135284357Y-88678980D01*
X123232942Y-83258819D02*
X122899609Y-82782628D01*
X122661514Y-83258819D02*
X122661514Y-82258819D01*
X122661514Y-82258819D02*
X123042466Y-82258819D01*
X123042466Y-82258819D02*
X123137704Y-82306438D01*
X123137704Y-82306438D02*
X123185323Y-82354057D01*
X123185323Y-82354057D02*
X123232942Y-82449295D01*
X123232942Y-82449295D02*
X123232942Y-82592152D01*
X123232942Y-82592152D02*
X123185323Y-82687390D01*
X123185323Y-82687390D02*
X123137704Y-82735009D01*
X123137704Y-82735009D02*
X123042466Y-82782628D01*
X123042466Y-82782628D02*
X122661514Y-82782628D01*
X123613895Y-82354057D02*
X123661514Y-82306438D01*
X123661514Y-82306438D02*
X123756752Y-82258819D01*
X123756752Y-82258819D02*
X123994847Y-82258819D01*
X123994847Y-82258819D02*
X124090085Y-82306438D01*
X124090085Y-82306438D02*
X124137704Y-82354057D01*
X124137704Y-82354057D02*
X124185323Y-82449295D01*
X124185323Y-82449295D02*
X124185323Y-82544533D01*
X124185323Y-82544533D02*
X124137704Y-82687390D01*
X124137704Y-82687390D02*
X123566276Y-83258819D01*
X123566276Y-83258819D02*
X124185323Y-83258819D01*
X124661514Y-83258819D02*
X124851990Y-83258819D01*
X124851990Y-83258819D02*
X124947228Y-83211200D01*
X124947228Y-83211200D02*
X124994847Y-83163580D01*
X124994847Y-83163580D02*
X125090085Y-83020723D01*
X125090085Y-83020723D02*
X125137704Y-82830247D01*
X125137704Y-82830247D02*
X125137704Y-82449295D01*
X125137704Y-82449295D02*
X125090085Y-82354057D01*
X125090085Y-82354057D02*
X125042466Y-82306438D01*
X125042466Y-82306438D02*
X124947228Y-82258819D01*
X124947228Y-82258819D02*
X124756752Y-82258819D01*
X124756752Y-82258819D02*
X124661514Y-82306438D01*
X124661514Y-82306438D02*
X124613895Y-82354057D01*
X124613895Y-82354057D02*
X124566276Y-82449295D01*
X124566276Y-82449295D02*
X124566276Y-82687390D01*
X124566276Y-82687390D02*
X124613895Y-82782628D01*
X124613895Y-82782628D02*
X124661514Y-82830247D01*
X124661514Y-82830247D02*
X124756752Y-82877866D01*
X124756752Y-82877866D02*
X124947228Y-82877866D01*
X124947228Y-82877866D02*
X125042466Y-82830247D01*
X125042466Y-82830247D02*
X125090085Y-82782628D01*
X125090085Y-82782628D02*
X125137704Y-82687390D01*
X123078419Y-86010357D02*
X122602228Y-86343690D01*
X123078419Y-86581785D02*
X122078419Y-86581785D01*
X122078419Y-86581785D02*
X122078419Y-86200833D01*
X122078419Y-86200833D02*
X122126038Y-86105595D01*
X122126038Y-86105595D02*
X122173657Y-86057976D01*
X122173657Y-86057976D02*
X122268895Y-86010357D01*
X122268895Y-86010357D02*
X122411752Y-86010357D01*
X122411752Y-86010357D02*
X122506990Y-86057976D01*
X122506990Y-86057976D02*
X122554609Y-86105595D01*
X122554609Y-86105595D02*
X122602228Y-86200833D01*
X122602228Y-86200833D02*
X122602228Y-86581785D01*
X122173657Y-85629404D02*
X122126038Y-85581785D01*
X122126038Y-85581785D02*
X122078419Y-85486547D01*
X122078419Y-85486547D02*
X122078419Y-85248452D01*
X122078419Y-85248452D02*
X122126038Y-85153214D01*
X122126038Y-85153214D02*
X122173657Y-85105595D01*
X122173657Y-85105595D02*
X122268895Y-85057976D01*
X122268895Y-85057976D02*
X122364133Y-85057976D01*
X122364133Y-85057976D02*
X122506990Y-85105595D01*
X122506990Y-85105595D02*
X123078419Y-85677023D01*
X123078419Y-85677023D02*
X123078419Y-85057976D01*
X122506990Y-84486547D02*
X122459371Y-84581785D01*
X122459371Y-84581785D02*
X122411752Y-84629404D01*
X122411752Y-84629404D02*
X122316514Y-84677023D01*
X122316514Y-84677023D02*
X122268895Y-84677023D01*
X122268895Y-84677023D02*
X122173657Y-84629404D01*
X122173657Y-84629404D02*
X122126038Y-84581785D01*
X122126038Y-84581785D02*
X122078419Y-84486547D01*
X122078419Y-84486547D02*
X122078419Y-84296071D01*
X122078419Y-84296071D02*
X122126038Y-84200833D01*
X122126038Y-84200833D02*
X122173657Y-84153214D01*
X122173657Y-84153214D02*
X122268895Y-84105595D01*
X122268895Y-84105595D02*
X122316514Y-84105595D01*
X122316514Y-84105595D02*
X122411752Y-84153214D01*
X122411752Y-84153214D02*
X122459371Y-84200833D01*
X122459371Y-84200833D02*
X122506990Y-84296071D01*
X122506990Y-84296071D02*
X122506990Y-84486547D01*
X122506990Y-84486547D02*
X122554609Y-84581785D01*
X122554609Y-84581785D02*
X122602228Y-84629404D01*
X122602228Y-84629404D02*
X122697466Y-84677023D01*
X122697466Y-84677023D02*
X122887942Y-84677023D01*
X122887942Y-84677023D02*
X122983180Y-84629404D01*
X122983180Y-84629404D02*
X123030800Y-84581785D01*
X123030800Y-84581785D02*
X123078419Y-84486547D01*
X123078419Y-84486547D02*
X123078419Y-84296071D01*
X123078419Y-84296071D02*
X123030800Y-84200833D01*
X123030800Y-84200833D02*
X122983180Y-84153214D01*
X122983180Y-84153214D02*
X122887942Y-84105595D01*
X122887942Y-84105595D02*
X122697466Y-84105595D01*
X122697466Y-84105595D02*
X122602228Y-84153214D01*
X122602228Y-84153214D02*
X122554609Y-84200833D01*
X122554609Y-84200833D02*
X122506990Y-84296071D01*
D12*
%TO.C,C3*%
X112108064Y-92435000D02*
X110903936Y-92435000D01*
X112108064Y-94255000D02*
X110903936Y-94255000D01*
%TO.C,C4*%
X110166564Y-103763400D02*
X108962436Y-103763400D01*
X110166564Y-105583400D02*
X108962436Y-105583400D01*
%TO.C,U3*%
X112640120Y-99599320D02*
X112640120Y-103359320D01*
X112640120Y-103359320D02*
X113900120Y-103359320D01*
X119460120Y-97349320D02*
X119460120Y-103359320D01*
X119460120Y-103359320D02*
X118200120Y-103359320D01*
%TO.C,C2*%
X111954052Y-94921000D02*
X111431548Y-94921000D01*
X111954052Y-96341000D02*
X111431548Y-96341000D01*
%TO.C,C5*%
X120209000Y-99177852D02*
X120209000Y-98655348D01*
X121629000Y-99177852D02*
X121629000Y-98655348D01*
%TO.C,C6*%
X107200887Y-117780779D02*
X106831421Y-117411313D01*
X108204979Y-116776687D02*
X107835513Y-116407221D01*
%TO.C,D1*%
X110364000Y-75409600D02*
X110364000Y-80809600D01*
X113664000Y-75409600D02*
X110364000Y-75409600D01*
X113664000Y-75409600D02*
X113664000Y-80809600D01*
%TO.C,J1*%
X116043400Y-77555400D02*
X116043400Y-76225400D01*
X117373400Y-77555400D02*
X116043400Y-77555400D01*
X118643400Y-74895400D02*
X123783400Y-74895400D01*
X118643400Y-77555400D02*
X118643400Y-74895400D01*
X118643400Y-77555400D02*
X123783400Y-77555400D01*
X123783400Y-77555400D02*
X123783400Y-74895400D01*
%TO.C,R42*%
X135956021Y-123089400D02*
X135620779Y-123089400D01*
X135956021Y-123849400D02*
X135620779Y-123849400D01*
%TO.C,R39*%
X117697176Y-115428500D02*
X118206624Y-115428500D01*
X117697176Y-116473500D02*
X118206624Y-116473500D01*
%TO.C,R16*%
X135919721Y-112726200D02*
X135584479Y-112726200D01*
X135919721Y-113486200D02*
X135584479Y-113486200D01*
%TO.C,U2*%
X112699800Y-84194200D02*
X109099800Y-84194200D01*
X112699800Y-84194200D02*
X114899800Y-84194200D01*
X112699800Y-90964200D02*
X110499800Y-90964200D01*
X112699800Y-90964200D02*
X114899800Y-90964200D01*
%TO.C,R4*%
X120012376Y-92085900D02*
X120521824Y-92085900D01*
X120012376Y-93130900D02*
X120521824Y-93130900D01*
%TO.C,R33*%
X117671776Y-110526300D02*
X118181224Y-110526300D01*
X117671776Y-111571300D02*
X118181224Y-111571300D01*
%TO.C,R36*%
X117702876Y-120279900D02*
X118212324Y-120279900D01*
X117702876Y-121324900D02*
X118212324Y-121324900D01*
%TO.C,C12*%
X166424152Y-78665400D02*
X165901648Y-78665400D01*
X166424152Y-80135400D02*
X165901648Y-80135400D01*
%TO.C,R5*%
X120012376Y-90460300D02*
X120521824Y-90460300D01*
X120012376Y-91505300D02*
X120521824Y-91505300D01*
%TO.C,R35*%
X117675576Y-107325900D02*
X118185024Y-107325900D01*
X117675576Y-108370900D02*
X118185024Y-108370900D01*
%TO.C,R1*%
X117702876Y-112177300D02*
X118212324Y-112177300D01*
X117702876Y-113222300D02*
X118212324Y-113222300D01*
%TO.C,C1*%
X159254648Y-73661600D02*
X159777152Y-73661600D01*
X159254648Y-75131600D02*
X159777152Y-75131600D01*
%TO.C,C8*%
X126807952Y-125071200D02*
X126285448Y-125071200D01*
X126807952Y-126541200D02*
X126285448Y-126541200D01*
%TO.C,R38*%
X117700976Y-117028700D02*
X118210424Y-117028700D01*
X117700976Y-118073700D02*
X118210424Y-118073700D01*
%TO.C,R17*%
X135918521Y-118542800D02*
X135583279Y-118542800D01*
X135918521Y-119302800D02*
X135583279Y-119302800D01*
%TO.C,R9*%
X120065076Y-87158300D02*
X120574524Y-87158300D01*
X120065076Y-88203300D02*
X120574524Y-88203300D01*
%TO.C,R13*%
X135919721Y-108814600D02*
X135584479Y-108814600D01*
X135919721Y-109574600D02*
X135584479Y-109574600D01*
%TO.C,C7*%
X166406552Y-76531800D02*
X165884048Y-76531800D01*
X166406552Y-78001800D02*
X165884048Y-78001800D01*
%TO.C,R40*%
X117700976Y-113802900D02*
X118210424Y-113802900D01*
X117700976Y-114847900D02*
X118210424Y-114847900D01*
%TO.C,R57*%
X172746400Y-106004379D02*
X172746400Y-106339621D01*
X173506400Y-106004379D02*
X173506400Y-106339621D01*
%TO.C,U4*%
X130530600Y-117798400D02*
X128330600Y-117798400D01*
X130530600Y-117798400D02*
X132730600Y-117798400D01*
X130530600Y-124568400D02*
X128330600Y-124568400D01*
X130530600Y-124568400D02*
X134130600Y-124568400D01*
%TO.C,R18*%
X135943921Y-119812800D02*
X135608679Y-119812800D01*
X135943921Y-120572800D02*
X135608679Y-120572800D01*
%TO.C,D5*%
X107153100Y-95407400D02*
X107153100Y-97867400D01*
X108623100Y-95407400D02*
X107153100Y-95407400D01*
X108623100Y-97867400D02*
X108623100Y-95407400D01*
%TO.C,R20*%
X162920142Y-73112100D02*
X163394658Y-73112100D01*
X162920142Y-74157100D02*
X163394658Y-74157100D01*
%TO.C,Q1*%
X116408200Y-80431200D02*
X114733200Y-80431200D01*
X116408200Y-80431200D02*
X117058200Y-80431200D01*
X116408200Y-83551200D02*
X115758200Y-83551200D01*
X116408200Y-83551200D02*
X117058200Y-83551200D01*
%TO.C,C15*%
X129913748Y-104217800D02*
X130436252Y-104217800D01*
X129913748Y-105687800D02*
X130436252Y-105687800D01*
%TO.C,R22*%
X130453676Y-85253300D02*
X130963124Y-85253300D01*
X130453676Y-86298300D02*
X130963124Y-86298300D01*
%TO.C,C14*%
X130370948Y-73712400D02*
X130893452Y-73712400D01*
X130370948Y-75182400D02*
X130893452Y-75182400D01*
%TO.C,U1*%
X111480600Y-107663800D02*
X107880600Y-107663800D01*
X111480600Y-107663800D02*
X113680600Y-107663800D01*
X111480600Y-114433800D02*
X109280600Y-114433800D01*
X111480600Y-114433800D02*
X113680600Y-114433800D01*
%TO.C,D2*%
X106706400Y-82177600D02*
X106706400Y-76777600D01*
X106706400Y-82177600D02*
X110006400Y-82177600D01*
X110006400Y-82177600D02*
X110006400Y-76777600D01*
%TO.C,R3*%
X120014276Y-93711500D02*
X120523724Y-93711500D01*
X120014276Y-94756500D02*
X120523724Y-94756500D01*
%TO.C,R15*%
X135919721Y-111380000D02*
X135584479Y-111380000D01*
X135919721Y-112140000D02*
X135584479Y-112140000D01*
%TO.C,D4*%
X172543800Y-98601600D02*
X172543800Y-101061600D01*
X172543800Y-101061600D02*
X174013800Y-101061600D01*
X174013800Y-101061600D02*
X174013800Y-98601600D01*
%TO.C,C16*%
X164263400Y-116070748D02*
X164263400Y-116593252D01*
X165733400Y-116070748D02*
X165733400Y-116593252D01*
%TO.C,R11*%
X163393658Y-74661500D02*
X162919142Y-74661500D01*
X163393658Y-75706500D02*
X162919142Y-75706500D01*
%TO.C,R56*%
X110733624Y-97521500D02*
X110224176Y-97521500D01*
X110733624Y-98566500D02*
X110224176Y-98566500D01*
%TO.C,D3*%
X106241037Y-122290489D02*
X102422660Y-118472113D01*
X106241037Y-122290489D02*
X108574489Y-119957037D01*
X108574489Y-119957037D02*
X104756113Y-116138660D01*
%TO.C,R7*%
X120063176Y-83856300D02*
X120572624Y-83856300D01*
X120063176Y-84901300D02*
X120572624Y-84901300D01*
%TO.C,R30*%
X172873400Y-96197379D02*
X172873400Y-96532621D01*
X173633400Y-96197379D02*
X173633400Y-96532621D01*
%TO.C,RP1*%
X141855400Y-80206200D02*
X141855400Y-79786200D01*
X141855400Y-82746200D02*
X141855400Y-82326200D01*
X141855400Y-85286200D02*
X141855400Y-84866200D01*
X141855400Y-87826200D02*
X141855400Y-87406200D01*
X141855400Y-90366200D02*
X141855400Y-89946200D01*
X141855400Y-92906200D02*
X141855400Y-92486200D01*
X141855400Y-95446200D02*
X141855400Y-95026200D01*
X141855400Y-97986200D02*
X141855400Y-97566200D01*
X141855400Y-100526200D02*
X141855400Y-100106200D01*
X141855400Y-103066200D02*
X141855400Y-102646200D01*
X141855400Y-105606200D02*
X141855400Y-105186200D01*
X141855400Y-108146200D02*
X141855400Y-107726200D01*
X141855400Y-110686200D02*
X141855400Y-110266200D01*
X141855400Y-113226200D02*
X141855400Y-112806200D01*
X141855400Y-115766200D02*
X141855400Y-115346200D01*
X141855400Y-118306200D02*
X141855400Y-117886200D01*
X141855400Y-120846200D02*
X141855400Y-120426200D01*
X141855400Y-123386200D02*
X141855400Y-122966200D01*
X141855400Y-125926200D02*
X141855400Y-125506200D01*
X142415400Y-128416200D02*
X148605400Y-128416200D01*
X148315400Y-129546200D02*
X148605400Y-129046200D01*
X148605400Y-129046200D02*
X148605400Y-128416200D01*
X148645400Y-129736200D02*
X148315400Y-129546200D01*
X148815400Y-77296200D02*
X142415400Y-77296200D01*
X149925400Y-108646200D02*
X149925400Y-111946200D01*
X151355400Y-77296200D02*
X150935400Y-77296200D01*
X152425400Y-114346200D02*
X149525400Y-111646200D01*
X153895400Y-77296200D02*
X153475400Y-77296200D01*
X154925400Y-108646200D02*
X154925400Y-111946200D01*
X155325400Y-111646200D02*
X152425400Y-114346200D01*
X156185400Y-129736200D02*
X148645400Y-129736200D01*
X156225400Y-128416200D02*
X156225400Y-129046200D01*
X156225400Y-128416200D02*
X162415400Y-128416200D01*
X156225400Y-129046200D02*
X156515400Y-129546200D01*
X156515400Y-129546200D02*
X156185400Y-129736200D01*
X162415400Y-77296200D02*
X156015400Y-77296200D01*
X162415400Y-128416200D02*
X156225400Y-128416200D01*
X162975400Y-80206200D02*
X162975400Y-79786200D01*
X162975400Y-82746200D02*
X162975400Y-82326200D01*
X162975400Y-85286200D02*
X162975400Y-84866200D01*
X162975400Y-87826200D02*
X162975400Y-87406200D01*
X162975400Y-90366200D02*
X162975400Y-89946200D01*
X162975400Y-92906200D02*
X162975400Y-92486200D01*
X162975400Y-95446200D02*
X162975400Y-95026200D01*
X162975400Y-97986200D02*
X162975400Y-97566200D01*
X162975400Y-100526200D02*
X162975400Y-100106200D01*
X162975400Y-103066200D02*
X162975400Y-102646200D01*
X162975400Y-105606200D02*
X162975400Y-105186200D01*
X162975400Y-108146200D02*
X162975400Y-107726200D01*
X162975400Y-110686200D02*
X162975400Y-110266200D01*
X162975400Y-113226200D02*
X162975400Y-112806200D01*
X162975400Y-115766200D02*
X162975400Y-115346200D01*
X162975400Y-118306200D02*
X162975400Y-117886200D01*
X162975400Y-120846200D02*
X162975400Y-120426200D01*
X162975400Y-123386200D02*
X162975400Y-122966200D01*
X162975400Y-125926200D02*
X162975400Y-125506200D01*
X141885400Y-77666200D02*
G75*
G02*
X142415400Y-77296255I528200J-192100D01*
G01*
X142415400Y-128416200D02*
G75*
G02*
X141885437Y-128046187I-1700J562100D01*
G01*
X162415400Y-77296200D02*
G75*
G02*
X162945400Y-77666200I1773J-562055D01*
G01*
X162945400Y-128046200D02*
G75*
G02*
X162415400Y-128416200I-528229J192058D01*
G01*
D13*
%TO.C,G\u002A\u002A\u002A*%
G36*
X149636023Y-73917838D02*
G01*
X149665521Y-73926031D01*
X149704142Y-73947040D01*
X149740471Y-73979066D01*
X149771547Y-74019142D01*
X149787776Y-74048635D01*
X149796064Y-74067417D01*
X149801623Y-74083996D01*
X149804993Y-74101933D01*
X149806712Y-74124793D01*
X149807319Y-74156139D01*
X149807376Y-74178155D01*
X149807201Y-74215128D01*
X149806262Y-74241764D01*
X149803942Y-74261727D01*
X149799619Y-74278679D01*
X149792676Y-74296287D01*
X149784371Y-74314250D01*
X149753878Y-74365031D01*
X149716166Y-74403818D01*
X149671213Y-74430623D01*
X149619001Y-74445462D01*
X149594630Y-74448147D01*
X149543743Y-74446677D01*
X149513697Y-74440043D01*
X149463317Y-74417547D01*
X149421945Y-74384892D01*
X149389014Y-74341490D01*
X149363960Y-74286751D01*
X149362524Y-74282591D01*
X149355376Y-74259033D01*
X149351166Y-74237106D01*
X149349429Y-74212262D01*
X149349700Y-74179949D01*
X149350303Y-74162992D01*
X149352145Y-74127557D01*
X149354946Y-74101692D01*
X149359646Y-74080964D01*
X149367182Y-74060941D01*
X149375771Y-74042679D01*
X149401763Y-74000915D01*
X149434798Y-73964632D01*
X149471699Y-73936871D01*
X149500615Y-73923259D01*
X149542343Y-73914330D01*
X149589619Y-73912560D01*
X149636023Y-73917838D01*
G37*
G36*
X154323070Y-74825019D02*
G01*
X154353216Y-74832950D01*
X154372233Y-74845515D01*
X154375743Y-74850537D01*
X154382245Y-74873647D01*
X154381151Y-74899436D01*
X154373082Y-74921488D01*
X154368315Y-74927552D01*
X154359048Y-74938026D01*
X154358386Y-74946453D01*
X154366107Y-74959272D01*
X154367168Y-74960807D01*
X154380448Y-74980547D01*
X154385631Y-74991460D01*
X154382690Y-74996161D01*
X154371599Y-74997264D01*
X154366803Y-74997284D01*
X154349889Y-74995209D01*
X154339083Y-74986416D01*
X154331498Y-74972780D01*
X154321345Y-74956064D01*
X154309324Y-74949215D01*
X154298169Y-74948276D01*
X154283472Y-74949525D01*
X154278303Y-74956171D01*
X154278802Y-74971030D01*
X154278955Y-74986893D01*
X154272888Y-74993799D01*
X154261827Y-74995999D01*
X154242574Y-74998214D01*
X154242574Y-74914120D01*
X154276684Y-74914120D01*
X154306173Y-74911945D01*
X154330229Y-74907019D01*
X154343341Y-74897518D01*
X154347532Y-74881407D01*
X154339542Y-74868888D01*
X154321077Y-74861753D01*
X154308322Y-74860763D01*
X154290628Y-74861629D01*
X154282496Y-74866910D01*
X154279487Y-74880624D01*
X154278882Y-74887441D01*
X154276684Y-74914120D01*
X154242574Y-74914120D01*
X154242574Y-74822257D01*
X154283536Y-74822257D01*
X154323070Y-74825019D01*
G37*
G36*
X154344692Y-74742257D02*
G01*
X154386099Y-74755973D01*
X154423605Y-74780031D01*
X154455058Y-74814369D01*
X154470216Y-74840060D01*
X154480468Y-74872602D01*
X154484279Y-74911404D01*
X154481705Y-74950790D01*
X154472798Y-74985085D01*
X154468765Y-74993784D01*
X154440262Y-75033974D01*
X154403837Y-75064779D01*
X154361844Y-75085232D01*
X154316636Y-75094363D01*
X154270567Y-75091205D01*
X154247849Y-75084680D01*
X154205444Y-75062095D01*
X154171250Y-75028334D01*
X154154486Y-75002565D01*
X154142794Y-74978715D01*
X154136592Y-74956886D01*
X154134683Y-74934754D01*
X154173700Y-74934754D01*
X154183817Y-74971776D01*
X154197912Y-74995426D01*
X154230075Y-75025938D01*
X154267637Y-75045027D01*
X154308128Y-75052036D01*
X154349075Y-75046303D01*
X154365383Y-75040133D01*
X154399002Y-75018047D01*
X154424056Y-74987866D01*
X154439788Y-74952401D01*
X154445440Y-74914462D01*
X154440255Y-74876861D01*
X154423473Y-74842408D01*
X154419947Y-74837733D01*
X154387697Y-74806989D01*
X154351036Y-74788238D01*
X154312262Y-74781263D01*
X154273670Y-74785842D01*
X154237560Y-74801756D01*
X154206227Y-74828785D01*
X154185129Y-74860213D01*
X154173985Y-74895961D01*
X154173700Y-74934754D01*
X154134683Y-74934754D01*
X154134314Y-74930474D01*
X154134152Y-74916772D01*
X154135271Y-74886567D01*
X154139673Y-74863656D01*
X154148923Y-74841434D01*
X154154486Y-74830978D01*
X154183108Y-74792054D01*
X154218591Y-74763782D01*
X154258785Y-74746099D01*
X154301536Y-74738945D01*
X154344692Y-74742257D01*
G37*
G36*
X150482164Y-73233718D02*
G01*
X150622363Y-73233771D01*
X150774170Y-73233857D01*
X150938065Y-73233974D01*
X151114531Y-73234118D01*
X151304048Y-73234289D01*
X151501642Y-73234479D01*
X153566968Y-73236507D01*
X153649852Y-73258937D01*
X153720296Y-73281601D01*
X153793956Y-73311676D01*
X153865596Y-73346754D01*
X153929982Y-73384426D01*
X153946388Y-73395380D01*
X154031278Y-73462086D01*
X154108533Y-73539113D01*
X154176919Y-73624704D01*
X154235202Y-73717104D01*
X154282147Y-73814556D01*
X154316521Y-73915305D01*
X154319380Y-73926115D01*
X154332154Y-73981162D01*
X154340760Y-74032551D01*
X154345805Y-74085460D01*
X154347896Y-74145065D01*
X154348042Y-74170566D01*
X154341446Y-74285592D01*
X154321773Y-74395610D01*
X154289041Y-74500583D01*
X154243264Y-74600474D01*
X154184457Y-74695245D01*
X154112635Y-74784859D01*
X154088130Y-74811172D01*
X154003105Y-74890304D01*
X153912708Y-74956568D01*
X153816492Y-75010182D01*
X153714016Y-75051364D01*
X153604834Y-75080332D01*
X153510959Y-75095017D01*
X153497744Y-75095957D01*
X153475410Y-75096816D01*
X153443655Y-75097597D01*
X153402177Y-75098301D01*
X153350674Y-75098928D01*
X153288846Y-75099480D01*
X153216389Y-75099958D01*
X153133003Y-75100362D01*
X153038387Y-75100694D01*
X152932238Y-75100955D01*
X152814255Y-75101145D01*
X152684136Y-75101267D01*
X152541579Y-75101320D01*
X152386284Y-75101306D01*
X152217948Y-75101225D01*
X152036270Y-75101080D01*
X151840949Y-75100870D01*
X151802690Y-75100824D01*
X150164432Y-75098800D01*
X150164432Y-73642571D01*
X150225100Y-73642571D01*
X150413604Y-74160652D01*
X150443363Y-74242406D01*
X150471847Y-74320584D01*
X150498677Y-74394154D01*
X150523476Y-74462083D01*
X150545864Y-74523335D01*
X150565465Y-74576879D01*
X150581899Y-74621681D01*
X150594790Y-74656707D01*
X150603758Y-74680923D01*
X150608426Y-74693297D01*
X150608905Y-74694486D01*
X150611286Y-74699353D01*
X150614825Y-74703098D01*
X150621209Y-74705867D01*
X150632124Y-74707808D01*
X150649257Y-74709068D01*
X150674294Y-74709794D01*
X150708922Y-74710133D01*
X150754827Y-74710233D01*
X150789448Y-74710239D01*
X150963192Y-74710239D01*
X152163247Y-74710239D01*
X152513302Y-74710239D01*
X152513302Y-73639070D01*
X152583313Y-73639070D01*
X152583313Y-74710239D01*
X152933368Y-74710239D01*
X152933368Y-74150778D01*
X153005312Y-74150778D01*
X153006465Y-74242314D01*
X153017626Y-74324865D01*
X153039230Y-74399665D01*
X153071712Y-74467946D01*
X153115506Y-74530942D01*
X153154467Y-74573899D01*
X153215060Y-74624692D01*
X153284509Y-74665392D01*
X153361475Y-74695504D01*
X153444621Y-74714538D01*
X153532611Y-74721999D01*
X153556466Y-74721977D01*
X153622976Y-74720741D01*
X153624869Y-74579831D01*
X153626761Y-74438922D01*
X153564871Y-74435963D01*
X153516870Y-74430536D01*
X153478213Y-74418393D01*
X153445242Y-74398010D01*
X153422197Y-74376561D01*
X153392102Y-74335033D01*
X153370611Y-74285036D01*
X153358021Y-74229373D01*
X153354626Y-74170845D01*
X153360722Y-74112253D01*
X153376604Y-74056399D01*
X153386164Y-74034633D01*
X153415757Y-73987881D01*
X153452722Y-73953027D01*
X153497152Y-73930014D01*
X153549140Y-73918783D01*
X153575464Y-73917559D01*
X153626756Y-73917559D01*
X153622976Y-73628569D01*
X153573969Y-73626427D01*
X153501950Y-73628251D01*
X153427257Y-73639099D01*
X153354201Y-73657951D01*
X153287090Y-73683787D01*
X153250089Y-73703024D01*
X153208650Y-73732063D01*
X153165777Y-73770275D01*
X153125138Y-73813788D01*
X153090397Y-73858734D01*
X153068434Y-73894802D01*
X153044339Y-73945766D01*
X153026987Y-73994202D01*
X153015316Y-74044429D01*
X153008260Y-74100762D01*
X153005312Y-74150778D01*
X152933368Y-74150778D01*
X152933368Y-73639070D01*
X152583313Y-73639070D01*
X152513302Y-73639070D01*
X152163247Y-73639070D01*
X152163247Y-74710239D01*
X150963192Y-74710239D01*
X151063601Y-74386438D01*
X151083699Y-74321821D01*
X151102645Y-74261285D01*
X151120019Y-74206146D01*
X151135401Y-74157720D01*
X151148370Y-74117324D01*
X151158506Y-74086272D01*
X151165390Y-74065881D01*
X151168600Y-74057466D01*
X151168675Y-74057361D01*
X151171582Y-74062785D01*
X151178143Y-74080356D01*
X151187947Y-74108820D01*
X151200585Y-74146927D01*
X151215649Y-74193421D01*
X151232728Y-74247051D01*
X151251412Y-74306564D01*
X151271293Y-74370707D01*
X151274482Y-74381068D01*
X151375623Y-74710051D01*
X151550650Y-74710130D01*
X151725678Y-74710208D01*
X151918208Y-74184273D01*
X151948267Y-74102119D01*
X151976942Y-74023664D01*
X152003867Y-73949917D01*
X152028676Y-73881885D01*
X152051000Y-73820578D01*
X152070475Y-73767002D01*
X152086732Y-73722165D01*
X152099406Y-73687077D01*
X152108131Y-73662744D01*
X152112538Y-73650174D01*
X152113002Y-73648704D01*
X152111646Y-73645634D01*
X152104979Y-73643268D01*
X152091538Y-73641523D01*
X152069857Y-73640314D01*
X152038473Y-73639558D01*
X151995921Y-73639172D01*
X151944774Y-73639070D01*
X151774283Y-73639070D01*
X151670003Y-73994376D01*
X151650013Y-74062294D01*
X151631103Y-74126163D01*
X151613655Y-74184721D01*
X151598052Y-74236703D01*
X151584676Y-74280846D01*
X151573907Y-74315884D01*
X151566129Y-74340556D01*
X151561722Y-74353595D01*
X151560956Y-74355315D01*
X151557257Y-74351339D01*
X151550798Y-74336297D01*
X151542514Y-74312628D01*
X151534080Y-74285303D01*
X151527226Y-74261854D01*
X151517005Y-74226888D01*
X151503980Y-74182327D01*
X151488712Y-74130096D01*
X151471764Y-74072117D01*
X151453697Y-74010313D01*
X151435075Y-73946606D01*
X151429085Y-73926115D01*
X151346198Y-73642571D01*
X151177439Y-73640697D01*
X151008681Y-73638823D01*
X150998828Y-73672202D01*
X150994914Y-73685612D01*
X150987548Y-73710987D01*
X150977162Y-73746842D01*
X150964186Y-73791687D01*
X150949051Y-73844035D01*
X150932185Y-73902400D01*
X150914020Y-73965292D01*
X150896023Y-74027631D01*
X150877306Y-74092258D01*
X150859655Y-74152774D01*
X150843467Y-74207850D01*
X150829139Y-74256152D01*
X150817070Y-74296349D01*
X150807655Y-74327111D01*
X150801293Y-74347104D01*
X150798380Y-74354998D01*
X150798358Y-74355026D01*
X150795546Y-74349550D01*
X150789209Y-74331845D01*
X150779725Y-74303125D01*
X150767475Y-74264609D01*
X150752839Y-74217511D01*
X150736197Y-74163048D01*
X150717929Y-74102437D01*
X150698415Y-74036894D01*
X150689528Y-74006792D01*
X150669521Y-73938994D01*
X150650611Y-73875196D01*
X150633181Y-73816670D01*
X150617614Y-73764690D01*
X150604294Y-73720530D01*
X150593605Y-73685465D01*
X150585928Y-73660767D01*
X150581649Y-73647711D01*
X150580965Y-73646019D01*
X150572307Y-73643568D01*
X150550005Y-73641797D01*
X150514403Y-73640714D01*
X150465845Y-73640331D01*
X150404672Y-73640657D01*
X150400809Y-73640698D01*
X150225100Y-73642571D01*
X150164432Y-73642571D01*
X150164432Y-73639070D01*
X149810876Y-73639070D01*
X149810876Y-73773332D01*
X149765448Y-73731705D01*
X149706296Y-73686724D01*
X149640658Y-73654040D01*
X149569047Y-73633823D01*
X149491976Y-73626243D01*
X149450455Y-73627316D01*
X149366588Y-73639141D01*
X149289852Y-73662884D01*
X149220722Y-73698145D01*
X149159671Y-73744524D01*
X149107171Y-73801622D01*
X149063696Y-73869039D01*
X149029718Y-73946376D01*
X149014580Y-73995504D01*
X149007396Y-74024446D01*
X149002416Y-74050316D01*
X148999255Y-74076914D01*
X148997528Y-74108037D01*
X148996851Y-74147484D01*
X148996785Y-74171154D01*
X148997082Y-74216001D01*
X148998232Y-74250670D01*
X149000626Y-74278974D01*
X149004651Y-74304730D01*
X149010699Y-74331752D01*
X149014820Y-74347749D01*
X149039191Y-74422590D01*
X149070625Y-74487536D01*
X149110823Y-74545625D01*
X149149041Y-74587819D01*
X149194790Y-74629385D01*
X149240079Y-74661038D01*
X149289866Y-74685776D01*
X149341802Y-74704352D01*
X149380704Y-74713288D01*
X149427560Y-74719111D01*
X149478295Y-74721773D01*
X149528837Y-74721226D01*
X149575109Y-74717422D01*
X149613039Y-74710313D01*
X149621846Y-74707644D01*
X149689764Y-74677528D01*
X149749487Y-74636342D01*
X149773215Y-74614575D01*
X149810876Y-74576914D01*
X149810876Y-75102301D01*
X149637599Y-75101124D01*
X149588050Y-75100693D01*
X149541693Y-75100114D01*
X149500840Y-75099429D01*
X149467803Y-75098681D01*
X149444895Y-75097912D01*
X149436317Y-75097403D01*
X149327320Y-75080639D01*
X149222086Y-75050996D01*
X149121590Y-75009316D01*
X149026808Y-74956442D01*
X148938716Y-74893217D01*
X148858291Y-74820484D01*
X148786509Y-74739085D01*
X148724346Y-74649864D01*
X148672777Y-74553664D01*
X148632779Y-74451326D01*
X148614949Y-74388188D01*
X148595064Y-74277728D01*
X148588521Y-74166426D01*
X148595045Y-74055642D01*
X148614362Y-73946736D01*
X148646199Y-73841069D01*
X148690282Y-73740000D01*
X148746337Y-73644891D01*
X148771739Y-73609234D01*
X148808389Y-73564469D01*
X148852305Y-73517289D01*
X148900006Y-73471026D01*
X148948009Y-73429016D01*
X148992834Y-73394591D01*
X149003503Y-73387317D01*
X149099817Y-73331605D01*
X149201995Y-73287417D01*
X149307588Y-73255723D01*
X149366640Y-73243899D01*
X149374300Y-73242777D01*
X149383456Y-73241731D01*
X149394591Y-73240761D01*
X149408185Y-73239864D01*
X149424721Y-73239037D01*
X149444679Y-73238280D01*
X149468542Y-73237589D01*
X149496790Y-73236962D01*
X149529905Y-73236398D01*
X149568368Y-73235894D01*
X149612662Y-73235448D01*
X149663267Y-73235058D01*
X149720665Y-73234722D01*
X149785337Y-73234438D01*
X149857764Y-73234203D01*
X149938430Y-73234016D01*
X150027813Y-73233874D01*
X150126397Y-73233776D01*
X150234663Y-73233718D01*
X150353091Y-73233700D01*
X150482164Y-73233718D01*
G37*
D12*
%TO.C,R8*%
X120065076Y-85532700D02*
X120574524Y-85532700D01*
X120065076Y-86577700D02*
X120574524Y-86577700D01*
%TO.C,R2*%
X119912676Y-95387900D02*
X120422124Y-95387900D01*
X119912676Y-96432900D02*
X120422124Y-96432900D01*
D14*
%TO.C,J3*%
X169597200Y-73174600D02*
X171872200Y-73174600D01*
X169597200Y-73974600D02*
X169597200Y-73174600D01*
X169597200Y-78374600D02*
X169597200Y-79174600D01*
X169597200Y-79174600D02*
X171872200Y-79174600D01*
X173847200Y-77974600D02*
X173847200Y-74374600D01*
D15*
X168987200Y-78624600D02*
G75*
G02*
X168787200Y-78624600I-100000J0D01*
G01*
X168787200Y-78624600D02*
G75*
G02*
X168987200Y-78624600I100000J0D01*
G01*
D12*
%TO.C,R12*%
X135918521Y-107392200D02*
X135583279Y-107392200D01*
X135918521Y-108152200D02*
X135583279Y-108152200D01*
%TO.C,JP1*%
X172228000Y-107820000D02*
X174228000Y-107820000D01*
X172228000Y-110620000D02*
X172228000Y-107820000D01*
X174228000Y-107820000D02*
X174228000Y-110620000D01*
X174228000Y-110620000D02*
X172228000Y-110620000D01*
%TO.C,R19*%
X135969321Y-121844800D02*
X135634079Y-121844800D01*
X135969321Y-122604800D02*
X135634079Y-122604800D01*
%TO.C,C10*%
X130265448Y-125071200D02*
X130787952Y-125071200D01*
X130265448Y-126541200D02*
X130787952Y-126541200D01*
%TO.C,R21*%
X130310658Y-92416100D02*
X129836142Y-92416100D01*
X130310658Y-93461100D02*
X129836142Y-93461100D01*
%TO.C,C9*%
X135389252Y-94362600D02*
X134866748Y-94362600D01*
X135389252Y-95832600D02*
X134866748Y-95832600D01*
%TO.C,U8*%
X168249600Y-94523400D02*
X166299600Y-94523400D01*
X168249600Y-94523400D02*
X170199600Y-94523400D01*
X168249600Y-103393400D02*
X166299600Y-103393400D01*
X168249600Y-103393400D02*
X171699600Y-103393400D01*
%TO.C,R10*%
X120014276Y-88834700D02*
X120523724Y-88834700D01*
X120014276Y-89879700D02*
X120523724Y-89879700D01*
%TO.C,Q2*%
X112877600Y-114924400D02*
X111202600Y-114924400D01*
X112877600Y-114924400D02*
X113527600Y-114924400D01*
X112877600Y-118044400D02*
X112227600Y-118044400D01*
X112877600Y-118044400D02*
X113527600Y-118044400D01*
%TO.C,R34*%
X117675576Y-108926100D02*
X118185024Y-108926100D01*
X117675576Y-109971100D02*
X118185024Y-109971100D01*
%TO.C,R41*%
X114121024Y-106132100D02*
X113611576Y-106132100D01*
X114121024Y-107177100D02*
X113611576Y-107177100D01*
%TO.C,U7*%
X128803400Y-86747200D02*
X125203400Y-86747200D01*
X128803400Y-86747200D02*
X131003400Y-86747200D01*
X128803400Y-91967200D02*
X126603400Y-91967200D01*
X128803400Y-91967200D02*
X131003400Y-91967200D01*
%TO.C,R37*%
X117700976Y-118654300D02*
X118210424Y-118654300D01*
X117700976Y-119699300D02*
X118210424Y-119699300D01*
%TO.C,F2*%
X113392852Y-73140000D02*
X112870348Y-73140000D01*
X113392852Y-74560000D02*
X112870348Y-74560000D01*
%TO.C,R23*%
X133462500Y-98093624D02*
X133462500Y-97584176D01*
X134507500Y-98093624D02*
X134507500Y-97584176D01*
%TO.C,R25*%
X133956976Y-114590300D02*
X134466424Y-114590300D01*
X133956976Y-115635300D02*
X134466424Y-115635300D01*
%TO.C,U5*%
X128760300Y-95429400D02*
X125160300Y-95429400D01*
X128760300Y-95429400D02*
X130960300Y-95429400D01*
X128760300Y-100649400D02*
X126560300Y-100649400D01*
X128760300Y-100649400D02*
X130960300Y-100649400D01*
%TO.C,R14*%
X135919721Y-110084600D02*
X135584479Y-110084600D01*
X135919721Y-110844600D02*
X135584479Y-110844600D01*
%TO.C,U9*%
X130530600Y-107308200D02*
X128330600Y-107308200D01*
X130530600Y-107308200D02*
X132730600Y-107308200D01*
X130530600Y-114078200D02*
X128330600Y-114078200D01*
X130530600Y-114078200D02*
X134130600Y-114078200D01*
%TO.C,U6*%
X128676400Y-75698200D02*
X125076400Y-75698200D01*
X128676400Y-75698200D02*
X130876400Y-75698200D01*
X128676400Y-80918200D02*
X126476400Y-80918200D01*
X128676400Y-80918200D02*
X130876400Y-80918200D01*
%TO.C,J2*%
X103967627Y-96776800D02*
G75*
G02*
X102178773Y-96776800I-894427J0D01*
G01*
X102178773Y-96776800D02*
G75*
G02*
X103967627Y-96776800I894427J0D01*
G01*
%TO.C,R6*%
X120063176Y-82179900D02*
X120572624Y-82179900D01*
X120063176Y-83224900D02*
X120572624Y-83224900D01*
%TO.C,C11*%
X126829452Y-114530200D02*
X126306948Y-114530200D01*
X126829452Y-116000200D02*
X126306948Y-116000200D01*
%TO.C,C13*%
X134902752Y-85904400D02*
X134380248Y-85904400D01*
X134902752Y-87374400D02*
X134380248Y-87374400D01*
%TO.C,R29*%
X126770676Y-82205300D02*
X127280124Y-82205300D01*
X126770676Y-83250300D02*
X127280124Y-83250300D01*
%TO.C,R28*%
X123531100Y-85622224D02*
X123531100Y-85112776D01*
X124576100Y-85622224D02*
X124576100Y-85112776D01*
%TD*%
M02*
