%TF.GenerationSoftware,KiCad,Pcbnew,8.0.4-8.0.4-0~ubuntu22.04.1*%
%TF.CreationDate,2024-07-18T13:03:20-06:00*%
%TF.ProjectId,DB25_External,44423235-5f45-4787-9465-726e616c2e6b,rev?*%
%TF.SameCoordinates,Original*%
%TF.FileFunction,Soldermask,Top*%
%TF.FilePolarity,Negative*%
%FSLAX46Y46*%
G04 Gerber Fmt 4.6, Leading zero omitted, Abs format (unit mm)*
G04 Created by KiCad (PCBNEW 8.0.4-8.0.4-0~ubuntu22.04.1) date 2024-07-18 13:03:20*
%MOMM*%
%LPD*%
G01*
G04 APERTURE LIST*
G04 Aperture macros list*
%AMRoundRect*
0 Rectangle with rounded corners*
0 $1 Rounding radius*
0 $2 $3 $4 $5 $6 $7 $8 $9 X,Y pos of 4 corners*
0 Add a 4 corners polygon primitive as box body*
4,1,4,$2,$3,$4,$5,$6,$7,$8,$9,$2,$3,0*
0 Add four circle primitives for the rounded corners*
1,1,$1+$1,$2,$3*
1,1,$1+$1,$4,$5*
1,1,$1+$1,$6,$7*
1,1,$1+$1,$8,$9*
0 Add four rect primitives between the rounded corners*
20,1,$1+$1,$2,$3,$4,$5,0*
20,1,$1+$1,$4,$5,$6,$7,0*
20,1,$1+$1,$6,$7,$8,$9,0*
20,1,$1+$1,$8,$9,$2,$3,0*%
G04 Aperture macros list end*
%ADD10RoundRect,0.250001X0.462499X0.624999X-0.462499X0.624999X-0.462499X-0.624999X0.462499X-0.624999X0*%
%ADD11R,1.500000X2.000000*%
%ADD12R,3.800000X2.000000*%
%ADD13RoundRect,0.412500X0.412500X0.412500X-0.412500X0.412500X-0.412500X-0.412500X0.412500X-0.412500X0*%
%ADD14C,1.650000*%
%ADD15RoundRect,0.250000X0.325000X0.450000X-0.325000X0.450000X-0.325000X-0.450000X0.325000X-0.450000X0*%
%ADD16RoundRect,0.250000X0.450000X-0.325000X0.450000X0.325000X-0.450000X0.325000X-0.450000X-0.325000X0*%
%ADD17R,1.800000X2.500000*%
%ADD18RoundRect,0.237500X0.250000X0.237500X-0.250000X0.237500X-0.250000X-0.237500X0.250000X-0.237500X0*%
%ADD19RoundRect,0.237500X-0.250000X-0.237500X0.250000X-0.237500X0.250000X0.237500X-0.250000X0.237500X0*%
%ADD20RoundRect,0.237500X-0.237500X0.287500X-0.237500X-0.287500X0.237500X-0.287500X0.237500X0.287500X0*%
%ADD21RoundRect,0.250000X0.337500X0.475000X-0.337500X0.475000X-0.337500X-0.475000X0.337500X-0.475000X0*%
%ADD22RoundRect,0.237500X0.237500X-0.287500X0.237500X0.287500X-0.237500X0.287500X-0.237500X-0.287500X0*%
%ADD23RoundRect,0.100000X0.637500X0.100000X-0.637500X0.100000X-0.637500X-0.100000X0.637500X-0.100000X0*%
%ADD24RoundRect,0.250000X-0.337500X-0.475000X0.337500X-0.475000X0.337500X0.475000X-0.337500X0.475000X0*%
%ADD25RoundRect,0.125000X-0.125000X-0.415000X0.125000X-0.415000X0.125000X0.415000X-0.125000X0.415000X0*%
%ADD26RoundRect,0.262500X-0.262500X-0.337500X0.262500X-0.337500X0.262500X0.337500X-0.262500X0.337500X0*%
%ADD27RoundRect,0.150000X0.150000X-0.825000X0.150000X0.825000X-0.150000X0.825000X-0.150000X-0.825000X0*%
%ADD28RoundRect,0.237500X0.300000X0.237500X-0.300000X0.237500X-0.300000X-0.237500X0.300000X-0.237500X0*%
%ADD29RoundRect,0.100000X-0.637500X-0.100000X0.637500X-0.100000X0.637500X0.100000X-0.637500X0.100000X0*%
%ADD30RoundRect,0.250000X-0.450000X0.325000X-0.450000X-0.325000X0.450000X-0.325000X0.450000X0.325000X0*%
%ADD31C,4.000000*%
%ADD32R,1.600000X1.600000*%
%ADD33C,1.600000*%
%ADD34RoundRect,0.237500X0.237500X-0.300000X0.237500X0.300000X-0.237500X0.300000X-0.237500X-0.300000X0*%
%ADD35RoundRect,0.237500X0.237500X-0.250000X0.237500X0.250000X-0.237500X0.250000X-0.237500X-0.250000X0*%
%ADD36RoundRect,0.237500X-0.237500X0.250000X-0.237500X-0.250000X0.237500X-0.250000X0.237500X0.250000X0*%
G04 APERTURE END LIST*
D10*
%TO.C,C3*%
X113357500Y-95990000D03*
X110382500Y-95990000D03*
%TD*%
%TO.C,C4*%
X114688400Y-109042200D03*
X111713400Y-109042200D03*
%TD*%
D11*
%TO.C,U3*%
X119622600Y-98247200D03*
X117322600Y-98247200D03*
D12*
X117322600Y-104547200D03*
D11*
X115022600Y-98247200D03*
%TD*%
D13*
%TO.C,RP1*%
X147196660Y-124104400D03*
D14*
X147196660Y-121564400D03*
X147196660Y-119024400D03*
X147196660Y-116484400D03*
X147196660Y-113944400D03*
X147196660Y-111404400D03*
X147196660Y-108864400D03*
X147196660Y-106324400D03*
X147196660Y-103784400D03*
X147196660Y-101244400D03*
X147196660Y-98704400D03*
X147196660Y-96164400D03*
X147196660Y-93624400D03*
X147196660Y-91084400D03*
X147196660Y-88544400D03*
X147196660Y-86004400D03*
X147196660Y-83464400D03*
X147196660Y-80924400D03*
X147196660Y-78384400D03*
X147196660Y-75844400D03*
X129416660Y-75844400D03*
X129416660Y-78384400D03*
X129416660Y-80924400D03*
X129416660Y-83464400D03*
X129416660Y-86004400D03*
X129416660Y-88544400D03*
X129416660Y-91084400D03*
X129416660Y-93624400D03*
X129416660Y-96164400D03*
X129416660Y-98704400D03*
X129416660Y-101244400D03*
X129416660Y-103784400D03*
X129416660Y-106324400D03*
X129416660Y-108864400D03*
X129416660Y-111404400D03*
X129416660Y-113944400D03*
X129416660Y-116484400D03*
X129416660Y-119024400D03*
X129416660Y-121564400D03*
X129416660Y-124104400D03*
%TD*%
D15*
%TO.C,C2*%
X112801400Y-98247200D03*
X110751400Y-98247200D03*
%TD*%
%TO.C,C5*%
X114588400Y-106857800D03*
X112538400Y-106857800D03*
%TD*%
D16*
%TO.C,C6*%
X111709200Y-113327400D03*
X111709200Y-111277400D03*
%TD*%
D15*
%TO.C,C12*%
X137352760Y-90533600D03*
X135302760Y-90533600D03*
%TD*%
D17*
%TO.C,D1*%
X111760000Y-119951000D03*
X111760000Y-115951000D03*
%TD*%
D18*
%TO.C,R18*%
X144222500Y-113320000D03*
X142397500Y-113320000D03*
%TD*%
D19*
%TO.C,R39*%
X114405400Y-119748800D03*
X116230400Y-119748800D03*
%TD*%
%TO.C,R4*%
X110843700Y-82270600D03*
X112668700Y-82270600D03*
%TD*%
%TO.C,R33*%
X114405400Y-114821200D03*
X116230400Y-114821200D03*
%TD*%
%TO.C,R36*%
X114405400Y-124600200D03*
X116230400Y-124600200D03*
%TD*%
D18*
%TO.C,R56*%
X112623600Y-101295200D03*
X110798600Y-101295200D03*
%TD*%
D20*
%TO.C,D2*%
X132310000Y-75180000D03*
X132310000Y-76930000D03*
%TD*%
D19*
%TO.C,R5*%
X110843700Y-85598000D03*
X112668700Y-85598000D03*
%TD*%
%TO.C,R35*%
X114405400Y-111570000D03*
X116230400Y-111570000D03*
%TD*%
%TO.C,R1*%
X114405400Y-116497600D03*
X116230400Y-116497600D03*
%TD*%
D21*
%TO.C,C8*%
X134640000Y-123840000D03*
X132565000Y-123840000D03*
%TD*%
D19*
%TO.C,R38*%
X114405400Y-121323600D03*
X116230400Y-121323600D03*
%TD*%
%TO.C,R9*%
X110820200Y-79044800D03*
X112645200Y-79044800D03*
%TD*%
D22*
%TO.C,D3*%
X110794800Y-104634000D03*
X110794800Y-102884000D03*
%TD*%
D19*
%TO.C,R40*%
X114405400Y-118072400D03*
X116230400Y-118072400D03*
%TD*%
D23*
%TO.C,U4*%
X139692500Y-122135000D03*
X139692500Y-121485000D03*
X139692500Y-120835000D03*
X139692500Y-120185000D03*
X139692500Y-119535000D03*
X139692500Y-118885000D03*
X139692500Y-118235000D03*
X139692500Y-117585000D03*
X139692500Y-116935000D03*
X139692500Y-116285000D03*
X133967500Y-116285000D03*
X133967500Y-116935000D03*
X133967500Y-117585000D03*
X133967500Y-118235000D03*
X133967500Y-118885000D03*
X133967500Y-119535000D03*
X133967500Y-120185000D03*
X133967500Y-120835000D03*
X133967500Y-121485000D03*
X133967500Y-122135000D03*
%TD*%
D18*
%TO.C,R13*%
X144340000Y-101230000D03*
X142515000Y-101230000D03*
%TD*%
%TO.C,R19*%
X144370000Y-116450000D03*
X142545000Y-116450000D03*
%TD*%
D24*
%TO.C,C15*%
X118372500Y-110210000D03*
X120447500Y-110210000D03*
%TD*%
D18*
%TO.C,R14*%
X144380000Y-103550000D03*
X142555000Y-103550000D03*
%TD*%
D19*
%TO.C,R11*%
X133217500Y-102450000D03*
X135042500Y-102450000D03*
%TD*%
%TO.C,R3*%
X110845600Y-83947000D03*
X112670600Y-83947000D03*
%TD*%
%TO.C,R7*%
X110816400Y-75895200D03*
X112641400Y-75895200D03*
%TD*%
D24*
%TO.C,C16*%
X123512500Y-78250000D03*
X125587500Y-78250000D03*
%TD*%
D19*
%TO.C,R8*%
X110820200Y-77470000D03*
X112645200Y-77470000D03*
%TD*%
%TO.C,R2*%
X110818300Y-88925400D03*
X112643300Y-88925400D03*
%TD*%
D25*
%TO.C,SD2*%
X135425000Y-78460000D03*
X136525000Y-78460000D03*
X137625000Y-78460000D03*
X138375000Y-78460000D03*
X139075000Y-78460000D03*
X139825000Y-78460000D03*
X140925000Y-78460000D03*
X142025000Y-78460000D03*
X143125000Y-78460000D03*
D26*
X134050000Y-80100000D03*
X134050000Y-84550000D03*
X144500000Y-80100000D03*
X144500000Y-84550000D03*
%TD*%
D18*
%TO.C,R16*%
X143027400Y-108280200D03*
X141202400Y-108280200D03*
%TD*%
D27*
%TO.C,U1*%
X132300000Y-100140000D03*
X133570000Y-100140000D03*
X134840000Y-100140000D03*
X136110000Y-100140000D03*
X137380000Y-100140000D03*
X138650000Y-100140000D03*
X139920000Y-100140000D03*
X139920000Y-95190000D03*
X138650000Y-95190000D03*
X137380000Y-95190000D03*
X136110000Y-95190000D03*
X134840000Y-95190000D03*
X133570000Y-95190000D03*
X132300000Y-95190000D03*
%TD*%
D18*
%TO.C,R17*%
X144195800Y-110490000D03*
X142370800Y-110490000D03*
%TD*%
D24*
%TO.C,C10*%
X136460000Y-123850000D03*
X138535000Y-123850000D03*
%TD*%
D28*
%TO.C,C13*%
X125415000Y-84466850D03*
X123690000Y-84466850D03*
%TD*%
D19*
%TO.C,R10*%
X110843700Y-87198200D03*
X112668700Y-87198200D03*
%TD*%
%TO.C,R34*%
X114405400Y-113144800D03*
X116230400Y-113144800D03*
%TD*%
D29*
%TO.C,U7*%
X115795050Y-78080000D03*
X115795050Y-78730000D03*
X115795050Y-79380000D03*
X115795050Y-80030000D03*
X115795050Y-80680000D03*
X115795050Y-81330000D03*
X115795050Y-81980000D03*
X121520050Y-81980000D03*
X121520050Y-81330000D03*
X121520050Y-80680000D03*
X121520050Y-80030000D03*
X121520050Y-79380000D03*
X121520050Y-78730000D03*
X121520050Y-78080000D03*
%TD*%
D19*
%TO.C,R37*%
X114405400Y-122974600D03*
X116230400Y-122974600D03*
%TD*%
D30*
%TO.C,F2*%
X112115600Y-122825400D03*
X112115600Y-124875400D03*
%TD*%
D21*
%TO.C,C1*%
X137417500Y-88400000D03*
X135342500Y-88400000D03*
%TD*%
D18*
%TO.C,R15*%
X143027400Y-106045000D03*
X141202400Y-106045000D03*
%TD*%
D28*
%TO.C,C7*%
X112393900Y-91821000D03*
X110668900Y-91821000D03*
%TD*%
D19*
%TO.C,R23*%
X124425000Y-93990000D03*
X126250000Y-93990000D03*
%TD*%
D31*
%TO.C,J2*%
X106037131Y-77130600D03*
X106037131Y-124230600D03*
D32*
X107457131Y-84060600D03*
D33*
X107457131Y-86830600D03*
X107457131Y-89600600D03*
X107457131Y-92370600D03*
X107457131Y-95140600D03*
X107457131Y-97910600D03*
X107457131Y-100680600D03*
X107457131Y-103450600D03*
X107457131Y-106220600D03*
X107457131Y-108990600D03*
X107457131Y-111760600D03*
X107457131Y-114530600D03*
X107457131Y-117300600D03*
X104617131Y-85445600D03*
X104617131Y-88215600D03*
X104617131Y-90985600D03*
X104617131Y-93755600D03*
X104617131Y-96525600D03*
X104617131Y-99295600D03*
X104617131Y-102065600D03*
X104617131Y-104835600D03*
X104617131Y-107605600D03*
X104617131Y-110375600D03*
X104617131Y-113145600D03*
X104617131Y-115915600D03*
%TD*%
D18*
%TO.C,R25*%
X125475000Y-119640000D03*
X123650000Y-119640000D03*
%TD*%
D29*
%TO.C,U5*%
X116259700Y-90560000D03*
X116259700Y-91210000D03*
X116259700Y-91860000D03*
X116259700Y-92510000D03*
X116259700Y-93160000D03*
X116259700Y-93810000D03*
X116259700Y-94460000D03*
X121984700Y-94460000D03*
X121984700Y-93810000D03*
X121984700Y-93160000D03*
X121984700Y-92510000D03*
X121984700Y-91860000D03*
X121984700Y-91210000D03*
X121984700Y-90560000D03*
%TD*%
D23*
%TO.C,U9*%
X124932500Y-118235000D03*
X124932500Y-117585000D03*
X124932500Y-116935000D03*
X124932500Y-116285000D03*
X124932500Y-115635000D03*
X124932500Y-114985000D03*
X124932500Y-114335000D03*
X124932500Y-113685000D03*
X124932500Y-113035000D03*
X124932500Y-112385000D03*
X119207500Y-112385000D03*
X119207500Y-113035000D03*
X119207500Y-113685000D03*
X119207500Y-114335000D03*
X119207500Y-114985000D03*
X119207500Y-115635000D03*
X119207500Y-116285000D03*
X119207500Y-116935000D03*
X119207500Y-117585000D03*
X119207500Y-118235000D03*
%TD*%
D29*
%TO.C,U6*%
X116262878Y-84580000D03*
X116262878Y-85230000D03*
X116262878Y-85880000D03*
X116262878Y-86530000D03*
X116262878Y-87180000D03*
X116262878Y-87830000D03*
X116262878Y-88480000D03*
X121987878Y-88480000D03*
X121987878Y-87830000D03*
X121987878Y-87180000D03*
X121987878Y-86530000D03*
X121987878Y-85880000D03*
X121987878Y-85230000D03*
X121987878Y-84580000D03*
%TD*%
D19*
%TO.C,R6*%
X110843700Y-80670400D03*
X112668700Y-80670400D03*
%TD*%
D24*
%TO.C,C11*%
X119609500Y-119944800D03*
X121684500Y-119944800D03*
%TD*%
D34*
%TO.C,C14*%
X124190000Y-92035000D03*
X124190000Y-90310000D03*
%TD*%
D35*
%TO.C,R29*%
X125410084Y-82890084D03*
X125410084Y-81065084D03*
%TD*%
D28*
%TO.C,C9*%
X125172500Y-76480000D03*
X123447500Y-76480000D03*
%TD*%
D18*
%TO.C,R12*%
X144340000Y-98780600D03*
X142515000Y-98780600D03*
%TD*%
%TO.C,R42*%
X144422500Y-119990000D03*
X142597500Y-119990000D03*
%TD*%
D36*
%TO.C,R28*%
X123806084Y-81063184D03*
X123806084Y-82888184D03*
%TD*%
M02*
