%TF.GenerationSoftware,KiCad,Pcbnew,8.0.4-8.0.4-0~ubuntu22.04.1*%
%TF.CreationDate,2024-07-18T13:03:20-06:00*%
%TF.ProjectId,DB25_External,44423235-5f45-4787-9465-726e616c2e6b,rev?*%
%TF.SameCoordinates,Original*%
%TF.FileFunction,Legend,Top*%
%TF.FilePolarity,Positive*%
%FSLAX46Y46*%
G04 Gerber Fmt 4.6, Leading zero omitted, Abs format (unit mm)*
G04 Created by KiCad (PCBNEW 8.0.4-8.0.4-0~ubuntu22.04.1) date 2024-07-18 13:03:20*
%MOMM*%
%LPD*%
G01*
G04 APERTURE LIST*
%ADD10C,0.150000*%
%ADD11C,0.120000*%
G04 APERTURE END LIST*
D10*
X133590895Y-74540952D02*
X133590895Y-75017142D01*
X133305180Y-74445714D02*
X134305180Y-74779047D01*
X134305180Y-74779047D02*
X133305180Y-75112380D01*
X133400419Y-76017142D02*
X133352800Y-75969523D01*
X133352800Y-75969523D02*
X133305180Y-75826666D01*
X133305180Y-75826666D02*
X133305180Y-75731428D01*
X133305180Y-75731428D02*
X133352800Y-75588571D01*
X133352800Y-75588571D02*
X133448038Y-75493333D01*
X133448038Y-75493333D02*
X133543276Y-75445714D01*
X133543276Y-75445714D02*
X133733752Y-75398095D01*
X133733752Y-75398095D02*
X133876609Y-75398095D01*
X133876609Y-75398095D02*
X134067085Y-75445714D01*
X134067085Y-75445714D02*
X134162323Y-75493333D01*
X134162323Y-75493333D02*
X134257561Y-75588571D01*
X134257561Y-75588571D02*
X134305180Y-75731428D01*
X134305180Y-75731428D02*
X134305180Y-75826666D01*
X134305180Y-75826666D02*
X134257561Y-75969523D01*
X134257561Y-75969523D02*
X134209942Y-76017142D01*
X134305180Y-76302857D02*
X134305180Y-76874285D01*
X133305180Y-76588571D02*
X134305180Y-76588571D01*
X114010952Y-75414819D02*
X114010952Y-74414819D01*
X114010952Y-74795771D02*
X114106190Y-74748152D01*
X114106190Y-74748152D02*
X114296666Y-74748152D01*
X114296666Y-74748152D02*
X114391904Y-74795771D01*
X114391904Y-74795771D02*
X114439523Y-74843390D01*
X114439523Y-74843390D02*
X114487142Y-74938628D01*
X114487142Y-74938628D02*
X114487142Y-75224342D01*
X114487142Y-75224342D02*
X114439523Y-75319580D01*
X114439523Y-75319580D02*
X114391904Y-75367200D01*
X114391904Y-75367200D02*
X114296666Y-75414819D01*
X114296666Y-75414819D02*
X114106190Y-75414819D01*
X114106190Y-75414819D02*
X114010952Y-75367200D01*
X115058571Y-75414819D02*
X114963333Y-75367200D01*
X114963333Y-75367200D02*
X114915714Y-75271961D01*
X114915714Y-75271961D02*
X114915714Y-74414819D01*
X115868095Y-74748152D02*
X115868095Y-75414819D01*
X115439524Y-74748152D02*
X115439524Y-75271961D01*
X115439524Y-75271961D02*
X115487143Y-75367200D01*
X115487143Y-75367200D02*
X115582381Y-75414819D01*
X115582381Y-75414819D02*
X115725238Y-75414819D01*
X115725238Y-75414819D02*
X115820476Y-75367200D01*
X115820476Y-75367200D02*
X115868095Y-75319580D01*
X116725238Y-75367200D02*
X116630000Y-75414819D01*
X116630000Y-75414819D02*
X116439524Y-75414819D01*
X116439524Y-75414819D02*
X116344286Y-75367200D01*
X116344286Y-75367200D02*
X116296667Y-75271961D01*
X116296667Y-75271961D02*
X116296667Y-74891009D01*
X116296667Y-74891009D02*
X116344286Y-74795771D01*
X116344286Y-74795771D02*
X116439524Y-74748152D01*
X116439524Y-74748152D02*
X116630000Y-74748152D01*
X116630000Y-74748152D02*
X116725238Y-74795771D01*
X116725238Y-74795771D02*
X116772857Y-74891009D01*
X116772857Y-74891009D02*
X116772857Y-74986247D01*
X116772857Y-74986247D02*
X116296667Y-75081485D01*
X117153810Y-75367200D02*
X117249048Y-75414819D01*
X117249048Y-75414819D02*
X117439524Y-75414819D01*
X117439524Y-75414819D02*
X117534762Y-75367200D01*
X117534762Y-75367200D02*
X117582381Y-75271961D01*
X117582381Y-75271961D02*
X117582381Y-75224342D01*
X117582381Y-75224342D02*
X117534762Y-75129104D01*
X117534762Y-75129104D02*
X117439524Y-75081485D01*
X117439524Y-75081485D02*
X117296667Y-75081485D01*
X117296667Y-75081485D02*
X117201429Y-75033866D01*
X117201429Y-75033866D02*
X117153810Y-74938628D01*
X117153810Y-74938628D02*
X117153810Y-74891009D01*
X117153810Y-74891009D02*
X117201429Y-74795771D01*
X117201429Y-74795771D02*
X117296667Y-74748152D01*
X117296667Y-74748152D02*
X117439524Y-74748152D01*
X117439524Y-74748152D02*
X117534762Y-74795771D01*
X118439524Y-75367200D02*
X118344286Y-75414819D01*
X118344286Y-75414819D02*
X118153810Y-75414819D01*
X118153810Y-75414819D02*
X118058572Y-75367200D01*
X118058572Y-75367200D02*
X118010953Y-75319580D01*
X118010953Y-75319580D02*
X117963334Y-75224342D01*
X117963334Y-75224342D02*
X117963334Y-74938628D01*
X117963334Y-74938628D02*
X118010953Y-74843390D01*
X118010953Y-74843390D02*
X118058572Y-74795771D01*
X118058572Y-74795771D02*
X118153810Y-74748152D01*
X118153810Y-74748152D02*
X118344286Y-74748152D01*
X118344286Y-74748152D02*
X118439524Y-74795771D01*
X118820477Y-75367200D02*
X118915715Y-75414819D01*
X118915715Y-75414819D02*
X119106191Y-75414819D01*
X119106191Y-75414819D02*
X119201429Y-75367200D01*
X119201429Y-75367200D02*
X119249048Y-75271961D01*
X119249048Y-75271961D02*
X119249048Y-75224342D01*
X119249048Y-75224342D02*
X119201429Y-75129104D01*
X119201429Y-75129104D02*
X119106191Y-75081485D01*
X119106191Y-75081485D02*
X118963334Y-75081485D01*
X118963334Y-75081485D02*
X118868096Y-75033866D01*
X118868096Y-75033866D02*
X118820477Y-74938628D01*
X118820477Y-74938628D02*
X118820477Y-74891009D01*
X118820477Y-74891009D02*
X118868096Y-74795771D01*
X118868096Y-74795771D02*
X118963334Y-74748152D01*
X118963334Y-74748152D02*
X119106191Y-74748152D01*
X119106191Y-74748152D02*
X119201429Y-74795771D01*
X119677620Y-75414819D02*
X119677620Y-74748152D01*
X119677620Y-74414819D02*
X119630001Y-74462438D01*
X119630001Y-74462438D02*
X119677620Y-74510057D01*
X119677620Y-74510057D02*
X119725239Y-74462438D01*
X119725239Y-74462438D02*
X119677620Y-74414819D01*
X119677620Y-74414819D02*
X119677620Y-74510057D01*
X120153810Y-75319580D02*
X120201429Y-75367200D01*
X120201429Y-75367200D02*
X120153810Y-75414819D01*
X120153810Y-75414819D02*
X120106191Y-75367200D01*
X120106191Y-75367200D02*
X120153810Y-75319580D01*
X120153810Y-75319580D02*
X120153810Y-75414819D01*
X121058571Y-75367200D02*
X120963333Y-75414819D01*
X120963333Y-75414819D02*
X120772857Y-75414819D01*
X120772857Y-75414819D02*
X120677619Y-75367200D01*
X120677619Y-75367200D02*
X120630000Y-75319580D01*
X120630000Y-75319580D02*
X120582381Y-75224342D01*
X120582381Y-75224342D02*
X120582381Y-74938628D01*
X120582381Y-74938628D02*
X120630000Y-74843390D01*
X120630000Y-74843390D02*
X120677619Y-74795771D01*
X120677619Y-74795771D02*
X120772857Y-74748152D01*
X120772857Y-74748152D02*
X120963333Y-74748152D01*
X120963333Y-74748152D02*
X121058571Y-74795771D01*
X121630000Y-75414819D02*
X121534762Y-75367200D01*
X121534762Y-75367200D02*
X121487143Y-75319580D01*
X121487143Y-75319580D02*
X121439524Y-75224342D01*
X121439524Y-75224342D02*
X121439524Y-74938628D01*
X121439524Y-74938628D02*
X121487143Y-74843390D01*
X121487143Y-74843390D02*
X121534762Y-74795771D01*
X121534762Y-74795771D02*
X121630000Y-74748152D01*
X121630000Y-74748152D02*
X121772857Y-74748152D01*
X121772857Y-74748152D02*
X121868095Y-74795771D01*
X121868095Y-74795771D02*
X121915714Y-74843390D01*
X121915714Y-74843390D02*
X121963333Y-74938628D01*
X121963333Y-74938628D02*
X121963333Y-75224342D01*
X121963333Y-75224342D02*
X121915714Y-75319580D01*
X121915714Y-75319580D02*
X121868095Y-75367200D01*
X121868095Y-75367200D02*
X121772857Y-75414819D01*
X121772857Y-75414819D02*
X121630000Y-75414819D01*
X122391905Y-75414819D02*
X122391905Y-74748152D01*
X122391905Y-74843390D02*
X122439524Y-74795771D01*
X122439524Y-74795771D02*
X122534762Y-74748152D01*
X122534762Y-74748152D02*
X122677619Y-74748152D01*
X122677619Y-74748152D02*
X122772857Y-74795771D01*
X122772857Y-74795771D02*
X122820476Y-74891009D01*
X122820476Y-74891009D02*
X122820476Y-75414819D01*
X122820476Y-74891009D02*
X122868095Y-74795771D01*
X122868095Y-74795771D02*
X122963333Y-74748152D01*
X122963333Y-74748152D02*
X123106190Y-74748152D01*
X123106190Y-74748152D02*
X123201429Y-74795771D01*
X123201429Y-74795771D02*
X123249048Y-74891009D01*
X123249048Y-74891009D02*
X123249048Y-75414819D01*
X114141428Y-126844819D02*
X113570000Y-126844819D01*
X113855714Y-126844819D02*
X113855714Y-125844819D01*
X113855714Y-125844819D02*
X113760476Y-125987676D01*
X113760476Y-125987676D02*
X113665238Y-126082914D01*
X113665238Y-126082914D02*
X113570000Y-126130533D01*
X115093809Y-126844819D02*
X114522381Y-126844819D01*
X114808095Y-126844819D02*
X114808095Y-125844819D01*
X114808095Y-125844819D02*
X114712857Y-125987676D01*
X114712857Y-125987676D02*
X114617619Y-126082914D01*
X114617619Y-126082914D02*
X114522381Y-126130533D01*
X115712857Y-125844819D02*
X115808095Y-125844819D01*
X115808095Y-125844819D02*
X115903333Y-125892438D01*
X115903333Y-125892438D02*
X115950952Y-125940057D01*
X115950952Y-125940057D02*
X115998571Y-126035295D01*
X115998571Y-126035295D02*
X116046190Y-126225771D01*
X116046190Y-126225771D02*
X116046190Y-126463866D01*
X116046190Y-126463866D02*
X115998571Y-126654342D01*
X115998571Y-126654342D02*
X115950952Y-126749580D01*
X115950952Y-126749580D02*
X115903333Y-126797200D01*
X115903333Y-126797200D02*
X115808095Y-126844819D01*
X115808095Y-126844819D02*
X115712857Y-126844819D01*
X115712857Y-126844819D02*
X115617619Y-126797200D01*
X115617619Y-126797200D02*
X115570000Y-126749580D01*
X115570000Y-126749580D02*
X115522381Y-126654342D01*
X115522381Y-126654342D02*
X115474762Y-126463866D01*
X115474762Y-126463866D02*
X115474762Y-126225771D01*
X115474762Y-126225771D02*
X115522381Y-126035295D01*
X115522381Y-126035295D02*
X115570000Y-125940057D01*
X115570000Y-125940057D02*
X115617619Y-125892438D01*
X115617619Y-125892438D02*
X115712857Y-125844819D01*
X116236667Y-126940057D02*
X116998571Y-126940057D01*
X117093810Y-125844819D02*
X117665238Y-125844819D01*
X117379524Y-126844819D02*
X117379524Y-125844819D01*
X110686639Y-90748408D02*
X110115211Y-90748408D01*
X110400925Y-90748408D02*
X110400925Y-89748408D01*
X110400925Y-89748408D02*
X110305687Y-89891265D01*
X110305687Y-89891265D02*
X110210449Y-89986503D01*
X110210449Y-89986503D02*
X110115211Y-90034122D01*
X111639020Y-90748408D02*
X111067592Y-90748408D01*
X111353306Y-90748408D02*
X111353306Y-89748408D01*
X111353306Y-89748408D02*
X111258068Y-89891265D01*
X111258068Y-89891265D02*
X111162830Y-89986503D01*
X111162830Y-89986503D02*
X111067592Y-90034122D01*
X112258068Y-89748408D02*
X112353306Y-89748408D01*
X112353306Y-89748408D02*
X112448544Y-89796027D01*
X112448544Y-89796027D02*
X112496163Y-89843646D01*
X112496163Y-89843646D02*
X112543782Y-89938884D01*
X112543782Y-89938884D02*
X112591401Y-90129360D01*
X112591401Y-90129360D02*
X112591401Y-90367455D01*
X112591401Y-90367455D02*
X112543782Y-90557931D01*
X112543782Y-90557931D02*
X112496163Y-90653169D01*
X112496163Y-90653169D02*
X112448544Y-90700789D01*
X112448544Y-90700789D02*
X112353306Y-90748408D01*
X112353306Y-90748408D02*
X112258068Y-90748408D01*
X112258068Y-90748408D02*
X112162830Y-90700789D01*
X112162830Y-90700789D02*
X112115211Y-90653169D01*
X112115211Y-90653169D02*
X112067592Y-90557931D01*
X112067592Y-90557931D02*
X112019973Y-90367455D01*
X112019973Y-90367455D02*
X112019973Y-90129360D01*
X112019973Y-90129360D02*
X112067592Y-89938884D01*
X112067592Y-89938884D02*
X112115211Y-89843646D01*
X112115211Y-89843646D02*
X112162830Y-89796027D01*
X112162830Y-89796027D02*
X112258068Y-89748408D01*
X112781878Y-90843646D02*
X113543782Y-90843646D01*
X113639021Y-89748408D02*
X114210449Y-89748408D01*
X113924735Y-90748408D02*
X113924735Y-89748408D01*
X112773619Y-105117732D02*
X111773619Y-105117732D01*
X111773619Y-105117732D02*
X111773619Y-104736780D01*
X111773619Y-104736780D02*
X111821238Y-104641542D01*
X111821238Y-104641542D02*
X111868857Y-104593923D01*
X111868857Y-104593923D02*
X111964095Y-104546304D01*
X111964095Y-104546304D02*
X112106952Y-104546304D01*
X112106952Y-104546304D02*
X112202190Y-104593923D01*
X112202190Y-104593923D02*
X112249809Y-104641542D01*
X112249809Y-104641542D02*
X112297428Y-104736780D01*
X112297428Y-104736780D02*
X112297428Y-105117732D01*
X111773619Y-104212970D02*
X112773619Y-103974875D01*
X112773619Y-103974875D02*
X112059333Y-103784399D01*
X112059333Y-103784399D02*
X112773619Y-103593923D01*
X112773619Y-103593923D02*
X111773619Y-103355828D01*
X112773619Y-102403447D02*
X112297428Y-102736780D01*
X112773619Y-102974875D02*
X111773619Y-102974875D01*
X111773619Y-102974875D02*
X111773619Y-102593923D01*
X111773619Y-102593923D02*
X111821238Y-102498685D01*
X111821238Y-102498685D02*
X111868857Y-102451066D01*
X111868857Y-102451066D02*
X111964095Y-102403447D01*
X111964095Y-102403447D02*
X112106952Y-102403447D01*
X112106952Y-102403447D02*
X112202190Y-102451066D01*
X112202190Y-102451066D02*
X112249809Y-102498685D01*
X112249809Y-102498685D02*
X112297428Y-102593923D01*
X112297428Y-102593923D02*
X112297428Y-102974875D01*
X102264380Y-110080821D02*
X102312000Y-110128440D01*
X102312000Y-110128440D02*
X102359619Y-110271297D01*
X102359619Y-110271297D02*
X102359619Y-110366535D01*
X102359619Y-110366535D02*
X102312000Y-110509392D01*
X102312000Y-110509392D02*
X102216761Y-110604630D01*
X102216761Y-110604630D02*
X102121523Y-110652249D01*
X102121523Y-110652249D02*
X101931047Y-110699868D01*
X101931047Y-110699868D02*
X101788190Y-110699868D01*
X101788190Y-110699868D02*
X101597714Y-110652249D01*
X101597714Y-110652249D02*
X101502476Y-110604630D01*
X101502476Y-110604630D02*
X101407238Y-110509392D01*
X101407238Y-110509392D02*
X101359619Y-110366535D01*
X101359619Y-110366535D02*
X101359619Y-110271297D01*
X101359619Y-110271297D02*
X101407238Y-110128440D01*
X101407238Y-110128440D02*
X101454857Y-110080821D01*
X102359619Y-109509392D02*
X102312000Y-109604630D01*
X102312000Y-109604630D02*
X102264380Y-109652249D01*
X102264380Y-109652249D02*
X102169142Y-109699868D01*
X102169142Y-109699868D02*
X101883428Y-109699868D01*
X101883428Y-109699868D02*
X101788190Y-109652249D01*
X101788190Y-109652249D02*
X101740571Y-109604630D01*
X101740571Y-109604630D02*
X101692952Y-109509392D01*
X101692952Y-109509392D02*
X101692952Y-109366535D01*
X101692952Y-109366535D02*
X101740571Y-109271297D01*
X101740571Y-109271297D02*
X101788190Y-109223678D01*
X101788190Y-109223678D02*
X101883428Y-109176059D01*
X101883428Y-109176059D02*
X102169142Y-109176059D01*
X102169142Y-109176059D02*
X102264380Y-109223678D01*
X102264380Y-109223678D02*
X102312000Y-109271297D01*
X102312000Y-109271297D02*
X102359619Y-109366535D01*
X102359619Y-109366535D02*
X102359619Y-109509392D01*
X101692952Y-108747487D02*
X102359619Y-108747487D01*
X101788190Y-108747487D02*
X101740571Y-108699868D01*
X101740571Y-108699868D02*
X101692952Y-108604630D01*
X101692952Y-108604630D02*
X101692952Y-108461773D01*
X101692952Y-108461773D02*
X101740571Y-108366535D01*
X101740571Y-108366535D02*
X101835809Y-108318916D01*
X101835809Y-108318916D02*
X102359619Y-108318916D01*
X101692952Y-107842725D02*
X102359619Y-107842725D01*
X101788190Y-107842725D02*
X101740571Y-107795106D01*
X101740571Y-107795106D02*
X101692952Y-107699868D01*
X101692952Y-107699868D02*
X101692952Y-107557011D01*
X101692952Y-107557011D02*
X101740571Y-107461773D01*
X101740571Y-107461773D02*
X101835809Y-107414154D01*
X101835809Y-107414154D02*
X102359619Y-107414154D01*
X102312000Y-106557011D02*
X102359619Y-106652249D01*
X102359619Y-106652249D02*
X102359619Y-106842725D01*
X102359619Y-106842725D02*
X102312000Y-106937963D01*
X102312000Y-106937963D02*
X102216761Y-106985582D01*
X102216761Y-106985582D02*
X101835809Y-106985582D01*
X101835809Y-106985582D02*
X101740571Y-106937963D01*
X101740571Y-106937963D02*
X101692952Y-106842725D01*
X101692952Y-106842725D02*
X101692952Y-106652249D01*
X101692952Y-106652249D02*
X101740571Y-106557011D01*
X101740571Y-106557011D02*
X101835809Y-106509392D01*
X101835809Y-106509392D02*
X101931047Y-106509392D01*
X101931047Y-106509392D02*
X102026285Y-106985582D01*
X102312000Y-105652249D02*
X102359619Y-105747487D01*
X102359619Y-105747487D02*
X102359619Y-105937963D01*
X102359619Y-105937963D02*
X102312000Y-106033201D01*
X102312000Y-106033201D02*
X102264380Y-106080820D01*
X102264380Y-106080820D02*
X102169142Y-106128439D01*
X102169142Y-106128439D02*
X101883428Y-106128439D01*
X101883428Y-106128439D02*
X101788190Y-106080820D01*
X101788190Y-106080820D02*
X101740571Y-106033201D01*
X101740571Y-106033201D02*
X101692952Y-105937963D01*
X101692952Y-105937963D02*
X101692952Y-105747487D01*
X101692952Y-105747487D02*
X101740571Y-105652249D01*
X101692952Y-105366534D02*
X101692952Y-104985582D01*
X101359619Y-105223677D02*
X102216761Y-105223677D01*
X102216761Y-105223677D02*
X102312000Y-105176058D01*
X102312000Y-105176058D02*
X102359619Y-105080820D01*
X102359619Y-105080820D02*
X102359619Y-104985582D01*
X102359619Y-104509391D02*
X102312000Y-104604629D01*
X102312000Y-104604629D02*
X102264380Y-104652248D01*
X102264380Y-104652248D02*
X102169142Y-104699867D01*
X102169142Y-104699867D02*
X101883428Y-104699867D01*
X101883428Y-104699867D02*
X101788190Y-104652248D01*
X101788190Y-104652248D02*
X101740571Y-104604629D01*
X101740571Y-104604629D02*
X101692952Y-104509391D01*
X101692952Y-104509391D02*
X101692952Y-104366534D01*
X101692952Y-104366534D02*
X101740571Y-104271296D01*
X101740571Y-104271296D02*
X101788190Y-104223677D01*
X101788190Y-104223677D02*
X101883428Y-104176058D01*
X101883428Y-104176058D02*
X102169142Y-104176058D01*
X102169142Y-104176058D02*
X102264380Y-104223677D01*
X102264380Y-104223677D02*
X102312000Y-104271296D01*
X102312000Y-104271296D02*
X102359619Y-104366534D01*
X102359619Y-104366534D02*
X102359619Y-104509391D01*
X102359619Y-103747486D02*
X101692952Y-103747486D01*
X101883428Y-103747486D02*
X101788190Y-103699867D01*
X101788190Y-103699867D02*
X101740571Y-103652248D01*
X101740571Y-103652248D02*
X101692952Y-103557010D01*
X101692952Y-103557010D02*
X101692952Y-103461772D01*
X102264380Y-101795105D02*
X102312000Y-101842724D01*
X102312000Y-101842724D02*
X102359619Y-101985581D01*
X102359619Y-101985581D02*
X102359619Y-102080819D01*
X102359619Y-102080819D02*
X102312000Y-102223676D01*
X102312000Y-102223676D02*
X102216761Y-102318914D01*
X102216761Y-102318914D02*
X102121523Y-102366533D01*
X102121523Y-102366533D02*
X101931047Y-102414152D01*
X101931047Y-102414152D02*
X101788190Y-102414152D01*
X101788190Y-102414152D02*
X101597714Y-102366533D01*
X101597714Y-102366533D02*
X101502476Y-102318914D01*
X101502476Y-102318914D02*
X101407238Y-102223676D01*
X101407238Y-102223676D02*
X101359619Y-102080819D01*
X101359619Y-102080819D02*
X101359619Y-101985581D01*
X101359619Y-101985581D02*
X101407238Y-101842724D01*
X101407238Y-101842724D02*
X101454857Y-101795105D01*
X102359619Y-101223676D02*
X102312000Y-101318914D01*
X102312000Y-101318914D02*
X102264380Y-101366533D01*
X102264380Y-101366533D02*
X102169142Y-101414152D01*
X102169142Y-101414152D02*
X101883428Y-101414152D01*
X101883428Y-101414152D02*
X101788190Y-101366533D01*
X101788190Y-101366533D02*
X101740571Y-101318914D01*
X101740571Y-101318914D02*
X101692952Y-101223676D01*
X101692952Y-101223676D02*
X101692952Y-101080819D01*
X101692952Y-101080819D02*
X101740571Y-100985581D01*
X101740571Y-100985581D02*
X101788190Y-100937962D01*
X101788190Y-100937962D02*
X101883428Y-100890343D01*
X101883428Y-100890343D02*
X102169142Y-100890343D01*
X102169142Y-100890343D02*
X102264380Y-100937962D01*
X102264380Y-100937962D02*
X102312000Y-100985581D01*
X102312000Y-100985581D02*
X102359619Y-101080819D01*
X102359619Y-101080819D02*
X102359619Y-101223676D01*
X101692952Y-100557009D02*
X102359619Y-100318914D01*
X102359619Y-100318914D02*
X101692952Y-100080819D01*
X102312000Y-99318914D02*
X102359619Y-99414152D01*
X102359619Y-99414152D02*
X102359619Y-99604628D01*
X102359619Y-99604628D02*
X102312000Y-99699866D01*
X102312000Y-99699866D02*
X102216761Y-99747485D01*
X102216761Y-99747485D02*
X101835809Y-99747485D01*
X101835809Y-99747485D02*
X101740571Y-99699866D01*
X101740571Y-99699866D02*
X101692952Y-99604628D01*
X101692952Y-99604628D02*
X101692952Y-99414152D01*
X101692952Y-99414152D02*
X101740571Y-99318914D01*
X101740571Y-99318914D02*
X101835809Y-99271295D01*
X101835809Y-99271295D02*
X101931047Y-99271295D01*
X101931047Y-99271295D02*
X102026285Y-99747485D01*
X102359619Y-98842723D02*
X101692952Y-98842723D01*
X101883428Y-98842723D02*
X101788190Y-98795104D01*
X101788190Y-98795104D02*
X101740571Y-98747485D01*
X101740571Y-98747485D02*
X101692952Y-98652247D01*
X101692952Y-98652247D02*
X101692952Y-98557009D01*
X102312000Y-98271294D02*
X102359619Y-98176056D01*
X102359619Y-98176056D02*
X102359619Y-97985580D01*
X102359619Y-97985580D02*
X102312000Y-97890342D01*
X102312000Y-97890342D02*
X102216761Y-97842723D01*
X102216761Y-97842723D02*
X102169142Y-97842723D01*
X102169142Y-97842723D02*
X102073904Y-97890342D01*
X102073904Y-97890342D02*
X102026285Y-97985580D01*
X102026285Y-97985580D02*
X102026285Y-98128437D01*
X102026285Y-98128437D02*
X101978666Y-98223675D01*
X101978666Y-98223675D02*
X101883428Y-98271294D01*
X101883428Y-98271294D02*
X101835809Y-98271294D01*
X101835809Y-98271294D02*
X101740571Y-98223675D01*
X101740571Y-98223675D02*
X101692952Y-98128437D01*
X101692952Y-98128437D02*
X101692952Y-97985580D01*
X101692952Y-97985580D02*
X101740571Y-97890342D01*
X101359619Y-96795103D02*
X101359619Y-96223675D01*
X102359619Y-96509389D02*
X101359619Y-96509389D01*
X102359619Y-95890341D02*
X101359619Y-95890341D01*
X102359619Y-95461770D02*
X101835809Y-95461770D01*
X101835809Y-95461770D02*
X101740571Y-95509389D01*
X101740571Y-95509389D02*
X101692952Y-95604627D01*
X101692952Y-95604627D02*
X101692952Y-95747484D01*
X101692952Y-95747484D02*
X101740571Y-95842722D01*
X101740571Y-95842722D02*
X101788190Y-95890341D01*
X102359619Y-94985579D02*
X101692952Y-94985579D01*
X101359619Y-94985579D02*
X101407238Y-95033198D01*
X101407238Y-95033198D02*
X101454857Y-94985579D01*
X101454857Y-94985579D02*
X101407238Y-94937960D01*
X101407238Y-94937960D02*
X101359619Y-94985579D01*
X101359619Y-94985579D02*
X101454857Y-94985579D01*
X102312000Y-94557008D02*
X102359619Y-94461770D01*
X102359619Y-94461770D02*
X102359619Y-94271294D01*
X102359619Y-94271294D02*
X102312000Y-94176056D01*
X102312000Y-94176056D02*
X102216761Y-94128437D01*
X102216761Y-94128437D02*
X102169142Y-94128437D01*
X102169142Y-94128437D02*
X102073904Y-94176056D01*
X102073904Y-94176056D02*
X102026285Y-94271294D01*
X102026285Y-94271294D02*
X102026285Y-94414151D01*
X102026285Y-94414151D02*
X101978666Y-94509389D01*
X101978666Y-94509389D02*
X101883428Y-94557008D01*
X101883428Y-94557008D02*
X101835809Y-94557008D01*
X101835809Y-94557008D02*
X101740571Y-94509389D01*
X101740571Y-94509389D02*
X101692952Y-94414151D01*
X101692952Y-94414151D02*
X101692952Y-94271294D01*
X101692952Y-94271294D02*
X101740571Y-94176056D01*
X101359619Y-93080817D02*
X101359619Y-92509389D01*
X102359619Y-92795103D02*
X101359619Y-92795103D01*
X102312000Y-91795103D02*
X102359619Y-91890341D01*
X102359619Y-91890341D02*
X102359619Y-92080817D01*
X102359619Y-92080817D02*
X102312000Y-92176055D01*
X102312000Y-92176055D02*
X102216761Y-92223674D01*
X102216761Y-92223674D02*
X101835809Y-92223674D01*
X101835809Y-92223674D02*
X101740571Y-92176055D01*
X101740571Y-92176055D02*
X101692952Y-92080817D01*
X101692952Y-92080817D02*
X101692952Y-91890341D01*
X101692952Y-91890341D02*
X101740571Y-91795103D01*
X101740571Y-91795103D02*
X101835809Y-91747484D01*
X101835809Y-91747484D02*
X101931047Y-91747484D01*
X101931047Y-91747484D02*
X102026285Y-92223674D01*
X102359619Y-91414150D02*
X101692952Y-90890341D01*
X101692952Y-91414150D02*
X102359619Y-90890341D01*
X101692952Y-90652245D02*
X101692952Y-90271293D01*
X101359619Y-90509388D02*
X102216761Y-90509388D01*
X102216761Y-90509388D02*
X102312000Y-90461769D01*
X102312000Y-90461769D02*
X102359619Y-90366531D01*
X102359619Y-90366531D02*
X102359619Y-90271293D01*
X127069819Y-116927030D02*
X127069819Y-117403220D01*
X127069819Y-117403220D02*
X126069819Y-117403220D01*
X127069819Y-116593696D02*
X126403152Y-116593696D01*
X126069819Y-116593696D02*
X126117438Y-116641315D01*
X126117438Y-116641315D02*
X126165057Y-116593696D01*
X126165057Y-116593696D02*
X126117438Y-116546077D01*
X126117438Y-116546077D02*
X126069819Y-116593696D01*
X126069819Y-116593696D02*
X126165057Y-116593696D01*
X127022200Y-115688935D02*
X127069819Y-115784173D01*
X127069819Y-115784173D02*
X127069819Y-115974649D01*
X127069819Y-115974649D02*
X127022200Y-116069887D01*
X127022200Y-116069887D02*
X126974580Y-116117506D01*
X126974580Y-116117506D02*
X126879342Y-116165125D01*
X126879342Y-116165125D02*
X126593628Y-116165125D01*
X126593628Y-116165125D02*
X126498390Y-116117506D01*
X126498390Y-116117506D02*
X126450771Y-116069887D01*
X126450771Y-116069887D02*
X126403152Y-115974649D01*
X126403152Y-115974649D02*
X126403152Y-115784173D01*
X126403152Y-115784173D02*
X126450771Y-115688935D01*
X127022200Y-114879411D02*
X127069819Y-114974649D01*
X127069819Y-114974649D02*
X127069819Y-115165125D01*
X127069819Y-115165125D02*
X127022200Y-115260363D01*
X127022200Y-115260363D02*
X126926961Y-115307982D01*
X126926961Y-115307982D02*
X126546009Y-115307982D01*
X126546009Y-115307982D02*
X126450771Y-115260363D01*
X126450771Y-115260363D02*
X126403152Y-115165125D01*
X126403152Y-115165125D02*
X126403152Y-114974649D01*
X126403152Y-114974649D02*
X126450771Y-114879411D01*
X126450771Y-114879411D02*
X126546009Y-114831792D01*
X126546009Y-114831792D02*
X126641247Y-114831792D01*
X126641247Y-114831792D02*
X126736485Y-115307982D01*
X126403152Y-114403220D02*
X127069819Y-114403220D01*
X126498390Y-114403220D02*
X126450771Y-114355601D01*
X126450771Y-114355601D02*
X126403152Y-114260363D01*
X126403152Y-114260363D02*
X126403152Y-114117506D01*
X126403152Y-114117506D02*
X126450771Y-114022268D01*
X126450771Y-114022268D02*
X126546009Y-113974649D01*
X126546009Y-113974649D02*
X127069819Y-113974649D01*
X127022200Y-113546077D02*
X127069819Y-113450839D01*
X127069819Y-113450839D02*
X127069819Y-113260363D01*
X127069819Y-113260363D02*
X127022200Y-113165125D01*
X127022200Y-113165125D02*
X126926961Y-113117506D01*
X126926961Y-113117506D02*
X126879342Y-113117506D01*
X126879342Y-113117506D02*
X126784104Y-113165125D01*
X126784104Y-113165125D02*
X126736485Y-113260363D01*
X126736485Y-113260363D02*
X126736485Y-113403220D01*
X126736485Y-113403220D02*
X126688866Y-113498458D01*
X126688866Y-113498458D02*
X126593628Y-113546077D01*
X126593628Y-113546077D02*
X126546009Y-113546077D01*
X126546009Y-113546077D02*
X126450771Y-113498458D01*
X126450771Y-113498458D02*
X126403152Y-113403220D01*
X126403152Y-113403220D02*
X126403152Y-113260363D01*
X126403152Y-113260363D02*
X126450771Y-113165125D01*
X127022200Y-112307982D02*
X127069819Y-112403220D01*
X127069819Y-112403220D02*
X127069819Y-112593696D01*
X127069819Y-112593696D02*
X127022200Y-112688934D01*
X127022200Y-112688934D02*
X126926961Y-112736553D01*
X126926961Y-112736553D02*
X126546009Y-112736553D01*
X126546009Y-112736553D02*
X126450771Y-112688934D01*
X126450771Y-112688934D02*
X126403152Y-112593696D01*
X126403152Y-112593696D02*
X126403152Y-112403220D01*
X126403152Y-112403220D02*
X126450771Y-112307982D01*
X126450771Y-112307982D02*
X126546009Y-112260363D01*
X126546009Y-112260363D02*
X126641247Y-112260363D01*
X126641247Y-112260363D02*
X126736485Y-112736553D01*
X127069819Y-111403220D02*
X126069819Y-111403220D01*
X127022200Y-111403220D02*
X127069819Y-111498458D01*
X127069819Y-111498458D02*
X127069819Y-111688934D01*
X127069819Y-111688934D02*
X127022200Y-111784172D01*
X127022200Y-111784172D02*
X126974580Y-111831791D01*
X126974580Y-111831791D02*
X126879342Y-111879410D01*
X126879342Y-111879410D02*
X126593628Y-111879410D01*
X126593628Y-111879410D02*
X126498390Y-111831791D01*
X126498390Y-111831791D02*
X126450771Y-111784172D01*
X126450771Y-111784172D02*
X126403152Y-111688934D01*
X126403152Y-111688934D02*
X126403152Y-111498458D01*
X126403152Y-111498458D02*
X126450771Y-111403220D01*
X126974580Y-109593696D02*
X127022200Y-109641315D01*
X127022200Y-109641315D02*
X127069819Y-109784172D01*
X127069819Y-109784172D02*
X127069819Y-109879410D01*
X127069819Y-109879410D02*
X127022200Y-110022267D01*
X127022200Y-110022267D02*
X126926961Y-110117505D01*
X126926961Y-110117505D02*
X126831723Y-110165124D01*
X126831723Y-110165124D02*
X126641247Y-110212743D01*
X126641247Y-110212743D02*
X126498390Y-110212743D01*
X126498390Y-110212743D02*
X126307914Y-110165124D01*
X126307914Y-110165124D02*
X126212676Y-110117505D01*
X126212676Y-110117505D02*
X126117438Y-110022267D01*
X126117438Y-110022267D02*
X126069819Y-109879410D01*
X126069819Y-109879410D02*
X126069819Y-109784172D01*
X126069819Y-109784172D02*
X126117438Y-109641315D01*
X126117438Y-109641315D02*
X126165057Y-109593696D01*
X126546009Y-109165124D02*
X126546009Y-108831791D01*
X127069819Y-108688934D02*
X127069819Y-109165124D01*
X127069819Y-109165124D02*
X126069819Y-109165124D01*
X126069819Y-109165124D02*
X126069819Y-108688934D01*
X127069819Y-107688934D02*
X126593628Y-108022267D01*
X127069819Y-108260362D02*
X126069819Y-108260362D01*
X126069819Y-108260362D02*
X126069819Y-107879410D01*
X126069819Y-107879410D02*
X126117438Y-107784172D01*
X126117438Y-107784172D02*
X126165057Y-107736553D01*
X126165057Y-107736553D02*
X126260295Y-107688934D01*
X126260295Y-107688934D02*
X126403152Y-107688934D01*
X126403152Y-107688934D02*
X126498390Y-107736553D01*
X126498390Y-107736553D02*
X126546009Y-107784172D01*
X126546009Y-107784172D02*
X126593628Y-107879410D01*
X126593628Y-107879410D02*
X126593628Y-108260362D01*
X127069819Y-107260362D02*
X126069819Y-107260362D01*
X126069819Y-107260362D02*
X127069819Y-106688934D01*
X127069819Y-106688934D02*
X126069819Y-106688934D01*
X126688866Y-106212743D02*
X126688866Y-105450839D01*
X126069819Y-104784172D02*
X126069819Y-104593696D01*
X126069819Y-104593696D02*
X126117438Y-104498458D01*
X126117438Y-104498458D02*
X126212676Y-104403220D01*
X126212676Y-104403220D02*
X126403152Y-104355601D01*
X126403152Y-104355601D02*
X126736485Y-104355601D01*
X126736485Y-104355601D02*
X126926961Y-104403220D01*
X126926961Y-104403220D02*
X127022200Y-104498458D01*
X127022200Y-104498458D02*
X127069819Y-104593696D01*
X127069819Y-104593696D02*
X127069819Y-104784172D01*
X127069819Y-104784172D02*
X127022200Y-104879410D01*
X127022200Y-104879410D02*
X126926961Y-104974648D01*
X126926961Y-104974648D02*
X126736485Y-105022267D01*
X126736485Y-105022267D02*
X126403152Y-105022267D01*
X126403152Y-105022267D02*
X126212676Y-104974648D01*
X126212676Y-104974648D02*
X126117438Y-104879410D01*
X126117438Y-104879410D02*
X126069819Y-104784172D01*
X127069819Y-103927029D02*
X126069819Y-103927029D01*
X126546009Y-103927029D02*
X126546009Y-103355601D01*
X127069819Y-103355601D02*
X126069819Y-103355601D01*
X127069819Y-102403220D02*
X127069819Y-102879410D01*
X127069819Y-102879410D02*
X126069819Y-102879410D01*
X126688866Y-102069886D02*
X126688866Y-101307982D01*
X127022200Y-100879410D02*
X127069819Y-100736553D01*
X127069819Y-100736553D02*
X127069819Y-100498458D01*
X127069819Y-100498458D02*
X127022200Y-100403220D01*
X127022200Y-100403220D02*
X126974580Y-100355601D01*
X126974580Y-100355601D02*
X126879342Y-100307982D01*
X126879342Y-100307982D02*
X126784104Y-100307982D01*
X126784104Y-100307982D02*
X126688866Y-100355601D01*
X126688866Y-100355601D02*
X126641247Y-100403220D01*
X126641247Y-100403220D02*
X126593628Y-100498458D01*
X126593628Y-100498458D02*
X126546009Y-100688934D01*
X126546009Y-100688934D02*
X126498390Y-100784172D01*
X126498390Y-100784172D02*
X126450771Y-100831791D01*
X126450771Y-100831791D02*
X126355533Y-100879410D01*
X126355533Y-100879410D02*
X126260295Y-100879410D01*
X126260295Y-100879410D02*
X126165057Y-100831791D01*
X126165057Y-100831791D02*
X126117438Y-100784172D01*
X126117438Y-100784172D02*
X126069819Y-100688934D01*
X126069819Y-100688934D02*
X126069819Y-100450839D01*
X126069819Y-100450839D02*
X126117438Y-100307982D01*
X126403152Y-99212743D02*
X127069819Y-98974648D01*
X127069819Y-98974648D02*
X126403152Y-98736553D01*
X126165057Y-98403219D02*
X126117438Y-98355600D01*
X126117438Y-98355600D02*
X126069819Y-98260362D01*
X126069819Y-98260362D02*
X126069819Y-98022267D01*
X126069819Y-98022267D02*
X126117438Y-97927029D01*
X126117438Y-97927029D02*
X126165057Y-97879410D01*
X126165057Y-97879410D02*
X126260295Y-97831791D01*
X126260295Y-97831791D02*
X126355533Y-97831791D01*
X126355533Y-97831791D02*
X126498390Y-97879410D01*
X126498390Y-97879410D02*
X127069819Y-98450838D01*
X127069819Y-98450838D02*
X127069819Y-97831791D01*
X111601733Y-94520780D02*
X111554114Y-94568400D01*
X111554114Y-94568400D02*
X111411257Y-94616019D01*
X111411257Y-94616019D02*
X111316019Y-94616019D01*
X111316019Y-94616019D02*
X111173162Y-94568400D01*
X111173162Y-94568400D02*
X111077924Y-94473161D01*
X111077924Y-94473161D02*
X111030305Y-94377923D01*
X111030305Y-94377923D02*
X110982686Y-94187447D01*
X110982686Y-94187447D02*
X110982686Y-94044590D01*
X110982686Y-94044590D02*
X111030305Y-93854114D01*
X111030305Y-93854114D02*
X111077924Y-93758876D01*
X111077924Y-93758876D02*
X111173162Y-93663638D01*
X111173162Y-93663638D02*
X111316019Y-93616019D01*
X111316019Y-93616019D02*
X111411257Y-93616019D01*
X111411257Y-93616019D02*
X111554114Y-93663638D01*
X111554114Y-93663638D02*
X111601733Y-93711257D01*
X111935067Y-93616019D02*
X112554114Y-93616019D01*
X112554114Y-93616019D02*
X112220781Y-93996971D01*
X112220781Y-93996971D02*
X112363638Y-93996971D01*
X112363638Y-93996971D02*
X112458876Y-94044590D01*
X112458876Y-94044590D02*
X112506495Y-94092209D01*
X112506495Y-94092209D02*
X112554114Y-94187447D01*
X112554114Y-94187447D02*
X112554114Y-94425542D01*
X112554114Y-94425542D02*
X112506495Y-94520780D01*
X112506495Y-94520780D02*
X112458876Y-94568400D01*
X112458876Y-94568400D02*
X112363638Y-94616019D01*
X112363638Y-94616019D02*
X112077924Y-94616019D01*
X112077924Y-94616019D02*
X111982686Y-94568400D01*
X111982686Y-94568400D02*
X111935067Y-94520780D01*
X116793180Y-109183466D02*
X116840800Y-109231085D01*
X116840800Y-109231085D02*
X116888419Y-109373942D01*
X116888419Y-109373942D02*
X116888419Y-109469180D01*
X116888419Y-109469180D02*
X116840800Y-109612037D01*
X116840800Y-109612037D02*
X116745561Y-109707275D01*
X116745561Y-109707275D02*
X116650323Y-109754894D01*
X116650323Y-109754894D02*
X116459847Y-109802513D01*
X116459847Y-109802513D02*
X116316990Y-109802513D01*
X116316990Y-109802513D02*
X116126514Y-109754894D01*
X116126514Y-109754894D02*
X116031276Y-109707275D01*
X116031276Y-109707275D02*
X115936038Y-109612037D01*
X115936038Y-109612037D02*
X115888419Y-109469180D01*
X115888419Y-109469180D02*
X115888419Y-109373942D01*
X115888419Y-109373942D02*
X115936038Y-109231085D01*
X115936038Y-109231085D02*
X115983657Y-109183466D01*
X116221752Y-108326323D02*
X116888419Y-108326323D01*
X115840800Y-108564418D02*
X116555085Y-108802513D01*
X116555085Y-108802513D02*
X116555085Y-108183466D01*
X116572395Y-100807119D02*
X116572395Y-101616642D01*
X116572395Y-101616642D02*
X116620014Y-101711880D01*
X116620014Y-101711880D02*
X116667633Y-101759500D01*
X116667633Y-101759500D02*
X116762871Y-101807119D01*
X116762871Y-101807119D02*
X116953347Y-101807119D01*
X116953347Y-101807119D02*
X117048585Y-101759500D01*
X117048585Y-101759500D02*
X117096204Y-101711880D01*
X117096204Y-101711880D02*
X117143823Y-101616642D01*
X117143823Y-101616642D02*
X117143823Y-100807119D01*
X117524776Y-100807119D02*
X118143823Y-100807119D01*
X118143823Y-100807119D02*
X117810490Y-101188071D01*
X117810490Y-101188071D02*
X117953347Y-101188071D01*
X117953347Y-101188071D02*
X118048585Y-101235690D01*
X118048585Y-101235690D02*
X118096204Y-101283309D01*
X118096204Y-101283309D02*
X118143823Y-101378547D01*
X118143823Y-101378547D02*
X118143823Y-101616642D01*
X118143823Y-101616642D02*
X118096204Y-101711880D01*
X118096204Y-101711880D02*
X118048585Y-101759500D01*
X118048585Y-101759500D02*
X117953347Y-101807119D01*
X117953347Y-101807119D02*
X117667633Y-101807119D01*
X117667633Y-101807119D02*
X117572395Y-101759500D01*
X117572395Y-101759500D02*
X117524776Y-101711880D01*
X138031479Y-111906304D02*
X138841002Y-111906304D01*
X138841002Y-111906304D02*
X138936240Y-111858685D01*
X138936240Y-111858685D02*
X138983860Y-111811066D01*
X138983860Y-111811066D02*
X139031479Y-111715828D01*
X139031479Y-111715828D02*
X139031479Y-111525352D01*
X139031479Y-111525352D02*
X138983860Y-111430114D01*
X138983860Y-111430114D02*
X138936240Y-111382495D01*
X138936240Y-111382495D02*
X138841002Y-111334876D01*
X138841002Y-111334876D02*
X138031479Y-111334876D01*
X138983860Y-110906304D02*
X139031479Y-110763447D01*
X139031479Y-110763447D02*
X139031479Y-110525352D01*
X139031479Y-110525352D02*
X138983860Y-110430114D01*
X138983860Y-110430114D02*
X138936240Y-110382495D01*
X138936240Y-110382495D02*
X138841002Y-110334876D01*
X138841002Y-110334876D02*
X138745764Y-110334876D01*
X138745764Y-110334876D02*
X138650526Y-110382495D01*
X138650526Y-110382495D02*
X138602907Y-110430114D01*
X138602907Y-110430114D02*
X138555288Y-110525352D01*
X138555288Y-110525352D02*
X138507669Y-110715828D01*
X138507669Y-110715828D02*
X138460050Y-110811066D01*
X138460050Y-110811066D02*
X138412431Y-110858685D01*
X138412431Y-110858685D02*
X138317193Y-110906304D01*
X138317193Y-110906304D02*
X138221955Y-110906304D01*
X138221955Y-110906304D02*
X138126717Y-110858685D01*
X138126717Y-110858685D02*
X138079098Y-110811066D01*
X138079098Y-110811066D02*
X138031479Y-110715828D01*
X138031479Y-110715828D02*
X138031479Y-110477733D01*
X138031479Y-110477733D02*
X138079098Y-110334876D01*
X138507669Y-109572971D02*
X138555288Y-109430114D01*
X138555288Y-109430114D02*
X138602907Y-109382495D01*
X138602907Y-109382495D02*
X138698145Y-109334876D01*
X138698145Y-109334876D02*
X138841002Y-109334876D01*
X138841002Y-109334876D02*
X138936240Y-109382495D01*
X138936240Y-109382495D02*
X138983860Y-109430114D01*
X138983860Y-109430114D02*
X139031479Y-109525352D01*
X139031479Y-109525352D02*
X139031479Y-109906304D01*
X139031479Y-109906304D02*
X138031479Y-109906304D01*
X138031479Y-109906304D02*
X138031479Y-109572971D01*
X138031479Y-109572971D02*
X138079098Y-109477733D01*
X138079098Y-109477733D02*
X138126717Y-109430114D01*
X138126717Y-109430114D02*
X138221955Y-109382495D01*
X138221955Y-109382495D02*
X138317193Y-109382495D01*
X138317193Y-109382495D02*
X138412431Y-109430114D01*
X138412431Y-109430114D02*
X138460050Y-109477733D01*
X138460050Y-109477733D02*
X138507669Y-109572971D01*
X138507669Y-109572971D02*
X138507669Y-109906304D01*
X111618733Y-100257780D02*
X111571114Y-100305400D01*
X111571114Y-100305400D02*
X111428257Y-100353019D01*
X111428257Y-100353019D02*
X111333019Y-100353019D01*
X111333019Y-100353019D02*
X111190162Y-100305400D01*
X111190162Y-100305400D02*
X111094924Y-100210161D01*
X111094924Y-100210161D02*
X111047305Y-100114923D01*
X111047305Y-100114923D02*
X110999686Y-99924447D01*
X110999686Y-99924447D02*
X110999686Y-99781590D01*
X110999686Y-99781590D02*
X111047305Y-99591114D01*
X111047305Y-99591114D02*
X111094924Y-99495876D01*
X111094924Y-99495876D02*
X111190162Y-99400638D01*
X111190162Y-99400638D02*
X111333019Y-99353019D01*
X111333019Y-99353019D02*
X111428257Y-99353019D01*
X111428257Y-99353019D02*
X111571114Y-99400638D01*
X111571114Y-99400638D02*
X111618733Y-99448257D01*
X111999686Y-99448257D02*
X112047305Y-99400638D01*
X112047305Y-99400638D02*
X112142543Y-99353019D01*
X112142543Y-99353019D02*
X112380638Y-99353019D01*
X112380638Y-99353019D02*
X112475876Y-99400638D01*
X112475876Y-99400638D02*
X112523495Y-99448257D01*
X112523495Y-99448257D02*
X112571114Y-99543495D01*
X112571114Y-99543495D02*
X112571114Y-99638733D01*
X112571114Y-99638733D02*
X112523495Y-99781590D01*
X112523495Y-99781590D02*
X111952067Y-100353019D01*
X111952067Y-100353019D02*
X112571114Y-100353019D01*
X116497380Y-107049866D02*
X116545000Y-107097485D01*
X116545000Y-107097485D02*
X116592619Y-107240342D01*
X116592619Y-107240342D02*
X116592619Y-107335580D01*
X116592619Y-107335580D02*
X116545000Y-107478437D01*
X116545000Y-107478437D02*
X116449761Y-107573675D01*
X116449761Y-107573675D02*
X116354523Y-107621294D01*
X116354523Y-107621294D02*
X116164047Y-107668913D01*
X116164047Y-107668913D02*
X116021190Y-107668913D01*
X116021190Y-107668913D02*
X115830714Y-107621294D01*
X115830714Y-107621294D02*
X115735476Y-107573675D01*
X115735476Y-107573675D02*
X115640238Y-107478437D01*
X115640238Y-107478437D02*
X115592619Y-107335580D01*
X115592619Y-107335580D02*
X115592619Y-107240342D01*
X115592619Y-107240342D02*
X115640238Y-107097485D01*
X115640238Y-107097485D02*
X115687857Y-107049866D01*
X115592619Y-106145104D02*
X115592619Y-106621294D01*
X115592619Y-106621294D02*
X116068809Y-106668913D01*
X116068809Y-106668913D02*
X116021190Y-106621294D01*
X116021190Y-106621294D02*
X115973571Y-106526056D01*
X115973571Y-106526056D02*
X115973571Y-106287961D01*
X115973571Y-106287961D02*
X116021190Y-106192723D01*
X116021190Y-106192723D02*
X116068809Y-106145104D01*
X116068809Y-106145104D02*
X116164047Y-106097485D01*
X116164047Y-106097485D02*
X116402142Y-106097485D01*
X116402142Y-106097485D02*
X116497380Y-106145104D01*
X116497380Y-106145104D02*
X116545000Y-106192723D01*
X116545000Y-106192723D02*
X116592619Y-106287961D01*
X116592619Y-106287961D02*
X116592619Y-106526056D01*
X116592619Y-106526056D02*
X116545000Y-106621294D01*
X116545000Y-106621294D02*
X116497380Y-106668913D01*
X110468580Y-112460066D02*
X110516200Y-112507685D01*
X110516200Y-112507685D02*
X110563819Y-112650542D01*
X110563819Y-112650542D02*
X110563819Y-112745780D01*
X110563819Y-112745780D02*
X110516200Y-112888637D01*
X110516200Y-112888637D02*
X110420961Y-112983875D01*
X110420961Y-112983875D02*
X110325723Y-113031494D01*
X110325723Y-113031494D02*
X110135247Y-113079113D01*
X110135247Y-113079113D02*
X109992390Y-113079113D01*
X109992390Y-113079113D02*
X109801914Y-113031494D01*
X109801914Y-113031494D02*
X109706676Y-112983875D01*
X109706676Y-112983875D02*
X109611438Y-112888637D01*
X109611438Y-112888637D02*
X109563819Y-112745780D01*
X109563819Y-112745780D02*
X109563819Y-112650542D01*
X109563819Y-112650542D02*
X109611438Y-112507685D01*
X109611438Y-112507685D02*
X109659057Y-112460066D01*
X109563819Y-111602923D02*
X109563819Y-111793399D01*
X109563819Y-111793399D02*
X109611438Y-111888637D01*
X109611438Y-111888637D02*
X109659057Y-111936256D01*
X109659057Y-111936256D02*
X109801914Y-112031494D01*
X109801914Y-112031494D02*
X109992390Y-112079113D01*
X109992390Y-112079113D02*
X110373342Y-112079113D01*
X110373342Y-112079113D02*
X110468580Y-112031494D01*
X110468580Y-112031494D02*
X110516200Y-111983875D01*
X110516200Y-111983875D02*
X110563819Y-111888637D01*
X110563819Y-111888637D02*
X110563819Y-111698161D01*
X110563819Y-111698161D02*
X110516200Y-111602923D01*
X110516200Y-111602923D02*
X110468580Y-111555304D01*
X110468580Y-111555304D02*
X110373342Y-111507685D01*
X110373342Y-111507685D02*
X110135247Y-111507685D01*
X110135247Y-111507685D02*
X110040009Y-111555304D01*
X110040009Y-111555304D02*
X109992390Y-111602923D01*
X109992390Y-111602923D02*
X109944771Y-111698161D01*
X109944771Y-111698161D02*
X109944771Y-111888637D01*
X109944771Y-111888637D02*
X109992390Y-111983875D01*
X109992390Y-111983875D02*
X110040009Y-112031494D01*
X110040009Y-112031494D02*
X110135247Y-112079113D01*
X132185042Y-90867780D02*
X132137423Y-90915400D01*
X132137423Y-90915400D02*
X131994566Y-90963019D01*
X131994566Y-90963019D02*
X131899328Y-90963019D01*
X131899328Y-90963019D02*
X131756471Y-90915400D01*
X131756471Y-90915400D02*
X131661233Y-90820161D01*
X131661233Y-90820161D02*
X131613614Y-90724923D01*
X131613614Y-90724923D02*
X131565995Y-90534447D01*
X131565995Y-90534447D02*
X131565995Y-90391590D01*
X131565995Y-90391590D02*
X131613614Y-90201114D01*
X131613614Y-90201114D02*
X131661233Y-90105876D01*
X131661233Y-90105876D02*
X131756471Y-90010638D01*
X131756471Y-90010638D02*
X131899328Y-89963019D01*
X131899328Y-89963019D02*
X131994566Y-89963019D01*
X131994566Y-89963019D02*
X132137423Y-90010638D01*
X132137423Y-90010638D02*
X132185042Y-90058257D01*
X133137423Y-90963019D02*
X132565995Y-90963019D01*
X132851709Y-90963019D02*
X132851709Y-89963019D01*
X132851709Y-89963019D02*
X132756471Y-90105876D01*
X132756471Y-90105876D02*
X132661233Y-90201114D01*
X132661233Y-90201114D02*
X132565995Y-90248733D01*
X133518376Y-90058257D02*
X133565995Y-90010638D01*
X133565995Y-90010638D02*
X133661233Y-89963019D01*
X133661233Y-89963019D02*
X133899328Y-89963019D01*
X133899328Y-89963019D02*
X133994566Y-90010638D01*
X133994566Y-90010638D02*
X134042185Y-90058257D01*
X134042185Y-90058257D02*
X134089804Y-90153495D01*
X134089804Y-90153495D02*
X134089804Y-90248733D01*
X134089804Y-90248733D02*
X134042185Y-90391590D01*
X134042185Y-90391590D02*
X133470757Y-90963019D01*
X133470757Y-90963019D02*
X134089804Y-90963019D01*
X109814819Y-118698094D02*
X108814819Y-118698094D01*
X108814819Y-118698094D02*
X108814819Y-118459999D01*
X108814819Y-118459999D02*
X108862438Y-118317142D01*
X108862438Y-118317142D02*
X108957676Y-118221904D01*
X108957676Y-118221904D02*
X109052914Y-118174285D01*
X109052914Y-118174285D02*
X109243390Y-118126666D01*
X109243390Y-118126666D02*
X109386247Y-118126666D01*
X109386247Y-118126666D02*
X109576723Y-118174285D01*
X109576723Y-118174285D02*
X109671961Y-118221904D01*
X109671961Y-118221904D02*
X109767200Y-118317142D01*
X109767200Y-118317142D02*
X109814819Y-118459999D01*
X109814819Y-118459999D02*
X109814819Y-118698094D01*
X109814819Y-117174285D02*
X109814819Y-117745713D01*
X109814819Y-117459999D02*
X108814819Y-117459999D01*
X108814819Y-117459999D02*
X108957676Y-117555237D01*
X108957676Y-117555237D02*
X109052914Y-117650475D01*
X109052914Y-117650475D02*
X109100533Y-117745713D01*
X142667142Y-115204819D02*
X142333809Y-114728628D01*
X142095714Y-115204819D02*
X142095714Y-114204819D01*
X142095714Y-114204819D02*
X142476666Y-114204819D01*
X142476666Y-114204819D02*
X142571904Y-114252438D01*
X142571904Y-114252438D02*
X142619523Y-114300057D01*
X142619523Y-114300057D02*
X142667142Y-114395295D01*
X142667142Y-114395295D02*
X142667142Y-114538152D01*
X142667142Y-114538152D02*
X142619523Y-114633390D01*
X142619523Y-114633390D02*
X142571904Y-114681009D01*
X142571904Y-114681009D02*
X142476666Y-114728628D01*
X142476666Y-114728628D02*
X142095714Y-114728628D01*
X143619523Y-115204819D02*
X143048095Y-115204819D01*
X143333809Y-115204819D02*
X143333809Y-114204819D01*
X143333809Y-114204819D02*
X143238571Y-114347676D01*
X143238571Y-114347676D02*
X143143333Y-114442914D01*
X143143333Y-114442914D02*
X143048095Y-114490533D01*
X144190952Y-114633390D02*
X144095714Y-114585771D01*
X144095714Y-114585771D02*
X144048095Y-114538152D01*
X144048095Y-114538152D02*
X144000476Y-114442914D01*
X144000476Y-114442914D02*
X144000476Y-114395295D01*
X144000476Y-114395295D02*
X144048095Y-114300057D01*
X144048095Y-114300057D02*
X144095714Y-114252438D01*
X144095714Y-114252438D02*
X144190952Y-114204819D01*
X144190952Y-114204819D02*
X144381428Y-114204819D01*
X144381428Y-114204819D02*
X144476666Y-114252438D01*
X144476666Y-114252438D02*
X144524285Y-114300057D01*
X144524285Y-114300057D02*
X144571904Y-114395295D01*
X144571904Y-114395295D02*
X144571904Y-114442914D01*
X144571904Y-114442914D02*
X144524285Y-114538152D01*
X144524285Y-114538152D02*
X144476666Y-114585771D01*
X144476666Y-114585771D02*
X144381428Y-114633390D01*
X144381428Y-114633390D02*
X144190952Y-114633390D01*
X144190952Y-114633390D02*
X144095714Y-114681009D01*
X144095714Y-114681009D02*
X144048095Y-114728628D01*
X144048095Y-114728628D02*
X144000476Y-114823866D01*
X144000476Y-114823866D02*
X144000476Y-115014342D01*
X144000476Y-115014342D02*
X144048095Y-115109580D01*
X144048095Y-115109580D02*
X144095714Y-115157200D01*
X144095714Y-115157200D02*
X144190952Y-115204819D01*
X144190952Y-115204819D02*
X144381428Y-115204819D01*
X144381428Y-115204819D02*
X144476666Y-115157200D01*
X144476666Y-115157200D02*
X144524285Y-115109580D01*
X144524285Y-115109580D02*
X144571904Y-115014342D01*
X144571904Y-115014342D02*
X144571904Y-114823866D01*
X144571904Y-114823866D02*
X144524285Y-114728628D01*
X144524285Y-114728628D02*
X144476666Y-114681009D01*
X144476666Y-114681009D02*
X144381428Y-114633390D01*
X109827219Y-101963457D02*
X109351028Y-102296790D01*
X109827219Y-102534885D02*
X108827219Y-102534885D01*
X108827219Y-102534885D02*
X108827219Y-102153933D01*
X108827219Y-102153933D02*
X108874838Y-102058695D01*
X108874838Y-102058695D02*
X108922457Y-102011076D01*
X108922457Y-102011076D02*
X109017695Y-101963457D01*
X109017695Y-101963457D02*
X109160552Y-101963457D01*
X109160552Y-101963457D02*
X109255790Y-102011076D01*
X109255790Y-102011076D02*
X109303409Y-102058695D01*
X109303409Y-102058695D02*
X109351028Y-102153933D01*
X109351028Y-102153933D02*
X109351028Y-102534885D01*
X108827219Y-101058695D02*
X108827219Y-101534885D01*
X108827219Y-101534885D02*
X109303409Y-101582504D01*
X109303409Y-101582504D02*
X109255790Y-101534885D01*
X109255790Y-101534885D02*
X109208171Y-101439647D01*
X109208171Y-101439647D02*
X109208171Y-101201552D01*
X109208171Y-101201552D02*
X109255790Y-101106314D01*
X109255790Y-101106314D02*
X109303409Y-101058695D01*
X109303409Y-101058695D02*
X109398647Y-101011076D01*
X109398647Y-101011076D02*
X109636742Y-101011076D01*
X109636742Y-101011076D02*
X109731980Y-101058695D01*
X109731980Y-101058695D02*
X109779600Y-101106314D01*
X109779600Y-101106314D02*
X109827219Y-101201552D01*
X109827219Y-101201552D02*
X109827219Y-101439647D01*
X109827219Y-101439647D02*
X109779600Y-101534885D01*
X109779600Y-101534885D02*
X109731980Y-101582504D01*
X108827219Y-100153933D02*
X108827219Y-100344409D01*
X108827219Y-100344409D02*
X108874838Y-100439647D01*
X108874838Y-100439647D02*
X108922457Y-100487266D01*
X108922457Y-100487266D02*
X109065314Y-100582504D01*
X109065314Y-100582504D02*
X109255790Y-100630123D01*
X109255790Y-100630123D02*
X109636742Y-100630123D01*
X109636742Y-100630123D02*
X109731980Y-100582504D01*
X109731980Y-100582504D02*
X109779600Y-100534885D01*
X109779600Y-100534885D02*
X109827219Y-100439647D01*
X109827219Y-100439647D02*
X109827219Y-100249171D01*
X109827219Y-100249171D02*
X109779600Y-100153933D01*
X109779600Y-100153933D02*
X109731980Y-100106314D01*
X109731980Y-100106314D02*
X109636742Y-100058695D01*
X109636742Y-100058695D02*
X109398647Y-100058695D01*
X109398647Y-100058695D02*
X109303409Y-100106314D01*
X109303409Y-100106314D02*
X109255790Y-100153933D01*
X109255790Y-100153933D02*
X109208171Y-100249171D01*
X109208171Y-100249171D02*
X109208171Y-100439647D01*
X109208171Y-100439647D02*
X109255790Y-100534885D01*
X109255790Y-100534885D02*
X109303409Y-100582504D01*
X109303409Y-100582504D02*
X109398647Y-100630123D01*
X133443333Y-126059580D02*
X133395714Y-126107200D01*
X133395714Y-126107200D02*
X133252857Y-126154819D01*
X133252857Y-126154819D02*
X133157619Y-126154819D01*
X133157619Y-126154819D02*
X133014762Y-126107200D01*
X133014762Y-126107200D02*
X132919524Y-126011961D01*
X132919524Y-126011961D02*
X132871905Y-125916723D01*
X132871905Y-125916723D02*
X132824286Y-125726247D01*
X132824286Y-125726247D02*
X132824286Y-125583390D01*
X132824286Y-125583390D02*
X132871905Y-125392914D01*
X132871905Y-125392914D02*
X132919524Y-125297676D01*
X132919524Y-125297676D02*
X133014762Y-125202438D01*
X133014762Y-125202438D02*
X133157619Y-125154819D01*
X133157619Y-125154819D02*
X133252857Y-125154819D01*
X133252857Y-125154819D02*
X133395714Y-125202438D01*
X133395714Y-125202438D02*
X133443333Y-125250057D01*
X134014762Y-125583390D02*
X133919524Y-125535771D01*
X133919524Y-125535771D02*
X133871905Y-125488152D01*
X133871905Y-125488152D02*
X133824286Y-125392914D01*
X133824286Y-125392914D02*
X133824286Y-125345295D01*
X133824286Y-125345295D02*
X133871905Y-125250057D01*
X133871905Y-125250057D02*
X133919524Y-125202438D01*
X133919524Y-125202438D02*
X134014762Y-125154819D01*
X134014762Y-125154819D02*
X134205238Y-125154819D01*
X134205238Y-125154819D02*
X134300476Y-125202438D01*
X134300476Y-125202438D02*
X134348095Y-125250057D01*
X134348095Y-125250057D02*
X134395714Y-125345295D01*
X134395714Y-125345295D02*
X134395714Y-125392914D01*
X134395714Y-125392914D02*
X134348095Y-125488152D01*
X134348095Y-125488152D02*
X134300476Y-125535771D01*
X134300476Y-125535771D02*
X134205238Y-125583390D01*
X134205238Y-125583390D02*
X134014762Y-125583390D01*
X134014762Y-125583390D02*
X133919524Y-125631009D01*
X133919524Y-125631009D02*
X133871905Y-125678628D01*
X133871905Y-125678628D02*
X133824286Y-125773866D01*
X133824286Y-125773866D02*
X133824286Y-125964342D01*
X133824286Y-125964342D02*
X133871905Y-126059580D01*
X133871905Y-126059580D02*
X133919524Y-126107200D01*
X133919524Y-126107200D02*
X134014762Y-126154819D01*
X134014762Y-126154819D02*
X134205238Y-126154819D01*
X134205238Y-126154819D02*
X134300476Y-126107200D01*
X134300476Y-126107200D02*
X134348095Y-126059580D01*
X134348095Y-126059580D02*
X134395714Y-125964342D01*
X134395714Y-125964342D02*
X134395714Y-125773866D01*
X134395714Y-125773866D02*
X134348095Y-125678628D01*
X134348095Y-125678628D02*
X134300476Y-125631009D01*
X134300476Y-125631009D02*
X134205238Y-125583390D01*
X134468095Y-114524819D02*
X134468095Y-115334342D01*
X134468095Y-115334342D02*
X134515714Y-115429580D01*
X134515714Y-115429580D02*
X134563333Y-115477200D01*
X134563333Y-115477200D02*
X134658571Y-115524819D01*
X134658571Y-115524819D02*
X134849047Y-115524819D01*
X134849047Y-115524819D02*
X134944285Y-115477200D01*
X134944285Y-115477200D02*
X134991904Y-115429580D01*
X134991904Y-115429580D02*
X135039523Y-115334342D01*
X135039523Y-115334342D02*
X135039523Y-114524819D01*
X135944285Y-114858152D02*
X135944285Y-115524819D01*
X135706190Y-114477200D02*
X135468095Y-115191485D01*
X135468095Y-115191485D02*
X136087142Y-115191485D01*
X139607142Y-102564819D02*
X139273809Y-102088628D01*
X139035714Y-102564819D02*
X139035714Y-101564819D01*
X139035714Y-101564819D02*
X139416666Y-101564819D01*
X139416666Y-101564819D02*
X139511904Y-101612438D01*
X139511904Y-101612438D02*
X139559523Y-101660057D01*
X139559523Y-101660057D02*
X139607142Y-101755295D01*
X139607142Y-101755295D02*
X139607142Y-101898152D01*
X139607142Y-101898152D02*
X139559523Y-101993390D01*
X139559523Y-101993390D02*
X139511904Y-102041009D01*
X139511904Y-102041009D02*
X139416666Y-102088628D01*
X139416666Y-102088628D02*
X139035714Y-102088628D01*
X140559523Y-102564819D02*
X139988095Y-102564819D01*
X140273809Y-102564819D02*
X140273809Y-101564819D01*
X140273809Y-101564819D02*
X140178571Y-101707676D01*
X140178571Y-101707676D02*
X140083333Y-101802914D01*
X140083333Y-101802914D02*
X139988095Y-101850533D01*
X140892857Y-101564819D02*
X141511904Y-101564819D01*
X141511904Y-101564819D02*
X141178571Y-101945771D01*
X141178571Y-101945771D02*
X141321428Y-101945771D01*
X141321428Y-101945771D02*
X141416666Y-101993390D01*
X141416666Y-101993390D02*
X141464285Y-102041009D01*
X141464285Y-102041009D02*
X141511904Y-102136247D01*
X141511904Y-102136247D02*
X141511904Y-102374342D01*
X141511904Y-102374342D02*
X141464285Y-102469580D01*
X141464285Y-102469580D02*
X141416666Y-102517200D01*
X141416666Y-102517200D02*
X141321428Y-102564819D01*
X141321428Y-102564819D02*
X141035714Y-102564819D01*
X141035714Y-102564819D02*
X140940476Y-102517200D01*
X140940476Y-102517200D02*
X140892857Y-102469580D01*
X142814642Y-118334819D02*
X142481309Y-117858628D01*
X142243214Y-118334819D02*
X142243214Y-117334819D01*
X142243214Y-117334819D02*
X142624166Y-117334819D01*
X142624166Y-117334819D02*
X142719404Y-117382438D01*
X142719404Y-117382438D02*
X142767023Y-117430057D01*
X142767023Y-117430057D02*
X142814642Y-117525295D01*
X142814642Y-117525295D02*
X142814642Y-117668152D01*
X142814642Y-117668152D02*
X142767023Y-117763390D01*
X142767023Y-117763390D02*
X142719404Y-117811009D01*
X142719404Y-117811009D02*
X142624166Y-117858628D01*
X142624166Y-117858628D02*
X142243214Y-117858628D01*
X143767023Y-118334819D02*
X143195595Y-118334819D01*
X143481309Y-118334819D02*
X143481309Y-117334819D01*
X143481309Y-117334819D02*
X143386071Y-117477676D01*
X143386071Y-117477676D02*
X143290833Y-117572914D01*
X143290833Y-117572914D02*
X143195595Y-117620533D01*
X144243214Y-118334819D02*
X144433690Y-118334819D01*
X144433690Y-118334819D02*
X144528928Y-118287200D01*
X144528928Y-118287200D02*
X144576547Y-118239580D01*
X144576547Y-118239580D02*
X144671785Y-118096723D01*
X144671785Y-118096723D02*
X144719404Y-117906247D01*
X144719404Y-117906247D02*
X144719404Y-117525295D01*
X144719404Y-117525295D02*
X144671785Y-117430057D01*
X144671785Y-117430057D02*
X144624166Y-117382438D01*
X144624166Y-117382438D02*
X144528928Y-117334819D01*
X144528928Y-117334819D02*
X144338452Y-117334819D01*
X144338452Y-117334819D02*
X144243214Y-117382438D01*
X144243214Y-117382438D02*
X144195595Y-117430057D01*
X144195595Y-117430057D02*
X144147976Y-117525295D01*
X144147976Y-117525295D02*
X144147976Y-117763390D01*
X144147976Y-117763390D02*
X144195595Y-117858628D01*
X144195595Y-117858628D02*
X144243214Y-117906247D01*
X144243214Y-117906247D02*
X144338452Y-117953866D01*
X144338452Y-117953866D02*
X144528928Y-117953866D01*
X144528928Y-117953866D02*
X144624166Y-117906247D01*
X144624166Y-117906247D02*
X144671785Y-117858628D01*
X144671785Y-117858628D02*
X144719404Y-117763390D01*
X118767142Y-108889580D02*
X118719523Y-108937200D01*
X118719523Y-108937200D02*
X118576666Y-108984819D01*
X118576666Y-108984819D02*
X118481428Y-108984819D01*
X118481428Y-108984819D02*
X118338571Y-108937200D01*
X118338571Y-108937200D02*
X118243333Y-108841961D01*
X118243333Y-108841961D02*
X118195714Y-108746723D01*
X118195714Y-108746723D02*
X118148095Y-108556247D01*
X118148095Y-108556247D02*
X118148095Y-108413390D01*
X118148095Y-108413390D02*
X118195714Y-108222914D01*
X118195714Y-108222914D02*
X118243333Y-108127676D01*
X118243333Y-108127676D02*
X118338571Y-108032438D01*
X118338571Y-108032438D02*
X118481428Y-107984819D01*
X118481428Y-107984819D02*
X118576666Y-107984819D01*
X118576666Y-107984819D02*
X118719523Y-108032438D01*
X118719523Y-108032438D02*
X118767142Y-108080057D01*
X119719523Y-108984819D02*
X119148095Y-108984819D01*
X119433809Y-108984819D02*
X119433809Y-107984819D01*
X119433809Y-107984819D02*
X119338571Y-108127676D01*
X119338571Y-108127676D02*
X119243333Y-108222914D01*
X119243333Y-108222914D02*
X119148095Y-108270533D01*
X120624285Y-107984819D02*
X120148095Y-107984819D01*
X120148095Y-107984819D02*
X120100476Y-108461009D01*
X120100476Y-108461009D02*
X120148095Y-108413390D01*
X120148095Y-108413390D02*
X120243333Y-108365771D01*
X120243333Y-108365771D02*
X120481428Y-108365771D01*
X120481428Y-108365771D02*
X120576666Y-108413390D01*
X120576666Y-108413390D02*
X120624285Y-108461009D01*
X120624285Y-108461009D02*
X120671904Y-108556247D01*
X120671904Y-108556247D02*
X120671904Y-108794342D01*
X120671904Y-108794342D02*
X120624285Y-108889580D01*
X120624285Y-108889580D02*
X120576666Y-108937200D01*
X120576666Y-108937200D02*
X120481428Y-108984819D01*
X120481428Y-108984819D02*
X120243333Y-108984819D01*
X120243333Y-108984819D02*
X120148095Y-108937200D01*
X120148095Y-108937200D02*
X120100476Y-108889580D01*
X139591942Y-103979019D02*
X139258609Y-103502828D01*
X139020514Y-103979019D02*
X139020514Y-102979019D01*
X139020514Y-102979019D02*
X139401466Y-102979019D01*
X139401466Y-102979019D02*
X139496704Y-103026638D01*
X139496704Y-103026638D02*
X139544323Y-103074257D01*
X139544323Y-103074257D02*
X139591942Y-103169495D01*
X139591942Y-103169495D02*
X139591942Y-103312352D01*
X139591942Y-103312352D02*
X139544323Y-103407590D01*
X139544323Y-103407590D02*
X139496704Y-103455209D01*
X139496704Y-103455209D02*
X139401466Y-103502828D01*
X139401466Y-103502828D02*
X139020514Y-103502828D01*
X140544323Y-103979019D02*
X139972895Y-103979019D01*
X140258609Y-103979019D02*
X140258609Y-102979019D01*
X140258609Y-102979019D02*
X140163371Y-103121876D01*
X140163371Y-103121876D02*
X140068133Y-103217114D01*
X140068133Y-103217114D02*
X139972895Y-103264733D01*
X141401466Y-103312352D02*
X141401466Y-103979019D01*
X141163371Y-102931400D02*
X140925276Y-103645685D01*
X140925276Y-103645685D02*
X141544323Y-103645685D01*
X133474642Y-104334819D02*
X133141309Y-103858628D01*
X132903214Y-104334819D02*
X132903214Y-103334819D01*
X132903214Y-103334819D02*
X133284166Y-103334819D01*
X133284166Y-103334819D02*
X133379404Y-103382438D01*
X133379404Y-103382438D02*
X133427023Y-103430057D01*
X133427023Y-103430057D02*
X133474642Y-103525295D01*
X133474642Y-103525295D02*
X133474642Y-103668152D01*
X133474642Y-103668152D02*
X133427023Y-103763390D01*
X133427023Y-103763390D02*
X133379404Y-103811009D01*
X133379404Y-103811009D02*
X133284166Y-103858628D01*
X133284166Y-103858628D02*
X132903214Y-103858628D01*
X134427023Y-104334819D02*
X133855595Y-104334819D01*
X134141309Y-104334819D02*
X134141309Y-103334819D01*
X134141309Y-103334819D02*
X134046071Y-103477676D01*
X134046071Y-103477676D02*
X133950833Y-103572914D01*
X133950833Y-103572914D02*
X133855595Y-103620533D01*
X135379404Y-104334819D02*
X134807976Y-104334819D01*
X135093690Y-104334819D02*
X135093690Y-103334819D01*
X135093690Y-103334819D02*
X134998452Y-103477676D01*
X134998452Y-103477676D02*
X134903214Y-103572914D01*
X134903214Y-103572914D02*
X134807976Y-103620533D01*
X127489580Y-79472857D02*
X127537200Y-79520476D01*
X127537200Y-79520476D02*
X127584819Y-79663333D01*
X127584819Y-79663333D02*
X127584819Y-79758571D01*
X127584819Y-79758571D02*
X127537200Y-79901428D01*
X127537200Y-79901428D02*
X127441961Y-79996666D01*
X127441961Y-79996666D02*
X127346723Y-80044285D01*
X127346723Y-80044285D02*
X127156247Y-80091904D01*
X127156247Y-80091904D02*
X127013390Y-80091904D01*
X127013390Y-80091904D02*
X126822914Y-80044285D01*
X126822914Y-80044285D02*
X126727676Y-79996666D01*
X126727676Y-79996666D02*
X126632438Y-79901428D01*
X126632438Y-79901428D02*
X126584819Y-79758571D01*
X126584819Y-79758571D02*
X126584819Y-79663333D01*
X126584819Y-79663333D02*
X126632438Y-79520476D01*
X126632438Y-79520476D02*
X126680057Y-79472857D01*
X127584819Y-78520476D02*
X127584819Y-79091904D01*
X127584819Y-78806190D02*
X126584819Y-78806190D01*
X126584819Y-78806190D02*
X126727676Y-78901428D01*
X126727676Y-78901428D02*
X126822914Y-78996666D01*
X126822914Y-78996666D02*
X126870533Y-79091904D01*
X126584819Y-77663333D02*
X126584819Y-77853809D01*
X126584819Y-77853809D02*
X126632438Y-77949047D01*
X126632438Y-77949047D02*
X126680057Y-77996666D01*
X126680057Y-77996666D02*
X126822914Y-78091904D01*
X126822914Y-78091904D02*
X127013390Y-78139523D01*
X127013390Y-78139523D02*
X127394342Y-78139523D01*
X127394342Y-78139523D02*
X127489580Y-78091904D01*
X127489580Y-78091904D02*
X127537200Y-78044285D01*
X127537200Y-78044285D02*
X127584819Y-77949047D01*
X127584819Y-77949047D02*
X127584819Y-77758571D01*
X127584819Y-77758571D02*
X127537200Y-77663333D01*
X127537200Y-77663333D02*
X127489580Y-77615714D01*
X127489580Y-77615714D02*
X127394342Y-77568095D01*
X127394342Y-77568095D02*
X127156247Y-77568095D01*
X127156247Y-77568095D02*
X127061009Y-77615714D01*
X127061009Y-77615714D02*
X127013390Y-77663333D01*
X127013390Y-77663333D02*
X126965771Y-77758571D01*
X126965771Y-77758571D02*
X126965771Y-77949047D01*
X126965771Y-77949047D02*
X127013390Y-78044285D01*
X127013390Y-78044285D02*
X127061009Y-78091904D01*
X127061009Y-78091904D02*
X127156247Y-78139523D01*
X138387142Y-108344819D02*
X138053809Y-107868628D01*
X137815714Y-108344819D02*
X137815714Y-107344819D01*
X137815714Y-107344819D02*
X138196666Y-107344819D01*
X138196666Y-107344819D02*
X138291904Y-107392438D01*
X138291904Y-107392438D02*
X138339523Y-107440057D01*
X138339523Y-107440057D02*
X138387142Y-107535295D01*
X138387142Y-107535295D02*
X138387142Y-107678152D01*
X138387142Y-107678152D02*
X138339523Y-107773390D01*
X138339523Y-107773390D02*
X138291904Y-107821009D01*
X138291904Y-107821009D02*
X138196666Y-107868628D01*
X138196666Y-107868628D02*
X137815714Y-107868628D01*
X139339523Y-108344819D02*
X138768095Y-108344819D01*
X139053809Y-108344819D02*
X139053809Y-107344819D01*
X139053809Y-107344819D02*
X138958571Y-107487676D01*
X138958571Y-107487676D02*
X138863333Y-107582914D01*
X138863333Y-107582914D02*
X138768095Y-107630533D01*
X140196666Y-107344819D02*
X140006190Y-107344819D01*
X140006190Y-107344819D02*
X139910952Y-107392438D01*
X139910952Y-107392438D02*
X139863333Y-107440057D01*
X139863333Y-107440057D02*
X139768095Y-107582914D01*
X139768095Y-107582914D02*
X139720476Y-107773390D01*
X139720476Y-107773390D02*
X139720476Y-108154342D01*
X139720476Y-108154342D02*
X139768095Y-108249580D01*
X139768095Y-108249580D02*
X139815714Y-108297200D01*
X139815714Y-108297200D02*
X139910952Y-108344819D01*
X139910952Y-108344819D02*
X140101428Y-108344819D01*
X140101428Y-108344819D02*
X140196666Y-108297200D01*
X140196666Y-108297200D02*
X140244285Y-108249580D01*
X140244285Y-108249580D02*
X140291904Y-108154342D01*
X140291904Y-108154342D02*
X140291904Y-107916247D01*
X140291904Y-107916247D02*
X140244285Y-107821009D01*
X140244285Y-107821009D02*
X140196666Y-107773390D01*
X140196666Y-107773390D02*
X140101428Y-107725771D01*
X140101428Y-107725771D02*
X139910952Y-107725771D01*
X139910952Y-107725771D02*
X139815714Y-107773390D01*
X139815714Y-107773390D02*
X139768095Y-107821009D01*
X139768095Y-107821009D02*
X139720476Y-107916247D01*
X138708095Y-92714819D02*
X138708095Y-93524342D01*
X138708095Y-93524342D02*
X138755714Y-93619580D01*
X138755714Y-93619580D02*
X138803333Y-93667200D01*
X138803333Y-93667200D02*
X138898571Y-93714819D01*
X138898571Y-93714819D02*
X139089047Y-93714819D01*
X139089047Y-93714819D02*
X139184285Y-93667200D01*
X139184285Y-93667200D02*
X139231904Y-93619580D01*
X139231904Y-93619580D02*
X139279523Y-93524342D01*
X139279523Y-93524342D02*
X139279523Y-92714819D01*
X140279523Y-93714819D02*
X139708095Y-93714819D01*
X139993809Y-93714819D02*
X139993809Y-92714819D01*
X139993809Y-92714819D02*
X139898571Y-92857676D01*
X139898571Y-92857676D02*
X139803333Y-92952914D01*
X139803333Y-92952914D02*
X139708095Y-93000533D01*
X142640442Y-112374819D02*
X142307109Y-111898628D01*
X142069014Y-112374819D02*
X142069014Y-111374819D01*
X142069014Y-111374819D02*
X142449966Y-111374819D01*
X142449966Y-111374819D02*
X142545204Y-111422438D01*
X142545204Y-111422438D02*
X142592823Y-111470057D01*
X142592823Y-111470057D02*
X142640442Y-111565295D01*
X142640442Y-111565295D02*
X142640442Y-111708152D01*
X142640442Y-111708152D02*
X142592823Y-111803390D01*
X142592823Y-111803390D02*
X142545204Y-111851009D01*
X142545204Y-111851009D02*
X142449966Y-111898628D01*
X142449966Y-111898628D02*
X142069014Y-111898628D01*
X143592823Y-112374819D02*
X143021395Y-112374819D01*
X143307109Y-112374819D02*
X143307109Y-111374819D01*
X143307109Y-111374819D02*
X143211871Y-111517676D01*
X143211871Y-111517676D02*
X143116633Y-111612914D01*
X143116633Y-111612914D02*
X143021395Y-111660533D01*
X143926157Y-111374819D02*
X144592823Y-111374819D01*
X144592823Y-111374819D02*
X144164252Y-112374819D01*
X136847142Y-125899580D02*
X136799523Y-125947200D01*
X136799523Y-125947200D02*
X136656666Y-125994819D01*
X136656666Y-125994819D02*
X136561428Y-125994819D01*
X136561428Y-125994819D02*
X136418571Y-125947200D01*
X136418571Y-125947200D02*
X136323333Y-125851961D01*
X136323333Y-125851961D02*
X136275714Y-125756723D01*
X136275714Y-125756723D02*
X136228095Y-125566247D01*
X136228095Y-125566247D02*
X136228095Y-125423390D01*
X136228095Y-125423390D02*
X136275714Y-125232914D01*
X136275714Y-125232914D02*
X136323333Y-125137676D01*
X136323333Y-125137676D02*
X136418571Y-125042438D01*
X136418571Y-125042438D02*
X136561428Y-124994819D01*
X136561428Y-124994819D02*
X136656666Y-124994819D01*
X136656666Y-124994819D02*
X136799523Y-125042438D01*
X136799523Y-125042438D02*
X136847142Y-125090057D01*
X137799523Y-125994819D02*
X137228095Y-125994819D01*
X137513809Y-125994819D02*
X137513809Y-124994819D01*
X137513809Y-124994819D02*
X137418571Y-125137676D01*
X137418571Y-125137676D02*
X137323333Y-125232914D01*
X137323333Y-125232914D02*
X137228095Y-125280533D01*
X138418571Y-124994819D02*
X138513809Y-124994819D01*
X138513809Y-124994819D02*
X138609047Y-125042438D01*
X138609047Y-125042438D02*
X138656666Y-125090057D01*
X138656666Y-125090057D02*
X138704285Y-125185295D01*
X138704285Y-125185295D02*
X138751904Y-125375771D01*
X138751904Y-125375771D02*
X138751904Y-125613866D01*
X138751904Y-125613866D02*
X138704285Y-125804342D01*
X138704285Y-125804342D02*
X138656666Y-125899580D01*
X138656666Y-125899580D02*
X138609047Y-125947200D01*
X138609047Y-125947200D02*
X138513809Y-125994819D01*
X138513809Y-125994819D02*
X138418571Y-125994819D01*
X138418571Y-125994819D02*
X138323333Y-125947200D01*
X138323333Y-125947200D02*
X138275714Y-125899580D01*
X138275714Y-125899580D02*
X138228095Y-125804342D01*
X138228095Y-125804342D02*
X138180476Y-125613866D01*
X138180476Y-125613866D02*
X138180476Y-125375771D01*
X138180476Y-125375771D02*
X138228095Y-125185295D01*
X138228095Y-125185295D02*
X138275714Y-125090057D01*
X138275714Y-125090057D02*
X138323333Y-125042438D01*
X138323333Y-125042438D02*
X138418571Y-124994819D01*
X123837242Y-86604430D02*
X123789623Y-86652050D01*
X123789623Y-86652050D02*
X123646766Y-86699669D01*
X123646766Y-86699669D02*
X123551528Y-86699669D01*
X123551528Y-86699669D02*
X123408671Y-86652050D01*
X123408671Y-86652050D02*
X123313433Y-86556811D01*
X123313433Y-86556811D02*
X123265814Y-86461573D01*
X123265814Y-86461573D02*
X123218195Y-86271097D01*
X123218195Y-86271097D02*
X123218195Y-86128240D01*
X123218195Y-86128240D02*
X123265814Y-85937764D01*
X123265814Y-85937764D02*
X123313433Y-85842526D01*
X123313433Y-85842526D02*
X123408671Y-85747288D01*
X123408671Y-85747288D02*
X123551528Y-85699669D01*
X123551528Y-85699669D02*
X123646766Y-85699669D01*
X123646766Y-85699669D02*
X123789623Y-85747288D01*
X123789623Y-85747288D02*
X123837242Y-85794907D01*
X124789623Y-86699669D02*
X124218195Y-86699669D01*
X124503909Y-86699669D02*
X124503909Y-85699669D01*
X124503909Y-85699669D02*
X124408671Y-85842526D01*
X124408671Y-85842526D02*
X124313433Y-85937764D01*
X124313433Y-85937764D02*
X124218195Y-85985383D01*
X125122957Y-85699669D02*
X125742004Y-85699669D01*
X125742004Y-85699669D02*
X125408671Y-86080621D01*
X125408671Y-86080621D02*
X125551528Y-86080621D01*
X125551528Y-86080621D02*
X125646766Y-86128240D01*
X125646766Y-86128240D02*
X125694385Y-86175859D01*
X125694385Y-86175859D02*
X125742004Y-86271097D01*
X125742004Y-86271097D02*
X125742004Y-86509192D01*
X125742004Y-86509192D02*
X125694385Y-86604430D01*
X125694385Y-86604430D02*
X125646766Y-86652050D01*
X125646766Y-86652050D02*
X125551528Y-86699669D01*
X125551528Y-86699669D02*
X125265814Y-86699669D01*
X125265814Y-86699669D02*
X125170576Y-86652050D01*
X125170576Y-86652050D02*
X125122957Y-86604430D01*
X117797456Y-75849208D02*
X117797456Y-76658731D01*
X117797456Y-76658731D02*
X117845075Y-76753969D01*
X117845075Y-76753969D02*
X117892694Y-76801589D01*
X117892694Y-76801589D02*
X117987932Y-76849208D01*
X117987932Y-76849208D02*
X118178408Y-76849208D01*
X118178408Y-76849208D02*
X118273646Y-76801589D01*
X118273646Y-76801589D02*
X118321265Y-76753969D01*
X118321265Y-76753969D02*
X118368884Y-76658731D01*
X118368884Y-76658731D02*
X118368884Y-75849208D01*
X118749837Y-75849208D02*
X119416503Y-75849208D01*
X119416503Y-75849208D02*
X118987932Y-76849208D01*
X110401009Y-124173333D02*
X110401009Y-124506666D01*
X110924819Y-124506666D02*
X109924819Y-124506666D01*
X109924819Y-124506666D02*
X109924819Y-124030476D01*
X110020057Y-123697142D02*
X109972438Y-123649523D01*
X109972438Y-123649523D02*
X109924819Y-123554285D01*
X109924819Y-123554285D02*
X109924819Y-123316190D01*
X109924819Y-123316190D02*
X109972438Y-123220952D01*
X109972438Y-123220952D02*
X110020057Y-123173333D01*
X110020057Y-123173333D02*
X110115295Y-123125714D01*
X110115295Y-123125714D02*
X110210533Y-123125714D01*
X110210533Y-123125714D02*
X110353390Y-123173333D01*
X110353390Y-123173333D02*
X110924819Y-123744761D01*
X110924819Y-123744761D02*
X110924819Y-123125714D01*
X132661233Y-88861180D02*
X132613614Y-88908800D01*
X132613614Y-88908800D02*
X132470757Y-88956419D01*
X132470757Y-88956419D02*
X132375519Y-88956419D01*
X132375519Y-88956419D02*
X132232662Y-88908800D01*
X132232662Y-88908800D02*
X132137424Y-88813561D01*
X132137424Y-88813561D02*
X132089805Y-88718323D01*
X132089805Y-88718323D02*
X132042186Y-88527847D01*
X132042186Y-88527847D02*
X132042186Y-88384990D01*
X132042186Y-88384990D02*
X132089805Y-88194514D01*
X132089805Y-88194514D02*
X132137424Y-88099276D01*
X132137424Y-88099276D02*
X132232662Y-88004038D01*
X132232662Y-88004038D02*
X132375519Y-87956419D01*
X132375519Y-87956419D02*
X132470757Y-87956419D01*
X132470757Y-87956419D02*
X132613614Y-88004038D01*
X132613614Y-88004038D02*
X132661233Y-88051657D01*
X133613614Y-88956419D02*
X133042186Y-88956419D01*
X133327900Y-88956419D02*
X133327900Y-87956419D01*
X133327900Y-87956419D02*
X133232662Y-88099276D01*
X133232662Y-88099276D02*
X133137424Y-88194514D01*
X133137424Y-88194514D02*
X133042186Y-88242133D01*
X138297142Y-106534819D02*
X137963809Y-106058628D01*
X137725714Y-106534819D02*
X137725714Y-105534819D01*
X137725714Y-105534819D02*
X138106666Y-105534819D01*
X138106666Y-105534819D02*
X138201904Y-105582438D01*
X138201904Y-105582438D02*
X138249523Y-105630057D01*
X138249523Y-105630057D02*
X138297142Y-105725295D01*
X138297142Y-105725295D02*
X138297142Y-105868152D01*
X138297142Y-105868152D02*
X138249523Y-105963390D01*
X138249523Y-105963390D02*
X138201904Y-106011009D01*
X138201904Y-106011009D02*
X138106666Y-106058628D01*
X138106666Y-106058628D02*
X137725714Y-106058628D01*
X139249523Y-106534819D02*
X138678095Y-106534819D01*
X138963809Y-106534819D02*
X138963809Y-105534819D01*
X138963809Y-105534819D02*
X138868571Y-105677676D01*
X138868571Y-105677676D02*
X138773333Y-105772914D01*
X138773333Y-105772914D02*
X138678095Y-105820533D01*
X140154285Y-105534819D02*
X139678095Y-105534819D01*
X139678095Y-105534819D02*
X139630476Y-106011009D01*
X139630476Y-106011009D02*
X139678095Y-105963390D01*
X139678095Y-105963390D02*
X139773333Y-105915771D01*
X139773333Y-105915771D02*
X140011428Y-105915771D01*
X140011428Y-105915771D02*
X140106666Y-105963390D01*
X140106666Y-105963390D02*
X140154285Y-106011009D01*
X140154285Y-106011009D02*
X140201904Y-106106247D01*
X140201904Y-106106247D02*
X140201904Y-106344342D01*
X140201904Y-106344342D02*
X140154285Y-106439580D01*
X140154285Y-106439580D02*
X140106666Y-106487200D01*
X140106666Y-106487200D02*
X140011428Y-106534819D01*
X140011428Y-106534819D02*
X139773333Y-106534819D01*
X139773333Y-106534819D02*
X139678095Y-106487200D01*
X139678095Y-106487200D02*
X139630476Y-106439580D01*
X113953333Y-92169580D02*
X113905714Y-92217200D01*
X113905714Y-92217200D02*
X113762857Y-92264819D01*
X113762857Y-92264819D02*
X113667619Y-92264819D01*
X113667619Y-92264819D02*
X113524762Y-92217200D01*
X113524762Y-92217200D02*
X113429524Y-92121961D01*
X113429524Y-92121961D02*
X113381905Y-92026723D01*
X113381905Y-92026723D02*
X113334286Y-91836247D01*
X113334286Y-91836247D02*
X113334286Y-91693390D01*
X113334286Y-91693390D02*
X113381905Y-91502914D01*
X113381905Y-91502914D02*
X113429524Y-91407676D01*
X113429524Y-91407676D02*
X113524762Y-91312438D01*
X113524762Y-91312438D02*
X113667619Y-91264819D01*
X113667619Y-91264819D02*
X113762857Y-91264819D01*
X113762857Y-91264819D02*
X113905714Y-91312438D01*
X113905714Y-91312438D02*
X113953333Y-91360057D01*
X114286667Y-91264819D02*
X114953333Y-91264819D01*
X114953333Y-91264819D02*
X114524762Y-92264819D01*
X124694642Y-95938419D02*
X124361309Y-95462228D01*
X124123214Y-95938419D02*
X124123214Y-94938419D01*
X124123214Y-94938419D02*
X124504166Y-94938419D01*
X124504166Y-94938419D02*
X124599404Y-94986038D01*
X124599404Y-94986038D02*
X124647023Y-95033657D01*
X124647023Y-95033657D02*
X124694642Y-95128895D01*
X124694642Y-95128895D02*
X124694642Y-95271752D01*
X124694642Y-95271752D02*
X124647023Y-95366990D01*
X124647023Y-95366990D02*
X124599404Y-95414609D01*
X124599404Y-95414609D02*
X124504166Y-95462228D01*
X124504166Y-95462228D02*
X124123214Y-95462228D01*
X125075595Y-95033657D02*
X125123214Y-94986038D01*
X125123214Y-94986038D02*
X125218452Y-94938419D01*
X125218452Y-94938419D02*
X125456547Y-94938419D01*
X125456547Y-94938419D02*
X125551785Y-94986038D01*
X125551785Y-94986038D02*
X125599404Y-95033657D01*
X125599404Y-95033657D02*
X125647023Y-95128895D01*
X125647023Y-95128895D02*
X125647023Y-95224133D01*
X125647023Y-95224133D02*
X125599404Y-95366990D01*
X125599404Y-95366990D02*
X125027976Y-95938419D01*
X125027976Y-95938419D02*
X125647023Y-95938419D01*
X125980357Y-94938419D02*
X126599404Y-94938419D01*
X126599404Y-94938419D02*
X126266071Y-95319371D01*
X126266071Y-95319371D02*
X126408928Y-95319371D01*
X126408928Y-95319371D02*
X126504166Y-95366990D01*
X126504166Y-95366990D02*
X126551785Y-95414609D01*
X126551785Y-95414609D02*
X126599404Y-95509847D01*
X126599404Y-95509847D02*
X126599404Y-95747942D01*
X126599404Y-95747942D02*
X126551785Y-95843180D01*
X126551785Y-95843180D02*
X126504166Y-95890800D01*
X126504166Y-95890800D02*
X126408928Y-95938419D01*
X126408928Y-95938419D02*
X126123214Y-95938419D01*
X126123214Y-95938419D02*
X126027976Y-95890800D01*
X126027976Y-95890800D02*
X125980357Y-95843180D01*
X123767242Y-121517219D02*
X123433909Y-121041028D01*
X123195814Y-121517219D02*
X123195814Y-120517219D01*
X123195814Y-120517219D02*
X123576766Y-120517219D01*
X123576766Y-120517219D02*
X123672004Y-120564838D01*
X123672004Y-120564838D02*
X123719623Y-120612457D01*
X123719623Y-120612457D02*
X123767242Y-120707695D01*
X123767242Y-120707695D02*
X123767242Y-120850552D01*
X123767242Y-120850552D02*
X123719623Y-120945790D01*
X123719623Y-120945790D02*
X123672004Y-120993409D01*
X123672004Y-120993409D02*
X123576766Y-121041028D01*
X123576766Y-121041028D02*
X123195814Y-121041028D01*
X124148195Y-120612457D02*
X124195814Y-120564838D01*
X124195814Y-120564838D02*
X124291052Y-120517219D01*
X124291052Y-120517219D02*
X124529147Y-120517219D01*
X124529147Y-120517219D02*
X124624385Y-120564838D01*
X124624385Y-120564838D02*
X124672004Y-120612457D01*
X124672004Y-120612457D02*
X124719623Y-120707695D01*
X124719623Y-120707695D02*
X124719623Y-120802933D01*
X124719623Y-120802933D02*
X124672004Y-120945790D01*
X124672004Y-120945790D02*
X124100576Y-121517219D01*
X124100576Y-121517219D02*
X124719623Y-121517219D01*
X125624385Y-120517219D02*
X125148195Y-120517219D01*
X125148195Y-120517219D02*
X125100576Y-120993409D01*
X125100576Y-120993409D02*
X125148195Y-120945790D01*
X125148195Y-120945790D02*
X125243433Y-120898171D01*
X125243433Y-120898171D02*
X125481528Y-120898171D01*
X125481528Y-120898171D02*
X125576766Y-120945790D01*
X125576766Y-120945790D02*
X125624385Y-120993409D01*
X125624385Y-120993409D02*
X125672004Y-121088647D01*
X125672004Y-121088647D02*
X125672004Y-121326742D01*
X125672004Y-121326742D02*
X125624385Y-121421980D01*
X125624385Y-121421980D02*
X125576766Y-121469600D01*
X125576766Y-121469600D02*
X125481528Y-121517219D01*
X125481528Y-121517219D02*
X125243433Y-121517219D01*
X125243433Y-121517219D02*
X125148195Y-121469600D01*
X125148195Y-121469600D02*
X125100576Y-121421980D01*
X117296906Y-95517408D02*
X117296906Y-96326931D01*
X117296906Y-96326931D02*
X117344525Y-96422169D01*
X117344525Y-96422169D02*
X117392144Y-96469789D01*
X117392144Y-96469789D02*
X117487382Y-96517408D01*
X117487382Y-96517408D02*
X117677858Y-96517408D01*
X117677858Y-96517408D02*
X117773096Y-96469789D01*
X117773096Y-96469789D02*
X117820715Y-96422169D01*
X117820715Y-96422169D02*
X117868334Y-96326931D01*
X117868334Y-96326931D02*
X117868334Y-95517408D01*
X118820715Y-95517408D02*
X118344525Y-95517408D01*
X118344525Y-95517408D02*
X118296906Y-95993598D01*
X118296906Y-95993598D02*
X118344525Y-95945979D01*
X118344525Y-95945979D02*
X118439763Y-95898360D01*
X118439763Y-95898360D02*
X118677858Y-95898360D01*
X118677858Y-95898360D02*
X118773096Y-95945979D01*
X118773096Y-95945979D02*
X118820715Y-95993598D01*
X118820715Y-95993598D02*
X118868334Y-96088836D01*
X118868334Y-96088836D02*
X118868334Y-96326931D01*
X118868334Y-96326931D02*
X118820715Y-96422169D01*
X118820715Y-96422169D02*
X118773096Y-96469789D01*
X118773096Y-96469789D02*
X118677858Y-96517408D01*
X118677858Y-96517408D02*
X118439763Y-96517408D01*
X118439763Y-96517408D02*
X118344525Y-96469789D01*
X118344525Y-96469789D02*
X118296906Y-96422169D01*
X121308095Y-110523019D02*
X121308095Y-111332542D01*
X121308095Y-111332542D02*
X121355714Y-111427780D01*
X121355714Y-111427780D02*
X121403333Y-111475400D01*
X121403333Y-111475400D02*
X121498571Y-111523019D01*
X121498571Y-111523019D02*
X121689047Y-111523019D01*
X121689047Y-111523019D02*
X121784285Y-111475400D01*
X121784285Y-111475400D02*
X121831904Y-111427780D01*
X121831904Y-111427780D02*
X121879523Y-111332542D01*
X121879523Y-111332542D02*
X121879523Y-110523019D01*
X122403333Y-111523019D02*
X122593809Y-111523019D01*
X122593809Y-111523019D02*
X122689047Y-111475400D01*
X122689047Y-111475400D02*
X122736666Y-111427780D01*
X122736666Y-111427780D02*
X122831904Y-111284923D01*
X122831904Y-111284923D02*
X122879523Y-111094447D01*
X122879523Y-111094447D02*
X122879523Y-110713495D01*
X122879523Y-110713495D02*
X122831904Y-110618257D01*
X122831904Y-110618257D02*
X122784285Y-110570638D01*
X122784285Y-110570638D02*
X122689047Y-110523019D01*
X122689047Y-110523019D02*
X122498571Y-110523019D01*
X122498571Y-110523019D02*
X122403333Y-110570638D01*
X122403333Y-110570638D02*
X122355714Y-110618257D01*
X122355714Y-110618257D02*
X122308095Y-110713495D01*
X122308095Y-110713495D02*
X122308095Y-110951590D01*
X122308095Y-110951590D02*
X122355714Y-111046828D01*
X122355714Y-111046828D02*
X122403333Y-111094447D01*
X122403333Y-111094447D02*
X122498571Y-111142066D01*
X122498571Y-111142066D02*
X122689047Y-111142066D01*
X122689047Y-111142066D02*
X122784285Y-111094447D01*
X122784285Y-111094447D02*
X122831904Y-111046828D01*
X122831904Y-111046828D02*
X122879523Y-110951590D01*
X113566673Y-85934019D02*
X113566673Y-86743542D01*
X113566673Y-86743542D02*
X113614292Y-86838780D01*
X113614292Y-86838780D02*
X113661911Y-86886400D01*
X113661911Y-86886400D02*
X113757149Y-86934019D01*
X113757149Y-86934019D02*
X113947625Y-86934019D01*
X113947625Y-86934019D02*
X114042863Y-86886400D01*
X114042863Y-86886400D02*
X114090482Y-86838780D01*
X114090482Y-86838780D02*
X114138101Y-86743542D01*
X114138101Y-86743542D02*
X114138101Y-85934019D01*
X115042863Y-85934019D02*
X114852387Y-85934019D01*
X114852387Y-85934019D02*
X114757149Y-85981638D01*
X114757149Y-85981638D02*
X114709530Y-86029257D01*
X114709530Y-86029257D02*
X114614292Y-86172114D01*
X114614292Y-86172114D02*
X114566673Y-86362590D01*
X114566673Y-86362590D02*
X114566673Y-86743542D01*
X114566673Y-86743542D02*
X114614292Y-86838780D01*
X114614292Y-86838780D02*
X114661911Y-86886400D01*
X114661911Y-86886400D02*
X114757149Y-86934019D01*
X114757149Y-86934019D02*
X114947625Y-86934019D01*
X114947625Y-86934019D02*
X115042863Y-86886400D01*
X115042863Y-86886400D02*
X115090482Y-86838780D01*
X115090482Y-86838780D02*
X115138101Y-86743542D01*
X115138101Y-86743542D02*
X115138101Y-86505447D01*
X115138101Y-86505447D02*
X115090482Y-86410209D01*
X115090482Y-86410209D02*
X115042863Y-86362590D01*
X115042863Y-86362590D02*
X114947625Y-86314971D01*
X114947625Y-86314971D02*
X114757149Y-86314971D01*
X114757149Y-86314971D02*
X114661911Y-86362590D01*
X114661911Y-86362590D02*
X114614292Y-86410209D01*
X114614292Y-86410209D02*
X114566673Y-86505447D01*
X120008042Y-122209380D02*
X119960423Y-122257000D01*
X119960423Y-122257000D02*
X119817566Y-122304619D01*
X119817566Y-122304619D02*
X119722328Y-122304619D01*
X119722328Y-122304619D02*
X119579471Y-122257000D01*
X119579471Y-122257000D02*
X119484233Y-122161761D01*
X119484233Y-122161761D02*
X119436614Y-122066523D01*
X119436614Y-122066523D02*
X119388995Y-121876047D01*
X119388995Y-121876047D02*
X119388995Y-121733190D01*
X119388995Y-121733190D02*
X119436614Y-121542714D01*
X119436614Y-121542714D02*
X119484233Y-121447476D01*
X119484233Y-121447476D02*
X119579471Y-121352238D01*
X119579471Y-121352238D02*
X119722328Y-121304619D01*
X119722328Y-121304619D02*
X119817566Y-121304619D01*
X119817566Y-121304619D02*
X119960423Y-121352238D01*
X119960423Y-121352238D02*
X120008042Y-121399857D01*
X120960423Y-122304619D02*
X120388995Y-122304619D01*
X120674709Y-122304619D02*
X120674709Y-121304619D01*
X120674709Y-121304619D02*
X120579471Y-121447476D01*
X120579471Y-121447476D02*
X120484233Y-121542714D01*
X120484233Y-121542714D02*
X120388995Y-121590333D01*
X121912804Y-122304619D02*
X121341376Y-122304619D01*
X121627090Y-122304619D02*
X121627090Y-121304619D01*
X121627090Y-121304619D02*
X121531852Y-121447476D01*
X121531852Y-121447476D02*
X121436614Y-121542714D01*
X121436614Y-121542714D02*
X121341376Y-121590333D01*
X126127791Y-91811946D02*
X126175411Y-91859565D01*
X126175411Y-91859565D02*
X126223030Y-92002422D01*
X126223030Y-92002422D02*
X126223030Y-92097660D01*
X126223030Y-92097660D02*
X126175411Y-92240517D01*
X126175411Y-92240517D02*
X126080172Y-92335755D01*
X126080172Y-92335755D02*
X125984934Y-92383374D01*
X125984934Y-92383374D02*
X125794458Y-92430993D01*
X125794458Y-92430993D02*
X125651601Y-92430993D01*
X125651601Y-92430993D02*
X125461125Y-92383374D01*
X125461125Y-92383374D02*
X125365887Y-92335755D01*
X125365887Y-92335755D02*
X125270649Y-92240517D01*
X125270649Y-92240517D02*
X125223030Y-92097660D01*
X125223030Y-92097660D02*
X125223030Y-92002422D01*
X125223030Y-92002422D02*
X125270649Y-91859565D01*
X125270649Y-91859565D02*
X125318268Y-91811946D01*
X126223030Y-90859565D02*
X126223030Y-91430993D01*
X126223030Y-91145279D02*
X125223030Y-91145279D01*
X125223030Y-91145279D02*
X125365887Y-91240517D01*
X125365887Y-91240517D02*
X125461125Y-91335755D01*
X125461125Y-91335755D02*
X125508744Y-91430993D01*
X125556363Y-90002422D02*
X126223030Y-90002422D01*
X125175411Y-90240517D02*
X125889696Y-90478612D01*
X125889696Y-90478612D02*
X125889696Y-89859565D01*
X127394819Y-82642857D02*
X126918628Y-82976190D01*
X127394819Y-83214285D02*
X126394819Y-83214285D01*
X126394819Y-83214285D02*
X126394819Y-82833333D01*
X126394819Y-82833333D02*
X126442438Y-82738095D01*
X126442438Y-82738095D02*
X126490057Y-82690476D01*
X126490057Y-82690476D02*
X126585295Y-82642857D01*
X126585295Y-82642857D02*
X126728152Y-82642857D01*
X126728152Y-82642857D02*
X126823390Y-82690476D01*
X126823390Y-82690476D02*
X126871009Y-82738095D01*
X126871009Y-82738095D02*
X126918628Y-82833333D01*
X126918628Y-82833333D02*
X126918628Y-83214285D01*
X126490057Y-82261904D02*
X126442438Y-82214285D01*
X126442438Y-82214285D02*
X126394819Y-82119047D01*
X126394819Y-82119047D02*
X126394819Y-81880952D01*
X126394819Y-81880952D02*
X126442438Y-81785714D01*
X126442438Y-81785714D02*
X126490057Y-81738095D01*
X126490057Y-81738095D02*
X126585295Y-81690476D01*
X126585295Y-81690476D02*
X126680533Y-81690476D01*
X126680533Y-81690476D02*
X126823390Y-81738095D01*
X126823390Y-81738095D02*
X127394819Y-82309523D01*
X127394819Y-82309523D02*
X127394819Y-81690476D01*
X127394819Y-81214285D02*
X127394819Y-81023809D01*
X127394819Y-81023809D02*
X127347200Y-80928571D01*
X127347200Y-80928571D02*
X127299580Y-80880952D01*
X127299580Y-80880952D02*
X127156723Y-80785714D01*
X127156723Y-80785714D02*
X126966247Y-80738095D01*
X126966247Y-80738095D02*
X126585295Y-80738095D01*
X126585295Y-80738095D02*
X126490057Y-80785714D01*
X126490057Y-80785714D02*
X126442438Y-80833333D01*
X126442438Y-80833333D02*
X126394819Y-80928571D01*
X126394819Y-80928571D02*
X126394819Y-81119047D01*
X126394819Y-81119047D02*
X126442438Y-81214285D01*
X126442438Y-81214285D02*
X126490057Y-81261904D01*
X126490057Y-81261904D02*
X126585295Y-81309523D01*
X126585295Y-81309523D02*
X126823390Y-81309523D01*
X126823390Y-81309523D02*
X126918628Y-81261904D01*
X126918628Y-81261904D02*
X126966247Y-81214285D01*
X126966247Y-81214285D02*
X127013866Y-81119047D01*
X127013866Y-81119047D02*
X127013866Y-80928571D01*
X127013866Y-80928571D02*
X126966247Y-80833333D01*
X126966247Y-80833333D02*
X126918628Y-80785714D01*
X126918628Y-80785714D02*
X126823390Y-80738095D01*
X127009580Y-76506666D02*
X127057200Y-76554285D01*
X127057200Y-76554285D02*
X127104819Y-76697142D01*
X127104819Y-76697142D02*
X127104819Y-76792380D01*
X127104819Y-76792380D02*
X127057200Y-76935237D01*
X127057200Y-76935237D02*
X126961961Y-77030475D01*
X126961961Y-77030475D02*
X126866723Y-77078094D01*
X126866723Y-77078094D02*
X126676247Y-77125713D01*
X126676247Y-77125713D02*
X126533390Y-77125713D01*
X126533390Y-77125713D02*
X126342914Y-77078094D01*
X126342914Y-77078094D02*
X126247676Y-77030475D01*
X126247676Y-77030475D02*
X126152438Y-76935237D01*
X126152438Y-76935237D02*
X126104819Y-76792380D01*
X126104819Y-76792380D02*
X126104819Y-76697142D01*
X126104819Y-76697142D02*
X126152438Y-76554285D01*
X126152438Y-76554285D02*
X126200057Y-76506666D01*
X127104819Y-76030475D02*
X127104819Y-75839999D01*
X127104819Y-75839999D02*
X127057200Y-75744761D01*
X127057200Y-75744761D02*
X127009580Y-75697142D01*
X127009580Y-75697142D02*
X126866723Y-75601904D01*
X126866723Y-75601904D02*
X126676247Y-75554285D01*
X126676247Y-75554285D02*
X126295295Y-75554285D01*
X126295295Y-75554285D02*
X126200057Y-75601904D01*
X126200057Y-75601904D02*
X126152438Y-75649523D01*
X126152438Y-75649523D02*
X126104819Y-75744761D01*
X126104819Y-75744761D02*
X126104819Y-75935237D01*
X126104819Y-75935237D02*
X126152438Y-76030475D01*
X126152438Y-76030475D02*
X126200057Y-76078094D01*
X126200057Y-76078094D02*
X126295295Y-76125713D01*
X126295295Y-76125713D02*
X126533390Y-76125713D01*
X126533390Y-76125713D02*
X126628628Y-76078094D01*
X126628628Y-76078094D02*
X126676247Y-76030475D01*
X126676247Y-76030475D02*
X126723866Y-75935237D01*
X126723866Y-75935237D02*
X126723866Y-75744761D01*
X126723866Y-75744761D02*
X126676247Y-75649523D01*
X126676247Y-75649523D02*
X126628628Y-75601904D01*
X126628628Y-75601904D02*
X126533390Y-75554285D01*
X142777142Y-97844819D02*
X142443809Y-97368628D01*
X142205714Y-97844819D02*
X142205714Y-96844819D01*
X142205714Y-96844819D02*
X142586666Y-96844819D01*
X142586666Y-96844819D02*
X142681904Y-96892438D01*
X142681904Y-96892438D02*
X142729523Y-96940057D01*
X142729523Y-96940057D02*
X142777142Y-97035295D01*
X142777142Y-97035295D02*
X142777142Y-97178152D01*
X142777142Y-97178152D02*
X142729523Y-97273390D01*
X142729523Y-97273390D02*
X142681904Y-97321009D01*
X142681904Y-97321009D02*
X142586666Y-97368628D01*
X142586666Y-97368628D02*
X142205714Y-97368628D01*
X143729523Y-97844819D02*
X143158095Y-97844819D01*
X143443809Y-97844819D02*
X143443809Y-96844819D01*
X143443809Y-96844819D02*
X143348571Y-96987676D01*
X143348571Y-96987676D02*
X143253333Y-97082914D01*
X143253333Y-97082914D02*
X143158095Y-97130533D01*
X144110476Y-96940057D02*
X144158095Y-96892438D01*
X144158095Y-96892438D02*
X144253333Y-96844819D01*
X144253333Y-96844819D02*
X144491428Y-96844819D01*
X144491428Y-96844819D02*
X144586666Y-96892438D01*
X144586666Y-96892438D02*
X144634285Y-96940057D01*
X144634285Y-96940057D02*
X144681904Y-97035295D01*
X144681904Y-97035295D02*
X144681904Y-97130533D01*
X144681904Y-97130533D02*
X144634285Y-97273390D01*
X144634285Y-97273390D02*
X144062857Y-97844819D01*
X144062857Y-97844819D02*
X144681904Y-97844819D01*
X142817142Y-122004819D02*
X142483809Y-121528628D01*
X142245714Y-122004819D02*
X142245714Y-121004819D01*
X142245714Y-121004819D02*
X142626666Y-121004819D01*
X142626666Y-121004819D02*
X142721904Y-121052438D01*
X142721904Y-121052438D02*
X142769523Y-121100057D01*
X142769523Y-121100057D02*
X142817142Y-121195295D01*
X142817142Y-121195295D02*
X142817142Y-121338152D01*
X142817142Y-121338152D02*
X142769523Y-121433390D01*
X142769523Y-121433390D02*
X142721904Y-121481009D01*
X142721904Y-121481009D02*
X142626666Y-121528628D01*
X142626666Y-121528628D02*
X142245714Y-121528628D01*
X143674285Y-121338152D02*
X143674285Y-122004819D01*
X143436190Y-120957200D02*
X143198095Y-121671485D01*
X143198095Y-121671485D02*
X143817142Y-121671485D01*
X144150476Y-121100057D02*
X144198095Y-121052438D01*
X144198095Y-121052438D02*
X144293333Y-121004819D01*
X144293333Y-121004819D02*
X144531428Y-121004819D01*
X144531428Y-121004819D02*
X144626666Y-121052438D01*
X144626666Y-121052438D02*
X144674285Y-121100057D01*
X144674285Y-121100057D02*
X144721904Y-121195295D01*
X144721904Y-121195295D02*
X144721904Y-121290533D01*
X144721904Y-121290533D02*
X144674285Y-121433390D01*
X144674285Y-121433390D02*
X144102857Y-122004819D01*
X144102857Y-122004819D02*
X144721904Y-122004819D01*
X123217142Y-80324819D02*
X122883809Y-79848628D01*
X122645714Y-80324819D02*
X122645714Y-79324819D01*
X122645714Y-79324819D02*
X123026666Y-79324819D01*
X123026666Y-79324819D02*
X123121904Y-79372438D01*
X123121904Y-79372438D02*
X123169523Y-79420057D01*
X123169523Y-79420057D02*
X123217142Y-79515295D01*
X123217142Y-79515295D02*
X123217142Y-79658152D01*
X123217142Y-79658152D02*
X123169523Y-79753390D01*
X123169523Y-79753390D02*
X123121904Y-79801009D01*
X123121904Y-79801009D02*
X123026666Y-79848628D01*
X123026666Y-79848628D02*
X122645714Y-79848628D01*
X123598095Y-79420057D02*
X123645714Y-79372438D01*
X123645714Y-79372438D02*
X123740952Y-79324819D01*
X123740952Y-79324819D02*
X123979047Y-79324819D01*
X123979047Y-79324819D02*
X124074285Y-79372438D01*
X124074285Y-79372438D02*
X124121904Y-79420057D01*
X124121904Y-79420057D02*
X124169523Y-79515295D01*
X124169523Y-79515295D02*
X124169523Y-79610533D01*
X124169523Y-79610533D02*
X124121904Y-79753390D01*
X124121904Y-79753390D02*
X123550476Y-80324819D01*
X123550476Y-80324819D02*
X124169523Y-80324819D01*
X124740952Y-79753390D02*
X124645714Y-79705771D01*
X124645714Y-79705771D02*
X124598095Y-79658152D01*
X124598095Y-79658152D02*
X124550476Y-79562914D01*
X124550476Y-79562914D02*
X124550476Y-79515295D01*
X124550476Y-79515295D02*
X124598095Y-79420057D01*
X124598095Y-79420057D02*
X124645714Y-79372438D01*
X124645714Y-79372438D02*
X124740952Y-79324819D01*
X124740952Y-79324819D02*
X124931428Y-79324819D01*
X124931428Y-79324819D02*
X125026666Y-79372438D01*
X125026666Y-79372438D02*
X125074285Y-79420057D01*
X125074285Y-79420057D02*
X125121904Y-79515295D01*
X125121904Y-79515295D02*
X125121904Y-79562914D01*
X125121904Y-79562914D02*
X125074285Y-79658152D01*
X125074285Y-79658152D02*
X125026666Y-79705771D01*
X125026666Y-79705771D02*
X124931428Y-79753390D01*
X124931428Y-79753390D02*
X124740952Y-79753390D01*
X124740952Y-79753390D02*
X124645714Y-79801009D01*
X124645714Y-79801009D02*
X124598095Y-79848628D01*
X124598095Y-79848628D02*
X124550476Y-79943866D01*
X124550476Y-79943866D02*
X124550476Y-80134342D01*
X124550476Y-80134342D02*
X124598095Y-80229580D01*
X124598095Y-80229580D02*
X124645714Y-80277200D01*
X124645714Y-80277200D02*
X124740952Y-80324819D01*
X124740952Y-80324819D02*
X124931428Y-80324819D01*
X124931428Y-80324819D02*
X125026666Y-80277200D01*
X125026666Y-80277200D02*
X125074285Y-80229580D01*
X125074285Y-80229580D02*
X125121904Y-80134342D01*
X125121904Y-80134342D02*
X125121904Y-79943866D01*
X125121904Y-79943866D02*
X125074285Y-79848628D01*
X125074285Y-79848628D02*
X125026666Y-79801009D01*
X125026666Y-79801009D02*
X124931428Y-79753390D01*
D11*
%TO.C,C3*%
X112472064Y-95080000D02*
X111267936Y-95080000D01*
X112472064Y-96900000D02*
X111267936Y-96900000D01*
%TO.C,C4*%
X113802964Y-108132200D02*
X112598836Y-108132200D01*
X113802964Y-109952200D02*
X112598836Y-109952200D01*
%TO.C,U3*%
X113912600Y-99547200D02*
X113912600Y-103307200D01*
X113912600Y-103307200D02*
X115172600Y-103307200D01*
X120732600Y-97297200D02*
X120732600Y-103307200D01*
X120732600Y-103307200D02*
X119472600Y-103307200D01*
%TO.C,RP1*%
X135973160Y-113120900D02*
X138513160Y-115660900D01*
X136735160Y-108802900D02*
X136735160Y-112104900D01*
X138513160Y-115660900D02*
X141053160Y-113120900D01*
X140291160Y-108802900D02*
X136735160Y-108802900D01*
X140291160Y-112104900D02*
X140291160Y-108802900D01*
X141053160Y-113120900D02*
X135973160Y-113120900D01*
X148696660Y-124104400D02*
G75*
G02*
X145696660Y-124104400I-1500000J0D01*
G01*
X145696660Y-124104400D02*
G75*
G02*
X148696660Y-124104400I1500000J0D01*
G01*
%TO.C,C2*%
X112037652Y-97537200D02*
X111515148Y-97537200D01*
X112037652Y-98957200D02*
X111515148Y-98957200D01*
%TO.C,C5*%
X113824652Y-106147800D02*
X113302148Y-106147800D01*
X113824652Y-107567800D02*
X113302148Y-107567800D01*
%TO.C,C6*%
X110999200Y-112563652D02*
X110999200Y-112041148D01*
X112419200Y-112563652D02*
X112419200Y-112041148D01*
%TO.C,C12*%
X136589012Y-89823600D02*
X136066508Y-89823600D01*
X136589012Y-91243600D02*
X136066508Y-91243600D01*
%TO.C,D1*%
X110110000Y-121351000D02*
X110110000Y-115951000D01*
X110110000Y-121351000D02*
X113410000Y-121351000D01*
X113410000Y-121351000D02*
X113410000Y-115951000D01*
%TO.C,R18*%
X143564724Y-112797500D02*
X143055276Y-112797500D01*
X143564724Y-113842500D02*
X143055276Y-113842500D01*
%TO.C,R39*%
X115063176Y-119226300D02*
X115572624Y-119226300D01*
X115063176Y-120271300D02*
X115572624Y-120271300D01*
%TO.C,R4*%
X111501476Y-81748100D02*
X112010924Y-81748100D01*
X111501476Y-82793100D02*
X112010924Y-82793100D01*
%TO.C,R33*%
X115063176Y-114298700D02*
X115572624Y-114298700D01*
X115063176Y-115343700D02*
X115572624Y-115343700D01*
%TO.C,R36*%
X115063176Y-124077700D02*
X115572624Y-124077700D01*
X115063176Y-125122700D02*
X115572624Y-125122700D01*
%TO.C,R56*%
X111965824Y-100772700D02*
X111456376Y-100772700D01*
X111965824Y-101817700D02*
X111456376Y-101817700D01*
%TO.C,D2*%
X131575000Y-74395000D02*
X131575000Y-76855000D01*
X133045000Y-74395000D02*
X131575000Y-74395000D01*
X133045000Y-76855000D02*
X133045000Y-74395000D01*
%TO.C,R5*%
X111501476Y-85075500D02*
X112010924Y-85075500D01*
X111501476Y-86120500D02*
X112010924Y-86120500D01*
%TO.C,R35*%
X115063176Y-111047500D02*
X115572624Y-111047500D01*
X115063176Y-112092500D02*
X115572624Y-112092500D01*
%TO.C,R1*%
X115063176Y-115975100D02*
X115572624Y-115975100D01*
X115063176Y-117020100D02*
X115572624Y-117020100D01*
%TO.C,C8*%
X133863752Y-123105000D02*
X133341248Y-123105000D01*
X133863752Y-124575000D02*
X133341248Y-124575000D01*
%TO.C,R38*%
X115063176Y-120801100D02*
X115572624Y-120801100D01*
X115063176Y-121846100D02*
X115572624Y-121846100D01*
%TO.C,R9*%
X111477976Y-78522300D02*
X111987424Y-78522300D01*
X111477976Y-79567300D02*
X111987424Y-79567300D01*
%TO.C,D3*%
X110059800Y-102959000D02*
X110059800Y-105419000D01*
X110059800Y-105419000D02*
X111529800Y-105419000D01*
X111529800Y-105419000D02*
X111529800Y-102959000D01*
%TO.C,R40*%
X115063176Y-117549900D02*
X115572624Y-117549900D01*
X115063176Y-118594900D02*
X115572624Y-118594900D01*
%TO.C,U4*%
X136830000Y-115825000D02*
X134630000Y-115825000D01*
X136830000Y-115825000D02*
X139030000Y-115825000D01*
X136830000Y-122595000D02*
X134630000Y-122595000D01*
X136830000Y-122595000D02*
X140430000Y-122595000D01*
%TO.C,R13*%
X143682224Y-100707500D02*
X143172776Y-100707500D01*
X143682224Y-101752500D02*
X143172776Y-101752500D01*
%TO.C,R19*%
X143712224Y-115927500D02*
X143202776Y-115927500D01*
X143712224Y-116972500D02*
X143202776Y-116972500D01*
%TO.C,C15*%
X119148748Y-109475000D02*
X119671252Y-109475000D01*
X119148748Y-110945000D02*
X119671252Y-110945000D01*
%TO.C,R14*%
X143722224Y-103027500D02*
X143212776Y-103027500D01*
X143722224Y-104072500D02*
X143212776Y-104072500D01*
%TO.C,R11*%
X133875276Y-101927500D02*
X134384724Y-101927500D01*
X133875276Y-102972500D02*
X134384724Y-102972500D01*
%TO.C,R3*%
X111503376Y-83424500D02*
X112012824Y-83424500D01*
X111503376Y-84469500D02*
X112012824Y-84469500D01*
%TO.C,R7*%
X111474176Y-75372700D02*
X111983624Y-75372700D01*
X111474176Y-76417700D02*
X111983624Y-76417700D01*
%TO.C,C16*%
X124288748Y-77515000D02*
X124811252Y-77515000D01*
X124288748Y-78985000D02*
X124811252Y-78985000D01*
%TO.C,R8*%
X111477976Y-76947500D02*
X111987424Y-76947500D01*
X111477976Y-77992500D02*
X111987424Y-77992500D01*
%TO.C,R2*%
X111476076Y-88402900D02*
X111985524Y-88402900D01*
X111476076Y-89447900D02*
X111985524Y-89447900D01*
%TO.C,R16*%
X142369624Y-107757700D02*
X141860176Y-107757700D01*
X142369624Y-108802700D02*
X141860176Y-108802700D01*
%TO.C,U1*%
X131675000Y-97665000D02*
X131675000Y-95715000D01*
X131675000Y-97665000D02*
X131675000Y-101115000D01*
X140545000Y-97665000D02*
X140545000Y-95715000D01*
X140545000Y-97665000D02*
X140545000Y-99615000D01*
%TO.C,R17*%
X143538024Y-109967500D02*
X143028576Y-109967500D01*
X143538024Y-111012500D02*
X143028576Y-111012500D01*
%TO.C,C10*%
X137236248Y-123115000D02*
X137758752Y-123115000D01*
X137236248Y-124585000D02*
X137758752Y-124585000D01*
%TO.C,C13*%
X124698767Y-83956850D02*
X124406233Y-83956850D01*
X124698767Y-84976850D02*
X124406233Y-84976850D01*
%TO.C,R10*%
X111501476Y-86675700D02*
X112010924Y-86675700D01*
X111501476Y-87720700D02*
X112010924Y-87720700D01*
%TO.C,R34*%
X115063176Y-112622300D02*
X115572624Y-112622300D01*
X115063176Y-113667300D02*
X115572624Y-113667300D01*
%TO.C,U7*%
X118657550Y-77420000D02*
X115057550Y-77420000D01*
X118657550Y-77420000D02*
X120857550Y-77420000D01*
X118657550Y-82640000D02*
X116457550Y-82640000D01*
X118657550Y-82640000D02*
X120857550Y-82640000D01*
%TO.C,R37*%
X115063176Y-122452100D02*
X115572624Y-122452100D01*
X115063176Y-123497100D02*
X115572624Y-123497100D01*
%TO.C,F2*%
X111405600Y-123589148D02*
X111405600Y-124111652D01*
X112825600Y-123589148D02*
X112825600Y-124111652D01*
%TO.C,C1*%
X136641252Y-87665000D02*
X136118748Y-87665000D01*
X136641252Y-89135000D02*
X136118748Y-89135000D01*
%TO.C,R15*%
X142369624Y-105522500D02*
X141860176Y-105522500D01*
X142369624Y-106567500D02*
X141860176Y-106567500D01*
%TO.C,C7*%
X111677667Y-91311000D02*
X111385133Y-91311000D01*
X111677667Y-92331000D02*
X111385133Y-92331000D01*
%TO.C,R23*%
X125082776Y-93467500D02*
X125592224Y-93467500D01*
X125082776Y-94512500D02*
X125592224Y-94512500D01*
%TO.C,J2*%
X104282131Y-74070600D02*
X109317131Y-74070600D01*
X109317131Y-74070600D02*
X109317131Y-127290600D01*
X109317131Y-127290600D02*
X104282131Y-127290600D01*
X109778456Y-84060600D02*
X110211469Y-83810600D01*
X110211469Y-83810600D02*
X110211469Y-84310600D01*
X110211469Y-84310600D02*
X109778456Y-84060600D01*
%TO.C,R25*%
X124817224Y-119117500D02*
X124307776Y-119117500D01*
X124817224Y-120162500D02*
X124307776Y-120162500D01*
%TO.C,U5*%
X119122200Y-89900000D02*
X115522200Y-89900000D01*
X119122200Y-89900000D02*
X121322200Y-89900000D01*
X119122200Y-95120000D02*
X116922200Y-95120000D01*
X119122200Y-95120000D02*
X121322200Y-95120000D01*
%TO.C,U9*%
X122070000Y-111925000D02*
X119870000Y-111925000D01*
X122070000Y-111925000D02*
X124270000Y-111925000D01*
X122070000Y-118695000D02*
X119870000Y-118695000D01*
X122070000Y-118695000D02*
X125670000Y-118695000D01*
%TO.C,U6*%
X119125378Y-83920000D02*
X115525378Y-83920000D01*
X119125378Y-83920000D02*
X121325378Y-83920000D01*
X119125378Y-89140000D02*
X116925378Y-89140000D01*
X119125378Y-89140000D02*
X121325378Y-89140000D01*
%TO.C,R6*%
X111501476Y-80147900D02*
X112010924Y-80147900D01*
X111501476Y-81192900D02*
X112010924Y-81192900D01*
%TO.C,C11*%
X120385748Y-119209800D02*
X120908252Y-119209800D01*
X120385748Y-120679800D02*
X120908252Y-120679800D01*
%TO.C,C14*%
X123680000Y-91318767D02*
X123680000Y-91026233D01*
X124700000Y-91318767D02*
X124700000Y-91026233D01*
%TO.C,R29*%
X124887584Y-82232308D02*
X124887584Y-81722860D01*
X125932584Y-82232308D02*
X125932584Y-81722860D01*
%TO.C,C9*%
X124456267Y-75970000D02*
X124163733Y-75970000D01*
X124456267Y-76990000D02*
X124163733Y-76990000D01*
%TO.C,R12*%
X143682224Y-98258100D02*
X143172776Y-98258100D01*
X143682224Y-99303100D02*
X143172776Y-99303100D01*
%TO.C,R42*%
X143764724Y-119467500D02*
X143255276Y-119467500D01*
X143764724Y-120512500D02*
X143255276Y-120512500D01*
%TO.C,R28*%
X123283584Y-81720960D02*
X123283584Y-82230408D01*
X124328584Y-81720960D02*
X124328584Y-82230408D01*
%TD*%
M02*
