%TF.GenerationSoftware,KiCad,Pcbnew,8.0.4-8.0.4-0~ubuntu22.04.1*%
%TF.CreationDate,2024-07-18T13:03:20-06:00*%
%TF.ProjectId,DB25_External,44423235-5f45-4787-9465-726e616c2e6b,rev?*%
%TF.SameCoordinates,Original*%
%TF.FileFunction,Copper,L2,Bot*%
%TF.FilePolarity,Positive*%
%FSLAX46Y46*%
G04 Gerber Fmt 4.6, Leading zero omitted, Abs format (unit mm)*
G04 Created by KiCad (PCBNEW 8.0.4-8.0.4-0~ubuntu22.04.1) date 2024-07-18 13:03:20*
%MOMM*%
%LPD*%
G01*
G04 APERTURE LIST*
G04 Aperture macros list*
%AMRoundRect*
0 Rectangle with rounded corners*
0 $1 Rounding radius*
0 $2 $3 $4 $5 $6 $7 $8 $9 X,Y pos of 4 corners*
0 Add a 4 corners polygon primitive as box body*
4,1,4,$2,$3,$4,$5,$6,$7,$8,$9,$2,$3,0*
0 Add four circle primitives for the rounded corners*
1,1,$1+$1,$2,$3*
1,1,$1+$1,$4,$5*
1,1,$1+$1,$6,$7*
1,1,$1+$1,$8,$9*
0 Add four rect primitives between the rounded corners*
20,1,$1+$1,$2,$3,$4,$5,0*
20,1,$1+$1,$4,$5,$6,$7,0*
20,1,$1+$1,$6,$7,$8,$9,0*
20,1,$1+$1,$8,$9,$2,$3,0*%
G04 Aperture macros list end*
%TA.AperFunction,ComponentPad*%
%ADD10RoundRect,0.412500X0.412500X0.412500X-0.412500X0.412500X-0.412500X-0.412500X0.412500X-0.412500X0*%
%TD*%
%TA.AperFunction,ComponentPad*%
%ADD11C,1.650000*%
%TD*%
%TA.AperFunction,ComponentPad*%
%ADD12C,4.000000*%
%TD*%
%TA.AperFunction,ComponentPad*%
%ADD13R,1.600000X1.600000*%
%TD*%
%TA.AperFunction,ComponentPad*%
%ADD14C,1.600000*%
%TD*%
%TA.AperFunction,ViaPad*%
%ADD15C,0.600000*%
%TD*%
%TA.AperFunction,ViaPad*%
%ADD16C,0.500000*%
%TD*%
%TA.AperFunction,ViaPad*%
%ADD17C,0.800000*%
%TD*%
%TA.AperFunction,Conductor*%
%ADD18C,0.200000*%
%TD*%
%TA.AperFunction,Conductor*%
%ADD19C,0.330000*%
%TD*%
%TA.AperFunction,Conductor*%
%ADD20C,0.400000*%
%TD*%
%TA.AperFunction,Conductor*%
%ADD21C,0.250000*%
%TD*%
%TA.AperFunction,Conductor*%
%ADD22C,0.750000*%
%TD*%
%TA.AperFunction,Conductor*%
%ADD23C,0.142000*%
%TD*%
%TA.AperFunction,Conductor*%
%ADD24C,0.150000*%
%TD*%
%TA.AperFunction,Conductor*%
%ADD25C,1.000000*%
%TD*%
%TA.AperFunction,Conductor*%
%ADD26C,0.500000*%
%TD*%
G04 APERTURE END LIST*
D10*
%TO.P,RP1,1,G0*%
%TO.N,Net-(RP1-G0)*%
X147196660Y-124104400D03*
D11*
%TO.P,RP1,2,G1*%
%TO.N,Net-(RP1-G1)*%
X147196660Y-121564400D03*
%TO.P,RP1,3,GND*%
%TO.N,GND*%
X147196660Y-119024400D03*
%TO.P,RP1,4,G2*%
%TO.N,Net-(RP1-G2)*%
X147196660Y-116484400D03*
%TO.P,RP1,5,G3*%
%TO.N,Net-(RP1-G3)*%
X147196660Y-113944400D03*
%TO.P,RP1,6,G4*%
%TO.N,Net-(RP1-G4)*%
X147196660Y-111404400D03*
%TO.P,RP1,7,G5*%
%TO.N,Net-(RP1-G5)*%
X147196660Y-108864400D03*
%TO.P,RP1,8,GND*%
%TO.N,GND*%
X147196660Y-106324400D03*
%TO.P,RP1,9,G6*%
%TO.N,Net-(RP1-G6)*%
X147196660Y-103784400D03*
%TO.P,RP1,10,G7*%
%TO.N,Net-(RP1-G7)*%
X147196660Y-101244400D03*
%TO.P,RP1,11,G8*%
%TO.N,Net-(RP1-G8)*%
X147196660Y-98704400D03*
%TO.P,RP1,12,G9*%
%TO.N,DBPTr*%
X147196660Y-96164400D03*
%TO.P,RP1,13,GND*%
%TO.N,GND*%
X147196660Y-93624400D03*
%TO.P,RP1,14,G10*%
%TO.N,SD_CLK*%
X147196660Y-91084400D03*
%TO.P,RP1,15,G11*%
%TO.N,SD_CMD_MOSI*%
X147196660Y-88544400D03*
%TO.P,RP1,16,G12*%
%TO.N,SD_D0_MISO*%
X147196660Y-86004400D03*
%TO.P,RP1,17,G13*%
%TO.N,SD_D1*%
X147196660Y-83464400D03*
%TO.P,RP1,18,GND*%
%TO.N,GND*%
X147196660Y-80924400D03*
%TO.P,RP1,19,G14*%
%TO.N,SD_D2*%
X147196660Y-78384400D03*
%TO.P,RP1,20,G15*%
%TO.N,SD_D3_CS*%
X147196660Y-75844400D03*
%TO.P,RP1,21,G16*%
%TO.N,SERIAL_OUT*%
X129416660Y-75844400D03*
%TO.P,RP1,22,G17*%
%TO.N,oREQ*%
X129416660Y-78384400D03*
%TO.P,RP1,23,GND*%
%TO.N,GND*%
X129416660Y-80924400D03*
%TO.P,RP1,24,G18*%
%TO.N,oCD_iSEL*%
X129416660Y-83464400D03*
%TO.P,RP1,25,G19*%
%TO.N,oSEL*%
X129416660Y-86004400D03*
%TO.P,RP1,26,G20*%
%TO.N,oMSG_iBSY*%
X129416660Y-88544400D03*
%TO.P,RP1,27,G21*%
%TO.N,iRST*%
X129416660Y-91084400D03*
%TO.P,RP1,28,GND*%
%TO.N,GND*%
X129416660Y-93624400D03*
%TO.P,RP1,29,G22*%
%TO.N,oIO*%
X129416660Y-96164400D03*
%TO.P,RP1,30,RUN*%
%TO.N,unconnected-(RP1-RUN-Pad30)*%
X129416660Y-98704400D03*
%TO.P,RP1,31,G26*%
%TO.N,iACK*%
X129416660Y-101244400D03*
%TO.P,RP1,32,G27*%
%TO.N,oBSY*%
X129416660Y-103784400D03*
%TO.P,RP1,33,A_GND*%
%TO.N,GND*%
X129416660Y-106324400D03*
%TO.P,RP1,34,G28*%
%TO.N,iATN*%
X129416660Y-108864400D03*
%TO.P,RP1,35,ADC_VREF*%
%TO.N,unconnected-(RP1-ADC_VREF-Pad35)*%
X129416660Y-111404400D03*
%TO.P,RP1,36,3v3*%
%TO.N,+3V3*%
X129416660Y-113944400D03*
%TO.P,RP1,37,3v3_EN*%
%TO.N,unconnected-(RP1-3v3_EN-Pad37)*%
X129416660Y-116484400D03*
%TO.P,RP1,38,GND*%
%TO.N,GND*%
X129416660Y-119024400D03*
%TO.P,RP1,39,VSYS*%
%TO.N,unconnected-(RP1-VSYS-Pad39)*%
X129416660Y-121564400D03*
%TO.P,RP1,40,VBUS_5V*%
%TO.N,+5VP*%
X129416660Y-124104400D03*
%TD*%
D12*
%TO.P,J2,0,PAD*%
%TO.N,GND*%
X106037131Y-77130600D03*
X106037131Y-124230600D03*
D13*
%TO.P,J2,1,1*%
%TO.N,REQ*%
X107457131Y-84060600D03*
D14*
%TO.P,J2,2,2*%
%TO.N,MSG*%
X107457131Y-86830600D03*
%TO.P,J2,3,3*%
%TO.N,IO*%
X107457131Y-89600600D03*
%TO.P,J2,4,4*%
%TO.N,RST*%
X107457131Y-92370600D03*
%TO.P,J2,5,5*%
%TO.N,ACK*%
X107457131Y-95140600D03*
%TO.P,J2,6,6*%
%TO.N,BSY*%
X107457131Y-97910600D03*
%TO.P,J2,7,7*%
%TO.N,GND*%
X107457131Y-100680600D03*
%TO.P,J2,8,8*%
%TO.N,DB0*%
X107457131Y-103450600D03*
%TO.P,J2,9,9*%
%TO.N,GND*%
X107457131Y-106220600D03*
%TO.P,J2,10,10*%
%TO.N,DB3*%
X107457131Y-108990600D03*
%TO.P,J2,11,11*%
%TO.N,DB5*%
X107457131Y-111760600D03*
%TO.P,J2,12,12*%
%TO.N,DB6*%
X107457131Y-114530600D03*
%TO.P,J2,13,13*%
%TO.N,DB7*%
X107457131Y-117300600D03*
%TO.P,J2,14,P14*%
%TO.N,GND*%
X104617131Y-85445600D03*
%TO.P,J2,15,P15*%
%TO.N,CD*%
X104617131Y-88215600D03*
%TO.P,J2,16,P16*%
%TO.N,GND*%
X104617131Y-90985600D03*
%TO.P,J2,17,P17*%
%TO.N,ATN*%
X104617131Y-93755600D03*
%TO.P,J2,18,P18*%
%TO.N,GND*%
X104617131Y-96525600D03*
%TO.P,J2,19,P19*%
%TO.N,SEL*%
X104617131Y-99295600D03*
%TO.P,J2,20,P20*%
%TO.N,DBP*%
X104617131Y-102065600D03*
%TO.P,J2,21,P21*%
%TO.N,DB1*%
X104617131Y-104835600D03*
%TO.P,J2,22,P22*%
%TO.N,DB2*%
X104617131Y-107605600D03*
%TO.P,J2,23,P23*%
%TO.N,DB4*%
X104617131Y-110375600D03*
%TO.P,J2,24,P24*%
%TO.N,GND*%
X104617131Y-113145600D03*
%TO.P,J2,25,P25*%
%TO.N,+5V*%
X104617131Y-115915600D03*
%TD*%
D15*
%TO.N,GND*%
X142470000Y-92930000D03*
D16*
X119570000Y-79440000D03*
D15*
X140930000Y-84290000D03*
X110820200Y-106629200D03*
D16*
X127570000Y-122010000D03*
D15*
X122010000Y-110150000D03*
X136430000Y-80030000D03*
X113650000Y-89760000D03*
D16*
X114071400Y-75006200D03*
X125750000Y-88080000D03*
X131220000Y-123790000D03*
D15*
X121680000Y-99590000D03*
X144510000Y-78340000D03*
X112598200Y-104444800D03*
X145698060Y-126593600D03*
X135570000Y-121490000D03*
D16*
X117517069Y-123706907D03*
X122660000Y-101360000D03*
X119640000Y-99740000D03*
D15*
X123150000Y-118220000D03*
X110083600Y-109016800D03*
D16*
X137820000Y-102480000D03*
X125050000Y-96350000D03*
D15*
X130915260Y-97510600D03*
X133830000Y-90520000D03*
X118452511Y-94678289D03*
D16*
X116120000Y-83010000D03*
D15*
X140190000Y-83250000D03*
X137970000Y-115900000D03*
D16*
X117280000Y-78840000D03*
X120410000Y-76620000D03*
X127140000Y-96190000D03*
D15*
X122940000Y-113150000D03*
X120890000Y-95376789D03*
D16*
X120000000Y-90100000D03*
X130860000Y-115570000D03*
X111820000Y-95920000D03*
D15*
X121690000Y-118360000D03*
X130730000Y-110120000D03*
D16*
X120110000Y-85720000D03*
D15*
X142160000Y-82150000D03*
D17*
X125349000Y-90068400D03*
D16*
X120860000Y-98720000D03*
X108280200Y-81534000D03*
X131060000Y-75150000D03*
D15*
X124940000Y-111090000D03*
D16*
X117440000Y-82620000D03*
D17*
X125810000Y-92080000D03*
D16*
X117911978Y-88480000D03*
D15*
X140920000Y-79860000D03*
X123590000Y-111490000D03*
X141350000Y-81300000D03*
D16*
X123490000Y-97780000D03*
X125120000Y-104840000D03*
X148593660Y-126517400D03*
D15*
X137990000Y-116970000D03*
D16*
X113334411Y-84756389D03*
D15*
X140020000Y-123840000D03*
D16*
X118440000Y-89290000D03*
X117320000Y-95440000D03*
D15*
X133830000Y-88380000D03*
X113930000Y-91750000D03*
X139700000Y-115060000D03*
X141690000Y-85350000D03*
D16*
X140570000Y-80970000D03*
X125160000Y-75540000D03*
X118540000Y-93110000D03*
X114930000Y-84230000D03*
X137420000Y-97590000D03*
X126780000Y-77350000D03*
X110642400Y-99847400D03*
X125710000Y-79650000D03*
X126520000Y-84470000D03*
X125430000Y-99500000D03*
D15*
X133550000Y-93130000D03*
D16*
%TO.N,+2V8*%
X123678588Y-89242100D03*
X123682000Y-88556300D03*
D15*
X123452000Y-96440000D03*
X121928000Y-96440000D03*
D16*
X122140000Y-76790000D03*
X123612700Y-85330450D03*
X122140000Y-76130000D03*
D15*
X122690000Y-96440000D03*
D16*
X123730000Y-85920000D03*
%TO.N,iATN*%
X124108625Y-105470830D03*
X119963811Y-94563989D03*
%TO.N,oSEL*%
X125040000Y-87480000D03*
%TO.N,oBSY*%
X126270000Y-95550000D03*
X120710000Y-90500000D03*
X126310000Y-100010000D03*
X120359350Y-78730000D03*
X121140000Y-77050000D03*
%TO.N,SD_CLK*%
X139810000Y-80930000D03*
%TO.N,ATN*%
X119710000Y-93400000D03*
X119328811Y-90758800D03*
X113077000Y-90754200D03*
%TO.N,BSY*%
X113830000Y-87160000D03*
%TO.N,DBP*%
X117373400Y-111910000D03*
%TO.N,ACK*%
X111810411Y-84959589D03*
%TO.N,RST*%
X113487200Y-81559400D03*
X119700000Y-81330000D03*
%TO.N,MSG*%
X113660000Y-79044800D03*
X118540000Y-80070000D03*
%TO.N,SEL*%
X114058311Y-85073889D03*
%TO.N,CD*%
X114113800Y-77982600D03*
%TO.N,REQ*%
X114108000Y-76032600D03*
%TO.N,IO*%
X113712000Y-80670400D03*
%TO.N,DB7*%
X117230000Y-113830000D03*
%TO.N,DB6*%
X117240000Y-115040000D03*
%TO.N,DB5*%
X117432500Y-116672500D03*
%TO.N,DB4*%
X117530000Y-118060000D03*
%TO.N,DB3*%
X117520000Y-121690000D03*
%TO.N,DB2*%
X117450000Y-122640000D03*
%TO.N,DB1*%
X117670000Y-124390000D03*
%TO.N,DB0*%
X117710000Y-125110000D03*
D15*
%TO.N,+3V3*%
X138992460Y-87096600D03*
X138990000Y-83320000D03*
X138990000Y-81850000D03*
X138992460Y-87858600D03*
X138990000Y-82650000D03*
D16*
%TO.N,SEL_BUFF*%
X119081840Y-84251840D03*
X117868078Y-86060100D03*
%TO.N,BSY_BUFF*%
X117525178Y-87825400D03*
X119836017Y-84040800D03*
%TO.N,+5VP*%
X109702600Y-123774200D03*
X110185200Y-124256800D03*
X109258100Y-123329700D03*
%TO.N,DBPTr*%
X147831660Y-125984000D03*
%TO.N,Net-(D2-A)*%
X136110000Y-102460000D03*
X132310000Y-82580000D03*
%TO.N,iRST*%
X125070000Y-88670000D03*
X123912191Y-80002086D03*
%TO.N,iACK*%
X118120000Y-93810000D03*
X123400000Y-100490000D03*
%TD*%
D18*
%TO.N,GND*%
X118610000Y-125360000D02*
X118310000Y-125660000D01*
D19*
X130407260Y-97510600D02*
X130331060Y-97434400D01*
D18*
X119460000Y-125360000D02*
X118610000Y-125360000D01*
D19*
X128578460Y-84785200D02*
X128553060Y-84759800D01*
X130670000Y-77120000D02*
X128430000Y-77120000D01*
X107746800Y-93776800D02*
X111158599Y-90365001D01*
X105816400Y-111946331D02*
X105816400Y-111556800D01*
D20*
X120060000Y-90160000D02*
X120000000Y-90100000D01*
D19*
X109332565Y-85761365D02*
X109830040Y-85263890D01*
X130332060Y-110110000D02*
X130381860Y-110159800D01*
X109830040Y-83896200D02*
X109830040Y-82425296D01*
D21*
X120900000Y-95386789D02*
X120900000Y-96578726D01*
D19*
X109452708Y-122062708D02*
X112985000Y-125595000D01*
D20*
X132280000Y-122110000D02*
X132280000Y-121960000D01*
D19*
X111158599Y-90365001D02*
X111158599Y-89001600D01*
D21*
X121055091Y-94029884D02*
X121014196Y-93988989D01*
D22*
X118465600Y-112870000D02*
X116250000Y-112870000D01*
D19*
X121055091Y-92886491D02*
X121055091Y-94029884D01*
D20*
X120860000Y-98440000D02*
X120860000Y-98720000D01*
D18*
X148750000Y-86650000D02*
X148750000Y-85720000D01*
D21*
X118590000Y-93110000D02*
X118540000Y-93110000D01*
D19*
X131194660Y-80454660D02*
X130520000Y-79780000D01*
X111158599Y-83811801D02*
X111226600Y-83743800D01*
D23*
X103745000Y-100955000D02*
X103550000Y-101150000D01*
D20*
X128760000Y-112660000D02*
X129893472Y-112660000D01*
X120060000Y-90040000D02*
X120060000Y-89680000D01*
D19*
X106502200Y-110490000D02*
X106654600Y-110337600D01*
D20*
X128360000Y-112660000D02*
X128760000Y-112660000D01*
X130145600Y-115214400D02*
X130170000Y-115190000D01*
D21*
X144510000Y-78340000D02*
X144510000Y-76904714D01*
D20*
X131220000Y-123790000D02*
X130250000Y-122820000D01*
D21*
X118540000Y-93026508D02*
X118453492Y-92940000D01*
D19*
X104617131Y-113145600D02*
X105816400Y-111946331D01*
D18*
X148750000Y-92071060D02*
X148750000Y-88440000D01*
D23*
X107182731Y-100955000D02*
X103745000Y-100955000D01*
D18*
X127538878Y-126760000D02*
X128770000Y-126760000D01*
D21*
X120890000Y-95376789D02*
X120900000Y-95386789D01*
D18*
X118216907Y-123706907D02*
X118240000Y-123730000D01*
D19*
X130915260Y-97510600D02*
X130407260Y-97510600D01*
X100410000Y-104820000D02*
X100405000Y-104825000D01*
D18*
X110470000Y-126760000D02*
X114620000Y-126760000D01*
D23*
X104487508Y-106220600D02*
X101916000Y-108792108D01*
D19*
X131118460Y-97028000D02*
X131194660Y-96951800D01*
X131194660Y-84785200D02*
X128578460Y-84785200D01*
X131194660Y-84785200D02*
X131194660Y-80454660D01*
D21*
X144510000Y-76790000D02*
X146630000Y-74670000D01*
D18*
X148750000Y-86650000D02*
X148750000Y-82940000D01*
X148750000Y-88440000D02*
X148750000Y-86650000D01*
D20*
X128149800Y-122820000D02*
X128110000Y-122859800D01*
D21*
X122101274Y-97780000D02*
X123490000Y-97780000D01*
X110470000Y-126910000D02*
X129250000Y-126910000D01*
D20*
X129893472Y-112660000D02*
X131140000Y-111413472D01*
D21*
X129250000Y-126910000D02*
X129330000Y-126830000D01*
D19*
X105816400Y-111175800D02*
X106502200Y-110490000D01*
D18*
X113425433Y-123706907D02*
X117517069Y-123706907D01*
D19*
X130520000Y-79780000D02*
X130390000Y-79650000D01*
D21*
X118465600Y-111861600D02*
X115900200Y-109296200D01*
D19*
X108621642Y-86715600D02*
X108621642Y-86472288D01*
D18*
X106037131Y-124230600D02*
X108566531Y-126760000D01*
D19*
X111158599Y-89001600D02*
X111158599Y-83811801D01*
X121055091Y-92504309D02*
X121055091Y-92886491D01*
X111988600Y-82981800D02*
X113131600Y-82981800D01*
D21*
X147460000Y-74694400D02*
X147673006Y-74694400D01*
D19*
X131270860Y-98501200D02*
X131270860Y-99136200D01*
D20*
X130402860Y-102510000D02*
X128570000Y-102510000D01*
D19*
X106654600Y-110337600D02*
X108178600Y-110337600D01*
D21*
X147760000Y-74570000D02*
X148290000Y-75100000D01*
D18*
X101670629Y-117169371D02*
X101670629Y-117253921D01*
X107896400Y-90985600D02*
X108788200Y-90093800D01*
D21*
X118465600Y-112870000D02*
X118465600Y-111861600D01*
D19*
X100405000Y-117845000D02*
X104622708Y-122062708D01*
X131194660Y-89839800D02*
X128248260Y-89839800D01*
X105892600Y-89710131D02*
X105892600Y-89128600D01*
D21*
X147590000Y-74570000D02*
X147760000Y-74570000D01*
D19*
X130740000Y-77190000D02*
X130670000Y-77120000D01*
X106629200Y-88315800D02*
X106756200Y-88188800D01*
D20*
X129370000Y-122820000D02*
X129650000Y-122820000D01*
D18*
X114620000Y-126760000D02*
X127538878Y-126760000D01*
D21*
X110470000Y-126760000D02*
X110470000Y-126910000D01*
D18*
X147780000Y-84750000D02*
X146350000Y-84750000D01*
D19*
X108621642Y-86472288D02*
X109332565Y-85761365D01*
D20*
X131241736Y-113851736D02*
X131630000Y-113463472D01*
X121055091Y-92504309D02*
X120060000Y-91509218D01*
X120060000Y-89680000D02*
X120030000Y-89650000D01*
D21*
X146630000Y-74670000D02*
X146730000Y-74570000D01*
D19*
X126076560Y-112280700D02*
X128247260Y-110110000D01*
X113995200Y-80060800D02*
X114020600Y-80060800D01*
X112985000Y-125595000D02*
X117325258Y-125595000D01*
D18*
X101670000Y-117168742D02*
X101670629Y-117169371D01*
D20*
X118880000Y-95160000D02*
X118880000Y-96460000D01*
X137830000Y-104830000D02*
X137830000Y-104580000D01*
D19*
X128247260Y-110110000D02*
X130332060Y-110110000D01*
D21*
X146720314Y-74694400D02*
X147460000Y-74694400D01*
D18*
X115849486Y-118821200D02*
X116710343Y-117960343D01*
D20*
X130000000Y-112660000D02*
X137830000Y-104830000D01*
D21*
X148440000Y-75250000D02*
X148440000Y-76690000D01*
D18*
X101670629Y-117253921D02*
X105214416Y-120797706D01*
D19*
X130331060Y-97434400D02*
X128324460Y-97434400D01*
D18*
X116710343Y-117960343D02*
X116800343Y-117870343D01*
D20*
X129920000Y-122820000D02*
X131080000Y-121660000D01*
D21*
X146730000Y-74570000D02*
X147590000Y-74570000D01*
D19*
X130915260Y-97510600D02*
X130915260Y-97231200D01*
D20*
X131140000Y-111413472D02*
X131140000Y-110810000D01*
D18*
X104617131Y-90985600D02*
X107896400Y-90985600D01*
D20*
X128360000Y-112660000D02*
X130000000Y-112660000D01*
X120860000Y-98720000D02*
X121140000Y-98720000D01*
D24*
X108501731Y-126695200D02*
X106037131Y-124230600D01*
D19*
X131270860Y-97866200D02*
X131270860Y-98501200D01*
X131270860Y-101701600D02*
X130458060Y-102514400D01*
D18*
X103378000Y-114384731D02*
X104617131Y-113145600D01*
D19*
X130915260Y-97231200D02*
X131118460Y-97028000D01*
D21*
X118453492Y-92940000D02*
X118260000Y-92940000D01*
D18*
X148750000Y-82940000D02*
X148240000Y-82430000D01*
D20*
X107457131Y-100680600D02*
X107650200Y-100680600D01*
D19*
X131194660Y-84785200D02*
X131194660Y-84632800D01*
D20*
X129873472Y-117760000D02*
X128610000Y-117760000D01*
D19*
X105892600Y-89128600D02*
X105892600Y-89052400D01*
D18*
X118310000Y-125660000D02*
X113820000Y-125660000D01*
D21*
X110470000Y-126910000D02*
X110470000Y-127129800D01*
D18*
X113690400Y-119176800D02*
X114046000Y-118821200D01*
D19*
X130458060Y-102514400D02*
X130432660Y-102539800D01*
D20*
X107650200Y-100680600D02*
X109651800Y-98679000D01*
D19*
X107569000Y-88188800D02*
X107745799Y-88188800D01*
D21*
X118540000Y-93110000D02*
X118540000Y-93026508D01*
D19*
X128360000Y-112660000D02*
X127830000Y-113190000D01*
D21*
X118465600Y-114274600D02*
X118465600Y-112870000D01*
X144510000Y-76904714D02*
X146720314Y-74694400D01*
D19*
X114223800Y-80264000D02*
X114731800Y-80264000D01*
X111418468Y-80836868D02*
X112199447Y-80055889D01*
X112199447Y-80055889D02*
X113990289Y-80055889D01*
X127830000Y-113190000D02*
X127830000Y-114669140D01*
D21*
X147673006Y-74694400D02*
X148346660Y-75368054D01*
D20*
X119570000Y-80300000D02*
X119310000Y-80560000D01*
D19*
X121233811Y-92325589D02*
X121055091Y-92504309D01*
D21*
X148290000Y-75100000D02*
X148440000Y-75250000D01*
D19*
X131194660Y-87249000D02*
X131194660Y-84785200D01*
X128110000Y-122859800D02*
X127816460Y-122859800D01*
D20*
X128375260Y-115214400D02*
X129700000Y-115214400D01*
D18*
X107912564Y-119199149D02*
X105914949Y-119199149D01*
D19*
X128324460Y-97434400D02*
X128299060Y-97459800D01*
D21*
X144510000Y-78340000D02*
X144510000Y-76790000D01*
X148346660Y-75368054D02*
X148346660Y-76633340D01*
D18*
X110516234Y-120797708D02*
X113425433Y-123706907D01*
D19*
X113990289Y-80055889D02*
X113995200Y-80060800D01*
D20*
X129910000Y-120310000D02*
X130950000Y-119270000D01*
D24*
X110185200Y-126695200D02*
X108501731Y-126695200D01*
D19*
X108051600Y-93776800D02*
X107746800Y-93776800D01*
X131270860Y-99136200D02*
X131270860Y-101701600D01*
D21*
X120900000Y-96578726D02*
X122101274Y-97780000D01*
D18*
X147196660Y-93624400D02*
X148750000Y-92071060D01*
D19*
X147196660Y-93624400D02*
X148488400Y-92332660D01*
D18*
X104446496Y-106220600D02*
X101670000Y-108997096D01*
X148750000Y-85720000D02*
X147780000Y-84750000D01*
D19*
X131194660Y-80454660D02*
X131194660Y-77644660D01*
D18*
X101670000Y-108997096D02*
X101670000Y-117168742D01*
D20*
X119310000Y-80560000D02*
X119070000Y-80800000D01*
D21*
X121014196Y-93988989D02*
X119468989Y-93988989D01*
D18*
X117300686Y-117370000D02*
X118170000Y-117370000D01*
D20*
X129500000Y-120310000D02*
X128500000Y-120310000D01*
D19*
X109830040Y-85263890D02*
X109830040Y-83896200D01*
X107745799Y-88188800D02*
X108621642Y-87312957D01*
D20*
X140070000Y-105023472D02*
X140070000Y-104400000D01*
D23*
X107457131Y-100680600D02*
X107182731Y-100955000D01*
D19*
X130432660Y-99974400D02*
X128426060Y-99974400D01*
D20*
X132280000Y-121960000D02*
X130630000Y-120310000D01*
D19*
X131194660Y-87249000D02*
X128248260Y-87249000D01*
D20*
X121140000Y-98720000D02*
X122530000Y-100110000D01*
D18*
X100872402Y-94730329D02*
X104617131Y-90985600D01*
D20*
X120060000Y-91509218D02*
X120060000Y-90160000D01*
D19*
X107746800Y-93776800D02*
X106781600Y-93776800D01*
D20*
X129370000Y-122820000D02*
X128149800Y-122820000D01*
D19*
X105892600Y-89052400D02*
X106629200Y-88315800D01*
D20*
X130860000Y-116773472D02*
X129873472Y-117760000D01*
X118880000Y-96460000D02*
X120860000Y-98440000D01*
D19*
X131194660Y-77644660D02*
X130740000Y-77190000D01*
X107569000Y-88188800D02*
X107746800Y-88188800D01*
D22*
X116250000Y-112870000D02*
X116240000Y-112860000D01*
D21*
X148346660Y-76633340D02*
X147890000Y-77090000D01*
D19*
X106781600Y-93776800D02*
X106756200Y-93751400D01*
D21*
X100872402Y-104820000D02*
X100720000Y-104820000D01*
D19*
X131194660Y-96951800D02*
X131194660Y-89839800D01*
D20*
X118452511Y-94678289D02*
X118452511Y-94732511D01*
X119570000Y-79440000D02*
X119570000Y-80300000D01*
D21*
X147870000Y-77110000D02*
X146290000Y-77110000D01*
D19*
X104622708Y-122062708D02*
X109452708Y-122062708D01*
X127816460Y-122859800D02*
X127765660Y-122809000D01*
D20*
X118452511Y-94732511D02*
X118880000Y-95160000D01*
X130432660Y-102539800D02*
X130402860Y-102510000D01*
D18*
X122000000Y-122820000D02*
X119460000Y-125360000D01*
D20*
X119070000Y-80800000D02*
X117720000Y-80800000D01*
D19*
X111226600Y-83743800D02*
X111988600Y-82981800D01*
D20*
X130250000Y-122820000D02*
X129370000Y-122820000D01*
D19*
X131270860Y-99136200D02*
X130432660Y-99974400D01*
D18*
X116710343Y-117960343D02*
X117300686Y-117370000D01*
D24*
X148593660Y-126517400D02*
X148644460Y-126466600D01*
D18*
X108257850Y-119199150D02*
X107912564Y-119199149D01*
X107457131Y-106220600D02*
X104446496Y-106220600D01*
D19*
X104617131Y-90985600D02*
X105892600Y-89710131D01*
X131194660Y-88743940D02*
X131194660Y-87249000D01*
X106756200Y-88188800D02*
X107569000Y-88188800D01*
X109830040Y-82425296D02*
X111418468Y-80836868D01*
D20*
X129879072Y-115214400D02*
X131241736Y-113851736D01*
D19*
X131194660Y-89839800D02*
X131194660Y-88743940D01*
D20*
X129700000Y-115214400D02*
X130145600Y-115214400D01*
D19*
X105816400Y-111556800D02*
X105816400Y-111175800D01*
D18*
X108257850Y-119199150D02*
X113668050Y-119199150D01*
D19*
X130390000Y-79650000D02*
X128580000Y-79650000D01*
D18*
X100872402Y-104820000D02*
X100872402Y-94730329D01*
D20*
X129650000Y-122820000D02*
X129920000Y-122820000D01*
D18*
X108788200Y-90093800D02*
X108813600Y-90068400D01*
D20*
X130630000Y-120310000D02*
X129500000Y-120310000D01*
D18*
X114046000Y-118821200D02*
X115849486Y-118821200D01*
D20*
X129700000Y-115214400D02*
X129879072Y-115214400D01*
D18*
X105914949Y-119199149D02*
X103378000Y-116662200D01*
D19*
X100405000Y-104825000D02*
X100405000Y-117845000D01*
D21*
X147890000Y-77090000D02*
X147870000Y-77110000D01*
D18*
X103378000Y-116662200D02*
X103378000Y-114384731D01*
D20*
X130860000Y-115570000D02*
X130860000Y-116773472D01*
D19*
X114020600Y-80060800D02*
X114223800Y-80264000D01*
X108621642Y-87312957D02*
X108621642Y-86715600D01*
D18*
X113668050Y-119199150D02*
X113690400Y-119176800D01*
D19*
X130915260Y-97510600D02*
X131270860Y-97866200D01*
D20*
X131241736Y-113851736D02*
X140070000Y-105023472D01*
D18*
X129650000Y-122820000D02*
X122000000Y-122820000D01*
D21*
X119468989Y-93988989D02*
X118590000Y-93110000D01*
D19*
X127830000Y-114669140D02*
X128375260Y-115214400D01*
D21*
X100720000Y-104820000D02*
X100410000Y-104820000D01*
D20*
X120000000Y-90100000D02*
X120060000Y-90040000D01*
D21*
X100410000Y-104820000D02*
X100400000Y-104810000D01*
D18*
X108566531Y-126760000D02*
X110470000Y-126760000D01*
X117517069Y-123706907D02*
X118216907Y-123706907D01*
X105214416Y-120797706D02*
X110516234Y-120797708D01*
D20*
X129500000Y-120310000D02*
X129910000Y-120310000D01*
D23*
X107457131Y-106220600D02*
X104487508Y-106220600D01*
D25*
%TO.N,+2V8*%
X123160800Y-80594200D02*
X122119400Y-79552800D01*
X123618000Y-84870000D02*
X123618000Y-85464178D01*
X122690000Y-96440000D02*
X122681611Y-96431611D01*
X123452000Y-96440000D02*
X122690000Y-96440000D01*
X123618000Y-83412000D02*
X123618000Y-84870000D01*
X123618000Y-83348000D02*
X123650000Y-83380000D01*
X123650000Y-83380000D02*
X123618000Y-83412000D01*
X122119400Y-76810600D02*
X122140000Y-76790000D01*
X122119400Y-76150600D02*
X122140000Y-76130000D01*
X122119400Y-77550000D02*
X122119400Y-76810600D01*
X123618000Y-82245200D02*
X123618000Y-82854800D01*
X122690000Y-96440000D02*
X121928000Y-96440000D01*
X122119400Y-77550000D02*
X122119400Y-76150600D01*
X122119400Y-79552800D02*
X122119400Y-77550000D01*
X122681611Y-92655789D02*
X123617999Y-91719401D01*
X123618000Y-81051400D02*
X123618000Y-82245200D01*
X123618000Y-82245200D02*
X123618000Y-83348000D01*
X122140000Y-76130000D02*
X122119400Y-76109400D01*
X122681611Y-96431611D02*
X122681611Y-92655789D01*
X123617999Y-91719401D02*
X123618000Y-84870000D01*
X123160800Y-80594200D02*
X123618000Y-81051400D01*
D24*
%TO.N,iATN*%
X122233147Y-98435000D02*
X124080000Y-100281853D01*
X119963811Y-96238837D02*
X122159974Y-98435000D01*
X124080000Y-100281853D02*
X124080000Y-105490000D01*
X119963811Y-94563989D02*
X119963811Y-96238837D01*
X122159974Y-98435000D02*
X122233147Y-98435000D01*
D18*
%TO.N,oSEL*%
X125040000Y-87480000D02*
X126515600Y-86004400D01*
X126515600Y-86004400D02*
X129416660Y-86004400D01*
D24*
%TO.N,oBSY*%
X121344880Y-77254880D02*
X121140000Y-77050000D01*
D18*
X126270000Y-95540000D02*
X126300000Y-95570000D01*
X126270000Y-95550000D02*
X126270000Y-95540000D01*
X126280000Y-95550000D02*
X126270000Y-95550000D01*
D24*
X121100000Y-90110000D02*
X121730000Y-90110000D01*
X122843480Y-87273702D02*
X122843480Y-87180000D01*
X122843480Y-87180000D02*
X122843480Y-89806520D01*
X121730000Y-90110000D02*
X121370000Y-90110000D01*
X122540000Y-90110000D02*
X121730000Y-90110000D01*
X122843480Y-89806520D02*
X122540000Y-90110000D01*
D18*
X126310000Y-100010000D02*
X126310000Y-95580000D01*
D24*
X122843480Y-81372216D02*
X121344880Y-79873616D01*
X120710000Y-90500000D02*
X121100000Y-90110000D01*
D18*
X126310000Y-95580000D02*
X126280000Y-95550000D01*
D24*
X121344880Y-79873616D02*
X121344880Y-77254880D01*
X122843480Y-87180000D02*
X122843480Y-81372216D01*
D18*
%TO.N,SD_CLK*%
X147196660Y-91084400D02*
X148350000Y-89931060D01*
X148350000Y-89931060D02*
X148350000Y-87810000D01*
X139810000Y-80930000D02*
X139820000Y-80920000D01*
X145660000Y-87340000D02*
X139820000Y-81500000D01*
X148350000Y-87810000D02*
X147880000Y-87340000D01*
X139820000Y-81500000D02*
X139810000Y-80930000D01*
X147880000Y-87340000D02*
X145660000Y-87340000D01*
%TO.N,ATN*%
X108940600Y-97104200D02*
X110159800Y-95885000D01*
X113081600Y-90758800D02*
X113077000Y-90754200D01*
X119328811Y-90758800D02*
X113081600Y-90758800D01*
X119710000Y-93390000D02*
X119710000Y-93400000D01*
X119720000Y-93400000D02*
X119730000Y-93410000D01*
X108280200Y-99263200D02*
X108940600Y-98602800D01*
X104617131Y-93755600D02*
X103276400Y-95096331D01*
X103276400Y-95096331D02*
X103276400Y-99644200D01*
X119710000Y-93400000D02*
X119720000Y-93400000D01*
X104216200Y-100584000D02*
X105460800Y-100584000D01*
X110159800Y-95885000D02*
X110159800Y-94132949D01*
X106781600Y-99263200D02*
X108280200Y-99263200D01*
X119328811Y-93008811D02*
X119710000Y-93390000D01*
X108940600Y-98602800D02*
X108940600Y-97104200D01*
X110159800Y-94132949D02*
X113077000Y-91215749D01*
X103276400Y-99644200D02*
X104216200Y-100584000D01*
X105460800Y-100584000D02*
X106781600Y-99263200D01*
X119328811Y-90758800D02*
X119328811Y-93008811D01*
X113077000Y-91215749D02*
X113077000Y-90754200D01*
%TO.N,BSY*%
X113830000Y-87160000D02*
X112422158Y-88567842D01*
X109695720Y-94032023D02*
X109695720Y-95694886D01*
X109695720Y-95694886D02*
X107480006Y-97910600D01*
X107480006Y-97910600D02*
X107457131Y-97910600D01*
X112422158Y-91305585D02*
X109695720Y-94032023D01*
X112422158Y-88567842D02*
X112422158Y-91305585D01*
%TO.N,DBP*%
X117373400Y-111811925D02*
X107627075Y-102065600D01*
X107627075Y-102065600D02*
X104617131Y-102065600D01*
X117373400Y-111910000D02*
X117373400Y-111811925D01*
%TO.N,ACK*%
X107457131Y-95140600D02*
X111623118Y-90974613D01*
X111623118Y-90974613D02*
X111623118Y-85146882D01*
X111623118Y-85146882D02*
X111810411Y-84959589D01*
X111810411Y-84959589D02*
X111810411Y-85093920D01*
%TO.N,RST*%
X110694080Y-89133651D02*
X107457131Y-92370600D01*
X110694080Y-82828520D02*
X110694080Y-89133651D01*
X113487200Y-81559400D02*
X111963200Y-81559400D01*
X111963200Y-81559400D02*
X110694080Y-82828520D01*
X119470600Y-81559400D02*
X113487200Y-81559400D01*
X119700000Y-81330000D02*
X119470600Y-81559400D01*
%TO.N,MSG*%
X112553606Y-79044800D02*
X109365520Y-82232886D01*
X113660000Y-79044800D02*
X112553606Y-79044800D01*
X118540000Y-80080000D02*
X118500000Y-80040000D01*
X109365520Y-85071480D02*
X107606400Y-86830600D01*
X114066400Y-79451200D02*
X117911200Y-79451200D01*
X118530000Y-80070000D02*
X118540000Y-80070000D01*
X113660000Y-79044800D02*
X114066400Y-79451200D01*
X107457131Y-86725869D02*
X107457131Y-86830600D01*
X109365520Y-82232886D02*
X109365520Y-85071480D01*
X107606400Y-86830600D02*
X107457131Y-86830600D01*
X118540000Y-80070000D02*
X118540000Y-80080000D01*
X117911200Y-79451200D02*
X118530000Y-80070000D01*
%TO.N,SEL*%
X109296200Y-95529400D02*
X109296200Y-93866537D01*
X106832400Y-96520000D02*
X108305600Y-96520000D01*
X104617131Y-99295600D02*
X104617131Y-98735269D01*
X112022638Y-91140099D02*
X112022638Y-87109562D01*
X108305600Y-96520000D02*
X109296200Y-95529400D01*
X112022638Y-87109562D02*
X114058311Y-85073889D01*
X104617131Y-98735269D02*
X106832400Y-96520000D01*
X114096411Y-85035789D02*
X114147211Y-85035789D01*
X109296200Y-93866537D02*
X112022638Y-91140099D01*
%TO.N,CD*%
X113050800Y-77982600D02*
X108966000Y-82067400D01*
X108966000Y-84886800D02*
X108356400Y-85496400D01*
X106705400Y-85496400D02*
X104617131Y-87584669D01*
X108356400Y-85496400D02*
X106705400Y-85496400D01*
X114113800Y-77982600D02*
X113050800Y-77982600D01*
X108966000Y-82067400D02*
X108966000Y-84886800D01*
X104617131Y-87584669D02*
X104617131Y-88215600D01*
%TO.N,REQ*%
X111241600Y-76032600D02*
X114108000Y-76032600D01*
X107457131Y-79817069D02*
X111241600Y-76032600D01*
X107457131Y-84060600D02*
X107457131Y-79817069D01*
%TO.N,IO*%
X107457131Y-89600600D02*
X110294560Y-86763171D01*
X110294560Y-82617706D02*
X112241866Y-80670400D01*
X112241866Y-80670400D02*
X113712000Y-80670400D01*
X107457131Y-89138869D02*
X107457131Y-89600600D01*
X110294560Y-86763171D02*
X110294560Y-82617706D01*
%TO.N,DB7*%
X117230000Y-113830000D02*
X115773200Y-115286800D01*
X113763200Y-117300600D02*
X107457131Y-117300600D01*
X115773200Y-115286800D02*
X115773200Y-115290600D01*
X115773200Y-115290600D02*
X113763200Y-117300600D01*
%TO.N,DB6*%
X117240000Y-115040000D02*
X116633400Y-115040000D01*
X113273289Y-118400111D02*
X107001698Y-118400111D01*
X106357620Y-117756033D02*
X106357620Y-115630111D01*
X116633400Y-115040000D02*
X113273289Y-118400111D01*
X106357620Y-115630111D02*
X107457131Y-114530600D01*
X107001698Y-118400111D02*
X106357620Y-117756033D01*
%TO.N,DB5*%
X113457970Y-118799630D02*
X106836211Y-118799630D01*
X105943400Y-117906819D02*
X105943400Y-113274331D01*
X105943400Y-113274331D02*
X107457131Y-111760600D01*
X106836211Y-118799630D02*
X105943400Y-117906819D01*
X114211100Y-118046500D02*
X113457970Y-118799630D01*
X116058500Y-118046500D02*
X114211100Y-118046500D01*
X117432500Y-116672500D02*
X116058500Y-118046500D01*
%TO.N,DB4*%
X115991332Y-119598668D02*
X105749462Y-119598668D01*
X105749462Y-119598668D02*
X102870000Y-116719206D01*
X102870000Y-112122731D02*
X104617131Y-110375600D01*
X117530000Y-118060000D02*
X115991332Y-119598668D01*
X102870000Y-116719206D02*
X102870000Y-112122731D01*
%TO.N,DB3*%
X102470481Y-116923081D02*
X102470481Y-110610119D01*
X105545588Y-119998188D02*
X102470481Y-116923081D01*
X117520000Y-121690000D02*
X117251900Y-121958100D01*
X112807318Y-121958100D02*
X110847408Y-119998188D01*
X110847408Y-119998188D02*
X105545588Y-119998188D01*
X104090000Y-108990600D02*
X107457131Y-108990600D01*
X117251900Y-121958100D02*
X112807318Y-121958100D01*
X102470481Y-110610119D02*
X104090000Y-108990600D01*
%TO.N,DB2*%
X113220211Y-122936000D02*
X110681920Y-120397708D01*
X117154000Y-122936000D02*
X113220211Y-122936000D01*
X117450000Y-122640000D02*
X117154000Y-122936000D01*
X110681920Y-120397708D02*
X105380102Y-120397706D01*
X102070961Y-117088567D02*
X102070961Y-110151770D01*
X105380102Y-120397706D02*
X102070961Y-117088567D01*
X102070961Y-110151770D02*
X104617131Y-107605600D01*
%TO.N,DB1*%
X110350548Y-121197708D02*
X105048731Y-121197708D01*
X101270000Y-108182731D02*
X104617131Y-104835600D01*
X105048731Y-121197708D02*
X101270000Y-117418977D01*
X101270000Y-117418977D02*
X101270000Y-108182731D01*
X113555258Y-124402418D02*
X110350548Y-121197708D01*
X117657582Y-124402418D02*
X113555258Y-124402418D01*
X117670000Y-124390000D02*
X117657582Y-124402418D01*
%TO.N,DB0*%
X100870000Y-117584663D02*
X100870000Y-106114600D01*
X100870000Y-106114600D02*
X103534000Y-103450600D01*
X110184862Y-121597708D02*
X104883045Y-121597708D01*
X117560000Y-124960000D02*
X113547154Y-124960000D01*
X113547154Y-124960000D02*
X110184862Y-121597708D01*
X103534000Y-103450600D02*
X107457131Y-103450600D01*
X104883045Y-121597708D02*
X100870000Y-117584663D01*
X117710000Y-125110000D02*
X117560000Y-124960000D01*
D22*
%TO.N,+3V3*%
X138992460Y-82652460D02*
X138992460Y-83317540D01*
X129416660Y-113944400D02*
X129952118Y-113944400D01*
X138992460Y-82642460D02*
X138992460Y-82647540D01*
X138992460Y-83910000D02*
X138992460Y-81852460D01*
X138990000Y-81850000D02*
X138992460Y-81847540D01*
X138992460Y-87096600D02*
X138992460Y-86334600D01*
D25*
X138992460Y-88620600D02*
X138992460Y-86334600D01*
D22*
X138992460Y-88620600D02*
X138992460Y-87858600D01*
X131920000Y-111970000D02*
X138992460Y-104897540D01*
X131920000Y-111976518D02*
X131920000Y-111970000D01*
X138992460Y-83910000D02*
X138992460Y-86334600D01*
X138992460Y-83322460D02*
X138992460Y-83910000D01*
X138990000Y-82650000D02*
X138992460Y-82652460D01*
X138992460Y-82647540D02*
X138990000Y-82650000D01*
X138990000Y-83320000D02*
X138992460Y-83322460D01*
X129952118Y-113944400D02*
X131920000Y-111976518D01*
X138992460Y-81847540D02*
X138992460Y-81742460D01*
X138992460Y-81852460D02*
X138990000Y-81850000D01*
X138992460Y-83317540D02*
X138990000Y-83320000D01*
X138992460Y-104897540D02*
X138992460Y-88620600D01*
D18*
%TO.N,SEL_BUFF*%
X119081840Y-84251840D02*
X117868078Y-85465602D01*
X117868078Y-85465602D02*
X117868078Y-86060100D01*
%TO.N,BSY_BUFF*%
X118417589Y-86932989D02*
X117525178Y-87825400D01*
X119836017Y-84504767D02*
X118417589Y-85923195D01*
X118417589Y-85923195D02*
X118417589Y-86932989D01*
X119836017Y-84040800D02*
X119836017Y-84504767D01*
D26*
%TO.N,+5VP*%
X110439200Y-124510800D02*
X110439200Y-124536200D01*
D22*
X109258100Y-123329700D02*
X110439200Y-124510800D01*
D26*
X110439200Y-124510800D02*
X112138400Y-126210000D01*
X127311060Y-126210000D02*
X129416660Y-124104400D01*
X112138400Y-126210000D02*
X127311060Y-126210000D01*
D18*
%TO.N,DBPTr*%
X148321171Y-125494489D02*
X148321171Y-97288911D01*
X148321171Y-97288911D02*
X147196660Y-96164400D01*
X147831660Y-125984000D02*
X148321171Y-125494489D01*
%TO.N,Net-(D2-A)*%
X134874000Y-101224000D02*
X136110000Y-102460000D01*
X134874000Y-85144000D02*
X134874000Y-101224000D01*
X132310000Y-82580000D02*
X134874000Y-85144000D01*
%TO.N,iRST*%
X124450000Y-88050000D02*
X124450000Y-80539895D01*
X125070000Y-88670000D02*
X124450000Y-88050000D01*
X124450000Y-80539895D02*
X123912191Y-80002086D01*
D24*
%TO.N,iACK*%
X119570000Y-94930000D02*
X119570000Y-96340000D01*
X122088173Y-98785000D02*
X123400000Y-100096827D01*
D18*
X128945800Y-101244400D02*
X129416660Y-101244400D01*
D24*
X118120000Y-93810000D02*
X118450000Y-93810000D01*
X122015000Y-98785000D02*
X122088173Y-98785000D01*
X119570000Y-96340000D02*
X122015000Y-98785000D01*
X123400000Y-100096827D02*
X123400000Y-100490000D01*
X118450000Y-93810000D02*
X119570000Y-94930000D01*
%TD*%
%TA.AperFunction,Conductor*%
%TO.N,GND*%
G36*
X140084472Y-82625475D02*
G01*
X140091055Y-82631604D01*
X145286365Y-87826915D01*
X145286370Y-87826919D01*
X145286372Y-87826921D01*
X145286373Y-87826922D01*
X145286375Y-87826923D01*
X145369823Y-87875102D01*
X145425127Y-87907032D01*
X145425133Y-87907033D01*
X145425134Y-87907034D01*
X145473050Y-87919873D01*
X145473051Y-87919873D01*
X145579889Y-87948500D01*
X145579890Y-87948500D01*
X145740110Y-87948500D01*
X145811583Y-87948500D01*
X145879704Y-87968502D01*
X145926197Y-88022158D01*
X145936301Y-88092432D01*
X145933290Y-88107111D01*
X145878402Y-88311956D01*
X145858066Y-88544400D01*
X145878402Y-88776844D01*
X145903993Y-88872349D01*
X145938513Y-89001183D01*
X145938793Y-89002226D01*
X146037404Y-89213697D01*
X146171238Y-89404832D01*
X146336228Y-89569822D01*
X146380184Y-89600600D01*
X146527360Y-89703654D01*
X146530181Y-89705283D01*
X146531174Y-89706324D01*
X146531870Y-89706812D01*
X146531772Y-89706951D01*
X146579172Y-89756668D01*
X146592605Y-89826382D01*
X146566215Y-89892292D01*
X146530181Y-89923517D01*
X146527360Y-89925145D01*
X146336231Y-90058975D01*
X146336225Y-90058980D01*
X146171240Y-90223965D01*
X146171235Y-90223971D01*
X146037404Y-90415102D01*
X145938794Y-90626571D01*
X145938792Y-90626575D01*
X145894583Y-90791566D01*
X145878402Y-90851956D01*
X145858066Y-91084400D01*
X145878402Y-91316844D01*
X145891145Y-91364402D01*
X145938792Y-91542224D01*
X145938794Y-91542228D01*
X146037404Y-91753697D01*
X146154800Y-91921357D01*
X146171238Y-91944832D01*
X146336228Y-92109822D01*
X146527363Y-92243656D01*
X146527373Y-92243660D01*
X146530674Y-92245567D01*
X146531843Y-92246793D01*
X146531870Y-92246812D01*
X146531866Y-92246817D01*
X146579669Y-92296948D01*
X146593108Y-92366661D01*
X146566724Y-92432573D01*
X146530689Y-92463802D01*
X146527616Y-92465576D01*
X146450818Y-92519349D01*
X147112535Y-93181066D01*
X147022966Y-93205067D01*
X146920354Y-93264310D01*
X146836570Y-93348094D01*
X146777327Y-93450706D01*
X146753326Y-93540275D01*
X146091609Y-92878558D01*
X146037839Y-92955352D01*
X145939266Y-93166742D01*
X145939264Y-93166747D01*
X145878897Y-93392044D01*
X145858568Y-93624400D01*
X145878897Y-93856755D01*
X145939264Y-94082052D01*
X145939266Y-94082057D01*
X146037839Y-94293448D01*
X146091609Y-94370239D01*
X146753326Y-93708522D01*
X146777327Y-93798094D01*
X146836570Y-93900706D01*
X146920354Y-93984490D01*
X147022966Y-94043733D01*
X147112536Y-94067733D01*
X146450819Y-94729449D01*
X146450819Y-94729451D01*
X146527607Y-94783218D01*
X146530673Y-94784988D01*
X146531754Y-94786121D01*
X146532120Y-94786378D01*
X146532068Y-94786451D01*
X146579669Y-94836368D01*
X146593108Y-94906081D01*
X146566724Y-94971993D01*
X146530684Y-95003226D01*
X146527364Y-95005142D01*
X146336231Y-95138975D01*
X146336225Y-95138980D01*
X146171240Y-95303965D01*
X146171235Y-95303971D01*
X146037404Y-95495102D01*
X145938794Y-95706571D01*
X145938792Y-95706575D01*
X145914530Y-95797123D01*
X145878402Y-95931956D01*
X145858066Y-96164400D01*
X145878402Y-96396844D01*
X145907177Y-96504235D01*
X145938792Y-96622224D01*
X145938794Y-96622228D01*
X146037404Y-96833697D01*
X146096225Y-96917703D01*
X146171238Y-97024832D01*
X146336228Y-97189822D01*
X146384111Y-97223350D01*
X146527360Y-97323654D01*
X146530181Y-97325283D01*
X146531174Y-97326324D01*
X146531870Y-97326812D01*
X146531772Y-97326951D01*
X146579172Y-97376668D01*
X146592605Y-97446382D01*
X146566215Y-97512292D01*
X146530181Y-97543517D01*
X146527360Y-97545145D01*
X146336231Y-97678975D01*
X146336225Y-97678980D01*
X146171240Y-97843965D01*
X146171235Y-97843971D01*
X146037404Y-98035102D01*
X145938794Y-98246571D01*
X145938792Y-98246575D01*
X145894583Y-98411566D01*
X145878402Y-98471956D01*
X145858066Y-98704400D01*
X145878402Y-98936844D01*
X145910764Y-99057624D01*
X145938792Y-99162224D01*
X145938794Y-99162228D01*
X146037404Y-99373697D01*
X146137365Y-99516457D01*
X146171238Y-99564832D01*
X146336228Y-99729822D01*
X146431795Y-99796739D01*
X146527360Y-99863654D01*
X146530181Y-99865283D01*
X146531174Y-99866324D01*
X146531870Y-99866812D01*
X146531772Y-99866951D01*
X146579172Y-99916668D01*
X146592605Y-99986382D01*
X146566215Y-100052292D01*
X146530181Y-100083517D01*
X146527360Y-100085145D01*
X146336231Y-100218975D01*
X146336225Y-100218980D01*
X146171240Y-100383965D01*
X146171235Y-100383971D01*
X146037404Y-100575102D01*
X145938794Y-100786571D01*
X145938792Y-100786575D01*
X145895929Y-100946544D01*
X145878402Y-101011956D01*
X145858066Y-101244400D01*
X145878402Y-101476844D01*
X145884223Y-101498568D01*
X145938792Y-101702224D01*
X145938794Y-101702228D01*
X146037404Y-101913697D01*
X146086691Y-101984087D01*
X146171238Y-102104832D01*
X146336228Y-102269822D01*
X146365261Y-102290151D01*
X146527360Y-102403654D01*
X146530181Y-102405283D01*
X146531174Y-102406324D01*
X146531870Y-102406812D01*
X146531772Y-102406951D01*
X146579172Y-102456668D01*
X146592605Y-102526382D01*
X146566215Y-102592292D01*
X146530181Y-102623517D01*
X146527360Y-102625145D01*
X146336231Y-102758975D01*
X146336225Y-102758980D01*
X146171240Y-102923965D01*
X146171235Y-102923971D01*
X146037404Y-103115102D01*
X145938794Y-103326571D01*
X145938792Y-103326575D01*
X145894583Y-103491566D01*
X145878402Y-103551956D01*
X145858066Y-103784400D01*
X145878402Y-104016844D01*
X145938793Y-104242226D01*
X146037404Y-104453697D01*
X146171238Y-104644832D01*
X146336228Y-104809822D01*
X146527363Y-104943656D01*
X146527373Y-104943660D01*
X146530674Y-104945567D01*
X146531843Y-104946793D01*
X146531870Y-104946812D01*
X146531866Y-104946817D01*
X146579669Y-104996948D01*
X146593108Y-105066661D01*
X146566724Y-105132573D01*
X146530689Y-105163802D01*
X146527616Y-105165576D01*
X146450819Y-105219348D01*
X147112537Y-105881066D01*
X147022966Y-105905067D01*
X146920354Y-105964310D01*
X146836570Y-106048094D01*
X146777327Y-106150706D01*
X146753326Y-106240275D01*
X146091609Y-105578558D01*
X146037839Y-105655352D01*
X145939266Y-105866742D01*
X145939264Y-105866747D01*
X145878897Y-106092044D01*
X145858568Y-106324400D01*
X145878897Y-106556755D01*
X145939264Y-106782052D01*
X145939266Y-106782057D01*
X146037839Y-106993448D01*
X146091609Y-107070239D01*
X146753326Y-106408522D01*
X146777327Y-106498094D01*
X146836570Y-106600706D01*
X146920354Y-106684490D01*
X147022966Y-106743733D01*
X147112534Y-106767733D01*
X146450819Y-107429448D01*
X146450819Y-107429451D01*
X146527607Y-107483218D01*
X146530673Y-107484988D01*
X146531754Y-107486121D01*
X146532120Y-107486378D01*
X146532068Y-107486451D01*
X146579669Y-107536368D01*
X146593108Y-107606081D01*
X146566724Y-107671993D01*
X146530684Y-107703226D01*
X146527364Y-107705142D01*
X146336231Y-107838975D01*
X146336225Y-107838980D01*
X146171240Y-108003965D01*
X146171235Y-108003971D01*
X146037404Y-108195102D01*
X145938794Y-108406571D01*
X145938792Y-108406575D01*
X145931235Y-108434779D01*
X145878402Y-108631956D01*
X145858066Y-108864400D01*
X145878402Y-109096844D01*
X145938793Y-109322226D01*
X146037404Y-109533697D01*
X146171238Y-109724832D01*
X146336228Y-109889822D01*
X146431795Y-109956739D01*
X146527360Y-110023654D01*
X146530181Y-110025283D01*
X146531174Y-110026324D01*
X146531870Y-110026812D01*
X146531772Y-110026951D01*
X146579172Y-110076668D01*
X146592605Y-110146382D01*
X146566215Y-110212292D01*
X146530181Y-110243517D01*
X146527360Y-110245145D01*
X146336231Y-110378975D01*
X146336225Y-110378980D01*
X146171240Y-110543965D01*
X146171235Y-110543971D01*
X146037404Y-110735102D01*
X145938794Y-110946571D01*
X145938792Y-110946575D01*
X145910222Y-111053201D01*
X145878402Y-111171956D01*
X145858066Y-111404400D01*
X145878402Y-111636844D01*
X145902767Y-111727774D01*
X145934341Y-111845613D01*
X145938793Y-111862226D01*
X145961904Y-111911787D01*
X146037404Y-112073697D01*
X146127053Y-112201730D01*
X146171238Y-112264832D01*
X146336228Y-112429822D01*
X146345485Y-112436304D01*
X146527360Y-112563654D01*
X146530181Y-112565283D01*
X146531174Y-112566324D01*
X146531870Y-112566812D01*
X146531772Y-112566951D01*
X146579172Y-112616668D01*
X146592605Y-112686382D01*
X146566215Y-112752292D01*
X146530181Y-112783517D01*
X146527360Y-112785145D01*
X146336231Y-112918975D01*
X146336225Y-112918980D01*
X146171240Y-113083965D01*
X146171235Y-113083971D01*
X146037404Y-113275102D01*
X145938794Y-113486571D01*
X145938792Y-113486575D01*
X145905312Y-113611525D01*
X145878402Y-113711956D01*
X145858066Y-113944400D01*
X145878402Y-114176844D01*
X145893368Y-114232698D01*
X145934436Y-114385968D01*
X145938793Y-114402226D01*
X146037404Y-114613697D01*
X146171238Y-114804832D01*
X146336228Y-114969822D01*
X146350544Y-114979846D01*
X146527360Y-115103654D01*
X146530181Y-115105283D01*
X146531174Y-115106324D01*
X146531870Y-115106812D01*
X146531772Y-115106951D01*
X146579172Y-115156668D01*
X146592605Y-115226382D01*
X146566215Y-115292292D01*
X146530181Y-115323517D01*
X146527360Y-115325145D01*
X146336231Y-115458975D01*
X146336225Y-115458980D01*
X146171240Y-115623965D01*
X146171235Y-115623971D01*
X146037404Y-115815102D01*
X145938794Y-116026571D01*
X145938792Y-116026575D01*
X145902217Y-116163077D01*
X145878402Y-116251956D01*
X145858066Y-116484400D01*
X145878402Y-116716844D01*
X145938793Y-116942226D01*
X146037404Y-117153697D01*
X146171238Y-117344832D01*
X146336228Y-117509822D01*
X146527363Y-117643656D01*
X146527373Y-117643660D01*
X146530674Y-117645567D01*
X146531843Y-117646793D01*
X146531870Y-117646812D01*
X146531866Y-117646817D01*
X146579669Y-117696948D01*
X146593108Y-117766661D01*
X146566724Y-117832573D01*
X146530689Y-117863802D01*
X146527616Y-117865576D01*
X146450819Y-117919348D01*
X147112537Y-118581066D01*
X147022966Y-118605067D01*
X146920354Y-118664310D01*
X146836570Y-118748094D01*
X146777327Y-118850706D01*
X146753326Y-118940275D01*
X146091609Y-118278558D01*
X146037839Y-118355352D01*
X145939266Y-118566742D01*
X145939264Y-118566747D01*
X145878897Y-118792044D01*
X145858568Y-119024400D01*
X145878897Y-119256755D01*
X145939264Y-119482052D01*
X145939266Y-119482057D01*
X146037839Y-119693448D01*
X146091609Y-119770239D01*
X146753326Y-119108522D01*
X146777327Y-119198094D01*
X146836570Y-119300706D01*
X146920354Y-119384490D01*
X147022966Y-119443733D01*
X147112534Y-119467733D01*
X146450819Y-120129448D01*
X146450819Y-120129451D01*
X146527607Y-120183218D01*
X146530673Y-120184988D01*
X146531754Y-120186121D01*
X146532120Y-120186378D01*
X146532068Y-120186451D01*
X146579669Y-120236368D01*
X146593108Y-120306081D01*
X146566724Y-120371993D01*
X146530684Y-120403226D01*
X146527364Y-120405142D01*
X146336231Y-120538975D01*
X146336225Y-120538980D01*
X146171240Y-120703965D01*
X146171235Y-120703971D01*
X146037404Y-120895102D01*
X145938794Y-121106571D01*
X145938792Y-121106575D01*
X145909985Y-121214086D01*
X145878402Y-121331956D01*
X145858066Y-121564400D01*
X145878402Y-121796844D01*
X145910764Y-121917624D01*
X145938792Y-122022224D01*
X145938794Y-122022228D01*
X146037404Y-122233697D01*
X146164157Y-122414720D01*
X146171238Y-122424832D01*
X146336228Y-122589822D01*
X146409670Y-122641246D01*
X146453998Y-122696702D01*
X146461307Y-122767322D01*
X146429277Y-122830682D01*
X146394603Y-122856725D01*
X146279789Y-122915226D01*
X146279782Y-122915231D01*
X146129327Y-123037067D01*
X146007491Y-123187522D01*
X146007489Y-123187525D01*
X145919595Y-123360026D01*
X145870166Y-123544500D01*
X145869488Y-123547030D01*
X145863243Y-123626389D01*
X145863160Y-123627441D01*
X145863160Y-124581360D01*
X145869487Y-124661767D01*
X145869487Y-124661768D01*
X145919595Y-124848773D01*
X146007489Y-125021274D01*
X146007491Y-125021277D01*
X146129327Y-125171732D01*
X146209192Y-125236405D01*
X146279784Y-125293570D01*
X146452285Y-125381464D01*
X146639290Y-125431572D01*
X146719699Y-125437900D01*
X147051013Y-125437899D01*
X147119132Y-125457901D01*
X147165625Y-125511556D01*
X147175730Y-125581830D01*
X147157701Y-125630933D01*
X147143950Y-125652817D01*
X147087497Y-125814151D01*
X147068361Y-125984000D01*
X147087497Y-126153848D01*
X147143950Y-126315182D01*
X147234891Y-126459912D01*
X147355747Y-126580768D01*
X147355749Y-126580769D01*
X147355751Y-126580771D01*
X147500477Y-126671709D01*
X147661810Y-126728162D01*
X147661809Y-126728162D01*
X147679008Y-126730099D01*
X147831660Y-126747299D01*
X148001510Y-126728162D01*
X148162843Y-126671709D01*
X148307569Y-126580771D01*
X148428431Y-126459909D01*
X148519369Y-126315183D01*
X148575822Y-126153850D01*
X148577674Y-126137412D01*
X148605175Y-126071958D01*
X148613776Y-126062431D01*
X148784406Y-125891801D01*
X148846717Y-125857778D01*
X148917533Y-125862843D01*
X148974368Y-125905390D01*
X148999179Y-125971911D01*
X148999500Y-125980899D01*
X148999500Y-127128300D01*
X148979498Y-127196421D01*
X148925842Y-127242914D01*
X148873500Y-127254300D01*
X100201700Y-127254300D01*
X100133579Y-127234298D01*
X100087086Y-127180642D01*
X100075700Y-127128300D01*
X100075700Y-117896133D01*
X100095702Y-117828012D01*
X100149358Y-117781519D01*
X100219632Y-117771415D01*
X100284212Y-117800909D01*
X100310816Y-117833130D01*
X100348072Y-117897658D01*
X100383075Y-117958286D01*
X100383083Y-117958296D01*
X104495372Y-122070585D01*
X104529398Y-122132897D01*
X104524333Y-122203712D01*
X104481786Y-122260548D01*
X104480338Y-122261616D01*
X104449653Y-122283909D01*
X104449653Y-122283912D01*
X105099708Y-122933967D01*
X104994801Y-123010188D01*
X104816719Y-123188270D01*
X104740498Y-123293177D01*
X104093173Y-122645852D01*
X104004103Y-122753521D01*
X104004100Y-122753524D01*
X103835013Y-123019963D01*
X103835006Y-123019977D01*
X103700644Y-123305511D01*
X103700640Y-123305520D01*
X103603123Y-123605644D01*
X103603120Y-123605657D01*
X103543987Y-123915638D01*
X103543985Y-123915655D01*
X103524172Y-124230593D01*
X103524172Y-124230606D01*
X103543985Y-124545544D01*
X103543987Y-124545561D01*
X103603120Y-124855542D01*
X103603123Y-124855555D01*
X103700640Y-125155679D01*
X103700644Y-125155688D01*
X103835006Y-125441222D01*
X103835013Y-125441236D01*
X104004100Y-125707675D01*
X104004102Y-125707678D01*
X104093173Y-125815346D01*
X104740498Y-125168021D01*
X104816719Y-125272930D01*
X104994801Y-125451012D01*
X105099707Y-125527231D01*
X104449653Y-126177286D01*
X104449653Y-126177288D01*
X104690613Y-126352356D01*
X104967165Y-126504392D01*
X105260591Y-126620568D01*
X105260597Y-126620570D01*
X105566234Y-126699044D01*
X105566261Y-126699049D01*
X105879326Y-126738598D01*
X105879345Y-126738600D01*
X106194917Y-126738600D01*
X106194935Y-126738598D01*
X106508000Y-126699049D01*
X106508027Y-126699044D01*
X106813664Y-126620570D01*
X106813670Y-126620568D01*
X107107096Y-126504392D01*
X107383643Y-126352359D01*
X107624607Y-126177288D01*
X107624607Y-126177286D01*
X106974553Y-125527231D01*
X107079461Y-125451012D01*
X107257543Y-125272930D01*
X107333763Y-125168022D01*
X107981087Y-125815346D01*
X108070161Y-125707675D01*
X108070164Y-125707671D01*
X108239248Y-125441236D01*
X108239255Y-125441222D01*
X108373617Y-125155688D01*
X108373621Y-125155679D01*
X108471138Y-124855555D01*
X108471141Y-124855542D01*
X108530274Y-124545561D01*
X108530276Y-124545544D01*
X108550090Y-124230606D01*
X108550090Y-124230596D01*
X108546894Y-124179807D01*
X108562578Y-124110565D01*
X108613208Y-124060794D01*
X108682709Y-124046297D01*
X108749014Y-124071676D01*
X108761740Y-124082799D01*
X109875996Y-125197054D01*
X109875998Y-125197056D01*
X109876001Y-125197058D01*
X109876002Y-125197059D01*
X109975670Y-125263656D01*
X110020705Y-125293748D01*
X110181489Y-125360347D01*
X110181490Y-125360347D01*
X110181492Y-125360348D01*
X110187159Y-125361475D01*
X110250069Y-125394378D01*
X110251679Y-125395960D01*
X111549234Y-126693515D01*
X111549235Y-126693516D01*
X111654884Y-126799165D01*
X111779116Y-126882174D01*
X111917154Y-126939351D01*
X112063694Y-126968500D01*
X127385761Y-126968500D01*
X127385765Y-126968500D01*
X127385766Y-126968500D01*
X127459036Y-126953925D01*
X127532307Y-126939351D01*
X127670344Y-126882174D01*
X127794575Y-126799166D01*
X129130595Y-125463144D01*
X129192904Y-125429122D01*
X129230661Y-125426721D01*
X129416660Y-125442994D01*
X129649104Y-125422658D01*
X129874486Y-125362267D01*
X130085957Y-125263656D01*
X130277092Y-125129822D01*
X130442082Y-124964832D01*
X130575916Y-124773697D01*
X130674527Y-124562226D01*
X130734918Y-124336844D01*
X130755254Y-124104400D01*
X130734918Y-123871956D01*
X130674527Y-123646574D01*
X130575916Y-123435103D01*
X130442082Y-123243968D01*
X130277092Y-123078978D01*
X130217239Y-123037068D01*
X130085953Y-122945141D01*
X130083145Y-122943520D01*
X130082154Y-122942481D01*
X130081450Y-122941988D01*
X130081549Y-122941846D01*
X130034151Y-122892138D01*
X130020713Y-122822425D01*
X130047099Y-122756514D01*
X130083145Y-122725280D01*
X130085953Y-122723658D01*
X130085953Y-122723657D01*
X130085957Y-122723656D01*
X130277092Y-122589822D01*
X130442082Y-122424832D01*
X130575916Y-122233697D01*
X130674527Y-122022226D01*
X130734918Y-121796844D01*
X130755254Y-121564400D01*
X130734918Y-121331956D01*
X130674527Y-121106574D01*
X130575916Y-120895103D01*
X130442082Y-120703968D01*
X130277092Y-120538978D01*
X130277088Y-120538975D01*
X130085954Y-120405141D01*
X130082641Y-120403229D01*
X130081473Y-120402004D01*
X130081450Y-120401988D01*
X130081453Y-120401983D01*
X130033648Y-120351846D01*
X130020212Y-120282133D01*
X130046598Y-120216222D01*
X130082642Y-120184990D01*
X130085713Y-120183216D01*
X130162499Y-120129451D01*
X130162499Y-120129448D01*
X129500784Y-119467733D01*
X129590354Y-119443733D01*
X129692966Y-119384490D01*
X129776750Y-119300706D01*
X129835993Y-119198094D01*
X129859993Y-119108524D01*
X130521708Y-119770239D01*
X130521711Y-119770239D01*
X130575481Y-119693446D01*
X130575482Y-119693444D01*
X130674053Y-119482057D01*
X130674055Y-119482052D01*
X130734422Y-119256755D01*
X130754751Y-119024400D01*
X130734422Y-118792044D01*
X130674055Y-118566747D01*
X130674053Y-118566742D01*
X130575479Y-118355348D01*
X130575478Y-118355347D01*
X130521711Y-118278559D01*
X130521709Y-118278559D01*
X129859993Y-118940275D01*
X129835993Y-118850706D01*
X129776750Y-118748094D01*
X129692966Y-118664310D01*
X129590354Y-118605067D01*
X129500783Y-118581066D01*
X130162499Y-117919349D01*
X130085707Y-117865578D01*
X130082642Y-117863809D01*
X130081561Y-117862675D01*
X130081199Y-117862422D01*
X130081250Y-117862349D01*
X130033648Y-117812426D01*
X130020211Y-117742713D01*
X130046598Y-117676802D01*
X130082651Y-117645564D01*
X130085945Y-117643661D01*
X130085957Y-117643656D01*
X130277092Y-117509822D01*
X130442082Y-117344832D01*
X130575916Y-117153697D01*
X130674527Y-116942226D01*
X130734918Y-116716844D01*
X130755254Y-116484400D01*
X130734918Y-116251956D01*
X130674527Y-116026574D01*
X130575916Y-115815103D01*
X130442082Y-115623968D01*
X130277092Y-115458978D01*
X130157011Y-115374896D01*
X130085953Y-115325141D01*
X130083145Y-115323520D01*
X130082154Y-115322481D01*
X130081450Y-115321988D01*
X130081549Y-115321846D01*
X130034151Y-115272138D01*
X130020713Y-115202425D01*
X130047099Y-115136514D01*
X130083145Y-115105280D01*
X130085953Y-115103658D01*
X130085953Y-115103657D01*
X130085957Y-115103656D01*
X130277092Y-114969822D01*
X130442082Y-114804832D01*
X130575916Y-114613697D01*
X130604654Y-114552066D01*
X130629749Y-114516225D01*
X132606259Y-112539717D01*
X132612488Y-112530393D01*
X132628158Y-112511298D01*
X139678719Y-105460738D01*
X139775408Y-105316035D01*
X139842008Y-105155248D01*
X139875960Y-104984557D01*
X139875960Y-104810523D01*
X139875960Y-89148043D01*
X139885551Y-89099825D01*
X139887279Y-89095652D01*
X139962204Y-88914769D01*
X140000960Y-88719929D01*
X140000960Y-86235271D01*
X139962204Y-86040431D01*
X139886181Y-85856896D01*
X139885551Y-85855375D01*
X139875960Y-85807157D01*
X139875960Y-82720699D01*
X139895962Y-82652578D01*
X139949618Y-82606085D01*
X140019892Y-82595981D01*
X140084472Y-82625475D01*
G37*
%TD.AperFunction*%
%TA.AperFunction,Conductor*%
G36*
X109948744Y-122226210D02*
G01*
X109969718Y-122243113D01*
X112963009Y-125236405D01*
X112997035Y-125298717D01*
X112991970Y-125369533D01*
X112949423Y-125426368D01*
X112882903Y-125451179D01*
X112873914Y-125451500D01*
X112504771Y-125451500D01*
X112436650Y-125431498D01*
X112415676Y-125414595D01*
X111324360Y-124323279D01*
X111290334Y-124260967D01*
X111289890Y-124258835D01*
X111288748Y-124253092D01*
X111275103Y-124220151D01*
X111222148Y-124092305D01*
X111125456Y-123947598D01*
X111125454Y-123947596D01*
X109821304Y-122643445D01*
X109821298Y-122643440D01*
X109741053Y-122589822D01*
X109676595Y-122546752D01*
X109515808Y-122480152D01*
X109393315Y-122455787D01*
X109330406Y-122422879D01*
X109295274Y-122361184D01*
X109299074Y-122290290D01*
X109340600Y-122232704D01*
X109406667Y-122206709D01*
X109417897Y-122206208D01*
X109880623Y-122206208D01*
X109948744Y-122226210D01*
G37*
%TD.AperFunction*%
%TA.AperFunction,Conductor*%
G36*
X128217677Y-86632902D02*
G01*
X128253068Y-86670015D01*
X128254248Y-86669190D01*
X128376295Y-86843492D01*
X128391238Y-86864832D01*
X128556228Y-87029822D01*
X128556231Y-87029824D01*
X128747360Y-87163654D01*
X128750181Y-87165283D01*
X128751174Y-87166324D01*
X128751870Y-87166812D01*
X128751772Y-87166951D01*
X128799172Y-87216668D01*
X128812605Y-87286382D01*
X128786215Y-87352292D01*
X128750181Y-87383517D01*
X128747360Y-87385145D01*
X128556231Y-87518975D01*
X128556225Y-87518980D01*
X128391240Y-87683965D01*
X128391235Y-87683971D01*
X128257404Y-87875102D01*
X128158794Y-88086571D01*
X128158792Y-88086575D01*
X128114583Y-88251566D01*
X128098402Y-88311956D01*
X128078066Y-88544400D01*
X128098402Y-88776844D01*
X128123993Y-88872349D01*
X128158513Y-89001183D01*
X128158793Y-89002226D01*
X128257404Y-89213697D01*
X128391238Y-89404832D01*
X128556228Y-89569822D01*
X128600184Y-89600600D01*
X128747360Y-89703654D01*
X128750181Y-89705283D01*
X128751174Y-89706324D01*
X128751870Y-89706812D01*
X128751772Y-89706951D01*
X128799172Y-89756668D01*
X128812605Y-89826382D01*
X128786215Y-89892292D01*
X128750181Y-89923517D01*
X128747360Y-89925145D01*
X128556231Y-90058975D01*
X128556225Y-90058980D01*
X128391240Y-90223965D01*
X128391235Y-90223971D01*
X128257404Y-90415102D01*
X128158794Y-90626571D01*
X128158792Y-90626575D01*
X128114583Y-90791566D01*
X128098402Y-90851956D01*
X128078066Y-91084400D01*
X128098402Y-91316844D01*
X128111145Y-91364402D01*
X128158792Y-91542224D01*
X128158794Y-91542228D01*
X128257404Y-91753697D01*
X128374800Y-91921357D01*
X128391238Y-91944832D01*
X128556228Y-92109822D01*
X128747363Y-92243656D01*
X128747373Y-92243660D01*
X128750674Y-92245567D01*
X128751843Y-92246793D01*
X128751870Y-92246812D01*
X128751866Y-92246817D01*
X128799669Y-92296948D01*
X128813108Y-92366661D01*
X128786724Y-92432573D01*
X128750689Y-92463802D01*
X128747616Y-92465576D01*
X128670818Y-92519349D01*
X129332535Y-93181066D01*
X129242966Y-93205067D01*
X129140354Y-93264310D01*
X129056570Y-93348094D01*
X128997327Y-93450706D01*
X128973326Y-93540275D01*
X128311609Y-92878558D01*
X128257839Y-92955352D01*
X128159266Y-93166742D01*
X128159264Y-93166747D01*
X128098897Y-93392044D01*
X128078568Y-93624400D01*
X128098897Y-93856755D01*
X128159264Y-94082052D01*
X128159266Y-94082057D01*
X128257839Y-94293448D01*
X128311609Y-94370239D01*
X128973326Y-93708522D01*
X128997327Y-93798094D01*
X129056570Y-93900706D01*
X129140354Y-93984490D01*
X129242966Y-94043733D01*
X129332536Y-94067733D01*
X128670819Y-94729449D01*
X128670819Y-94729451D01*
X128747607Y-94783218D01*
X128750673Y-94784988D01*
X128751754Y-94786121D01*
X128752120Y-94786378D01*
X128752068Y-94786451D01*
X128799669Y-94836368D01*
X128813108Y-94906081D01*
X128786724Y-94971993D01*
X128750684Y-95003226D01*
X128747364Y-95005142D01*
X128556231Y-95138975D01*
X128556225Y-95138980D01*
X128391240Y-95303965D01*
X128391235Y-95303971D01*
X128257404Y-95495102D01*
X128158794Y-95706571D01*
X128158792Y-95706575D01*
X128134530Y-95797123D01*
X128098402Y-95931956D01*
X128078066Y-96164400D01*
X128098402Y-96396844D01*
X128127177Y-96504235D01*
X128158792Y-96622224D01*
X128158794Y-96622228D01*
X128257404Y-96833697D01*
X128316225Y-96917703D01*
X128391238Y-97024832D01*
X128556228Y-97189822D01*
X128604111Y-97223350D01*
X128747360Y-97323654D01*
X128750181Y-97325283D01*
X128751174Y-97326324D01*
X128751870Y-97326812D01*
X128751772Y-97326951D01*
X128799172Y-97376668D01*
X128812605Y-97446382D01*
X128786215Y-97512292D01*
X128750181Y-97543517D01*
X128747360Y-97545145D01*
X128556231Y-97678975D01*
X128556225Y-97678980D01*
X128391240Y-97843965D01*
X128391235Y-97843971D01*
X128257404Y-98035102D01*
X128158794Y-98246571D01*
X128158792Y-98246575D01*
X128114583Y-98411566D01*
X128098402Y-98471956D01*
X128078066Y-98704400D01*
X128098402Y-98936844D01*
X128130764Y-99057624D01*
X128158792Y-99162224D01*
X128158794Y-99162228D01*
X128257404Y-99373697D01*
X128357365Y-99516457D01*
X128391238Y-99564832D01*
X128556228Y-99729822D01*
X128651795Y-99796739D01*
X128747360Y-99863654D01*
X128750181Y-99865283D01*
X128751174Y-99866324D01*
X128751870Y-99866812D01*
X128751772Y-99866951D01*
X128799172Y-99916668D01*
X128812605Y-99986382D01*
X128786215Y-100052292D01*
X128750181Y-100083517D01*
X128747360Y-100085145D01*
X128556231Y-100218975D01*
X128556225Y-100218980D01*
X128391240Y-100383965D01*
X128391235Y-100383971D01*
X128257404Y-100575102D01*
X128158794Y-100786571D01*
X128158792Y-100786575D01*
X128115929Y-100946544D01*
X128098402Y-101011956D01*
X128078066Y-101244400D01*
X128098402Y-101476844D01*
X128104223Y-101498568D01*
X128158792Y-101702224D01*
X128158794Y-101702228D01*
X128257404Y-101913697D01*
X128306691Y-101984087D01*
X128391238Y-102104832D01*
X128556228Y-102269822D01*
X128585261Y-102290151D01*
X128747360Y-102403654D01*
X128750181Y-102405283D01*
X128751174Y-102406324D01*
X128751870Y-102406812D01*
X128751772Y-102406951D01*
X128799172Y-102456668D01*
X128812605Y-102526382D01*
X128786215Y-102592292D01*
X128750181Y-102623517D01*
X128747360Y-102625145D01*
X128556231Y-102758975D01*
X128556225Y-102758980D01*
X128391240Y-102923965D01*
X128391235Y-102923971D01*
X128257404Y-103115102D01*
X128158794Y-103326571D01*
X128158792Y-103326575D01*
X128114583Y-103491566D01*
X128098402Y-103551956D01*
X128078066Y-103784400D01*
X128098402Y-104016844D01*
X128158793Y-104242226D01*
X128257404Y-104453697D01*
X128391238Y-104644832D01*
X128556228Y-104809822D01*
X128747363Y-104943656D01*
X128747373Y-104943660D01*
X128750674Y-104945567D01*
X128751843Y-104946793D01*
X128751870Y-104946812D01*
X128751866Y-104946817D01*
X128799669Y-104996948D01*
X128813108Y-105066661D01*
X128786724Y-105132573D01*
X128750689Y-105163802D01*
X128747616Y-105165576D01*
X128670818Y-105219349D01*
X129332535Y-105881066D01*
X129242966Y-105905067D01*
X129140354Y-105964310D01*
X129056570Y-106048094D01*
X128997327Y-106150706D01*
X128973326Y-106240275D01*
X128311609Y-105578558D01*
X128257839Y-105655352D01*
X128159266Y-105866742D01*
X128159264Y-105866747D01*
X128098897Y-106092044D01*
X128078568Y-106324400D01*
X128098897Y-106556755D01*
X128159264Y-106782052D01*
X128159266Y-106782057D01*
X128257839Y-106993448D01*
X128311609Y-107070239D01*
X128973326Y-106408522D01*
X128997327Y-106498094D01*
X129056570Y-106600706D01*
X129140354Y-106684490D01*
X129242966Y-106743733D01*
X129332536Y-106767733D01*
X128670819Y-107429449D01*
X128670819Y-107429451D01*
X128747607Y-107483218D01*
X128750673Y-107484988D01*
X128751754Y-107486121D01*
X128752120Y-107486378D01*
X128752068Y-107486451D01*
X128799669Y-107536368D01*
X128813108Y-107606081D01*
X128786724Y-107671993D01*
X128750684Y-107703226D01*
X128747364Y-107705142D01*
X128556231Y-107838975D01*
X128556225Y-107838980D01*
X128391240Y-108003965D01*
X128391235Y-108003971D01*
X128257404Y-108195102D01*
X128158794Y-108406571D01*
X128158792Y-108406575D01*
X128151235Y-108434779D01*
X128098402Y-108631956D01*
X128078066Y-108864400D01*
X128098402Y-109096844D01*
X128158793Y-109322226D01*
X128257404Y-109533697D01*
X128391238Y-109724832D01*
X128556228Y-109889822D01*
X128651795Y-109956739D01*
X128747360Y-110023654D01*
X128750181Y-110025283D01*
X128751174Y-110026324D01*
X128751870Y-110026812D01*
X128751772Y-110026951D01*
X128799172Y-110076668D01*
X128812605Y-110146382D01*
X128786215Y-110212292D01*
X128750181Y-110243517D01*
X128747360Y-110245145D01*
X128556231Y-110378975D01*
X128556225Y-110378980D01*
X128391240Y-110543965D01*
X128391235Y-110543971D01*
X128257404Y-110735102D01*
X128158794Y-110946571D01*
X128158792Y-110946575D01*
X128130222Y-111053201D01*
X128098402Y-111171956D01*
X128078066Y-111404400D01*
X128098402Y-111636844D01*
X128122767Y-111727774D01*
X128154341Y-111845613D01*
X128158793Y-111862226D01*
X128181904Y-111911787D01*
X128257404Y-112073697D01*
X128347053Y-112201730D01*
X128391238Y-112264832D01*
X128556228Y-112429822D01*
X128565485Y-112436304D01*
X128747360Y-112563654D01*
X128750181Y-112565283D01*
X128751174Y-112566324D01*
X128751870Y-112566812D01*
X128751772Y-112566951D01*
X128799172Y-112616668D01*
X128812605Y-112686382D01*
X128786215Y-112752292D01*
X128750181Y-112783517D01*
X128747360Y-112785145D01*
X128556231Y-112918975D01*
X128556225Y-112918980D01*
X128391240Y-113083965D01*
X128391235Y-113083971D01*
X128257404Y-113275102D01*
X128158794Y-113486571D01*
X128158792Y-113486575D01*
X128125312Y-113611525D01*
X128098402Y-113711956D01*
X128078066Y-113944400D01*
X128098402Y-114176844D01*
X128113368Y-114232698D01*
X128154436Y-114385968D01*
X128158793Y-114402226D01*
X128257404Y-114613697D01*
X128391238Y-114804832D01*
X128556228Y-114969822D01*
X128570544Y-114979846D01*
X128747360Y-115103654D01*
X128750181Y-115105283D01*
X128751174Y-115106324D01*
X128751870Y-115106812D01*
X128751772Y-115106951D01*
X128799172Y-115156668D01*
X128812605Y-115226382D01*
X128786215Y-115292292D01*
X128750181Y-115323517D01*
X128747360Y-115325145D01*
X128556231Y-115458975D01*
X128556225Y-115458980D01*
X128391240Y-115623965D01*
X128391235Y-115623971D01*
X128257404Y-115815102D01*
X128158794Y-116026571D01*
X128158792Y-116026575D01*
X128122217Y-116163077D01*
X128098402Y-116251956D01*
X128078066Y-116484400D01*
X128098402Y-116716844D01*
X128158793Y-116942226D01*
X128257404Y-117153697D01*
X128391238Y-117344832D01*
X128556228Y-117509822D01*
X128747363Y-117643656D01*
X128747373Y-117643660D01*
X128750674Y-117645567D01*
X128751843Y-117646793D01*
X128751870Y-117646812D01*
X128751866Y-117646817D01*
X128799669Y-117696948D01*
X128813108Y-117766661D01*
X128786724Y-117832573D01*
X128750689Y-117863802D01*
X128747616Y-117865576D01*
X128670818Y-117919349D01*
X129332535Y-118581066D01*
X129242966Y-118605067D01*
X129140354Y-118664310D01*
X129056570Y-118748094D01*
X128997327Y-118850706D01*
X128973326Y-118940275D01*
X128311609Y-118278558D01*
X128257839Y-118355352D01*
X128159266Y-118566742D01*
X128159264Y-118566747D01*
X128098897Y-118792044D01*
X128078568Y-119024400D01*
X128098897Y-119256755D01*
X128159264Y-119482052D01*
X128159266Y-119482057D01*
X128257839Y-119693448D01*
X128311609Y-119770239D01*
X128973326Y-119108522D01*
X128997327Y-119198094D01*
X129056570Y-119300706D01*
X129140354Y-119384490D01*
X129242966Y-119443733D01*
X129332536Y-119467733D01*
X128670819Y-120129449D01*
X128670819Y-120129451D01*
X128747607Y-120183218D01*
X128750673Y-120184988D01*
X128751754Y-120186121D01*
X128752120Y-120186378D01*
X128752068Y-120186451D01*
X128799669Y-120236368D01*
X128813108Y-120306081D01*
X128786724Y-120371993D01*
X128750684Y-120403226D01*
X128747364Y-120405142D01*
X128556231Y-120538975D01*
X128556225Y-120538980D01*
X128391240Y-120703965D01*
X128391235Y-120703971D01*
X128257404Y-120895102D01*
X128158794Y-121106571D01*
X128158792Y-121106575D01*
X128129985Y-121214086D01*
X128098402Y-121331956D01*
X128078066Y-121564400D01*
X128098402Y-121796844D01*
X128130764Y-121917624D01*
X128158792Y-122022224D01*
X128158794Y-122022228D01*
X128257404Y-122233697D01*
X128384157Y-122414720D01*
X128391238Y-122424832D01*
X128556228Y-122589822D01*
X128556231Y-122589824D01*
X128747360Y-122723654D01*
X128750181Y-122725283D01*
X128751174Y-122726324D01*
X128751870Y-122726812D01*
X128751772Y-122726951D01*
X128799172Y-122776668D01*
X128812605Y-122846382D01*
X128786215Y-122912292D01*
X128750181Y-122943517D01*
X128747360Y-122945145D01*
X128556231Y-123078975D01*
X128556225Y-123078980D01*
X128391240Y-123243965D01*
X128391235Y-123243971D01*
X128257404Y-123435102D01*
X128158794Y-123646571D01*
X128158792Y-123646575D01*
X128119497Y-123793229D01*
X128098402Y-123871956D01*
X128078066Y-124104400D01*
X128091570Y-124258757D01*
X128094338Y-124290389D01*
X128080349Y-124359993D01*
X128057912Y-124390465D01*
X127033782Y-125414596D01*
X126971472Y-125448620D01*
X126944689Y-125451500D01*
X118571679Y-125451500D01*
X118503558Y-125431498D01*
X118457065Y-125377842D01*
X118446961Y-125307568D01*
X118452750Y-125283885D01*
X118454162Y-125279850D01*
X118473299Y-125110000D01*
X118454162Y-124940150D01*
X118397709Y-124778817D01*
X118391344Y-124768688D01*
X118372040Y-124700367D01*
X118379104Y-124660039D01*
X118406635Y-124581360D01*
X118414162Y-124559850D01*
X118433299Y-124390000D01*
X118414162Y-124220150D01*
X118357709Y-124058817D01*
X118266771Y-123914091D01*
X118266769Y-123914089D01*
X118266768Y-123914087D01*
X118145912Y-123793231D01*
X118001182Y-123702290D01*
X117901270Y-123667330D01*
X117839850Y-123645838D01*
X117839848Y-123645837D01*
X117839850Y-123645837D01*
X117687198Y-123628638D01*
X117670000Y-123626701D01*
X117669999Y-123626701D01*
X117668295Y-123626701D01*
X117667234Y-123626389D01*
X117662969Y-123625909D01*
X117663053Y-123625161D01*
X117600174Y-123606699D01*
X117553681Y-123553043D01*
X117543577Y-123482769D01*
X117573071Y-123418189D01*
X117626680Y-123381772D01*
X117781183Y-123327709D01*
X117925909Y-123236771D01*
X118046771Y-123115909D01*
X118137709Y-122971183D01*
X118194162Y-122809850D01*
X118213299Y-122640000D01*
X118194162Y-122470150D01*
X118137709Y-122308817D01*
X118124463Y-122287737D01*
X118105158Y-122219416D01*
X118124463Y-122153667D01*
X118207709Y-122021183D01*
X118264162Y-121859850D01*
X118283299Y-121690000D01*
X118264162Y-121520150D01*
X118207709Y-121358817D01*
X118116771Y-121214091D01*
X118116769Y-121214089D01*
X118116768Y-121214087D01*
X117995912Y-121093231D01*
X117851182Y-121002290D01*
X117751270Y-120967330D01*
X117689850Y-120945838D01*
X117689848Y-120945837D01*
X117689850Y-120945837D01*
X117520000Y-120926701D01*
X117350151Y-120945837D01*
X117188817Y-121002290D01*
X117044087Y-121093231D01*
X116923232Y-121214086D01*
X116923232Y-121214087D01*
X116923230Y-121214089D01*
X116923229Y-121214091D01*
X116875130Y-121290638D01*
X116821953Y-121337674D01*
X116768445Y-121349600D01*
X113111557Y-121349600D01*
X113043436Y-121329598D01*
X113022466Y-121312699D01*
X112132029Y-120422261D01*
X112098005Y-120359951D01*
X112103070Y-120289135D01*
X112145617Y-120232300D01*
X112212137Y-120207489D01*
X112221126Y-120207168D01*
X116071442Y-120207168D01*
X116071443Y-120207168D01*
X116148823Y-120186434D01*
X116226205Y-120165700D01*
X116364959Y-120085590D01*
X117608423Y-118842124D01*
X117670732Y-118808102D01*
X117683412Y-118806014D01*
X117699841Y-118804163D01*
X117699840Y-118804163D01*
X117699850Y-118804162D01*
X117861183Y-118747709D01*
X118005909Y-118656771D01*
X118126771Y-118535909D01*
X118217709Y-118391183D01*
X118274162Y-118229850D01*
X118293299Y-118060000D01*
X118274162Y-117890150D01*
X118217709Y-117728817D01*
X118126771Y-117584091D01*
X118126769Y-117584089D01*
X118126768Y-117584087D01*
X118005910Y-117463229D01*
X117960698Y-117434820D01*
X117913661Y-117381641D01*
X117902842Y-117311473D01*
X117931676Y-117246595D01*
X117938629Y-117239050D01*
X118029271Y-117148409D01*
X118120209Y-117003683D01*
X118176662Y-116842350D01*
X118195799Y-116672500D01*
X118176662Y-116502650D01*
X118120209Y-116341317D01*
X118029271Y-116196591D01*
X118029269Y-116196589D01*
X118029268Y-116196587D01*
X117908412Y-116075731D01*
X117763682Y-115984790D01*
X117624201Y-115935984D01*
X117566509Y-115894606D01*
X117540347Y-115828605D01*
X117554020Y-115758938D01*
X117598778Y-115710369D01*
X117715909Y-115636771D01*
X117836771Y-115515909D01*
X117927709Y-115371183D01*
X117984162Y-115209850D01*
X118003299Y-115040000D01*
X117984162Y-114870150D01*
X117927709Y-114708817D01*
X117836771Y-114564091D01*
X117836769Y-114564089D01*
X117836768Y-114564087D01*
X117791776Y-114519095D01*
X117757750Y-114456783D01*
X117762815Y-114385968D01*
X117791776Y-114340905D01*
X117826767Y-114305913D01*
X117826768Y-114305912D01*
X117826771Y-114305909D01*
X117917709Y-114161183D01*
X117974162Y-113999850D01*
X117993299Y-113830000D01*
X117974162Y-113660150D01*
X117917709Y-113498817D01*
X117826771Y-113354091D01*
X117826769Y-113354089D01*
X117826768Y-113354087D01*
X117705912Y-113233231D01*
X117561182Y-113142290D01*
X117428891Y-113096000D01*
X117399850Y-113085838D01*
X117399848Y-113085837D01*
X117399850Y-113085837D01*
X117230000Y-113066701D01*
X117060151Y-113085837D01*
X116898817Y-113142290D01*
X116754087Y-113233231D01*
X116633231Y-113354087D01*
X116542290Y-113498817D01*
X116485839Y-113660144D01*
X116485837Y-113660155D01*
X116483984Y-113676597D01*
X116456477Y-113742048D01*
X116447872Y-113751577D01*
X115286282Y-114913167D01*
X115281253Y-114919722D01*
X115280612Y-114919230D01*
X115269358Y-114933891D01*
X113548054Y-116655196D01*
X113485744Y-116689220D01*
X113458961Y-116692100D01*
X108694029Y-116692100D01*
X108625908Y-116672098D01*
X108590816Y-116638370D01*
X108463335Y-116456308D01*
X108463332Y-116456304D01*
X108463329Y-116456300D01*
X108301431Y-116294402D01*
X108240813Y-116251957D01*
X108113880Y-116163077D01*
X107906377Y-116066317D01*
X107906371Y-116066315D01*
X107874061Y-116057657D01*
X107798108Y-116037306D01*
X107737487Y-116000355D01*
X107706466Y-115936495D01*
X107714894Y-115866000D01*
X107760097Y-115811253D01*
X107798107Y-115793894D01*
X107906374Y-115764884D01*
X108113880Y-115668123D01*
X108301431Y-115536798D01*
X108463329Y-115374900D01*
X108594654Y-115187349D01*
X108691415Y-114979843D01*
X108750674Y-114758687D01*
X108770629Y-114530600D01*
X108750674Y-114302513D01*
X108691415Y-114081357D01*
X108594654Y-113873851D01*
X108463329Y-113686300D01*
X108301431Y-113524402D01*
X108273449Y-113504809D01*
X108113880Y-113393077D01*
X107906377Y-113296317D01*
X107906371Y-113296315D01*
X107874061Y-113287657D01*
X107798108Y-113267306D01*
X107737487Y-113230355D01*
X107706466Y-113166495D01*
X107714894Y-113096000D01*
X107760097Y-113041253D01*
X107798107Y-113023894D01*
X107906374Y-112994884D01*
X108113880Y-112898123D01*
X108301431Y-112766798D01*
X108463329Y-112604900D01*
X108594654Y-112417349D01*
X108691415Y-112209843D01*
X108750674Y-111988687D01*
X108770629Y-111760600D01*
X108750674Y-111532513D01*
X108691415Y-111311357D01*
X108594654Y-111103851D01*
X108463329Y-110916300D01*
X108301431Y-110754402D01*
X108301427Y-110754398D01*
X108300376Y-110753516D01*
X108300040Y-110753011D01*
X108297541Y-110750512D01*
X108298043Y-110750009D01*
X108261056Y-110694402D01*
X108259938Y-110623415D01*
X108297376Y-110563091D01*
X108361484Y-110532584D01*
X108383870Y-110531030D01*
X113079063Y-110624579D01*
X112970000Y-112240000D01*
X116710920Y-112281336D01*
X116776631Y-112385912D01*
X116897487Y-112506768D01*
X116897489Y-112506769D01*
X116897491Y-112506771D01*
X117042217Y-112597709D01*
X117203550Y-112654162D01*
X117203549Y-112654162D01*
X117220748Y-112656099D01*
X117373400Y-112673299D01*
X117543250Y-112654162D01*
X117704583Y-112597709D01*
X117849309Y-112506771D01*
X117970171Y-112385909D01*
X118026743Y-112295875D01*
X125640000Y-112380000D01*
X125050000Y-99140000D01*
X123819235Y-99195894D01*
X122591431Y-97968089D01*
X122591418Y-97968079D01*
X122491860Y-97910600D01*
X122491859Y-97910600D01*
X122458370Y-97891265D01*
X122458367Y-97891264D01*
X122458362Y-97891261D01*
X122452603Y-97888875D01*
X122411732Y-97861564D01*
X122213763Y-97663595D01*
X122179737Y-97601283D01*
X122184802Y-97530468D01*
X122227349Y-97473632D01*
X122293869Y-97448821D01*
X122302858Y-97448500D01*
X123551328Y-97448500D01*
X123551329Y-97448500D01*
X123746169Y-97409744D01*
X123929704Y-97333721D01*
X124094881Y-97223353D01*
X124235353Y-97082881D01*
X124345721Y-96917704D01*
X124421744Y-96734169D01*
X124460500Y-96539329D01*
X124460500Y-96340671D01*
X124421744Y-96145831D01*
X124345721Y-95962296D01*
X124235353Y-95797119D01*
X124094881Y-95656647D01*
X123935273Y-95550000D01*
X125506701Y-95550000D01*
X125525837Y-95719848D01*
X125582290Y-95881182D01*
X125582291Y-95881183D01*
X125673229Y-96025909D01*
X125673235Y-96025915D01*
X125674006Y-96026882D01*
X125674312Y-96027632D01*
X125676994Y-96031900D01*
X125676246Y-96032369D01*
X125700844Y-96092611D01*
X125701500Y-96105448D01*
X125701500Y-99516457D01*
X125682187Y-99583493D01*
X125622292Y-99678814D01*
X125622291Y-99678816D01*
X125565837Y-99840151D01*
X125546701Y-100010000D01*
X125565837Y-100179848D01*
X125622290Y-100341182D01*
X125713231Y-100485912D01*
X125834087Y-100606768D01*
X125834089Y-100606769D01*
X125834091Y-100606771D01*
X125978817Y-100697709D01*
X126140150Y-100754162D01*
X126140149Y-100754162D01*
X126157348Y-100756099D01*
X126310000Y-100773299D01*
X126479850Y-100754162D01*
X126641183Y-100697709D01*
X126785909Y-100606771D01*
X126906771Y-100485909D01*
X126997709Y-100341183D01*
X127054162Y-100179850D01*
X127073299Y-100010000D01*
X127054162Y-99840150D01*
X126997709Y-99678817D01*
X126937813Y-99583493D01*
X126918500Y-99516457D01*
X126918500Y-95979883D01*
X126937814Y-95912845D01*
X126957709Y-95881183D01*
X127014162Y-95719850D01*
X127033299Y-95550000D01*
X127014162Y-95380150D01*
X126957709Y-95218817D01*
X126866771Y-95074091D01*
X126866769Y-95074089D01*
X126866768Y-95074087D01*
X126745912Y-94953231D01*
X126601182Y-94862290D01*
X126496915Y-94825806D01*
X126439850Y-94805838D01*
X126439848Y-94805837D01*
X126439850Y-94805837D01*
X126270000Y-94786701D01*
X126100151Y-94805837D01*
X125938817Y-94862290D01*
X125794087Y-94953231D01*
X125673231Y-95074087D01*
X125582290Y-95218817D01*
X125525837Y-95380151D01*
X125506701Y-95550000D01*
X123935273Y-95550000D01*
X123929704Y-95546279D01*
X123929705Y-95546279D01*
X123929703Y-95546278D01*
X123929698Y-95546276D01*
X123767892Y-95479252D01*
X123712611Y-95434704D01*
X123690191Y-95367340D01*
X123690111Y-95362844D01*
X123690111Y-93125714D01*
X123710113Y-93057593D01*
X123727016Y-93036619D01*
X124055203Y-92708431D01*
X124401353Y-92362282D01*
X124511721Y-92197104D01*
X124587743Y-92013569D01*
X124587875Y-92012908D01*
X124606086Y-91921357D01*
X124626498Y-91818735D01*
X124626499Y-91818728D01*
X124626499Y-89495987D01*
X124646501Y-89427866D01*
X124700157Y-89381373D01*
X124770431Y-89371269D01*
X124794111Y-89377057D01*
X124900150Y-89414162D01*
X125070000Y-89433299D01*
X125239850Y-89414162D01*
X125401183Y-89357709D01*
X125545909Y-89266771D01*
X125666771Y-89145909D01*
X125757709Y-89001183D01*
X125814162Y-88839850D01*
X125833299Y-88670000D01*
X125814162Y-88500150D01*
X125757709Y-88338817D01*
X125666771Y-88194091D01*
X125666769Y-88194089D01*
X125666768Y-88194087D01*
X125621775Y-88149094D01*
X125587749Y-88086782D01*
X125592814Y-88015967D01*
X125621775Y-87970904D01*
X125636771Y-87955909D01*
X125727709Y-87811183D01*
X125784162Y-87649850D01*
X125786014Y-87633412D01*
X125813515Y-87567958D01*
X125822117Y-87558430D01*
X126730745Y-86649804D01*
X126793057Y-86615779D01*
X126819840Y-86612900D01*
X128149556Y-86612900D01*
X128217677Y-86632902D01*
G37*
%TD.AperFunction*%
%TA.AperFunction,Conductor*%
G36*
X109166424Y-122226210D02*
G01*
X109212917Y-122279866D01*
X109223021Y-122350140D01*
X109193527Y-122414720D01*
X109133801Y-122453104D01*
X109122885Y-122455787D01*
X109000391Y-122480152D01*
X109000386Y-122480154D01*
X108839605Y-122546752D01*
X108694901Y-122643440D01*
X108694895Y-122643445D01*
X108571845Y-122766495D01*
X108571840Y-122766501D01*
X108475151Y-122911205D01*
X108475151Y-122911206D01*
X108447551Y-122977837D01*
X108403002Y-123033117D01*
X108335639Y-123055537D01*
X108266848Y-123037978D01*
X108224758Y-122997131D01*
X108070161Y-122753524D01*
X108070159Y-122753521D01*
X107981087Y-122645852D01*
X107333762Y-123293176D01*
X107257543Y-123188270D01*
X107079461Y-123010188D01*
X106974552Y-122933967D01*
X107665407Y-122243113D01*
X107727719Y-122209088D01*
X107754502Y-122206208D01*
X109098303Y-122206208D01*
X109166424Y-122226210D01*
G37*
%TD.AperFunction*%
%TA.AperFunction,Conductor*%
G36*
X115838382Y-118675002D02*
G01*
X115884875Y-118728658D01*
X115894979Y-118798932D01*
X115865485Y-118863512D01*
X115859356Y-118870095D01*
X115776188Y-118953263D01*
X115713876Y-118987289D01*
X115687093Y-118990168D01*
X114432171Y-118990168D01*
X114364050Y-118970166D01*
X114317557Y-118916510D01*
X114307453Y-118846236D01*
X114336947Y-118781656D01*
X114343076Y-118775073D01*
X114426244Y-118691905D01*
X114488556Y-118657879D01*
X114515339Y-118655000D01*
X115770261Y-118655000D01*
X115838382Y-118675002D01*
G37*
%TD.AperFunction*%
%TA.AperFunction,Conductor*%
G36*
X104151206Y-113338593D02*
G01*
X104217032Y-113452607D01*
X104310124Y-113545699D01*
X104424138Y-113611525D01*
X104492182Y-113629757D01*
X103889241Y-114232698D01*
X103889241Y-114232700D01*
X103960629Y-114282686D01*
X104168057Y-114379411D01*
X104168061Y-114379413D01*
X104277116Y-114408634D01*
X104337739Y-114445586D01*
X104368760Y-114509446D01*
X104360332Y-114579941D01*
X104315129Y-114634688D01*
X104277117Y-114652048D01*
X104167887Y-114681316D01*
X104167884Y-114681317D01*
X103960381Y-114778077D01*
X103772834Y-114909399D01*
X103772828Y-114909404D01*
X103693595Y-114988638D01*
X103631283Y-115022664D01*
X103560468Y-115017599D01*
X103503632Y-114975052D01*
X103478821Y-114908532D01*
X103478500Y-114899543D01*
X103478500Y-113977210D01*
X103498502Y-113909089D01*
X103515405Y-113888115D01*
X104132972Y-113270547D01*
X104151206Y-113338593D01*
G37*
%TD.AperFunction*%
%TA.AperFunction,Conductor*%
G36*
X106585928Y-110495206D02*
G01*
X106653634Y-110516561D01*
X106699049Y-110571132D01*
X106707751Y-110641594D01*
X106676977Y-110705574D01*
X106655686Y-110724394D01*
X106612834Y-110754399D01*
X106612828Y-110754404D01*
X106450935Y-110916297D01*
X106450930Y-110916303D01*
X106319608Y-111103850D01*
X106222848Y-111311353D01*
X106222846Y-111311359D01*
X106192009Y-111426444D01*
X106163588Y-111532513D01*
X106143633Y-111760600D01*
X106163588Y-111988687D01*
X106182294Y-112058498D01*
X106188062Y-112080024D01*
X106186372Y-112151001D01*
X106155450Y-112201730D01*
X105907290Y-112449890D01*
X105844978Y-112483916D01*
X105774163Y-112478851D01*
X105717327Y-112436304D01*
X105714981Y-112433065D01*
X105704229Y-112417710D01*
X105704228Y-112417710D01*
X105101288Y-113020650D01*
X105083056Y-112952607D01*
X105017230Y-112838593D01*
X104924138Y-112745501D01*
X104810124Y-112679675D01*
X104742077Y-112661441D01*
X105345019Y-112058499D01*
X105345019Y-112058498D01*
X105273632Y-112008513D01*
X105066204Y-111911788D01*
X105066202Y-111911787D01*
X104957144Y-111882565D01*
X104896522Y-111845613D01*
X104865500Y-111781752D01*
X104873929Y-111711258D01*
X104919132Y-111656511D01*
X104957139Y-111639153D01*
X105066374Y-111609884D01*
X105273880Y-111513123D01*
X105461431Y-111381798D01*
X105623329Y-111219900D01*
X105754654Y-111032349D01*
X105851415Y-110824843D01*
X105910674Y-110603687D01*
X105911056Y-110599311D01*
X105936912Y-110533195D01*
X105994411Y-110491550D01*
X106039079Y-110484311D01*
X106585928Y-110495206D01*
G37*
%TD.AperFunction*%
%TA.AperFunction,Conductor*%
G36*
X134044908Y-74136902D02*
G01*
X134065972Y-74153894D01*
X135521074Y-75611956D01*
X135751820Y-75843171D01*
X135751955Y-75843373D01*
X135769500Y-75860917D01*
X135769500Y-75860918D01*
X135784193Y-75875611D01*
X135784257Y-75875728D01*
X135784284Y-75875702D01*
X135799031Y-75890479D01*
X135799081Y-75890500D01*
X135819948Y-75890500D01*
X135840866Y-75890521D01*
X135840866Y-75890520D01*
X135865716Y-75890545D01*
X135865946Y-75890500D01*
X142750918Y-75890500D01*
X144484013Y-74157405D01*
X144546325Y-74123380D01*
X144573108Y-74120500D01*
X148873500Y-74120500D01*
X148941621Y-74140502D01*
X148988114Y-74194158D01*
X148999500Y-74246500D01*
X148999500Y-87294760D01*
X148979498Y-87362881D01*
X148925842Y-87409374D01*
X148855568Y-87419478D01*
X148790988Y-87389984D01*
X148784405Y-87383856D01*
X148762160Y-87361611D01*
X148723628Y-87323079D01*
X148314673Y-86914124D01*
X148280648Y-86851812D01*
X148285713Y-86780996D01*
X148300553Y-86752762D01*
X148355916Y-86673697D01*
X148454527Y-86462226D01*
X148514918Y-86236844D01*
X148535254Y-86004400D01*
X148514918Y-85771956D01*
X148454527Y-85546574D01*
X148355916Y-85335103D01*
X148222082Y-85143968D01*
X148057092Y-84978978D01*
X148036116Y-84964290D01*
X147865953Y-84845141D01*
X147863145Y-84843520D01*
X147862154Y-84842481D01*
X147861450Y-84841988D01*
X147861549Y-84841846D01*
X147814151Y-84792138D01*
X147800713Y-84722425D01*
X147827099Y-84656514D01*
X147863145Y-84625280D01*
X147865953Y-84623658D01*
X147865953Y-84623657D01*
X147865957Y-84623656D01*
X148057092Y-84489822D01*
X148222082Y-84324832D01*
X148355916Y-84133697D01*
X148454527Y-83922226D01*
X148514918Y-83696844D01*
X148535254Y-83464400D01*
X148514918Y-83231956D01*
X148454527Y-83006574D01*
X148355916Y-82795103D01*
X148222082Y-82603968D01*
X148057092Y-82438978D01*
X148057088Y-82438975D01*
X147865954Y-82305141D01*
X147862641Y-82303229D01*
X147861473Y-82302004D01*
X147861450Y-82301988D01*
X147861453Y-82301983D01*
X147813648Y-82251846D01*
X147800212Y-82182133D01*
X147826598Y-82116222D01*
X147862642Y-82084990D01*
X147865713Y-82083216D01*
X147942499Y-82029451D01*
X147942499Y-82029448D01*
X147280784Y-81367733D01*
X147370354Y-81343733D01*
X147472966Y-81284490D01*
X147556750Y-81200706D01*
X147615993Y-81098094D01*
X147639993Y-81008524D01*
X148301708Y-81670239D01*
X148301711Y-81670239D01*
X148355481Y-81593446D01*
X148355482Y-81593444D01*
X148454053Y-81382057D01*
X148454055Y-81382052D01*
X148514422Y-81156755D01*
X148534751Y-80924400D01*
X148514422Y-80692044D01*
X148454055Y-80466747D01*
X148454053Y-80466742D01*
X148355479Y-80255348D01*
X148355478Y-80255347D01*
X148301711Y-80178559D01*
X148301709Y-80178559D01*
X147639993Y-80840275D01*
X147615993Y-80750706D01*
X147556750Y-80648094D01*
X147472966Y-80564310D01*
X147370354Y-80505067D01*
X147280783Y-80481066D01*
X147942499Y-79819349D01*
X147865707Y-79765578D01*
X147862642Y-79763809D01*
X147861561Y-79762675D01*
X147861199Y-79762422D01*
X147861250Y-79762349D01*
X147813648Y-79712426D01*
X147800211Y-79642713D01*
X147826598Y-79576802D01*
X147862651Y-79545564D01*
X147865945Y-79543661D01*
X147865957Y-79543656D01*
X148057092Y-79409822D01*
X148222082Y-79244832D01*
X148355916Y-79053697D01*
X148454527Y-78842226D01*
X148514918Y-78616844D01*
X148535254Y-78384400D01*
X148514918Y-78151956D01*
X148454527Y-77926574D01*
X148355916Y-77715103D01*
X148222082Y-77523968D01*
X148057092Y-77358978D01*
X147865959Y-77225145D01*
X147865953Y-77225141D01*
X147863145Y-77223520D01*
X147862154Y-77222481D01*
X147861450Y-77221988D01*
X147861549Y-77221846D01*
X147814151Y-77172138D01*
X147800713Y-77102425D01*
X147827099Y-77036514D01*
X147863145Y-77005280D01*
X147865953Y-77003658D01*
X147865953Y-77003657D01*
X147865957Y-77003656D01*
X148057092Y-76869822D01*
X148222082Y-76704832D01*
X148355916Y-76513697D01*
X148454527Y-76302226D01*
X148514918Y-76076844D01*
X148535254Y-75844400D01*
X148514918Y-75611956D01*
X148454527Y-75386574D01*
X148355916Y-75175103D01*
X148222082Y-74983968D01*
X148057092Y-74818978D01*
X147865957Y-74685144D01*
X147654486Y-74586533D01*
X147654484Y-74586532D01*
X147549884Y-74558504D01*
X147429104Y-74526142D01*
X147196660Y-74505806D01*
X146964216Y-74526142D01*
X146903826Y-74542323D01*
X146738835Y-74586532D01*
X146738831Y-74586534D01*
X146527362Y-74685144D01*
X146336231Y-74818975D01*
X146336225Y-74818980D01*
X146171240Y-74983965D01*
X146171235Y-74983971D01*
X146037404Y-75175102D01*
X145938794Y-75386571D01*
X145938792Y-75386575D01*
X145911852Y-75487119D01*
X145878402Y-75611956D01*
X145858066Y-75844400D01*
X145878402Y-76076844D01*
X145938793Y-76302226D01*
X146037404Y-76513697D01*
X146171238Y-76704832D01*
X146336228Y-76869822D01*
X146336231Y-76869824D01*
X146527360Y-77003654D01*
X146530181Y-77005283D01*
X146531174Y-77006324D01*
X146531870Y-77006812D01*
X146531772Y-77006951D01*
X146579172Y-77056668D01*
X146592605Y-77126382D01*
X146566215Y-77192292D01*
X146530181Y-77223517D01*
X146527360Y-77225145D01*
X146336231Y-77358975D01*
X146336225Y-77358980D01*
X146171240Y-77523965D01*
X146171235Y-77523971D01*
X146037404Y-77715102D01*
X145938794Y-77926571D01*
X145938792Y-77926575D01*
X145895859Y-78086807D01*
X145878402Y-78151956D01*
X145858066Y-78384400D01*
X145878402Y-78616844D01*
X145938793Y-78842226D01*
X146037404Y-79053697D01*
X146171238Y-79244832D01*
X146336228Y-79409822D01*
X146527363Y-79543656D01*
X146527373Y-79543660D01*
X146530674Y-79545567D01*
X146531843Y-79546793D01*
X146531870Y-79546812D01*
X146531866Y-79546817D01*
X146579669Y-79596948D01*
X146593108Y-79666661D01*
X146566724Y-79732573D01*
X146530689Y-79763802D01*
X146527616Y-79765576D01*
X146450818Y-79819349D01*
X147112535Y-80481066D01*
X147022966Y-80505067D01*
X146920354Y-80564310D01*
X146836570Y-80648094D01*
X146777327Y-80750706D01*
X146753326Y-80840275D01*
X146091609Y-80178558D01*
X146037839Y-80255352D01*
X145939266Y-80466742D01*
X145939264Y-80466747D01*
X145878897Y-80692044D01*
X145858568Y-80924400D01*
X145878897Y-81156755D01*
X145939264Y-81382052D01*
X145939266Y-81382057D01*
X146037839Y-81593448D01*
X146091609Y-81670239D01*
X146753326Y-81008522D01*
X146777327Y-81098094D01*
X146836570Y-81200706D01*
X146920354Y-81284490D01*
X147022966Y-81343733D01*
X147112536Y-81367733D01*
X146450819Y-82029449D01*
X146450819Y-82029451D01*
X146527607Y-82083218D01*
X146530673Y-82084988D01*
X146531754Y-82086121D01*
X146532120Y-82086378D01*
X146532068Y-82086451D01*
X146579669Y-82136368D01*
X146593108Y-82206081D01*
X146566724Y-82271993D01*
X146530684Y-82303226D01*
X146527364Y-82305142D01*
X146336231Y-82438975D01*
X146336225Y-82438980D01*
X146171240Y-82603965D01*
X146171235Y-82603971D01*
X146037404Y-82795102D01*
X145938794Y-83006571D01*
X145938792Y-83006575D01*
X145918966Y-83080569D01*
X145878402Y-83231956D01*
X145858066Y-83464400D01*
X145878402Y-83696844D01*
X145910764Y-83817624D01*
X145938792Y-83922224D01*
X145938794Y-83922228D01*
X146037404Y-84133697D01*
X146161265Y-84310590D01*
X146171238Y-84324832D01*
X146336228Y-84489822D01*
X146431795Y-84556739D01*
X146527360Y-84623654D01*
X146530181Y-84625283D01*
X146531174Y-84626324D01*
X146531870Y-84626812D01*
X146531772Y-84626951D01*
X146579172Y-84676668D01*
X146592605Y-84746382D01*
X146566215Y-84812292D01*
X146530181Y-84843517D01*
X146527360Y-84845145D01*
X146336231Y-84978975D01*
X146336225Y-84978980D01*
X146171240Y-85143965D01*
X146171235Y-85143971D01*
X146037404Y-85335102D01*
X145938794Y-85546571D01*
X145938792Y-85546575D01*
X145926961Y-85590731D01*
X145878402Y-85771956D01*
X145858066Y-86004400D01*
X145878402Y-86236844D01*
X145919784Y-86391283D01*
X145925437Y-86412380D01*
X145923747Y-86483357D01*
X145883953Y-86542152D01*
X145818688Y-86570100D01*
X145748675Y-86558326D01*
X145714635Y-86534086D01*
X140539181Y-81358632D01*
X140505155Y-81296320D01*
X140509346Y-81227924D01*
X140554162Y-81099850D01*
X140573299Y-80930000D01*
X140554162Y-80760150D01*
X140497709Y-80598817D01*
X140406771Y-80454091D01*
X140406769Y-80454089D01*
X140406768Y-80454087D01*
X140285912Y-80333231D01*
X140141182Y-80242290D01*
X140041270Y-80207330D01*
X139979850Y-80185838D01*
X139979848Y-80185837D01*
X139979850Y-80185837D01*
X139810000Y-80166701D01*
X139640151Y-80185837D01*
X139478817Y-80242290D01*
X139334087Y-80333231D01*
X139213231Y-80454087D01*
X139122290Y-80598817D01*
X139065839Y-80760146D01*
X139065645Y-80760998D01*
X139065368Y-80761492D01*
X139063501Y-80766829D01*
X139062566Y-80766501D01*
X139030986Y-80822960D01*
X138968330Y-80856347D01*
X138942804Y-80858960D01*
X138905440Y-80858960D01*
X138734752Y-80892912D01*
X138734747Y-80892914D01*
X138573966Y-80959512D01*
X138429262Y-81056200D01*
X138429256Y-81056205D01*
X138306205Y-81179256D01*
X138306200Y-81179262D01*
X138209512Y-81323966D01*
X138142914Y-81484747D01*
X138142912Y-81484752D01*
X138108960Y-81655440D01*
X138108960Y-81738205D01*
X138106539Y-81762787D01*
X138106500Y-81762980D01*
X138106500Y-81937020D01*
X138106538Y-81937210D01*
X138108960Y-81961796D01*
X138108960Y-82538205D01*
X138106539Y-82562787D01*
X138106500Y-82562980D01*
X138106500Y-82737020D01*
X138106538Y-82737210D01*
X138108960Y-82761796D01*
X138108960Y-83208205D01*
X138106539Y-83232787D01*
X138106500Y-83232980D01*
X138106500Y-83407020D01*
X138106538Y-83407210D01*
X138108960Y-83431796D01*
X138108960Y-85807157D01*
X138099369Y-85855375D01*
X138022718Y-86040425D01*
X138022716Y-86040430D01*
X137983960Y-86235268D01*
X137983960Y-88719931D01*
X138022716Y-88914769D01*
X138022718Y-88914774D01*
X138099369Y-89099825D01*
X138108960Y-89148043D01*
X138108960Y-104479391D01*
X138088958Y-104547512D01*
X138072055Y-104568486D01*
X131233748Y-111406792D01*
X131233738Y-111406804D01*
X131227503Y-111416135D01*
X131211839Y-111435219D01*
X130953310Y-111693748D01*
X130890998Y-111727774D01*
X130820183Y-111722709D01*
X130763347Y-111680162D01*
X130738536Y-111613642D01*
X130738693Y-111593684D01*
X130755254Y-111404400D01*
X130734918Y-111171956D01*
X130674527Y-110946574D01*
X130575916Y-110735103D01*
X130442082Y-110543968D01*
X130277092Y-110378978D01*
X130141654Y-110284143D01*
X130085953Y-110245141D01*
X130083145Y-110243520D01*
X130082154Y-110242481D01*
X130081450Y-110241988D01*
X130081549Y-110241846D01*
X130034151Y-110192138D01*
X130020713Y-110122425D01*
X130047099Y-110056514D01*
X130083145Y-110025280D01*
X130085953Y-110023658D01*
X130085953Y-110023657D01*
X130085957Y-110023656D01*
X130277092Y-109889822D01*
X130442082Y-109724832D01*
X130575916Y-109533697D01*
X130674527Y-109322226D01*
X130734918Y-109096844D01*
X130755254Y-108864400D01*
X130734918Y-108631956D01*
X130674527Y-108406574D01*
X130575916Y-108195103D01*
X130442082Y-108003968D01*
X130277092Y-107838978D01*
X130269536Y-107833687D01*
X130085954Y-107705141D01*
X130082641Y-107703229D01*
X130081473Y-107702004D01*
X130081450Y-107701988D01*
X130081453Y-107701983D01*
X130033648Y-107651846D01*
X130020212Y-107582133D01*
X130046598Y-107516222D01*
X130082642Y-107484990D01*
X130085713Y-107483216D01*
X130162499Y-107429451D01*
X130162499Y-107429448D01*
X129500784Y-106767733D01*
X129590354Y-106743733D01*
X129692966Y-106684490D01*
X129776750Y-106600706D01*
X129835993Y-106498094D01*
X129859993Y-106408524D01*
X130521708Y-107070239D01*
X130521711Y-107070239D01*
X130575481Y-106993446D01*
X130575482Y-106993444D01*
X130674053Y-106782057D01*
X130674055Y-106782052D01*
X130734422Y-106556755D01*
X130754751Y-106324400D01*
X130734422Y-106092044D01*
X130674055Y-105866747D01*
X130674053Y-105866742D01*
X130575479Y-105655348D01*
X130575478Y-105655347D01*
X130521711Y-105578559D01*
X130521709Y-105578559D01*
X129859993Y-106240275D01*
X129835993Y-106150706D01*
X129776750Y-106048094D01*
X129692966Y-105964310D01*
X129590354Y-105905067D01*
X129500783Y-105881066D01*
X130162499Y-105219349D01*
X130085707Y-105165578D01*
X130082642Y-105163809D01*
X130081561Y-105162675D01*
X130081199Y-105162422D01*
X130081250Y-105162349D01*
X130033648Y-105112426D01*
X130020211Y-105042713D01*
X130046598Y-104976802D01*
X130082651Y-104945564D01*
X130085945Y-104943661D01*
X130085957Y-104943656D01*
X130277092Y-104809822D01*
X130442082Y-104644832D01*
X130575916Y-104453697D01*
X130674527Y-104242226D01*
X130734918Y-104016844D01*
X130755254Y-103784400D01*
X130734918Y-103551956D01*
X130674527Y-103326574D01*
X130575916Y-103115103D01*
X130442082Y-102923968D01*
X130277092Y-102758978D01*
X130224781Y-102722349D01*
X130085953Y-102625141D01*
X130083145Y-102623520D01*
X130082154Y-102622481D01*
X130081450Y-102621988D01*
X130081549Y-102621846D01*
X130034151Y-102572138D01*
X130020713Y-102502425D01*
X130047099Y-102436514D01*
X130083145Y-102405280D01*
X130085953Y-102403658D01*
X130085953Y-102403657D01*
X130085957Y-102403656D01*
X130277092Y-102269822D01*
X130442082Y-102104832D01*
X130575916Y-101913697D01*
X130674527Y-101702226D01*
X130734918Y-101476844D01*
X130755254Y-101244400D01*
X130734918Y-101011956D01*
X130674527Y-100786574D01*
X130575916Y-100575103D01*
X130442082Y-100383968D01*
X130277092Y-100218978D01*
X130271043Y-100214742D01*
X130085953Y-100085141D01*
X130083145Y-100083520D01*
X130082154Y-100082481D01*
X130081450Y-100081988D01*
X130081549Y-100081846D01*
X130034151Y-100032138D01*
X130020713Y-99962425D01*
X130047099Y-99896514D01*
X130083145Y-99865280D01*
X130085953Y-99863658D01*
X130085953Y-99863657D01*
X130085957Y-99863656D01*
X130277092Y-99729822D01*
X130442082Y-99564832D01*
X130575916Y-99373697D01*
X130674527Y-99162226D01*
X130734918Y-98936844D01*
X130755254Y-98704400D01*
X130734918Y-98471956D01*
X130674527Y-98246574D01*
X130575916Y-98035103D01*
X130442082Y-97843968D01*
X130277092Y-97678978D01*
X130085959Y-97545145D01*
X130085953Y-97545141D01*
X130083145Y-97543520D01*
X130082154Y-97542481D01*
X130081450Y-97541988D01*
X130081549Y-97541846D01*
X130034151Y-97492138D01*
X130020713Y-97422425D01*
X130047099Y-97356514D01*
X130083145Y-97325280D01*
X130085953Y-97323658D01*
X130085953Y-97323657D01*
X130085957Y-97323656D01*
X130277092Y-97189822D01*
X130442082Y-97024832D01*
X130575916Y-96833697D01*
X130674527Y-96622226D01*
X130734918Y-96396844D01*
X130755254Y-96164400D01*
X130734918Y-95931956D01*
X130674527Y-95706574D01*
X130575916Y-95495103D01*
X130442082Y-95303968D01*
X130277092Y-95138978D01*
X130184424Y-95074091D01*
X130085954Y-95005141D01*
X130082641Y-95003229D01*
X130081473Y-95002004D01*
X130081450Y-95001988D01*
X130081453Y-95001983D01*
X130033648Y-94951846D01*
X130020212Y-94882133D01*
X130046598Y-94816222D01*
X130082642Y-94784990D01*
X130085713Y-94783216D01*
X130162499Y-94729451D01*
X130162499Y-94729448D01*
X129500784Y-94067733D01*
X129590354Y-94043733D01*
X129692966Y-93984490D01*
X129776750Y-93900706D01*
X129835993Y-93798094D01*
X129859993Y-93708524D01*
X130521708Y-94370239D01*
X130521711Y-94370239D01*
X130575481Y-94293446D01*
X130575482Y-94293444D01*
X130674053Y-94082057D01*
X130674055Y-94082052D01*
X130734422Y-93856755D01*
X130754751Y-93624400D01*
X130734422Y-93392044D01*
X130674055Y-93166747D01*
X130674053Y-93166742D01*
X130575479Y-92955348D01*
X130575478Y-92955347D01*
X130521711Y-92878559D01*
X130521709Y-92878559D01*
X129859993Y-93540275D01*
X129835993Y-93450706D01*
X129776750Y-93348094D01*
X129692966Y-93264310D01*
X129590354Y-93205067D01*
X129500783Y-93181066D01*
X130162499Y-92519349D01*
X130085707Y-92465578D01*
X130082642Y-92463809D01*
X130081561Y-92462675D01*
X130081199Y-92462422D01*
X130081250Y-92462349D01*
X130033648Y-92412426D01*
X130020211Y-92342713D01*
X130046598Y-92276802D01*
X130082651Y-92245564D01*
X130085945Y-92243661D01*
X130085957Y-92243656D01*
X130277092Y-92109822D01*
X130442082Y-91944832D01*
X130575916Y-91753697D01*
X130674527Y-91542226D01*
X130734918Y-91316844D01*
X130755254Y-91084400D01*
X130734918Y-90851956D01*
X130674527Y-90626574D01*
X130575916Y-90415103D01*
X130442082Y-90223968D01*
X130277092Y-90058978D01*
X130208817Y-90011171D01*
X130085953Y-89925141D01*
X130083145Y-89923520D01*
X130082154Y-89922481D01*
X130081450Y-89921988D01*
X130081549Y-89921846D01*
X130034151Y-89872138D01*
X130020713Y-89802425D01*
X130047099Y-89736514D01*
X130083145Y-89705280D01*
X130085953Y-89703658D01*
X130085953Y-89703657D01*
X130085957Y-89703656D01*
X130277092Y-89569822D01*
X130442082Y-89404832D01*
X130575916Y-89213697D01*
X130674527Y-89002226D01*
X130734918Y-88776844D01*
X130755254Y-88544400D01*
X130734918Y-88311956D01*
X130674527Y-88086574D01*
X130575916Y-87875103D01*
X130442082Y-87683968D01*
X130277092Y-87518978D01*
X130247580Y-87498313D01*
X130085953Y-87385141D01*
X130083145Y-87383520D01*
X130082154Y-87382481D01*
X130081450Y-87381988D01*
X130081549Y-87381846D01*
X130034151Y-87332138D01*
X130020713Y-87262425D01*
X130047099Y-87196514D01*
X130083145Y-87165280D01*
X130085953Y-87163658D01*
X130085953Y-87163657D01*
X130085957Y-87163656D01*
X130277092Y-87029822D01*
X130442082Y-86864832D01*
X130575916Y-86673697D01*
X130674527Y-86462226D01*
X130734918Y-86236844D01*
X130755254Y-86004400D01*
X130734918Y-85771956D01*
X130674527Y-85546574D01*
X130575916Y-85335103D01*
X130442082Y-85143968D01*
X130277092Y-84978978D01*
X130256116Y-84964290D01*
X130085953Y-84845141D01*
X130083145Y-84843520D01*
X130082154Y-84842481D01*
X130081450Y-84841988D01*
X130081549Y-84841846D01*
X130034151Y-84792138D01*
X130020713Y-84722425D01*
X130047099Y-84656514D01*
X130083145Y-84625280D01*
X130085953Y-84623658D01*
X130085953Y-84623657D01*
X130085957Y-84623656D01*
X130277092Y-84489822D01*
X130442082Y-84324832D01*
X130575916Y-84133697D01*
X130674527Y-83922226D01*
X130734918Y-83696844D01*
X130755254Y-83464400D01*
X130734918Y-83231956D01*
X130674527Y-83006574D01*
X130575916Y-82795103D01*
X130442082Y-82603968D01*
X130418114Y-82580000D01*
X131546701Y-82580000D01*
X131565837Y-82749848D01*
X131622290Y-82911182D01*
X131713231Y-83055912D01*
X131834087Y-83176768D01*
X131834089Y-83176769D01*
X131834091Y-83176771D01*
X131978817Y-83267709D01*
X132140150Y-83324162D01*
X132140155Y-83324162D01*
X132140157Y-83324163D01*
X132156588Y-83326014D01*
X132222041Y-83353516D01*
X132231578Y-83362127D01*
X134228595Y-85359144D01*
X134262621Y-85421456D01*
X134265500Y-85448239D01*
X134265500Y-101143890D01*
X134265500Y-101304110D01*
X134306968Y-101458873D01*
X134306969Y-101458875D01*
X134306970Y-101458877D01*
X134387075Y-101597623D01*
X134387083Y-101597633D01*
X135327872Y-102538422D01*
X135361898Y-102600734D01*
X135363984Y-102613402D01*
X135365837Y-102629848D01*
X135365838Y-102629852D01*
X135422290Y-102791182D01*
X135513231Y-102935912D01*
X135634087Y-103056768D01*
X135634089Y-103056769D01*
X135634091Y-103056771D01*
X135778817Y-103147709D01*
X135940150Y-103204162D01*
X135940149Y-103204162D01*
X135957348Y-103206099D01*
X136110000Y-103223299D01*
X136279850Y-103204162D01*
X136441183Y-103147709D01*
X136585909Y-103056771D01*
X136706771Y-102935909D01*
X136797709Y-102791183D01*
X136854162Y-102629850D01*
X136873299Y-102460000D01*
X136854162Y-102290150D01*
X136797709Y-102128817D01*
X136706771Y-101984091D01*
X136706769Y-101984089D01*
X136706768Y-101984087D01*
X136585912Y-101863231D01*
X136441182Y-101772290D01*
X136279852Y-101715838D01*
X136279847Y-101715837D01*
X136263402Y-101713984D01*
X136197951Y-101686477D01*
X136188421Y-101677872D01*
X135519405Y-101008856D01*
X135485379Y-100946544D01*
X135482500Y-100919761D01*
X135482500Y-85063890D01*
X135482500Y-85063889D01*
X135441032Y-84909128D01*
X135409516Y-84854541D01*
X135360922Y-84770373D01*
X135360919Y-84770370D01*
X135360916Y-84770366D01*
X133092127Y-82501578D01*
X133058102Y-82439266D01*
X133056014Y-82426588D01*
X133054163Y-82410157D01*
X133054162Y-82410155D01*
X133054162Y-82410150D01*
X132997709Y-82248817D01*
X132906771Y-82104091D01*
X132906769Y-82104089D01*
X132906768Y-82104087D01*
X132785912Y-81983231D01*
X132641182Y-81892290D01*
X132541270Y-81857330D01*
X132479850Y-81835838D01*
X132479848Y-81835837D01*
X132479850Y-81835837D01*
X132310000Y-81816701D01*
X132140151Y-81835837D01*
X131978817Y-81892290D01*
X131834087Y-81983231D01*
X131713231Y-82104087D01*
X131622290Y-82248817D01*
X131565837Y-82410151D01*
X131546701Y-82580000D01*
X130418114Y-82580000D01*
X130277092Y-82438978D01*
X130277088Y-82438975D01*
X130085954Y-82305141D01*
X130082641Y-82303229D01*
X130081473Y-82302004D01*
X130081450Y-82301988D01*
X130081453Y-82301983D01*
X130033648Y-82251846D01*
X130020212Y-82182133D01*
X130046598Y-82116222D01*
X130082642Y-82084990D01*
X130085713Y-82083216D01*
X130162499Y-82029451D01*
X130162499Y-82029448D01*
X129500784Y-81367733D01*
X129590354Y-81343733D01*
X129692966Y-81284490D01*
X129776750Y-81200706D01*
X129835993Y-81098094D01*
X129859993Y-81008524D01*
X130521708Y-81670239D01*
X130521711Y-81670239D01*
X130575481Y-81593446D01*
X130575482Y-81593444D01*
X130674053Y-81382057D01*
X130674055Y-81382052D01*
X130734422Y-81156755D01*
X130754751Y-80924400D01*
X130734422Y-80692044D01*
X130674055Y-80466747D01*
X130674053Y-80466742D01*
X130575479Y-80255348D01*
X130575478Y-80255347D01*
X130521711Y-80178559D01*
X130521709Y-80178559D01*
X129859993Y-80840275D01*
X129835993Y-80750706D01*
X129776750Y-80648094D01*
X129692966Y-80564310D01*
X129590354Y-80505067D01*
X129500783Y-80481066D01*
X130162499Y-79819349D01*
X130085707Y-79765578D01*
X130082642Y-79763809D01*
X130081561Y-79762675D01*
X130081199Y-79762422D01*
X130081250Y-79762349D01*
X130033648Y-79712426D01*
X130020211Y-79642713D01*
X130046598Y-79576802D01*
X130082651Y-79545564D01*
X130085945Y-79543661D01*
X130085957Y-79543656D01*
X130277092Y-79409822D01*
X130442082Y-79244832D01*
X130575916Y-79053697D01*
X130674527Y-78842226D01*
X130734918Y-78616844D01*
X130755254Y-78384400D01*
X130734918Y-78151956D01*
X130674527Y-77926574D01*
X130575916Y-77715103D01*
X130442082Y-77523968D01*
X130277092Y-77358978D01*
X130085959Y-77225145D01*
X130085953Y-77225141D01*
X130083145Y-77223520D01*
X130082154Y-77222481D01*
X130081450Y-77221988D01*
X130081549Y-77221846D01*
X130034151Y-77172138D01*
X130020713Y-77102425D01*
X130047099Y-77036514D01*
X130083145Y-77005280D01*
X130085953Y-77003658D01*
X130085953Y-77003657D01*
X130085957Y-77003656D01*
X130277092Y-76869822D01*
X130442082Y-76704832D01*
X130575916Y-76513697D01*
X130674527Y-76302226D01*
X130734918Y-76076844D01*
X130755254Y-75844400D01*
X130734918Y-75611956D01*
X130674527Y-75386574D01*
X130575916Y-75175103D01*
X130442082Y-74983968D01*
X130277092Y-74818978D01*
X130085957Y-74685144D01*
X129874486Y-74586533D01*
X129874484Y-74586532D01*
X129769884Y-74558504D01*
X129649104Y-74526142D01*
X129416660Y-74505806D01*
X129184216Y-74526142D01*
X129123826Y-74542323D01*
X128958835Y-74586532D01*
X128958831Y-74586534D01*
X128747362Y-74685144D01*
X128556231Y-74818975D01*
X128556225Y-74818980D01*
X128391240Y-74983965D01*
X128391235Y-74983971D01*
X128257404Y-75175102D01*
X128158794Y-75386571D01*
X128158792Y-75386575D01*
X128131852Y-75487119D01*
X128098402Y-75611956D01*
X128078066Y-75844400D01*
X128098402Y-76076844D01*
X128158793Y-76302226D01*
X128257404Y-76513697D01*
X128391238Y-76704832D01*
X128556228Y-76869822D01*
X128556231Y-76869824D01*
X128747360Y-77003654D01*
X128750181Y-77005283D01*
X128751174Y-77006324D01*
X128751870Y-77006812D01*
X128751772Y-77006951D01*
X128799172Y-77056668D01*
X128812605Y-77126382D01*
X128786215Y-77192292D01*
X128750181Y-77223517D01*
X128747360Y-77225145D01*
X128556231Y-77358975D01*
X128556225Y-77358980D01*
X128391240Y-77523965D01*
X128391235Y-77523971D01*
X128257404Y-77715102D01*
X128158794Y-77926571D01*
X128158792Y-77926575D01*
X128115859Y-78086807D01*
X128098402Y-78151956D01*
X128078066Y-78384400D01*
X128098402Y-78616844D01*
X128158793Y-78842226D01*
X128257404Y-79053697D01*
X128391238Y-79244832D01*
X128556228Y-79409822D01*
X128747363Y-79543656D01*
X128747373Y-79543660D01*
X128750674Y-79545567D01*
X128751843Y-79546793D01*
X128751870Y-79546812D01*
X128751866Y-79546817D01*
X128799669Y-79596948D01*
X128813108Y-79666661D01*
X128786724Y-79732573D01*
X128750689Y-79763802D01*
X128747616Y-79765576D01*
X128670818Y-79819349D01*
X129332535Y-80481066D01*
X129242966Y-80505067D01*
X129140354Y-80564310D01*
X129056570Y-80648094D01*
X128997327Y-80750706D01*
X128973326Y-80840275D01*
X128311609Y-80178558D01*
X128257839Y-80255352D01*
X128159266Y-80466742D01*
X128159264Y-80466747D01*
X128098897Y-80692044D01*
X128078568Y-80924400D01*
X128098897Y-81156755D01*
X128159264Y-81382052D01*
X128159266Y-81382057D01*
X128257839Y-81593448D01*
X128311609Y-81670239D01*
X128973326Y-81008522D01*
X128997327Y-81098094D01*
X129056570Y-81200706D01*
X129140354Y-81284490D01*
X129242966Y-81343733D01*
X129332536Y-81367733D01*
X128670819Y-82029449D01*
X128670819Y-82029451D01*
X128747607Y-82083218D01*
X128750673Y-82084988D01*
X128751754Y-82086121D01*
X128752120Y-82086378D01*
X128752068Y-82086451D01*
X128799669Y-82136368D01*
X128813108Y-82206081D01*
X128786724Y-82271993D01*
X128750684Y-82303226D01*
X128747364Y-82305142D01*
X128556231Y-82438975D01*
X128556225Y-82438980D01*
X128391240Y-82603965D01*
X128391235Y-82603971D01*
X128257404Y-82795102D01*
X128158794Y-83006571D01*
X128158792Y-83006575D01*
X128138966Y-83080569D01*
X128098402Y-83231956D01*
X128078066Y-83464400D01*
X128098402Y-83696844D01*
X128130764Y-83817624D01*
X128158792Y-83922224D01*
X128158794Y-83922228D01*
X128257404Y-84133697D01*
X128381265Y-84310590D01*
X128391238Y-84324832D01*
X128556228Y-84489822D01*
X128651795Y-84556739D01*
X128747360Y-84623654D01*
X128750181Y-84625283D01*
X128751174Y-84626324D01*
X128751870Y-84626812D01*
X128751772Y-84626951D01*
X128799172Y-84676668D01*
X128812605Y-84746382D01*
X128786215Y-84812292D01*
X128750181Y-84843517D01*
X128747360Y-84845145D01*
X128556231Y-84978975D01*
X128556225Y-84978980D01*
X128391240Y-85143965D01*
X128391235Y-85143971D01*
X128254248Y-85339610D01*
X128252745Y-85338558D01*
X128207279Y-85381900D01*
X128149556Y-85395900D01*
X126435489Y-85395900D01*
X126401259Y-85405072D01*
X126287710Y-85435496D01*
X126287711Y-85435497D01*
X126280724Y-85437369D01*
X126141976Y-85517475D01*
X126141966Y-85517483D01*
X125273595Y-86385855D01*
X125211283Y-86419881D01*
X125140468Y-86414816D01*
X125083632Y-86372269D01*
X125058821Y-86305749D01*
X125058500Y-86296760D01*
X125058500Y-80459785D01*
X125058500Y-80459784D01*
X125017032Y-80305023D01*
X125017031Y-80305021D01*
X125017030Y-80305017D01*
X124999626Y-80274874D01*
X124999625Y-80274873D01*
X124936924Y-80166271D01*
X124936919Y-80166265D01*
X124830354Y-80059700D01*
X124694316Y-79923662D01*
X124660293Y-79861352D01*
X124658205Y-79848674D01*
X124656354Y-79832243D01*
X124656353Y-79832241D01*
X124656353Y-79832236D01*
X124599900Y-79670903D01*
X124508962Y-79526177D01*
X124508960Y-79526175D01*
X124508959Y-79526173D01*
X124388103Y-79405317D01*
X124243373Y-79314376D01*
X124143461Y-79279416D01*
X124082041Y-79257924D01*
X124082039Y-79257923D01*
X124082041Y-79257923D01*
X123912191Y-79238787D01*
X123742342Y-79257923D01*
X123581007Y-79314377D01*
X123581005Y-79314378D01*
X123497943Y-79366570D01*
X123429622Y-79385876D01*
X123361709Y-79365181D01*
X123341812Y-79348978D01*
X123164805Y-79171971D01*
X123130779Y-79109659D01*
X123127900Y-79082876D01*
X123127900Y-77005302D01*
X123130321Y-76980720D01*
X123148499Y-76889332D01*
X123148500Y-76889329D01*
X123148500Y-76690672D01*
X123148499Y-76690668D01*
X123130321Y-76599279D01*
X123127900Y-76574697D01*
X123127900Y-76345302D01*
X123130321Y-76320720D01*
X123136436Y-76289979D01*
X123148500Y-76229329D01*
X123148500Y-76030671D01*
X123136681Y-75971253D01*
X123109744Y-75835831D01*
X123033722Y-75652296D01*
X122923354Y-75487119D01*
X122782881Y-75346646D01*
X122782880Y-75346645D01*
X122778480Y-75342245D01*
X122778469Y-75342235D01*
X122762283Y-75326049D01*
X122762281Y-75326047D01*
X122597104Y-75215679D01*
X122545991Y-75194507D01*
X122452211Y-75155661D01*
X122475572Y-74116900D01*
X133976787Y-74116900D01*
X134044908Y-74136902D01*
G37*
%TD.AperFunction*%
%TA.AperFunction,Conductor*%
G36*
X148917532Y-90328244D02*
G01*
X148974368Y-90370791D01*
X148999179Y-90437311D01*
X148999500Y-90446300D01*
X148999500Y-96802500D01*
X148979498Y-96870621D01*
X148925842Y-96917114D01*
X148855568Y-96927218D01*
X148790988Y-96897724D01*
X148784405Y-96891596D01*
X148763430Y-96870621D01*
X148694799Y-96801990D01*
X148518752Y-96625943D01*
X148484726Y-96563631D01*
X148486140Y-96504238D01*
X148514918Y-96396844D01*
X148535254Y-96164400D01*
X148514918Y-95931956D01*
X148454527Y-95706574D01*
X148355916Y-95495103D01*
X148222082Y-95303968D01*
X148057092Y-95138978D01*
X147964424Y-95074091D01*
X147865954Y-95005141D01*
X147862641Y-95003229D01*
X147861473Y-95002004D01*
X147861450Y-95001988D01*
X147861453Y-95001983D01*
X147813648Y-94951846D01*
X147800212Y-94882133D01*
X147826598Y-94816222D01*
X147862642Y-94784990D01*
X147865713Y-94783216D01*
X147942499Y-94729451D01*
X147942499Y-94729448D01*
X147280784Y-94067733D01*
X147370354Y-94043733D01*
X147472966Y-93984490D01*
X147556750Y-93900706D01*
X147615993Y-93798094D01*
X147639993Y-93708524D01*
X148301708Y-94370239D01*
X148301711Y-94370239D01*
X148355481Y-94293446D01*
X148355482Y-94293444D01*
X148454053Y-94082057D01*
X148454055Y-94082052D01*
X148514422Y-93856755D01*
X148534751Y-93624400D01*
X148514422Y-93392044D01*
X148454055Y-93166747D01*
X148454053Y-93166742D01*
X148355479Y-92955348D01*
X148355478Y-92955347D01*
X148301711Y-92878559D01*
X148301709Y-92878559D01*
X147639993Y-93540275D01*
X147615993Y-93450706D01*
X147556750Y-93348094D01*
X147472966Y-93264310D01*
X147370354Y-93205067D01*
X147280783Y-93181066D01*
X147942499Y-92519349D01*
X147865707Y-92465578D01*
X147862642Y-92463809D01*
X147861561Y-92462675D01*
X147861199Y-92462422D01*
X147861250Y-92462349D01*
X147813648Y-92412426D01*
X147800211Y-92342713D01*
X147826598Y-92276802D01*
X147862651Y-92245564D01*
X147865945Y-92243661D01*
X147865957Y-92243656D01*
X148057092Y-92109822D01*
X148222082Y-91944832D01*
X148355916Y-91753697D01*
X148454527Y-91542226D01*
X148514918Y-91316844D01*
X148535254Y-91084400D01*
X148514918Y-90851956D01*
X148486141Y-90744560D01*
X148487830Y-90673584D01*
X148518750Y-90622856D01*
X148713251Y-90428355D01*
X148713261Y-90428348D01*
X148784405Y-90357205D01*
X148846717Y-90323179D01*
X148917532Y-90328244D01*
G37*
%TD.AperFunction*%
%TA.AperFunction,Conductor*%
G36*
X122551620Y-90713502D02*
G01*
X122598113Y-90767158D01*
X122609499Y-90819500D01*
X122609499Y-91249475D01*
X122589497Y-91317596D01*
X122572595Y-91338570D01*
X122077135Y-91834030D01*
X122102785Y-90693500D01*
X122463181Y-90693500D01*
X122483499Y-90693500D01*
X122551620Y-90713502D01*
G37*
%TD.AperFunction*%
%TA.AperFunction,Conductor*%
G36*
X122259980Y-89400500D02*
G01*
X122239978Y-89468621D01*
X122186322Y-89515114D01*
X122133980Y-89526500D01*
X122129029Y-89526500D01*
X122259980Y-83703556D01*
X122259980Y-89400500D01*
G37*
%TD.AperFunction*%
%TD*%
%TA.AperFunction,Conductor*%
%TO.N,GND*%
G36*
X108776019Y-104076347D02*
G01*
X108787113Y-104086187D01*
X113221137Y-108520211D01*
X113079148Y-110623325D01*
X113079147Y-110623325D01*
X113020513Y-110622162D01*
X107899007Y-110520601D01*
X107869371Y-110516400D01*
X107790901Y-110495374D01*
X107731241Y-110459009D01*
X107700712Y-110396162D01*
X107709007Y-110326786D01*
X107753492Y-110272908D01*
X107790897Y-110255826D01*
X107906374Y-110224884D01*
X108113880Y-110128123D01*
X108301431Y-109996798D01*
X108463329Y-109834900D01*
X108594654Y-109647349D01*
X108691415Y-109439843D01*
X108750674Y-109218687D01*
X108770629Y-108990600D01*
X108750674Y-108762513D01*
X108691415Y-108541357D01*
X108594654Y-108333851D01*
X108463329Y-108146300D01*
X108301431Y-107984402D01*
X108113880Y-107853077D01*
X108113876Y-107853075D01*
X107906380Y-107756318D01*
X107906368Y-107756314D01*
X107774481Y-107720975D01*
X107714821Y-107684610D01*
X107684292Y-107621763D01*
X107692587Y-107552387D01*
X107737072Y-107498509D01*
X107774482Y-107481425D01*
X107903448Y-107446869D01*
X107903462Y-107446864D01*
X108109609Y-107350736D01*
X108182602Y-107299624D01*
X107586540Y-106703562D01*
X107650124Y-106686525D01*
X107764138Y-106620699D01*
X107857230Y-106527607D01*
X107923056Y-106413593D01*
X107940093Y-106350009D01*
X108536155Y-106946071D01*
X108587267Y-106873078D01*
X108683395Y-106666931D01*
X108683400Y-106666917D01*
X108742270Y-106447210D01*
X108742272Y-106447199D01*
X108762097Y-106220602D01*
X108762097Y-106220597D01*
X108742272Y-105994000D01*
X108742270Y-105993989D01*
X108683400Y-105774282D01*
X108683395Y-105774268D01*
X108587267Y-105568121D01*
X108587263Y-105568113D01*
X108536156Y-105495126D01*
X107940093Y-106091189D01*
X107923056Y-106027607D01*
X107857230Y-105913593D01*
X107764138Y-105820501D01*
X107650124Y-105754675D01*
X107586541Y-105737637D01*
X108182603Y-105141574D01*
X108109609Y-105090463D01*
X107903462Y-104994335D01*
X107903451Y-104994331D01*
X107774481Y-104959774D01*
X107714821Y-104923409D01*
X107684292Y-104860562D01*
X107692587Y-104791186D01*
X107737072Y-104737308D01*
X107774478Y-104720225D01*
X107906374Y-104684884D01*
X108113880Y-104588123D01*
X108301431Y-104456798D01*
X108463329Y-104294900D01*
X108594654Y-104107349D01*
X108594654Y-104107346D01*
X108597759Y-104102914D01*
X108599892Y-104104407D01*
X108642539Y-104063690D01*
X108711137Y-104050422D01*
X108776019Y-104076347D01*
G37*
%TD.AperFunction*%
%TA.AperFunction,Conductor*%
G36*
X106288312Y-109618785D02*
G01*
X106322847Y-109651976D01*
X106369674Y-109718851D01*
X106450933Y-109834900D01*
X106612831Y-109996798D01*
X106800382Y-110128123D01*
X106925222Y-110186336D01*
X107007881Y-110224881D01*
X107007883Y-110224881D01*
X107007888Y-110224884D01*
X107123360Y-110255825D01*
X107183019Y-110292189D01*
X107213549Y-110355035D01*
X107205255Y-110424411D01*
X107160770Y-110478289D01*
X107123362Y-110495373D01*
X107106125Y-110499992D01*
X107071571Y-110504194D01*
X106051278Y-110483962D01*
X105984642Y-110462952D01*
X105939943Y-110409251D01*
X105930208Y-110370793D01*
X105928829Y-110355035D01*
X105910674Y-110147513D01*
X105851415Y-109926357D01*
X105808770Y-109834904D01*
X105781072Y-109775504D01*
X105770580Y-109706427D01*
X105799100Y-109642643D01*
X105857577Y-109604404D01*
X105893454Y-109599100D01*
X106221273Y-109599100D01*
X106288312Y-109618785D01*
G37*
%TD.AperFunction*%
%TA.AperFunction,Conductor*%
G36*
X103269325Y-107146466D02*
G01*
X103325258Y-107188338D01*
X103349675Y-107253802D01*
X103345766Y-107294741D01*
X103323589Y-107377507D01*
X103323587Y-107377518D01*
X103303633Y-107605598D01*
X103303633Y-107605601D01*
X103323587Y-107833681D01*
X103323589Y-107833692D01*
X103348360Y-107926140D01*
X103346697Y-107995990D01*
X103316266Y-108045914D01*
X102090181Y-109272000D01*
X102028858Y-109305485D01*
X101959166Y-109300501D01*
X101903233Y-109258629D01*
X101878816Y-109193165D01*
X101878500Y-109184319D01*
X101878500Y-108486140D01*
X101898185Y-108419101D01*
X101914814Y-108398464D01*
X103138313Y-107174965D01*
X103199633Y-107141482D01*
X103269325Y-107146466D01*
G37*
%TD.AperFunction*%
%TA.AperFunction,Conductor*%
G36*
X106288312Y-104078785D02*
G01*
X106322847Y-104111976D01*
X106369674Y-104178851D01*
X106450933Y-104294900D01*
X106612831Y-104456798D01*
X106800382Y-104588123D01*
X106925222Y-104646336D01*
X107007881Y-104684881D01*
X107007883Y-104684881D01*
X107007888Y-104684884D01*
X107139780Y-104720224D01*
X107199440Y-104756589D01*
X107229969Y-104819436D01*
X107221674Y-104888811D01*
X107177189Y-104942689D01*
X107139780Y-104959774D01*
X107010811Y-104994331D01*
X107010804Y-104994334D01*
X106804647Y-105090466D01*
X106804643Y-105090468D01*
X106731657Y-105141573D01*
X106731657Y-105141574D01*
X107327721Y-105737637D01*
X107264138Y-105754675D01*
X107150124Y-105820501D01*
X107057032Y-105913593D01*
X106991206Y-106027607D01*
X106974168Y-106091189D01*
X106378105Y-105495126D01*
X106378104Y-105495126D01*
X106326999Y-105568112D01*
X106326997Y-105568116D01*
X106230865Y-105774273D01*
X106230861Y-105774282D01*
X106171991Y-105993989D01*
X106171989Y-105994000D01*
X106152165Y-106220597D01*
X106152165Y-106220602D01*
X106171989Y-106447199D01*
X106171991Y-106447210D01*
X106230861Y-106666917D01*
X106230866Y-106666931D01*
X106326994Y-106873078D01*
X106378105Y-106946072D01*
X106974168Y-106350009D01*
X106991206Y-106413593D01*
X107057032Y-106527607D01*
X107150124Y-106620699D01*
X107264138Y-106686525D01*
X107327721Y-106703562D01*
X106731657Y-107299625D01*
X106804644Y-107350732D01*
X106804652Y-107350736D01*
X107010799Y-107446864D01*
X107010813Y-107446869D01*
X107139779Y-107481425D01*
X107199440Y-107517790D01*
X107229969Y-107580637D01*
X107221674Y-107650012D01*
X107177189Y-107703890D01*
X107139780Y-107720975D01*
X107007893Y-107756314D01*
X107007881Y-107756318D01*
X106800385Y-107853075D01*
X106800383Y-107853076D01*
X106800382Y-107853077D01*
X106612831Y-107984402D01*
X106612829Y-107984403D01*
X106612826Y-107984406D01*
X106450933Y-108146299D01*
X106322847Y-108329224D01*
X106268270Y-108372849D01*
X106221273Y-108382100D01*
X105893454Y-108382100D01*
X105826415Y-108362415D01*
X105780660Y-108309611D01*
X105770716Y-108240453D01*
X105781072Y-108205696D01*
X105851412Y-108054849D01*
X105851415Y-108054843D01*
X105910674Y-107833687D01*
X105930629Y-107605600D01*
X105925973Y-107552387D01*
X105910674Y-107377518D01*
X105910674Y-107377513D01*
X105851415Y-107156357D01*
X105831515Y-107113682D01*
X105754655Y-106948854D01*
X105754654Y-106948852D01*
X105754654Y-106948851D01*
X105623329Y-106761300D01*
X105461431Y-106599402D01*
X105273880Y-106468077D01*
X105273876Y-106468075D01*
X105066380Y-106371318D01*
X105066366Y-106371313D01*
X104950901Y-106340375D01*
X104891240Y-106304010D01*
X104860711Y-106241163D01*
X104869006Y-106171788D01*
X104913491Y-106117910D01*
X104950901Y-106100825D01*
X105066374Y-106069884D01*
X105273880Y-105973123D01*
X105461431Y-105841798D01*
X105623329Y-105679900D01*
X105754654Y-105492349D01*
X105851415Y-105284843D01*
X105910674Y-105063687D01*
X105930629Y-104835600D01*
X105910674Y-104607513D01*
X105851415Y-104386357D01*
X105808770Y-104294904D01*
X105781072Y-104235504D01*
X105770580Y-104166427D01*
X105799100Y-104102643D01*
X105857577Y-104064404D01*
X105893454Y-104059100D01*
X106221273Y-104059100D01*
X106288312Y-104078785D01*
G37*
%TD.AperFunction*%
%TA.AperFunction,Conductor*%
G36*
X118663350Y-91386985D02*
G01*
X118709105Y-91439789D01*
X118720311Y-91491300D01*
X118720311Y-93067034D01*
X118700626Y-93134073D01*
X118647822Y-93179828D01*
X118578664Y-93189772D01*
X118530339Y-93172028D01*
X118451184Y-93122291D01*
X118289849Y-93065837D01*
X118289844Y-93065836D01*
X118120004Y-93046701D01*
X118119996Y-93046701D01*
X117950155Y-93065836D01*
X117950150Y-93065837D01*
X117788816Y-93122291D01*
X117644091Y-93213228D01*
X117523228Y-93334091D01*
X117432291Y-93478816D01*
X117375837Y-93640150D01*
X117375836Y-93640155D01*
X117356701Y-93809996D01*
X117356701Y-93810003D01*
X117375836Y-93979844D01*
X117375837Y-93979849D01*
X117432291Y-94141183D01*
X117472291Y-94204843D01*
X117523229Y-94285909D01*
X117644091Y-94406771D01*
X117788817Y-94497709D01*
X117891539Y-94533653D01*
X117950150Y-94554162D01*
X117950155Y-94554163D01*
X118119996Y-94573299D01*
X118120000Y-94573299D01*
X118120004Y-94573299D01*
X118296771Y-94553383D01*
X118296986Y-94555298D01*
X118357165Y-94558973D01*
X118402725Y-94587919D01*
X118950181Y-95135375D01*
X118983666Y-95196698D01*
X118986500Y-95223056D01*
X118986500Y-96416819D01*
X119026265Y-96565223D01*
X119026266Y-96565224D01*
X119056320Y-96617279D01*
X119056320Y-96617281D01*
X119103079Y-96698271D01*
X119103083Y-96698276D01*
X119103084Y-96698278D01*
X121656722Y-99251916D01*
X121656723Y-99251917D01*
X121656725Y-99251918D01*
X121723247Y-99290323D01*
X121723249Y-99290325D01*
X121723250Y-99290325D01*
X121724464Y-99291026D01*
X113820000Y-99650000D01*
X113329986Y-106907962D01*
X108223407Y-101801383D01*
X108222258Y-101799279D01*
X107586541Y-101163562D01*
X107650124Y-101146525D01*
X107764138Y-101080699D01*
X107857230Y-100987607D01*
X107923056Y-100873593D01*
X107940093Y-100810009D01*
X108536155Y-101406071D01*
X108587267Y-101333078D01*
X108683395Y-101126931D01*
X108683400Y-101126917D01*
X108742270Y-100907210D01*
X108742272Y-100907199D01*
X108762097Y-100680602D01*
X108762097Y-100680597D01*
X108742272Y-100454000D01*
X108742270Y-100453989D01*
X108683400Y-100234282D01*
X108683396Y-100234273D01*
X108587264Y-100028116D01*
X108587262Y-100028112D01*
X108545428Y-99968367D01*
X108523101Y-99902161D01*
X108540111Y-99834394D01*
X108585004Y-99789857D01*
X108653827Y-99750122D01*
X109427522Y-98976427D01*
X109507632Y-98837672D01*
X109549100Y-98682910D01*
X109549100Y-98522689D01*
X109549100Y-97407611D01*
X109568785Y-97340572D01*
X109585419Y-97319930D01*
X110113878Y-96791471D01*
X110646721Y-96258628D01*
X110726832Y-96119873D01*
X110755303Y-96013615D01*
X110768300Y-95965111D01*
X110768300Y-94436360D01*
X110787985Y-94369321D01*
X110804619Y-94348679D01*
X112125953Y-93027345D01*
X113563922Y-91589376D01*
X113644032Y-91450621D01*
X113644032Y-91450620D01*
X113644034Y-91450617D01*
X113646839Y-91443846D01*
X113690680Y-91389443D01*
X113756975Y-91367379D01*
X113761399Y-91367300D01*
X118596311Y-91367300D01*
X118663350Y-91386985D01*
G37*
%TD.AperFunction*%
%TA.AperFunction,Conductor*%
G36*
X122452211Y-75155661D02*
G01*
X122413572Y-75139657D01*
X122413560Y-75139654D01*
X122218732Y-75100900D01*
X122218729Y-75100900D01*
X122020071Y-75100900D01*
X122020068Y-75100900D01*
X121825239Y-75139654D01*
X121825231Y-75139656D01*
X121641698Y-75215677D01*
X121641689Y-75215682D01*
X121476519Y-75326046D01*
X121476515Y-75326049D01*
X121336049Y-75466515D01*
X121336046Y-75466519D01*
X121225682Y-75631689D01*
X121225677Y-75631698D01*
X121149656Y-75815231D01*
X121149654Y-75815239D01*
X121110900Y-76010066D01*
X121110900Y-76179165D01*
X121091215Y-76246204D01*
X121038411Y-76291959D01*
X121000786Y-76302385D01*
X120970155Y-76305836D01*
X120808817Y-76362290D01*
X120664091Y-76453228D01*
X120543228Y-76574091D01*
X120452291Y-76718816D01*
X120395837Y-76880150D01*
X120395836Y-76880155D01*
X120376701Y-77049996D01*
X120376701Y-77050003D01*
X120395836Y-77219844D01*
X120395837Y-77219849D01*
X120452291Y-77381183D01*
X120524231Y-77495675D01*
X120543229Y-77525909D01*
X120664091Y-77646771D01*
X120703352Y-77671440D01*
X120749643Y-77723775D01*
X120761380Y-77776434D01*
X120761380Y-77892319D01*
X120741695Y-77959358D01*
X120688891Y-78005113D01*
X120619733Y-78015057D01*
X120596425Y-78009361D01*
X120529199Y-77985837D01*
X120529194Y-77985836D01*
X120359354Y-77966701D01*
X120359346Y-77966701D01*
X120189505Y-77985836D01*
X120189500Y-77985837D01*
X120028166Y-78042291D01*
X119883441Y-78133228D01*
X119762578Y-78254091D01*
X119671641Y-78398816D01*
X119615187Y-78560150D01*
X119615186Y-78560155D01*
X119596051Y-78729996D01*
X119596051Y-78730003D01*
X119615186Y-78899844D01*
X119615187Y-78899849D01*
X119671641Y-79061183D01*
X119676666Y-79069181D01*
X119762579Y-79205909D01*
X119883441Y-79326771D01*
X120028167Y-79417709D01*
X120186831Y-79473228D01*
X120189500Y-79474162D01*
X120189505Y-79474163D01*
X120359346Y-79493299D01*
X120359350Y-79493299D01*
X120359354Y-79493299D01*
X120529194Y-79474163D01*
X120529197Y-79474162D01*
X120529200Y-79474162D01*
X120529201Y-79474161D01*
X120529204Y-79474161D01*
X120570813Y-79459600D01*
X120596424Y-79450638D01*
X120666203Y-79447076D01*
X120726831Y-79481805D01*
X120759058Y-79543798D01*
X120761380Y-79567680D01*
X120761380Y-79950435D01*
X120801145Y-80098839D01*
X120830747Y-80150111D01*
X120830748Y-80150112D01*
X120877963Y-80231892D01*
X120877965Y-80231895D01*
X122223661Y-81577591D01*
X122257146Y-81638914D01*
X122259980Y-81665272D01*
X122259980Y-83703566D01*
X122129029Y-89526500D01*
X121806819Y-89526500D01*
X121023181Y-89526500D01*
X120934138Y-89550359D01*
X120874775Y-89566265D01*
X120874774Y-89566266D01*
X120815310Y-89600598D01*
X120815307Y-89600600D01*
X120788370Y-89616151D01*
X120741719Y-89643085D01*
X120670924Y-89713879D01*
X120609601Y-89747364D01*
X120597128Y-89749417D01*
X120540155Y-89755836D01*
X120378817Y-89812290D01*
X120234091Y-89903228D01*
X120113227Y-90024092D01*
X120113226Y-90024094D01*
X120023679Y-90166606D01*
X119971345Y-90212896D01*
X119902291Y-90223544D01*
X119838443Y-90195169D01*
X119831005Y-90188314D01*
X119804719Y-90162028D01*
X119659994Y-90071091D01*
X119498660Y-90014637D01*
X119498655Y-90014636D01*
X119328815Y-89995501D01*
X119328807Y-89995501D01*
X119158966Y-90014636D01*
X119158961Y-90014637D01*
X118997627Y-90071091D01*
X118901816Y-90131294D01*
X118835844Y-90150300D01*
X113577288Y-90150300D01*
X113511316Y-90131294D01*
X113408185Y-90066492D01*
X113408181Y-90066490D01*
X113246857Y-90010039D01*
X113246844Y-90010036D01*
X113140775Y-89998086D01*
X113076361Y-89971020D01*
X113036806Y-89913425D01*
X113030658Y-89874866D01*
X113030658Y-88871252D01*
X113050343Y-88804213D01*
X113066973Y-88783575D01*
X113908918Y-87941629D01*
X113970239Y-87908146D01*
X113982703Y-87906093D01*
X113999850Y-87904162D01*
X114161183Y-87847709D01*
X114196694Y-87825396D01*
X116761879Y-87825396D01*
X116761879Y-87825403D01*
X116781014Y-87995244D01*
X116781015Y-87995249D01*
X116837469Y-88156583D01*
X116905223Y-88264413D01*
X116928407Y-88301309D01*
X117049269Y-88422171D01*
X117193995Y-88513109D01*
X117355328Y-88569562D01*
X117355333Y-88569563D01*
X117525174Y-88588699D01*
X117525178Y-88588699D01*
X117525182Y-88588699D01*
X117695022Y-88569563D01*
X117695025Y-88569562D01*
X117695028Y-88569562D01*
X117856361Y-88513109D01*
X118001087Y-88422171D01*
X118121949Y-88301309D01*
X118212887Y-88156583D01*
X118269340Y-87995250D01*
X118271270Y-87978117D01*
X118298332Y-87913705D01*
X118306799Y-87904326D01*
X118904511Y-87306616D01*
X118984621Y-87167861D01*
X118991697Y-87141454D01*
X119003409Y-87097747D01*
X119017872Y-87043767D01*
X119026089Y-87013100D01*
X119026089Y-86226606D01*
X119045774Y-86159567D01*
X119062408Y-86138925D01*
X119689907Y-85511426D01*
X120322938Y-84878395D01*
X120403049Y-84739640D01*
X120430398Y-84637571D01*
X120444517Y-84584878D01*
X120444517Y-84533765D01*
X120463523Y-84467793D01*
X120523726Y-84371983D01*
X120558754Y-84271880D01*
X120580177Y-84210657D01*
X120580180Y-84210644D01*
X120599316Y-84040803D01*
X120599316Y-84040796D01*
X120580180Y-83870955D01*
X120580179Y-83870950D01*
X120546930Y-83775931D01*
X120523726Y-83709617D01*
X120432788Y-83564891D01*
X120311926Y-83444029D01*
X120311925Y-83444028D01*
X120167200Y-83353091D01*
X120005866Y-83296637D01*
X120005861Y-83296636D01*
X119836021Y-83277501D01*
X119836013Y-83277501D01*
X119666172Y-83296636D01*
X119666167Y-83296637D01*
X119504831Y-83353091D01*
X119360106Y-83444029D01*
X119360102Y-83444032D01*
X119334146Y-83469988D01*
X119272822Y-83503471D01*
X119232586Y-83505524D01*
X119081845Y-83488541D01*
X119081836Y-83488541D01*
X118911995Y-83507676D01*
X118911990Y-83507677D01*
X118750656Y-83564131D01*
X118605931Y-83655068D01*
X118485068Y-83775931D01*
X118394130Y-83920657D01*
X118337676Y-84081994D01*
X118335746Y-84099128D01*
X118308677Y-84163541D01*
X118300207Y-84172922D01*
X117381158Y-85091972D01*
X117381154Y-85091978D01*
X117301047Y-85230726D01*
X117301046Y-85230728D01*
X117301046Y-85230729D01*
X117297560Y-85243739D01*
X117284958Y-85290772D01*
X117259578Y-85385491D01*
X117259578Y-85567132D01*
X117240572Y-85633104D01*
X117180369Y-85728915D01*
X117123915Y-85890250D01*
X117123914Y-85890255D01*
X117104779Y-86060096D01*
X117104779Y-86060103D01*
X117123914Y-86229944D01*
X117123915Y-86229949D01*
X117180369Y-86391283D01*
X117271306Y-86536008D01*
X117392170Y-86656872D01*
X117392172Y-86656873D01*
X117531331Y-86744314D01*
X117577621Y-86796648D01*
X117588269Y-86865702D01*
X117559894Y-86929550D01*
X117553039Y-86936988D01*
X117446260Y-87043767D01*
X117384937Y-87077252D01*
X117372466Y-87079306D01*
X117355332Y-87081236D01*
X117193995Y-87137690D01*
X117049269Y-87228628D01*
X116928406Y-87349491D01*
X116837469Y-87494216D01*
X116781015Y-87655550D01*
X116781014Y-87655555D01*
X116761879Y-87825396D01*
X114196694Y-87825396D01*
X114305909Y-87756771D01*
X114426771Y-87635909D01*
X114517709Y-87491183D01*
X114574162Y-87329850D01*
X114576780Y-87306616D01*
X114593299Y-87160003D01*
X114593299Y-87159996D01*
X114574163Y-86990155D01*
X114574162Y-86990150D01*
X114550335Y-86922057D01*
X114517709Y-86828817D01*
X114426771Y-86684091D01*
X114305909Y-86563229D01*
X114305908Y-86563228D01*
X114161183Y-86472291D01*
X113999849Y-86415837D01*
X113999844Y-86415836D01*
X113875607Y-86401839D01*
X113811193Y-86374773D01*
X113771638Y-86317178D01*
X113769500Y-86247341D01*
X113801807Y-86190940D01*
X114137229Y-85855518D01*
X114198550Y-85822035D01*
X114211014Y-85819982D01*
X114228161Y-85818051D01*
X114389494Y-85761598D01*
X114534220Y-85670660D01*
X114655082Y-85549798D01*
X114746020Y-85405072D01*
X114802473Y-85243739D01*
X114802474Y-85243733D01*
X114821610Y-85073892D01*
X114821610Y-85073885D01*
X114802474Y-84904044D01*
X114802473Y-84904039D01*
X114763658Y-84793113D01*
X114746020Y-84742706D01*
X114655082Y-84597980D01*
X114534220Y-84477118D01*
X114534219Y-84477117D01*
X114389494Y-84386180D01*
X114228160Y-84329726D01*
X114228155Y-84329725D01*
X114058315Y-84310590D01*
X114058307Y-84310590D01*
X113888466Y-84329725D01*
X113888461Y-84329726D01*
X113727127Y-84386180D01*
X113582402Y-84477117D01*
X113461539Y-84597980D01*
X113370601Y-84742706D01*
X113314147Y-84904043D01*
X113312217Y-84921177D01*
X113285148Y-84985590D01*
X113276678Y-84994971D01*
X112443299Y-85828351D01*
X112381976Y-85861836D01*
X112312285Y-85856852D01*
X112256351Y-85814980D01*
X112231934Y-85749516D01*
X112231618Y-85740670D01*
X112231618Y-85659263D01*
X112251303Y-85592224D01*
X112281879Y-85561964D01*
X112280874Y-85560703D01*
X112286314Y-85556363D01*
X112286320Y-85556360D01*
X112407182Y-85435498D01*
X112498120Y-85290772D01*
X112554573Y-85129439D01*
X112555306Y-85122934D01*
X112573710Y-84959592D01*
X112573710Y-84959585D01*
X112554574Y-84789744D01*
X112554573Y-84789739D01*
X112537043Y-84739641D01*
X112498120Y-84628406D01*
X112407182Y-84483680D01*
X112286320Y-84362818D01*
X112286319Y-84362817D01*
X112141594Y-84271880D01*
X111980260Y-84215426D01*
X111980255Y-84215425D01*
X111810415Y-84196290D01*
X111810407Y-84196290D01*
X111640566Y-84215425D01*
X111640561Y-84215426D01*
X111472655Y-84274180D01*
X111472131Y-84272684D01*
X111411427Y-84282674D01*
X111347296Y-84254945D01*
X111308336Y-84196945D01*
X111302580Y-84159603D01*
X111302580Y-83131931D01*
X111322265Y-83064892D01*
X111338899Y-83044250D01*
X112178930Y-82204219D01*
X112240253Y-82170734D01*
X112266611Y-82167900D01*
X112994233Y-82167900D01*
X113060204Y-82186905D01*
X113156017Y-82247109D01*
X113317350Y-82303562D01*
X113317355Y-82303563D01*
X113487196Y-82322699D01*
X113487200Y-82322699D01*
X113487204Y-82322699D01*
X113657044Y-82303563D01*
X113657047Y-82303562D01*
X113657050Y-82303562D01*
X113818383Y-82247109D01*
X113914195Y-82186905D01*
X113980167Y-82167900D01*
X119550709Y-82167900D01*
X119550710Y-82167900D01*
X119550711Y-82167900D01*
X119628091Y-82147166D01*
X119705473Y-82126432D01*
X119755697Y-82097434D01*
X119803810Y-82081602D01*
X119869850Y-82074162D01*
X120031183Y-82017709D01*
X120175909Y-81926771D01*
X120296771Y-81805909D01*
X120387709Y-81661183D01*
X120444162Y-81499850D01*
X120463299Y-81330000D01*
X120444162Y-81160150D01*
X120387709Y-80998817D01*
X120296771Y-80854091D01*
X120175909Y-80733229D01*
X120175908Y-80733228D01*
X120031183Y-80642291D01*
X119869849Y-80585837D01*
X119869844Y-80585836D01*
X119700004Y-80566701D01*
X119699996Y-80566701D01*
X119530155Y-80585836D01*
X119530150Y-80585837D01*
X119368814Y-80642291D01*
X119345326Y-80657050D01*
X119278089Y-80676049D01*
X119211254Y-80655680D01*
X119166041Y-80602411D01*
X119156805Y-80533155D01*
X119174363Y-80486082D01*
X119227708Y-80401185D01*
X119284162Y-80239849D01*
X119284163Y-80239844D01*
X119303299Y-80070003D01*
X119303299Y-80069996D01*
X119284163Y-79900155D01*
X119284162Y-79900150D01*
X119266690Y-79850219D01*
X119227709Y-79738817D01*
X119136771Y-79594091D01*
X119015909Y-79473229D01*
X119015908Y-79473228D01*
X118871182Y-79382290D01*
X118709844Y-79325836D01*
X118681441Y-79322636D01*
X118617028Y-79295568D01*
X118607646Y-79287097D01*
X118284829Y-78964280D01*
X118284827Y-78964278D01*
X118146073Y-78884168D01*
X118068691Y-78863434D01*
X118068690Y-78863433D01*
X118012044Y-78848255D01*
X117991311Y-78842700D01*
X117991310Y-78842700D01*
X114601038Y-78842700D01*
X114533999Y-78823015D01*
X114488244Y-78770211D01*
X114478300Y-78701053D01*
X114507325Y-78637497D01*
X114535066Y-78613706D01*
X114552350Y-78602844D01*
X114589709Y-78579371D01*
X114710571Y-78458509D01*
X114801509Y-78313783D01*
X114857962Y-78152450D01*
X114869197Y-78052737D01*
X114877099Y-77982603D01*
X114877099Y-77982596D01*
X114857963Y-77812755D01*
X114857962Y-77812750D01*
X114834296Y-77745118D01*
X114801509Y-77651417D01*
X114710571Y-77506691D01*
X114589709Y-77385829D01*
X114589708Y-77385828D01*
X114444983Y-77294891D01*
X114283649Y-77238437D01*
X114283644Y-77238436D01*
X114113804Y-77219301D01*
X114113796Y-77219301D01*
X113943955Y-77238436D01*
X113943950Y-77238437D01*
X113782616Y-77294891D01*
X113686805Y-77355094D01*
X113620833Y-77374100D01*
X112970689Y-77374100D01*
X112843134Y-77408278D01*
X112843133Y-77408277D01*
X112815932Y-77415566D01*
X112815925Y-77415569D01*
X112677176Y-77495675D01*
X112677171Y-77495679D01*
X108479080Y-81693770D01*
X108479078Y-81693773D01*
X108398969Y-81832525D01*
X108383412Y-81890584D01*
X108357500Y-81987289D01*
X108357500Y-82628100D01*
X108337815Y-82695139D01*
X108285011Y-82740894D01*
X108233500Y-82752100D01*
X108189631Y-82752100D01*
X108122592Y-82732415D01*
X108076837Y-82679611D01*
X108065631Y-82628100D01*
X108065631Y-80120480D01*
X108085316Y-80053441D01*
X108101950Y-80032799D01*
X111457330Y-76677419D01*
X111518653Y-76643934D01*
X111545011Y-76641100D01*
X113615033Y-76641100D01*
X113681004Y-76660105D01*
X113776817Y-76720309D01*
X113938150Y-76776762D01*
X113938155Y-76776763D01*
X114107996Y-76795899D01*
X114108000Y-76795899D01*
X114108004Y-76795899D01*
X114277844Y-76776763D01*
X114277847Y-76776762D01*
X114277850Y-76776762D01*
X114439183Y-76720309D01*
X114583909Y-76629371D01*
X114704771Y-76508509D01*
X114795709Y-76363783D01*
X114852162Y-76202450D01*
X114865027Y-76088270D01*
X114871299Y-76032603D01*
X114871299Y-76032596D01*
X114852163Y-75862755D01*
X114852162Y-75862750D01*
X114835537Y-75815239D01*
X114795709Y-75701417D01*
X114704771Y-75556691D01*
X114583909Y-75435829D01*
X114583908Y-75435828D01*
X114439183Y-75344891D01*
X114277849Y-75288437D01*
X114277844Y-75288436D01*
X114108004Y-75269301D01*
X114107996Y-75269301D01*
X113938155Y-75288436D01*
X113938150Y-75288437D01*
X113776816Y-75344891D01*
X113681005Y-75405094D01*
X113615033Y-75424100D01*
X111161489Y-75424100D01*
X111006726Y-75465568D01*
X110955688Y-75495036D01*
X110930168Y-75509770D01*
X110867975Y-75545677D01*
X110867969Y-75545681D01*
X108702016Y-77711633D01*
X108640693Y-77745118D01*
X108571001Y-77740134D01*
X108515068Y-77698262D01*
X108490651Y-77632798D01*
X108492532Y-77600716D01*
X108522320Y-77444561D01*
X108522323Y-77444542D01*
X108542074Y-77130605D01*
X108542074Y-77130594D01*
X108522323Y-76816657D01*
X108522322Y-76816650D01*
X108463375Y-76507641D01*
X108366167Y-76208467D01*
X108366165Y-76208462D01*
X108232230Y-75923838D01*
X108232227Y-75923832D01*
X108063673Y-75658232D01*
X108063670Y-75658228D01*
X107972843Y-75548438D01*
X107331381Y-76189900D01*
X107257543Y-76088270D01*
X107079461Y-75910188D01*
X106977829Y-75836348D01*
X107622158Y-75192019D01*
X107622157Y-75192017D01*
X107379358Y-75015614D01*
X107379340Y-75015603D01*
X107103683Y-74864059D01*
X107103675Y-74864055D01*
X106811204Y-74748259D01*
X106506510Y-74670026D01*
X106506501Y-74670024D01*
X106194429Y-74630600D01*
X105879832Y-74630600D01*
X105567760Y-74670024D01*
X105567751Y-74670026D01*
X105263057Y-74748259D01*
X104970586Y-74864055D01*
X104970578Y-74864059D01*
X104694918Y-75015604D01*
X104694913Y-75015607D01*
X104452103Y-75192018D01*
X104452102Y-75192019D01*
X105096432Y-75836348D01*
X104994801Y-75910188D01*
X104816719Y-76088270D01*
X104742879Y-76189900D01*
X104101417Y-75548438D01*
X104101416Y-75548438D01*
X104010590Y-75658229D01*
X104010588Y-75658232D01*
X103842034Y-75923832D01*
X103842031Y-75923838D01*
X103708096Y-76208462D01*
X103708094Y-76208467D01*
X103610886Y-76507641D01*
X103551939Y-76816650D01*
X103551938Y-76816657D01*
X103532188Y-77130594D01*
X103532188Y-77130605D01*
X103551938Y-77444542D01*
X103551939Y-77444549D01*
X103610886Y-77753558D01*
X103708094Y-78052732D01*
X103708096Y-78052737D01*
X103842031Y-78337361D01*
X103842034Y-78337367D01*
X104010588Y-78602967D01*
X104010591Y-78602971D01*
X104101417Y-78712760D01*
X104742879Y-78071298D01*
X104816719Y-78172930D01*
X104994801Y-78351012D01*
X105096431Y-78424850D01*
X104452102Y-79069179D01*
X104452103Y-79069181D01*
X104694903Y-79245585D01*
X104694921Y-79245596D01*
X104970578Y-79397140D01*
X104970586Y-79397144D01*
X105263057Y-79512940D01*
X105567751Y-79591173D01*
X105567760Y-79591175D01*
X105879832Y-79630599D01*
X105879846Y-79630600D01*
X106194416Y-79630600D01*
X106194429Y-79630599D01*
X106506501Y-79591175D01*
X106506510Y-79591173D01*
X106710321Y-79538843D01*
X106780149Y-79541237D01*
X106837599Y-79581003D01*
X106864429Y-79645515D01*
X106860934Y-79691038D01*
X106848631Y-79736953D01*
X106848631Y-82628100D01*
X106828946Y-82695139D01*
X106776142Y-82740894D01*
X106724631Y-82752100D01*
X106608476Y-82752100D01*
X106547928Y-82758611D01*
X106547926Y-82758611D01*
X106410926Y-82809711D01*
X106293870Y-82897339D01*
X106206242Y-83014395D01*
X106155142Y-83151395D01*
X106155142Y-83151397D01*
X106148631Y-83211945D01*
X106148631Y-84909254D01*
X106155142Y-84969802D01*
X106155142Y-84969803D01*
X106186054Y-85052681D01*
X106191038Y-85122372D01*
X106157554Y-85183694D01*
X106100629Y-85240620D01*
X106039306Y-85274106D01*
X105969614Y-85269122D01*
X105913681Y-85227251D01*
X105893172Y-85185034D01*
X105843399Y-84999279D01*
X105843395Y-84999268D01*
X105747267Y-84793121D01*
X105747263Y-84793113D01*
X105696156Y-84720126D01*
X105100093Y-85316189D01*
X105083056Y-85252607D01*
X105017230Y-85138593D01*
X104924138Y-85045501D01*
X104810124Y-84979675D01*
X104746541Y-84962637D01*
X105342603Y-84366574D01*
X105269609Y-84315463D01*
X105063462Y-84219335D01*
X105063448Y-84219330D01*
X104843741Y-84160460D01*
X104843730Y-84160458D01*
X104617133Y-84140634D01*
X104617129Y-84140634D01*
X104390531Y-84160458D01*
X104390520Y-84160460D01*
X104170813Y-84219330D01*
X104170804Y-84219334D01*
X103964647Y-84315466D01*
X103964643Y-84315468D01*
X103891657Y-84366573D01*
X103891657Y-84366574D01*
X104487721Y-84962637D01*
X104424138Y-84979675D01*
X104310124Y-85045501D01*
X104217032Y-85138593D01*
X104151206Y-85252607D01*
X104134168Y-85316189D01*
X103538105Y-84720126D01*
X103538104Y-84720126D01*
X103486999Y-84793112D01*
X103486997Y-84793116D01*
X103390865Y-84999273D01*
X103390861Y-84999282D01*
X103331991Y-85218989D01*
X103331989Y-85219000D01*
X103312165Y-85445597D01*
X103312165Y-85445602D01*
X103331989Y-85672199D01*
X103331991Y-85672210D01*
X103390861Y-85891917D01*
X103390866Y-85891931D01*
X103486994Y-86098078D01*
X103538105Y-86171072D01*
X104134168Y-85575009D01*
X104151206Y-85638593D01*
X104217032Y-85752607D01*
X104310124Y-85845699D01*
X104424138Y-85911525D01*
X104487721Y-85928562D01*
X103891657Y-86524625D01*
X103964644Y-86575732D01*
X103964652Y-86575736D01*
X104170799Y-86671864D01*
X104170813Y-86671869D01*
X104299778Y-86706425D01*
X104359439Y-86742790D01*
X104389968Y-86805637D01*
X104381673Y-86875012D01*
X104337188Y-86928890D01*
X104299779Y-86945975D01*
X104167893Y-86981314D01*
X104167881Y-86981318D01*
X103960385Y-87078075D01*
X103960383Y-87078076D01*
X103932290Y-87097747D01*
X103772831Y-87209402D01*
X103772829Y-87209403D01*
X103772826Y-87209406D01*
X103610937Y-87371295D01*
X103479607Y-87558852D01*
X103479606Y-87558854D01*
X103382849Y-87766350D01*
X103382845Y-87766361D01*
X103323588Y-87987510D01*
X103323587Y-87987518D01*
X103303633Y-88215598D01*
X103303633Y-88215601D01*
X103323587Y-88443681D01*
X103323588Y-88443689D01*
X103382845Y-88664838D01*
X103382849Y-88664849D01*
X103459972Y-88830239D01*
X103479608Y-88872349D01*
X103610933Y-89059900D01*
X103772831Y-89221798D01*
X103960382Y-89353123D01*
X104085222Y-89411336D01*
X104167881Y-89449881D01*
X104167883Y-89449881D01*
X104167888Y-89449884D01*
X104299780Y-89485224D01*
X104359440Y-89521589D01*
X104389969Y-89584436D01*
X104381674Y-89653811D01*
X104337189Y-89707689D01*
X104299780Y-89724774D01*
X104170811Y-89759331D01*
X104170804Y-89759334D01*
X103964647Y-89855466D01*
X103964643Y-89855468D01*
X103891657Y-89906573D01*
X103891657Y-89906574D01*
X104487721Y-90502637D01*
X104424138Y-90519675D01*
X104310124Y-90585501D01*
X104217032Y-90678593D01*
X104151206Y-90792607D01*
X104134168Y-90856189D01*
X103538105Y-90260126D01*
X103538104Y-90260126D01*
X103486999Y-90333112D01*
X103486997Y-90333116D01*
X103390865Y-90539273D01*
X103390861Y-90539282D01*
X103331991Y-90758989D01*
X103331989Y-90759000D01*
X103312165Y-90985597D01*
X103312165Y-90985602D01*
X103331989Y-91212199D01*
X103331991Y-91212210D01*
X103390861Y-91431917D01*
X103390866Y-91431931D01*
X103486994Y-91638078D01*
X103538105Y-91711072D01*
X104134168Y-91115009D01*
X104151206Y-91178593D01*
X104217032Y-91292607D01*
X104310124Y-91385699D01*
X104424138Y-91451525D01*
X104487721Y-91468562D01*
X103891657Y-92064625D01*
X103964644Y-92115732D01*
X103964652Y-92115736D01*
X104170799Y-92211864D01*
X104170813Y-92211869D01*
X104299779Y-92246425D01*
X104359440Y-92282790D01*
X104389969Y-92345637D01*
X104381674Y-92415012D01*
X104337189Y-92468890D01*
X104299780Y-92485975D01*
X104167893Y-92521314D01*
X104167881Y-92521318D01*
X103960385Y-92618075D01*
X103960383Y-92618076D01*
X103960382Y-92618077D01*
X103772831Y-92749402D01*
X103772829Y-92749403D01*
X103772826Y-92749406D01*
X103610937Y-92911295D01*
X103479607Y-93098852D01*
X103479606Y-93098854D01*
X103382849Y-93306350D01*
X103382845Y-93306361D01*
X103323588Y-93527510D01*
X103323587Y-93527518D01*
X103303633Y-93755598D01*
X103303633Y-93755601D01*
X103323587Y-93983681D01*
X103323589Y-93983692D01*
X103348360Y-94076140D01*
X103346697Y-94145990D01*
X103316266Y-94195914D01*
X102789480Y-94722701D01*
X102789478Y-94722704D01*
X102709367Y-94861458D01*
X102709367Y-94861459D01*
X102697505Y-94905724D01*
X102697506Y-94905725D01*
X102667900Y-95016218D01*
X102667900Y-95016220D01*
X102667900Y-99724311D01*
X102673402Y-99744843D01*
X102709368Y-99879073D01*
X102789478Y-100017827D01*
X102789480Y-100017829D01*
X103714261Y-100942610D01*
X103747746Y-101003933D01*
X103742762Y-101073625D01*
X103714261Y-101117972D01*
X103610937Y-101221295D01*
X103610934Y-101221298D01*
X103610933Y-101221300D01*
X103547526Y-101311854D01*
X103479607Y-101408852D01*
X103479606Y-101408854D01*
X103382849Y-101616350D01*
X103382845Y-101616361D01*
X103323588Y-101837510D01*
X103323587Y-101837518D01*
X103303633Y-102065598D01*
X103303633Y-102065601D01*
X103323587Y-102293681D01*
X103323588Y-102293689D01*
X103382845Y-102514838D01*
X103382849Y-102514849D01*
X103463936Y-102688741D01*
X103474428Y-102757818D01*
X103445908Y-102821602D01*
X103387431Y-102859841D01*
X103383665Y-102860915D01*
X103376526Y-102862829D01*
X103376519Y-102862830D01*
X103376508Y-102862834D01*
X103299127Y-102883568D01*
X103299125Y-102883568D01*
X103299125Y-102883569D01*
X103160373Y-102963678D01*
X103160370Y-102963680D01*
X100383080Y-105740970D01*
X100383075Y-105740976D01*
X100307087Y-105872592D01*
X100256520Y-105920808D01*
X100187913Y-105934030D01*
X100123048Y-105908062D01*
X100082520Y-105851148D01*
X100075700Y-105810592D01*
X100075700Y-74240900D01*
X100095385Y-74173861D01*
X100148189Y-74128106D01*
X100199700Y-74116900D01*
X122475572Y-74116900D01*
X122452211Y-75155661D01*
G37*
%TD.AperFunction*%
%TA.AperFunction,Conductor*%
G36*
X106114397Y-100893463D02*
G01*
X106170331Y-100935334D01*
X106190839Y-100977551D01*
X106230862Y-101126919D01*
X106230866Y-101126931D01*
X106302568Y-101280696D01*
X106313060Y-101349773D01*
X106284540Y-101413557D01*
X106226063Y-101451796D01*
X106190186Y-101457100D01*
X105852989Y-101457100D01*
X105785950Y-101437415D01*
X105751415Y-101404224D01*
X105686736Y-101311854D01*
X105664408Y-101245648D01*
X105681418Y-101177881D01*
X105726308Y-101133344D01*
X105834427Y-101070922D01*
X105983388Y-100921960D01*
X106044705Y-100888479D01*
X106114397Y-100893463D01*
G37*
%TD.AperFunction*%
%TA.AperFunction,Conductor*%
G36*
X106108938Y-87055923D02*
G01*
X106164871Y-87097795D01*
X106185379Y-87140011D01*
X106222845Y-87279838D01*
X106222849Y-87279849D01*
X106292938Y-87430155D01*
X106319608Y-87487349D01*
X106450933Y-87674900D01*
X106612831Y-87836798D01*
X106800382Y-87968123D01*
X106902796Y-88015879D01*
X107007881Y-88064881D01*
X107007883Y-88064881D01*
X107007888Y-88064884D01*
X107007892Y-88064885D01*
X107123361Y-88095825D01*
X107183021Y-88132190D01*
X107213550Y-88195037D01*
X107205255Y-88264413D01*
X107160770Y-88318291D01*
X107123361Y-88335375D01*
X107007892Y-88366314D01*
X107007881Y-88366318D01*
X106800385Y-88463075D01*
X106800383Y-88463076D01*
X106800382Y-88463077D01*
X106612831Y-88594402D01*
X106612829Y-88594403D01*
X106612826Y-88594406D01*
X106450937Y-88756295D01*
X106319607Y-88943852D01*
X106319606Y-88943854D01*
X106222849Y-89151350D01*
X106222845Y-89151361D01*
X106163588Y-89372510D01*
X106163587Y-89372518D01*
X106143633Y-89600598D01*
X106143633Y-89600600D01*
X106163587Y-89828681D01*
X106163588Y-89828689D01*
X106222845Y-90049838D01*
X106222849Y-90049849D01*
X106319606Y-90257345D01*
X106319608Y-90257349D01*
X106450933Y-90444900D01*
X106612831Y-90606798D01*
X106800382Y-90738123D01*
X106882781Y-90776546D01*
X107007881Y-90834881D01*
X107007883Y-90834881D01*
X107007888Y-90834884D01*
X107007892Y-90834885D01*
X107123361Y-90865825D01*
X107183021Y-90902190D01*
X107213550Y-90965037D01*
X107205255Y-91034413D01*
X107160770Y-91088291D01*
X107123361Y-91105375D01*
X107007892Y-91136314D01*
X107007881Y-91136318D01*
X106800385Y-91233075D01*
X106800383Y-91233076D01*
X106729987Y-91282367D01*
X106612831Y-91364402D01*
X106612829Y-91364403D01*
X106612826Y-91364406D01*
X106450937Y-91526295D01*
X106450934Y-91526298D01*
X106450933Y-91526300D01*
X106406767Y-91589376D01*
X106319607Y-91713852D01*
X106319606Y-91713854D01*
X106222849Y-91921350D01*
X106222845Y-91921361D01*
X106163588Y-92142510D01*
X106163587Y-92142518D01*
X106143633Y-92370598D01*
X106143633Y-92370601D01*
X106163587Y-92598681D01*
X106163588Y-92598689D01*
X106222845Y-92819838D01*
X106222849Y-92819849D01*
X106271458Y-92924091D01*
X106319608Y-93027349D01*
X106450933Y-93214900D01*
X106612831Y-93376798D01*
X106800382Y-93508123D01*
X106925222Y-93566336D01*
X107007881Y-93604881D01*
X107007883Y-93604881D01*
X107007888Y-93604884D01*
X107007892Y-93604885D01*
X107123361Y-93635825D01*
X107183021Y-93672190D01*
X107213550Y-93735037D01*
X107205255Y-93804413D01*
X107160770Y-93858291D01*
X107123361Y-93875375D01*
X107007892Y-93906314D01*
X107007881Y-93906318D01*
X106800385Y-94003075D01*
X106800383Y-94003076D01*
X106800382Y-94003077D01*
X106612831Y-94134402D01*
X106612829Y-94134403D01*
X106612826Y-94134406D01*
X106450937Y-94296295D01*
X106319607Y-94483852D01*
X106319606Y-94483854D01*
X106222849Y-94691350D01*
X106222845Y-94691361D01*
X106163588Y-94912510D01*
X106163587Y-94912518D01*
X106143633Y-95140598D01*
X106143633Y-95140601D01*
X106163587Y-95368681D01*
X106163588Y-95368689D01*
X106222845Y-95589838D01*
X106222849Y-95589849D01*
X106319499Y-95797115D01*
X106319608Y-95797349D01*
X106372664Y-95873121D01*
X106414323Y-95932615D01*
X106436650Y-95998821D01*
X106419640Y-96066589D01*
X106400429Y-96091420D01*
X106113681Y-96378167D01*
X106052358Y-96411652D01*
X105982666Y-96406668D01*
X105926733Y-96364796D01*
X105903607Y-96304254D01*
X105903211Y-96304324D01*
X105902847Y-96302264D01*
X105902471Y-96301278D01*
X105902271Y-96298996D01*
X105902270Y-96298989D01*
X105843400Y-96079282D01*
X105843395Y-96079268D01*
X105747267Y-95873121D01*
X105747263Y-95873113D01*
X105696156Y-95800126D01*
X105100093Y-96396188D01*
X105083056Y-96332607D01*
X105017230Y-96218593D01*
X104924138Y-96125501D01*
X104810124Y-96059675D01*
X104746540Y-96042637D01*
X105342603Y-95446574D01*
X105269609Y-95395463D01*
X105063462Y-95299335D01*
X105063451Y-95299331D01*
X104934481Y-95264774D01*
X104874821Y-95228409D01*
X104844292Y-95165562D01*
X104852587Y-95096186D01*
X104897072Y-95042308D01*
X104934478Y-95025225D01*
X105066374Y-94989884D01*
X105273880Y-94893123D01*
X105461431Y-94761798D01*
X105623329Y-94599900D01*
X105754654Y-94412349D01*
X105851415Y-94204843D01*
X105910674Y-93983687D01*
X105930629Y-93755600D01*
X105910674Y-93527513D01*
X105851415Y-93306357D01*
X105754654Y-93098851D01*
X105623329Y-92911300D01*
X105461431Y-92749402D01*
X105273880Y-92618077D01*
X105273876Y-92618075D01*
X105066380Y-92521318D01*
X105066368Y-92521314D01*
X104934481Y-92485975D01*
X104874821Y-92449610D01*
X104844292Y-92386763D01*
X104852587Y-92317387D01*
X104897072Y-92263509D01*
X104934482Y-92246425D01*
X105063448Y-92211869D01*
X105063462Y-92211864D01*
X105269609Y-92115736D01*
X105342602Y-92064624D01*
X104746540Y-91468562D01*
X104810124Y-91451525D01*
X104924138Y-91385699D01*
X105017230Y-91292607D01*
X105083056Y-91178593D01*
X105100093Y-91115009D01*
X105696155Y-91711071D01*
X105747267Y-91638078D01*
X105843395Y-91431931D01*
X105843400Y-91431917D01*
X105902270Y-91212210D01*
X105902272Y-91212199D01*
X105922097Y-90985602D01*
X105922097Y-90985597D01*
X105902272Y-90759000D01*
X105902270Y-90758989D01*
X105843400Y-90539282D01*
X105843395Y-90539268D01*
X105747267Y-90333121D01*
X105747263Y-90333113D01*
X105696156Y-90260126D01*
X105100093Y-90856189D01*
X105083056Y-90792607D01*
X105017230Y-90678593D01*
X104924138Y-90585501D01*
X104810124Y-90519675D01*
X104746541Y-90502637D01*
X105342603Y-89906574D01*
X105269609Y-89855463D01*
X105063462Y-89759335D01*
X105063451Y-89759331D01*
X104934481Y-89724774D01*
X104874821Y-89688409D01*
X104844292Y-89625562D01*
X104852587Y-89556186D01*
X104897072Y-89502308D01*
X104934478Y-89485225D01*
X105066374Y-89449884D01*
X105273880Y-89353123D01*
X105461431Y-89221798D01*
X105623329Y-89059900D01*
X105754654Y-88872349D01*
X105851415Y-88664843D01*
X105910674Y-88443687D01*
X105930629Y-88215600D01*
X105910674Y-87987513D01*
X105851415Y-87766357D01*
X105754654Y-87558851D01*
X105710898Y-87496361D01*
X105688570Y-87430155D01*
X105705580Y-87362388D01*
X105724787Y-87337560D01*
X105977925Y-87084422D01*
X106039246Y-87050939D01*
X106108938Y-87055923D01*
G37*
%TD.AperFunction*%
%TA.AperFunction,Conductor*%
G36*
X122077135Y-91834030D02*
G01*
X122058335Y-91852830D01*
X122038730Y-91872436D01*
X121989816Y-91921350D01*
X121898256Y-92012909D01*
X121787893Y-92178078D01*
X121787888Y-92178087D01*
X121711867Y-92361619D01*
X121711865Y-92361627D01*
X121673111Y-92556455D01*
X121673111Y-95371131D01*
X121653426Y-95438170D01*
X121600622Y-95483925D01*
X121596564Y-95485692D01*
X121450299Y-95546277D01*
X121450289Y-95546282D01*
X121285119Y-95656646D01*
X121285115Y-95656649D01*
X121144649Y-95797115D01*
X121144646Y-95797119D01*
X121034282Y-95962289D01*
X121034277Y-95962298D01*
X120958250Y-96145844D01*
X120957265Y-96149092D01*
X120956288Y-96150581D01*
X120955925Y-96151459D01*
X120955758Y-96151390D01*
X120918959Y-96207526D01*
X120855143Y-96235973D01*
X120786078Y-96225403D01*
X120750929Y-96200761D01*
X120583630Y-96033462D01*
X120550145Y-95972139D01*
X120547311Y-95945781D01*
X120547311Y-95096743D01*
X120566317Y-95030771D01*
X120592010Y-94989881D01*
X120651520Y-94895172D01*
X120707973Y-94733839D01*
X120712759Y-94691361D01*
X120727110Y-94563992D01*
X120727110Y-94563985D01*
X120707974Y-94394144D01*
X120707973Y-94394139D01*
X120692066Y-94348679D01*
X120651520Y-94232806D01*
X120560582Y-94088080D01*
X120439720Y-93967218D01*
X120439718Y-93967216D01*
X120439716Y-93967215D01*
X120408263Y-93947451D01*
X120361972Y-93895116D01*
X120351325Y-93826062D01*
X120369244Y-93776484D01*
X120382367Y-93755600D01*
X120397709Y-93731183D01*
X120454162Y-93569850D01*
X120458932Y-93527513D01*
X120473299Y-93400003D01*
X120473299Y-93399996D01*
X120454163Y-93230155D01*
X120454162Y-93230150D01*
X120440033Y-93189772D01*
X120397709Y-93068817D01*
X120306771Y-92924091D01*
X120185909Y-92803229D01*
X120185908Y-92803228D01*
X120100244Y-92749402D01*
X120041183Y-92712291D01*
X120041182Y-92712290D01*
X120041181Y-92712290D01*
X120020355Y-92705003D01*
X119963580Y-92664281D01*
X119937833Y-92599328D01*
X119937311Y-92587962D01*
X119937311Y-91251765D01*
X119956317Y-91185793D01*
X120015131Y-91092192D01*
X120067465Y-91045903D01*
X120136519Y-91035255D01*
X120200367Y-91063630D01*
X120207805Y-91070485D01*
X120234091Y-91096771D01*
X120378817Y-91187709D01*
X120540150Y-91244162D01*
X120540155Y-91244163D01*
X120709996Y-91263299D01*
X120710000Y-91263299D01*
X120710004Y-91263299D01*
X120879844Y-91244163D01*
X120879847Y-91244162D01*
X120879850Y-91244162D01*
X121041183Y-91187709D01*
X121185909Y-91096771D01*
X121306771Y-90975909D01*
X121397709Y-90831183D01*
X121416827Y-90776545D01*
X121457549Y-90719770D01*
X121522501Y-90694022D01*
X121533869Y-90693500D01*
X122102785Y-90693500D01*
X122077135Y-91834030D01*
G37*
%TD.AperFunction*%
%TA.AperFunction,Conductor*%
G36*
X110933952Y-89856841D02*
G01*
X110989885Y-89898713D01*
X111014302Y-89964177D01*
X111014618Y-89973023D01*
X111014618Y-90671201D01*
X110994933Y-90738240D01*
X110978299Y-90758882D01*
X108935952Y-92801229D01*
X108874629Y-92834714D01*
X108804937Y-92829730D01*
X108749004Y-92787858D01*
X108724587Y-92722394D01*
X108728496Y-92681454D01*
X108750674Y-92598687D01*
X108770629Y-92370600D01*
X108769843Y-92361620D01*
X108753786Y-92178085D01*
X108750674Y-92142513D01*
X108725900Y-92050057D01*
X108727563Y-91980210D01*
X108757992Y-91930286D01*
X110802939Y-89885340D01*
X110864260Y-89851857D01*
X110933952Y-89856841D01*
G37*
%TD.AperFunction*%
%TA.AperFunction,Conductor*%
G36*
X110004914Y-88015879D02*
G01*
X110060847Y-88057751D01*
X110085264Y-88123215D01*
X110085580Y-88132061D01*
X110085580Y-88830239D01*
X110065895Y-88897278D01*
X110049261Y-88917920D01*
X108935952Y-90031229D01*
X108874629Y-90064714D01*
X108804937Y-90059730D01*
X108749004Y-90017858D01*
X108724587Y-89952394D01*
X108728496Y-89911454D01*
X108730700Y-89903229D01*
X108750674Y-89828687D01*
X108770629Y-89600600D01*
X108763716Y-89521589D01*
X108750674Y-89372514D01*
X108750673Y-89372510D01*
X108725900Y-89280057D01*
X108727563Y-89210210D01*
X108757992Y-89160286D01*
X109873900Y-88044378D01*
X109935222Y-88010895D01*
X110004914Y-88015879D01*
G37*
%TD.AperFunction*%
%TA.AperFunction,Conductor*%
G36*
X109605394Y-85794668D02*
G01*
X109661327Y-85836540D01*
X109685744Y-85902004D01*
X109686060Y-85910850D01*
X109686060Y-86459759D01*
X109666375Y-86526798D01*
X109649741Y-86547440D01*
X108935952Y-87261229D01*
X108874629Y-87294714D01*
X108804937Y-87289730D01*
X108749004Y-87247858D01*
X108724587Y-87182394D01*
X108728496Y-87141454D01*
X108728883Y-87140011D01*
X108750674Y-87058687D01*
X108770629Y-86830600D01*
X108751237Y-86608950D01*
X108765004Y-86540452D01*
X108787081Y-86510466D01*
X109474380Y-85823168D01*
X109535702Y-85789684D01*
X109605394Y-85794668D01*
G37*
%TD.AperFunction*%
%TA.AperFunction,Conductor*%
G36*
X117674828Y-80079385D02*
G01*
X117695470Y-80096019D01*
X117759637Y-80160186D01*
X117793122Y-80221509D01*
X117795176Y-80233981D01*
X117795836Y-80239844D01*
X117852290Y-80401182D01*
X117943228Y-80545908D01*
X118064091Y-80666771D01*
X118151837Y-80721906D01*
X118198128Y-80774241D01*
X118208776Y-80843294D01*
X118180401Y-80907143D01*
X118122011Y-80945515D01*
X118085865Y-80950900D01*
X114582451Y-80950900D01*
X114515412Y-80931215D01*
X114469657Y-80878411D01*
X114459231Y-80813017D01*
X114475299Y-80670403D01*
X114475299Y-80670396D01*
X114456163Y-80500555D01*
X114456162Y-80500550D01*
X114423959Y-80408519D01*
X114399709Y-80339217D01*
X114343444Y-80249672D01*
X114324444Y-80182436D01*
X114344812Y-80115600D01*
X114398079Y-80070386D01*
X114448438Y-80059700D01*
X117607789Y-80059700D01*
X117674828Y-80079385D01*
G37*
%TD.AperFunction*%
%TA.AperFunction,Conductor*%
G36*
X113233004Y-79672305D02*
G01*
X113328817Y-79732509D01*
X113377818Y-79749655D01*
X113434594Y-79790376D01*
X113460342Y-79855329D01*
X113446886Y-79923891D01*
X113398499Y-79974294D01*
X113387027Y-79979534D01*
X113387092Y-79979668D01*
X113380822Y-79982687D01*
X113301071Y-80032799D01*
X113286086Y-80042215D01*
X113285005Y-80042894D01*
X113219033Y-80061900D01*
X112696417Y-80061900D01*
X112629378Y-80042215D01*
X112583623Y-79989411D01*
X112573679Y-79920253D01*
X112602704Y-79856697D01*
X112608736Y-79850219D01*
X112769336Y-79689619D01*
X112830659Y-79656134D01*
X112857017Y-79653300D01*
X113167033Y-79653300D01*
X113233004Y-79672305D01*
G37*
%TD.AperFunction*%
%TD*%
%TA.AperFunction,Conductor*%
%TO.N,GND*%
G36*
X125640000Y-112380000D02*
G01*
X118026743Y-112295875D01*
X118061109Y-112241183D01*
X118117562Y-112079850D01*
X118131946Y-111952185D01*
X118136699Y-111910003D01*
X118136699Y-111909996D01*
X118117563Y-111740155D01*
X118117562Y-111740150D01*
X118061109Y-111578817D01*
X117970171Y-111434091D01*
X117849309Y-111313229D01*
X117849308Y-111313228D01*
X117704581Y-111222290D01*
X117638586Y-111199197D01*
X117591861Y-111169837D01*
X113329986Y-106907962D01*
X113820000Y-99650000D01*
X121724464Y-99291026D01*
X121789777Y-99328735D01*
X121795902Y-99331272D01*
X121836132Y-99358153D01*
X122637627Y-100159648D01*
X122671112Y-100220971D01*
X122666988Y-100288282D01*
X122655837Y-100320150D01*
X122655837Y-100320151D01*
X122636701Y-100489996D01*
X122636701Y-100490003D01*
X122655836Y-100659844D01*
X122655837Y-100659849D01*
X122712291Y-100821183D01*
X122803229Y-100965909D01*
X122924091Y-101086771D01*
X123068817Y-101177709D01*
X123230150Y-101234162D01*
X123230155Y-101234163D01*
X123386383Y-101251765D01*
X123450797Y-101278831D01*
X123490352Y-101336426D01*
X123496500Y-101374985D01*
X123496500Y-104983631D01*
X123477494Y-105049603D01*
X123420916Y-105139645D01*
X123364462Y-105300980D01*
X123364461Y-105300985D01*
X123345326Y-105470826D01*
X123345326Y-105470833D01*
X123364461Y-105640674D01*
X123364462Y-105640679D01*
X123420916Y-105802013D01*
X123511854Y-105946739D01*
X123632716Y-106067601D01*
X123777442Y-106158539D01*
X123938775Y-106214992D01*
X123938780Y-106214993D01*
X124108621Y-106234129D01*
X124108625Y-106234129D01*
X124108629Y-106234129D01*
X124278469Y-106214993D01*
X124278472Y-106214992D01*
X124278475Y-106214992D01*
X124439808Y-106158539D01*
X124584534Y-106067601D01*
X124705396Y-105946739D01*
X124796334Y-105802013D01*
X124852787Y-105640680D01*
X124871924Y-105470830D01*
X124852787Y-105300980D01*
X124796334Y-105139647D01*
X124705396Y-104994921D01*
X124699819Y-104989344D01*
X124666334Y-104928021D01*
X124663500Y-104901663D01*
X124663500Y-100205036D01*
X124663500Y-100205034D01*
X124651116Y-100158817D01*
X124623736Y-100056631D01*
X124546916Y-99923576D01*
X123819234Y-99195893D01*
X125050000Y-99140000D01*
X125640000Y-112380000D01*
G37*
%TD.AperFunction*%
%TA.AperFunction,Conductor*%
G36*
X116579314Y-111878388D02*
G01*
X116612799Y-111939711D01*
X116614853Y-111952185D01*
X116629236Y-112079845D01*
X116629237Y-112079849D01*
X116685691Y-112241184D01*
X116710920Y-112281336D01*
X112970000Y-112240000D01*
X113221137Y-108520211D01*
X116579314Y-111878388D01*
G37*
%TD.AperFunction*%
%TD*%
M02*
