%TF.GenerationSoftware,KiCad,Pcbnew,8.0.4-8.0.4-0~ubuntu22.04.1*%
%TF.CreationDate,2024-07-18T12:58:38-06:00*%
%TF.ProjectId,Centronics_50Pin,43656e74-726f-46e6-9963-735f35305069,1*%
%TF.SameCoordinates,Original*%
%TF.FileFunction,Soldermask,Top*%
%TF.FilePolarity,Negative*%
%FSLAX46Y46*%
G04 Gerber Fmt 4.6, Leading zero omitted, Abs format (unit mm)*
G04 Created by KiCad (PCBNEW 8.0.4-8.0.4-0~ubuntu22.04.1) date 2024-07-18 12:58:38*
%MOMM*%
%LPD*%
G01*
G04 APERTURE LIST*
G04 Aperture macros list*
%AMRoundRect*
0 Rectangle with rounded corners*
0 $1 Rounding radius*
0 $2 $3 $4 $5 $6 $7 $8 $9 X,Y pos of 4 corners*
0 Add a 4 corners polygon primitive as box body*
4,1,4,$2,$3,$4,$5,$6,$7,$8,$9,$2,$3,0*
0 Add four circle primitives for the rounded corners*
1,1,$1+$1,$2,$3*
1,1,$1+$1,$4,$5*
1,1,$1+$1,$6,$7*
1,1,$1+$1,$8,$9*
0 Add four rect primitives between the rounded corners*
20,1,$1+$1,$2,$3,$4,$5,0*
20,1,$1+$1,$4,$5,$6,$7,0*
20,1,$1+$1,$6,$7,$8,$9,0*
20,1,$1+$1,$8,$9,$2,$3,0*%
G04 Aperture macros list end*
%ADD10RoundRect,0.250001X0.462499X0.624999X-0.462499X0.624999X-0.462499X-0.624999X0.462499X-0.624999X0*%
%ADD11R,1.500000X2.000000*%
%ADD12R,3.800000X2.000000*%
%ADD13RoundRect,0.412500X-0.412500X-0.412500X0.412500X-0.412500X0.412500X0.412500X-0.412500X0.412500X0*%
%ADD14C,1.650000*%
%ADD15RoundRect,0.225000X0.225000X0.250000X-0.225000X0.250000X-0.225000X-0.250000X0.225000X-0.250000X0*%
%ADD16RoundRect,0.225000X-0.250000X0.225000X-0.250000X-0.225000X0.250000X-0.225000X0.250000X0.225000X0*%
%ADD17RoundRect,0.225000X-0.225000X-0.250000X0.225000X-0.250000X0.225000X0.250000X-0.225000X0.250000X0*%
%ADD18R,1.800000X2.500000*%
%ADD19RoundRect,0.160000X0.197500X0.160000X-0.197500X0.160000X-0.197500X-0.160000X0.197500X-0.160000X0*%
%ADD20RoundRect,0.237500X0.250000X0.237500X-0.250000X0.237500X-0.250000X-0.237500X0.250000X-0.237500X0*%
%ADD21RoundRect,0.237500X-0.287500X-0.237500X0.287500X-0.237500X0.287500X0.237500X-0.287500X0.237500X0*%
%ADD22RoundRect,0.250000X0.337500X0.475000X-0.337500X0.475000X-0.337500X-0.475000X0.337500X-0.475000X0*%
%ADD23RoundRect,0.237500X-0.237500X0.250000X-0.237500X-0.250000X0.237500X-0.250000X0.237500X0.250000X0*%
%ADD24RoundRect,0.250000X-1.000000X-0.650000X1.000000X-0.650000X1.000000X0.650000X-1.000000X0.650000X0*%
%ADD25RoundRect,0.200000X-0.275000X0.200000X-0.275000X-0.200000X0.275000X-0.200000X0.275000X0.200000X0*%
%ADD26RoundRect,0.100000X-0.637500X-0.100000X0.637500X-0.100000X0.637500X0.100000X-0.637500X0.100000X0*%
%ADD27R,1.700000X1.700000*%
%ADD28O,1.700000X1.700000*%
%ADD29RoundRect,0.150000X0.825000X0.150000X-0.825000X0.150000X-0.825000X-0.150000X0.825000X-0.150000X0*%
%ADD30RoundRect,0.160000X-0.160000X0.197500X-0.160000X-0.197500X0.160000X-0.197500X0.160000X0.197500X0*%
%ADD31RoundRect,0.125000X0.125000X0.415000X-0.125000X0.415000X-0.125000X-0.415000X0.125000X-0.415000X0*%
%ADD32RoundRect,0.262500X0.262500X0.337500X-0.262500X0.337500X-0.262500X-0.337500X0.262500X-0.337500X0*%
%ADD33RoundRect,0.150000X-0.587500X-0.150000X0.587500X-0.150000X0.587500X0.150000X-0.587500X0.150000X0*%
%ADD34RoundRect,0.250000X0.325000X0.450000X-0.325000X0.450000X-0.325000X-0.450000X0.325000X-0.450000X0*%
%ADD35RoundRect,0.237500X-0.250000X-0.237500X0.250000X-0.237500X0.250000X0.237500X-0.250000X0.237500X0*%
%ADD36C,3.600000*%
%ADD37C,1.540000*%
%ADD38RoundRect,0.250000X-0.450000X0.262500X-0.450000X-0.262500X0.450000X-0.262500X0.450000X0.262500X0*%
%ADD39RoundRect,0.250000X-0.450000X0.325000X-0.450000X-0.325000X0.450000X-0.325000X0.450000X0.325000X0*%
%ADD40RoundRect,0.225000X0.250000X-0.225000X0.250000X0.225000X-0.250000X0.225000X-0.250000X-0.225000X0*%
G04 APERTURE END LIST*
D10*
%TO.C,C3*%
X108997500Y-92640000D03*
X106022500Y-92640000D03*
%TD*%
%TO.C,C4*%
X108160000Y-107640000D03*
X105185000Y-107640000D03*
%TD*%
D11*
%TO.C,U3*%
X113769200Y-97536000D03*
X111469200Y-97536000D03*
D12*
X111469200Y-103836000D03*
D11*
X109169200Y-97536000D03*
%TD*%
D13*
%TO.C,RP1*%
X128987200Y-78406000D03*
D14*
X128987200Y-80946000D03*
X128987200Y-83486000D03*
X128987200Y-86026000D03*
X128987200Y-88566000D03*
X128987200Y-91106000D03*
X128987200Y-93646000D03*
X128987200Y-96186000D03*
X128987200Y-98726000D03*
X128987200Y-101266000D03*
X128987200Y-103806000D03*
X128987200Y-106346000D03*
X128987200Y-108886000D03*
X128987200Y-111426000D03*
X128987200Y-113966000D03*
X128987200Y-116506000D03*
X128987200Y-119046000D03*
X128987200Y-121586000D03*
X128987200Y-124126000D03*
X128987200Y-126666000D03*
X146767200Y-126666000D03*
X146767200Y-124126000D03*
X146767200Y-121586000D03*
X146767200Y-119046000D03*
X146767200Y-116506000D03*
X146767200Y-113966000D03*
X146767200Y-111426000D03*
X146767200Y-108886000D03*
X146767200Y-106346000D03*
X146767200Y-103806000D03*
X146767200Y-101266000D03*
X146767200Y-98726000D03*
X146767200Y-96186000D03*
X146767200Y-93646000D03*
X146767200Y-91106000D03*
X146767200Y-88566000D03*
X146767200Y-86026000D03*
X146767200Y-83486000D03*
X146767200Y-80946000D03*
X146767200Y-78406000D03*
%TD*%
D15*
%TO.C,C2*%
X109203980Y-94943880D03*
X107653980Y-94943880D03*
%TD*%
%TO.C,C5*%
X106980000Y-104350000D03*
X105430000Y-104350000D03*
%TD*%
D16*
%TO.C,C6*%
X109829600Y-68525200D03*
X109829600Y-70075200D03*
%TD*%
D17*
%TO.C,C12*%
X139295600Y-119763800D03*
X140845600Y-119763800D03*
%TD*%
D18*
%TO.C,D1*%
X106780000Y-71650000D03*
X106780000Y-67650000D03*
%TD*%
D19*
%TO.C,R42*%
X120410000Y-75980000D03*
X119215000Y-75980000D03*
%TD*%
D20*
%TO.C,R39*%
X107846500Y-80010000D03*
X106021500Y-80010000D03*
%TD*%
D19*
%TO.C,R16*%
X120460000Y-83320000D03*
X119265000Y-83320000D03*
%TD*%
D20*
%TO.C,R4*%
X107490900Y-113842800D03*
X105665900Y-113842800D03*
%TD*%
%TO.C,R33*%
X107848400Y-84836000D03*
X106023400Y-84836000D03*
%TD*%
D21*
%TO.C,D2*%
X145954400Y-130228600D03*
X147704400Y-130228600D03*
%TD*%
D20*
%TO.C,R36*%
X107846500Y-75133200D03*
X106021500Y-75133200D03*
%TD*%
D22*
%TO.C,C7*%
X135815900Y-113000800D03*
X133740900Y-113000800D03*
%TD*%
D23*
%TO.C,R56*%
X106863180Y-96876180D03*
X106863180Y-98701180D03*
%TD*%
D20*
%TO.C,R5*%
X107490900Y-115468400D03*
X105665900Y-115468400D03*
%TD*%
%TO.C,R35*%
X107848400Y-88087200D03*
X106023400Y-88087200D03*
%TD*%
D24*
%TO.C,D4*%
X138326000Y-80182800D03*
X142326000Y-80182800D03*
%TD*%
D20*
%TO.C,R1*%
X107848400Y-83210400D03*
X106023400Y-83210400D03*
%TD*%
D17*
%TO.C,C8*%
X119392500Y-74350000D03*
X120942500Y-74350000D03*
%TD*%
D20*
%TO.C,R38*%
X107846500Y-78384400D03*
X106021500Y-78384400D03*
%TD*%
D25*
%TO.C,R20*%
X113750000Y-93850000D03*
X113750000Y-95500000D03*
%TD*%
D19*
%TO.C,R17*%
X120410000Y-79383600D03*
X119215000Y-79383600D03*
%TD*%
D20*
%TO.C,R9*%
X107438200Y-118770400D03*
X105613200Y-118770400D03*
%TD*%
D19*
%TO.C,R13*%
X120472100Y-86774400D03*
X119277100Y-86774400D03*
%TD*%
D21*
%TO.C,D3*%
X105175380Y-100379480D03*
X106925380Y-100379480D03*
%TD*%
D20*
%TO.C,R40*%
X107846500Y-81584800D03*
X106021500Y-81584800D03*
%TD*%
D26*
%TO.C,U4*%
X111367500Y-74375000D03*
X111367500Y-75025000D03*
X111367500Y-75675000D03*
X111367500Y-76325000D03*
X111367500Y-76975000D03*
X111367500Y-77625000D03*
X111367500Y-78275000D03*
X111367500Y-78925000D03*
X111367500Y-79575000D03*
X111367500Y-80225000D03*
X117092500Y-80225000D03*
X117092500Y-79575000D03*
X117092500Y-78925000D03*
X117092500Y-78275000D03*
X117092500Y-77625000D03*
X117092500Y-76975000D03*
X117092500Y-76325000D03*
X117092500Y-75675000D03*
X117092500Y-75025000D03*
X117092500Y-74375000D03*
%TD*%
D19*
%TO.C,R18*%
X120410000Y-78266000D03*
X119215000Y-78266000D03*
%TD*%
D17*
%TO.C,C15*%
X123448300Y-123355200D03*
X124998300Y-123355200D03*
%TD*%
D15*
%TO.C,C14*%
X124871800Y-117201600D03*
X123321800Y-117201600D03*
%TD*%
D27*
%TO.C,J2*%
X146756000Y-75132800D03*
D28*
X146756000Y-72592800D03*
%TD*%
D29*
%TO.C,U8*%
X140823600Y-111070400D03*
X140823600Y-109800400D03*
X140823600Y-108530400D03*
X140823600Y-107260400D03*
X140823600Y-105990400D03*
X140823600Y-104720400D03*
X140823600Y-103450400D03*
X135873600Y-103450400D03*
X135873600Y-104720400D03*
X135873600Y-105990400D03*
X135873600Y-107260400D03*
X135873600Y-108530400D03*
X135873600Y-109800400D03*
X135873600Y-111070400D03*
%TD*%
D20*
%TO.C,R3*%
X107489000Y-112217200D03*
X105664000Y-112217200D03*
%TD*%
D19*
%TO.C,R15*%
X120446700Y-84513800D03*
X119251700Y-84513800D03*
%TD*%
D15*
%TO.C,C1*%
X137726000Y-119742800D03*
X136176000Y-119742800D03*
%TD*%
D20*
%TO.C,R7*%
X107440100Y-122072400D03*
X105615100Y-122072400D03*
%TD*%
%TO.C,R8*%
X107438200Y-120396000D03*
X105613200Y-120396000D03*
%TD*%
D30*
%TO.C,R30*%
X143465200Y-108717600D03*
X143465200Y-109912600D03*
%TD*%
D20*
%TO.C,R2*%
X107490900Y-110642400D03*
X105665900Y-110642400D03*
%TD*%
D31*
%TO.C,SD2*%
X141930400Y-128986800D03*
X140830400Y-128986800D03*
X139730400Y-128986800D03*
X138980400Y-128986800D03*
X138280400Y-128986800D03*
X137530400Y-128986800D03*
X136430400Y-128986800D03*
X135330400Y-128986800D03*
X134230400Y-128986800D03*
D32*
X143305400Y-127346800D03*
X143305400Y-122896800D03*
X132855400Y-127346800D03*
X132855400Y-122896800D03*
%TD*%
D19*
%TO.C,R12*%
X120458800Y-87968200D03*
X119263800Y-87968200D03*
%TD*%
%TO.C,R19*%
X120410000Y-77148400D03*
X119215000Y-77148400D03*
%TD*%
D17*
%TO.C,C10*%
X119380000Y-72790000D03*
X120930000Y-72790000D03*
%TD*%
D15*
%TO.C,C9*%
X124639300Y-109784800D03*
X123089300Y-109784800D03*
%TD*%
D20*
%TO.C,R10*%
X107489000Y-117094000D03*
X105664000Y-117094000D03*
%TD*%
%TO.C,R34*%
X107848400Y-86461600D03*
X106023400Y-86461600D03*
%TD*%
D33*
%TO.C,Q3*%
X139836000Y-82862800D03*
X139836000Y-84762800D03*
X141711000Y-83812800D03*
%TD*%
D26*
%TO.C,U7*%
X115087500Y-117182000D03*
X115087500Y-117832000D03*
X115087500Y-118482000D03*
X115087500Y-119132000D03*
X115087500Y-119782000D03*
X115087500Y-120432000D03*
X115087500Y-121082000D03*
X120812500Y-121082000D03*
X120812500Y-120432000D03*
X120812500Y-119782000D03*
X120812500Y-119132000D03*
X120812500Y-118482000D03*
X120812500Y-117832000D03*
X120812500Y-117182000D03*
%TD*%
D20*
%TO.C,R37*%
X107846500Y-76758800D03*
X106021500Y-76758800D03*
%TD*%
D34*
%TO.C,F2*%
X111725000Y-71930000D03*
X109675000Y-71930000D03*
%TD*%
D20*
%TO.C,R22*%
X125280000Y-120310000D03*
X123455000Y-120310000D03*
%TD*%
%TO.C,R23*%
X125142500Y-112670000D03*
X123317500Y-112670000D03*
%TD*%
D35*
%TO.C,R25*%
X113365000Y-72810000D03*
X115190000Y-72810000D03*
%TD*%
D26*
%TO.C,U5*%
X115087500Y-110070000D03*
X115087500Y-110720000D03*
X115087500Y-111370000D03*
X115087500Y-112020000D03*
X115087500Y-112670000D03*
X115087500Y-113320000D03*
X115087500Y-113970000D03*
X120812500Y-113970000D03*
X120812500Y-113320000D03*
X120812500Y-112670000D03*
X120812500Y-112020000D03*
X120812500Y-111370000D03*
X120812500Y-110720000D03*
X120812500Y-110070000D03*
%TD*%
D19*
%TO.C,R14*%
X120458800Y-85631400D03*
X119263800Y-85631400D03*
%TD*%
D26*
%TO.C,U9*%
X111367500Y-82065000D03*
X111367500Y-82715000D03*
X111367500Y-83365000D03*
X111367500Y-84015000D03*
X111367500Y-84665000D03*
X111367500Y-85315000D03*
X111367500Y-85965000D03*
X111367500Y-86615000D03*
X111367500Y-87265000D03*
X111367500Y-87915000D03*
X117092500Y-87915000D03*
X117092500Y-87265000D03*
X117092500Y-86615000D03*
X117092500Y-85965000D03*
X117092500Y-85315000D03*
X117092500Y-84665000D03*
X117092500Y-84015000D03*
X117092500Y-83365000D03*
X117092500Y-82715000D03*
X117092500Y-82065000D03*
%TD*%
D36*
%TO.C,U10*%
X99511800Y-138369400D03*
X99511800Y-63519400D03*
D37*
X101801800Y-75024400D03*
X101801800Y-77184400D03*
X101801800Y-79344400D03*
X101801800Y-81504400D03*
X101801800Y-83664400D03*
X101801800Y-85824400D03*
X101801800Y-87984400D03*
X101801800Y-90144400D03*
X101801800Y-92304400D03*
X101801800Y-94464400D03*
X101801800Y-96624400D03*
X101801800Y-98784400D03*
X101801800Y-100944400D03*
X101801800Y-103104400D03*
X101801800Y-105264400D03*
X101801800Y-107424400D03*
X101801800Y-109584400D03*
X101801800Y-111744400D03*
X101801800Y-113904400D03*
X101801800Y-116064400D03*
X101801800Y-118224400D03*
X101801800Y-120384400D03*
X101801800Y-122544400D03*
X101801800Y-124704400D03*
X101801800Y-126864400D03*
X97511800Y-75024400D03*
X97511800Y-77184400D03*
X97511800Y-79344400D03*
X97511800Y-81504400D03*
X97511800Y-83664400D03*
X97511800Y-85824400D03*
X97511800Y-87984400D03*
X97511800Y-90144400D03*
X97511800Y-92304400D03*
X97511800Y-94464400D03*
X97511800Y-96624400D03*
X97511800Y-98784400D03*
X97511800Y-100944400D03*
X97511800Y-103104400D03*
X97511800Y-105264400D03*
X97511800Y-107424400D03*
X97511800Y-109584400D03*
X97511800Y-111744400D03*
X97511800Y-113904400D03*
X97511800Y-116064400D03*
X97511800Y-118224400D03*
X97511800Y-120384400D03*
X97511800Y-122544400D03*
X97511800Y-124704400D03*
X97511800Y-126864400D03*
%TD*%
D26*
%TO.C,U6*%
X115036700Y-125005200D03*
X115036700Y-125655200D03*
X115036700Y-126305200D03*
X115036700Y-126955200D03*
X115036700Y-127605200D03*
X115036700Y-128255200D03*
X115036700Y-128905200D03*
X120761700Y-128905200D03*
X120761700Y-128255200D03*
X120761700Y-127605200D03*
X120761700Y-126955200D03*
X120761700Y-126305200D03*
X120761700Y-125655200D03*
X120761700Y-125005200D03*
%TD*%
D20*
%TO.C,R6*%
X107440100Y-123748800D03*
X105615100Y-123748800D03*
%TD*%
D17*
%TO.C,C11*%
X119130000Y-81250000D03*
X120680000Y-81250000D03*
%TD*%
D25*
%TO.C,R11*%
X137893500Y-82982800D03*
X137893500Y-84632800D03*
%TD*%
D15*
%TO.C,C13*%
X125010000Y-124880000D03*
X123460000Y-124880000D03*
%TD*%
D38*
%TO.C,R21*%
X116160000Y-97047500D03*
X116160000Y-98872500D03*
%TD*%
D35*
%TO.C,R29*%
X118256700Y-123043600D03*
X120081700Y-123043600D03*
%TD*%
D39*
%TO.C,F1*%
X135563500Y-77837800D03*
X135563500Y-79887800D03*
%TD*%
D40*
%TO.C,C16*%
X115360000Y-95445000D03*
X115360000Y-93895000D03*
%TD*%
D23*
%TO.C,R28*%
X112050000Y-121580000D03*
X112050000Y-123405000D03*
%TD*%
M02*
