%TF.GenerationSoftware,KiCad,Pcbnew,8.0.4-8.0.4-0~ubuntu22.04.1*%
%TF.CreationDate,2024-07-18T12:58:38-06:00*%
%TF.ProjectId,Centronics_50Pin,43656e74-726f-46e6-9963-735f35305069,1*%
%TF.SameCoordinates,Original*%
%TF.FileFunction,Soldermask,Bot*%
%TF.FilePolarity,Negative*%
%FSLAX46Y46*%
G04 Gerber Fmt 4.6, Leading zero omitted, Abs format (unit mm)*
G04 Created by KiCad (PCBNEW 8.0.4-8.0.4-0~ubuntu22.04.1) date 2024-07-18 12:58:38*
%MOMM*%
%LPD*%
G01*
G04 APERTURE LIST*
G04 Aperture macros list*
%AMRoundRect*
0 Rectangle with rounded corners*
0 $1 Rounding radius*
0 $2 $3 $4 $5 $6 $7 $8 $9 X,Y pos of 4 corners*
0 Add a 4 corners polygon primitive as box body*
4,1,4,$2,$3,$4,$5,$6,$7,$8,$9,$2,$3,0*
0 Add four circle primitives for the rounded corners*
1,1,$1+$1,$2,$3*
1,1,$1+$1,$4,$5*
1,1,$1+$1,$6,$7*
1,1,$1+$1,$8,$9*
0 Add four rect primitives between the rounded corners*
20,1,$1+$1,$2,$3,$4,$5,0*
20,1,$1+$1,$4,$5,$6,$7,0*
20,1,$1+$1,$6,$7,$8,$9,0*
20,1,$1+$1,$8,$9,$2,$3,0*%
G04 Aperture macros list end*
%ADD10RoundRect,0.412500X-0.412500X-0.412500X0.412500X-0.412500X0.412500X0.412500X-0.412500X0.412500X0*%
%ADD11C,1.650000*%
%ADD12R,1.700000X1.700000*%
%ADD13O,1.700000X1.700000*%
%ADD14C,3.600000*%
%ADD15C,1.540000*%
G04 APERTURE END LIST*
D10*
%TO.C,RP1*%
X128987200Y-78406000D03*
D11*
X128987200Y-80946000D03*
X128987200Y-83486000D03*
X128987200Y-86026000D03*
X128987200Y-88566000D03*
X128987200Y-91106000D03*
X128987200Y-93646000D03*
X128987200Y-96186000D03*
X128987200Y-98726000D03*
X128987200Y-101266000D03*
X128987200Y-103806000D03*
X128987200Y-106346000D03*
X128987200Y-108886000D03*
X128987200Y-111426000D03*
X128987200Y-113966000D03*
X128987200Y-116506000D03*
X128987200Y-119046000D03*
X128987200Y-121586000D03*
X128987200Y-124126000D03*
X128987200Y-126666000D03*
X146767200Y-126666000D03*
X146767200Y-124126000D03*
X146767200Y-121586000D03*
X146767200Y-119046000D03*
X146767200Y-116506000D03*
X146767200Y-113966000D03*
X146767200Y-111426000D03*
X146767200Y-108886000D03*
X146767200Y-106346000D03*
X146767200Y-103806000D03*
X146767200Y-101266000D03*
X146767200Y-98726000D03*
X146767200Y-96186000D03*
X146767200Y-93646000D03*
X146767200Y-91106000D03*
X146767200Y-88566000D03*
X146767200Y-86026000D03*
X146767200Y-83486000D03*
X146767200Y-80946000D03*
X146767200Y-78406000D03*
%TD*%
D12*
%TO.C,J2*%
X146756000Y-75132800D03*
D13*
X146756000Y-72592800D03*
%TD*%
D14*
%TO.C,U10*%
X99511800Y-138369400D03*
X99511800Y-63519400D03*
D15*
X101801800Y-75024400D03*
X101801800Y-77184400D03*
X101801800Y-79344400D03*
X101801800Y-81504400D03*
X101801800Y-83664400D03*
X101801800Y-85824400D03*
X101801800Y-87984400D03*
X101801800Y-90144400D03*
X101801800Y-92304400D03*
X101801800Y-94464400D03*
X101801800Y-96624400D03*
X101801800Y-98784400D03*
X101801800Y-100944400D03*
X101801800Y-103104400D03*
X101801800Y-105264400D03*
X101801800Y-107424400D03*
X101801800Y-109584400D03*
X101801800Y-111744400D03*
X101801800Y-113904400D03*
X101801800Y-116064400D03*
X101801800Y-118224400D03*
X101801800Y-120384400D03*
X101801800Y-122544400D03*
X101801800Y-124704400D03*
X101801800Y-126864400D03*
X97511800Y-75024400D03*
X97511800Y-77184400D03*
X97511800Y-79344400D03*
X97511800Y-81504400D03*
X97511800Y-83664400D03*
X97511800Y-85824400D03*
X97511800Y-87984400D03*
X97511800Y-90144400D03*
X97511800Y-92304400D03*
X97511800Y-94464400D03*
X97511800Y-96624400D03*
X97511800Y-98784400D03*
X97511800Y-100944400D03*
X97511800Y-103104400D03*
X97511800Y-105264400D03*
X97511800Y-107424400D03*
X97511800Y-109584400D03*
X97511800Y-111744400D03*
X97511800Y-113904400D03*
X97511800Y-116064400D03*
X97511800Y-118224400D03*
X97511800Y-120384400D03*
X97511800Y-122544400D03*
X97511800Y-124704400D03*
X97511800Y-126864400D03*
%TD*%
M02*
