G04 start of page 13 for group -4079 idx -4079 *
G04 Title: (unknown), topsilk *
G04 Creator: pcb 20140316 *
G04 CreationDate: Sun 31 Aug 2014 13:13:00 GMT UTC *
G04 For: michael *
G04 Format: Gerber/RS-274X *
G04 PCB-Dimensions (mil): 3930.00 3937.00 *
G04 PCB-Coordinate-Origin: lower left *
%MOIN*%
%FSLAX25Y25*%
%LNTOPSILK*%
%ADD183C,0.0200*%
%ADD182C,0.0080*%
%ADD181C,0.0060*%
%ADD180C,0.0100*%
%ADD179C,0.0001*%
G54D179*G36*
X130000Y284600D02*X137500D01*
Y279600D01*
X130000D01*
Y284600D01*
G37*
G36*
X238300Y284200D02*X245800D01*
Y279200D01*
X238300D01*
Y284200D01*
G37*
G36*
X130000Y270200D02*X137500D01*
Y266200D01*
X130000D01*
Y270200D01*
G37*
G36*
X238000D02*X246000D01*
Y266200D01*
X238000D01*
Y270200D01*
G37*
G36*
X74500Y372900D02*X75100Y373300D01*
X76100D01*
X76900Y372800D01*
X76800Y371700D01*
X76300Y370900D01*
X75100Y370800D01*
X74400Y371600D01*
X74500Y372900D01*
G37*
G54D180*X391000Y248700D02*X365000D01*
Y213700D01*
X391000D01*
X362500Y203700D02*X383500D01*
X363500Y193700D02*X383500D01*
X2000Y248700D02*X25000D01*
Y213700D01*
X35000Y303700D02*Y274700D01*
X72000D01*
Y295700D01*
X64000Y303700D01*
X35000D01*
X75500Y372200D02*X65000D01*
X79500D02*X89000D01*
X391000Y73700D02*X365000D01*
Y38700D01*
X391000D02*X365000D01*
X364500Y183700D02*X383500D01*
X366500Y172200D02*X369000D01*
Y146200D01*
X364500Y143700D02*X383500D01*
X365000Y133700D02*X383000D01*
X366500Y122200D02*X369000D01*
Y75200D01*
Y146200D02*X366500D01*
X341500Y172700D02*Y146700D01*
X343500D01*
X341500Y171200D02*Y181700D01*
X343500D01*
Y132700D02*X341500D01*
Y95700D01*
X343500D01*
X25000Y213700D02*X2000D01*
X307000Y198100D02*Y194700D01*
Y204700D02*Y206800D01*
X2000Y38700D02*X25000D01*
Y73700D01*
X2000D01*
X147500Y105200D02*X150000D01*
Y38200D01*
X147500D01*
X123500Y116200D02*X121500D01*
Y38200D01*
X124000D01*
G54D181*X17000Y151700D02*Y119700D01*
X100000D01*
Y151700D01*
X17000D01*
X76900Y372100D02*G75*G03X75600Y373400I-1300J0D01*G01*
X76900Y372100D02*G75*G02X75600Y370800I-1300J0D01*G01*
G75*G02X74300Y372100I0J1300D01*G01*
G75*G02X75600Y373400I1300J0D01*G01*
X76000Y375600D02*G75*G02X79300Y372300I0J-3300D01*G01*
G75*G02X75900Y368900I-3400J0D01*G01*
X170200Y177200D02*X171000D01*
Y173700D01*
X170500Y173200D02*X171000Y173700D01*
X170000Y173200D02*X170500D01*
X169500Y173700D02*X170000Y173200D01*
X169500Y174200D02*Y173700D01*
X172200Y177200D02*X174200D01*
X173200D02*Y173200D01*
X175400Y176200D02*Y173200D01*
Y176200D02*X176100Y177200D01*
X177200D01*
X177900Y176200D01*
Y173200D01*
X175400Y175200D02*X177900D01*
X181100Y177200D02*X181600Y176700D01*
X179600Y177200D02*X181100D01*
X179100Y176700D02*X179600Y177200D01*
X179100Y176700D02*Y173700D01*
X179600Y173200D01*
X181100D01*
X181600Y173700D01*
Y174700D02*Y173700D01*
X181100Y175200D02*X181600Y174700D01*
X180100Y175200D02*X181100D01*
X182800Y173700D02*X185800Y176700D01*
X189000Y177200D02*X189500Y176700D01*
X187500Y177200D02*X189000D01*
X187000Y176700D02*X187500Y177200D01*
X187000Y176700D02*Y175700D01*
X187500Y175200D01*
X189000D01*
X189500Y174700D01*
Y173700D01*
X189000Y173200D02*X189500Y173700D01*
X187500Y173200D02*X189000D01*
X187000Y173700D02*X187500Y173200D01*
X190700Y177200D02*Y175200D01*
X191200Y173200D01*
X192200Y175200D01*
X193200Y173200D01*
X193700Y175200D01*
Y177200D02*Y175200D01*
X195400Y177200D02*Y173200D01*
X196700Y177200D02*X197400Y176500D01*
Y173900D01*
X196700Y173200D02*X197400Y173900D01*
X194900Y173200D02*X196700D01*
X194900Y177200D02*X196700D01*
X111000Y180200D02*X114000D01*
X115000Y179500D01*
Y178400D01*
X114000Y177700D01*
X111000D02*X114000D01*
X113000Y180200D02*Y177700D01*
X115000Y176500D02*Y174500D01*
X114500Y174000D01*
X113500D02*X114500D01*
X113000Y174500D02*X113500Y174000D01*
X113000Y176000D02*Y174500D01*
X111000Y176000D02*X115000D01*
X113000Y175200D02*X111000Y174000D01*
Y172800D02*X115000D01*
X113000Y171300D01*
X115000Y169800D01*
X111000D02*X115000D01*
Y166100D02*Y165300D01*
X111500D02*X115000D01*
X111000Y165800D02*X111500Y165300D01*
X111000Y166300D02*Y165800D01*
X111500Y166800D02*X111000Y166300D01*
X111500Y166800D02*X112000D01*
X115000Y164100D02*Y162100D01*
X111000Y163100D02*X115000D01*
X111000Y160900D02*X114000D01*
X115000Y160200D01*
Y159100D01*
X114000Y158400D01*
X111000D02*X114000D01*
X113000Y160900D02*Y158400D01*
X115000Y155200D02*X114500Y154700D01*
X115000Y156700D02*Y155200D01*
X114500Y157200D02*X115000Y156700D01*
X111500Y157200D02*X114500D01*
X111500D02*X111000Y156700D01*
Y155200D01*
X111500Y154700D01*
X112500D01*
X113000Y155200D02*X112500Y154700D01*
X113000Y156200D02*Y155200D01*
X170700Y179200D02*X172000D01*
X170000Y179900D02*X170700Y179200D01*
X170000Y182500D02*Y179900D01*
Y182500D02*X170700Y183200D01*
X172000D01*
X173200Y182700D02*Y179700D01*
Y182700D02*X173700Y183200D01*
X174700D01*
X175200Y182700D01*
Y179700D01*
X174700Y179200D02*X175200Y179700D01*
X173700Y179200D02*X174700D01*
X173200Y179700D02*X173700Y179200D01*
X176400Y183200D02*X178400D01*
X178900Y182700D01*
Y181700D01*
X178400Y181200D02*X178900Y181700D01*
X176900Y181200D02*X178400D01*
X176900Y183200D02*Y179200D01*
X177700Y181200D02*X178900Y179200D01*
X180100Y183200D02*X182100D01*
X181100D02*Y179200D01*
X183300Y181400D02*X184800D01*
X183300Y179200D02*X185300D01*
X183300Y183200D02*Y179200D01*
Y183200D02*X185300D01*
X186500Y179200D02*X189000Y183200D01*
X186500D02*X189000Y179200D01*
X185700Y159600D02*X186000Y159300D01*
X184800Y159600D02*X185700D01*
X184500Y159300D02*X184800Y159600D01*
X184500Y159300D02*Y158700D01*
X184800Y158400D01*
X185700D01*
X186000Y158100D01*
Y157500D01*
X185700Y157200D02*X186000Y157500D01*
X184800Y157200D02*X185700D01*
X184500Y157500D02*X184800Y157200D01*
X186720Y159600D02*Y158400D01*
X187020Y157200D01*
X187620Y158400D01*
X188220Y157200D01*
X188520Y158400D01*
Y159600D02*Y158400D01*
X189540Y159600D02*Y157200D01*
X190320Y159600D02*X190740Y159180D01*
Y157620D01*
X190320Y157200D02*X190740Y157620D01*
X189240Y157200D02*X190320D01*
X189240Y159600D02*X190320D01*
X191460D02*X192060D01*
X191760D02*Y157200D01*
X191460D02*X192060D01*
X192780Y159300D02*Y157500D01*
Y159300D02*X193080Y159600D01*
X193680D01*
X193980Y159300D01*
Y157500D01*
X193680Y157200D02*X193980Y157500D01*
X193080Y157200D02*X193680D01*
X192780Y157500D02*X193080Y157200D01*
X222600Y168500D02*Y163700D01*
X222000Y168500D02*X224400D01*
X225000Y167900D01*
Y166700D01*
X224400Y166100D02*X225000Y166700D01*
X222600Y166100D02*X224400D01*
X228840Y168500D02*X229440Y167900D01*
X227040Y168500D02*X228840D01*
X226440Y167900D02*X227040Y168500D01*
X226440Y167900D02*Y166700D01*
X227040Y166100D01*
X228840D01*
X229440Y165500D01*
Y164300D01*
X228840Y163700D02*X229440Y164300D01*
X227040Y163700D02*X228840D01*
X226440Y164300D02*X227040Y163700D01*
X230880Y165500D02*Y164300D01*
Y165500D02*X231480Y166100D01*
X232680D01*
X233280Y165500D01*
Y164300D01*
X232680Y163700D02*X233280Y164300D01*
X231480Y163700D02*X232680D01*
X230880Y164300D02*X231480Y163700D01*
X235560D02*X237120D01*
X234720Y164540D02*X235560Y163700D01*
X234720Y167660D02*Y164540D01*
Y167660D02*X235560Y168500D01*
X237120D01*
X240720D02*X243120D01*
X240720D02*Y166100D01*
X241320Y166700D01*
X242520D01*
X243120Y166100D01*
Y164300D01*
X242520Y163700D02*X243120Y164300D01*
X241320Y163700D02*X242520D01*
X240720Y164300D02*X241320Y163700D01*
X244560Y168500D02*Y164300D01*
X245160Y163700D01*
X246960Y165500D02*Y161900D01*
X246360Y166100D02*X246960Y165500D01*
X247560Y166100D01*
X248760D01*
X249360Y165500D01*
Y164300D01*
X248760Y163700D02*X249360Y164300D01*
X247560Y163700D02*X248760D01*
X246960Y164300D02*X247560Y163700D01*
X97000Y202900D02*X97600Y203500D01*
X99400D01*
X100000Y202900D01*
Y201700D01*
X97000Y198700D02*X100000Y201700D01*
X97000Y198700D02*X100000D01*
X101440D02*X102040D01*
X103480Y199300D02*X104080Y198700D01*
X103480Y200260D02*Y199300D01*
Y200260D02*X104320Y201100D01*
X105040D01*
X105880Y200260D01*
Y199300D01*
X105280Y198700D02*X105880Y199300D01*
X104080Y198700D02*X105280D01*
X103480Y201940D02*X104320Y201100D01*
X103480Y202900D02*Y201940D01*
Y202900D02*X104080Y203500D01*
X105280D01*
X105880Y202900D01*
Y201940D01*
X105040Y201100D02*X105880Y201940D01*
X107320Y203500D02*X109720D01*
X107320D02*Y201100D01*
X107920Y201700D01*
X109120D01*
X109720Y201100D01*
Y199300D01*
X109120Y198700D02*X109720Y199300D01*
X107920Y198700D02*X109120D01*
X107320Y199300D02*X107920Y198700D01*
X111160Y203500D02*X112360Y198700D01*
X113560Y203500D01*
X52000Y326700D02*X54000D01*
X52000D02*Y324700D01*
X52500Y325200D01*
X53500D01*
X54000Y324700D01*
Y323200D01*
X53500Y322700D02*X54000Y323200D01*
X52500Y322700D02*X53500D01*
X52000Y323200D02*X52500Y322700D01*
X55200Y326700D02*X56200Y322700D01*
X57200Y326700D01*
X52000Y320500D02*X53200D01*
X52600D02*Y315700D01*
X52000D02*X53200D01*
X54640Y320500D02*Y315700D01*
Y320500D02*X57640Y315700D01*
Y320500D02*Y315700D01*
X54000Y311700D02*X54500Y311200D01*
X52500Y311700D02*X54000D01*
X52000Y311200D02*X52500Y311700D01*
X52000Y311200D02*Y308200D01*
X52500Y307700D01*
X54000D01*
X54500Y308200D01*
Y309200D02*Y308200D01*
X54000Y309700D02*X54500Y309200D01*
X53000Y309700D02*X54000D01*
X55700Y311700D02*Y307700D01*
Y311700D02*X58200Y307700D01*
Y311700D02*Y307700D01*
X59900Y311700D02*Y307700D01*
X61200Y311700D02*X61900Y311000D01*
Y308400D01*
X61200Y307700D02*X61900Y308400D01*
X59400Y307700D02*X61200D01*
X59400Y311700D02*X61200D01*
X67000Y220900D02*X67800Y221700D01*
Y217700D01*
X67000D02*X68500D01*
X69700Y221200D02*X70200Y221700D01*
X71700D01*
X72200Y221200D01*
Y220200D01*
X69700Y217700D02*X72200Y220200D01*
X69700Y217700D02*X72200D01*
X73400Y218200D02*X73900Y217700D01*
X73400Y221200D02*Y218200D01*
Y221200D02*X73900Y221700D01*
X74900D01*
X75400Y221200D01*
Y218200D01*
X74900Y217700D02*X75400Y218200D01*
X73900Y217700D02*X74900D01*
X73400Y218700D02*X75400Y220700D01*
X76600Y219200D02*Y218200D01*
Y219200D02*X77100Y219700D01*
X78100D01*
X78600Y219200D01*
Y218200D01*
X78100Y217700D02*X78600Y218200D01*
X77100Y217700D02*X78100D01*
X76600Y218200D02*X77100Y217700D01*
X79800Y221700D02*Y217700D01*
Y219200D02*X80300Y219700D01*
X81300D01*
X81800Y219200D01*
Y217700D01*
X83500Y219200D02*Y217700D01*
Y219200D02*X84000Y219700D01*
X84500D01*
X85000Y219200D01*
Y217700D01*
Y219200D02*X85500Y219700D01*
X86000D01*
X86500Y219200D01*
Y217700D01*
X83000Y219700D02*X83500Y219200D01*
X16000Y217900D02*X16800Y218700D01*
Y214700D01*
X16000D02*X17500D01*
X18700Y218700D02*X20700D01*
X18700D02*Y216700D01*
X19200Y217200D01*
X20200D01*
X20700Y216700D01*
Y215200D01*
X20200Y214700D02*X20700Y215200D01*
X19200Y214700D02*X20200D01*
X18700Y215200D02*X19200Y214700D01*
X21900Y216200D02*X23900Y218700D01*
X21900Y216200D02*X24400D01*
X23900Y218700D02*Y214700D01*
X25600Y216200D02*Y215200D01*
Y216200D02*X26100Y216700D01*
X27100D01*
X27600Y216200D01*
Y215200D01*
X27100Y214700D02*X27600Y215200D01*
X26100Y214700D02*X27100D01*
X25600Y215200D02*X26100Y214700D01*
X28800Y218700D02*Y214700D01*
Y216200D02*X29300Y216700D01*
X30300D01*
X30800Y216200D01*
Y214700D01*
X32500Y216200D02*Y214700D01*
Y216200D02*X33000Y216700D01*
X33500D01*
X34000Y216200D01*
Y214700D01*
Y216200D02*X34500Y216700D01*
X35000D01*
X35500Y216200D01*
Y214700D01*
X32000Y216700D02*X32500Y216200D01*
X45000Y280700D02*X47000D01*
X46000D02*Y276700D01*
X48200Y278900D02*X49700D01*
X48200Y276700D02*X50200D01*
X48200Y280700D02*Y276700D01*
Y280700D02*X50200D01*
X51400D02*X53400D01*
X53900Y280200D01*
Y279200D01*
X53400Y278700D02*X53900Y279200D01*
X51900Y278700D02*X53400D01*
X51900Y280700D02*Y276700D01*
X52700Y278700D02*X53900Y276700D01*
X55100Y280700D02*Y276700D01*
Y280700D02*X56600Y278700D01*
X58100Y280700D01*
Y276700D01*
X59800Y280700D02*Y276700D01*
X59300Y280700D02*X61300D01*
X61800Y280200D01*
Y279200D01*
X61300Y278700D02*X61800Y279200D01*
X59800Y278700D02*X61300D01*
X63000Y280700D02*Y278700D01*
X63500Y276700D01*
X64500Y278700D01*
X65500Y276700D01*
X66000Y278700D01*
Y280700D02*Y278700D01*
X67200Y280700D02*X69200D01*
X69700Y280200D01*
Y279200D01*
X69200Y278700D02*X69700Y279200D01*
X67700Y278700D02*X69200D01*
X67700Y280700D02*Y276700D01*
X68500Y278700D02*X69700Y276700D01*
X167600Y238700D02*X170000Y243500D01*
X167000D02*X170000D01*
X171440Y240500D02*X173840Y243500D01*
X171440Y240500D02*X174440D01*
X173840Y243500D02*Y238700D01*
X175880Y239300D02*X176480Y238700D01*
X175880Y242900D02*Y239300D01*
Y242900D02*X176480Y243500D01*
X177680D01*
X178280Y242900D01*
Y239300D01*
X177680Y238700D02*X178280Y239300D01*
X176480Y238700D02*X177680D01*
X175880Y239900D02*X178280Y242300D01*
X181520Y243500D02*X182120Y242900D01*
X180320Y243500D02*X181520D01*
X179720Y242900D02*X180320Y243500D01*
X179720Y242900D02*Y239300D01*
X180320Y238700D01*
X181520Y241340D02*X182120Y240740D01*
X179720Y241340D02*X181520D01*
X180320Y238700D02*X181520D01*
X182120Y239300D01*
Y240740D02*Y239300D01*
X217600Y238700D02*X220000Y243500D01*
X217000D02*X220000D01*
X221440Y240500D02*X223840Y243500D01*
X221440Y240500D02*X224440D01*
X223840Y243500D02*Y238700D01*
X225880Y239300D02*X226480Y238700D01*
X225880Y242900D02*Y239300D01*
Y242900D02*X226480Y243500D01*
X227680D01*
X228280Y242900D01*
Y239300D01*
X227680Y238700D02*X228280Y239300D01*
X226480Y238700D02*X227680D01*
X225880Y239900D02*X228280Y242300D01*
X231520Y243500D02*X232120Y242900D01*
X230320Y243500D02*X231520D01*
X229720Y242900D02*X230320Y243500D01*
X229720Y242900D02*Y239300D01*
X230320Y238700D01*
X231520Y241340D02*X232120Y240740D01*
X229720Y241340D02*X231520D01*
X230320Y238700D02*X231520D01*
X232120Y239300D01*
Y240740D02*Y239300D01*
X43000Y240900D02*X43800Y241700D01*
Y237700D01*
X43000D02*X44500D01*
X45700Y238200D02*X46200Y237700D01*
X45700Y241200D02*Y238200D01*
Y241200D02*X46200Y241700D01*
X47200D01*
X47700Y241200D01*
Y238200D01*
X47200Y237700D02*X47700Y238200D01*
X46200Y237700D02*X47200D01*
X45700Y238700D02*X47700Y240700D01*
X48900Y239700D02*Y238200D01*
X49400Y237700D01*
X50400D01*
X50900Y238200D01*
Y239700D02*Y238200D01*
X52100Y241700D02*Y237700D01*
Y241700D02*X54100D01*
X52100Y239900D02*X53600D01*
X64500Y376200D02*X66500D01*
X65500Y377200D02*Y375200D01*
X67700Y378200D02*X69700D01*
X67700D02*Y376200D01*
X68200Y376700D01*
X69200D01*
X69700Y376200D01*
Y374700D01*
X69200Y374200D02*X69700Y374700D01*
X68200Y374200D02*X69200D01*
X67700Y374700D02*X68200Y374200D01*
X70900Y378200D02*X71900Y374200D01*
X72900Y378200D01*
X83000Y376200D02*X85000D01*
X367500Y200700D02*Y196700D01*
X369500D01*
X370700Y198900D02*X372200D01*
X370700Y196700D02*X372700D01*
X370700Y200700D02*Y196700D01*
Y200700D02*X372700D01*
X374400D02*Y196700D01*
X375700Y200700D02*X376400Y200000D01*
Y197400D01*
X375700Y196700D02*X376400Y197400D01*
X373900Y196700D02*X375700D01*
X373900Y200700D02*X375700D01*
X367000Y186700D02*X369000D01*
X369500Y187200D01*
Y188400D02*Y187200D01*
X369000Y188900D02*X369500Y188400D01*
X367500Y188900D02*X369000D01*
X367500Y190700D02*Y186700D01*
X367000Y190700D02*X369000D01*
X369500Y190200D01*
Y189400D01*
X369000Y188900D02*X369500Y189400D01*
X370700Y190700D02*Y187200D01*
X371200Y186700D01*
X373700Y188700D02*X374200Y188200D01*
X372700Y188700D02*X373700D01*
X372200Y188200D02*X372700Y188700D01*
X372200Y188200D02*Y187200D01*
X372700Y186700D01*
X374200Y188700D02*Y187200D01*
X374700Y186700D01*
X372700D02*X373700D01*
X374200Y187200D01*
X376400Y188200D02*Y186700D01*
Y188200D02*X376900Y188700D01*
X377400D01*
X377900Y188200D01*
Y186700D01*
X375900Y188700D02*X376400Y188200D01*
X379100Y190700D02*Y186700D01*
Y188200D02*X380600Y186700D01*
X379100Y188200D02*X380100Y189200D01*
X367500Y178700D02*X369500D01*
X368500Y179700D02*Y177700D01*
X370700Y180700D02*X372700D01*
X370700D02*Y178700D01*
X371200Y179200D01*
X372200D01*
X372700Y178700D01*
Y177200D01*
X372200Y176700D02*X372700Y177200D01*
X371200Y176700D02*X372200D01*
X370700Y177200D02*X371200Y176700D01*
X373900Y180700D02*X374900Y176700D01*
X375900Y180700D01*
X342500Y179400D02*X343300Y180200D01*
Y176200D01*
X342500D02*X344000D01*
X373000Y93200D02*X373500Y92700D01*
X371500Y93200D02*X373000D01*
X371000Y92700D02*X371500Y93200D01*
X371000Y92700D02*Y89700D01*
X371500Y89200D01*
X373000D01*
X373500Y89700D01*
Y90700D02*Y89700D01*
X373000Y91200D02*X373500Y90700D01*
X372000Y91200D02*X373000D01*
X374700Y93200D02*Y89200D01*
Y93200D02*X377200Y89200D01*
Y93200D02*Y89200D01*
X378900Y93200D02*Y89200D01*
X380200Y93200D02*X380900Y92500D01*
Y89900D01*
X380200Y89200D02*X380900Y89900D01*
X378400Y89200D02*X380200D01*
X378400Y93200D02*X380200D01*
X330500Y90700D02*Y86700D01*
Y90700D02*X332000Y88700D01*
X333500Y90700D01*
Y86700D01*
X334700Y90700D02*X335700D01*
X335200D02*Y86700D01*
X334700D02*X335700D01*
X338900Y90700D02*X339400Y90200D01*
X337400Y90700D02*X338900D01*
X336900Y90200D02*X337400Y90700D01*
X336900Y90200D02*Y89200D01*
X337400Y88700D01*
X338900D01*
X339400Y88200D01*
Y87200D01*
X338900Y86700D02*X339400Y87200D01*
X337400Y86700D02*X338900D01*
X336900Y87200D02*X337400Y86700D01*
X340600Y90200D02*Y87200D01*
Y90200D02*X341100Y90700D01*
X342100D01*
X342600Y90200D01*
Y87200D01*
X342100Y86700D02*X342600Y87200D01*
X341100Y86700D02*X342100D01*
X340600Y87200D02*X341100Y86700D01*
X334000Y80700D02*X334500Y80200D01*
X332500Y80700D02*X334000D01*
X332000Y80200D02*X332500Y80700D01*
X332000Y80200D02*Y79200D01*
X332500Y78700D01*
X334000D01*
X334500Y78200D01*
Y77200D01*
X334000Y76700D02*X334500Y77200D01*
X332500Y76700D02*X334000D01*
X332000Y77200D02*X332500Y76700D01*
X336400D02*X337700D01*
X335700Y77400D02*X336400Y76700D01*
X335700Y80000D02*Y77400D01*
Y80000D02*X336400Y80700D01*
X337700D01*
X338900D02*Y76700D01*
Y78700D02*X340900Y80700D01*
X338900Y78700D02*X340900Y76700D01*
X330500Y71200D02*Y67200D01*
Y71200D02*X332000Y69200D01*
X333500Y71200D01*
Y67200D01*
X334700Y70700D02*Y67700D01*
Y70700D02*X335200Y71200D01*
X336200D01*
X336700Y70700D01*
Y67700D01*
X336200Y67200D02*X336700Y67700D01*
X335200Y67200D02*X336200D01*
X334700Y67700D02*X335200Y67200D01*
X339900Y71200D02*X340400Y70700D01*
X338400Y71200D02*X339900D01*
X337900Y70700D02*X338400Y71200D01*
X337900Y70700D02*Y69700D01*
X338400Y69200D01*
X339900D01*
X340400Y68700D01*
Y67700D01*
X339900Y67200D02*X340400Y67700D01*
X338400Y67200D02*X339900D01*
X337900Y67700D02*X338400Y67200D01*
X341600Y71200D02*X342600D01*
X342100D02*Y67200D01*
X341600D02*X342600D01*
X334700Y56700D02*X336000D01*
X334000Y57400D02*X334700Y56700D01*
X334000Y60000D02*Y57400D01*
Y60000D02*X334700Y60700D01*
X336000D01*
X339200D02*X339700Y60200D01*
X337700Y60700D02*X339200D01*
X337200Y60200D02*X337700Y60700D01*
X337200Y60200D02*Y59200D01*
X337700Y58700D01*
X339200D01*
X339700Y58200D01*
Y57200D01*
X339200Y56700D02*X339700Y57200D01*
X337700Y56700D02*X339200D01*
X337200Y57200D02*X337700Y56700D01*
X334700Y47200D02*X336000D01*
X334000Y47900D02*X334700Y47200D01*
X334000Y50500D02*Y47900D01*
Y50500D02*X334700Y51200D01*
X336000D01*
X337700D02*Y47200D01*
X339000Y51200D02*X339700Y50500D01*
Y47900D01*
X339000Y47200D02*X339700Y47900D01*
X337200Y47200D02*X339000D01*
X337200Y51200D02*X339000D01*
X367500Y128200D02*X369500D01*
X368500Y129200D02*Y127200D01*
X370700Y129700D02*X371200Y130200D01*
X372200D01*
X372700Y129700D01*
X372200Y126200D02*X372700Y126700D01*
X371200Y126200D02*X372200D01*
X370700Y126700D02*X371200Y126200D01*
Y128400D02*X372200D01*
X372700Y129700D02*Y128900D01*
Y127900D02*Y126700D01*
Y127900D02*X372200Y128400D01*
X372700Y128900D02*X372200Y128400D01*
X373900Y126200D02*X374400D01*
X375600Y129700D02*X376100Y130200D01*
X377100D01*
X377600Y129700D01*
X377100Y126200D02*X377600Y126700D01*
X376100Y126200D02*X377100D01*
X375600Y126700D02*X376100Y126200D01*
Y128400D02*X377100D01*
X377600Y129700D02*Y128900D01*
Y127900D02*Y126700D01*
Y127900D02*X377100Y128400D01*
X377600Y128900D02*X377100Y128400D01*
X378800Y130200D02*X379800Y126200D01*
X380800Y130200D01*
X367000Y136700D02*X369000D01*
X369500Y137200D01*
Y138400D02*Y137200D01*
X369000Y138900D02*X369500Y138400D01*
X367500Y138900D02*X369000D01*
X367500Y140700D02*Y136700D01*
X367000Y140700D02*X369000D01*
X369500Y140200D01*
Y139400D01*
X369000Y138900D02*X369500Y139400D01*
X370700Y140700D02*Y137200D01*
X371200Y136700D01*
X373700Y138700D02*X374200Y138200D01*
X372700Y138700D02*X373700D01*
X372200Y138200D02*X372700Y138700D01*
X372200Y138200D02*Y137200D01*
X372700Y136700D01*
X374200Y138700D02*Y137200D01*
X374700Y136700D01*
X372700D02*X373700D01*
X374200Y137200D01*
X376400Y138200D02*Y136700D01*
Y138200D02*X376900Y138700D01*
X377400D01*
X377900Y138200D01*
Y136700D01*
X375900Y138700D02*X376400Y138200D01*
X379100Y140700D02*Y136700D01*
Y138200D02*X380600Y136700D01*
X379100Y138200D02*X380100Y139200D01*
X372500Y160700D02*X373000Y160200D01*
X371000Y160700D02*X372500D01*
X370500Y160200D02*X371000Y160700D01*
X370500Y160200D02*Y157200D01*
X371000Y156700D01*
X372500D01*
X373000Y157200D01*
Y158200D02*Y157200D01*
X372500Y158700D02*X373000Y158200D01*
X371500Y158700D02*X372500D01*
X374200Y160700D02*Y156700D01*
Y160700D02*X376700Y156700D01*
Y160700D02*Y156700D01*
X378400Y160700D02*Y156700D01*
X379700Y160700D02*X380400Y160000D01*
Y157400D01*
X379700Y156700D02*X380400Y157400D01*
X377900Y156700D02*X379700D01*
X377900Y160700D02*X379700D01*
X342500Y129400D02*X343300Y130200D01*
Y126200D01*
X342500D02*X344000D01*
X320000Y166200D02*X322000D01*
X320000D02*Y164200D01*
X320500Y164700D01*
X321500D01*
X322000Y164200D01*
Y162700D01*
X321500Y162200D02*X322000Y162700D01*
X320500Y162200D02*X321500D01*
X320000Y162700D02*X320500Y162200D01*
X323200Y166200D02*X324200Y162200D01*
X325200Y166200D01*
X330200D02*X330700Y165700D01*
X328700Y166200D02*X330200D01*
X328200Y165700D02*X328700Y166200D01*
X328200Y165700D02*Y162700D01*
X328700Y162200D01*
X330200D01*
X330700Y162700D01*
Y163700D02*Y162700D01*
X330200Y164200D02*X330700Y163700D01*
X329200Y164200D02*X330200D01*
X332400Y166200D02*Y162200D01*
X331900Y166200D02*X333900D01*
X334400Y165700D01*
Y164700D01*
X333900Y164200D02*X334400Y164700D01*
X332400Y164200D02*X333900D01*
X335600Y166200D02*X336600D01*
X336100D02*Y162200D01*
X335600D02*X336600D01*
X337800Y165700D02*Y162700D01*
Y165700D02*X338300Y166200D01*
X339300D01*
X339800Y165700D01*
Y162700D01*
X339300Y162200D02*X339800Y162700D01*
X338300Y162200D02*X339300D01*
X337800Y162700D02*X338300Y162200D01*
X275600Y238700D02*X278000Y243500D01*
X275000D02*X278000D01*
X279440Y240500D02*X281840Y243500D01*
X279440Y240500D02*X282440D01*
X281840Y243500D02*Y238700D01*
X283880Y239300D02*X284480Y238700D01*
X283880Y242900D02*Y239300D01*
Y242900D02*X284480Y243500D01*
X285680D01*
X286280Y242900D01*
Y239300D01*
X285680Y238700D02*X286280Y239300D01*
X284480Y238700D02*X285680D01*
X283880Y239900D02*X286280Y242300D01*
X289520Y243500D02*X290120Y242900D01*
X288320Y243500D02*X289520D01*
X287720Y242900D02*X288320Y243500D01*
X287720Y242900D02*Y239300D01*
X288320Y238700D01*
X289520Y241340D02*X290120Y240740D01*
X287720Y241340D02*X289520D01*
X288320Y238700D02*X289520D01*
X290120Y239300D01*
Y240740D02*Y239300D01*
X334500Y229700D02*X336500D01*
X334500D02*Y227700D01*
X335000Y228200D01*
X336000D01*
X336500Y227700D01*
Y226200D01*
X336000Y225700D02*X336500Y226200D01*
X335000Y225700D02*X336000D01*
X334500Y226200D02*X335000Y225700D01*
X339200Y229700D02*X339700Y229200D01*
X338200Y229700D02*X339200D01*
X337700Y229200D02*X338200Y229700D01*
X337700Y229200D02*Y226200D01*
X338200Y225700D01*
X339200Y227900D02*X339700Y227400D01*
X337700Y227900D02*X339200D01*
X338200Y225700D02*X339200D01*
X339700Y226200D01*
Y227400D02*Y226200D01*
X340900Y227200D02*Y226200D01*
Y227200D02*X341400Y227700D01*
X342400D01*
X342900Y227200D01*
Y226200D01*
X342400Y225700D02*X342900Y226200D01*
X341400Y225700D02*X342400D01*
X340900Y226200D02*X341400Y225700D01*
X344100Y229700D02*Y225700D01*
Y227200D02*X344600Y227700D01*
X345600D01*
X346100Y227200D01*
Y225700D01*
X347800Y227200D02*Y225700D01*
Y227200D02*X348300Y227700D01*
X348800D01*
X349300Y227200D01*
Y225700D01*
Y227200D02*X349800Y227700D01*
X350300D01*
X350800Y227200D01*
Y225700D01*
X347300Y227700D02*X347800Y227200D01*
X319000Y182700D02*X319500Y183200D01*
X321000D01*
X321500Y182700D01*
Y181700D01*
X319000Y179200D02*X321500Y181700D01*
X319000Y179200D02*X321500D01*
X322700Y182700D02*X323200Y183200D01*
X324700D01*
X325200Y182700D01*
Y181700D01*
X322700Y179200D02*X325200Y181700D01*
X322700Y179200D02*X325200D01*
X326400Y180700D02*Y179700D01*
Y180700D02*X326900Y181200D01*
X327900D01*
X328400Y180700D01*
Y179700D01*
X327900Y179200D02*X328400Y179700D01*
X326900Y179200D02*X327900D01*
X326400Y179700D02*X326900Y179200D01*
X329600Y183200D02*Y179200D01*
Y180700D02*X330100Y181200D01*
X331100D01*
X331600Y180700D01*
Y179200D01*
X333300Y180700D02*Y179200D01*
Y180700D02*X333800Y181200D01*
X334300D01*
X334800Y180700D01*
Y179200D01*
Y180700D02*X335300Y181200D01*
X335800D01*
X336300Y180700D01*
Y179200D01*
X332800Y181200D02*X333300Y180700D01*
X292500Y210900D02*X293300Y211700D01*
Y207700D01*
X292500D02*X294000D01*
X295200D02*X295700D01*
X298400Y211700D02*X298900Y211200D01*
X297400Y211700D02*X298400D01*
X296900Y211200D02*X297400Y211700D01*
X296900Y211200D02*Y208200D01*
X297400Y207700D01*
X298400Y209900D02*X298900Y209400D01*
X296900Y209900D02*X298400D01*
X297400Y207700D02*X298400D01*
X298900Y208200D01*
Y209400D02*Y208200D01*
X300100Y211700D02*Y207700D01*
Y209700D02*X302100Y211700D01*
X300100Y209700D02*X302100Y207700D01*
X315000Y116200D02*X315500Y116700D01*
X316500D01*
X317000Y116200D01*
X316500Y112700D02*X317000Y113200D01*
X315500Y112700D02*X316500D01*
X315000Y113200D02*X315500Y112700D01*
Y114900D02*X316500D01*
X317000Y116200D02*Y115400D01*
Y114400D02*Y113200D01*
Y114400D02*X316500Y114900D01*
X317000Y115400D02*X316500Y114900D01*
X318200Y112700D02*X318700D01*
X319900Y116200D02*X320400Y116700D01*
X321400D01*
X321900Y116200D01*
X321400Y112700D02*X321900Y113200D01*
X320400Y112700D02*X321400D01*
X319900Y113200D02*X320400Y112700D01*
Y114900D02*X321400D01*
X321900Y116200D02*Y115400D01*
Y114400D02*Y113200D01*
Y114400D02*X321400Y114900D01*
X321900Y115400D02*X321400Y114900D01*
X323100Y116700D02*X324100Y112700D01*
X325100Y116700D01*
X330100D02*X330600Y116200D01*
X328600Y116700D02*X330100D01*
X328100Y116200D02*X328600Y116700D01*
X328100Y116200D02*Y113200D01*
X328600Y112700D01*
X330100D01*
X330600Y113200D01*
Y114200D02*Y113200D01*
X330100Y114700D02*X330600Y114200D01*
X329100Y114700D02*X330100D01*
X332300Y116700D02*Y112700D01*
X331800Y116700D02*X333800D01*
X334300Y116200D01*
Y115200D01*
X333800Y114700D02*X334300Y115200D01*
X332300Y114700D02*X333800D01*
X335500Y116700D02*X336500D01*
X336000D02*Y112700D01*
X335500D02*X336500D01*
X337700Y116200D02*Y113200D01*
Y116200D02*X338200Y116700D01*
X339200D01*
X339700Y116200D01*
Y113200D01*
X339200Y112700D02*X339700Y113200D01*
X338200Y112700D02*X339200D01*
X337700Y113200D02*X338200Y112700D01*
X184500Y137700D02*X186000Y140100D01*
X184500D02*X186000Y137700D01*
X186720Y140100D02*X187920D01*
X188220Y139800D01*
Y139200D01*
X187920Y138900D02*X188220Y139200D01*
X187020Y138900D02*X187920D01*
X187020Y140100D02*Y137700D01*
X187500Y138900D02*X188220Y137700D01*
X188940Y139020D02*X189840D01*
X188940Y137700D02*X190140D01*
X188940Y140100D02*Y137700D01*
Y140100D02*X190140D01*
X192060D02*X192360Y139800D01*
X191160Y140100D02*X192060D01*
X190860Y139800D02*X191160Y140100D01*
X190860Y139800D02*Y139200D01*
X191160Y138900D01*
X192060D01*
X192360Y138600D01*
Y138000D01*
X192060Y137700D02*X192360Y138000D01*
X191160Y137700D02*X192060D01*
X190860Y138000D02*X191160Y137700D01*
X147500Y111700D02*X149500D01*
X148500Y112700D02*Y110700D01*
X150700Y113700D02*X152700D01*
X150700D02*Y111700D01*
X151200Y112200D01*
X152200D01*
X152700Y111700D01*
Y110200D01*
X152200Y109700D02*X152700Y110200D01*
X151200Y109700D02*X152200D01*
X150700Y110200D02*X151200Y109700D01*
X153900Y113700D02*X154900Y109700D01*
X155900Y113700D01*
X122500Y113400D02*X123300Y114200D01*
Y110200D01*
X122500D02*X124000D01*
X89000Y102900D02*X89600Y103500D01*
X90800D01*
X91400Y102900D01*
X90800Y98700D02*X91400Y99300D01*
X89600Y98700D02*X90800D01*
X89000Y99300D02*X89600Y98700D01*
Y101340D02*X90800D01*
X91400Y102900D02*Y101940D01*
Y100740D02*Y99300D01*
Y100740D02*X90800Y101340D01*
X91400Y101940D02*X90800Y101340D01*
X92840Y98700D02*X93440D01*
X94880Y102900D02*X95480Y103500D01*
X96680D01*
X97280Y102900D01*
X96680Y98700D02*X97280Y99300D01*
X95480Y98700D02*X96680D01*
X94880Y99300D02*X95480Y98700D01*
Y101340D02*X96680D01*
X97280Y102900D02*Y101940D01*
Y100740D02*Y99300D01*
Y100740D02*X96680Y101340D01*
X97280Y101940D02*X96680Y101340D01*
X98720Y103500D02*X99920Y98700D01*
X101120Y103500D01*
X185700Y149600D02*X186000Y149300D01*
X184800Y149600D02*X185700D01*
X184500Y149300D02*X184800Y149600D01*
X184500Y149300D02*Y148700D01*
X184800Y148400D01*
X185700D01*
X186000Y148100D01*
Y147500D01*
X185700Y147200D02*X186000Y147500D01*
X184800Y147200D02*X185700D01*
X184500Y147500D02*X184800Y147200D01*
X186720Y149600D02*Y148400D01*
X187020Y147200D01*
X187620Y148400D01*
X188220Y147200D01*
X188520Y148400D01*
Y149600D02*Y148400D01*
X189240Y149600D02*X189840Y147200D01*
X190440Y149600D01*
X185700Y154600D02*X186000Y154300D01*
X184800Y154600D02*X185700D01*
X184500Y154300D02*X184800Y154600D01*
X184500Y154300D02*Y153700D01*
X184800Y153400D01*
X185700D01*
X186000Y153100D01*
Y152500D01*
X185700Y152200D02*X186000Y152500D01*
X184800Y152200D02*X185700D01*
X184500Y152500D02*X184800Y152200D01*
X186720Y154600D02*Y153400D01*
X187020Y152200D01*
X187620Y153400D01*
X188220Y152200D01*
X188520Y153400D01*
Y154600D02*Y153400D01*
X189540Y154600D02*Y152200D01*
X190320Y154600D02*X190740Y154180D01*
Y152620D01*
X190320Y152200D02*X190740Y152620D01*
X189240Y152200D02*X190320D01*
X189240Y154600D02*X190320D01*
X191880Y152200D02*X192660D01*
X191460Y152620D02*X191880Y152200D01*
X191460Y154180D02*Y152620D01*
Y154180D02*X191880Y154600D01*
X192660D01*
X193380D02*Y152200D01*
Y153400D02*X194580Y154600D01*
X193380Y153400D02*X194580Y152200D01*
X20400Y137500D02*Y132700D01*
Y137500D02*X22200Y135100D01*
X24000Y137500D01*
Y132700D01*
X25440Y136300D02*Y136180D01*
Y134500D02*Y132700D01*
X27240Y135100D02*X29040D01*
X26640Y134500D02*X27240Y135100D01*
X26640Y134500D02*Y133300D01*
X27240Y132700D01*
X29040D01*
X30480Y137500D02*Y132700D01*
Y134500D02*X31080Y135100D01*
X32280D01*
X32880Y134500D01*
Y132700D01*
X36120Y135100D02*X36720Y134500D01*
X34920Y135100D02*X36120D01*
X34320Y134500D02*X34920Y135100D01*
X34320Y134500D02*Y133300D01*
X34920Y132700D01*
X36720Y135100D02*Y133300D01*
X37320Y132700D01*
X34920D02*X36120D01*
X36720Y133300D01*
X39360Y132700D02*X41160D01*
X38760Y133300D02*X39360Y132700D01*
X38760Y134500D02*Y133300D01*
Y134500D02*X39360Y135100D01*
X40560D01*
X41160Y134500D01*
X38760Y133900D02*X41160D01*
Y134500D02*Y133900D01*
X42600Y137500D02*Y133300D01*
X43200Y132700D01*
X46560Y137500D02*Y132700D01*
Y137500D02*X48360Y135100D01*
X50160Y137500D01*
Y132700D01*
X52200Y135100D02*X54000D01*
X51600Y134500D02*X52200Y135100D01*
X51600Y134500D02*Y133300D01*
X52200Y132700D01*
X54000D01*
X55440Y137500D02*Y132700D01*
Y137500D02*X57240Y135100D01*
X59040Y137500D01*
Y132700D01*
X62280Y135100D02*X62880Y134500D01*
X61080Y135100D02*X62280D01*
X60480Y134500D02*X61080Y135100D01*
X60480Y134500D02*Y133300D01*
X61080Y132700D01*
X62880Y135100D02*Y133300D01*
X63480Y132700D01*
X61080D02*X62280D01*
X62880Y133300D01*
X65520Y132700D02*X67320D01*
X67920Y133300D01*
X67320Y133900D02*X67920Y133300D01*
X65520Y133900D02*X67320D01*
X64920Y134500D02*X65520Y133900D01*
X64920Y134500D02*X65520Y135100D01*
X67320D01*
X67920Y134500D01*
X64920Y133300D02*X65520Y132700D01*
X69960Y137500D02*Y133300D01*
X70560Y132700D01*
X69360Y135700D02*X70560D01*
X72360Y132700D02*X74160D01*
X71760Y133300D02*X72360Y132700D01*
X71760Y134500D02*Y133300D01*
Y134500D02*X72360Y135100D01*
X73560D01*
X74160Y134500D01*
X71760Y133900D02*X74160D01*
Y134500D02*Y133900D01*
X76200Y134500D02*Y132700D01*
Y134500D02*X76800Y135100D01*
X78000D01*
X75600D02*X76200Y134500D01*
X21600Y126100D02*Y124300D01*
Y126100D02*X22200Y126700D01*
X22800D01*
X23400Y126100D01*
Y124300D01*
Y126100D02*X24000Y126700D01*
X24600D01*
X25200Y126100D01*
Y124300D01*
X21000Y126700D02*X21600Y126100D01*
X26640Y127900D02*Y127780D01*
Y126100D02*Y124300D01*
X28440Y126700D02*X30240D01*
X27840Y126100D02*X28440Y126700D01*
X27840Y126100D02*Y124900D01*
X28440Y124300D01*
X30240D01*
X31680Y129100D02*Y124300D01*
Y126100D02*X32280Y126700D01*
X33480D01*
X34080Y126100D01*
Y124300D01*
X37320Y126700D02*X37920Y126100D01*
X36120Y126700D02*X37320D01*
X35520Y126100D02*X36120Y126700D01*
X35520Y126100D02*Y124900D01*
X36120Y124300D01*
X37920Y126700D02*Y124900D01*
X38520Y124300D01*
X36120D02*X37320D01*
X37920Y124900D01*
X40560Y124300D02*X42360D01*
X39960Y124900D02*X40560Y124300D01*
X39960Y126100D02*Y124900D01*
Y126100D02*X40560Y126700D01*
X41760D01*
X42360Y126100D01*
X39960Y125500D02*X42360D01*
Y126100D02*Y125500D01*
X43800Y129100D02*Y124900D01*
X44400Y124300D01*
X45600Y129100D02*Y125500D01*
X46800Y124300D01*
X50400D01*
X51600Y129100D02*Y126100D01*
Y129100D02*X50400Y130300D01*
X46800D02*X50400D01*
X46800D02*X45600Y129100D01*
X47400Y127900D02*Y126700D01*
X48000Y126100D01*
X49200D01*
X49800Y126700D01*
X50400Y126100D01*
X49800Y128500D02*Y126700D01*
Y127900D02*X49200Y128500D01*
X48000D02*X49200D01*
X48000D02*X47400Y127900D01*
X50400Y126100D02*X51600D01*
X53640Y126700D02*X55440D01*
X53040Y126100D02*X53640Y126700D01*
X53040Y126100D02*Y124900D01*
X53640Y124300D01*
X55440D01*
X56880Y126100D02*Y124900D01*
Y126100D02*X57480Y126700D01*
X58680D01*
X59280Y126100D01*
Y124900D01*
X58680Y124300D02*X59280Y124900D01*
X57480Y124300D02*X58680D01*
X56880Y124900D02*X57480Y124300D01*
X63120Y129100D02*Y124300D01*
X62520D02*X63120Y124900D01*
X61320Y124300D02*X62520D01*
X60720Y124900D02*X61320Y124300D01*
X60720Y126100D02*Y124900D01*
Y126100D02*X61320Y126700D01*
X62520D01*
X63120Y126100D01*
X65160Y124300D02*X66960D01*
X64560Y124900D02*X65160Y124300D01*
X64560Y126100D02*Y124900D01*
Y126100D02*X65160Y126700D01*
X66360D01*
X66960Y126100D01*
X64560Y125500D02*X66960D01*
Y126100D02*Y125500D01*
X69000Y124300D02*X70800D01*
X71400Y124900D01*
X70800Y125500D02*X71400Y124900D01*
X69000Y125500D02*X70800D01*
X68400Y126100D02*X69000Y125500D01*
X68400Y126100D02*X69000Y126700D01*
X70800D01*
X71400Y126100D01*
X68400Y124900D02*X69000Y124300D01*
X73440Y126100D02*Y124300D01*
Y126100D02*X74040Y126700D01*
X75240D01*
X72840D02*X73440Y126100D01*
X77280Y126700D02*X79080D01*
X76680Y126100D02*X77280Y126700D01*
X76680Y126100D02*Y124900D01*
X77280Y124300D01*
X79080D01*
X80520D02*X81120D01*
X83160Y126700D02*X84960D01*
X82560Y126100D02*X83160Y126700D01*
X82560Y126100D02*Y124900D01*
X83160Y124300D01*
X84960D01*
X86400Y126100D02*Y124900D01*
Y126100D02*X87000Y126700D01*
X88200D01*
X88800Y126100D01*
Y124900D01*
X88200Y124300D02*X88800Y124900D01*
X87000Y124300D02*X88200D01*
X86400Y124900D02*X87000Y124300D01*
X90840Y126100D02*Y124300D01*
Y126100D02*X91440Y126700D01*
X92040D01*
X92640Y126100D01*
Y124300D01*
Y126100D02*X93240Y126700D01*
X93840D01*
X94440Y126100D01*
Y124300D01*
X90240Y126700D02*X90840Y126100D01*
X95500Y144700D02*Y140700D01*
Y141200D02*X96000Y140700D01*
X97000D01*
X97500Y141200D01*
Y142200D02*Y141200D01*
X97000Y142700D02*X97500Y142200D01*
X96000Y142700D02*X97000D01*
X95500Y142200D02*X96000Y142700D01*
X153500Y73700D02*X154000Y73200D01*
X152000Y73700D02*X153500D01*
X151500Y73200D02*X152000Y73700D01*
X151500Y73200D02*Y70200D01*
X152000Y69700D01*
X153500D01*
X154000Y70200D01*
Y71200D02*Y70200D01*
X153500Y71700D02*X154000Y71200D01*
X152500Y71700D02*X153500D01*
X155200Y73700D02*Y69700D01*
Y73700D02*X157700Y69700D01*
Y73700D02*Y69700D01*
X159400Y73700D02*Y69700D01*
X160700Y73700D02*X161400Y73000D01*
Y70400D01*
X160700Y69700D02*X161400Y70400D01*
X158900Y69700D02*X160700D01*
X158900Y73700D02*X160700D01*
X99500Y63200D02*X101500D01*
X99500D02*Y61200D01*
X100000Y61700D01*
X101000D01*
X101500Y61200D01*
Y59700D01*
X101000Y59200D02*X101500Y59700D01*
X100000Y59200D02*X101000D01*
X99500Y59700D02*X100000Y59200D01*
X102700Y63200D02*X103700Y59200D01*
X104700Y63200D01*
X109700D02*X110200Y62700D01*
X108200Y63200D02*X109700D01*
X107700Y62700D02*X108200Y63200D01*
X107700Y62700D02*Y59700D01*
X108200Y59200D01*
X109700D01*
X110200Y59700D01*
Y60700D02*Y59700D01*
X109700Y61200D02*X110200Y60700D01*
X108700Y61200D02*X109700D01*
X111900Y63200D02*Y59200D01*
X111400Y63200D02*X113400D01*
X113900Y62700D01*
Y61700D01*
X113400Y61200D02*X113900Y61700D01*
X111900Y61200D02*X113400D01*
X115100Y63200D02*X116100D01*
X115600D02*Y59200D01*
X115100D02*X116100D01*
X117300Y62700D02*Y59700D01*
Y62700D02*X117800Y63200D01*
X118800D01*
X119300Y62700D01*
Y59700D01*
X118800Y59200D02*X119300Y59700D01*
X117800Y59200D02*X118800D01*
X117300Y59700D02*X117800Y59200D01*
X199500Y111200D02*X200000Y111700D01*
X201500D01*
X202000Y111200D01*
Y110200D01*
X199500Y107700D02*X202000Y110200D01*
X199500Y107700D02*X202000D01*
X203200Y111200D02*X203700Y111700D01*
X205200D01*
X205700Y111200D01*
Y110200D01*
X203200Y107700D02*X205700Y110200D01*
X203200Y107700D02*X205700D01*
X206900Y109200D02*Y108200D01*
Y109200D02*X207400Y109700D01*
X208400D01*
X208900Y109200D01*
Y108200D01*
X208400Y107700D02*X208900Y108200D01*
X207400Y107700D02*X208400D01*
X206900Y108200D02*X207400Y107700D01*
X210100Y111700D02*Y107700D01*
Y109200D02*X210600Y109700D01*
X211600D01*
X212100Y109200D01*
Y107700D01*
X213800Y109200D02*Y107700D01*
Y109200D02*X214300Y109700D01*
X214800D01*
X215300Y109200D01*
Y107700D01*
Y109200D02*X215800Y109700D01*
X216300D01*
X216800Y109200D01*
Y107700D01*
X213300Y109700D02*X213800Y109200D01*
G54D182*X23900Y148700D02*X24900Y147700D01*
X20900Y148700D02*X23900D01*
X19900Y147700D02*X20900Y148700D01*
X19900Y147700D02*Y145700D01*
X20900Y144700D01*
X23900D01*
X24900Y143700D01*
Y141700D01*
X23900Y140700D02*X24900Y141700D01*
X20900Y140700D02*X23900D01*
X19900Y141700D02*X20900Y140700D01*
X28700D02*X31300D01*
X27300Y142100D02*X28700Y140700D01*
X27300Y147300D02*Y142100D01*
Y147300D02*X28700Y148700D01*
X31300D01*
X37700D02*X38700Y147700D01*
X34700Y148700D02*X37700D01*
X33700Y147700D02*X34700Y148700D01*
X33700Y147700D02*Y145700D01*
X34700Y144700D01*
X37700D01*
X38700Y143700D01*
Y141700D01*
X37700Y140700D02*X38700Y141700D01*
X34700Y140700D02*X37700D01*
X33700Y141700D02*X34700Y140700D01*
X41100Y148700D02*X43100D01*
X42100D02*Y140700D01*
X41100D02*X43100D01*
X45500Y147700D02*X46500Y148700D01*
X49500D01*
X50500Y147700D01*
Y145700D01*
X45500Y140700D02*X50500Y145700D01*
X45500Y140700D02*X50500D01*
X56900Y148700D02*X57900Y147700D01*
X53900Y148700D02*X56900D01*
X52900Y147700D02*X53900Y148700D01*
X52900Y147700D02*Y145700D01*
X53900Y144700D01*
X56900D01*
X57900Y143700D01*
Y141700D01*
X56900Y140700D02*X57900Y141700D01*
X53900Y140700D02*X56900D01*
X52900Y141700D02*X53900Y140700D01*
X61300Y148700D02*Y140700D01*
X63900Y148700D02*X65300Y147300D01*
Y142100D01*
X63900Y140700D02*X65300Y142100D01*
X60300Y140700D02*X63900D01*
X60300Y148700D02*X63900D01*
X71300D02*X73300Y140700D01*
X75300Y148700D01*
X77700Y143700D02*X81700Y148700D01*
X77700Y143700D02*X82700D01*
X81700Y148700D02*Y140700D01*
X85100D02*X86100D01*
X88500Y147700D02*X89500Y148700D01*
X92500D01*
X93500Y147700D01*
Y145700D01*
X88500Y140700D02*X93500Y145700D01*
X88500Y140700D02*X93500D01*
G54D180*X125500Y116700D02*Y36700D01*
X145500D01*
Y116700D02*Y36700D01*
X125500Y116700D02*X145500D01*
X125500Y106700D02*X135500D01*
Y116700D02*Y106700D01*
G54D182*X218941Y116078D02*Y107278D01*
X234341D01*
Y116078D01*
X218941D01*
X214900Y125500D02*Y116700D01*
X230300D01*
Y125500D01*
X214900D01*
G54D180*X162628Y125941D02*X176428D01*
X162628Y170941D02*X176428D01*
Y161847D01*
X176434Y161841D01*
X176334Y134741D02*Y125941D01*
X162634Y170941D02*Y161841D01*
Y134641D02*Y125941D01*
Y161841D02*X168034D01*
Y134641D01*
X162634D02*X168034D01*
G54D181*X198709Y136971D02*Y133428D01*
X191229Y136971D02*X198709D01*
X191229D02*Y133428D01*
X198709D01*
X176721Y491D02*X213729D01*
X180264Y1869D02*Y491D01*
Y12499D02*Y10334D01*
X210382Y1869D02*Y491D01*
Y12499D02*Y10334D01*
X187547Y18208D02*X188729D01*
X201524D02*X202902D01*
G54D182*X172900Y21400D02*Y11400D01*
X151900Y21400D02*X172900D01*
X151900D02*Y11400D01*
X172900D01*
G54D180*X121362Y29952D02*Y11054D01*
X150102D01*
Y29952D02*Y11054D01*
X121362Y29952D02*X150102D01*
X126086D02*Y26015D01*
X126874D01*
Y29164D02*Y26015D01*
X126086Y14991D02*Y11054D01*
Y14991D02*X126874D01*
Y11841D01*
G54D182*X244300Y334100D02*Y325300D01*
X259700D01*
Y334100D01*
X244300D01*
G54D183*X241100Y270000D02*X331100D01*
X241100Y280000D02*X331100D01*
G54D180*X246100D02*Y270000D01*
G54D183*X241100Y280000D02*G75*G03X241100Y270000I0J-5000D01*G01*
X331100D02*G75*G03X331100Y280000I0J5000D01*G01*
G54D181*X239263Y284863D02*X242806D01*
Y292343D02*Y284863D01*
X239263Y292343D02*X242806D01*
X239263D02*Y284863D01*
X233728Y210428D02*X237271D01*
Y217908D02*Y210428D01*
X233728Y217908D02*X237271D01*
X233728D02*Y210428D01*
G54D182*X318600Y205800D02*Y197000D01*
X303200Y205800D02*X318600D01*
X303200D02*Y197000D01*
X318600D01*
X317600Y205800D02*Y197000D01*
G54D180*X326309Y212509D02*Y198609D01*
X339109D01*
Y212509D01*
X326309D01*
X265000Y256700D02*X299000D01*
X265000D02*Y225700D01*
X299000D01*
Y256700D02*Y243700D01*
Y238700D02*Y225700D01*
Y243700D02*G75*G03X299000Y238700I0J-2500D01*G01*
G54D181*X302728Y226928D02*X306271D01*
Y234408D02*Y226928D01*
X302728Y234408D02*X306271D01*
X302728D02*Y226928D01*
X244728D02*X248271D01*
Y234408D02*Y226928D01*
X244728Y234408D02*X248271D01*
X244728D02*Y226928D01*
G54D182*X318559Y216822D02*Y208022D01*
X303159Y216822D02*X318559D01*
X303159D02*Y208022D01*
X318559D01*
X324800Y224600D02*Y215800D01*
X340200D01*
Y224600D01*
X324800D01*
G54D180*X117647Y155939D02*X117600Y155892D01*
Y125900D01*
X153600D01*
Y255900D02*Y125900D01*
X117608Y255892D02*Y155900D01*
Y255892D02*X117600Y255900D01*
X153600D01*
X145600Y200900D02*X153600D01*
X145600D02*Y180900D01*
X153600D01*
G54D182*X100800Y135600D02*Y126800D01*
X116200D01*
Y135600D01*
X100800D01*
G54D180*X40000Y303700D02*X50000D01*
Y323700D02*Y303700D01*
X40000Y323700D02*X50000D01*
X40000D02*Y303700D01*
X50000Y313700D02*Y303700D01*
X40000Y313700D02*X50000D01*
G54D182*X10800Y268100D02*Y259300D01*
X26200D01*
Y268100D02*Y259300D01*
X10800Y268100D02*X26200D01*
G54D180*X83248Y273992D02*X102146D01*
Y302732D02*Y273992D01*
X83248Y302732D02*X102146D01*
X83248D02*Y273992D01*
Y278716D02*X87185D01*
Y279504D02*Y278716D01*
X84036Y279504D02*X87185D01*
X98209Y278716D02*X102146D01*
X98209Y279504D02*Y278716D01*
Y279504D02*X101359D01*
G54D182*X110600Y285400D02*X119400D01*
X110600D02*Y270000D01*
X119400D01*
Y285400D02*Y270000D01*
G54D180*X40000Y283700D02*X50000D01*
Y303700D02*Y283700D01*
X40000Y303700D02*X50000D01*
X40000D02*Y283700D01*
X50000Y293700D02*Y283700D01*
X40000Y293700D02*X50000D01*
G54D181*X131728Y284928D02*X135271D01*
Y292408D02*Y284928D01*
X131728Y292408D02*X135271D01*
X131728D02*Y284928D01*
X201228Y207491D02*X204771D01*
Y214971D02*Y207491D01*
X201228Y214971D02*X204771D01*
X201228D02*Y207491D01*
G54D180*X43750Y182950D02*X95750D01*
X43750Y214450D02*Y182950D01*
Y214450D02*X95750D01*
Y182950D01*
X55750Y198450D02*X59750D01*
G54D182*X74123Y179612D02*Y170812D01*
X89523D01*
Y179612D02*Y170812D01*
X74123Y179612D02*X89523D01*
X62523D02*Y170812D01*
X47123Y179612D02*X62523D01*
X47123D02*Y170812D01*
X62523D01*
X49300Y226100D02*Y217300D01*
X64700D01*
Y226100D02*Y217300D01*
X49300Y226100D02*X64700D01*
G54D180*X9748Y274062D02*X28646D01*
Y302802D02*Y274062D01*
X9748Y302802D02*X28646D01*
X9748D02*Y274062D01*
Y278786D02*X13685D01*
Y279574D02*Y278786D01*
X10536Y279574D02*X13685D01*
X24709Y278786D02*X28646D01*
X24709Y279574D02*Y278786D01*
Y279574D02*X27859D01*
G54D182*X9600Y330800D02*X19600D01*
X9600D02*Y309800D01*
X19600D01*
Y330800D02*Y309800D01*
X33300Y235600D02*Y226800D01*
X48700D01*
Y235600D01*
X33300D01*
Y226100D02*Y217300D01*
X48700D01*
Y226100D01*
X33300D01*
G54D180*X53748Y393106D02*Y385625D01*
X22252Y393106D02*X53748D01*
X22252D02*Y385625D01*
X53748Y373027D02*Y367909D01*
X22252Y373027D02*Y367909D01*
X27764Y356491D02*X51780D01*
X32882Y391137D02*X50992D01*
X32882Y393106D02*Y391137D01*
X50992Y393106D02*Y391137D01*
X43118Y393106D02*Y391137D01*
X40756Y393106D02*Y391137D01*
X207300Y256950D02*X241300D01*
X207300D02*Y225950D01*
X241300D01*
Y256950D02*Y243950D01*
Y238950D02*Y225950D01*
Y243950D02*G75*G03X241300Y238950I0J-2500D01*G01*
X157200Y256550D02*X191200D01*
X157200D02*Y225550D01*
X191200D01*
Y256550D02*Y243550D01*
Y238550D02*Y225550D01*
Y243550D02*G75*G03X191200Y238550I0J-2500D01*G01*
G54D183*X133400Y270000D02*X223400D01*
X133400Y280000D02*X223400D01*
G54D180*X138400D02*Y270000D01*
G54D183*X133400Y280000D02*G75*G03X133400Y270000I0J-5000D01*G01*
X223400D02*G75*G03X223400Y280000I0J5000D01*G01*
G54D181*X195228Y226928D02*X198771D01*
Y234408D02*Y226928D01*
X195228Y234408D02*X198771D01*
X195228D02*Y226928D01*
G54D180*X316500Y393200D02*Y390200D01*
X108900D02*X316500D01*
X108900Y393200D02*Y390200D01*
Y393200D02*X316500D01*
X310500D02*Y390200D01*
X298500Y393200D02*Y390200D01*
X114900Y393200D02*Y390200D01*
X126900Y393200D02*Y390200D01*
G54D183*X293500D02*Y379700D01*
X131900D02*X293500D01*
X131900Y390200D02*Y379700D01*
G54D180*Y390200D02*X293500D01*
G54D183*X147900Y379700D02*Y355100D01*
X158700Y379700D02*Y355100D01*
X169500Y379700D02*Y355100D01*
X180300Y379700D02*Y355100D01*
X191100Y379700D02*Y355100D01*
X201900Y379700D02*Y355100D01*
X212700Y379700D02*Y355100D01*
X223500Y379700D02*Y355100D01*
X234300Y379700D02*Y355100D01*
X245100Y379700D02*Y355100D01*
X255900Y379700D02*Y355100D01*
X266700Y379700D02*Y355100D01*
X277500Y379700D02*Y355100D01*
X153300Y379700D02*Y366300D01*
X164100Y379700D02*Y366300D01*
X174900Y379700D02*Y366300D01*
X185700Y379700D02*Y366300D01*
X196500Y379700D02*Y366300D01*
X207300Y379700D02*Y366300D01*
X218100Y379700D02*Y366300D01*
X228900Y379700D02*Y366300D01*
X239700Y379700D02*Y366300D01*
X250500Y379700D02*Y366300D01*
X261300Y379700D02*Y366300D01*
X272100Y379700D02*Y366300D01*
G54D182*X68506Y109380D02*Y100580D01*
X83906D01*
Y109380D02*Y100580D01*
X68506Y109380D02*X83906D01*
G54D180*X43750Y65450D02*X95750D01*
X43750Y96950D02*Y65450D01*
Y96950D02*X95750D01*
Y65450D01*
X55750Y80950D02*X59750D01*
G54D182*X42006Y62880D02*Y54080D01*
X57406D01*
Y62880D01*
X42006D01*
G54D181*X290354Y20572D02*Y17029D01*
X297834D01*
Y20572D02*Y17029D01*
X290354Y20572D02*X297834D01*
X271500Y6400D02*X279500D01*
X271500Y11400D02*Y6400D01*
X241000Y11400D02*X271500D01*
X241000D02*X238500Y8900D01*
X279500Y6400D02*Y3900D01*
X283000D01*
X288500Y63900D02*Y10900D01*
X269500Y63900D02*X288500D01*
X246500D02*X259500D01*
X233000D02*X237000D01*
X233000D02*Y15900D01*
G54D180*X345000Y183700D02*Y143700D01*
X365000D01*
Y183700D01*
X345000D01*
Y173700D02*X355000D01*
Y183700D01*
X345000Y203700D02*Y193700D01*
X365000D01*
Y203700D02*Y193700D01*
X345000Y203700D02*X365000D01*
X345000Y193700D02*X355000D01*
Y203700D02*Y193700D01*
X345000D02*Y183700D01*
X365000D01*
Y193700D01*
X345000D01*
Y183700D02*X355000D01*
Y193700D01*
X345000Y143700D02*Y133700D01*
X365000D01*
Y143700D01*
X345000D01*
Y133700D02*X355000D01*
Y143700D01*
G54D182*X325300Y195100D02*Y186300D01*
X340700D01*
Y195100D01*
X325300D01*
G54D181*X233228Y119929D02*Y123472D01*
X240708Y119929D02*X233228D01*
X240708Y123472D02*Y119929D01*
X233228Y123472D02*X240708D01*
X232792Y133472D02*X236335D01*
X232792D02*Y125992D01*
X236335D01*
Y133472D02*Y125992D01*
X237935Y133422D02*X241478D01*
X237935D02*Y125942D01*
X241478D01*
Y133422D02*Y125942D01*
X268729Y138472D02*X272272D01*
X268729D02*Y130992D01*
X272272D01*
Y138472D02*Y130992D01*
X279728Y171928D02*X283271D01*
Y179408D02*Y171928D01*
X279728Y179408D02*X283271D01*
X279728D02*Y171928D01*
X273228Y171991D02*X276771D01*
Y179471D02*Y171991D01*
X273228Y179471D02*X276771D01*
X273228D02*Y171991D01*
X279729Y169972D02*X283272D01*
X279729D02*Y162492D01*
X283272D01*
Y169972D02*Y162492D01*
X273291Y198929D02*Y202472D01*
X280771Y198929D02*X273291D01*
X280771Y202472D02*Y198929D01*
X273291Y202472D02*X280771D01*
G54D182*X209694Y199554D02*X261112D01*
Y145236D01*
X206794D01*
Y196654D01*
X209694Y199554D01*
X208694Y196654D02*G75*G03X208694Y196654I1000J0D01*G01*
G54D180*X345000Y133700D02*Y43700D01*
X365000D01*
Y133700D01*
X345000D01*
Y123700D02*X355000D01*
Y133700D01*
G54D181*X147700Y120700D02*X148500D01*
Y117200D01*
X148000Y116700D02*X148500Y117200D01*
X147500Y116700D02*X148000D01*
X147000Y117200D02*X147500Y116700D01*
X147000Y117700D02*Y117200D01*
X149700D02*X150200Y116700D01*
X149700Y118000D02*Y117200D01*
Y118000D02*X150400Y118700D01*
X151000D01*
X151700Y118000D01*
Y117200D01*
X151200Y116700D02*X151700Y117200D01*
X150200Y116700D02*X151200D01*
X149700Y119400D02*X150400Y118700D01*
X149700Y120200D02*Y119400D01*
Y120200D02*X150200Y120700D01*
X151200D01*
X151700Y120200D01*
Y119400D01*
X151000Y118700D02*X151700Y119400D01*
X204100Y124900D02*X206100D01*
X206600Y124400D01*
Y123400D01*
X206100Y122900D02*X206600Y123400D01*
X204600Y122900D02*X206100D01*
X204600Y124900D02*Y120900D01*
X205400Y122900D02*X206600Y120900D01*
X207800Y122400D02*X209800Y124900D01*
X207800Y122400D02*X210300D01*
X209800Y124900D02*Y120900D01*
X162959Y177234D02*X163759D01*
Y173734D01*
X163259Y173234D02*X163759Y173734D01*
X162759Y173234D02*X163259D01*
X162259Y173734D02*X162759Y173234D01*
X162259Y174234D02*Y173734D01*
X164959Y174734D02*X166959Y177234D01*
X164959Y174734D02*X167459D01*
X166959Y177234D02*Y173234D01*
X193328Y127735D02*X194628D01*
X192628Y128435D02*X193328Y127735D01*
X192628Y131035D02*Y128435D01*
Y131035D02*X193328Y131735D01*
X194628D01*
X196328Y127735D02*X197828Y129735D01*
Y131235D02*Y129735D01*
X197328Y131735D02*X197828Y131235D01*
X196328Y131735D02*X197328D01*
X195828Y131235D02*X196328Y131735D01*
X195828Y131235D02*Y130235D01*
X196328Y129735D01*
X197828D01*
X193765Y221235D02*X195065D01*
X193065Y221935D02*X193765Y221235D01*
X193065Y224535D02*Y221935D01*
Y224535D02*X193765Y225235D01*
X195065D01*
X196265Y224435D02*X197065Y225235D01*
Y221235D01*
X196265D02*X197765D01*
X198965Y224435D02*X199765Y225235D01*
Y221235D01*
X198965D02*X200465D01*
X191828Y209735D02*X193128D01*
X191128Y210435D02*X191828Y209735D01*
X191128Y213035D02*Y210435D01*
Y213035D02*X191828Y213735D01*
X193128D01*
X194328Y212935D02*X195128Y213735D01*
Y209735D01*
X194328D02*X195828D01*
X197528D02*X199528Y213735D01*
X197028D02*X199528D01*
X204141Y118178D02*X206141D01*
X206641Y117678D01*
Y116678D01*
X206141Y116178D02*X206641Y116678D01*
X204641Y116178D02*X206141D01*
X204641Y118178D02*Y114178D01*
X205441Y116178D02*X206641Y114178D01*
X207841Y118178D02*X209841D01*
X207841D02*Y116178D01*
X208341Y116678D01*
X209341D01*
X209841Y116178D01*
Y114678D01*
X209341Y114178D02*X209841Y114678D01*
X208341Y114178D02*X209341D01*
X207841Y114678D02*X208341Y114178D01*
X207817Y26398D02*X208617D01*
Y22898D01*
X208117Y22398D02*X208617Y22898D01*
X207617Y22398D02*X208117D01*
X207117Y22898D02*X207617Y22398D01*
X207117Y23398D02*Y22898D01*
X209817Y26398D02*X211817D01*
X209817D02*Y24398D01*
X210317Y24898D01*
X211317D01*
X211817Y24398D01*
Y22898D01*
X211317Y22398D02*X211817Y22898D01*
X210317Y22398D02*X211317D01*
X209817Y22898D02*X210317Y22398D01*
X243265Y119735D02*X244565D01*
X242565Y120435D02*X243265Y119735D01*
X242565Y123035D02*Y120435D01*
Y123035D02*X243265Y123735D01*
X244565D01*
X245765Y120235D02*X246265Y119735D01*
X245765Y121035D02*Y120235D01*
Y121035D02*X246465Y121735D01*
X247065D01*
X247765Y121035D01*
Y120235D01*
X247265Y119735D02*X247765Y120235D01*
X246265Y119735D02*X247265D01*
X245765Y122435D02*X246465Y121735D01*
X245765Y123235D02*Y122435D01*
Y123235D02*X246265Y123735D01*
X247265D01*
X247765Y123235D01*
Y122435D01*
X247065Y121735D02*X247765Y122435D01*
X243815Y127941D02*X245115D01*
X243115Y128641D02*X243815Y127941D01*
X243115Y131241D02*Y128641D01*
Y131241D02*X243815Y131941D01*
X245115D01*
X246315Y131441D02*X246815Y131941D01*
X248315D01*
X248815Y131441D01*
Y130441D01*
X246315Y127941D02*X248815Y130441D01*
X246315Y127941D02*X248815D01*
X250015Y128441D02*X250515Y127941D01*
X250015Y131441D02*Y128441D01*
Y131441D02*X250515Y131941D01*
X251515D01*
X252015Y131441D01*
Y128441D01*
X251515Y127941D02*X252015Y128441D01*
X250515Y127941D02*X251515D01*
X250015Y128941D02*X252015Y130941D01*
X223265Y128672D02*X224565D01*
X222565Y129372D02*X223265Y128672D01*
X222565Y131972D02*Y129372D01*
Y131972D02*X223265Y132672D01*
X224565D01*
X225765Y132172D02*X226265Y132672D01*
X227765D01*
X228265Y132172D01*
Y131172D01*
X225765Y128672D02*X228265Y131172D01*
X225765Y128672D02*X228265D01*
X229465Y132172D02*X229965Y132672D01*
X230965D01*
X231465Y132172D01*
X230965Y128672D02*X231465Y129172D01*
X229965Y128672D02*X230965D01*
X229465Y129172D02*X229965Y128672D01*
Y130872D02*X230965D01*
X231465Y132172D02*Y131372D01*
Y130372D02*Y129172D01*
Y130372D02*X230965Y130872D01*
X231465Y131372D02*X230965Y130872D01*
X240265Y211235D02*X241565D01*
X239565Y211935D02*X240265Y211235D01*
X239565Y214535D02*Y211935D01*
Y214535D02*X240265Y215235D01*
X241565D01*
X242765Y214435D02*X243565Y215235D01*
Y211235D01*
X242765D02*X244265D01*
X245965D02*X247465Y213235D01*
Y214735D02*Y213235D01*
X246965Y215235D02*X247465Y214735D01*
X245965Y215235D02*X246965D01*
X245465Y214735D02*X245965Y215235D01*
X245465Y214735D02*Y213735D01*
X245965Y213235D01*
X247465D01*
X244265Y221235D02*X245565D01*
X243565Y221935D02*X244265Y221235D01*
X243565Y224535D02*Y221935D01*
Y224535D02*X244265Y225235D01*
X245565D01*
X246765Y224435D02*X247565Y225235D01*
Y221235D01*
X246765D02*X248265D01*
X249465Y221735D02*X249965Y221235D01*
X249465Y224735D02*Y221735D01*
Y224735D02*X249965Y225235D01*
X250965D01*
X251465Y224735D01*
Y221735D01*
X250965Y221235D02*X251465Y221735D01*
X249965Y221235D02*X250965D01*
X249465Y222235D02*X251465Y224235D01*
X248400Y267700D02*X250400D01*
X250900Y267200D01*
Y266200D01*
X250400Y265700D02*X250900Y266200D01*
X248900Y265700D02*X250400D01*
X248900Y267700D02*Y263700D01*
X249700Y265700D02*X250900Y263700D01*
X252100Y267200D02*X252600Y267700D01*
X254100D01*
X254600Y267200D01*
Y266200D01*
X252100Y263700D02*X254600Y266200D01*
X252100Y263700D02*X254600D01*
X231953Y177395D02*Y173895D01*
X232453Y173395D01*
X233453D01*
X233953Y173895D01*
Y177395D02*Y173895D01*
X235153Y176595D02*X235953Y177395D01*
Y173395D01*
X235153D02*X236653D01*
X236700Y327700D02*X238000D01*
X236000Y328400D02*X236700Y327700D01*
X236000Y331000D02*Y328400D01*
Y331000D02*X236700Y331700D01*
X238000D01*
X239200Y330900D02*X240000Y331700D01*
Y327700D01*
X239200D02*X240700D01*
X228750Y263000D02*Y259500D01*
X229250Y259000D01*
X230250D01*
X230750Y259500D01*
Y263000D02*Y259500D01*
X231950Y260500D02*X233950Y263000D01*
X231950Y260500D02*X234450D01*
X233950Y263000D02*Y259000D01*
X171650Y262900D02*Y259400D01*
X172150Y258900D01*
X173150D01*
X173650Y259400D01*
Y262900D02*Y259400D01*
X174850Y262900D02*X176850D01*
X174850D02*Y260900D01*
X175350Y261400D01*
X176350D01*
X176850Y260900D01*
Y259400D01*
X176350Y258900D02*X176850Y259400D01*
X175350Y258900D02*X176350D01*
X174850Y259400D02*X175350Y258900D01*
X139300Y267200D02*X141300D01*
X141800Y266700D01*
Y265700D01*
X141300Y265200D02*X141800Y265700D01*
X139800Y265200D02*X141300D01*
X139800Y267200D02*Y263200D01*
X140600Y265200D02*X141800Y263200D01*
X143000Y266400D02*X143800Y267200D01*
Y263200D01*
X143000D02*X144500D01*
X137765Y285735D02*X139065D01*
X137065Y286435D02*X137765Y285735D01*
X137065Y289035D02*Y286435D01*
Y289035D02*X137765Y289735D01*
X139065D01*
X140265Y288935D02*X141065Y289735D01*
Y285735D01*
X140265D02*X141765D01*
X144465Y289735D02*X144965Y289235D01*
X143465Y289735D02*X144465D01*
X142965Y289235D02*X143465Y289735D01*
X142965Y289235D02*Y286235D01*
X143465Y285735D01*
X144465Y287935D02*X144965Y287435D01*
X142965Y287935D02*X144465D01*
X143465Y285735D02*X144465D01*
X144965Y286235D01*
Y287435D02*Y286235D01*
X244700Y287200D02*X246000D01*
X244000Y287900D02*X244700Y287200D01*
X244000Y290500D02*Y287900D01*
Y290500D02*X244700Y291200D01*
X246000D01*
X247200Y290400D02*X248000Y291200D01*
Y287200D01*
X247200D02*X248700D01*
X249900Y291200D02*X251900D01*
X249900D02*Y289200D01*
X250400Y289700D01*
X251400D01*
X251900Y289200D01*
Y287700D01*
X251400Y287200D02*X251900Y287700D01*
X250400Y287200D02*X251400D01*
X249900Y287700D02*X250400Y287200D01*
X292865Y28609D02*X294165D01*
X292165Y29309D02*X292865Y28609D01*
X292165Y31909D02*Y29309D01*
Y31909D02*X292865Y32609D01*
X294165D01*
X295365Y32109D02*X295865Y32609D01*
X297365D01*
X297865Y32109D01*
Y31109D01*
X295365Y28609D02*X297865Y31109D01*
X295365Y28609D02*X297865D01*
X299065Y32109D02*X299565Y32609D01*
X301065D01*
X301565Y32109D01*
Y31109D01*
X299065Y28609D02*X301565Y31109D01*
X299065Y28609D02*X301565D01*
X159300Y28200D02*Y24200D01*
Y28200D02*X161300D01*
X159300Y26400D02*X160800D01*
X162500Y27700D02*X163000Y28200D01*
X164500D01*
X165000Y27700D01*
Y26700D01*
X162500Y24200D02*X165000Y26700D01*
X162500Y24200D02*X165000D01*
X134639Y35567D02*Y31567D01*
X135939Y35567D02*X136639Y34867D01*
Y32267D01*
X135939Y31567D02*X136639Y32267D01*
X134139Y31567D02*X135939D01*
X134139Y35567D02*X135939D01*
X137839Y35067D02*X138339Y35567D01*
X139339D01*
X139839Y35067D01*
X139339Y31567D02*X139839Y32067D01*
X138339Y31567D02*X139339D01*
X137839Y32067D02*X138339Y31567D01*
Y33767D02*X139339D01*
X139839Y35067D02*Y34267D01*
Y33267D02*Y32067D01*
Y33267D02*X139339Y33767D01*
X139839Y34267D02*X139339Y33767D01*
X273265Y125735D02*X274565D01*
X272565Y126435D02*X273265Y125735D01*
X272565Y129035D02*Y126435D01*
Y129035D02*X273265Y129735D01*
X274565D01*
X275765Y129235D02*X276265Y129735D01*
X277765D01*
X278265Y129235D01*
Y128235D01*
X275765Y125735D02*X278265Y128235D01*
X275765Y125735D02*X278265D01*
X279465Y126235D02*X279965Y125735D01*
X279465Y127035D02*Y126235D01*
Y127035D02*X280165Y127735D01*
X280765D01*
X281465Y127035D01*
Y126235D01*
X280965Y125735D02*X281465Y126235D01*
X279965Y125735D02*X280965D01*
X279465Y128435D02*X280165Y127735D01*
X279465Y129235D02*Y128435D01*
Y129235D02*X279965Y129735D01*
X280965D01*
X281465Y129235D01*
Y128435D01*
X280765Y127735D02*X281465Y128435D01*
X290700Y63500D02*X291500D01*
Y60000D01*
X291000Y59500D02*X291500Y60000D01*
X290500Y59500D02*X291000D01*
X290000Y60000D02*X290500Y59500D01*
X290000Y60500D02*Y60000D01*
X294200Y63500D02*X294700Y63000D01*
X293200Y63500D02*X294200D01*
X292700Y63000D02*X293200Y63500D01*
X292700Y63000D02*Y60000D01*
X293200Y59500D01*
X294200Y61700D02*X294700Y61200D01*
X292700Y61700D02*X294200D01*
X293200Y59500D02*X294200D01*
X294700Y60000D01*
Y61200D02*Y60000D01*
X281000Y263200D02*Y259700D01*
X281500Y259200D01*
X282500D01*
X283000Y259700D01*
Y263200D02*Y259700D01*
X284200Y262700D02*X284700Y263200D01*
X285700D01*
X286200Y262700D01*
X285700Y259200D02*X286200Y259700D01*
X284700Y259200D02*X285700D01*
X284200Y259700D02*X284700Y259200D01*
Y261400D02*X285700D01*
X286200Y262700D02*Y261900D01*
Y260900D02*Y259700D01*
Y260900D02*X285700Y261400D01*
X286200Y261900D02*X285700Y261400D01*
X302765Y221235D02*X304065D01*
X302065Y221935D02*X302765Y221235D01*
X302065Y224535D02*Y221935D01*
Y224535D02*X302765Y225235D01*
X304065D01*
X305265Y224735D02*X305765Y225235D01*
X306765D01*
X307265Y224735D01*
X306765Y221235D02*X307265Y221735D01*
X305765Y221235D02*X306765D01*
X305265Y221735D02*X305765Y221235D01*
Y223435D02*X306765D01*
X307265Y224735D02*Y223935D01*
Y222935D02*Y221735D01*
Y222935D02*X306765Y223435D01*
X307265Y223935D02*X306765Y223435D01*
X295341Y216678D02*X297341D01*
X297841Y216178D01*
Y215178D01*
X297341Y214678D02*X297841Y215178D01*
X295841Y214678D02*X297341D01*
X295841Y216678D02*Y212678D01*
X296641Y214678D02*X297841Y212678D01*
X299041Y216178D02*X299541Y216678D01*
X300541D01*
X301041Y216178D01*
X300541Y212678D02*X301041Y213178D01*
X299541Y212678D02*X300541D01*
X299041Y213178D02*X299541Y212678D01*
Y214878D02*X300541D01*
X301041Y216178D02*Y215378D01*
Y214378D02*Y213178D01*
Y214378D02*X300541Y214878D01*
X301041Y215378D02*X300541Y214878D01*
X380700Y173700D02*X381500D01*
Y170200D01*
X381000Y169700D02*X381500Y170200D01*
X380500Y169700D02*X381000D01*
X380000Y170200D02*X380500Y169700D01*
X380000Y170700D02*Y170200D01*
X382700Y172900D02*X383500Y173700D01*
Y169700D01*
X382700D02*X384200D01*
X385400Y172900D02*X386200Y173700D01*
Y169700D01*
X385400D02*X386900D01*
X341391Y212209D02*Y209209D01*
Y212209D02*X341891Y212709D01*
X342891D01*
X343391Y212209D01*
Y209709D01*
X342391Y208709D02*X343391Y209709D01*
X341891Y208709D02*X342391D01*
X341391Y209209D02*X341891Y208709D01*
X342391Y210209D02*X343391Y208709D01*
X344591Y211909D02*X345391Y212709D01*
Y208709D01*
X344591D02*X346091D01*
X381100Y200900D02*X381900D01*
Y197400D01*
X381400Y196900D02*X381900Y197400D01*
X380900Y196900D02*X381400D01*
X380400Y197400D02*X380900Y196900D01*
X380400Y197900D02*Y197400D01*
X383100Y200100D02*X383900Y200900D01*
Y196900D01*
X383100D02*X384600D01*
X385800Y197400D02*X386300Y196900D01*
X385800Y200400D02*Y197400D01*
Y200400D02*X386300Y200900D01*
X387300D01*
X387800Y200400D01*
Y197400D01*
X387300Y196900D02*X387800Y197400D01*
X386300Y196900D02*X387300D01*
X385800Y197900D02*X387800Y199900D01*
X273328Y203735D02*X274628D01*
X272628Y204435D02*X273328Y203735D01*
X272628Y207035D02*Y204435D01*
Y207035D02*X273328Y207735D01*
X274628D01*
X275828Y207235D02*X276328Y207735D01*
X277828D01*
X278328Y207235D01*
Y206235D01*
X275828Y203735D02*X278328Y206235D01*
X275828Y203735D02*X278328D01*
X279528Y206935D02*X280328Y207735D01*
Y203735D01*
X279528D02*X281028D01*
X304600Y193600D02*Y189600D01*
X306600D01*
X307800Y191800D02*X309300D01*
X307800Y189600D02*X309800D01*
X307800Y193600D02*Y189600D01*
Y193600D02*X309800D01*
X311500D02*Y189600D01*
X312800Y193600D02*X313500Y192900D01*
Y190300D01*
X312800Y189600D02*X313500Y190300D01*
X311000Y189600D02*X312800D01*
X311000Y193600D02*X312800D01*
X314700Y192800D02*X315500Y193600D01*
Y189600D01*
X314700D02*X316200D01*
X285828Y174798D02*X287128D01*
X285128Y175498D02*X285828Y174798D01*
X285128Y178098D02*Y175498D01*
Y178098D02*X285828Y178798D01*
X287128D01*
X288328Y178298D02*X288828Y178798D01*
X290328D01*
X290828Y178298D01*
Y177298D01*
X288328Y174798D02*X290828Y177298D01*
X288328Y174798D02*X290828D01*
X293528Y178798D02*X294028Y178298D01*
X292528Y178798D02*X293528D01*
X292028Y178298D02*X292528Y178798D01*
X292028Y178298D02*Y175298D01*
X292528Y174798D01*
X293528Y176998D02*X294028Y176498D01*
X292028Y176998D02*X293528D01*
X292528Y174798D02*X293528D01*
X294028Y175298D01*
Y176498D02*Y175298D01*
X274328Y180735D02*X275628D01*
X273628Y181435D02*X274328Y180735D01*
X273628Y184035D02*Y181435D01*
Y184035D02*X274328Y184735D01*
X275628D01*
X276828Y184235D02*X277328Y184735D01*
X278828D01*
X279328Y184235D01*
Y183235D01*
X276828Y180735D02*X279328Y183235D01*
X276828Y180735D02*X279328D01*
X280528Y182235D02*X282528Y184735D01*
X280528Y182235D02*X283028D01*
X282528Y184735D02*Y180735D01*
X286142Y164598D02*X287442D01*
X285442Y165298D02*X286142Y164598D01*
X285442Y167898D02*Y165298D01*
Y167898D02*X286142Y168598D01*
X287442D01*
X288642Y168098D02*X289142Y168598D01*
X290642D01*
X291142Y168098D01*
Y167098D01*
X288642Y164598D02*X291142Y167098D01*
X288642Y164598D02*X291142D01*
X292842D02*X294842Y168598D01*
X292342D02*X294842D01*
X381700Y123200D02*X382500D01*
Y119700D01*
X382000Y119200D02*X382500Y119700D01*
X381500Y119200D02*X382000D01*
X381000Y119700D02*X381500Y119200D01*
X381000Y120200D02*Y119700D01*
X383700Y122400D02*X384500Y123200D01*
Y119200D01*
X383700D02*X385200D01*
X386400Y122700D02*X386900Y123200D01*
X388400D01*
X388900Y122700D01*
Y121700D01*
X386400Y119200D02*X388900Y121700D01*
X386400Y119200D02*X388900D01*
X318000Y188700D02*X320000D01*
X320500Y188200D01*
Y187200D01*
X320000Y186700D02*X320500Y187200D01*
X318500Y186700D02*X320000D01*
X318500Y188700D02*Y184700D01*
X319300Y186700D02*X320500Y184700D01*
X323200Y188700D02*X323700Y188200D01*
X322200Y188700D02*X323200D01*
X321700Y188200D02*X322200Y188700D01*
X321700Y188200D02*Y185200D01*
X322200Y184700D01*
X323200Y186900D02*X323700Y186400D01*
X321700Y186900D02*X323200D01*
X322200Y184700D02*X323200D01*
X323700Y185200D01*
Y186400D02*Y185200D01*
X325000Y229700D02*X327000D01*
X327500Y229200D01*
Y228200D01*
X327000Y227700D02*X327500Y228200D01*
X325500Y227700D02*X327000D01*
X325500Y229700D02*Y225700D01*
X326300Y227700D02*X327500Y225700D01*
X329200D02*X331200Y229700D01*
X328700D02*X331200D01*
X115100Y149700D02*Y148900D01*
X111600D02*X115100D01*
X111100Y149400D02*X111600Y148900D01*
X111100Y149900D02*Y149400D01*
X111600Y150400D02*X111100Y149900D01*
X111600Y150400D02*X112100D01*
X111100Y147200D02*X113100Y145700D01*
X114600D01*
X115100Y146200D02*X114600Y145700D01*
X115100Y147200D02*Y146200D01*
X114600Y147700D02*X115100Y147200D01*
X113600Y147700D02*X114600D01*
X113600D02*X113100Y147200D01*
Y145700D01*
X110400Y121300D02*X111700D01*
X109700Y122000D02*X110400Y121300D01*
X109700Y124600D02*Y122000D01*
Y124600D02*X110400Y125300D01*
X111700D01*
X112900Y124800D02*X113400Y125300D01*
X114900D01*
X115400Y124800D01*
Y123800D01*
X112900Y121300D02*X115400Y123800D01*
X112900Y121300D02*X115400D01*
X111000Y287500D02*X112300D01*
X110300Y288200D02*X111000Y287500D01*
X110300Y290800D02*Y288200D01*
Y290800D02*X111000Y291500D01*
X112300D01*
X113500Y290700D02*X114300Y291500D01*
Y287500D01*
X113500D02*X115000D01*
X116200Y289000D02*X118200Y291500D01*
X116200Y289000D02*X118700D01*
X118200Y291500D02*Y287500D01*
X42700Y329700D02*X43500D01*
Y326200D01*
X43000Y325700D02*X43500Y326200D01*
X42500Y325700D02*X43000D01*
X42000Y326200D02*X42500Y325700D01*
X42000Y326700D02*Y326200D01*
X45200Y325700D02*X47200Y329700D01*
X44700D02*X47200D01*
X29581Y272708D02*Y268708D01*
X30881Y272708D02*X31581Y272008D01*
Y269408D01*
X30881Y268708D02*X31581Y269408D01*
X29081Y268708D02*X30881D01*
X29081Y272708D02*X30881D01*
X32781Y272208D02*X33281Y272708D01*
X34781D01*
X35281Y272208D01*
Y271208D01*
X32781Y268708D02*X35281Y271208D01*
X32781Y268708D02*X35281D01*
X38700Y280700D02*X39500D01*
Y277200D01*
X39000Y276700D02*X39500Y277200D01*
X38500Y276700D02*X39000D01*
X38000Y277200D02*X38500Y276700D01*
X38000Y277700D02*Y277200D01*
X40700Y280200D02*X41200Y280700D01*
X42200D01*
X42700Y280200D01*
X42200Y276700D02*X42700Y277200D01*
X41200Y276700D02*X42200D01*
X40700Y277200D02*X41200Y276700D01*
Y278900D02*X42200D01*
X42700Y280200D02*Y279400D01*
Y278400D02*Y277200D01*
Y278400D02*X42200Y278900D01*
X42700Y279400D02*X42200Y278900D01*
X22963Y312619D02*Y308619D01*
Y312619D02*X24963D01*
X22963Y310819D02*X24463D01*
X26163Y311819D02*X26963Y312619D01*
Y308619D01*
X26163D02*X27663D01*
X10200Y390200D02*X11000D01*
Y386700D01*
X10500Y386200D02*X11000Y386700D01*
X10000Y386200D02*X10500D01*
X9500Y386700D02*X10000Y386200D01*
X9500Y387200D02*Y386700D01*
X12200Y389400D02*X13000Y390200D01*
Y386200D01*
X12200D02*X13700D01*
X90709Y272010D02*Y268010D01*
X92009Y272010D02*X92709Y271310D01*
Y268710D01*
X92009Y268010D02*X92709Y268710D01*
X90209Y268010D02*X92009D01*
X90209Y272010D02*X92009D01*
X93909Y271210D02*X94709Y272010D01*
Y268010D01*
X93909D02*X95409D01*
X97250Y195950D02*Y192450D01*
X97750Y191950D01*
X98750D01*
X99250Y192450D01*
Y195950D02*Y192450D01*
X100450Y195450D02*X100950Y195950D01*
X102450D01*
X102950Y195450D01*
Y194450D01*
X100450Y191950D02*X102950Y194450D01*
X100450Y191950D02*X102950D01*
X93577Y173788D02*X94877D01*
X92877Y174488D02*X93577Y173788D01*
X92877Y177088D02*Y174488D01*
Y177088D02*X93577Y177788D01*
X94877D01*
X96577Y173788D02*X98577Y177788D01*
X96077D02*X98577D01*
X67500Y226700D02*X69500D01*
X70000Y226200D01*
Y225200D01*
X69500Y224700D02*X70000Y225200D01*
X68000Y224700D02*X69500D01*
X68000Y226700D02*Y222700D01*
X68800Y224700D02*X70000Y222700D01*
X71200Y223200D02*X71700Y222700D01*
X71200Y224000D02*Y223200D01*
Y224000D02*X71900Y224700D01*
X72500D01*
X73200Y224000D01*
Y223200D01*
X72700Y222700D02*X73200Y223200D01*
X71700Y222700D02*X72700D01*
X71200Y225400D02*X71900Y224700D01*
X71200Y226200D02*Y225400D01*
Y226200D02*X71700Y226700D01*
X72700D01*
X73200Y226200D01*
Y225400D01*
X72500Y224700D02*X73200Y225400D01*
X73106Y111580D02*X74406D01*
X72406Y112280D02*X73106Y111580D01*
X72406Y114880D02*Y112280D01*
Y114880D02*X73106Y115580D01*
X74406D01*
X75606Y114780D02*X76406Y115580D01*
Y111580D01*
X75606D02*X77106D01*
X78306Y115080D02*X78806Y115580D01*
X79806D01*
X80306Y115080D01*
X79806Y111580D02*X80306Y112080D01*
X78806Y111580D02*X79806D01*
X78306Y112080D02*X78806Y111580D01*
Y113780D02*X79806D01*
X80306Y115080D02*Y114280D01*
Y113280D02*Y112080D01*
Y113280D02*X79806Y113780D01*
X80306Y114280D02*X79806Y113780D01*
X97662Y84010D02*Y80510D01*
X98162Y80010D01*
X99162D01*
X99662Y80510D01*
Y84010D02*Y80510D01*
X102362Y84010D02*X102862Y83510D01*
X101362Y84010D02*X102362D01*
X100862Y83510D02*X101362Y84010D01*
X100862Y83510D02*Y80510D01*
X101362Y80010D01*
X102362Y82210D02*X102862Y81710D01*
X100862Y82210D02*X102362D01*
X101362Y80010D02*X102362D01*
X102862Y80510D01*
Y81710D02*Y80510D01*
X49606Y47580D02*X50906D01*
X48906Y48280D02*X49606Y47580D01*
X48906Y50880D02*Y48280D01*
Y50880D02*X49606Y51580D01*
X50906D01*
X52106Y50780D02*X52906Y51580D01*
Y47580D01*
X52106D02*X53606D01*
X54806Y51080D02*X55306Y51580D01*
X56806D01*
X57306Y51080D01*
Y50080D01*
X54806Y47580D02*X57306Y50080D01*
X54806Y47580D02*X57306D01*
X28700Y253700D02*X30000D01*
X28000Y254400D02*X28700Y253700D01*
X28000Y257000D02*Y254400D01*
Y257000D02*X28700Y257700D01*
X30000D01*
X31200Y255200D02*X33200Y257700D01*
X31200Y255200D02*X33700D01*
X33200Y257700D02*Y253700D01*
X40077Y173788D02*X41377D01*
X39377Y174488D02*X40077Y173788D01*
X39377Y177088D02*Y174488D01*
Y177088D02*X40077Y177788D01*
X41377D01*
X42577D02*X44577D01*
X42577D02*Y175788D01*
X43077Y176288D01*
X44077D01*
X44577Y175788D01*
Y174288D01*
X44077Y173788D02*X44577Y174288D01*
X43077Y173788D02*X44077D01*
X42577Y174288D02*X43077Y173788D01*
X35200Y237700D02*X36500D01*
X34500Y238400D02*X35200Y237700D01*
X34500Y241000D02*Y238400D01*
Y241000D02*X35200Y241700D01*
X36500D01*
X39200D02*X39700Y241200D01*
X38200Y241700D02*X39200D01*
X37700Y241200D02*X38200Y241700D01*
X37700Y241200D02*Y238200D01*
X38200Y237700D01*
X39200Y239900D02*X39700Y239400D01*
X37700Y239900D02*X39200D01*
X38200Y237700D02*X39200D01*
X39700Y238200D01*
Y239400D02*Y238200D01*
X26000Y223700D02*X28000D01*
X28500Y223200D01*
Y222200D01*
X28000Y221700D02*X28500Y222200D01*
X26500Y221700D02*X28000D01*
X26500Y223700D02*Y219700D01*
X27300Y221700D02*X28500Y219700D01*
X30200D02*X31700Y221700D01*
Y223200D02*Y221700D01*
X31200Y223700D02*X31700Y223200D01*
X30200Y223700D02*X31200D01*
X29700Y223200D02*X30200Y223700D01*
X29700Y223200D02*Y222200D01*
X30200Y221700D01*
X31700D01*
M02*
