G04 start of page 12 for group -4062 idx -4062 *
G04 Title: (unknown), soldermask *
G04 Creator: pcb 20140316 *
G04 CreationDate: Sun 31 Aug 2014 13:13:00 GMT UTC *
G04 For: michael *
G04 Format: Gerber/RS-274X *
G04 PCB-Dimensions (mil): 3930.00 3937.00 *
G04 PCB-Coordinate-Origin: lower left *
%MOIN*%
%FSLAX25Y25*%
%LNBOTTOMMASK*%
%ADD178C,0.2560*%
%ADD177C,0.0690*%
%ADD176C,0.0808*%
%ADD175C,0.0001*%
%ADD174C,0.0660*%
G54D174*X130500Y91700D03*
X140500D03*
X130500Y81700D03*
X140500D03*
G54D175*G36*
X127200Y115000D02*Y108400D01*
X133800D01*
Y115000D01*
X127200D01*
G37*
G54D174*X140500Y111700D03*
X130500Y101700D03*
X140500D03*
X130500Y71700D03*
X140500D03*
X130500Y61700D03*
Y51700D03*
Y41700D03*
X140500Y61700D03*
Y51700D03*
Y41700D03*
G54D175*G36*
X136560Y149940D02*Y141860D01*
X144640D01*
Y149940D01*
X136560D01*
G37*
G54D176*X130600Y145900D03*
X140600Y155900D03*
X130561Y155939D03*
X140600Y165900D03*
X130600D03*
X140600Y175900D03*
Y185900D03*
Y195900D03*
X130600Y175900D03*
Y185900D03*
Y195900D03*
Y205900D03*
Y215900D03*
Y225900D03*
X140600Y205900D03*
Y215900D03*
Y225900D03*
Y235900D03*
X130600D03*
G54D175*G36*
X346700Y182000D02*Y175400D01*
X353300D01*
Y182000D01*
X346700D01*
G37*
G54D174*X360000Y178700D03*
X350000Y168700D03*
X360000D03*
G54D175*G36*
X346700Y192000D02*Y185400D01*
X353300D01*
Y192000D01*
X346700D01*
G37*
G54D174*X360000Y188700D03*
X350000Y158700D03*
X360000D03*
G54D175*G36*
X346700Y202000D02*Y195400D01*
X353300D01*
Y202000D01*
X346700D01*
G37*
G54D174*X360000Y198700D03*
X213400Y275000D03*
X223400D03*
G54D175*G36*
X237800Y278300D02*Y271700D01*
X244400D01*
Y278300D01*
X237800D01*
G37*
G54D174*X251100Y275000D03*
X261100D03*
X271100D03*
X281100D03*
X291100D03*
X301100D03*
X311100D03*
X321100D03*
X331100D03*
X350000Y148700D03*
G54D175*G36*
X346700Y132000D02*Y125400D01*
X353300D01*
Y132000D01*
X346700D01*
G37*
G54D174*X350000Y118700D03*
G54D175*G36*
X346700Y142000D02*Y135400D01*
X353300D01*
Y142000D01*
X346700D01*
G37*
G54D174*X360000Y148700D03*
Y128700D03*
Y118700D03*
Y138700D03*
X350000Y108700D03*
Y98700D03*
Y88700D03*
Y78700D03*
X360000D03*
X350000Y68700D03*
Y58700D03*
Y48700D03*
X360000Y68700D03*
Y58700D03*
Y48700D03*
Y108700D03*
Y98700D03*
Y88700D03*
G54D175*G36*
X41700Y312000D02*Y305400D01*
X48300D01*
Y312000D01*
X41700D01*
G37*
G54D174*X45000Y318700D03*
G54D175*G36*
X41700Y292000D02*Y285400D01*
X48300D01*
Y292000D01*
X41700D01*
G37*
G54D174*X45000Y298700D03*
G54D177*X38000Y367515D03*
Y387200D03*
G54D175*G36*
X130100Y278300D02*Y271700D01*
X136700D01*
Y278300D01*
X130100D01*
G37*
G54D174*X143400Y275000D03*
X153400D03*
X163400D03*
X173400D03*
X183400D03*
X193400D03*
X203400D03*
G54D175*G36*
X144600Y354400D02*Y347800D01*
X151200D01*
Y354400D01*
X144600D01*
G37*
G54D174*X153300Y362300D03*
X164100D03*
G54D178*X120900Y356700D03*
G54D174*X158700Y351100D03*
X169500D03*
X180300D03*
X174900Y362300D03*
X185700D03*
X196500D03*
X207300D03*
X218100D03*
X228900D03*
X239700D03*
X250500D03*
X261300D03*
X272100D03*
G54D178*X304500Y356700D03*
G54D174*X191100Y351100D03*
X201900D03*
X212700D03*
X223500D03*
X234300D03*
X245100D03*
X255900D03*
X266700D03*
X277500D03*
M02*
