%TF.GenerationSoftware,KiCad,Pcbnew,8.0.4-8.0.4-0~ubuntu22.04.1*%
%TF.CreationDate,2024-07-18T12:52:15-06:00*%
%TF.ProjectId,Desktop_50_Pin_TopConn,4465736b-746f-4705-9f35-305f50696e5f,rev?*%
%TF.SameCoordinates,Original*%
%TF.FileFunction,Profile,NP*%
%FSLAX46Y46*%
G04 Gerber Fmt 4.6, Leading zero omitted, Abs format (unit mm)*
G04 Created by KiCad (PCBNEW 8.0.4-8.0.4-0~ubuntu22.04.1) date 2024-07-18 12:52:15*
%MOMM*%
%LPD*%
G01*
G04 APERTURE LIST*
%TA.AperFunction,Profile*%
%ADD10C,0.100000*%
%TD*%
G04 APERTURE END LIST*
D10*
X148074138Y-91576800D02*
G75*
G02*
X148527312Y-91131036I437562J8400D01*
G01*
X148515938Y-93960800D02*
G75*
G02*
X148070096Y-93507624I-8438J437600D01*
G01*
X129355000Y-63800000D02*
X189204600Y-63804800D01*
X189204600Y-146405600D02*
X189204600Y-63804800D01*
X148070135Y-93507625D02*
X148074138Y-91576800D01*
X100000000Y-146410000D02*
X140716000Y-146410000D01*
X163644338Y-91130997D02*
X148527313Y-91130997D01*
X164089113Y-93431000D02*
G75*
G02*
X163635940Y-93780754I-437113J97900D01*
G01*
X163644338Y-91130997D02*
G75*
G02*
X164090106Y-91584171I8362J-437603D01*
G01*
X189204600Y-146405600D02*
X140716000Y-146410000D01*
X129355000Y-63800000D02*
X100000000Y-63800000D01*
X164089113Y-93431000D02*
X164090141Y-91584172D01*
X100000000Y-63800000D02*
X100000000Y-146410000D01*
%TO.C,RP1*%
X149115938Y-102080800D02*
X149115938Y-94470800D01*
X162615938Y-102580800D02*
X149615938Y-102580800D01*
X163125938Y-94380800D02*
X163115938Y-102080800D01*
X148515938Y-93960800D02*
G75*
G02*
X149115938Y-94470800I83250J-510000D01*
G01*
X149615938Y-102580800D02*
G75*
G02*
X149115938Y-102080800I0J500000D01*
G01*
X163115938Y-102080800D02*
G75*
G02*
X162615938Y-102580800I-500001J1D01*
G01*
X163125938Y-94380800D02*
G75*
G02*
X163635938Y-93780800I510002J83248D01*
G01*
%TD*%
M02*
