%TF.GenerationSoftware,KiCad,Pcbnew,6.0.5-a6ca702e91~116~ubuntu21.10.1*%
%TF.CreationDate,2023-04-15T06:22:21-06:00*%
%TF.ProjectId,Centronics_50Pin,43656e74-726f-46e6-9963-735f35305069,rev?*%
%TF.SameCoordinates,Original*%
%TF.FileFunction,Legend,Bot*%
%TF.FilePolarity,Positive*%
%FSLAX46Y46*%
G04 Gerber Fmt 4.6, Leading zero omitted, Abs format (unit mm)*
G04 Created by KiCad (PCBNEW 6.0.5-a6ca702e91~116~ubuntu21.10.1) date 2023-04-15 06:22:21*
%MOMM*%
%LPD*%
G01*
G04 APERTURE LIST*
%ADD10C,0.150000*%
G04 APERTURE END LIST*
D10*
X166035238Y-75331580D02*
X166035238Y-74331580D01*
X165654285Y-74331580D01*
X165559047Y-74379200D01*
X165511428Y-74426819D01*
X165463809Y-74522057D01*
X165463809Y-74664914D01*
X165511428Y-74760152D01*
X165559047Y-74807771D01*
X165654285Y-74855390D01*
X166035238Y-74855390D01*
X164463809Y-75236342D02*
X164511428Y-75283961D01*
X164654285Y-75331580D01*
X164749523Y-75331580D01*
X164892380Y-75283961D01*
X164987619Y-75188723D01*
X165035238Y-75093485D01*
X165082857Y-74903009D01*
X165082857Y-74760152D01*
X165035238Y-74569676D01*
X164987619Y-74474438D01*
X164892380Y-74379200D01*
X164749523Y-74331580D01*
X164654285Y-74331580D01*
X164511428Y-74379200D01*
X164463809Y-74426819D01*
X163701904Y-74807771D02*
X163559047Y-74855390D01*
X163511428Y-74903009D01*
X163463809Y-74998247D01*
X163463809Y-75141104D01*
X163511428Y-75236342D01*
X163559047Y-75283961D01*
X163654285Y-75331580D01*
X164035238Y-75331580D01*
X164035238Y-74331580D01*
X163701904Y-74331580D01*
X163606666Y-74379200D01*
X163559047Y-74426819D01*
X163511428Y-74522057D01*
X163511428Y-74617295D01*
X163559047Y-74712533D01*
X163606666Y-74760152D01*
X163701904Y-74807771D01*
X164035238Y-74807771D01*
X161463809Y-74569676D02*
X161559047Y-74522057D01*
X161749523Y-74522057D01*
X161844761Y-74569676D01*
X161940000Y-74664914D01*
X161987619Y-74760152D01*
X161987619Y-74950628D01*
X161940000Y-75045866D01*
X161844761Y-75141104D01*
X161749523Y-75188723D01*
X161559047Y-75188723D01*
X161463809Y-75141104D01*
X161654285Y-74188723D02*
X161892380Y-74236342D01*
X162130476Y-74379200D01*
X162273333Y-74617295D01*
X162320952Y-74855390D01*
X162273333Y-75093485D01*
X162130476Y-75331580D01*
X161892380Y-75474438D01*
X161654285Y-75522057D01*
X161416190Y-75474438D01*
X161178095Y-75331580D01*
X161035238Y-75093485D01*
X160987619Y-74855390D01*
X161035238Y-74617295D01*
X161178095Y-74379200D01*
X161416190Y-74236342D01*
X161654285Y-74188723D01*
X159940000Y-74331580D02*
X159368571Y-74331580D01*
X159654285Y-75331580D02*
X159654285Y-74331580D01*
X158654285Y-75283961D02*
X158749523Y-75331580D01*
X158940000Y-75331580D01*
X159035238Y-75283961D01*
X159082857Y-75188723D01*
X159082857Y-74807771D01*
X159035238Y-74712533D01*
X158940000Y-74664914D01*
X158749523Y-74664914D01*
X158654285Y-74712533D01*
X158606666Y-74807771D01*
X158606666Y-74903009D01*
X159082857Y-74998247D01*
X157749523Y-75283961D02*
X157844761Y-75331580D01*
X158035238Y-75331580D01*
X158130476Y-75283961D01*
X158178095Y-75236342D01*
X158225714Y-75141104D01*
X158225714Y-74855390D01*
X158178095Y-74760152D01*
X158130476Y-74712533D01*
X158035238Y-74664914D01*
X157844761Y-74664914D01*
X157749523Y-74712533D01*
X157320952Y-75331580D02*
X157320952Y-74331580D01*
X156892380Y-75331580D02*
X156892380Y-74807771D01*
X156940000Y-74712533D01*
X157035238Y-74664914D01*
X157178095Y-74664914D01*
X157273333Y-74712533D01*
X157320952Y-74760152D01*
X155654285Y-75331580D02*
X155654285Y-74331580D01*
X155654285Y-74712533D02*
X155559047Y-74664914D01*
X155368571Y-74664914D01*
X155273333Y-74712533D01*
X155225714Y-74760152D01*
X155178095Y-74855390D01*
X155178095Y-75141104D01*
X155225714Y-75236342D01*
X155273333Y-75283961D01*
X155368571Y-75331580D01*
X155559047Y-75331580D01*
X155654285Y-75283961D01*
X154844761Y-74664914D02*
X154606666Y-75331580D01*
X154368571Y-74664914D02*
X154606666Y-75331580D01*
X154701904Y-75569676D01*
X154749523Y-75617295D01*
X154844761Y-75664914D01*
X153273333Y-75045866D02*
X152797142Y-75045866D01*
X153368571Y-75331580D02*
X153035238Y-74331580D01*
X152701904Y-75331580D01*
X152368571Y-74664914D02*
X152368571Y-75331580D01*
X152368571Y-74760152D02*
X152320952Y-74712533D01*
X152225714Y-74664914D01*
X152082857Y-74664914D01*
X151987619Y-74712533D01*
X151940000Y-74807771D01*
X151940000Y-75331580D01*
X151035238Y-75331580D02*
X151035238Y-74331580D01*
X151035238Y-75283961D02*
X151130476Y-75331580D01*
X151320952Y-75331580D01*
X151416190Y-75283961D01*
X151463809Y-75236342D01*
X151511428Y-75141104D01*
X151511428Y-74855390D01*
X151463809Y-74760152D01*
X151416190Y-74712533D01*
X151320952Y-74664914D01*
X151130476Y-74664914D01*
X151035238Y-74712533D01*
X150559047Y-75331580D02*
X150559047Y-74664914D01*
X150559047Y-74855390D02*
X150511428Y-74760152D01*
X150463809Y-74712533D01*
X150368571Y-74664914D01*
X150273333Y-74664914D01*
X149797142Y-75331580D02*
X149892380Y-75283961D01*
X149940000Y-75236342D01*
X149987619Y-75141104D01*
X149987619Y-74855390D01*
X149940000Y-74760152D01*
X149892380Y-74712533D01*
X149797142Y-74664914D01*
X149654285Y-74664914D01*
X149559047Y-74712533D01*
X149511428Y-74760152D01*
X149463809Y-74855390D01*
X149463809Y-75141104D01*
X149511428Y-75236342D01*
X149559047Y-75283961D01*
X149654285Y-75331580D01*
X149797142Y-75331580D01*
X148606666Y-75331580D02*
X148606666Y-74331580D01*
X148606666Y-75283961D02*
X148701904Y-75331580D01*
X148892380Y-75331580D01*
X148987619Y-75283961D01*
X149035238Y-75236342D01*
X149082857Y-75141104D01*
X149082857Y-74855390D01*
X149035238Y-74760152D01*
X148987619Y-74712533D01*
X148892380Y-74664914D01*
X148701904Y-74664914D01*
X148606666Y-74712533D01*
X147701904Y-75331580D02*
X147701904Y-74807771D01*
X147749523Y-74712533D01*
X147844761Y-74664914D01*
X148035238Y-74664914D01*
X148130476Y-74712533D01*
X147701904Y-75283961D02*
X147797142Y-75331580D01*
X148035238Y-75331580D01*
X148130476Y-75283961D01*
X148178095Y-75188723D01*
X148178095Y-75093485D01*
X148130476Y-74998247D01*
X148035238Y-74950628D01*
X147797142Y-74950628D01*
X147701904Y-74903009D01*
X147178095Y-75283961D02*
X147178095Y-75331580D01*
X147225714Y-75426819D01*
X147273333Y-75474438D01*
X145511428Y-75331580D02*
X145987619Y-75331580D01*
X145987619Y-74331580D01*
X144701904Y-75331580D02*
X145178095Y-75331580D01*
X145178095Y-74331580D01*
X143797142Y-75236342D02*
X143844761Y-75283961D01*
X143987619Y-75331580D01*
X144082857Y-75331580D01*
X144225714Y-75283961D01*
X144320952Y-75188723D01*
X144368571Y-75093485D01*
X144416190Y-74903009D01*
X144416190Y-74760152D01*
X144368571Y-74569676D01*
X144320952Y-74474438D01*
X144225714Y-74379200D01*
X144082857Y-74331580D01*
X143987619Y-74331580D01*
X143844761Y-74379200D01*
X143797142Y-74426819D01*
M02*
