%TF.GenerationSoftware,KiCad,Pcbnew,6.0.5-a6ca702e91~116~ubuntu21.10.1*%
%TF.CreationDate,2023-04-15T06:22:21-06:00*%
%TF.ProjectId,Centronics_50Pin,43656e74-726f-46e6-9963-735f35305069,rev?*%
%TF.SameCoordinates,Original*%
%TF.FileFunction,Soldermask,Bot*%
%TF.FilePolarity,Negative*%
%FSLAX46Y46*%
G04 Gerber Fmt 4.6, Leading zero omitted, Abs format (unit mm)*
G04 Created by KiCad (PCBNEW 6.0.5-a6ca702e91~116~ubuntu21.10.1) date 2023-04-15 06:22:21*
%MOMM*%
%LPD*%
G01*
G04 APERTURE LIST*
G04 Aperture macros list*
%AMRoundRect*
0 Rectangle with rounded corners*
0 $1 Rounding radius*
0 $2 $3 $4 $5 $6 $7 $8 $9 X,Y pos of 4 corners*
0 Add a 4 corners polygon primitive as box body*
4,1,4,$2,$3,$4,$5,$6,$7,$8,$9,$2,$3,0*
0 Add four circle primitives for the rounded corners*
1,1,$1+$1,$2,$3*
1,1,$1+$1,$4,$5*
1,1,$1+$1,$6,$7*
1,1,$1+$1,$8,$9*
0 Add four rect primitives between the rounded corners*
20,1,$1+$1,$2,$3,$4,$5,0*
20,1,$1+$1,$4,$5,$6,$7,0*
20,1,$1+$1,$6,$7,$8,$9,0*
20,1,$1+$1,$8,$9,$2,$3,0*%
G04 Aperture macros list end*
%ADD10RoundRect,0.412500X-0.412500X-0.412500X0.412500X-0.412500X0.412500X0.412500X-0.412500X0.412500X0*%
%ADD11C,1.650000*%
%ADD12R,1.700000X1.700000*%
%ADD13O,1.700000X1.700000*%
%ADD14C,3.200000*%
%ADD15C,3.600000*%
%ADD16C,1.600000*%
G04 APERTURE END LIST*
D10*
%TO.C,RP1*%
X147828000Y-79670400D03*
D11*
X147828000Y-82210400D03*
X147828000Y-84750400D03*
X147828000Y-87290400D03*
X147828000Y-89830400D03*
X147828000Y-92370400D03*
X147828000Y-94910400D03*
X147828000Y-97450400D03*
X147828000Y-99990400D03*
X147828000Y-102530400D03*
X147828000Y-105070400D03*
X147828000Y-107610400D03*
X147828000Y-110150400D03*
X147828000Y-112690400D03*
X147828000Y-115230400D03*
X147828000Y-117770400D03*
X147828000Y-120310400D03*
X147828000Y-122850400D03*
X147828000Y-125390400D03*
X147828000Y-127930400D03*
X165608000Y-127930400D03*
X165608000Y-125390400D03*
X165608000Y-122850400D03*
X165608000Y-120310400D03*
X165608000Y-117770400D03*
X165608000Y-115230400D03*
X165608000Y-112690400D03*
X165608000Y-110150400D03*
X165608000Y-107610400D03*
X165608000Y-105070400D03*
X165608000Y-102530400D03*
X165608000Y-99990400D03*
X165608000Y-97450400D03*
X165608000Y-94910400D03*
X165608000Y-92370400D03*
X165608000Y-89830400D03*
X165608000Y-87290400D03*
X165608000Y-84750400D03*
X165608000Y-82210400D03*
X165608000Y-79670400D03*
%TD*%
D12*
%TO.C,J1*%
X114401600Y-90576400D03*
D13*
X116941600Y-90576400D03*
X119481600Y-90576400D03*
%TD*%
D14*
%TO.C,REF\u002A\u002A*%
X119126000Y-103682800D03*
%TD*%
D12*
%TO.C,J4*%
X134620000Y-102468600D03*
D13*
X132080000Y-102468600D03*
X134620000Y-99928600D03*
X132080000Y-99928600D03*
%TD*%
D15*
%TO.C,U10*%
X99511800Y-138369400D03*
X99511800Y-63519400D03*
D16*
X101801800Y-75024400D03*
X101801800Y-77184400D03*
X101801800Y-79344400D03*
X101801800Y-81504400D03*
X101801800Y-83664400D03*
X101801800Y-85824400D03*
X101801800Y-87984400D03*
X101801800Y-90144400D03*
X101801800Y-92304400D03*
X101801800Y-94464400D03*
X101801800Y-96624400D03*
X101801800Y-98784400D03*
X101801800Y-100944400D03*
X101801800Y-103104400D03*
X101801800Y-105264400D03*
X101801800Y-107424400D03*
X101801800Y-109584400D03*
X101801800Y-111744400D03*
X101801800Y-113904400D03*
X101801800Y-116064400D03*
X101801800Y-118224400D03*
X101801800Y-120384400D03*
X101801800Y-122544400D03*
X101801800Y-124704400D03*
X101801800Y-126864400D03*
X97511800Y-75024400D03*
X97511800Y-77184400D03*
X97511800Y-79344400D03*
X97511800Y-81504400D03*
X97511800Y-83664400D03*
X97511800Y-85824400D03*
X97511800Y-87984400D03*
X97511800Y-90144400D03*
X97511800Y-92304400D03*
X97511800Y-94464400D03*
X97511800Y-96624400D03*
X97511800Y-98784400D03*
X97511800Y-100944400D03*
X97511800Y-103104400D03*
X97511800Y-105264400D03*
X97511800Y-107424400D03*
X97511800Y-109584400D03*
X97511800Y-111744400D03*
X97511800Y-113904400D03*
X97511800Y-116064400D03*
X97511800Y-118224400D03*
X97511800Y-120384400D03*
X97511800Y-122544400D03*
X97511800Y-124704400D03*
X97511800Y-126864400D03*
%TD*%
M02*
