M48
; DRILL file {KiCad 6.0.5-a6ca702e91~116~ubuntu21.10.1} date Sat 15 Apr 2023 06:22:23 AM MDT
; FORMAT={-:-/ absolute / inch / decimal}
; #@! TF.CreationDate,2023-04-15T06:22:23-06:00
; #@! TF.GenerationSoftware,Kicad,Pcbnew,6.0.5-a6ca702e91~116~ubuntu21.10.1
; #@! TF.FileFunction,Plated,1,2,PTH
FMAT,2
INCH
; #@! TA.AperFunction,Plated,PTH,ViaDrill
T1C0.0118
; #@! TA.AperFunction,Plated,PTH,ViaDrill
T2C0.0157
; #@! TA.AperFunction,Plated,PTH,ComponentDrill
T3C0.0354
; #@! TA.AperFunction,Plated,PTH,ComponentDrill
T4C0.0394
; #@! TA.AperFunction,Plated,PTH,ComponentDrill
T5C0.0453
; #@! TA.AperFunction,Plated,PTH,ComponentDrill
T6C0.1220
%
G90
G05
T1
X4.102Y-3.678
X4.102Y-4.346
X4.103Y-4.573
X4.104Y-4.618
X4.1139Y-4.4421
X4.1153Y-4.5267
X4.116Y-4.782
X4.116Y-3.08
X4.117Y-3.143
X4.1172Y-4.6968
X4.119Y-3.205
X4.119Y-4.845
X4.12Y-4.91
X4.121Y-3.265
X4.122Y-2.996
X4.122Y-3.382
X4.1221Y-3.3281
X4.1251Y-3.4531
X4.126Y-3.654
X4.132Y-4.32
X4.14Y-3.888
X4.14Y-4.018
X4.15Y-3.736
X4.174Y-3.522
X4.2Y-4.178
X4.2Y-4.226
X4.2Y-4.272
X4.2733Y-2.7687
X4.298Y-4.374
X4.304Y-4.656
X4.374Y-3.372
X4.378Y-4.468
X4.382Y-2.758
X4.39Y-4.734
X4.4062Y-4.4878
X4.408Y-3.532
X4.41Y-3.76
X4.4293Y-4.4687
X4.444Y-4.654
X4.458Y-2.906
X4.47Y-3.35
X4.472Y-2.84
X4.48Y-3.758
X4.496Y-2.84
X4.51Y-4.48
X4.52Y-2.84
X4.52Y-3.35
X4.556Y-3.85
X4.56Y-3.73
X4.56Y-3.792
X4.56Y-4.48
X4.568Y-3.35
X4.606Y-4.48
X4.6259Y-4.6519
X4.646Y-3.85
X4.648Y-3.732
X4.648Y-3.792
X4.6609Y-3.1631
X4.666Y-3.2
X4.666Y-3.226
X4.684Y-4.5936
X4.7Y-4.84
X4.722Y-4.71
X4.7389Y-3.1631
X4.74Y-3.35
X4.76Y-3.884
X4.762Y-3.35
X4.766Y-4.904
X4.776Y-3.034
X4.776Y-3.23
X4.784Y-3.168
X4.784Y-3.35
X4.788Y-3.532
X4.808Y-4.458
X4.81Y-2.904
X4.81Y-4.548
X4.824Y-3.036
X4.826Y-4.476
X4.8261Y-3.2939
X4.83Y-3.384
X4.838Y-4.596
X4.8392Y-4.798
X4.84Y-5.002
X4.84Y-5.04
X4.844Y-4.494
X4.85Y-4.752
X4.874Y-4.448
X4.884Y-4.61
X4.892Y-4.374
X4.892Y-4.468
X4.915Y-4.183
X4.926Y-4.11
X4.93Y-4.738
X4.932Y-4.836
X4.9401Y-3.9379
X4.95Y-4.204
X4.96Y-4.328
X4.9613Y-4.4287
X4.968Y-4.608
X4.97Y-3.592
X4.974Y-3.368
X4.98Y-3.098
X4.994Y-2.972
X4.996Y-3.754
X4.996Y-3.892
X4.997Y-4.399
X5.002Y-4.328
X5.004Y-5.0229
X5.006Y-5.062
X5.018Y-4.878
X5.028Y-4.964
X5.029Y-4.291
X5.036Y-4.628
X5.04Y-3.642
X5.04Y-4.588
X5.046Y-3.298
X5.058Y-3.166
X5.062Y-4.424
X5.068Y-4.878
X5.068Y-4.962
X5.08Y-4.2196
X5.082Y-4.3089
X5.084Y-4.802
X5.09Y-4.596
X5.1056Y-2.9184
X5.106Y-2.97
X5.1096Y-3.0464
X5.11Y-3.098
X5.114Y-3.148
X5.132Y-2.882
X5.132Y-4.736
X5.134Y-3.022
X5.136Y-4.43
X5.154Y-3.604
X5.17Y-3.448
X5.172Y-4.1
X5.178Y-3.528
X5.18Y-3.254
X5.182Y-4.3246
X5.192Y-4.252
X5.192Y-4.404
X5.204Y-3.564
X5.204Y-4.7
X5.206Y-3.022
X5.206Y-3.496
X5.209Y-4.571
X5.21Y-3.446
X5.2134Y-3.3974
X5.216Y-3.162
X5.218Y-3.616
X5.221Y-4.535
X5.224Y-4.38
X5.226Y-2.89
X5.226Y-2.996
X5.226Y-2.944
X5.228Y-3.072
X5.2292Y-3.1232
X5.2404Y-4.3296
X5.256Y-4.304
X5.26Y-4.498
X5.2618Y-4.6506
X5.262Y-4.53
X5.272Y-4.2576
X5.298Y-3.752
X5.3Y-3.634
X5.3Y-3.69
X5.3Y-3.816
X5.301Y-4.667
X5.314Y-4.274
X5.325Y-3.809
X5.343Y-3.791
X5.35Y-4.464
X5.352Y-3.412
X5.376Y-3.21
X5.382Y-3.13
X5.382Y-3.412
X5.388Y-4.16
X5.392Y-4.762
X5.394Y-4.432
X5.406Y-4.85
X5.4076Y-4.307
X5.4076Y-4.5584
X5.4112Y-4.3808
X5.412Y-4.616
X5.412Y-4.6736
X5.422Y-3.624
X5.422Y-3.678
X5.422Y-3.734
X5.428Y-3.468
X5.428Y-3.564
X5.43Y-3.152
X5.43Y-3.176
X5.446Y-4.982
X5.466Y-3.812
X5.478Y-3.072
X5.482Y-2.948
X5.483Y-3.007
X5.484Y-3.368
X5.49Y-4.588
X5.49Y-4.666
X5.5Y-4.618
X5.506Y-2.982
X5.506Y-3.034
X5.506Y-3.084
X5.512Y-4.07
X5.5134Y-4.3366
X5.516Y-2.93
X5.52Y-4.142
X5.526Y-4.762
X5.526Y-4.984
X5.53Y-4.43
X5.538Y-3.984
X5.54Y-4.638
X5.558Y-4.728
X5.572Y-3.218
X5.586Y-4.22
X5.586Y-4.818
X5.586Y-4.9
X5.59Y-4.124
X5.596Y-4.036
X5.598Y-4.498
X5.6Y-4.73
X5.612Y-4.534
X5.6174Y-4.3366
X5.626Y-3.252
X5.626Y-3.724
X5.628Y-3.168
X5.628Y-4.9
X5.644Y-4.812
X5.658Y-4.038
X5.658Y-4.124
X5.712Y-3.33
X5.732Y-4.638
X5.736Y-4.736
X5.75Y-4.528
X5.752Y-4.246
X5.756Y-4.44
X5.882Y-4.418
X5.882Y-4.55
X5.886Y-4.254
X5.89Y-4.106
X5.89Y-4.618
X5.912Y-4.448
X5.916Y-5.018
X5.918Y-4.702
X5.92Y-4.298
X5.966Y-4.326
X5.994Y-4.298
X6.006Y-4.446
X6.03Y-3.946
X6.132Y-3.986
X6.142Y-3.836
X6.202Y-3.912
X6.244Y-3.736
X6.288Y-3.828
X6.4012Y-4.4152
X6.434Y-3.972
X6.448Y-4.236
X6.456Y-4.082
X6.458Y-4.532
X6.46Y-4.608
X6.462Y-4.448
X6.474Y-4.684
X6.564Y-5.102
T2
X4.888Y-3.606
X6.066Y-4.976
X6.104Y-4.952
X6.105Y-5.021
T3
X5.82Y-3.1366
X5.82Y-3.2366
X5.82Y-3.3366
X5.82Y-3.4366
X5.82Y-3.5366
X5.82Y-3.6366
X5.82Y-3.7366
X5.82Y-3.8366
X5.82Y-3.9366
X5.82Y-4.0366
X5.82Y-4.1366
X5.82Y-4.2366
X5.82Y-4.3366
X5.82Y-4.4366
X5.82Y-4.5366
X5.82Y-4.6366
X5.82Y-4.7366
X5.82Y-4.8366
X5.82Y-4.9366
X5.82Y-5.0366
X6.52Y-3.1366
X6.52Y-3.2366
X6.52Y-3.3366
X6.52Y-3.4366
X6.52Y-3.5366
X6.52Y-3.6366
X6.52Y-3.7366
X6.52Y-3.8366
X6.52Y-3.9366
X6.52Y-4.0366
X6.52Y-4.1366
X6.52Y-4.2366
X6.52Y-4.3366
X6.52Y-4.4366
X6.52Y-4.5366
X6.52Y-4.6366
X6.52Y-4.7366
X6.52Y-4.8366
X6.52Y-4.9366
X6.52Y-5.0366
T4
X4.504Y-3.566
X4.604Y-3.566
X4.704Y-3.566
X5.2Y-3.9342
X5.2Y-4.0342
X5.3Y-3.9342
X5.3Y-4.0342
T5
X3.839Y-2.9537
X3.839Y-3.0388
X3.839Y-3.1238
X3.839Y-3.2088
X3.839Y-3.2939
X3.839Y-3.3789
X3.839Y-3.464
X3.839Y-3.549
X3.839Y-3.634
X3.839Y-3.7191
X3.839Y-3.8041
X3.839Y-3.8891
X3.839Y-3.9742
X3.839Y-4.0592
X3.839Y-4.1443
X3.839Y-4.2293
X3.839Y-4.3143
X3.839Y-4.3994
X3.839Y-4.4844
X3.839Y-4.5695
X3.839Y-4.6545
X3.839Y-4.7395
X3.839Y-4.8246
X3.839Y-4.9096
X3.839Y-4.9947
X4.0079Y-2.9537
X4.0079Y-3.0388
X4.0079Y-3.1238
X4.0079Y-3.2088
X4.0079Y-3.2939
X4.0079Y-3.3789
X4.0079Y-3.464
X4.0079Y-3.549
X4.0079Y-3.634
X4.0079Y-3.7191
X4.0079Y-3.8041
X4.0079Y-3.8891
X4.0079Y-3.9742
X4.0079Y-4.0592
X4.0079Y-4.1443
X4.0079Y-4.2293
X4.0079Y-4.3143
X4.0079Y-4.3994
X4.0079Y-4.4844
X4.0079Y-4.5695
X4.0079Y-4.6545
X4.0079Y-4.7395
X4.0079Y-4.8246
X4.0079Y-4.9096
X4.0079Y-4.9947
T6
X3.9178Y-2.5008
X3.9178Y-5.4476
T0
M30
