%TF.GenerationSoftware,KiCad,Pcbnew,6.0.5-a6ca702e91~116~ubuntu21.10.1*%
%TF.CreationDate,2023-04-15T06:22:21-06:00*%
%TF.ProjectId,Centronics_50Pin,43656e74-726f-46e6-9963-735f35305069,rev?*%
%TF.SameCoordinates,Original*%
%TF.FileFunction,Paste,Top*%
%TF.FilePolarity,Positive*%
%FSLAX46Y46*%
G04 Gerber Fmt 4.6, Leading zero omitted, Abs format (unit mm)*
G04 Created by KiCad (PCBNEW 6.0.5-a6ca702e91~116~ubuntu21.10.1) date 2023-04-15 06:22:21*
%MOMM*%
%LPD*%
G01*
G04 APERTURE LIST*
G04 Aperture macros list*
%AMRoundRect*
0 Rectangle with rounded corners*
0 $1 Rounding radius*
0 $2 $3 $4 $5 $6 $7 $8 $9 X,Y pos of 4 corners*
0 Add a 4 corners polygon primitive as box body*
4,1,4,$2,$3,$4,$5,$6,$7,$8,$9,$2,$3,0*
0 Add four circle primitives for the rounded corners*
1,1,$1+$1,$2,$3*
1,1,$1+$1,$4,$5*
1,1,$1+$1,$6,$7*
1,1,$1+$1,$8,$9*
0 Add four rect primitives between the rounded corners*
20,1,$1+$1,$2,$3,$4,$5,0*
20,1,$1+$1,$4,$5,$6,$7,0*
20,1,$1+$1,$6,$7,$8,$9,0*
20,1,$1+$1,$8,$9,$2,$3,0*%
G04 Aperture macros list end*
%ADD10RoundRect,0.250001X0.462499X0.624999X-0.462499X0.624999X-0.462499X-0.624999X0.462499X-0.624999X0*%
%ADD11R,1.500000X2.000000*%
%ADD12R,3.800000X2.000000*%
%ADD13RoundRect,0.250000X0.325000X0.450000X-0.325000X0.450000X-0.325000X-0.450000X0.325000X-0.450000X0*%
%ADD14RoundRect,0.250000X-0.450000X0.325000X-0.450000X-0.325000X0.450000X-0.325000X0.450000X0.325000X0*%
%ADD15RoundRect,0.250000X-0.325000X-0.450000X0.325000X-0.450000X0.325000X0.450000X-0.325000X0.450000X0*%
%ADD16R,1.800000X2.500000*%
%ADD17RoundRect,0.160000X0.197500X0.160000X-0.197500X0.160000X-0.197500X-0.160000X0.197500X-0.160000X0*%
%ADD18RoundRect,0.100000X0.100000X-0.637500X0.100000X0.637500X-0.100000X0.637500X-0.100000X-0.637500X0*%
%ADD19RoundRect,0.160000X-0.197500X-0.160000X0.197500X-0.160000X0.197500X0.160000X-0.197500X0.160000X0*%
%ADD20RoundRect,0.237500X0.250000X0.237500X-0.250000X0.237500X-0.250000X-0.237500X0.250000X-0.237500X0*%
%ADD21RoundRect,0.237500X-0.287500X-0.237500X0.287500X-0.237500X0.287500X0.237500X-0.287500X0.237500X0*%
%ADD22RoundRect,0.250000X0.337500X0.475000X-0.337500X0.475000X-0.337500X-0.475000X0.337500X-0.475000X0*%
%ADD23RoundRect,0.237500X-0.237500X0.250000X-0.237500X-0.250000X0.237500X-0.250000X0.237500X0.250000X0*%
%ADD24RoundRect,0.100000X-0.100000X0.637500X-0.100000X-0.637500X0.100000X-0.637500X0.100000X0.637500X0*%
%ADD25RoundRect,0.250000X-0.337500X-0.475000X0.337500X-0.475000X0.337500X0.475000X-0.337500X0.475000X0*%
%ADD26RoundRect,0.100000X-0.637500X-0.100000X0.637500X-0.100000X0.637500X0.100000X-0.637500X0.100000X0*%
%ADD27RoundRect,0.150000X0.825000X0.150000X-0.825000X0.150000X-0.825000X-0.150000X0.825000X-0.150000X0*%
%ADD28RoundRect,0.237500X0.237500X-0.250000X0.237500X0.250000X-0.237500X0.250000X-0.237500X-0.250000X0*%
%ADD29RoundRect,0.160000X-0.160000X0.197500X-0.160000X-0.197500X0.160000X-0.197500X0.160000X0.197500X0*%
%ADD30RoundRect,0.125000X0.125000X0.415000X-0.125000X0.415000X-0.125000X-0.415000X0.125000X-0.415000X0*%
%ADD31RoundRect,0.262500X0.262500X0.337500X-0.262500X0.337500X-0.262500X-0.337500X0.262500X-0.337500X0*%
%ADD32RoundRect,0.187500X0.312500X0.187500X-0.312500X0.187500X-0.312500X-0.187500X0.312500X-0.187500X0*%
%ADD33RoundRect,0.237500X-0.250000X-0.237500X0.250000X-0.237500X0.250000X0.237500X-0.250000X0.237500X0*%
G04 APERTURE END LIST*
D10*
%TO.C,C3*%
X109417480Y-92556280D03*
X106442480Y-92556280D03*
%TD*%
%TO.C,C4*%
X111246280Y-108507480D03*
X108271280Y-108507480D03*
%TD*%
D11*
%TO.C,U3*%
X113769200Y-97536000D03*
X111469200Y-97536000D03*
D12*
X111469200Y-103836000D03*
D11*
X109169200Y-97536000D03*
%TD*%
D13*
%TO.C,C2*%
X109453980Y-94943880D03*
X107403980Y-94943880D03*
%TD*%
%TO.C,C5*%
X110185200Y-106222800D03*
X108135200Y-106222800D03*
%TD*%
D14*
%TO.C,C6*%
X109829600Y-68275200D03*
X109829600Y-70325200D03*
%TD*%
D15*
%TO.C,C12*%
X157632400Y-119954800D03*
X159682400Y-119954800D03*
%TD*%
D16*
%TO.C,D1*%
X106730800Y-72214600D03*
X106730800Y-68214600D03*
%TD*%
D17*
%TO.C,R42*%
X142278700Y-74726800D03*
X141083700Y-74726800D03*
%TD*%
D18*
%TO.C,U2*%
X111211600Y-83228100D03*
X111861600Y-83228100D03*
X112511600Y-83228100D03*
X113161600Y-83228100D03*
X113811600Y-83228100D03*
X114461600Y-83228100D03*
X115111600Y-83228100D03*
X115761600Y-83228100D03*
X116411600Y-83228100D03*
X117061600Y-83228100D03*
X117711600Y-83228100D03*
X118361600Y-83228100D03*
X118361600Y-77503100D03*
X117711600Y-77503100D03*
X117061600Y-77503100D03*
X116411600Y-77503100D03*
X115761600Y-77503100D03*
X115111600Y-77503100D03*
X114461600Y-77503100D03*
X113811600Y-77503100D03*
X113161600Y-77503100D03*
X112511600Y-77503100D03*
X111861600Y-77503100D03*
X111211600Y-77503100D03*
%TD*%
D19*
%TO.C,R54*%
X135597300Y-89306400D03*
X136792300Y-89306400D03*
%TD*%
D20*
%TO.C,R39*%
X107846500Y-80010000D03*
X106021500Y-80010000D03*
%TD*%
D17*
%TO.C,R16*%
X143447100Y-83616800D03*
X142252100Y-83616800D03*
%TD*%
D20*
%TO.C,R4*%
X107490900Y-113842800D03*
X105665900Y-113842800D03*
%TD*%
D19*
%TO.C,R50*%
X123569800Y-86918800D03*
X124764800Y-86918800D03*
%TD*%
D20*
%TO.C,R33*%
X107848400Y-84836000D03*
X106023400Y-84836000D03*
%TD*%
D21*
%TO.C,D2*%
X164682200Y-130759200D03*
X166432200Y-130759200D03*
%TD*%
D20*
%TO.C,R36*%
X107846500Y-75133200D03*
X106021500Y-75133200D03*
%TD*%
D22*
%TO.C,C7*%
X154656700Y-114265200D03*
X152581700Y-114265200D03*
%TD*%
D23*
%TO.C,R56*%
X106863180Y-96876180D03*
X106863180Y-98701180D03*
%TD*%
D24*
%TO.C,U1*%
X119653000Y-115349100D03*
X119003000Y-115349100D03*
X118353000Y-115349100D03*
X117703000Y-115349100D03*
X117053000Y-115349100D03*
X116403000Y-115349100D03*
X115753000Y-115349100D03*
X115103000Y-115349100D03*
X114453000Y-115349100D03*
X113803000Y-115349100D03*
X113153000Y-115349100D03*
X112503000Y-115349100D03*
X112503000Y-121074100D03*
X113153000Y-121074100D03*
X113803000Y-121074100D03*
X114453000Y-121074100D03*
X115103000Y-121074100D03*
X115753000Y-121074100D03*
X116403000Y-121074100D03*
X117053000Y-121074100D03*
X117703000Y-121074100D03*
X118353000Y-121074100D03*
X119003000Y-121074100D03*
X119653000Y-121074100D03*
%TD*%
D20*
%TO.C,R5*%
X107490900Y-115468400D03*
X105665900Y-115468400D03*
%TD*%
%TO.C,R35*%
X107848400Y-88087200D03*
X106023400Y-88087200D03*
%TD*%
%TO.C,R1*%
X107848400Y-83210400D03*
X106023400Y-83210400D03*
%TD*%
D25*
%TO.C,C8*%
X136630500Y-73202800D03*
X138705500Y-73202800D03*
%TD*%
D20*
%TO.C,R38*%
X107846500Y-78384400D03*
X106021500Y-78384400D03*
%TD*%
D17*
%TO.C,R17*%
X142278700Y-78130400D03*
X141083700Y-78130400D03*
%TD*%
D20*
%TO.C,R9*%
X107438200Y-118770400D03*
X105613200Y-118770400D03*
%TD*%
D17*
%TO.C,R13*%
X143447100Y-90982800D03*
X142252100Y-90982800D03*
%TD*%
D21*
%TO.C,D3*%
X105175380Y-100379480D03*
X106925380Y-100379480D03*
%TD*%
D20*
%TO.C,R40*%
X107846500Y-81584800D03*
X106021500Y-81584800D03*
%TD*%
D19*
%TO.C,R45*%
X123811700Y-78740000D03*
X125006700Y-78740000D03*
%TD*%
D26*
%TO.C,U4*%
X128455500Y-73478200D03*
X128455500Y-74128200D03*
X128455500Y-74778200D03*
X128455500Y-75428200D03*
X128455500Y-76078200D03*
X128455500Y-76728200D03*
X128455500Y-77378200D03*
X128455500Y-78028200D03*
X128455500Y-78678200D03*
X128455500Y-79328200D03*
X134180500Y-79328200D03*
X134180500Y-78678200D03*
X134180500Y-78028200D03*
X134180500Y-77378200D03*
X134180500Y-76728200D03*
X134180500Y-76078200D03*
X134180500Y-75428200D03*
X134180500Y-74778200D03*
X134180500Y-74128200D03*
X134180500Y-73478200D03*
%TD*%
D17*
%TO.C,R18*%
X142278700Y-77012800D03*
X141083700Y-77012800D03*
%TD*%
D19*
%TO.C,R47*%
X135877900Y-76250800D03*
X137072900Y-76250800D03*
%TD*%
D25*
%TO.C,C15*%
X138336200Y-124409200D03*
X140411200Y-124409200D03*
%TD*%
D22*
%TO.C,C14*%
X140483500Y-114503200D03*
X138408500Y-114503200D03*
%TD*%
D27*
%TO.C,U8*%
X159664400Y-112334800D03*
X159664400Y-111064800D03*
X159664400Y-109794800D03*
X159664400Y-108524800D03*
X159664400Y-107254800D03*
X159664400Y-105984800D03*
X159664400Y-104714800D03*
X154714400Y-104714800D03*
X154714400Y-105984800D03*
X154714400Y-107254800D03*
X154714400Y-108524800D03*
X154714400Y-109794800D03*
X154714400Y-111064800D03*
X154714400Y-112334800D03*
%TD*%
D19*
%TO.C,R53*%
X135597300Y-88087200D03*
X136792300Y-88087200D03*
%TD*%
D20*
%TO.C,R31*%
X129133600Y-102773400D03*
X127308600Y-102773400D03*
%TD*%
%TO.C,R3*%
X107489000Y-112217200D03*
X105664000Y-112217200D03*
%TD*%
D17*
%TO.C,R15*%
X143447100Y-86055200D03*
X142252100Y-86055200D03*
%TD*%
D20*
%TO.C,R32*%
X129133600Y-101198600D03*
X127308600Y-101198600D03*
%TD*%
D28*
%TO.C,R41*%
X121310400Y-119632100D03*
X121310400Y-117807100D03*
%TD*%
D20*
%TO.C,R7*%
X107440100Y-122072400D03*
X105615100Y-122072400D03*
%TD*%
D19*
%TO.C,R43*%
X123823800Y-76098400D03*
X125018800Y-76098400D03*
%TD*%
%TO.C,R49*%
X135890000Y-78536800D03*
X137085000Y-78536800D03*
%TD*%
D20*
%TO.C,R8*%
X107438200Y-120396000D03*
X105613200Y-120396000D03*
%TD*%
D29*
%TO.C,R30*%
X162306000Y-109982000D03*
X162306000Y-111177000D03*
%TD*%
D20*
%TO.C,R2*%
X107490900Y-110642400D03*
X105665900Y-110642400D03*
%TD*%
D28*
%TO.C,R27*%
X138836400Y-99924800D03*
X138836400Y-98099800D03*
%TD*%
D30*
%TO.C,SD2*%
X160568000Y-129101600D03*
X159468000Y-129101600D03*
X158368000Y-129101600D03*
X157618000Y-129101600D03*
X156918000Y-129101600D03*
X156168000Y-129101600D03*
X155068000Y-129101600D03*
X153968000Y-129101600D03*
X152868000Y-129101600D03*
D31*
X151493000Y-127461600D03*
X161943000Y-127461600D03*
X151493000Y-123011600D03*
X161943000Y-123011600D03*
%TD*%
D19*
%TO.C,R55*%
X135597300Y-90474800D03*
X136792300Y-90474800D03*
%TD*%
D17*
%TO.C,R12*%
X143447100Y-93472000D03*
X142252100Y-93472000D03*
%TD*%
D19*
%TO.C,R51*%
X123569800Y-88036400D03*
X124764800Y-88036400D03*
%TD*%
D17*
%TO.C,R19*%
X142278700Y-75895200D03*
X141083700Y-75895200D03*
%TD*%
D25*
%TO.C,C10*%
X139424500Y-80416400D03*
X141499500Y-80416400D03*
%TD*%
D23*
%TO.C,R24*%
X125476000Y-101093900D03*
X125476000Y-102918900D03*
%TD*%
D22*
%TO.C,C9*%
X140251000Y-107086400D03*
X138176000Y-107086400D03*
%TD*%
D20*
%TO.C,R10*%
X107489000Y-117094000D03*
X105664000Y-117094000D03*
%TD*%
%TO.C,R34*%
X107848400Y-86461600D03*
X106023400Y-86461600D03*
%TD*%
D23*
%TO.C,R26*%
X137718800Y-102468600D03*
X137718800Y-104293600D03*
%TD*%
D26*
%TO.C,U7*%
X130436700Y-114483600D03*
X130436700Y-115133600D03*
X130436700Y-115783600D03*
X130436700Y-116433600D03*
X130436700Y-117083600D03*
X130436700Y-117733600D03*
X130436700Y-118383600D03*
X136161700Y-118383600D03*
X136161700Y-117733600D03*
X136161700Y-117083600D03*
X136161700Y-116433600D03*
X136161700Y-115783600D03*
X136161700Y-115133600D03*
X136161700Y-114483600D03*
%TD*%
D20*
%TO.C,R37*%
X107846500Y-76758800D03*
X106021500Y-76758800D03*
%TD*%
D32*
%TO.C,SW1*%
X119478800Y-99123100D03*
X125478800Y-99123100D03*
X119478800Y-95373100D03*
X125478800Y-95373100D03*
%TD*%
D13*
%TO.C,F2*%
X111769000Y-72449800D03*
X109719000Y-72449800D03*
%TD*%
D20*
%TO.C,R23*%
X128320800Y-114503200D03*
X126495800Y-114503200D03*
%TD*%
%TO.C,R25*%
X125372500Y-72898000D03*
X123547500Y-72898000D03*
%TD*%
D26*
%TO.C,U5*%
X130436700Y-107371600D03*
X130436700Y-108021600D03*
X130436700Y-108671600D03*
X130436700Y-109321600D03*
X130436700Y-109971600D03*
X130436700Y-110621600D03*
X130436700Y-111271600D03*
X136161700Y-111271600D03*
X136161700Y-110621600D03*
X136161700Y-109971600D03*
X136161700Y-109321600D03*
X136161700Y-108671600D03*
X136161700Y-108021600D03*
X136161700Y-107371600D03*
%TD*%
D17*
%TO.C,R14*%
X143447100Y-88493600D03*
X142252100Y-88493600D03*
%TD*%
D26*
%TO.C,U9*%
X127998300Y-85517800D03*
X127998300Y-86167800D03*
X127998300Y-86817800D03*
X127998300Y-87467800D03*
X127998300Y-88117800D03*
X127998300Y-88767800D03*
X127998300Y-89417800D03*
X127998300Y-90067800D03*
X127998300Y-90717800D03*
X127998300Y-91367800D03*
X133723300Y-91367800D03*
X133723300Y-90717800D03*
X133723300Y-90067800D03*
X133723300Y-89417800D03*
X133723300Y-88767800D03*
X133723300Y-88117800D03*
X133723300Y-87467800D03*
X133723300Y-86817800D03*
X133723300Y-86167800D03*
X133723300Y-85517800D03*
%TD*%
D19*
%TO.C,R52*%
X123569800Y-89154000D03*
X124764800Y-89154000D03*
%TD*%
D26*
%TO.C,U6*%
X130385900Y-122306800D03*
X130385900Y-122956800D03*
X130385900Y-123606800D03*
X130385900Y-124256800D03*
X130385900Y-124906800D03*
X130385900Y-125556800D03*
X130385900Y-126206800D03*
X136110900Y-126206800D03*
X136110900Y-125556800D03*
X136110900Y-124906800D03*
X136110900Y-124256800D03*
X136110900Y-123606800D03*
X136110900Y-122956800D03*
X136110900Y-122306800D03*
%TD*%
D20*
%TO.C,R6*%
X107440100Y-123748800D03*
X105615100Y-123748800D03*
%TD*%
D25*
%TO.C,C11*%
X135788400Y-85547200D03*
X137863400Y-85547200D03*
%TD*%
D19*
%TO.C,R11*%
X123862500Y-74777600D03*
X125057500Y-74777600D03*
%TD*%
D22*
%TO.C,C13*%
X140403400Y-122326400D03*
X138328400Y-122326400D03*
%TD*%
D33*
%TO.C,R29*%
X133605900Y-120345200D03*
X135430900Y-120345200D03*
%TD*%
D19*
%TO.C,R44*%
X123811700Y-77368400D03*
X125006700Y-77368400D03*
%TD*%
%TO.C,R46*%
X135890000Y-75031600D03*
X137085000Y-75031600D03*
%TD*%
D23*
%TO.C,R28*%
X127254000Y-118875800D03*
X127254000Y-120700800D03*
%TD*%
D19*
%TO.C,R48*%
X135890000Y-77419200D03*
X137085000Y-77419200D03*
%TD*%
M02*
