M48
INCH
T130C0.035
T129C0.125
T128C0.012
T127C0.157
T126C0.100
T125C0.060
T124C0.028
T123C0.038
%
T128
X017350Y008150
X019800Y006700
X017900Y002400
X027850Y003100
X027850Y003700
X027850Y004300
X027850Y004950
X027850Y005550
X027850Y006200
X027750Y000650
X036350Y009200
X025300Y001500
X022650Y001500
X023550Y001500
X024400Y001500
X024850Y001500
X023100Y001500
X021300Y001050
X021700Y002250
X024900Y007750
X025600Y007800
X024300Y009050
X029250Y019900
X025100Y022450
X025550Y016650
X024762Y009838
X021750Y011800
X023200Y011100
X021500Y012600
X021750Y010650
X024150Y012550
X023200Y019900
X034800Y019450
X029400Y021400
X023250Y021550
X004500Y027600
X004750Y027200
X005000Y026800
X005250Y026400
X005500Y026000
X005750Y025600
X003750Y028800
X004000Y028400
X004250Y028000
X021850Y014550
X020500Y014400
X021750Y013000
X016900Y014800
X019450Y017350
X015450Y021500
X015500Y015600
X019050Y022450
X015200Y012200
X016900Y012800
X016900Y012200
X010250Y010600
X019200Y012800
X018750Y009700
X019050Y010150
X017150Y009750
X019050Y014700
X012750Y015250
X015400Y019900
X011350Y022450
X009400Y031850
X009150Y032250
X008900Y032650
X009650Y031450
X009900Y031050
X010150Y030650
X010400Y030250
X010650Y029850
X010900Y029450
X011250Y025250
X012100Y025250
X014100Y025250
X013100Y025250
X015100Y025250
X017100Y025250
X016100Y025200
X018100Y025250
X019100Y025250
X020000Y025250
X021200Y025250
X022300Y025250
X023300Y025250
X024300Y025250
X025300Y025250
X026300Y025250
X027300Y025250
X028300Y025250
X029300Y025250
X030700Y027400
T124
X030800Y024600
X029800Y024600
X028800Y024600
X027800Y024600
X026800Y024600
X025800Y024600
X024800Y024600
X023800Y024600
X022800Y024600
X021800Y024600
X020600Y024600
X019600Y024600
X018600Y024600
X017600Y024600
X016600Y024600
X015600Y024600
X014600Y024600
X013600Y024600
X012600Y024600
X011600Y024600
T130
X011250Y005550
X034800Y009350
X033000Y009350
X033050Y020300
X034900Y020300
X007500Y021300
X007550Y023900
X002800Y022250
X037050Y030650
T123
X013300Y034950
X014300Y034950
X015300Y034950
X016300Y034950
X017300Y034950
X018300Y034950
X016300Y033950
X017300Y033950
X018300Y033950
X019300Y034950
X020300Y034950
X021300Y034950
X019300Y033950
X020300Y033950
X021300Y033950
X022300Y033950
X022300Y034950
X023300Y034950
X024300Y034950
X023300Y033950
X024300Y033950
X025300Y033950
X026300Y033950
X027300Y033950
X028300Y033950
X025300Y034950
X026300Y034950
X027300Y034950
X028300Y034950
X029300Y033950
X030300Y033950
X031300Y033950
X029300Y034950
X030300Y034950
X031300Y034950
X032300Y034950
X033300Y034950
X034300Y034950
X032300Y033950
X033300Y033950
X034300Y033950
X035300Y033950
X035300Y034950
X036300Y034950
X036300Y033950
X012300Y033950
X012300Y034950
X013300Y033950
X014300Y033950
X015300Y033950
X004200Y031350
X004200Y030350
T125
X006200Y033950
X008200Y033950
X002200Y033950
X004200Y033950
T126
X009200Y034950
X001200Y034950
T129
X001500Y003200
X037100Y003200
X037100Y020700
X001500Y020700
T127
X003200Y037950
X007200Y037950
M30
