G04 start of page 11 for group -4063 idx -4063 *
G04 Title: (unknown), componentmask *
G04 Creator: pcb 20140316 *
G04 CreationDate: Sun 31 Aug 2014 13:13:45 GMT UTC *
G04 For: michael *
G04 Format: Gerber/RS-274X *
G04 PCB-Dimensions (mil): 3930.00 3937.00 *
G04 PCB-Coordinate-Origin: lower left *
%MOIN*%
%FSLAX25Y25*%
%LNTOPMASK*%
%ADD172R,0.0300X0.0300*%
%ADD171R,0.0611X0.0611*%
%ADD170R,0.0375X0.0375*%
%ADD169R,0.0140X0.0140*%
%ADD168R,0.0750X0.0750*%
%ADD167C,0.0410*%
%ADD166R,0.1006X0.1006*%
%ADD165R,0.0660X0.0660*%
%ADD164R,0.0218X0.0218*%
%ADD163R,0.0769X0.0769*%
%ADD162R,0.0690X0.0690*%
%ADD161R,0.0510X0.0510*%
%ADD160R,0.0400X0.0400*%
%ADD159C,0.0808*%
%ADD158C,0.1600*%
%ADD157C,0.1100*%
%ADD156C,0.0660*%
%ADD155C,0.0001*%
G54D155*G36*
X41700Y312000D02*Y305400D01*
X48300D01*
Y312000D01*
X41700D01*
G37*
G54D156*X45000Y318700D03*
G54D157*X22000Y343200D03*
X42000D03*
X62000D03*
X12000Y353200D03*
G54D158*X32000Y383200D03*
X72000D03*
G54D155*G36*
X41700Y292000D02*Y285400D01*
X48300D01*
Y292000D01*
X41700D01*
G37*
G54D156*X45000Y298700D03*
G54D157*X82000Y343200D03*
X92000Y353200D03*
G54D156*X130200Y343000D03*
Y353000D03*
X140200Y343000D03*
Y353000D03*
X150200Y343000D03*
Y353000D03*
X160200Y343000D03*
Y353000D03*
X170200D03*
X180200D03*
X170200Y343000D03*
X180200D03*
X190200D03*
X200200D03*
X210200D03*
X220200D03*
X190200Y353000D03*
X200200D03*
X210200D03*
X230200Y343000D03*
X240200D03*
X250200D03*
X220200Y353000D03*
X230200D03*
X240200D03*
X250200D03*
X260200Y343000D03*
X270200D03*
X280200D03*
X260200Y353000D03*
X270200D03*
X280200D03*
X290200D03*
X300200D03*
X310200D03*
X290200Y343000D03*
X300200D03*
X310200D03*
X320200D03*
Y353000D03*
X330200Y343000D03*
X340200D03*
X350200D03*
X360200D03*
X370200D03*
X330200Y353000D03*
X340200D03*
X350200D03*
X360200D03*
G54D155*G36*
X366900Y356300D02*Y349700D01*
X373500D01*
Y356300D01*
X366900D01*
G37*
G36*
X346700Y182000D02*Y175400D01*
X353300D01*
Y182000D01*
X346700D01*
G37*
G54D156*X360000Y178700D03*
X350000Y168700D03*
X360000D03*
G54D155*G36*
X346700Y192000D02*Y185400D01*
X353300D01*
Y192000D01*
X346700D01*
G37*
G54D156*X360000Y188700D03*
X350000Y158700D03*
X360000D03*
G54D155*G36*
X346700Y202000D02*Y195400D01*
X353300D01*
Y202000D01*
X346700D01*
G37*
G54D156*X360000Y198700D03*
G54D159*X140600Y175900D03*
Y185900D03*
Y195900D03*
X130600Y175900D03*
Y185900D03*
Y195900D03*
Y205900D03*
Y215900D03*
Y225900D03*
X140600Y205900D03*
Y215900D03*
Y225900D03*
Y235900D03*
X130600D03*
G54D155*G36*
X130100Y278300D02*Y271700D01*
X136700D01*
Y278300D01*
X130100D01*
G37*
G54D156*X143400Y275000D03*
X153400D03*
X163400D03*
X173400D03*
X183400D03*
X193400D03*
X203400D03*
X213400D03*
X223400D03*
G54D155*G36*
X237800Y278300D02*Y271700D01*
X244400D01*
Y278300D01*
X237800D01*
G37*
G54D156*X251100Y275000D03*
X261100D03*
X271100D03*
X281100D03*
X291100D03*
X301100D03*
X311100D03*
X321100D03*
X331100D03*
X130500Y91700D03*
X140500D03*
X130500Y81700D03*
X140500D03*
G54D155*G36*
X127200Y115000D02*Y108400D01*
X133800D01*
Y115000D01*
X127200D01*
G37*
G54D156*X140500Y111700D03*
X130500Y101700D03*
X140500D03*
X130500Y71700D03*
X140500D03*
X130500Y61700D03*
Y51700D03*
Y41700D03*
X140500Y61700D03*
Y51700D03*
Y41700D03*
G54D155*G36*
X136560Y149940D02*Y141860D01*
X144640D01*
Y149940D01*
X136560D01*
G37*
G54D159*X130600Y145900D03*
X140600Y155900D03*
X130561Y155939D03*
X140600Y165900D03*
X130600D03*
G54D156*X350000Y148700D03*
G54D155*G36*
X346700Y132000D02*Y125400D01*
X353300D01*
Y132000D01*
X346700D01*
G37*
G54D156*X350000Y118700D03*
G54D155*G36*
X346700Y142000D02*Y135400D01*
X353300D01*
Y142000D01*
X346700D01*
G37*
G54D156*X360000Y148700D03*
Y128700D03*
Y118700D03*
Y138700D03*
X350000Y108700D03*
Y98700D03*
Y88700D03*
Y78700D03*
X360000D03*
X350000Y68700D03*
Y58700D03*
Y48700D03*
X360000Y68700D03*
Y58700D03*
Y48700D03*
Y108700D03*
Y98700D03*
Y88700D03*
G54D160*X328809Y201809D02*Y201209D01*
X336609Y201809D02*Y201209D01*
G54D161*X329000Y191400D02*Y190000D01*
X337000Y191400D02*Y190000D01*
G54D155*G36*
X290841Y20085D02*Y17516D01*
X293410D01*
Y20085D01*
X290841D01*
G37*
G36*
X294778D02*Y17516D01*
X297347D01*
Y20085D01*
X294778D01*
G37*
G54D161*X314900Y202100D02*Y200700D01*
X306900Y202100D02*Y200700D01*
X314859Y213122D02*Y211722D01*
X306859Y213122D02*Y211722D01*
G54D160*X332709Y210009D02*Y209409D01*
G54D161*X328500Y220900D02*Y219500D01*
X336500Y220900D02*Y219500D01*
X222641Y112378D02*Y110978D01*
X218600Y121800D02*Y120400D01*
X226600Y121800D02*Y120400D01*
X230641Y112378D02*Y110978D01*
G54D162*X206445Y16240D02*X208414D01*
G54D155*G36*
X186460Y10240D02*Y2160D01*
X194540D01*
Y10240D01*
X186460D01*
G37*
G36*
X195909D02*Y2160D01*
X203989D01*
Y10240D01*
X195909D01*
G37*
G54D163*X210185Y6397D02*Y6003D01*
G54D164*X195225Y18602D02*Y14862D01*
X200343Y18602D02*Y14862D01*
X190107Y18602D02*Y14862D01*
X197784Y18602D02*Y14862D01*
X192666Y18602D02*Y14862D01*
G54D163*X180264Y6397D02*Y6003D01*
G54D162*X182036Y16240D02*X184004D01*
G54D165*X168400Y16900D02*Y15900D01*
X156400Y16900D02*Y15900D01*
G54D166*X126677Y20700D02*X127464D01*
X143606D02*X144393D01*
G54D167*X157578Y138391D02*X165678D01*
G54D161*X104500Y131900D02*Y130500D01*
X112500Y131900D02*Y130500D01*
X72206Y105680D02*Y104280D01*
X80206Y105680D02*Y104280D01*
G54D155*G36*
X66250Y94950D02*Y67450D01*
X93750D01*
Y94950D01*
X66250D01*
G37*
G36*
X81250Y79950D02*Y67450D01*
X93750D01*
Y79950D01*
X81250D01*
G37*
G36*
Y94950D02*Y82450D01*
X93750D01*
Y94950D01*
X81250D01*
G37*
G36*
X66250Y79950D02*Y67450D01*
X78750D01*
Y79950D01*
X66250D01*
G37*
G36*
Y94950D02*Y82450D01*
X78750D01*
Y94950D01*
X66250D01*
G37*
G54D168*X51000Y72200D02*X56500D01*
X51000Y90200D02*X56500D01*
G54D161*X45706Y59180D02*Y57780D01*
X53706Y59180D02*Y57780D01*
G54D155*G36*
X237652Y122985D02*Y120416D01*
X240221D01*
Y122985D01*
X237652D01*
G37*
G36*
X238421Y128998D02*Y126429D01*
X240990D01*
Y128998D01*
X238421D01*
G37*
G36*
Y132935D02*Y130366D01*
X240990D01*
Y132935D01*
X238421D01*
G37*
G36*
X269216Y134048D02*Y131479D01*
X271785D01*
Y134048D01*
X269216D01*
G37*
G36*
Y137985D02*Y135416D01*
X271785D01*
Y137985D01*
X269216D01*
G37*
G54D169*X245764Y142285D02*Y138895D01*
X247732Y142285D02*Y138895D01*
X249701Y142285D02*Y138895D01*
X251669Y142285D02*Y138895D01*
X253638Y142285D02*Y138895D01*
X255606Y142285D02*Y138895D01*
X257575Y142285D02*Y138895D01*
G54D155*G36*
X233715Y122985D02*Y120416D01*
X236284D01*
Y122985D01*
X233715D01*
G37*
G36*
X233279Y129048D02*Y126479D01*
X235848D01*
Y129048D01*
X233279D01*
G37*
G36*
Y132985D02*Y130416D01*
X235848D01*
Y132985D01*
X233279D01*
G37*
G54D169*X226079Y142285D02*Y138895D01*
X228047Y142285D02*Y138895D01*
X230016Y142285D02*Y138895D01*
X231984Y142285D02*Y138895D01*
X233953Y142285D02*Y138895D01*
X235921Y142285D02*Y138895D01*
X237890Y142285D02*Y138895D01*
X239858Y142285D02*Y138895D01*
X241827Y142285D02*Y138895D01*
X243795Y142285D02*Y138895D01*
X264063Y148773D02*X267453D01*
X264063Y150741D02*X267453D01*
X264063Y152710D02*X267453D01*
X264063Y154678D02*X267453D01*
X264063Y156647D02*X267453D01*
X264063Y158615D02*X267453D01*
X264063Y160584D02*X267453D01*
X264063Y162552D02*X267453D01*
X264063Y164521D02*X267453D01*
X264063Y166489D02*X267453D01*
X264063Y168458D02*X267453D01*
X264063Y170426D02*X267453D01*
X264063Y172395D02*X267453D01*
X264063Y174363D02*X267453D01*
X264063Y176332D02*X267453D01*
X264063Y178300D02*X267453D01*
X264063Y180269D02*X267453D01*
X264063Y182237D02*X267453D01*
X264063Y184206D02*X267453D01*
X264063Y186174D02*X267453D01*
X264063Y188143D02*X267453D01*
X264063Y190111D02*X267453D01*
X264063Y192080D02*X267453D01*
X264063Y194048D02*X267453D01*
X264063Y196017D02*X267453D01*
X257575Y205895D02*Y202505D01*
X255607Y205895D02*Y202505D01*
X253638Y205895D02*Y202505D01*
X251670Y205895D02*Y202505D01*
X249701Y205895D02*Y202505D01*
X247733Y205895D02*Y202505D01*
X245764Y205895D02*Y202505D01*
X243796Y205895D02*Y202505D01*
G54D170*X268055Y23101D02*Y18601D01*
G54D171*X286953Y7353D02*Y5384D01*
G54D170*X263724Y24676D02*Y20176D01*
X259394Y23101D02*Y18601D01*
X255063Y22313D02*Y17813D01*
X250732Y23101D02*Y18601D01*
X246402Y22313D02*Y17813D01*
X242071Y23101D02*Y18601D01*
X237740Y23101D02*Y18601D01*
G54D171*X234591Y11683D02*Y9715D01*
X240890Y62471D02*X242465D01*
X263331D02*X264906D01*
G54D161*X14500Y264400D02*Y263000D01*
X22500Y264400D02*Y263000D01*
G54D166*X19000Y280164D02*Y279377D01*
Y297093D02*Y296306D01*
G54D165*X14100Y326300D02*X15100D01*
X14100Y314300D02*X15100D01*
G54D172*X189200Y254550D02*Y248050D01*
X184200Y254550D02*Y248050D01*
X179200Y254550D02*Y248050D01*
X174200Y254550D02*Y248050D01*
Y234050D02*Y227550D01*
X179200Y234050D02*Y227550D01*
X184200Y234050D02*Y227550D01*
X189200Y234050D02*Y227550D01*
X169200Y254550D02*Y248050D01*
Y234050D02*Y227550D01*
X164200Y254550D02*Y248050D01*
X159200Y254550D02*Y248050D01*
Y234050D02*Y227550D01*
X164200Y234050D02*Y227550D01*
X224300Y254950D02*Y248450D01*
X219300Y254950D02*Y248450D01*
X214300Y254950D02*Y248450D01*
X209300Y254950D02*Y248450D01*
Y234450D02*Y227950D01*
X214300Y234450D02*Y227950D01*
X219300Y234450D02*Y227950D01*
G54D155*G36*
X195715Y233921D02*Y231352D01*
X198284D01*
Y233921D01*
X195715D01*
G37*
G36*
Y229984D02*Y227415D01*
X198284D01*
Y229984D01*
X195715D01*
G37*
G54D166*X92500Y280094D02*Y279307D01*
Y297023D02*Y296236D01*
G54D161*X114300Y281700D02*X115700D01*
X114300Y273700D02*X115700D01*
X37000Y231900D02*Y230500D01*
X45000Y231900D02*Y230500D01*
X37000Y222400D02*Y221000D01*
X45000Y222400D02*Y221000D01*
X53000Y222400D02*Y221000D01*
X61000Y222400D02*Y221000D01*
G54D155*G36*
X132215Y291921D02*Y289352D01*
X134784D01*
Y291921D01*
X132215D01*
G37*
G36*
Y287984D02*Y285415D01*
X134784D01*
Y287984D01*
X132215D01*
G37*
G54D167*X173578Y138391D02*X181678D01*
X173578Y143391D02*X181678D01*
X173578Y148391D02*X181678D01*
X173578Y153391D02*X181678D01*
G54D155*G36*
X191716Y136484D02*Y133915D01*
X194285D01*
Y136484D01*
X191716D01*
G37*
G36*
X195653D02*Y133915D01*
X198222D01*
Y136484D01*
X195653D01*
G37*
G54D167*X173578Y158391D02*X181678D01*
X157578Y143391D02*X165678D01*
X157578Y148391D02*X165678D01*
X157578Y153391D02*X165678D01*
X157578Y158391D02*X165678D01*
G54D155*G36*
X201715Y214484D02*Y211915D01*
X204284D01*
Y214484D01*
X201715D01*
G37*
G36*
Y210547D02*Y207978D01*
X204284D01*
Y210547D01*
X201715D01*
G37*
G54D169*X200453Y196017D02*X203843D01*
X200453Y194049D02*X203843D01*
X224111Y205895D02*Y202505D01*
X222142Y205895D02*Y202505D01*
X220174Y205895D02*Y202505D01*
X218205Y205895D02*Y202505D01*
X216237Y205895D02*Y202505D01*
X214268Y205895D02*Y202505D01*
X212300Y205895D02*Y202505D01*
X210331Y205895D02*Y202505D01*
X200453Y192080D02*X203843D01*
X200453Y190112D02*X203843D01*
X200453Y188143D02*X203843D01*
X200453Y186175D02*X203843D01*
X200453Y184206D02*X203843D01*
X200453Y182238D02*X203843D01*
X200453Y180269D02*X203843D01*
X200453Y178301D02*X203843D01*
X200453Y176332D02*X203843D01*
X200453Y174364D02*X203843D01*
X200453Y172395D02*X203843D01*
X200453Y170427D02*X203843D01*
X200453Y168458D02*X203843D01*
X200453Y166490D02*X203843D01*
X200453Y164521D02*X203843D01*
X200453Y162553D02*X203843D01*
X200453Y160584D02*X203843D01*
X200453Y158616D02*X203843D01*
X200453Y156647D02*X203843D01*
X200453Y154679D02*X203843D01*
X200453Y152710D02*X203843D01*
X200453Y150742D02*X203843D01*
X200453Y148773D02*X203843D01*
X210331Y142285D02*Y138895D01*
X212299Y142285D02*Y138895D01*
X214268Y142285D02*Y138895D01*
X216236Y142285D02*Y138895D01*
X218205Y142285D02*Y138895D01*
X220173Y142285D02*Y138895D01*
X222142Y142285D02*Y138895D01*
X224110Y142285D02*Y138895D01*
G54D155*G36*
X66250Y212450D02*Y184950D01*
X93750D01*
Y212450D01*
X66250D01*
G37*
G36*
X81250Y197450D02*Y184950D01*
X93750D01*
Y197450D01*
X81250D01*
G37*
G36*
Y212450D02*Y199950D01*
X93750D01*
Y212450D01*
X81250D01*
G37*
G36*
X66250Y197450D02*Y184950D01*
X78750D01*
Y197450D01*
X66250D01*
G37*
G36*
Y212450D02*Y199950D01*
X78750D01*
Y212450D01*
X66250D01*
G37*
G54D168*X51000Y189700D02*X56500D01*
X51000Y207700D02*X56500D01*
G54D161*X77823Y175912D02*Y174512D01*
X85823Y175912D02*Y174512D01*
X58823Y175912D02*Y174512D01*
X50823Y175912D02*Y174512D01*
G54D172*X239300Y254950D02*Y248450D01*
X234300Y254950D02*Y248450D01*
G54D155*G36*
X234215Y217421D02*Y214852D01*
X236784D01*
Y217421D01*
X234215D01*
G37*
G36*
Y213484D02*Y210915D01*
X236784D01*
Y213484D01*
X234215D01*
G37*
G54D172*X229300Y254950D02*Y248450D01*
G54D155*G36*
X239750Y291856D02*Y289288D01*
X242320D01*
Y291856D01*
X239750D01*
G37*
G36*
Y287920D02*Y285350D01*
X242320D01*
Y287920D01*
X239750D01*
G37*
G54D161*X248000Y330400D02*Y329000D01*
X256000Y330400D02*Y329000D01*
G54D172*X297000Y254700D02*Y248200D01*
X292000Y254700D02*Y248200D01*
X287000Y254700D02*Y248200D01*
X282000Y254700D02*Y248200D01*
X277000Y254700D02*Y248200D01*
X272000Y254700D02*Y248200D01*
X267000Y254700D02*Y248200D01*
Y234200D02*Y227700D01*
X272000Y234200D02*Y227700D01*
X277000Y234200D02*Y227700D01*
X282000Y234200D02*Y227700D01*
X287000Y234200D02*Y227700D01*
X292000Y234200D02*Y227700D01*
X297000Y234200D02*Y227700D01*
G54D155*G36*
X303215Y233921D02*Y231352D01*
X305784D01*
Y233921D01*
X303215D01*
G37*
G36*
Y229984D02*Y227415D01*
X305784D01*
Y229984D01*
X303215D01*
G37*
G36*
X245215Y233921D02*Y231352D01*
X247784D01*
Y233921D01*
X245215D01*
G37*
G36*
Y229984D02*Y227415D01*
X247784D01*
Y229984D01*
X245215D01*
G37*
G36*
X277715Y201985D02*Y199416D01*
X280284D01*
Y201985D01*
X277715D01*
G37*
G36*
X273778D02*Y199416D01*
X276347D01*
Y201985D01*
X273778D01*
G37*
G36*
X280215Y178921D02*Y176352D01*
X282784D01*
Y178921D01*
X280215D01*
G37*
G36*
Y174984D02*Y172415D01*
X282784D01*
Y174984D01*
X280215D01*
G37*
G36*
X273715Y178984D02*Y176415D01*
X276284D01*
Y178984D01*
X273715D01*
G37*
G36*
Y175047D02*Y172478D01*
X276284D01*
Y175047D01*
X273715D01*
G37*
G36*
X280216Y165548D02*Y162979D01*
X282785D01*
Y165548D01*
X280216D01*
G37*
G36*
Y169485D02*Y166916D01*
X282785D01*
Y169485D01*
X280216D01*
G37*
G54D172*X224300Y234450D02*Y227950D01*
X229300Y234450D02*Y227950D01*
X234300Y234450D02*Y227950D01*
X239300Y234450D02*Y227950D01*
G54D169*X241827Y205895D02*Y202505D01*
X239859Y205895D02*Y202505D01*
X237890Y205895D02*Y202505D01*
X235922Y205895D02*Y202505D01*
X233953Y205895D02*Y202505D01*
X231985Y205895D02*Y202505D01*
X230016Y205895D02*Y202505D01*
X228048Y205895D02*Y202505D01*
X226079Y205895D02*Y202505D01*
M02*
