G04 start of page 15 for group -4015 idx -4015 *
G04 Title: (unknown), toppaste *
G04 Creator: pcb 20110918 *
G04 CreationDate: Sun 22 Jun 2014 10:36:29 GMT UTC *
G04 For: michael *
G04 Format: Gerber/RS-274X *
G04 PCB-Dimensions: 393000 393700 *
G04 PCB-Coordinate-Origin: lower left *
%MOIN*%
%FSLAX25Y25*%
%LNTOPPASTE*%
%ADD197R,0.0551X0.0551*%
%ADD196R,0.0315X0.0315*%
%ADD195R,0.0650X0.0650*%
%ADD194R,0.0110X0.0110*%
%ADD193R,0.0600X0.0600*%
%ADD192R,0.0906X0.0906*%
%ADD191C,0.0290*%
%ADD190R,0.0709X0.0709*%
%ADD189R,0.0630X0.0630*%
%ADD188R,0.0158X0.0158*%
%ADD187C,0.0001*%
%ADD186R,0.0200X0.0200*%
%ADD185R,0.0450X0.0450*%
%ADD184R,0.0340X0.0340*%
G54D184*X328809Y201809D02*Y201209D01*
X336609Y201809D02*Y201209D01*
X332709Y210009D02*Y209409D01*
G54D185*X248000Y330400D02*Y329000D01*
X256000Y330400D02*Y329000D01*
X14500Y264400D02*Y263000D01*
X22500Y264400D02*Y263000D01*
G54D186*X239300Y254950D02*Y248450D01*
X234300Y254950D02*Y248450D01*
X229300Y254950D02*Y248450D01*
X224300Y254950D02*Y248450D01*
X219300Y254950D02*Y248450D01*
X214300Y254950D02*Y248450D01*
X209300Y254950D02*Y248450D01*
Y234450D02*Y227950D01*
X214300Y234450D02*Y227950D01*
X219300Y234450D02*Y227950D01*
X224300Y234450D02*Y227950D01*
X229300Y234450D02*Y227950D01*
X234300Y234450D02*Y227950D01*
X239300Y234450D02*Y227950D01*
G54D187*G36*
X295078Y19784D02*Y17816D01*
X297048D01*
Y19784D01*
X295078D01*
G37*
G36*
X291142D02*Y17816D01*
X293110D01*
Y19784D01*
X291142D01*
G37*
G54D186*X297000Y254700D02*Y248200D01*
X292000Y254700D02*Y248200D01*
X287000Y254700D02*Y248200D01*
X282000Y254700D02*Y248200D01*
X277000Y254700D02*Y248200D01*
X272000Y254700D02*Y248200D01*
X267000Y254700D02*Y248200D01*
Y234200D02*Y227700D01*
X272000Y234200D02*Y227700D01*
X277000Y234200D02*Y227700D01*
X282000Y234200D02*Y227700D01*
X287000Y234200D02*Y227700D01*
X292000Y234200D02*Y227700D01*
X297000Y234200D02*Y227700D01*
X189200Y254550D02*Y248050D01*
X184200Y254550D02*Y248050D01*
X179200Y254550D02*Y248050D01*
X174200Y254550D02*Y248050D01*
X169200Y254550D02*Y248050D01*
X164200Y254550D02*Y248050D01*
X159200Y254550D02*Y248050D01*
Y234050D02*Y227550D01*
X164200Y234050D02*Y227550D01*
X169200Y234050D02*Y227550D01*
X174200Y234050D02*Y227550D01*
X179200Y234050D02*Y227550D01*
X184200Y234050D02*Y227550D01*
X189200Y234050D02*Y227550D01*
G54D185*X222641Y112378D02*Y110978D01*
X230641Y112378D02*Y110978D01*
G54D188*X195225Y18602D02*Y14862D01*
X200343Y18602D02*Y14862D01*
X190107Y18602D02*Y14862D01*
X197784Y18602D02*Y14862D01*
X192666Y18602D02*Y14862D01*
G54D189*X182036Y16240D02*X184004D01*
X206445D02*X208414D01*
G54D190*X180264Y6397D02*Y6003D01*
G54D187*G36*
X186760Y9940D02*Y2460D01*
X194240D01*
Y9940D01*
X186760D01*
G37*
G36*
X196209D02*Y2460D01*
X203689D01*
Y9940D01*
X196209D01*
G37*
G54D190*X210185Y6397D02*Y6003D01*
G54D185*X218600Y121800D02*Y120400D01*
X226600Y121800D02*Y120400D01*
G54D191*X173578Y138391D02*X181678D01*
X173578Y143391D02*X181678D01*
X173578Y148391D02*X181678D01*
X173578Y153391D02*X181678D01*
X173578Y158391D02*X181678D01*
X157578Y138391D02*X165678D01*
X157578Y143391D02*X165678D01*
X157578Y148391D02*X165678D01*
X157578Y153391D02*X165678D01*
X157578Y158391D02*X165678D01*
G54D185*X104500Y131900D02*Y130500D01*
X112500Y131900D02*Y130500D01*
G54D187*G36*
X192016Y136184D02*Y134216D01*
X193984D01*
Y136184D01*
X192016D01*
G37*
G36*
X195952D02*Y134216D01*
X197922D01*
Y136184D01*
X195952D01*
G37*
G36*
X237952Y122684D02*Y120716D01*
X239922D01*
Y122684D01*
X237952D01*
G37*
G36*
X234016D02*Y120716D01*
X235984D01*
Y122684D01*
X234016D01*
G37*
G36*
X238722Y128697D02*Y126729D01*
X240691D01*
Y128697D01*
X238722D01*
G37*
G36*
Y132634D02*Y130666D01*
X240691D01*
Y132634D01*
X238722D01*
G37*
G36*
X278016Y201684D02*Y199716D01*
X279984D01*
Y201684D01*
X278016D01*
G37*
G36*
X274078D02*Y199716D01*
X276048D01*
Y201684D01*
X274078D01*
G37*
G36*
X196016Y233622D02*Y231652D01*
X197984D01*
Y233622D01*
X196016D01*
G37*
G36*
Y229684D02*Y227716D01*
X197984D01*
Y229684D01*
X196016D01*
G37*
G36*
X303516Y233622D02*Y231652D01*
X305484D01*
Y233622D01*
X303516D01*
G37*
G36*
Y229684D02*Y227716D01*
X305484D01*
Y229684D01*
X303516D01*
G37*
G36*
X234516Y217122D02*Y215152D01*
X236484D01*
Y217122D01*
X234516D01*
G37*
G36*
Y213184D02*Y211216D01*
X236484D01*
Y213184D01*
X234516D01*
G37*
G36*
X233578Y128747D02*Y126779D01*
X235548D01*
Y128747D01*
X233578D01*
G37*
G36*
Y132684D02*Y130716D01*
X235548D01*
Y132684D01*
X233578D01*
G37*
G36*
X245516Y233622D02*Y231652D01*
X247484D01*
Y233622D01*
X245516D01*
G37*
G36*
Y229684D02*Y227716D01*
X247484D01*
Y229684D01*
X245516D01*
G37*
G36*
X202016Y214184D02*Y212216D01*
X203984D01*
Y214184D01*
X202016D01*
G37*
G36*
Y210248D02*Y208278D01*
X203984D01*
Y210248D01*
X202016D01*
G37*
G36*
X269516Y133748D02*Y131778D01*
X271484D01*
Y133748D01*
X269516D01*
G37*
G36*
Y137684D02*Y135716D01*
X271484D01*
Y137684D01*
X269516D01*
G37*
G54D192*X19000Y280164D02*Y279377D01*
Y297093D02*Y296306D01*
G54D193*X14100Y326300D02*X15100D01*
X14100Y314300D02*X15100D01*
G54D192*X92500Y280094D02*Y279307D01*
Y297023D02*Y296236D01*
G54D193*X168400Y16900D02*Y15900D01*
X156400Y16900D02*Y15900D01*
G54D192*X126677Y20700D02*X127464D01*
X143606D02*X144393D01*
G54D185*X314900Y202100D02*Y200700D01*
X306900Y202100D02*Y200700D01*
X314859Y213122D02*Y211722D01*
X306859Y213122D02*Y211722D01*
G54D187*G36*
X280516Y178622D02*Y176652D01*
X282484D01*
Y178622D01*
X280516D01*
G37*
G36*
Y174684D02*Y172716D01*
X282484D01*
Y174684D01*
X280516D01*
G37*
G36*
X274016Y178684D02*Y176716D01*
X275984D01*
Y178684D01*
X274016D01*
G37*
G36*
Y174748D02*Y172778D01*
X275984D01*
Y174748D01*
X274016D01*
G37*
G36*
X280516Y165248D02*Y163278D01*
X282484D01*
Y165248D01*
X280516D01*
G37*
G36*
Y169184D02*Y167216D01*
X282484D01*
Y169184D01*
X280516D01*
G37*
G54D194*X200453Y196017D02*X203843D01*
X200453Y194049D02*X203843D01*
X200453Y192080D02*X203843D01*
X200453Y190112D02*X203843D01*
X200453Y188143D02*X203843D01*
X200453Y186175D02*X203843D01*
X200453Y184206D02*X203843D01*
X200453Y182238D02*X203843D01*
X200453Y180269D02*X203843D01*
X200453Y178301D02*X203843D01*
X200453Y176332D02*X203843D01*
X200453Y174364D02*X203843D01*
X200453Y172395D02*X203843D01*
X200453Y170427D02*X203843D01*
X200453Y168458D02*X203843D01*
X200453Y166490D02*X203843D01*
X200453Y164521D02*X203843D01*
X200453Y162553D02*X203843D01*
X200453Y160584D02*X203843D01*
X200453Y158616D02*X203843D01*
X200453Y156647D02*X203843D01*
X200453Y154679D02*X203843D01*
X200453Y152710D02*X203843D01*
X200453Y150742D02*X203843D01*
X200453Y148773D02*X203843D01*
X210331Y142285D02*Y138895D01*
X212299Y142285D02*Y138895D01*
X214268Y142285D02*Y138895D01*
X216236Y142285D02*Y138895D01*
X218205Y142285D02*Y138895D01*
X220173Y142285D02*Y138895D01*
X222142Y142285D02*Y138895D01*
X224110Y142285D02*Y138895D01*
X226079Y142285D02*Y138895D01*
X228047Y142285D02*Y138895D01*
X230016Y142285D02*Y138895D01*
X231984Y142285D02*Y138895D01*
X233953Y142285D02*Y138895D01*
X235921Y142285D02*Y138895D01*
X237890Y142285D02*Y138895D01*
X239858Y142285D02*Y138895D01*
X241827Y142285D02*Y138895D01*
X243795Y142285D02*Y138895D01*
X245764Y142285D02*Y138895D01*
X247732Y142285D02*Y138895D01*
X249701Y142285D02*Y138895D01*
X251669Y142285D02*Y138895D01*
X253638Y142285D02*Y138895D01*
X255606Y142285D02*Y138895D01*
X257575Y142285D02*Y138895D01*
X264063Y148773D02*X267453D01*
X264063Y150741D02*X267453D01*
X264063Y152710D02*X267453D01*
X264063Y154678D02*X267453D01*
X264063Y156647D02*X267453D01*
X264063Y158615D02*X267453D01*
X264063Y160584D02*X267453D01*
X264063Y162552D02*X267453D01*
X264063Y164521D02*X267453D01*
X264063Y166489D02*X267453D01*
X264063Y168458D02*X267453D01*
X264063Y170426D02*X267453D01*
X264063Y172395D02*X267453D01*
X264063Y174363D02*X267453D01*
X264063Y176332D02*X267453D01*
X264063Y178300D02*X267453D01*
X264063Y180269D02*X267453D01*
X264063Y182237D02*X267453D01*
X264063Y184206D02*X267453D01*
X264063Y186174D02*X267453D01*
X264063Y188143D02*X267453D01*
X264063Y190111D02*X267453D01*
X264063Y192080D02*X267453D01*
X264063Y194048D02*X267453D01*
X264063Y196017D02*X267453D01*
X257575Y205895D02*Y202505D01*
X255607Y205895D02*Y202505D01*
X253638Y205895D02*Y202505D01*
X251670Y205895D02*Y202505D01*
X249701Y205895D02*Y202505D01*
X247733Y205895D02*Y202505D01*
X245764Y205895D02*Y202505D01*
X243796Y205895D02*Y202505D01*
X241827Y205895D02*Y202505D01*
X239859Y205895D02*Y202505D01*
X237890Y205895D02*Y202505D01*
X235922Y205895D02*Y202505D01*
X233953Y205895D02*Y202505D01*
X231985Y205895D02*Y202505D01*
X230016Y205895D02*Y202505D01*
X228048Y205895D02*Y202505D01*
X226079Y205895D02*Y202505D01*
X224111Y205895D02*Y202505D01*
X222142Y205895D02*Y202505D01*
X220174Y205895D02*Y202505D01*
X218205Y205895D02*Y202505D01*
X216237Y205895D02*Y202505D01*
X214268Y205895D02*Y202505D01*
X212300Y205895D02*Y202505D01*
X210331Y205895D02*Y202505D01*
G54D185*X72206Y105680D02*Y104280D01*
X80206Y105680D02*Y104280D01*
G54D187*G36*
X81750Y79450D02*Y67950D01*
X93250D01*
Y79450D01*
X81750D01*
G37*
G36*
Y94450D02*Y82950D01*
X93250D01*
Y94450D01*
X81750D01*
G37*
G36*
X66750Y79450D02*Y67950D01*
X78250D01*
Y79450D01*
X66750D01*
G37*
G36*
Y94450D02*Y82950D01*
X78250D01*
Y94450D01*
X66750D01*
G37*
G54D195*X51000Y72200D02*X56500D01*
X51000Y90200D02*X56500D01*
G54D185*X45706Y59180D02*Y57780D01*
X53706Y59180D02*Y57780D01*
G54D187*G36*
X81750Y196950D02*Y185450D01*
X93250D01*
Y196950D01*
X81750D01*
G37*
G36*
Y211950D02*Y200450D01*
X93250D01*
Y211950D01*
X81750D01*
G37*
G36*
X66750Y196950D02*Y185450D01*
X78250D01*
Y196950D01*
X66750D01*
G37*
G36*
Y211950D02*Y200450D01*
X78250D01*
Y211950D01*
X66750D01*
G37*
G54D195*X51000Y189700D02*X56500D01*
X51000Y207700D02*X56500D01*
G54D185*X77823Y175912D02*Y174512D01*
X85823Y175912D02*Y174512D01*
X58823Y175912D02*Y174512D01*
X50823Y175912D02*Y174512D01*
X114300Y281700D02*X115700D01*
X114300Y273700D02*X115700D01*
G54D196*X268055Y23101D02*Y18601D01*
X263724Y24676D02*Y20176D01*
X259394Y23101D02*Y18601D01*
X255063Y22313D02*Y17813D01*
X250732Y23101D02*Y18601D01*
X246402Y22313D02*Y17813D01*
X242071Y23101D02*Y18601D01*
X237740Y23101D02*Y18601D01*
G54D197*X234591Y11683D02*Y9715D01*
X240890Y62471D02*X242465D01*
X263331D02*X264906D01*
X286953Y7353D02*Y5384D01*
G54D185*X329000Y191400D02*Y190000D01*
X337000Y191400D02*Y190000D01*
X328500Y220900D02*Y219500D01*
X336500Y220900D02*Y219500D01*
M02*
