G04 start of page 13 for group -4079 idx -4079 *
G04 Title: (unknown), topsilk *
G04 Creator: pcb 20110918 *
G04 CreationDate: Thu 03 Oct 2013 10:13:16 GMT UTC *
G04 For: michael *
G04 Format: Gerber/RS-274X *
G04 PCB-Dimensions: 386000 393500 *
G04 PCB-Coordinate-Origin: lower left *
%MOIN*%
%FSLAX25Y25*%
%LNTOPSILK*%
%ADD155C,0.0200*%
%ADD154C,0.0060*%
%ADD153C,0.0100*%
%ADD152C,0.0080*%
%ADD151C,0.0001*%
G54D151*G36*
X307500Y241000D02*X310000D01*
Y232500D01*
X307500D01*
Y241000D01*
G37*
G36*
X204500Y240500D02*X207000D01*
Y232500D01*
X204500D01*
Y240500D01*
G37*
G54D152*X232000Y131500D02*Y132500D01*
G54D153*X368500Y263000D02*Y298500D01*
X385500Y393000D02*Y298500D01*
X368500D01*
Y263000D02*X385500D01*
Y500D01*
X17500Y298500D02*Y263000D01*
X385500Y500D02*X500D01*
Y263000D01*
Y298500D02*Y393000D01*
Y263000D02*X17500D01*
Y298500D02*X500D01*
Y393000D02*X385500D01*
G54D154*X344500Y156500D02*X345000Y157000D01*
X346000D01*
X346500Y156500D01*
X346000Y153000D02*X346500Y153500D01*
X345000Y153000D02*X346000D01*
X344500Y153500D02*X345000Y153000D01*
Y155200D02*X346000D01*
X346500Y156500D02*Y155700D01*
Y154700D02*Y153500D01*
Y154700D02*X346000Y155200D01*
X346500Y155700D02*X346000Y155200D01*
X347700Y153000D02*X348200D01*
X349400Y156500D02*X349900Y157000D01*
X350900D01*
X351400Y156500D01*
X350900Y153000D02*X351400Y153500D01*
X349900Y153000D02*X350900D01*
X349400Y153500D02*X349900Y153000D01*
Y155200D02*X350900D01*
X351400Y156500D02*Y155700D01*
Y154700D02*Y153500D01*
Y154700D02*X350900Y155200D01*
X351400Y155700D02*X350900Y155200D01*
X352600Y157000D02*X353600Y153000D01*
X354600Y157000D01*
X340500Y268500D02*X341000Y269000D01*
X342500D01*
X343000Y268500D01*
Y267500D01*
X340500Y265000D02*X343000Y267500D01*
X340500Y265000D02*X343000D01*
X344200D02*X344700D01*
X345900Y265500D02*X346400Y265000D01*
X345900Y266300D02*Y265500D01*
Y266300D02*X346600Y267000D01*
X347200D01*
X347900Y266300D01*
Y265500D01*
X347400Y265000D02*X347900Y265500D01*
X346400Y265000D02*X347400D01*
X345900Y267700D02*X346600Y267000D01*
X345900Y268500D02*Y267700D01*
Y268500D02*X346400Y269000D01*
X347400D01*
X347900Y268500D01*
Y267700D01*
X347200Y267000D02*X347900Y267700D01*
X349100Y269000D02*X351100D01*
X349100D02*Y267000D01*
X349600Y267500D01*
X350600D01*
X351100Y267000D01*
Y265500D01*
X350600Y265000D02*X351100Y265500D01*
X349600Y265000D02*X350600D01*
X349100Y265500D02*X349600Y265000D01*
X352300Y269000D02*X353300Y265000D01*
X354300Y269000D01*
X114500Y336600D02*X114900Y337000D01*
Y335000D01*
X114500D02*X115250D01*
X41000Y296000D02*X43000D01*
X42000D02*Y292000D01*
X44200Y294200D02*X45700D01*
X44200Y292000D02*X46200D01*
X44200Y296000D02*Y292000D01*
Y296000D02*X46200D01*
X47400D02*X49400D01*
X49900Y295500D01*
Y294500D01*
X49400Y294000D02*X49900Y294500D01*
X47900Y294000D02*X49400D01*
X47900Y296000D02*Y292000D01*
X48700Y294000D02*X49900Y292000D01*
X51100Y296000D02*Y292000D01*
Y296000D02*X52600Y294000D01*
X54100Y296000D01*
Y292000D01*
X55800Y296000D02*Y292000D01*
X55300Y296000D02*X57300D01*
X57800Y295500D01*
Y294500D01*
X57300Y294000D02*X57800Y294500D01*
X55800Y294000D02*X57300D01*
X59000Y296000D02*Y294000D01*
X59500Y292000D01*
X60500Y294000D01*
X61500Y292000D01*
X62000Y294000D01*
Y296000D02*Y294000D01*
X63200Y296000D02*X65200D01*
X65700Y295500D01*
Y294500D01*
X65200Y294000D02*X65700Y294500D01*
X63700Y294000D02*X65200D01*
X63700Y296000D02*Y292000D01*
X64500Y294000D02*X65700Y292000D01*
X103500Y114500D02*X105500D01*
X103500D02*Y112500D01*
X104000Y113000D01*
X105000D01*
X105500Y112500D01*
Y111000D01*
X105000Y110500D02*X105500Y111000D01*
X104000Y110500D02*X105000D01*
X103500Y111000D02*X104000Y110500D01*
X106700Y114500D02*X107700Y110500D01*
X108700Y114500D01*
X138000Y107000D02*X138250Y106750D01*
X137250Y107000D02*X138000D01*
X137000Y106750D02*X137250Y107000D01*
X137000Y106750D02*Y106250D01*
X137250Y106000D01*
X138000D01*
X138250Y105750D01*
Y105250D01*
X138000Y105000D02*X138250Y105250D01*
X137250Y105000D02*X138000D01*
X137000Y105250D02*X137250Y105000D01*
X138850Y107000D02*Y106000D01*
X139100Y105000D01*
X139600Y106000D01*
X140100Y105000D01*
X140350Y106000D01*
Y107000D02*Y106000D01*
X141200Y107000D02*Y105000D01*
X141850Y107000D02*X142200Y106650D01*
Y105350D01*
X141850Y105000D02*X142200Y105350D01*
X140950Y105000D02*X141850D01*
X140950Y107000D02*X141850D01*
X142800D02*X143300D01*
X143050D02*Y105000D01*
X142800D02*X143300D01*
X143900Y106750D02*Y105250D01*
Y106750D02*X144150Y107000D01*
X144650D01*
X144900Y106750D01*
Y105250D01*
X144650Y105000D02*X144900Y105250D01*
X144150Y105000D02*X144650D01*
X143900Y105250D02*X144150Y105000D01*
X138000Y102000D02*X138250Y101750D01*
X137250Y102000D02*X138000D01*
X137000Y101750D02*X137250Y102000D01*
X137000Y101750D02*Y101250D01*
X137250Y101000D01*
X138000D01*
X138250Y100750D01*
Y100250D01*
X138000Y100000D02*X138250Y100250D01*
X137250Y100000D02*X138000D01*
X137000Y100250D02*X137250Y100000D01*
X138850Y102000D02*Y101000D01*
X139100Y100000D01*
X139600Y101000D01*
X140100Y100000D01*
X140350Y101000D01*
Y102000D02*Y101000D01*
X141200Y102000D02*Y100000D01*
X141850Y102000D02*X142200Y101650D01*
Y100350D01*
X141850Y100000D02*X142200Y100350D01*
X140950Y100000D02*X141850D01*
X140950Y102000D02*X141850D01*
X143150Y100000D02*X143800D01*
X142800Y100350D02*X143150Y100000D01*
X142800Y101650D02*Y100350D01*
Y101650D02*X143150Y102000D01*
X143800D01*
X144400D02*Y100000D01*
Y101000D02*X145400Y102000D01*
X144400Y101000D02*X145400Y100000D01*
X138000Y84500D02*X139250Y86500D01*
X138000D02*X139250Y84500D01*
X139850Y86500D02*X140850D01*
X141100Y86250D01*
Y85750D01*
X140850Y85500D02*X141100Y85750D01*
X140100Y85500D02*X140850D01*
X140100Y86500D02*Y84500D01*
X140500Y85500D02*X141100Y84500D01*
X141700Y85600D02*X142450D01*
X141700Y84500D02*X142700D01*
X141700Y86500D02*Y84500D01*
Y86500D02*X142700D01*
X144300D02*X144550Y86250D01*
X143550Y86500D02*X144300D01*
X143300Y86250D02*X143550Y86500D01*
X143300Y86250D02*Y85750D01*
X143550Y85500D01*
X144300D01*
X144550Y85250D01*
Y84750D01*
X144300Y84500D02*X144550Y84750D01*
X143550Y84500D02*X144300D01*
X143300Y84750D02*X143550Y84500D01*
X138500Y96500D02*X138750Y96250D01*
X137750Y96500D02*X138500D01*
X137500Y96250D02*X137750Y96500D01*
X137500Y96250D02*Y95750D01*
X137750Y95500D01*
X138500D01*
X138750Y95250D01*
Y94750D01*
X138500Y94500D02*X138750Y94750D01*
X137750Y94500D02*X138500D01*
X137500Y94750D02*X137750Y94500D01*
X139350Y96500D02*Y95500D01*
X139600Y94500D01*
X140100Y95500D01*
X140600Y94500D01*
X140850Y95500D01*
Y96500D02*Y95500D01*
X141450Y96500D02*X141950Y94500D01*
X142450Y96500D01*
X172500Y32500D02*X173000Y33000D01*
X173500D01*
X174000Y32500D01*
X174500D01*
X175000Y33000D01*
X178000Y35000D02*X180000D01*
X178000D02*Y33000D01*
X178500Y33500D01*
X179500D01*
X180000Y33000D01*
Y31500D01*
X179500Y31000D02*X180000Y31500D01*
X178500Y31000D02*X179500D01*
X178000Y31500D02*X178500Y31000D01*
X181200Y31500D02*X181700Y31000D01*
X181200Y34500D02*Y31500D01*
Y34500D02*X181700Y35000D01*
X182700D01*
X183200Y34500D01*
Y31500D01*
X182700Y31000D02*X183200Y31500D01*
X181700Y31000D02*X182700D01*
X181200Y32000D02*X183200Y34000D01*
X184400Y31500D02*X184900Y31000D01*
X184400Y34500D02*Y31500D01*
Y34500D02*X184900Y35000D01*
X185900D01*
X186400Y34500D01*
Y31500D01*
X185900Y31000D02*X186400Y31500D01*
X184900Y31000D02*X185900D01*
X184400Y32000D02*X186400Y34000D01*
X188100Y32500D02*Y31000D01*
Y32500D02*X188600Y33000D01*
X189100D01*
X189600Y32500D01*
Y31000D01*
Y32500D02*X190100Y33000D01*
X190600D01*
X191100Y32500D01*
Y31000D01*
X187600Y33000D02*X188100Y32500D01*
X192300Y34000D02*Y31000D01*
Y34000D02*X193000Y35000D01*
X194100D01*
X194800Y34000D01*
Y31000D01*
X192300Y33000D02*X194800D01*
G54D152*X32500Y92000D02*X33500Y91000D01*
X29500Y92000D02*X32500D01*
X28500Y91000D02*X29500Y92000D01*
X28500Y91000D02*Y89000D01*
X29500Y88000D01*
X32500D01*
X33500Y87000D01*
Y85000D01*
X32500Y84000D02*X33500Y85000D01*
X29500Y84000D02*X32500D01*
X28500Y85000D02*X29500Y84000D01*
X37300D02*X39900D01*
X35900Y85400D02*X37300Y84000D01*
X35900Y90600D02*Y85400D01*
Y90600D02*X37300Y92000D01*
X39900D01*
X46300D02*X47300Y91000D01*
X43300Y92000D02*X46300D01*
X42300Y91000D02*X43300Y92000D01*
X42300Y91000D02*Y89000D01*
X43300Y88000D01*
X46300D01*
X47300Y87000D01*
Y85000D01*
X46300Y84000D02*X47300Y85000D01*
X43300Y84000D02*X46300D01*
X42300Y85000D02*X43300Y84000D01*
X49700Y92000D02*X51700D01*
X50700D02*Y84000D01*
X49700D02*X51700D01*
X54100Y91000D02*X55100Y92000D01*
X58100D01*
X59100Y91000D01*
Y89000D01*
X54100Y84000D02*X59100Y89000D01*
X54100Y84000D02*X59100D01*
X65500Y92000D02*X66500Y91000D01*
X62500Y92000D02*X65500D01*
X61500Y91000D02*X62500Y92000D01*
X61500Y91000D02*Y89000D01*
X62500Y88000D01*
X65500D01*
X66500Y87000D01*
Y85000D01*
X65500Y84000D02*X66500Y85000D01*
X62500Y84000D02*X65500D01*
X61500Y85000D02*X62500Y84000D01*
X69900Y92000D02*Y84000D01*
X72500Y92000D02*X73900Y90600D01*
Y85400D01*
X72500Y84000D02*X73900Y85400D01*
X68900Y84000D02*X72500D01*
X68900Y92000D02*X72500D01*
X79900D02*X81900Y84000D01*
X83900Y92000D01*
X86300Y91000D02*X87300Y92000D01*
X89300D01*
X90300Y91000D01*
X89300Y84000D02*X90300Y85000D01*
X87300Y84000D02*X89300D01*
X86300Y85000D02*X87300Y84000D01*
Y88400D02*X89300D01*
X90300Y91000D02*Y89400D01*
Y87400D02*Y85000D01*
Y87400D02*X89300Y88400D01*
X90300Y89400D02*X89300Y88400D01*
X92700Y84000D02*X93700D01*
X96100Y85000D02*X97100Y84000D01*
X96100Y91000D02*Y85000D01*
Y91000D02*X97100Y92000D01*
X99100D01*
X100100Y91000D01*
Y85000D01*
X99100Y84000D02*X100100Y85000D01*
X97100Y84000D02*X99100D01*
X96100Y86000D02*X100100Y90000D01*
G54D154*X29500Y69500D02*Y68000D01*
Y69500D02*X30000Y70000D01*
X30500D01*
X31000Y69500D01*
Y68000D01*
Y69500D02*X31500Y70000D01*
X32000D01*
X32500Y69500D01*
Y68000D01*
X29000Y70000D02*X29500Y69500D01*
X33700Y71000D02*Y70900D01*
Y69500D02*Y68000D01*
X35200Y70000D02*X36700D01*
X34700Y69500D02*X35200Y70000D01*
X34700Y69500D02*Y68500D01*
X35200Y68000D01*
X36700D01*
X37900Y72000D02*Y68000D01*
Y69500D02*X38400Y70000D01*
X39400D01*
X39900Y69500D01*
Y68000D01*
X42600Y70000D02*X43100Y69500D01*
X41600Y70000D02*X42600D01*
X41100Y69500D02*X41600Y70000D01*
X41100Y69500D02*Y68500D01*
X41600Y68000D01*
X43100Y70000D02*Y68500D01*
X43600Y68000D01*
X41600D02*X42600D01*
X43100Y68500D01*
X45300Y68000D02*X46800D01*
X44800Y68500D02*X45300Y68000D01*
X44800Y69500D02*Y68500D01*
Y69500D02*X45300Y70000D01*
X46300D01*
X46800Y69500D01*
X44800Y69000D02*X46800D01*
Y69500D02*Y69000D01*
X48000Y72000D02*Y68500D01*
X48500Y68000D01*
X49500Y72000D02*Y69000D01*
X50500Y68000D01*
X53500D01*
X54500Y72000D02*Y69500D01*
Y72000D02*X53500Y73000D01*
X50500D02*X53500D01*
X50500D02*X49500Y72000D01*
X51000Y71000D02*Y70000D01*
X51500Y69500D01*
X52500D01*
X53000Y70000D01*
X53500Y69500D01*
X53000Y71500D02*Y70000D01*
Y71000D02*X52500Y71500D01*
X51500D02*X52500D01*
X51500D02*X51000Y71000D01*
X53500Y69500D02*X54500D01*
X56200Y70000D02*X57700D01*
X55700Y69500D02*X56200Y70000D01*
X55700Y69500D02*Y68500D01*
X56200Y68000D01*
X57700D01*
X58900Y69500D02*Y68500D01*
Y69500D02*X59400Y70000D01*
X60400D01*
X60900Y69500D01*
Y68500D01*
X60400Y68000D02*X60900Y68500D01*
X59400Y68000D02*X60400D01*
X58900Y68500D02*X59400Y68000D01*
X64100Y72000D02*Y68000D01*
X63600D02*X64100Y68500D01*
X62600Y68000D02*X63600D01*
X62100Y68500D02*X62600Y68000D01*
X62100Y69500D02*Y68500D01*
Y69500D02*X62600Y70000D01*
X63600D01*
X64100Y69500D01*
X65800Y68000D02*X67300D01*
X65300Y68500D02*X65800Y68000D01*
X65300Y69500D02*Y68500D01*
Y69500D02*X65800Y70000D01*
X66800D01*
X67300Y69500D01*
X65300Y69000D02*X67300D01*
Y69500D02*Y69000D01*
X69000Y68000D02*X70500D01*
X71000Y68500D01*
X70500Y69000D02*X71000Y68500D01*
X69000Y69000D02*X70500D01*
X68500Y69500D02*X69000Y69000D01*
X68500Y69500D02*X69000Y70000D01*
X70500D01*
X71000Y69500D01*
X68500Y68500D02*X69000Y68000D01*
X72700Y69500D02*Y68000D01*
Y69500D02*X73200Y70000D01*
X74200D01*
X72200D02*X72700Y69500D01*
X75900Y70000D02*X77400D01*
X75400Y69500D02*X75900Y70000D01*
X75400Y69500D02*Y68500D01*
X75900Y68000D01*
X77400D01*
X78600D02*X79100D01*
X80800Y70000D02*X82300D01*
X80300Y69500D02*X80800Y70000D01*
X80300Y69500D02*Y68500D01*
X80800Y68000D01*
X82300D01*
X83500Y69500D02*Y68500D01*
Y69500D02*X84000Y70000D01*
X85000D01*
X85500Y69500D01*
Y68500D01*
X85000Y68000D02*X85500Y68500D01*
X84000Y68000D02*X85000D01*
X83500Y68500D02*X84000Y68000D01*
X87200Y69500D02*Y68000D01*
Y69500D02*X87700Y70000D01*
X88200D01*
X88700Y69500D01*
Y68000D01*
Y69500D02*X89200Y70000D01*
X89700D01*
X90200Y69500D01*
Y68000D01*
X86700Y70000D02*X87200Y69500D01*
X29000Y80000D02*Y76000D01*
Y80000D02*X30500Y78000D01*
X32000Y80000D01*
Y76000D01*
X33200Y79000D02*Y78900D01*
Y77500D02*Y76000D01*
X34700Y78000D02*X36200D01*
X34200Y77500D02*X34700Y78000D01*
X34200Y77500D02*Y76500D01*
X34700Y76000D01*
X36200D01*
X37400Y80000D02*Y76000D01*
Y77500D02*X37900Y78000D01*
X38900D01*
X39400Y77500D01*
Y76000D01*
X42100Y78000D02*X42600Y77500D01*
X41100Y78000D02*X42100D01*
X40600Y77500D02*X41100Y78000D01*
X40600Y77500D02*Y76500D01*
X41100Y76000D01*
X42600Y78000D02*Y76500D01*
X43100Y76000D01*
X41100D02*X42100D01*
X42600Y76500D01*
X44800Y76000D02*X46300D01*
X44300Y76500D02*X44800Y76000D01*
X44300Y77500D02*Y76500D01*
Y77500D02*X44800Y78000D01*
X45800D01*
X46300Y77500D01*
X44300Y77000D02*X46300D01*
Y77500D02*Y77000D01*
X47500Y80000D02*Y76500D01*
X48000Y76000D01*
X50800Y80000D02*Y76000D01*
Y80000D02*X52300Y78000D01*
X53800Y80000D01*
Y76000D01*
X55500Y78000D02*X57000D01*
X55000Y77500D02*X55500Y78000D01*
X55000Y77500D02*Y76500D01*
X55500Y76000D01*
X57000D01*
X58200Y80000D02*Y76000D01*
Y80000D02*X59700Y78000D01*
X61200Y80000D01*
Y76000D01*
X63900Y78000D02*X64400Y77500D01*
X62900Y78000D02*X63900D01*
X62400Y77500D02*X62900Y78000D01*
X62400Y77500D02*Y76500D01*
X62900Y76000D01*
X64400Y78000D02*Y76500D01*
X64900Y76000D01*
X62900D02*X63900D01*
X64400Y76500D01*
X66600Y76000D02*X68100D01*
X68600Y76500D01*
X68100Y77000D02*X68600Y76500D01*
X66600Y77000D02*X68100D01*
X66100Y77500D02*X66600Y77000D01*
X66100Y77500D02*X66600Y78000D01*
X68100D01*
X68600Y77500D01*
X66100Y76500D02*X66600Y76000D01*
X70300Y80000D02*Y76500D01*
X70800Y76000D01*
X69800Y78500D02*X70800D01*
X72300Y76000D02*X73800D01*
X71800Y76500D02*X72300Y76000D01*
X71800Y77500D02*Y76500D01*
Y77500D02*X72300Y78000D01*
X73300D01*
X73800Y77500D01*
X71800Y77000D02*X73800D01*
Y77500D02*Y77000D01*
X75500Y77500D02*Y76000D01*
Y77500D02*X76000Y78000D01*
X77000D01*
X75000D02*X75500Y77500D01*
G54D152*X359800Y330900D02*Y322100D01*
X375200D01*
Y330900D02*Y322100D01*
X359800Y330900D02*X375200D01*
G54D153*X118000Y354500D02*X368000D01*
X118000D02*Y334500D01*
X368000D01*
Y354500D02*Y334500D01*
X358000Y354500D02*Y344500D01*
X368000D01*
Y389500D02*Y354500D01*
X118000Y389500D02*X368000D01*
X118000D02*Y354500D01*
X117000Y228000D02*X151000D01*
X117000D02*Y197000D01*
X151000D01*
Y228000D02*Y215000D01*
Y210000D02*Y197000D01*
Y215000D02*G75*G03X151000Y210000I0J-2500D01*G01*
G54D152*X202100Y269700D02*X210900D01*
X202100D02*Y254300D01*
X210900D01*
Y269700D02*Y254300D01*
G54D154*X152728Y204291D02*X156271D01*
Y211771D02*Y204291D01*
X152728Y211771D02*X156271D01*
X152728D02*Y204291D01*
G54D153*X6000Y330500D02*X98000D01*
X6000D02*Y389500D01*
X98000D01*
Y330500D01*
G54D152*X71100Y233700D02*X79900D01*
X71100D02*Y218300D01*
X79900D01*
Y233700D02*Y218300D01*
G54D153*X37000Y318500D02*X47000D01*
X37000D02*Y298500D01*
X47000D01*
Y318500D02*Y298500D01*
X37000Y318500D02*Y308500D01*
X47000D01*
X83208Y318646D02*Y299748D01*
X54468Y318646D02*X83208D01*
X54468D02*Y299748D01*
X83208D01*
X78484Y303685D02*Y299748D01*
X77696Y303685D02*X78484D01*
X77696D02*Y300536D01*
X78484Y318646D02*Y314709D01*
X77696D02*X78484D01*
X77696Y317859D02*Y314709D01*
X67854Y313528D02*X70216Y315890D01*
X67460Y318646D01*
Y313922D01*
X67854Y313528D01*
X61555Y315890D02*X67460D01*
X71003Y318646D02*Y313134D01*
X70216Y315890D02*X73366D01*
G54D152*X17000Y325500D02*X27000D01*
X17000D02*Y304500D01*
X27000D01*
Y325500D02*Y304500D01*
G54D153*X12248Y228792D02*X31146D01*
Y257532D02*Y228792D01*
X12248Y257532D02*X31146D01*
X12248D02*Y228792D01*
Y233516D02*X16185D01*
Y234304D02*Y233516D01*
X13036Y234304D02*X16185D01*
X27209Y233516D02*X31146D01*
X27209Y234304D02*Y233516D01*
Y234304D02*X30359D01*
X26028Y244146D02*X28390Y241784D01*
X31146Y244540D01*
X26422D02*X31146D01*
X26422D02*X26028Y244146D01*
X28390Y250445D02*Y244540D01*
X25634Y240997D02*X31146D01*
X28390Y241784D02*Y238634D01*
G54D155*X116000Y251000D02*X206000D01*
X116000Y241000D02*X206000D01*
G54D153*X201000Y251000D02*Y241000D01*
G54D155*X206000D02*G75*G03X206000Y251000I0J5000D01*G01*
X116000D02*G75*G03X116000Y241000I0J-5000D01*G01*
G54D152*X292200Y160900D02*Y152100D01*
X276800Y160900D02*X292200D01*
X276800D02*Y152100D01*
X292200D01*
X291200Y160900D02*Y152100D01*
G54D153*X255500Y228250D02*X289500D01*
X255500D02*Y197250D01*
X289500D01*
Y228250D02*Y215250D01*
Y210250D02*Y197250D01*
Y215250D02*G75*G03X289500Y210250I0J-2500D01*G01*
G54D152*X292200Y173400D02*Y164600D01*
X276800Y173400D02*X292200D01*
X276800D02*Y164600D01*
X292200D01*
G54D154*X292228Y202728D02*X295771D01*
Y210208D02*Y202728D01*
X292228Y210208D02*X295771D01*
X292228D02*Y202728D01*
G54D152*X336100Y190800D02*X344900D01*
Y206200D02*Y190800D01*
X336100Y206200D02*X344900D01*
X336100D02*Y190800D01*
X302600Y269700D02*X311400D01*
X302600D02*Y254300D01*
X311400D01*
Y269700D02*Y254300D01*
G54D154*X230728Y204291D02*X234271D01*
Y211771D02*Y204291D01*
X230728Y211771D02*X234271D01*
X230728D02*Y204291D01*
G54D153*X195000Y228000D02*X229000D01*
X195000D02*Y197000D01*
X229000D01*
Y228000D02*Y215000D01*
Y210000D02*Y197000D01*
Y215000D02*G75*G03X229000Y210000I0J-2500D01*G01*
G54D155*X218000Y251000D02*X308000D01*
X218000Y241000D02*X308000D01*
G54D153*X303000Y251000D02*Y241000D01*
G54D155*X308000D02*G75*G03X308000Y251000I0J5000D01*G01*
X218000D02*G75*G03X218000Y241000I0J-5000D01*G01*
G54D153*X355250Y263250D02*Y211250D01*
X323750D02*X355250D01*
X323750Y263250D02*Y211250D01*
Y263250D02*X355250D01*
X339750Y227250D02*Y223250D01*
G54D152*X168241Y149159D02*X219659D01*
Y94841D01*
X165341D01*
Y146259D01*
X168241Y149159D01*
X167241Y146259D02*G75*G03X167241Y146259I1000J0D01*G01*
G54D154*X191728Y159228D02*X195271D01*
Y166708D02*Y159228D01*
X191728Y166708D02*X195271D01*
X191728D02*Y159228D01*
X221228Y150728D02*X224771D01*
Y158208D02*Y150728D01*
X221228Y158208D02*X224771D01*
X221228D02*Y150728D01*
Y85791D02*X224771D01*
Y93271D02*Y85791D01*
X221228Y93271D02*X224771D01*
X221228D02*Y85791D01*
X229728Y123728D02*X233271D01*
Y131208D02*Y123728D01*
X229728Y131208D02*X233271D01*
X229728D02*Y123728D01*
X235300Y123656D02*X238843D01*
Y131136D02*Y123656D01*
X235300Y131136D02*X238843D01*
X235300D02*Y123656D01*
X229729Y122272D02*X233272D01*
X229729D02*Y114792D01*
X233272D01*
Y122272D02*Y114792D01*
X160229Y158209D02*X163772D01*
X160229D02*Y150729D01*
X163772D01*
Y158209D02*Y150729D01*
G54D152*X132300Y158900D02*Y150100D01*
X147700D01*
Y158900D02*Y150100D01*
X132300Y158900D02*X147700D01*
G54D154*X160228Y85728D02*X163771D01*
Y93208D02*Y85728D01*
X160228Y93208D02*X163771D01*
X160228D02*Y85728D01*
X192228Y70229D02*Y73772D01*
X199708Y70229D02*X192228D01*
X199708Y73772D02*Y70229D01*
X192228Y73772D02*X199708D01*
X197729Y83209D02*X201272D01*
X197729D02*Y75729D01*
X201272D01*
Y83209D02*Y75729D01*
G54D152*X165800Y67900D02*Y59100D01*
X181200D01*
Y67900D02*Y59100D01*
X165800Y67900D02*X181200D01*
X165739Y78652D02*Y69852D01*
X181139D01*
Y78652D01*
X165739D01*
G54D154*X192229Y83209D02*X195772D01*
X192229D02*Y75729D01*
X195772D01*
Y83209D02*Y75729D01*
G54D153*X114894Y73500D02*X128694D01*
X114894Y118500D02*X128694D01*
Y109406D01*
X128700Y109400D01*
X128600Y82300D02*Y73500D01*
X114900Y118500D02*Y109400D01*
Y82200D02*Y73500D01*
Y109400D02*X120300D01*
Y82200D01*
X114900D02*X120300D01*
G54D154*X275791Y17772D02*Y14229D01*
X283271D01*
Y17772D02*Y14229D01*
X275791Y17772D02*X283271D01*
G54D152*X311600Y96300D02*X320400D01*
Y111700D02*Y96300D01*
X311600Y111700D02*X320400D01*
X311600D02*Y96300D01*
X359100Y95300D02*X367900D01*
Y110700D02*Y95300D01*
X359100Y110700D02*X367900D01*
X359100D02*Y95300D01*
G54D153*X354750Y150750D02*Y98750D01*
X323250D02*X354750D01*
X323250Y150750D02*Y98750D01*
Y150750D02*X354750D01*
X339250Y114750D02*Y110750D01*
G54D152*X341100Y67800D02*X349900D01*
Y83200D02*Y67800D01*
X341100Y83200D02*X349900D01*
X341100D02*Y67800D01*
X330600D02*X339400D01*
Y83200D02*Y67800D01*
X330600Y83200D02*X339400D01*
X330600D02*Y67800D01*
X320100D02*X328900D01*
Y83200D02*Y67800D01*
X320100Y83200D02*X328900D01*
X320100D02*Y67800D01*
X309600D02*X318400D01*
Y83200D02*Y67800D01*
X309600Y83200D02*X318400D01*
X309600D02*Y67800D01*
X298600D02*X307400D01*
Y83200D02*Y67800D01*
X298600Y83200D02*X307400D01*
X298600D02*Y67800D01*
X287600D02*X296400D01*
Y83200D02*Y67800D01*
X287600Y83200D02*X296400D01*
X287600D02*Y67800D01*
G54D154*X155221Y791D02*X192229D01*
X158764D02*Y2169D01*
Y10634D02*Y12799D01*
X188882Y791D02*Y2169D01*
Y10634D02*Y12799D01*
X166047Y18508D02*X167229D01*
X180024D02*X181402D01*
G54D152*X162500Y38500D02*Y28500D01*
X141500Y38500D02*X162500D01*
X141500D02*Y28500D01*
X162500D01*
X245200Y78400D02*Y69600D01*
X229800Y78400D02*X245200D01*
X229800D02*Y69600D01*
X245200D01*
G54D154*X256000Y7000D02*X264000D01*
X256000Y12000D02*Y7000D01*
X225500Y12000D02*X256000D01*
X225500D02*X223000Y9500D01*
X264000Y7000D02*Y4500D01*
X267500D01*
X273000Y64500D02*Y11500D01*
X254000Y64500D02*X273000D01*
X231000D02*X244000D01*
X217500D02*X221500D01*
X217500D02*Y16500D01*
G54D153*X123292Y65252D02*Y46354D01*
X152032D01*
Y65252D01*
X123292D01*
X128016D02*Y61315D01*
X128804D01*
Y64464D01*
X128016Y46354D02*Y50291D01*
X128804D01*
Y47141D01*
X138646Y51472D02*X136284Y49110D01*
X139040Y46354D01*
Y51078D01*
X138646Y51472D01*
X139040Y49110D02*X144945D01*
X135497Y51866D02*Y46354D01*
X133134Y49110D02*X136284D01*
G54D154*X294200Y158600D02*Y154600D01*
X296200D01*
X297400Y156800D02*X298900D01*
X297400Y154600D02*X299400D01*
X297400Y158600D02*Y154600D01*
Y158600D02*X299400D01*
X301100D02*Y154600D01*
X302400Y158600D02*X303100Y157900D01*
Y155300D01*
X302400Y154600D02*X303100Y155300D01*
X300600Y154600D02*X302400D01*
X300600Y158600D02*X302400D01*
X304300Y157800D02*X305100Y158600D01*
Y154600D01*
X304300D02*X305800D01*
X329900Y192100D02*X331200D01*
X329200Y192800D02*X329900Y192100D01*
X329200Y195400D02*Y192800D01*
Y195400D02*X329900Y196100D01*
X331200D01*
X332400D02*X334400D01*
X332400D02*Y194100D01*
X332900Y194600D01*
X333900D01*
X334400Y194100D01*
Y192600D01*
X333900Y192100D02*X334400Y192600D01*
X332900Y192100D02*X333900D01*
X332400Y192600D02*X332900Y192100D01*
X294700Y171100D02*X296700D01*
X297200Y170600D01*
Y169600D01*
X296700Y169100D02*X297200Y169600D01*
X295200Y169100D02*X296700D01*
X295200Y171100D02*Y167100D01*
X296000Y169100D02*X297200Y167100D01*
X298400Y170600D02*X298900Y171100D01*
X299900D01*
X300400Y170600D01*
X299900Y167100D02*X300400Y167600D01*
X298900Y167100D02*X299900D01*
X298400Y167600D02*X298900Y167100D01*
Y169300D02*X299900D01*
X300400Y170600D02*Y169800D01*
Y168800D02*Y167600D01*
Y168800D02*X299900Y169300D01*
X300400Y169800D02*X299900Y169300D01*
X296965Y207865D02*Y206565D01*
X297665Y208565D02*X296965Y207865D01*
X297665Y208565D02*X300265D01*
X300965Y207865D01*
Y206565D01*
X300465Y205365D02*X300965Y204865D01*
Y203865D01*
X300465Y203365D01*
X296965Y203865D02*X297465Y203365D01*
X296965Y204865D02*Y203865D01*
X297465Y205365D02*X296965Y204865D01*
X299165D02*Y203865D01*
X299665Y203365D02*X300465D01*
X297465D02*X298665D01*
X299165Y203865D01*
X299665Y203365D02*X299165Y203865D01*
X286266Y14104D02*X287566D01*
X285566Y14804D02*X286266Y14104D01*
X285566Y17404D02*Y14804D01*
Y17404D02*X286266Y18104D01*
X287566D01*
X288766Y17604D02*X289266Y18104D01*
X290766D01*
X291266Y17604D01*
Y16604D01*
X288766Y14104D02*X291266Y16604D01*
X288766Y14104D02*X291266D01*
X292466Y17604D02*X292966Y18104D01*
X294466D01*
X294966Y17604D01*
Y16604D01*
X292466Y14104D02*X294966Y16604D01*
X292466Y14104D02*X294966D01*
X290400Y61700D02*Y59700D01*
Y61700D02*X290900Y62200D01*
X291900D01*
X292400Y61700D02*X291900Y62200D01*
X292400Y61700D02*Y60200D01*
X290400D02*X294400D01*
X292400Y61000D02*X294400Y62200D01*
X290400Y64900D02*X290900Y65400D01*
X290400Y64900D02*Y63900D01*
X290900Y63400D02*X290400Y63900D01*
X290900Y63400D02*X293900D01*
X294400Y63900D01*
X292200Y64900D02*X292700Y65400D01*
X292200Y64900D02*Y63400D01*
X294400Y64900D02*Y63900D01*
Y64900D02*X293900Y65400D01*
X292700D02*X293900D01*
X312400Y115100D02*X313700D01*
X311700Y115800D02*X312400Y115100D01*
X311700Y118400D02*Y115800D01*
Y118400D02*X312400Y119100D01*
X313700D01*
X314900Y118300D02*X315700Y119100D01*
Y115100D01*
X314900D02*X316400D01*
X317600Y118600D02*X318100Y119100D01*
X319100D01*
X319600Y118600D01*
X319100Y115100D02*X319600Y115600D01*
X318100Y115100D02*X319100D01*
X317600Y115600D02*X318100Y115100D01*
Y117300D02*X319100D01*
X319600Y118600D02*Y117800D01*
Y116800D02*Y115600D01*
Y116800D02*X319100Y117300D01*
X319600Y117800D02*X319100Y117300D01*
X359900Y113100D02*X361200D01*
X359200Y113800D02*X359900Y113100D01*
X359200Y116400D02*Y113800D01*
Y116400D02*X359900Y117100D01*
X361200D01*
X362400Y116300D02*X363200Y117100D01*
Y113100D01*
X362400D02*X363900D01*
X365100Y116600D02*X365600Y117100D01*
X367100D01*
X367600Y116600D01*
Y115600D01*
X365100Y113100D02*X367600Y115600D01*
X365100Y113100D02*X367600D01*
X336250Y156750D02*Y153250D01*
X336750Y152750D01*
X337750D01*
X338250Y153250D01*
Y156750D02*Y153250D01*
X340950Y156750D02*X341450Y156250D01*
X339950Y156750D02*X340950D01*
X339450Y156250D02*X339950Y156750D01*
X339450Y156250D02*Y153250D01*
X339950Y152750D01*
X340950Y154950D02*X341450Y154450D01*
X339450Y154950D02*X340950D01*
X339950Y152750D02*X340950D01*
X341450Y153250D01*
Y154450D02*Y153250D01*
X343900Y58700D02*Y56700D01*
Y58700D02*X344400Y59200D01*
X345400D01*
X345900Y58700D02*X345400Y59200D01*
X345900Y58700D02*Y57200D01*
X343900D02*X347900D01*
X345900Y58000D02*X347900Y59200D01*
X344700Y60400D02*X343900Y61200D01*
X347900D01*
Y61900D02*Y60400D01*
X344400Y63100D02*X343900Y63600D01*
Y65100D02*Y63600D01*
Y65100D02*X344400Y65600D01*
X345400D01*
X347900Y63100D02*X345400Y65600D01*
X347900D02*Y63100D01*
X333400Y59700D02*Y57700D01*
Y59700D02*X333900Y60200D01*
X334900D01*
X335400Y59700D02*X334900Y60200D01*
X335400Y59700D02*Y58200D01*
X333400D02*X337400D01*
X335400Y59000D02*X337400Y60200D01*
X334200Y61400D02*X333400Y62200D01*
X337400D01*
Y62900D02*Y61400D01*
X334200Y64100D02*X333400Y64900D01*
X337400D01*
Y65600D02*Y64100D01*
X323217Y59224D02*Y57224D01*
Y59224D02*X323717Y59724D01*
X324717D01*
X325217Y59224D02*X324717Y59724D01*
X325217Y59224D02*Y57724D01*
X323217D02*X327217D01*
X325217Y58524D02*X327217Y59724D01*
X324017Y60924D02*X323217Y61724D01*
X327217D01*
Y62424D02*Y60924D01*
X326717Y63624D02*X327217Y64124D01*
X323717Y63624D02*X326717D01*
X323717D02*X323217Y64124D01*
Y65124D02*Y64124D01*
Y65124D02*X323717Y65624D01*
X326717D01*
X327217Y65124D02*X326717Y65624D01*
X327217Y65124D02*Y64124D01*
X326217Y63624D02*X324217Y65624D01*
X312400Y61200D02*Y59200D01*
Y61200D02*X312900Y61700D01*
X313900D01*
X314400Y61200D02*X313900Y61700D01*
X314400Y61200D02*Y59700D01*
X312400D02*X316400D01*
X314400Y60500D02*X316400Y61700D01*
X315900Y62900D02*X316400Y63400D01*
X315100Y62900D02*X315900D01*
X315100D02*X314400Y63600D01*
Y64200D02*Y63600D01*
Y64200D02*X315100Y64900D01*
X315900D01*
X316400Y64400D02*X315900Y64900D01*
X316400Y64400D02*Y63400D01*
X313700Y62900D02*X314400Y63600D01*
X312900Y62900D02*X313700D01*
X312900D02*X312400Y63400D01*
Y64400D02*Y63400D01*
Y64400D02*X312900Y64900D01*
X313700D01*
X314400Y64200D02*X313700Y64900D01*
X301400Y61200D02*Y59200D01*
Y61200D02*X301900Y61700D01*
X302900D01*
X303400Y61200D02*X302900Y61700D01*
X303400Y61200D02*Y59700D01*
X301400D02*X305400D01*
X303400Y60500D02*X305400Y61700D01*
Y63400D02*X301400Y65400D01*
Y62900D01*
X145000Y233500D02*Y230000D01*
X145500Y229500D01*
X146500D01*
X147000Y230000D01*
Y233500D02*Y230000D01*
X148200Y233500D02*X150200D01*
X148200D02*Y231500D01*
X148700Y232000D01*
X149700D01*
X150200Y231500D01*
Y230000D01*
X149700Y229500D02*X150200Y230000D01*
X148700Y229500D02*X149700D01*
X148200Y230000D02*X148700Y229500D01*
X202900Y270600D02*X204200D01*
X202200Y271300D02*X202900Y270600D01*
X202200Y273900D02*Y271300D01*
Y273900D02*X202900Y274600D01*
X204200D01*
X205400Y273800D02*X206200Y274600D01*
Y270600D01*
X205400D02*X206900D01*
X208100Y272100D02*X210100Y274600D01*
X208100Y272100D02*X210600D01*
X210100Y274600D02*Y270600D01*
X222500Y233000D02*Y229500D01*
X223000Y229000D01*
X224000D01*
X224500Y229500D01*
Y233000D02*Y229500D01*
X225700Y230500D02*X227700Y233000D01*
X225700Y230500D02*X228200D01*
X227700Y233000D02*Y229000D01*
X193500Y238000D02*X195500D01*
X196000Y237500D01*
Y236500D01*
X195500Y236000D02*X196000Y236500D01*
X194000Y236000D02*X195500D01*
X194000Y238000D02*Y234000D01*
X194800Y236000D02*X196000Y234000D01*
X197200Y237200D02*X198000Y238000D01*
Y234000D01*
X197200D02*X198700D01*
X366900Y316100D02*X368200D01*
X366200Y316800D02*X366900Y316100D01*
X366200Y319400D02*Y316800D01*
Y319400D02*X366900Y320100D01*
X368200D01*
X369400Y319300D02*X370200Y320100D01*
Y316100D01*
X369400D02*X370900D01*
X283250Y233500D02*Y230000D01*
X283750Y229500D01*
X284750D01*
X285250Y230000D01*
Y233500D02*Y230000D01*
X286450Y233000D02*X286950Y233500D01*
X287950D01*
X288450Y233000D01*
X287950Y229500D02*X288450Y230000D01*
X286950Y229500D02*X287950D01*
X286450Y230000D02*X286950Y229500D01*
Y231700D02*X287950D01*
X288450Y233000D02*Y232200D01*
Y231200D02*Y230000D01*
Y231200D02*X287950Y231700D01*
X288450Y232200D02*X287950Y231700D01*
X314900Y263600D02*X316200D01*
X314200Y264300D02*X314900Y263600D01*
X314200Y266900D02*Y264300D01*
Y266900D02*X314900Y267600D01*
X316200D01*
X317900Y263600D02*X319900Y267600D01*
X317400D02*X319900D01*
X314500Y248500D02*X316500D01*
X317000Y248000D01*
Y247000D01*
X316500Y246500D02*X317000Y247000D01*
X315000Y246500D02*X316500D01*
X315000Y248500D02*Y244500D01*
X315800Y246500D02*X317000Y244500D01*
X318200Y248000D02*X318700Y248500D01*
X320200D01*
X320700Y248000D01*
Y247000D01*
X318200Y244500D02*X320700Y247000D01*
X318200Y244500D02*X320700D01*
X324250Y269250D02*Y265750D01*
X324750Y265250D01*
X325750D01*
X326250Y265750D01*
Y269250D02*Y265750D01*
X327450Y268750D02*X327950Y269250D01*
X329450D01*
X329950Y268750D01*
Y267750D01*
X327450Y265250D02*X329950Y267750D01*
X327450Y265250D02*X329950D01*
X50200Y362500D02*X51000D01*
Y359000D01*
X50500Y358500D02*X51000Y359000D01*
X50000Y358500D02*X50500D01*
X49500Y359000D02*X50000Y358500D01*
X49500Y359500D02*Y359000D01*
X52200Y361700D02*X53000Y362500D01*
Y358500D01*
X52200D02*X53700D01*
X244200Y373000D02*X245000D01*
Y369500D01*
X244500Y369000D02*X245000Y369500D01*
X244000Y369000D02*X244500D01*
X243500Y369500D02*X244000Y369000D01*
X243500Y370000D02*Y369500D01*
X246200Y372500D02*X246700Y373000D01*
X248200D01*
X248700Y372500D01*
Y371500D01*
X246200Y369000D02*X248700Y371500D01*
X246200Y369000D02*X248700D01*
X63400Y224600D02*X64700D01*
X62700Y225300D02*X63400Y224600D01*
X62700Y227900D02*Y225300D01*
Y227900D02*X63400Y228600D01*
X64700D01*
X65900Y228100D02*X66400Y228600D01*
X67900D01*
X68400Y228100D01*
Y227100D01*
X65900Y224600D02*X68400Y227100D01*
X65900Y224600D02*X68400D01*
X5091Y234910D02*X9091D01*
X5091Y236210D02*X5791Y236910D01*
X8391D01*
X9091Y236210D02*X8391Y236910D01*
X9091Y236210D02*Y234410D01*
X5091Y236210D02*Y234410D01*
X5591Y238110D02*X5091Y238610D01*
Y240110D02*Y238610D01*
Y240110D02*X5591Y240610D01*
X6591D01*
X9091Y238110D02*X6591Y240610D01*
X9091D02*Y238110D01*
X35200Y296000D02*X36000D01*
Y292500D01*
X35500Y292000D02*X36000Y292500D01*
X35000Y292000D02*X35500D01*
X34500Y292500D02*X35000Y292000D01*
X34500Y293000D02*Y292500D01*
X37200Y295500D02*X37700Y296000D01*
X38700D01*
X39200Y295500D01*
X38700Y292000D02*X39200Y292500D01*
X37700Y292000D02*X38700D01*
X37200Y292500D02*X37700Y292000D01*
Y294200D02*X38700D01*
X39200Y295500D02*Y294700D01*
Y293700D02*Y292500D01*
Y293700D02*X38700Y294200D01*
X39200Y294700D02*X38700Y294200D01*
X9500Y323000D02*Y319000D01*
Y323000D02*X11500D01*
X9500Y321200D02*X11000D01*
X12700Y322200D02*X13500Y323000D01*
Y319000D01*
X12700D02*X14200D01*
X76409Y297409D02*Y293409D01*
X77709Y297409D02*X78409Y296709D01*
Y294109D01*
X77709Y293409D02*X78409Y294109D01*
X75909Y293409D02*X77709D01*
X75909Y297409D02*X77709D01*
X79609Y296609D02*X80409Y297409D01*
Y293409D01*
X79609D02*X81109D01*
X157535Y211172D02*Y209872D01*
X158235Y211872D02*X157535Y211172D01*
X158235Y211872D02*X160835D01*
X161535Y211172D01*
Y209872D01*
X160735Y208672D02*X161535Y207872D01*
X157535D02*X161535D01*
X157535Y208672D02*Y207172D01*
X160735Y205972D02*X161535Y205172D01*
X157535D02*X161535D01*
X157535Y205972D02*Y204472D01*
X235535Y211672D02*Y210372D01*
X236235Y212372D02*X235535Y211672D01*
X236235Y212372D02*X238835D01*
X239535Y211672D01*
Y210372D01*
X238735Y209172D02*X239535Y208372D01*
X235535D02*X239535D01*
X235535Y209172D02*Y207672D01*
X236035Y206472D02*X235535Y205972D01*
X236035Y206472D02*X239035D01*
X239535Y205972D01*
Y204972D01*
X239035Y204472D01*
X236035D02*X239035D01*
X235535Y204972D02*X236035Y204472D01*
X235535Y205972D02*Y204972D01*
X236535Y206472D02*X238535Y204472D01*
X189500Y123000D02*Y119500D01*
X190000Y119000D01*
X191000D01*
X191500Y119500D01*
Y123000D02*Y119500D01*
X192700Y122200D02*X193500Y123000D01*
Y119000D01*
X192700D02*X194200D01*
X198265Y162035D02*X199565D01*
X197565Y162735D02*X198265Y162035D01*
X197565Y165335D02*Y162735D01*
Y165335D02*X198265Y166035D01*
X199565D01*
X200765Y165235D02*X201565Y166035D01*
Y162035D01*
X200765D02*X202265D01*
X203965D02*X205465Y164035D01*
Y165535D02*Y164035D01*
X204965Y166035D02*X205465Y165535D01*
X203965Y166035D02*X204965D01*
X203465Y165535D02*X203965Y166035D01*
X203465Y165535D02*Y164535D01*
X203965Y164035D01*
X205465D01*
X219765Y160035D02*X221065D01*
X219065Y160735D02*X219765Y160035D01*
X219065Y163335D02*Y160735D01*
Y163335D02*X219765Y164035D01*
X221065D01*
X222265Y163535D02*X222765Y164035D01*
X224265D01*
X224765Y163535D01*
Y162535D01*
X222265Y160035D02*X224765Y162535D01*
X222265Y160035D02*X224765D01*
X225965Y163235D02*X226765Y164035D01*
Y160035D01*
X225965D02*X227465D01*
X230765Y133035D02*X232065D01*
X230065Y133735D02*X230765Y133035D01*
X230065Y136335D02*Y133735D01*
Y136335D02*X230765Y137035D01*
X232065D01*
X233265Y136535D02*X233765Y137035D01*
X235265D01*
X235765Y136535D01*
Y135535D01*
X233265Y133035D02*X235765Y135535D01*
X233265Y133035D02*X235765D01*
X236965Y134535D02*X238965Y137035D01*
X236965Y134535D02*X239465D01*
X238965Y137035D02*Y133035D01*
X240693Y127963D02*X241993D01*
X239993Y128663D02*X240693Y127963D01*
X239993Y131263D02*Y128663D01*
Y131263D02*X240693Y131963D01*
X241993D01*
X243193Y131463D02*X243693Y131963D01*
X245193D01*
X245693Y131463D01*
Y130463D01*
X243193Y127963D02*X245693Y130463D01*
X243193Y127963D02*X245693D01*
X248393Y131963D02*X248893Y131463D01*
X247393Y131963D02*X248393D01*
X246893Y131463D02*X247393Y131963D01*
X246893Y131463D02*Y128463D01*
X247393Y127963D01*
X248393Y130163D02*X248893Y129663D01*
X246893Y130163D02*X248393D01*
X247393Y127963D02*X248393D01*
X248893Y128463D01*
Y129663D02*Y128463D01*
X234765Y116035D02*X236065D01*
X234065Y116735D02*X234765Y116035D01*
X234065Y119335D02*Y116735D01*
Y119335D02*X234765Y120035D01*
X236065D01*
X237265Y119535D02*X237765Y120035D01*
X239265D01*
X239765Y119535D01*
Y118535D01*
X237265Y116035D02*X239765Y118535D01*
X237265Y116035D02*X239765D01*
X241465D02*X243465Y120035D01*
X240965D02*X243465D01*
X158765Y160472D02*X160065D01*
X158065Y161172D02*X158765Y160472D01*
X158065Y163772D02*Y161172D01*
Y163772D02*X158765Y164472D01*
X160065D01*
X161265Y163672D02*X162065Y164472D01*
Y160472D01*
X161265D02*X162765D01*
X164465D02*X166465Y164472D01*
X163965D02*X166465D01*
X138400Y161100D02*X139700D01*
X137700Y161800D02*X138400Y161100D01*
X137700Y164400D02*Y161800D01*
Y164400D02*X138400Y165100D01*
X139700D01*
X140900Y162600D02*X142900Y165100D01*
X140900Y162600D02*X143400D01*
X142900Y165100D02*Y161100D01*
X120200Y125800D02*X121000D01*
Y122300D01*
X120500Y121800D02*X121000Y122300D01*
X120000Y121800D02*X120500D01*
X119500Y122300D02*X120000Y121800D01*
X119500Y122800D02*Y122300D01*
X122200Y123300D02*X124200Y125800D01*
X122200Y123300D02*X124700D01*
X124200Y125800D02*Y121800D01*
X229202Y87035D02*X230502D01*
X228502Y87735D02*X229202Y87035D01*
X228502Y90335D02*Y87735D01*
Y90335D02*X229202Y91035D01*
X230502D01*
X231702Y90535D02*X232202Y91035D01*
X233702D01*
X234202Y90535D01*
Y89535D01*
X231702Y87035D02*X234202Y89535D01*
X231702Y87035D02*X234202D01*
X235402Y87535D02*X235902Y87035D01*
X235402Y88335D02*Y87535D01*
Y88335D02*X236102Y89035D01*
X236702D01*
X237402Y88335D01*
Y87535D01*
X236902Y87035D02*X237402Y87535D01*
X235902Y87035D02*X236902D01*
X235402Y89735D02*X236102Y89035D01*
X235402Y90535D02*Y89735D01*
Y90535D02*X235902Y91035D01*
X236902D01*
X237402Y90535D01*
Y89735D01*
X236702Y89035D02*X237402Y89735D01*
X202765Y70035D02*X204065D01*
X202065Y70735D02*X202765Y70035D01*
X202065Y73335D02*Y70735D01*
Y73335D02*X202765Y74035D01*
X204065D01*
X205265Y70535D02*X205765Y70035D01*
X205265Y71335D02*Y70535D01*
Y71335D02*X205965Y72035D01*
X206565D01*
X207265Y71335D01*
Y70535D01*
X206765Y70035D02*X207265Y70535D01*
X205765Y70035D02*X206765D01*
X205265Y72735D02*X205965Y72035D01*
X205265Y73535D02*Y72735D01*
Y73535D02*X205765Y74035D01*
X206765D01*
X207265Y73535D01*
Y72735D01*
X206565Y72035D02*X207265Y72735D01*
X203828Y77535D02*X205128D01*
X203128Y78235D02*X203828Y77535D01*
X203128Y80835D02*Y78235D01*
Y80835D02*X203828Y81535D01*
X205128D01*
X206328Y81035D02*X206828Y81535D01*
X208328D01*
X208828Y81035D01*
Y80035D01*
X206328Y77535D02*X208828Y80035D01*
X206328Y77535D02*X208828D01*
X210028Y78035D02*X210528Y77535D01*
X210028Y81035D02*Y78035D01*
Y81035D02*X210528Y81535D01*
X211528D01*
X212028Y81035D01*
Y78035D01*
X211528Y77535D02*X212028Y78035D01*
X210528Y77535D02*X211528D01*
X210028Y78535D02*X212028Y80535D01*
X221200Y76100D02*X223200D01*
X223700Y75600D01*
Y74600D01*
X223200Y74100D02*X223700Y74600D01*
X221700Y74100D02*X223200D01*
X221700Y76100D02*Y72100D01*
X222500Y74100D02*X223700Y72100D01*
X225400D02*X226900Y74100D01*
Y75600D02*Y74100D01*
X226400Y76100D02*X226900Y75600D01*
X225400Y76100D02*X226400D01*
X224900Y75600D02*X225400Y76100D01*
X224900Y75600D02*Y74600D01*
X225400Y74100D01*
X226900D01*
X158200Y66100D02*X160200D01*
X160700Y65600D01*
Y64600D01*
X160200Y64100D02*X160700Y64600D01*
X158700Y64100D02*X160200D01*
X158700Y66100D02*Y62100D01*
X159500Y64100D02*X160700Y62100D01*
X161900Y66100D02*X163900D01*
X161900D02*Y64100D01*
X162400Y64600D01*
X163400D01*
X163900Y64100D01*
Y62600D01*
X163400Y62100D02*X163900Y62600D01*
X162400Y62100D02*X163400D01*
X161900Y62600D02*X162400Y62100D01*
X150288Y18299D02*X151088D01*
Y14799D01*
X150588Y14299D02*X151088Y14799D01*
X150088Y14299D02*X150588D01*
X149588Y14799D02*X150088Y14299D01*
X149588Y15299D02*Y14799D01*
X152288Y18299D02*X154288D01*
X152288D02*Y16299D01*
X152788Y16799D01*
X153788D01*
X154288Y16299D01*
Y14799D01*
X153788Y14299D02*X154288Y14799D01*
X152788Y14299D02*X153788D01*
X152288Y14799D02*X152788Y14299D01*
X165000Y35500D02*Y31500D01*
Y35500D02*X167000D01*
X165000Y33700D02*X166500D01*
X168200Y35000D02*X168700Y35500D01*
X170200D01*
X170700Y35000D01*
Y34000D01*
X168200Y31500D02*X170700Y34000D01*
X168200Y31500D02*X170700D01*
X153765Y87035D02*X155065D01*
X153065Y87735D02*X153765Y87035D01*
X153065Y90335D02*Y87735D01*
Y90335D02*X153765Y91035D01*
X155065D01*
X156765Y87035D02*X158265Y89035D01*
Y90535D02*Y89035D01*
X157765Y91035D02*X158265Y90535D01*
X156765Y91035D02*X157765D01*
X156265Y90535D02*X156765Y91035D01*
X156265Y90535D02*Y89535D01*
X156765Y89035D01*
X158265D01*
X157139Y76352D02*X159139D01*
X159639Y75852D01*
Y74852D01*
X159139Y74352D02*X159639Y74852D01*
X157639Y74352D02*X159139D01*
X157639Y76352D02*Y72352D01*
X158439Y74352D02*X159639Y72352D01*
X160839Y73852D02*X162839Y76352D01*
X160839Y73852D02*X163339D01*
X162839Y76352D02*Y72352D01*
X183328Y77535D02*X184628D01*
X182628Y78235D02*X183328Y77535D01*
X182628Y80835D02*Y78235D01*
Y80835D02*X183328Y81535D01*
X184628D01*
X185828Y81035D02*X186328Y81535D01*
X187828D01*
X188328Y81035D01*
Y80035D01*
X185828Y77535D02*X188328Y80035D01*
X185828Y77535D02*X188328D01*
X189528Y81035D02*X190028Y81535D01*
X191028D01*
X191528Y81035D01*
X191028Y77535D02*X191528Y78035D01*
X190028Y77535D02*X191028D01*
X189528Y78035D02*X190028Y77535D01*
Y79735D02*X191028D01*
X191528Y81035D02*Y80235D01*
Y79235D02*Y78035D01*
Y79235D02*X191028Y79735D01*
X191528Y80235D02*X191028Y79735D01*
X268200Y70500D02*X269000D01*
Y67000D01*
X268500Y66500D02*X269000Y67000D01*
X268000Y66500D02*X268500D01*
X267500Y67000D02*X268000Y66500D01*
X267500Y67500D02*Y67000D01*
X271700Y70500D02*X272200Y70000D01*
X270700Y70500D02*X271700D01*
X270200Y70000D02*X270700Y70500D01*
X270200Y70000D02*Y67000D01*
X270700Y66500D01*
X271700Y68700D02*X272200Y68200D01*
X270200Y68700D02*X271700D01*
X270700Y66500D02*X271700D01*
X272200Y67000D01*
Y68200D02*Y67000D01*
X124410Y44409D02*Y40409D01*
X125710Y44409D02*X126410Y43709D01*
Y41109D01*
X125710Y40409D02*X126410Y41109D01*
X123910Y40409D02*X125710D01*
X123910Y44409D02*X125710D01*
X127610Y43909D02*X128110Y44409D01*
X129110D01*
X129610Y43909D01*
X129110Y40409D02*X129610Y40909D01*
X128110Y40409D02*X129110D01*
X127610Y40909D02*X128110Y40409D01*
Y42609D02*X129110D01*
X129610Y43909D02*Y43109D01*
Y42109D02*Y40909D01*
Y42109D02*X129110Y42609D01*
X129610Y43109D02*X129110Y42609D01*
M02*
