G04 start of page 9 for group -4079 idx -4079 *
G04 Title: (unknown), topsilk *
G04 Creator: pcb 20110918 *
G04 CreationDate: Wed 02 Oct 2013 12:02:10 GMT UTC *
G04 For: michael *
G04 Format: Gerber/RS-274X *
G04 PCB-Dimensions: 384000 393500 *
G04 PCB-Coordinate-Origin: lower left *
%MOIN*%
%FSLAX25Y25*%
%LNTOPSILK*%
%ADD103C,0.0200*%
%ADD102C,0.0060*%
%ADD101C,0.0100*%
%ADD100C,0.0080*%
%ADD99C,0.0001*%
G54D99*G36*
X306500Y241000D02*X309000D01*
Y232500D01*
X306500D01*
Y241000D01*
G37*
G36*
X203500Y240500D02*X206000D01*
Y232500D01*
X203500D01*
Y240500D01*
G37*
G54D100*X231000Y131500D02*Y132500D01*
G54D101*X500Y298500D02*X16500D01*
Y263000D01*
X500D01*
Y500D01*
Y393000D02*X383500D01*
X500D02*Y298500D01*
X383500D02*Y393000D01*
X367500Y298500D02*X383500D01*
X500Y500D02*X383500D01*
Y263000D01*
X367500D01*
Y298500D01*
G54D102*X343500Y156500D02*X344000Y157000D01*
X345000D01*
X345500Y156500D01*
X345000Y153000D02*X345500Y153500D01*
X344000Y153000D02*X345000D01*
X343500Y153500D02*X344000Y153000D01*
Y155200D02*X345000D01*
X345500Y156500D02*Y155700D01*
Y154700D02*Y153500D01*
Y154700D02*X345000Y155200D01*
X345500Y155700D02*X345000Y155200D01*
X346700Y153000D02*X347200D01*
X348400Y156500D02*X348900Y157000D01*
X349900D01*
X350400Y156500D01*
X349900Y153000D02*X350400Y153500D01*
X348900Y153000D02*X349900D01*
X348400Y153500D02*X348900Y153000D01*
Y155200D02*X349900D01*
X350400Y156500D02*Y155700D01*
Y154700D02*Y153500D01*
Y154700D02*X349900Y155200D01*
X350400Y155700D02*X349900Y155200D01*
X351600Y157000D02*X352600Y153000D01*
X353600Y157000D01*
X339500Y268500D02*X340000Y269000D01*
X341500D01*
X342000Y268500D01*
Y267500D01*
X339500Y265000D02*X342000Y267500D01*
X339500Y265000D02*X342000D01*
X343200D02*X343700D01*
X344900Y265500D02*X345400Y265000D01*
X344900Y266300D02*Y265500D01*
Y266300D02*X345600Y267000D01*
X346200D01*
X346900Y266300D01*
Y265500D01*
X346400Y265000D02*X346900Y265500D01*
X345400Y265000D02*X346400D01*
X344900Y267700D02*X345600Y267000D01*
X344900Y268500D02*Y267700D01*
Y268500D02*X345400Y269000D01*
X346400D01*
X346900Y268500D01*
Y267700D01*
X346200Y267000D02*X346900Y267700D01*
X348100Y269000D02*X350100D01*
X348100D02*Y267000D01*
X348600Y267500D01*
X349600D01*
X350100Y267000D01*
Y265500D01*
X349600Y265000D02*X350100Y265500D01*
X348600Y265000D02*X349600D01*
X348100Y265500D02*X348600Y265000D01*
X351300Y269000D02*X352300Y265000D01*
X353300Y269000D01*
X113500Y336600D02*X113900Y337000D01*
Y335000D01*
X113500D02*X114250D01*
X40000Y296000D02*X42000D01*
X41000D02*Y292000D01*
X43200Y294200D02*X44700D01*
X43200Y292000D02*X45200D01*
X43200Y296000D02*Y292000D01*
Y296000D02*X45200D01*
X46400D02*X48400D01*
X48900Y295500D01*
Y294500D01*
X48400Y294000D02*X48900Y294500D01*
X46900Y294000D02*X48400D01*
X46900Y296000D02*Y292000D01*
X47700Y294000D02*X48900Y292000D01*
X50100Y296000D02*Y292000D01*
Y296000D02*X51600Y294000D01*
X53100Y296000D01*
Y292000D01*
X54800Y296000D02*Y292000D01*
X54300Y296000D02*X56300D01*
X56800Y295500D01*
Y294500D01*
X56300Y294000D02*X56800Y294500D01*
X54800Y294000D02*X56300D01*
X58000Y296000D02*Y294000D01*
X58500Y292000D01*
X59500Y294000D01*
X60500Y292000D01*
X61000Y294000D01*
Y296000D02*Y294000D01*
X62200Y296000D02*X64200D01*
X64700Y295500D01*
Y294500D01*
X64200Y294000D02*X64700Y294500D01*
X62700Y294000D02*X64200D01*
X62700Y296000D02*Y292000D01*
X63500Y294000D02*X64700Y292000D01*
X102500Y114500D02*X104500D01*
X102500D02*Y112500D01*
X103000Y113000D01*
X104000D01*
X104500Y112500D01*
Y111000D01*
X104000Y110500D02*X104500Y111000D01*
X103000Y110500D02*X104000D01*
X102500Y111000D02*X103000Y110500D01*
X105700Y114500D02*X106700Y110500D01*
X107700Y114500D01*
X137000Y107000D02*X137250Y106750D01*
X136250Y107000D02*X137000D01*
X136000Y106750D02*X136250Y107000D01*
X136000Y106750D02*Y106250D01*
X136250Y106000D01*
X137000D01*
X137250Y105750D01*
Y105250D01*
X137000Y105000D02*X137250Y105250D01*
X136250Y105000D02*X137000D01*
X136000Y105250D02*X136250Y105000D01*
X137850Y107000D02*Y106000D01*
X138100Y105000D01*
X138600Y106000D01*
X139100Y105000D01*
X139350Y106000D01*
Y107000D02*Y106000D01*
X140200Y107000D02*Y105000D01*
X140850Y107000D02*X141200Y106650D01*
Y105350D01*
X140850Y105000D02*X141200Y105350D01*
X139950Y105000D02*X140850D01*
X139950Y107000D02*X140850D01*
X141800D02*X142300D01*
X142050D02*Y105000D01*
X141800D02*X142300D01*
X142900Y106750D02*Y105250D01*
Y106750D02*X143150Y107000D01*
X143650D01*
X143900Y106750D01*
Y105250D01*
X143650Y105000D02*X143900Y105250D01*
X143150Y105000D02*X143650D01*
X142900Y105250D02*X143150Y105000D01*
X137000Y102000D02*X137250Y101750D01*
X136250Y102000D02*X137000D01*
X136000Y101750D02*X136250Y102000D01*
X136000Y101750D02*Y101250D01*
X136250Y101000D01*
X137000D01*
X137250Y100750D01*
Y100250D01*
X137000Y100000D02*X137250Y100250D01*
X136250Y100000D02*X137000D01*
X136000Y100250D02*X136250Y100000D01*
X137850Y102000D02*Y101000D01*
X138100Y100000D01*
X138600Y101000D01*
X139100Y100000D01*
X139350Y101000D01*
Y102000D02*Y101000D01*
X140200Y102000D02*Y100000D01*
X140850Y102000D02*X141200Y101650D01*
Y100350D01*
X140850Y100000D02*X141200Y100350D01*
X139950Y100000D02*X140850D01*
X139950Y102000D02*X140850D01*
X142150Y100000D02*X142800D01*
X141800Y100350D02*X142150Y100000D01*
X141800Y101650D02*Y100350D01*
Y101650D02*X142150Y102000D01*
X142800D01*
X143400D02*Y100000D01*
Y101000D02*X144400Y102000D01*
X143400Y101000D02*X144400Y100000D01*
X137000Y84500D02*X138250Y86500D01*
X137000D02*X138250Y84500D01*
X138850Y86500D02*X139850D01*
X140100Y86250D01*
Y85750D01*
X139850Y85500D02*X140100Y85750D01*
X139100Y85500D02*X139850D01*
X139100Y86500D02*Y84500D01*
X139500Y85500D02*X140100Y84500D01*
X140700Y85600D02*X141450D01*
X140700Y84500D02*X141700D01*
X140700Y86500D02*Y84500D01*
Y86500D02*X141700D01*
X143300D02*X143550Y86250D01*
X142550Y86500D02*X143300D01*
X142300Y86250D02*X142550Y86500D01*
X142300Y86250D02*Y85750D01*
X142550Y85500D01*
X143300D01*
X143550Y85250D01*
Y84750D01*
X143300Y84500D02*X143550Y84750D01*
X142550Y84500D02*X143300D01*
X142300Y84750D02*X142550Y84500D01*
X137500Y96500D02*X137750Y96250D01*
X136750Y96500D02*X137500D01*
X136500Y96250D02*X136750Y96500D01*
X136500Y96250D02*Y95750D01*
X136750Y95500D01*
X137500D01*
X137750Y95250D01*
Y94750D01*
X137500Y94500D02*X137750Y94750D01*
X136750Y94500D02*X137500D01*
X136500Y94750D02*X136750Y94500D01*
X138350Y96500D02*Y95500D01*
X138600Y94500D01*
X139100Y95500D01*
X139600Y94500D01*
X139850Y95500D01*
Y96500D02*Y95500D01*
X140450Y96500D02*X140950Y94500D01*
X141450Y96500D01*
X171500Y32500D02*X172000Y33000D01*
X172500D01*
X173000Y32500D01*
X173500D01*
X174000Y33000D01*
X177000Y35000D02*X179000D01*
X177000D02*Y33000D01*
X177500Y33500D01*
X178500D01*
X179000Y33000D01*
Y31500D01*
X178500Y31000D02*X179000Y31500D01*
X177500Y31000D02*X178500D01*
X177000Y31500D02*X177500Y31000D01*
X180200Y31500D02*X180700Y31000D01*
X180200Y34500D02*Y31500D01*
Y34500D02*X180700Y35000D01*
X181700D01*
X182200Y34500D01*
Y31500D01*
X181700Y31000D02*X182200Y31500D01*
X180700Y31000D02*X181700D01*
X180200Y32000D02*X182200Y34000D01*
X183400Y31500D02*X183900Y31000D01*
X183400Y34500D02*Y31500D01*
Y34500D02*X183900Y35000D01*
X184900D01*
X185400Y34500D01*
Y31500D01*
X184900Y31000D02*X185400Y31500D01*
X183900Y31000D02*X184900D01*
X183400Y32000D02*X185400Y34000D01*
X187100Y32500D02*Y31000D01*
Y32500D02*X187600Y33000D01*
X188100D01*
X188600Y32500D01*
Y31000D01*
Y32500D02*X189100Y33000D01*
X189600D01*
X190100Y32500D01*
Y31000D01*
X186600Y33000D02*X187100Y32500D01*
X191300Y34000D02*Y31000D01*
Y34000D02*X192000Y35000D01*
X193100D01*
X193800Y34000D01*
Y31000D01*
X191300Y33000D02*X193800D01*
G54D100*X31500Y92000D02*X32500Y91000D01*
X28500Y92000D02*X31500D01*
X27500Y91000D02*X28500Y92000D01*
X27500Y91000D02*Y89000D01*
X28500Y88000D01*
X31500D01*
X32500Y87000D01*
Y85000D01*
X31500Y84000D02*X32500Y85000D01*
X28500Y84000D02*X31500D01*
X27500Y85000D02*X28500Y84000D01*
X36300D02*X38900D01*
X34900Y85400D02*X36300Y84000D01*
X34900Y90600D02*Y85400D01*
Y90600D02*X36300Y92000D01*
X38900D01*
X45300D02*X46300Y91000D01*
X42300Y92000D02*X45300D01*
X41300Y91000D02*X42300Y92000D01*
X41300Y91000D02*Y89000D01*
X42300Y88000D01*
X45300D01*
X46300Y87000D01*
Y85000D01*
X45300Y84000D02*X46300Y85000D01*
X42300Y84000D02*X45300D01*
X41300Y85000D02*X42300Y84000D01*
X48700Y92000D02*X50700D01*
X49700D02*Y84000D01*
X48700D02*X50700D01*
X53100Y91000D02*X54100Y92000D01*
X57100D01*
X58100Y91000D01*
Y89000D01*
X53100Y84000D02*X58100Y89000D01*
X53100Y84000D02*X58100D01*
X64500Y92000D02*X65500Y91000D01*
X61500Y92000D02*X64500D01*
X60500Y91000D02*X61500Y92000D01*
X60500Y91000D02*Y89000D01*
X61500Y88000D01*
X64500D01*
X65500Y87000D01*
Y85000D01*
X64500Y84000D02*X65500Y85000D01*
X61500Y84000D02*X64500D01*
X60500Y85000D02*X61500Y84000D01*
X68900Y92000D02*Y84000D01*
X71500Y92000D02*X72900Y90600D01*
Y85400D01*
X71500Y84000D02*X72900Y85400D01*
X67900Y84000D02*X71500D01*
X67900Y92000D02*X71500D01*
X78900D02*X80900Y84000D01*
X82900Y92000D01*
X85300Y91000D02*X86300Y92000D01*
X88300D01*
X89300Y91000D01*
X88300Y84000D02*X89300Y85000D01*
X86300Y84000D02*X88300D01*
X85300Y85000D02*X86300Y84000D01*
Y88400D02*X88300D01*
X89300Y91000D02*Y89400D01*
Y87400D02*Y85000D01*
Y87400D02*X88300Y88400D01*
X89300Y89400D02*X88300Y88400D01*
X91700Y84000D02*X92700D01*
X95100Y85000D02*X96100Y84000D01*
X95100Y91000D02*Y85000D01*
Y91000D02*X96100Y92000D01*
X98100D01*
X99100Y91000D01*
Y85000D01*
X98100Y84000D02*X99100Y85000D01*
X96100Y84000D02*X98100D01*
X95100Y86000D02*X99100Y90000D01*
G54D102*X28500Y69500D02*Y68000D01*
Y69500D02*X29000Y70000D01*
X29500D01*
X30000Y69500D01*
Y68000D01*
Y69500D02*X30500Y70000D01*
X31000D01*
X31500Y69500D01*
Y68000D01*
X28000Y70000D02*X28500Y69500D01*
X32700Y71000D02*Y70900D01*
Y69500D02*Y68000D01*
X34200Y70000D02*X35700D01*
X33700Y69500D02*X34200Y70000D01*
X33700Y69500D02*Y68500D01*
X34200Y68000D01*
X35700D01*
X36900Y72000D02*Y68000D01*
Y69500D02*X37400Y70000D01*
X38400D01*
X38900Y69500D01*
Y68000D01*
X41600Y70000D02*X42100Y69500D01*
X40600Y70000D02*X41600D01*
X40100Y69500D02*X40600Y70000D01*
X40100Y69500D02*Y68500D01*
X40600Y68000D01*
X42100Y70000D02*Y68500D01*
X42600Y68000D01*
X40600D02*X41600D01*
X42100Y68500D01*
X44300Y68000D02*X45800D01*
X43800Y68500D02*X44300Y68000D01*
X43800Y69500D02*Y68500D01*
Y69500D02*X44300Y70000D01*
X45300D01*
X45800Y69500D01*
X43800Y69000D02*X45800D01*
Y69500D02*Y69000D01*
X47000Y72000D02*Y68500D01*
X47500Y68000D01*
X48500Y72000D02*Y69000D01*
X49500Y68000D01*
X52500D01*
X53500Y72000D02*Y69500D01*
Y72000D02*X52500Y73000D01*
X49500D02*X52500D01*
X49500D02*X48500Y72000D01*
X50000Y71000D02*Y70000D01*
X50500Y69500D01*
X51500D01*
X52000Y70000D01*
X52500Y69500D01*
X52000Y71500D02*Y70000D01*
Y71000D02*X51500Y71500D01*
X50500D02*X51500D01*
X50500D02*X50000Y71000D01*
X52500Y69500D02*X53500D01*
X55200Y70000D02*X56700D01*
X54700Y69500D02*X55200Y70000D01*
X54700Y69500D02*Y68500D01*
X55200Y68000D01*
X56700D01*
X57900Y69500D02*Y68500D01*
Y69500D02*X58400Y70000D01*
X59400D01*
X59900Y69500D01*
Y68500D01*
X59400Y68000D02*X59900Y68500D01*
X58400Y68000D02*X59400D01*
X57900Y68500D02*X58400Y68000D01*
X63100Y72000D02*Y68000D01*
X62600D02*X63100Y68500D01*
X61600Y68000D02*X62600D01*
X61100Y68500D02*X61600Y68000D01*
X61100Y69500D02*Y68500D01*
Y69500D02*X61600Y70000D01*
X62600D01*
X63100Y69500D01*
X64800Y68000D02*X66300D01*
X64300Y68500D02*X64800Y68000D01*
X64300Y69500D02*Y68500D01*
Y69500D02*X64800Y70000D01*
X65800D01*
X66300Y69500D01*
X64300Y69000D02*X66300D01*
Y69500D02*Y69000D01*
X68000Y68000D02*X69500D01*
X70000Y68500D01*
X69500Y69000D02*X70000Y68500D01*
X68000Y69000D02*X69500D01*
X67500Y69500D02*X68000Y69000D01*
X67500Y69500D02*X68000Y70000D01*
X69500D01*
X70000Y69500D01*
X67500Y68500D02*X68000Y68000D01*
X71700Y69500D02*Y68000D01*
Y69500D02*X72200Y70000D01*
X73200D01*
X71200D02*X71700Y69500D01*
X74900Y70000D02*X76400D01*
X74400Y69500D02*X74900Y70000D01*
X74400Y69500D02*Y68500D01*
X74900Y68000D01*
X76400D01*
X77600D02*X78100D01*
X79800Y70000D02*X81300D01*
X79300Y69500D02*X79800Y70000D01*
X79300Y69500D02*Y68500D01*
X79800Y68000D01*
X81300D01*
X82500Y69500D02*Y68500D01*
Y69500D02*X83000Y70000D01*
X84000D01*
X84500Y69500D01*
Y68500D01*
X84000Y68000D02*X84500Y68500D01*
X83000Y68000D02*X84000D01*
X82500Y68500D02*X83000Y68000D01*
X86200Y69500D02*Y68000D01*
Y69500D02*X86700Y70000D01*
X87200D01*
X87700Y69500D01*
Y68000D01*
Y69500D02*X88200Y70000D01*
X88700D01*
X89200Y69500D01*
Y68000D01*
X85700Y70000D02*X86200Y69500D01*
X28000Y80000D02*Y76000D01*
Y80000D02*X29500Y78000D01*
X31000Y80000D01*
Y76000D01*
X32200Y79000D02*Y78900D01*
Y77500D02*Y76000D01*
X33700Y78000D02*X35200D01*
X33200Y77500D02*X33700Y78000D01*
X33200Y77500D02*Y76500D01*
X33700Y76000D01*
X35200D01*
X36400Y80000D02*Y76000D01*
Y77500D02*X36900Y78000D01*
X37900D01*
X38400Y77500D01*
Y76000D01*
X41100Y78000D02*X41600Y77500D01*
X40100Y78000D02*X41100D01*
X39600Y77500D02*X40100Y78000D01*
X39600Y77500D02*Y76500D01*
X40100Y76000D01*
X41600Y78000D02*Y76500D01*
X42100Y76000D01*
X40100D02*X41100D01*
X41600Y76500D01*
X43800Y76000D02*X45300D01*
X43300Y76500D02*X43800Y76000D01*
X43300Y77500D02*Y76500D01*
Y77500D02*X43800Y78000D01*
X44800D01*
X45300Y77500D01*
X43300Y77000D02*X45300D01*
Y77500D02*Y77000D01*
X46500Y80000D02*Y76500D01*
X47000Y76000D01*
X49800Y80000D02*Y76000D01*
Y80000D02*X51300Y78000D01*
X52800Y80000D01*
Y76000D01*
X54500Y78000D02*X56000D01*
X54000Y77500D02*X54500Y78000D01*
X54000Y77500D02*Y76500D01*
X54500Y76000D01*
X56000D01*
X57200Y80000D02*Y76000D01*
Y80000D02*X58700Y78000D01*
X60200Y80000D01*
Y76000D01*
X62900Y78000D02*X63400Y77500D01*
X61900Y78000D02*X62900D01*
X61400Y77500D02*X61900Y78000D01*
X61400Y77500D02*Y76500D01*
X61900Y76000D01*
X63400Y78000D02*Y76500D01*
X63900Y76000D01*
X61900D02*X62900D01*
X63400Y76500D01*
X65600Y76000D02*X67100D01*
X67600Y76500D01*
X67100Y77000D02*X67600Y76500D01*
X65600Y77000D02*X67100D01*
X65100Y77500D02*X65600Y77000D01*
X65100Y77500D02*X65600Y78000D01*
X67100D01*
X67600Y77500D01*
X65100Y76500D02*X65600Y76000D01*
X69300Y80000D02*Y76500D01*
X69800Y76000D01*
X68800Y78500D02*X69800D01*
X71300Y76000D02*X72800D01*
X70800Y76500D02*X71300Y76000D01*
X70800Y77500D02*Y76500D01*
Y77500D02*X71300Y78000D01*
X72300D01*
X72800Y77500D01*
X70800Y77000D02*X72800D01*
Y77500D02*Y77000D01*
X74500Y77500D02*Y76000D01*
Y77500D02*X75000Y78000D01*
X76000D01*
X74000D02*X74500Y77500D01*
G54D100*X358800Y330900D02*Y322100D01*
X374200D01*
Y330900D02*Y322100D01*
X358800Y330900D02*X374200D01*
G54D101*X117000Y354500D02*X367000D01*
X117000D02*Y334500D01*
X367000D01*
Y354500D02*Y334500D01*
X357000Y354500D02*Y344500D01*
X367000D01*
Y389500D02*Y354500D01*
X117000Y389500D02*X367000D01*
X117000D02*Y354500D01*
X116000Y228000D02*X150000D01*
X116000D02*Y197000D01*
X150000D01*
Y228000D02*Y215000D01*
Y210000D02*Y197000D01*
Y215000D02*G75*G03X150000Y210000I0J-2500D01*G01*
G54D100*X201100Y269700D02*X209900D01*
X201100D02*Y254300D01*
X209900D01*
Y269700D02*Y254300D01*
G54D102*X151728Y204291D02*X155271D01*
Y211771D02*Y204291D01*
X151728Y211771D02*X155271D01*
X151728D02*Y204291D01*
G54D101*X5000Y330500D02*X97000D01*
X5000D02*Y389500D01*
X97000D01*
Y330500D01*
G54D100*X70100Y233700D02*X78900D01*
X70100D02*Y218300D01*
X78900D01*
Y233700D02*Y218300D01*
G54D101*X36000Y318500D02*X46000D01*
X36000D02*Y298500D01*
X46000D01*
Y318500D02*Y298500D01*
X36000Y318500D02*Y308500D01*
X46000D01*
X82208Y318646D02*Y299748D01*
X53468Y318646D02*X82208D01*
X53468D02*Y299748D01*
X82208D01*
X77484Y303685D02*Y299748D01*
X76696Y303685D02*X77484D01*
X76696D02*Y300536D01*
X77484Y318646D02*Y314709D01*
X76696D02*X77484D01*
X76696Y317859D02*Y314709D01*
X66854Y313528D02*X69216Y315890D01*
X66460Y318646D01*
Y313922D01*
X66854Y313528D01*
X60555Y315890D02*X66460D01*
X70003Y318646D02*Y313134D01*
X69216Y315890D02*X72366D01*
G54D100*X16000Y325500D02*X26000D01*
X16000D02*Y304500D01*
X26000D01*
Y325500D02*Y304500D01*
G54D101*X11248Y228792D02*X30146D01*
Y257532D02*Y228792D01*
X11248Y257532D02*X30146D01*
X11248D02*Y228792D01*
Y233516D02*X15185D01*
Y234304D02*Y233516D01*
X12036Y234304D02*X15185D01*
X26209Y233516D02*X30146D01*
X26209Y234304D02*Y233516D01*
Y234304D02*X29359D01*
X25028Y244146D02*X27390Y241784D01*
X30146Y244540D01*
X25422D02*X30146D01*
X25422D02*X25028Y244146D01*
X27390Y250445D02*Y244540D01*
X24634Y240997D02*X30146D01*
X27390Y241784D02*Y238634D01*
G54D103*X115000Y251000D02*X205000D01*
X115000Y241000D02*X205000D01*
G54D101*X200000Y251000D02*Y241000D01*
G54D103*X205000D02*G75*G03X205000Y251000I0J5000D01*G01*
X115000D02*G75*G03X115000Y241000I0J-5000D01*G01*
G54D100*X291200Y160900D02*Y152100D01*
X275800Y160900D02*X291200D01*
X275800D02*Y152100D01*
X291200D01*
X290200Y160900D02*Y152100D01*
G54D101*X254500Y228250D02*X288500D01*
X254500D02*Y197250D01*
X288500D01*
Y228250D02*Y215250D01*
Y210250D02*Y197250D01*
Y215250D02*G75*G03X288500Y210250I0J-2500D01*G01*
G54D100*X291200Y173400D02*Y164600D01*
X275800Y173400D02*X291200D01*
X275800D02*Y164600D01*
X291200D01*
G54D102*X291228Y202728D02*X294771D01*
Y210208D02*Y202728D01*
X291228Y210208D02*X294771D01*
X291228D02*Y202728D01*
G54D100*X335100Y190800D02*X343900D01*
Y206200D02*Y190800D01*
X335100Y206200D02*X343900D01*
X335100D02*Y190800D01*
X301600Y269700D02*X310400D01*
X301600D02*Y254300D01*
X310400D01*
Y269700D02*Y254300D01*
G54D102*X229728Y204291D02*X233271D01*
Y211771D02*Y204291D01*
X229728Y211771D02*X233271D01*
X229728D02*Y204291D01*
G54D101*X194000Y228000D02*X228000D01*
X194000D02*Y197000D01*
X228000D01*
Y228000D02*Y215000D01*
Y210000D02*Y197000D01*
Y215000D02*G75*G03X228000Y210000I0J-2500D01*G01*
G54D103*X217000Y251000D02*X307000D01*
X217000Y241000D02*X307000D01*
G54D101*X302000Y251000D02*Y241000D01*
G54D103*X307000D02*G75*G03X307000Y251000I0J5000D01*G01*
X217000D02*G75*G03X217000Y241000I0J-5000D01*G01*
G54D101*X354250Y263250D02*Y211250D01*
X322750D02*X354250D01*
X322750Y263250D02*Y211250D01*
Y263250D02*X354250D01*
X338750Y227250D02*Y223250D01*
G54D100*X167241Y149159D02*X218659D01*
Y94841D01*
X164341D01*
Y146259D01*
X167241Y149159D01*
X166241Y146259D02*G75*G03X166241Y146259I1000J0D01*G01*
G54D102*X190728Y159228D02*X194271D01*
Y166708D02*Y159228D01*
X190728Y166708D02*X194271D01*
X190728D02*Y159228D01*
X220228Y150728D02*X223771D01*
Y158208D02*Y150728D01*
X220228Y158208D02*X223771D01*
X220228D02*Y150728D01*
Y85791D02*X223771D01*
Y93271D02*Y85791D01*
X220228Y93271D02*X223771D01*
X220228D02*Y85791D01*
X228728Y123728D02*X232271D01*
Y131208D02*Y123728D01*
X228728Y131208D02*X232271D01*
X228728D02*Y123728D01*
X234300Y123656D02*X237843D01*
Y131136D02*Y123656D01*
X234300Y131136D02*X237843D01*
X234300D02*Y123656D01*
X228729Y122272D02*X232272D01*
X228729D02*Y114792D01*
X232272D01*
Y122272D02*Y114792D01*
X159229Y158209D02*X162772D01*
X159229D02*Y150729D01*
X162772D01*
Y158209D02*Y150729D01*
G54D100*X131300Y158900D02*Y150100D01*
X146700D01*
Y158900D02*Y150100D01*
X131300Y158900D02*X146700D01*
G54D102*X159228Y85728D02*X162771D01*
Y93208D02*Y85728D01*
X159228Y93208D02*X162771D01*
X159228D02*Y85728D01*
X191228Y70229D02*Y73772D01*
X198708Y70229D02*X191228D01*
X198708Y73772D02*Y70229D01*
X191228Y73772D02*X198708D01*
X196729Y83209D02*X200272D01*
X196729D02*Y75729D01*
X200272D01*
Y83209D02*Y75729D01*
G54D100*X164800Y67900D02*Y59100D01*
X180200D01*
Y67900D02*Y59100D01*
X164800Y67900D02*X180200D01*
X164739Y78652D02*Y69852D01*
X180139D01*
Y78652D01*
X164739D01*
G54D102*X191229Y83209D02*X194772D01*
X191229D02*Y75729D01*
X194772D01*
Y83209D02*Y75729D01*
G54D101*X113894Y73500D02*X127694D01*
X113894Y118500D02*X127694D01*
Y109406D01*
X127700Y109400D01*
X127600Y82300D02*Y73500D01*
X113900Y118500D02*Y109400D01*
Y82200D02*Y73500D01*
Y109400D02*X119300D01*
Y82200D01*
X113900D02*X119300D01*
G54D102*X274791Y17772D02*Y14229D01*
X282271D01*
Y17772D02*Y14229D01*
X274791Y17772D02*X282271D01*
G54D100*X310600Y96300D02*X319400D01*
Y111700D02*Y96300D01*
X310600Y111700D02*X319400D01*
X310600D02*Y96300D01*
X358100Y95300D02*X366900D01*
Y110700D02*Y95300D01*
X358100Y110700D02*X366900D01*
X358100D02*Y95300D01*
G54D101*X353750Y150750D02*Y98750D01*
X322250D02*X353750D01*
X322250Y150750D02*Y98750D01*
Y150750D02*X353750D01*
X338250Y114750D02*Y110750D01*
G54D100*X340100Y67800D02*X348900D01*
Y83200D02*Y67800D01*
X340100Y83200D02*X348900D01*
X340100D02*Y67800D01*
X329600D02*X338400D01*
Y83200D02*Y67800D01*
X329600Y83200D02*X338400D01*
X329600D02*Y67800D01*
X319100D02*X327900D01*
Y83200D02*Y67800D01*
X319100Y83200D02*X327900D01*
X319100D02*Y67800D01*
X308600D02*X317400D01*
Y83200D02*Y67800D01*
X308600Y83200D02*X317400D01*
X308600D02*Y67800D01*
X297600D02*X306400D01*
Y83200D02*Y67800D01*
X297600Y83200D02*X306400D01*
X297600D02*Y67800D01*
X286600D02*X295400D01*
Y83200D02*Y67800D01*
X286600Y83200D02*X295400D01*
X286600D02*Y67800D01*
G54D102*X154221Y791D02*X191229D01*
X157764D02*Y2169D01*
Y10634D02*Y12799D01*
X187882Y791D02*Y2169D01*
Y10634D02*Y12799D01*
X165047Y18508D02*X166229D01*
X179024D02*X180402D01*
G54D100*X161500Y38500D02*Y28500D01*
X140500Y38500D02*X161500D01*
X140500D02*Y28500D01*
X161500D01*
X244200Y78400D02*Y69600D01*
X228800Y78400D02*X244200D01*
X228800D02*Y69600D01*
X244200D01*
G54D102*X255000Y7000D02*X263000D01*
X255000Y12000D02*Y7000D01*
X224500Y12000D02*X255000D01*
X224500D02*X222000Y9500D01*
X263000Y7000D02*Y4500D01*
X266500D01*
X272000Y64500D02*Y11500D01*
X253000Y64500D02*X272000D01*
X230000D02*X243000D01*
X216500D02*X220500D01*
X216500D02*Y16500D01*
G54D101*X122292Y65252D02*Y46354D01*
X151032D01*
Y65252D01*
X122292D01*
X127016D02*Y61315D01*
X127804D01*
Y64464D01*
X127016Y46354D02*Y50291D01*
X127804D01*
Y47141D01*
X137646Y51472D02*X135284Y49110D01*
X138040Y46354D01*
Y51078D01*
X137646Y51472D01*
X138040Y49110D02*X143945D01*
X134497Y51866D02*Y46354D01*
X132134Y49110D02*X135284D01*
G54D102*X293200Y158600D02*Y154600D01*
X295200D01*
X296400Y156800D02*X297900D01*
X296400Y154600D02*X298400D01*
X296400Y158600D02*Y154600D01*
Y158600D02*X298400D01*
X300100D02*Y154600D01*
X301400Y158600D02*X302100Y157900D01*
Y155300D01*
X301400Y154600D02*X302100Y155300D01*
X299600Y154600D02*X301400D01*
X299600Y158600D02*X301400D01*
X303300Y157800D02*X304100Y158600D01*
Y154600D01*
X303300D02*X304800D01*
X328900Y192100D02*X330200D01*
X328200Y192800D02*X328900Y192100D01*
X328200Y195400D02*Y192800D01*
Y195400D02*X328900Y196100D01*
X330200D01*
X331400D02*X333400D01*
X331400D02*Y194100D01*
X331900Y194600D01*
X332900D01*
X333400Y194100D01*
Y192600D01*
X332900Y192100D02*X333400Y192600D01*
X331900Y192100D02*X332900D01*
X331400Y192600D02*X331900Y192100D01*
X293700Y171100D02*X295700D01*
X296200Y170600D01*
Y169600D01*
X295700Y169100D02*X296200Y169600D01*
X294200Y169100D02*X295700D01*
X294200Y171100D02*Y167100D01*
X295000Y169100D02*X296200Y167100D01*
X297400Y170600D02*X297900Y171100D01*
X298900D01*
X299400Y170600D01*
X298900Y167100D02*X299400Y167600D01*
X297900Y167100D02*X298900D01*
X297400Y167600D02*X297900Y167100D01*
Y169300D02*X298900D01*
X299400Y170600D02*Y169800D01*
Y168800D02*Y167600D01*
Y168800D02*X298900Y169300D01*
X299400Y169800D02*X298900Y169300D01*
X295965Y207865D02*Y206565D01*
X296665Y208565D02*X295965Y207865D01*
X296665Y208565D02*X299265D01*
X299965Y207865D01*
Y206565D01*
X299465Y205365D02*X299965Y204865D01*
Y203865D01*
X299465Y203365D01*
X295965Y203865D02*X296465Y203365D01*
X295965Y204865D02*Y203865D01*
X296465Y205365D02*X295965Y204865D01*
X298165D02*Y203865D01*
X298665Y203365D02*X299465D01*
X296465D02*X297665D01*
X298165Y203865D01*
X298665Y203365D02*X298165Y203865D01*
X285266Y14104D02*X286566D01*
X284566Y14804D02*X285266Y14104D01*
X284566Y17404D02*Y14804D01*
Y17404D02*X285266Y18104D01*
X286566D01*
X287766Y17604D02*X288266Y18104D01*
X289766D01*
X290266Y17604D01*
Y16604D01*
X287766Y14104D02*X290266Y16604D01*
X287766Y14104D02*X290266D01*
X291466Y17604D02*X291966Y18104D01*
X293466D01*
X293966Y17604D01*
Y16604D01*
X291466Y14104D02*X293966Y16604D01*
X291466Y14104D02*X293966D01*
X289400Y61700D02*Y59700D01*
Y61700D02*X289900Y62200D01*
X290900D01*
X291400Y61700D02*X290900Y62200D01*
X291400Y61700D02*Y60200D01*
X289400D02*X293400D01*
X291400Y61000D02*X293400Y62200D01*
X289400Y64900D02*X289900Y65400D01*
X289400Y64900D02*Y63900D01*
X289900Y63400D02*X289400Y63900D01*
X289900Y63400D02*X292900D01*
X293400Y63900D01*
X291200Y64900D02*X291700Y65400D01*
X291200Y64900D02*Y63400D01*
X293400Y64900D02*Y63900D01*
Y64900D02*X292900Y65400D01*
X291700D02*X292900D01*
X311400Y115100D02*X312700D01*
X310700Y115800D02*X311400Y115100D01*
X310700Y118400D02*Y115800D01*
Y118400D02*X311400Y119100D01*
X312700D01*
X313900Y118300D02*X314700Y119100D01*
Y115100D01*
X313900D02*X315400D01*
X316600Y118600D02*X317100Y119100D01*
X318100D01*
X318600Y118600D01*
X318100Y115100D02*X318600Y115600D01*
X317100Y115100D02*X318100D01*
X316600Y115600D02*X317100Y115100D01*
Y117300D02*X318100D01*
X318600Y118600D02*Y117800D01*
Y116800D02*Y115600D01*
Y116800D02*X318100Y117300D01*
X318600Y117800D02*X318100Y117300D01*
X358900Y113100D02*X360200D01*
X358200Y113800D02*X358900Y113100D01*
X358200Y116400D02*Y113800D01*
Y116400D02*X358900Y117100D01*
X360200D01*
X361400Y116300D02*X362200Y117100D01*
Y113100D01*
X361400D02*X362900D01*
X364100Y116600D02*X364600Y117100D01*
X366100D01*
X366600Y116600D01*
Y115600D01*
X364100Y113100D02*X366600Y115600D01*
X364100Y113100D02*X366600D01*
X335250Y156750D02*Y153250D01*
X335750Y152750D01*
X336750D01*
X337250Y153250D01*
Y156750D02*Y153250D01*
X339950Y156750D02*X340450Y156250D01*
X338950Y156750D02*X339950D01*
X338450Y156250D02*X338950Y156750D01*
X338450Y156250D02*Y153250D01*
X338950Y152750D01*
X339950Y154950D02*X340450Y154450D01*
X338450Y154950D02*X339950D01*
X338950Y152750D02*X339950D01*
X340450Y153250D01*
Y154450D02*Y153250D01*
X342900Y58700D02*Y56700D01*
Y58700D02*X343400Y59200D01*
X344400D01*
X344900Y58700D02*X344400Y59200D01*
X344900Y58700D02*Y57200D01*
X342900D02*X346900D01*
X344900Y58000D02*X346900Y59200D01*
X343700Y60400D02*X342900Y61200D01*
X346900D01*
Y61900D02*Y60400D01*
X343400Y63100D02*X342900Y63600D01*
Y65100D02*Y63600D01*
Y65100D02*X343400Y65600D01*
X344400D01*
X346900Y63100D02*X344400Y65600D01*
X346900D02*Y63100D01*
X332400Y59700D02*Y57700D01*
Y59700D02*X332900Y60200D01*
X333900D01*
X334400Y59700D02*X333900Y60200D01*
X334400Y59700D02*Y58200D01*
X332400D02*X336400D01*
X334400Y59000D02*X336400Y60200D01*
X333200Y61400D02*X332400Y62200D01*
X336400D01*
Y62900D02*Y61400D01*
X333200Y64100D02*X332400Y64900D01*
X336400D01*
Y65600D02*Y64100D01*
X322217Y59224D02*Y57224D01*
Y59224D02*X322717Y59724D01*
X323717D01*
X324217Y59224D02*X323717Y59724D01*
X324217Y59224D02*Y57724D01*
X322217D02*X326217D01*
X324217Y58524D02*X326217Y59724D01*
X323017Y60924D02*X322217Y61724D01*
X326217D01*
Y62424D02*Y60924D01*
X325717Y63624D02*X326217Y64124D01*
X322717Y63624D02*X325717D01*
X322717D02*X322217Y64124D01*
Y65124D02*Y64124D01*
Y65124D02*X322717Y65624D01*
X325717D01*
X326217Y65124D02*X325717Y65624D01*
X326217Y65124D02*Y64124D01*
X325217Y63624D02*X323217Y65624D01*
X311400Y61200D02*Y59200D01*
Y61200D02*X311900Y61700D01*
X312900D01*
X313400Y61200D02*X312900Y61700D01*
X313400Y61200D02*Y59700D01*
X311400D02*X315400D01*
X313400Y60500D02*X315400Y61700D01*
X314900Y62900D02*X315400Y63400D01*
X314100Y62900D02*X314900D01*
X314100D02*X313400Y63600D01*
Y64200D02*Y63600D01*
Y64200D02*X314100Y64900D01*
X314900D01*
X315400Y64400D02*X314900Y64900D01*
X315400Y64400D02*Y63400D01*
X312700Y62900D02*X313400Y63600D01*
X311900Y62900D02*X312700D01*
X311900D02*X311400Y63400D01*
Y64400D02*Y63400D01*
Y64400D02*X311900Y64900D01*
X312700D01*
X313400Y64200D02*X312700Y64900D01*
X300400Y61200D02*Y59200D01*
Y61200D02*X300900Y61700D01*
X301900D01*
X302400Y61200D02*X301900Y61700D01*
X302400Y61200D02*Y59700D01*
X300400D02*X304400D01*
X302400Y60500D02*X304400Y61700D01*
Y63400D02*X300400Y65400D01*
Y62900D01*
X144000Y233500D02*Y230000D01*
X144500Y229500D01*
X145500D01*
X146000Y230000D01*
Y233500D02*Y230000D01*
X147200Y233500D02*X149200D01*
X147200D02*Y231500D01*
X147700Y232000D01*
X148700D01*
X149200Y231500D01*
Y230000D01*
X148700Y229500D02*X149200Y230000D01*
X147700Y229500D02*X148700D01*
X147200Y230000D02*X147700Y229500D01*
X201900Y270600D02*X203200D01*
X201200Y271300D02*X201900Y270600D01*
X201200Y273900D02*Y271300D01*
Y273900D02*X201900Y274600D01*
X203200D01*
X204400Y273800D02*X205200Y274600D01*
Y270600D01*
X204400D02*X205900D01*
X207100Y272100D02*X209100Y274600D01*
X207100Y272100D02*X209600D01*
X209100Y274600D02*Y270600D01*
X221500Y233000D02*Y229500D01*
X222000Y229000D01*
X223000D01*
X223500Y229500D01*
Y233000D02*Y229500D01*
X224700Y230500D02*X226700Y233000D01*
X224700Y230500D02*X227200D01*
X226700Y233000D02*Y229000D01*
X192500Y238000D02*X194500D01*
X195000Y237500D01*
Y236500D01*
X194500Y236000D02*X195000Y236500D01*
X193000Y236000D02*X194500D01*
X193000Y238000D02*Y234000D01*
X193800Y236000D02*X195000Y234000D01*
X196200Y237200D02*X197000Y238000D01*
Y234000D01*
X196200D02*X197700D01*
X365900Y316100D02*X367200D01*
X365200Y316800D02*X365900Y316100D01*
X365200Y319400D02*Y316800D01*
Y319400D02*X365900Y320100D01*
X367200D01*
X368400Y319300D02*X369200Y320100D01*
Y316100D01*
X368400D02*X369900D01*
X282250Y233500D02*Y230000D01*
X282750Y229500D01*
X283750D01*
X284250Y230000D01*
Y233500D02*Y230000D01*
X285450Y233000D02*X285950Y233500D01*
X286950D01*
X287450Y233000D01*
X286950Y229500D02*X287450Y230000D01*
X285950Y229500D02*X286950D01*
X285450Y230000D02*X285950Y229500D01*
Y231700D02*X286950D01*
X287450Y233000D02*Y232200D01*
Y231200D02*Y230000D01*
Y231200D02*X286950Y231700D01*
X287450Y232200D02*X286950Y231700D01*
X313900Y263600D02*X315200D01*
X313200Y264300D02*X313900Y263600D01*
X313200Y266900D02*Y264300D01*
Y266900D02*X313900Y267600D01*
X315200D01*
X316900Y263600D02*X318900Y267600D01*
X316400D02*X318900D01*
X313500Y248500D02*X315500D01*
X316000Y248000D01*
Y247000D01*
X315500Y246500D02*X316000Y247000D01*
X314000Y246500D02*X315500D01*
X314000Y248500D02*Y244500D01*
X314800Y246500D02*X316000Y244500D01*
X317200Y248000D02*X317700Y248500D01*
X319200D01*
X319700Y248000D01*
Y247000D01*
X317200Y244500D02*X319700Y247000D01*
X317200Y244500D02*X319700D01*
X323250Y269250D02*Y265750D01*
X323750Y265250D01*
X324750D01*
X325250Y265750D01*
Y269250D02*Y265750D01*
X326450Y268750D02*X326950Y269250D01*
X328450D01*
X328950Y268750D01*
Y267750D01*
X326450Y265250D02*X328950Y267750D01*
X326450Y265250D02*X328950D01*
X49200Y362500D02*X50000D01*
Y359000D01*
X49500Y358500D02*X50000Y359000D01*
X49000Y358500D02*X49500D01*
X48500Y359000D02*X49000Y358500D01*
X48500Y359500D02*Y359000D01*
X51200Y361700D02*X52000Y362500D01*
Y358500D01*
X51200D02*X52700D01*
X243200Y373000D02*X244000D01*
Y369500D01*
X243500Y369000D02*X244000Y369500D01*
X243000Y369000D02*X243500D01*
X242500Y369500D02*X243000Y369000D01*
X242500Y370000D02*Y369500D01*
X245200Y372500D02*X245700Y373000D01*
X247200D01*
X247700Y372500D01*
Y371500D01*
X245200Y369000D02*X247700Y371500D01*
X245200Y369000D02*X247700D01*
X62400Y224600D02*X63700D01*
X61700Y225300D02*X62400Y224600D01*
X61700Y227900D02*Y225300D01*
Y227900D02*X62400Y228600D01*
X63700D01*
X64900Y228100D02*X65400Y228600D01*
X66900D01*
X67400Y228100D01*
Y227100D01*
X64900Y224600D02*X67400Y227100D01*
X64900Y224600D02*X67400D01*
X4091Y234910D02*X8091D01*
X4091Y236210D02*X4791Y236910D01*
X7391D01*
X8091Y236210D02*X7391Y236910D01*
X8091Y236210D02*Y234410D01*
X4091Y236210D02*Y234410D01*
X4591Y238110D02*X4091Y238610D01*
Y240110D02*Y238610D01*
Y240110D02*X4591Y240610D01*
X5591D01*
X8091Y238110D02*X5591Y240610D01*
X8091D02*Y238110D01*
X34200Y296000D02*X35000D01*
Y292500D01*
X34500Y292000D02*X35000Y292500D01*
X34000Y292000D02*X34500D01*
X33500Y292500D02*X34000Y292000D01*
X33500Y293000D02*Y292500D01*
X36200Y295500D02*X36700Y296000D01*
X37700D01*
X38200Y295500D01*
X37700Y292000D02*X38200Y292500D01*
X36700Y292000D02*X37700D01*
X36200Y292500D02*X36700Y292000D01*
Y294200D02*X37700D01*
X38200Y295500D02*Y294700D01*
Y293700D02*Y292500D01*
Y293700D02*X37700Y294200D01*
X38200Y294700D02*X37700Y294200D01*
X8500Y323000D02*Y319000D01*
Y323000D02*X10500D01*
X8500Y321200D02*X10000D01*
X11700Y322200D02*X12500Y323000D01*
Y319000D01*
X11700D02*X13200D01*
X75409Y297409D02*Y293409D01*
X76709Y297409D02*X77409Y296709D01*
Y294109D01*
X76709Y293409D02*X77409Y294109D01*
X74909Y293409D02*X76709D01*
X74909Y297409D02*X76709D01*
X78609Y296609D02*X79409Y297409D01*
Y293409D01*
X78609D02*X80109D01*
X156535Y211172D02*Y209872D01*
X157235Y211872D02*X156535Y211172D01*
X157235Y211872D02*X159835D01*
X160535Y211172D01*
Y209872D01*
X159735Y208672D02*X160535Y207872D01*
X156535D02*X160535D01*
X156535Y208672D02*Y207172D01*
X159735Y205972D02*X160535Y205172D01*
X156535D02*X160535D01*
X156535Y205972D02*Y204472D01*
X234535Y211672D02*Y210372D01*
X235235Y212372D02*X234535Y211672D01*
X235235Y212372D02*X237835D01*
X238535Y211672D01*
Y210372D01*
X237735Y209172D02*X238535Y208372D01*
X234535D02*X238535D01*
X234535Y209172D02*Y207672D01*
X235035Y206472D02*X234535Y205972D01*
X235035Y206472D02*X238035D01*
X238535Y205972D01*
Y204972D01*
X238035Y204472D01*
X235035D02*X238035D01*
X234535Y204972D02*X235035Y204472D01*
X234535Y205972D02*Y204972D01*
X235535Y206472D02*X237535Y204472D01*
X188500Y123000D02*Y119500D01*
X189000Y119000D01*
X190000D01*
X190500Y119500D01*
Y123000D02*Y119500D01*
X191700Y122200D02*X192500Y123000D01*
Y119000D01*
X191700D02*X193200D01*
X197265Y162035D02*X198565D01*
X196565Y162735D02*X197265Y162035D01*
X196565Y165335D02*Y162735D01*
Y165335D02*X197265Y166035D01*
X198565D01*
X199765Y165235D02*X200565Y166035D01*
Y162035D01*
X199765D02*X201265D01*
X202965D02*X204465Y164035D01*
Y165535D02*Y164035D01*
X203965Y166035D02*X204465Y165535D01*
X202965Y166035D02*X203965D01*
X202465Y165535D02*X202965Y166035D01*
X202465Y165535D02*Y164535D01*
X202965Y164035D01*
X204465D01*
X218765Y160035D02*X220065D01*
X218065Y160735D02*X218765Y160035D01*
X218065Y163335D02*Y160735D01*
Y163335D02*X218765Y164035D01*
X220065D01*
X221265Y163535D02*X221765Y164035D01*
X223265D01*
X223765Y163535D01*
Y162535D01*
X221265Y160035D02*X223765Y162535D01*
X221265Y160035D02*X223765D01*
X224965Y163235D02*X225765Y164035D01*
Y160035D01*
X224965D02*X226465D01*
X229765Y133035D02*X231065D01*
X229065Y133735D02*X229765Y133035D01*
X229065Y136335D02*Y133735D01*
Y136335D02*X229765Y137035D01*
X231065D01*
X232265Y136535D02*X232765Y137035D01*
X234265D01*
X234765Y136535D01*
Y135535D01*
X232265Y133035D02*X234765Y135535D01*
X232265Y133035D02*X234765D01*
X235965Y134535D02*X237965Y137035D01*
X235965Y134535D02*X238465D01*
X237965Y137035D02*Y133035D01*
X239693Y127963D02*X240993D01*
X238993Y128663D02*X239693Y127963D01*
X238993Y131263D02*Y128663D01*
Y131263D02*X239693Y131963D01*
X240993D01*
X242193Y131463D02*X242693Y131963D01*
X244193D01*
X244693Y131463D01*
Y130463D01*
X242193Y127963D02*X244693Y130463D01*
X242193Y127963D02*X244693D01*
X247393Y131963D02*X247893Y131463D01*
X246393Y131963D02*X247393D01*
X245893Y131463D02*X246393Y131963D01*
X245893Y131463D02*Y128463D01*
X246393Y127963D01*
X247393Y130163D02*X247893Y129663D01*
X245893Y130163D02*X247393D01*
X246393Y127963D02*X247393D01*
X247893Y128463D01*
Y129663D02*Y128463D01*
X233765Y116035D02*X235065D01*
X233065Y116735D02*X233765Y116035D01*
X233065Y119335D02*Y116735D01*
Y119335D02*X233765Y120035D01*
X235065D01*
X236265Y119535D02*X236765Y120035D01*
X238265D01*
X238765Y119535D01*
Y118535D01*
X236265Y116035D02*X238765Y118535D01*
X236265Y116035D02*X238765D01*
X240465D02*X242465Y120035D01*
X239965D02*X242465D01*
X157765Y160472D02*X159065D01*
X157065Y161172D02*X157765Y160472D01*
X157065Y163772D02*Y161172D01*
Y163772D02*X157765Y164472D01*
X159065D01*
X160265Y163672D02*X161065Y164472D01*
Y160472D01*
X160265D02*X161765D01*
X163465D02*X165465Y164472D01*
X162965D02*X165465D01*
X137400Y161100D02*X138700D01*
X136700Y161800D02*X137400Y161100D01*
X136700Y164400D02*Y161800D01*
Y164400D02*X137400Y165100D01*
X138700D01*
X139900Y162600D02*X141900Y165100D01*
X139900Y162600D02*X142400D01*
X141900Y165100D02*Y161100D01*
X119200Y125800D02*X120000D01*
Y122300D01*
X119500Y121800D02*X120000Y122300D01*
X119000Y121800D02*X119500D01*
X118500Y122300D02*X119000Y121800D01*
X118500Y122800D02*Y122300D01*
X121200Y123300D02*X123200Y125800D01*
X121200Y123300D02*X123700D01*
X123200Y125800D02*Y121800D01*
X228202Y87035D02*X229502D01*
X227502Y87735D02*X228202Y87035D01*
X227502Y90335D02*Y87735D01*
Y90335D02*X228202Y91035D01*
X229502D01*
X230702Y90535D02*X231202Y91035D01*
X232702D01*
X233202Y90535D01*
Y89535D01*
X230702Y87035D02*X233202Y89535D01*
X230702Y87035D02*X233202D01*
X234402Y87535D02*X234902Y87035D01*
X234402Y88335D02*Y87535D01*
Y88335D02*X235102Y89035D01*
X235702D01*
X236402Y88335D01*
Y87535D01*
X235902Y87035D02*X236402Y87535D01*
X234902Y87035D02*X235902D01*
X234402Y89735D02*X235102Y89035D01*
X234402Y90535D02*Y89735D01*
Y90535D02*X234902Y91035D01*
X235902D01*
X236402Y90535D01*
Y89735D01*
X235702Y89035D02*X236402Y89735D01*
X201765Y70035D02*X203065D01*
X201065Y70735D02*X201765Y70035D01*
X201065Y73335D02*Y70735D01*
Y73335D02*X201765Y74035D01*
X203065D01*
X204265Y70535D02*X204765Y70035D01*
X204265Y71335D02*Y70535D01*
Y71335D02*X204965Y72035D01*
X205565D01*
X206265Y71335D01*
Y70535D01*
X205765Y70035D02*X206265Y70535D01*
X204765Y70035D02*X205765D01*
X204265Y72735D02*X204965Y72035D01*
X204265Y73535D02*Y72735D01*
Y73535D02*X204765Y74035D01*
X205765D01*
X206265Y73535D01*
Y72735D01*
X205565Y72035D02*X206265Y72735D01*
X202828Y77535D02*X204128D01*
X202128Y78235D02*X202828Y77535D01*
X202128Y80835D02*Y78235D01*
Y80835D02*X202828Y81535D01*
X204128D01*
X205328Y81035D02*X205828Y81535D01*
X207328D01*
X207828Y81035D01*
Y80035D01*
X205328Y77535D02*X207828Y80035D01*
X205328Y77535D02*X207828D01*
X209028Y78035D02*X209528Y77535D01*
X209028Y81035D02*Y78035D01*
Y81035D02*X209528Y81535D01*
X210528D01*
X211028Y81035D01*
Y78035D01*
X210528Y77535D02*X211028Y78035D01*
X209528Y77535D02*X210528D01*
X209028Y78535D02*X211028Y80535D01*
X220200Y76100D02*X222200D01*
X222700Y75600D01*
Y74600D01*
X222200Y74100D02*X222700Y74600D01*
X220700Y74100D02*X222200D01*
X220700Y76100D02*Y72100D01*
X221500Y74100D02*X222700Y72100D01*
X224400D02*X225900Y74100D01*
Y75600D02*Y74100D01*
X225400Y76100D02*X225900Y75600D01*
X224400Y76100D02*X225400D01*
X223900Y75600D02*X224400Y76100D01*
X223900Y75600D02*Y74600D01*
X224400Y74100D01*
X225900D01*
X157200Y66100D02*X159200D01*
X159700Y65600D01*
Y64600D01*
X159200Y64100D02*X159700Y64600D01*
X157700Y64100D02*X159200D01*
X157700Y66100D02*Y62100D01*
X158500Y64100D02*X159700Y62100D01*
X160900Y66100D02*X162900D01*
X160900D02*Y64100D01*
X161400Y64600D01*
X162400D01*
X162900Y64100D01*
Y62600D01*
X162400Y62100D02*X162900Y62600D01*
X161400Y62100D02*X162400D01*
X160900Y62600D02*X161400Y62100D01*
X149288Y18299D02*X150088D01*
Y14799D01*
X149588Y14299D02*X150088Y14799D01*
X149088Y14299D02*X149588D01*
X148588Y14799D02*X149088Y14299D01*
X148588Y15299D02*Y14799D01*
X151288Y18299D02*X153288D01*
X151288D02*Y16299D01*
X151788Y16799D01*
X152788D01*
X153288Y16299D01*
Y14799D01*
X152788Y14299D02*X153288Y14799D01*
X151788Y14299D02*X152788D01*
X151288Y14799D02*X151788Y14299D01*
X164000Y35500D02*Y31500D01*
Y35500D02*X166000D01*
X164000Y33700D02*X165500D01*
X167200Y35000D02*X167700Y35500D01*
X169200D01*
X169700Y35000D01*
Y34000D01*
X167200Y31500D02*X169700Y34000D01*
X167200Y31500D02*X169700D01*
X152765Y87035D02*X154065D01*
X152065Y87735D02*X152765Y87035D01*
X152065Y90335D02*Y87735D01*
Y90335D02*X152765Y91035D01*
X154065D01*
X155765Y87035D02*X157265Y89035D01*
Y90535D02*Y89035D01*
X156765Y91035D02*X157265Y90535D01*
X155765Y91035D02*X156765D01*
X155265Y90535D02*X155765Y91035D01*
X155265Y90535D02*Y89535D01*
X155765Y89035D01*
X157265D01*
X156139Y76352D02*X158139D01*
X158639Y75852D01*
Y74852D01*
X158139Y74352D02*X158639Y74852D01*
X156639Y74352D02*X158139D01*
X156639Y76352D02*Y72352D01*
X157439Y74352D02*X158639Y72352D01*
X159839Y73852D02*X161839Y76352D01*
X159839Y73852D02*X162339D01*
X161839Y76352D02*Y72352D01*
X182328Y77535D02*X183628D01*
X181628Y78235D02*X182328Y77535D01*
X181628Y80835D02*Y78235D01*
Y80835D02*X182328Y81535D01*
X183628D01*
X184828Y81035D02*X185328Y81535D01*
X186828D01*
X187328Y81035D01*
Y80035D01*
X184828Y77535D02*X187328Y80035D01*
X184828Y77535D02*X187328D01*
X188528Y81035D02*X189028Y81535D01*
X190028D01*
X190528Y81035D01*
X190028Y77535D02*X190528Y78035D01*
X189028Y77535D02*X190028D01*
X188528Y78035D02*X189028Y77535D01*
Y79735D02*X190028D01*
X190528Y81035D02*Y80235D01*
Y79235D02*Y78035D01*
Y79235D02*X190028Y79735D01*
X190528Y80235D02*X190028Y79735D01*
X267200Y70500D02*X268000D01*
Y67000D01*
X267500Y66500D02*X268000Y67000D01*
X267000Y66500D02*X267500D01*
X266500Y67000D02*X267000Y66500D01*
X266500Y67500D02*Y67000D01*
X270700Y70500D02*X271200Y70000D01*
X269700Y70500D02*X270700D01*
X269200Y70000D02*X269700Y70500D01*
X269200Y70000D02*Y67000D01*
X269700Y66500D01*
X270700Y68700D02*X271200Y68200D01*
X269200Y68700D02*X270700D01*
X269700Y66500D02*X270700D01*
X271200Y67000D01*
Y68200D02*Y67000D01*
X123410Y44409D02*Y40409D01*
X124710Y44409D02*X125410Y43709D01*
Y41109D01*
X124710Y40409D02*X125410Y41109D01*
X122910Y40409D02*X124710D01*
X122910Y44409D02*X124710D01*
X126610Y43909D02*X127110Y44409D01*
X128110D01*
X128610Y43909D01*
X128110Y40409D02*X128610Y40909D01*
X127110Y40409D02*X128110D01*
X126610Y40909D02*X127110Y40409D01*
Y42609D02*X128110D01*
X128610Y43909D02*Y43109D01*
Y42109D02*Y40909D01*
Y42109D02*X128110Y42609D01*
X128610Y43109D02*X128110Y42609D01*
M02*
