M48
INCH
T154C0.012
T153C0.035
T152C0.134
T151C0.028
T150C0.043
T149C0.157
T148C0.100
T147C0.060
T146C0.038
%
T154
X015200Y014320
X015300Y014820
X015400Y015320
X015800Y016420
X017200Y019220
X019940Y024960
X020400Y013620
X020700Y022120
X021200Y017420
X021300Y019420
X022400Y019320
X022400Y015720
X023000Y015020
X023200Y019620
X024200Y005370
X024400Y019320
X024400Y015720
X024650Y009920
X025150Y008870
X025300Y019220
X025300Y017620
X025600Y025400
X025600Y022720
X025600Y007870
X026100Y006870
X026400Y014020
X026400Y005370
X028700Y021520
X031100Y023120
T151
X014110Y027500
X015110Y027500
X016110Y027500
X017110Y027500
X018110Y027500
X019110Y027500
X020110Y027500
X021110Y027500
X022110Y027500
X023110Y027500
X024110Y027500
X025110Y027500
X026110Y027500
X027110Y027500
X028110Y027500
X029110Y027500
X030110Y027500
X031110Y027500
X032110Y027500
X033110Y027500
T153
X003800Y007220
X003800Y005820
X003850Y021220
X006271Y010498
X006400Y026970
X006782Y017571
X010500Y012120
X011400Y002070
X013050Y025120
X013050Y012120
X015800Y012470
X016400Y003370
X019700Y012820
X019900Y024270
X020150Y004370
X020150Y002620
X025310Y024260
X025480Y002860
X027700Y003370
X029350Y013470
X029350Y011620
X031670Y023670
X032750Y025120
X032750Y023370
T146
X004500Y031870
X004500Y030870
X004500Y029870
X004500Y028870
X013020Y035300
X013020Y034300
X013050Y011170
X013050Y010170
X013050Y009170
X013050Y008170
X013050Y007170
X013050Y006170
X013050Y005170
X013050Y004170
X014020Y035300
X014020Y034300
X014050Y011170
X014050Y010170
X014050Y009170
X014050Y008170
X014050Y007170
X014050Y006170
X014050Y005170
X014050Y004170
X015020Y035300
X015020Y034300
X016020Y035300
X016020Y034300
X017020Y035300
X017020Y034300
X018020Y035300
X018020Y034300
X019020Y035300
X019020Y034300
X020020Y035300
X020020Y034300
X021020Y035300
X021020Y034300
X022020Y035300
X022020Y034300
X023020Y035300
X023020Y034300
X024020Y035300
X024020Y034300
X025020Y035300
X025020Y034300
X026020Y035300
X026020Y034300
X027020Y035300
X027020Y034300
X028020Y035300
X028020Y034300
X029020Y035300
X029020Y034300
X030020Y035300
X030020Y034300
X031020Y035300
X031020Y034300
X032020Y035300
X032020Y034300
X033020Y035300
X033020Y034300
X034020Y035300
X034020Y034300
X035000Y019870
X035000Y018870
X035000Y017870
X035000Y016870
X035000Y015870
X035000Y014870
X035000Y013870
X035000Y012870
X035000Y011870
X035000Y010870
X035000Y009870
X035000Y008870
X035000Y007870
X035000Y006870
X035000Y005870
X035000Y004870
X035020Y035300
X035020Y034300
X036000Y019870
X036000Y018870
X036000Y017870
X036000Y016870
X036000Y015870
X036000Y014870
X036000Y013870
X036000Y012870
X036000Y011870
X036000Y010870
X036000Y009870
X036000Y008870
X036000Y007870
X036000Y006870
X036000Y005870
X036000Y004870
X036020Y035300
X036020Y034300
X037020Y035300
X037020Y034300
T150
X013056Y015594
X013060Y023590
X013060Y022590
X013060Y021590
X013060Y020590
X013060Y019590
X013060Y018590
X013060Y017590
X013060Y016590
X013060Y014590
X014060Y023590
X014060Y022590
X014060Y021590
X014060Y020590
X014060Y019590
X014060Y018590
X014060Y017590
X014060Y016590
X014060Y015590
X014060Y014590
T147
X002200Y034320
X004200Y034320
X006200Y034320
X008200Y034320
T148
X001200Y035320
X009200Y035320
T152
X000900Y023120
X000900Y005620
X007500Y031830
X007500Y001670
X031800Y031830
X031800Y001670
X038400Y023120
X038400Y005620
T149
X003200Y038320
X007200Y038320
M30
