G04 start of page 12 for group -4062 idx -4062 *
G04 Title: (unknown), soldermask *
G04 Creator: pcb 20140316 *
G04 CreationDate: Tue 09 Dec 2014 10:14:49 GMT UTC *
G04 For: michael *
G04 Format: Gerber/RS-274X *
G04 PCB-Dimensions (mil): 3930.00 3937.00 *
G04 PCB-Coordinate-Origin: lower left *
%MOIN*%
%FSLAX25Y25*%
%LNGBS*%
%ADD177C,0.0808*%
%ADD176C,0.1600*%
%ADD175C,0.1100*%
%ADD174C,0.0660*%
%ADD173C,0.0001*%
G54D173*G36*
X41700Y312000D02*Y305400D01*
X48300D01*
Y312000D01*
X41700D01*
G37*
G54D174*X45000Y318700D03*
G54D175*X22000Y343200D03*
X42000D03*
X62000D03*
X12000Y353200D03*
G54D176*X32000Y383200D03*
X72000D03*
G54D173*G36*
X41700Y292000D02*Y285400D01*
X48300D01*
Y292000D01*
X41700D01*
G37*
G54D174*X45000Y298700D03*
G54D175*X82000Y343200D03*
X92000Y353200D03*
G54D174*X130200Y343000D03*
Y353000D03*
X140200Y343000D03*
Y353000D03*
X150200Y343000D03*
Y353000D03*
X160200Y343000D03*
Y353000D03*
X170200D03*
X180200D03*
X170200Y343000D03*
X180200D03*
X190200D03*
X200200D03*
X210200D03*
X220200D03*
X190200Y353000D03*
X200200D03*
X210200D03*
X230200Y343000D03*
X240200D03*
X250200D03*
X220200Y353000D03*
X230200D03*
X240200D03*
X250200D03*
X260200Y343000D03*
X270200D03*
X280200D03*
X260200Y353000D03*
X270200D03*
X280200D03*
X290200D03*
X300200D03*
X310200D03*
X290200Y343000D03*
X300200D03*
X310200D03*
X320200D03*
Y353000D03*
X330200Y343000D03*
X340200D03*
X350200D03*
X360200D03*
X370200D03*
X330200Y353000D03*
X340200D03*
X350200D03*
X360200D03*
G54D173*G36*
X366900Y356300D02*Y349700D01*
X373500D01*
Y356300D01*
X366900D01*
G37*
G54D174*X130500Y91700D03*
X140500D03*
X130500Y81700D03*
X140500D03*
G54D173*G36*
X127200Y115000D02*Y108400D01*
X133800D01*
Y115000D01*
X127200D01*
G37*
G54D174*X140500Y111700D03*
X130500Y101700D03*
X140500D03*
X130500Y71700D03*
X140500D03*
X130500Y61700D03*
Y51700D03*
Y41700D03*
X140500Y61700D03*
Y51700D03*
Y41700D03*
G54D173*G36*
X136560Y149940D02*Y141860D01*
X144640D01*
Y149940D01*
X136560D01*
G37*
G54D177*X130600Y145900D03*
X140600Y155900D03*
X130561Y155939D03*
X140600Y165900D03*
X130600D03*
X140600Y175900D03*
Y185900D03*
Y195900D03*
X130600Y175900D03*
Y185900D03*
Y195900D03*
Y205900D03*
Y215900D03*
Y225900D03*
X140600Y205900D03*
Y215900D03*
Y225900D03*
Y235900D03*
X130600D03*
G54D173*G36*
X137800Y278300D02*Y271700D01*
X144400D01*
Y278300D01*
X137800D01*
G37*
G54D174*X151100Y275000D03*
X161100D03*
X171100D03*
X181100D03*
X191100D03*
X201100D03*
X211100D03*
X221100D03*
G54D173*G36*
X346700Y182000D02*Y175400D01*
X353300D01*
Y182000D01*
X346700D01*
G37*
G54D174*X360000Y178700D03*
X350000Y168700D03*
X360000D03*
G54D173*G36*
X346700Y192000D02*Y185400D01*
X353300D01*
Y192000D01*
X346700D01*
G37*
G54D174*X360000Y188700D03*
X350000Y158700D03*
X360000D03*
G54D173*G36*
X346700Y202000D02*Y195400D01*
X353300D01*
Y202000D01*
X346700D01*
G37*
G54D174*X360000Y198700D03*
G54D173*G36*
X237800Y278300D02*Y271700D01*
X244400D01*
Y278300D01*
X237800D01*
G37*
G54D174*X251100Y275000D03*
X261100D03*
X271100D03*
X281100D03*
X291100D03*
X301100D03*
X311100D03*
X321100D03*
X331100D03*
X231100D03*
X350000Y148700D03*
G54D173*G36*
X346700Y132000D02*Y125400D01*
X353300D01*
Y132000D01*
X346700D01*
G37*
G54D174*X350000Y118700D03*
G54D173*G36*
X346700Y142000D02*Y135400D01*
X353300D01*
Y142000D01*
X346700D01*
G37*
G54D174*X360000Y148700D03*
Y128700D03*
Y118700D03*
Y138700D03*
X350000Y108700D03*
Y98700D03*
Y88700D03*
Y78700D03*
X360000D03*
X350000Y68700D03*
Y58700D03*
Y48700D03*
X360000Y68700D03*
Y58700D03*
Y48700D03*
Y108700D03*
Y98700D03*
Y88700D03*
M02*
