G04 start of page 11 for group -4063 idx -4063 *
G04 Title: (unknown), componentmask *
G04 Creator: pcb 20110918 *
G04 CreationDate: Thu 03 Oct 2013 10:13:16 GMT UTC *
G04 For: michael *
G04 Format: Gerber/RS-274X *
G04 PCB-Dimensions: 386000 393500 *
G04 PCB-Coordinate-Origin: lower left *
%MOIN*%
%FSLAX25Y25*%
%LNTOPMASK*%
%ADD146C,0.0410*%
%ADD145R,0.0375X0.0375*%
%ADD144R,0.1006X0.1006*%
%ADD143R,0.0660X0.0660*%
%ADD142R,0.0769X0.0769*%
%ADD141R,0.0690X0.0690*%
%ADD140R,0.0218X0.0218*%
%ADD139R,0.0750X0.0750*%
%ADD138R,0.0300X0.0300*%
%ADD137R,0.0611X0.0611*%
%ADD136R,0.0140X0.0140*%
%ADD135R,0.0510X0.0510*%
%ADD134C,0.1600*%
%ADD133C,0.1100*%
%ADD132C,0.0001*%
%ADD131C,0.0660*%
G54D131*X133000Y349500D03*
X143000D03*
X153000D03*
X163000D03*
X173000D03*
X183000D03*
X163000Y339500D03*
X173000D03*
X183000D03*
X193000Y349500D03*
X203000D03*
X213000D03*
X193000Y339500D03*
X203000D03*
X213000D03*
X223000D03*
Y349500D03*
X233000D03*
X243000D03*
X233000Y339500D03*
X243000D03*
X253000D03*
X263000D03*
X273000D03*
X283000D03*
X253000Y349500D03*
X263000D03*
X273000D03*
X283000D03*
X293000Y339500D03*
X303000D03*
X313000D03*
X293000Y349500D03*
X303000D03*
X313000D03*
X323000D03*
X333000D03*
X343000D03*
X323000Y339500D03*
X333000D03*
X343000D03*
X353000D03*
Y349500D03*
G54D132*G36*
X359700Y352800D02*Y346200D01*
X366300D01*
Y352800D01*
X359700D01*
G37*
G54D131*X363000Y339500D03*
G54D132*G36*
X304700Y249300D02*Y242700D01*
X311300D01*
Y249300D01*
X304700D01*
G37*
G54D131*X298000Y246000D03*
X288000D03*
X278000D03*
X268000D03*
X258000D03*
X248000D03*
X238000D03*
X228000D03*
X218000D03*
G54D132*G36*
X202700Y249300D02*Y242700D01*
X209300D01*
Y249300D01*
X202700D01*
G37*
G54D131*X196000Y246000D03*
X186000D03*
X176000D03*
X166000D03*
X156000D03*
X146000D03*
X136000D03*
X126000D03*
X116000D03*
X123000Y339500D03*
Y349500D03*
X133000Y339500D03*
X143000D03*
X153000D03*
G54D133*X62000D03*
X82000D03*
X92000Y349500D03*
G54D134*X32000Y379500D03*
X72000D03*
G54D133*X22000Y339500D03*
X42000D03*
X12000Y349500D03*
G54D132*G36*
X38700Y316800D02*Y310200D01*
X45300D01*
Y316800D01*
X38700D01*
G37*
G54D131*X42000Y303500D03*
G54D135*X363500Y327200D02*Y325800D01*
X371500Y327200D02*Y325800D01*
G54D136*X157492Y98378D02*X162390D01*
X168878Y91890D02*Y86992D01*
G54D132*G36*
X160716Y92722D02*Y90152D01*
X163284D01*
Y92722D01*
X160716D01*
G37*
G36*
Y88784D02*Y86216D01*
X163284D01*
Y88784D01*
X160716D01*
G37*
G54D136*X170846Y91890D02*Y86992D01*
X172815Y91890D02*Y86992D01*
X174783Y91890D02*Y86992D01*
X176752Y91890D02*Y86992D01*
G54D135*X169500Y64200D02*Y62800D01*
X177500Y64200D02*Y62800D01*
X169439Y74952D02*Y73552D01*
X177439Y74952D02*Y73552D01*
G54D136*X178720Y91890D02*Y86992D01*
X180689Y91890D02*Y86992D01*
X182657Y91890D02*Y86992D01*
X184626Y91890D02*Y86992D01*
X186594Y91890D02*Y86992D01*
X188563Y91890D02*Y86992D01*
X190531Y91890D02*Y86992D01*
X192500Y91890D02*Y86992D01*
G54D132*G36*
X196652Y73284D02*Y70716D01*
X199222D01*
Y73284D01*
X196652D01*
G37*
G36*
X192716D02*Y70716D01*
X195284D01*
Y73284D01*
X192716D01*
G37*
G36*
Y78784D02*Y76216D01*
X195284D01*
Y78784D01*
X192716D01*
G37*
G36*
Y82722D02*Y80152D01*
X195284D01*
Y82722D01*
X192716D01*
G37*
G36*
X198216Y78784D02*Y76216D01*
X200784D01*
Y78784D01*
X198216D01*
G37*
G36*
Y82722D02*Y80152D01*
X200784D01*
Y82722D01*
X198216D01*
G37*
G54D136*X194468Y91890D02*Y86992D01*
X196437Y91890D02*Y86992D01*
X198405Y91890D02*Y86992D01*
X200374Y91890D02*Y86992D01*
X202342Y91890D02*Y86992D01*
X204311Y91890D02*Y86992D01*
X206279Y91890D02*Y86992D01*
X208248Y91890D02*Y86992D01*
X210216Y91890D02*Y86992D01*
X212185Y91890D02*Y86992D01*
X214153Y91890D02*Y86992D01*
X216122Y91890D02*Y86992D01*
G54D132*G36*
X221716Y92784D02*Y90216D01*
X224284D01*
Y92784D01*
X221716D01*
G37*
G36*
Y88848D02*Y86278D01*
X224284D01*
Y88848D01*
X221716D01*
G37*
G54D136*X222610Y114126D02*X227508D01*
X222610Y116094D02*X227508D01*
X222610Y118063D02*X227508D01*
X222610Y120031D02*X227508D01*
X222610Y122000D02*X227508D01*
G54D132*G36*
X230216Y117847D02*Y115279D01*
X232784D01*
Y117847D01*
X230216D01*
G37*
G36*
Y121784D02*Y119216D01*
X232784D01*
Y121784D01*
X230216D01*
G37*
G54D135*X233500Y74700D02*Y73300D01*
G54D137*X225390Y63071D02*X226965D01*
G54D136*X222610Y123968D02*X227508D01*
X222610Y125937D02*X227508D01*
X222610Y127905D02*X227508D01*
X222610Y129874D02*X227508D01*
X222610Y131842D02*X227508D01*
X222610Y133811D02*X227508D01*
X222610Y135779D02*X227508D01*
X222610Y137748D02*X227508D01*
X222610Y139716D02*X227508D01*
X222610Y141685D02*X227508D01*
X222610Y143653D02*X227508D01*
X222610Y145622D02*X227508D01*
G54D132*G36*
X230216Y130721D02*Y128153D01*
X232784D01*
Y130721D01*
X230216D01*
G37*
G36*
X235788Y130649D02*Y128080D01*
X238356D01*
Y130649D01*
X235788D01*
G37*
G36*
X230216Y126784D02*Y124216D01*
X232784D01*
Y126784D01*
X230216D01*
G37*
G36*
X235788Y126712D02*Y124144D01*
X238356D01*
Y126712D01*
X235788D01*
G37*
G54D135*X288500Y157200D02*Y155800D01*
X280500Y157200D02*Y155800D01*
X288500Y169700D02*Y168300D01*
X280500Y169700D02*Y168300D01*
G54D138*X287500Y226250D02*Y219750D01*
G54D135*X306300Y266000D02*X307700D01*
X306300Y258000D02*X307700D01*
G54D138*X282500Y226250D02*Y219750D01*
X277500Y226250D02*Y219750D01*
X272500Y226250D02*Y219750D01*
X267500Y226250D02*Y219750D01*
X282500Y205750D02*Y199250D01*
X287500Y205750D02*Y199250D01*
G54D132*G36*
X292716Y209722D02*Y207152D01*
X295284D01*
Y209722D01*
X292716D01*
G37*
G36*
Y205784D02*Y203216D01*
X295284D01*
Y205784D01*
X292716D01*
G37*
G54D135*X339800Y194500D02*X341200D01*
X339800Y202500D02*X341200D01*
G54D132*G36*
X325750Y261250D02*Y233750D01*
X353250D01*
Y261250D01*
X325750D01*
G37*
G36*
Y246250D02*Y233750D01*
X338250D01*
Y246250D01*
X325750D01*
G37*
G36*
X340750Y261250D02*Y248750D01*
X353250D01*
Y261250D01*
X340750D01*
G37*
G36*
X325750D02*Y248750D01*
X338250D01*
Y261250D01*
X325750D01*
G37*
G54D139*X330500Y224000D02*Y218500D01*
G54D132*G36*
X340750Y246250D02*Y233750D01*
X353250D01*
Y246250D01*
X340750D01*
G37*
G54D139*X348500Y224000D02*Y218500D01*
G54D135*X315300Y108000D02*X316700D01*
G54D132*G36*
X325250Y148750D02*Y136250D01*
X337750D01*
Y148750D01*
X325250D01*
G37*
G36*
Y133750D02*Y121250D01*
X337750D01*
Y133750D01*
X325250D01*
G37*
G36*
Y148750D02*Y121250D01*
X352750D01*
Y148750D01*
X325250D01*
G37*
G36*
X340250D02*Y136250D01*
X352750D01*
Y148750D01*
X340250D01*
G37*
G36*
Y133750D02*Y121250D01*
X352750D01*
Y133750D01*
X340250D01*
G37*
G54D139*X348000Y111500D02*Y106000D01*
X330000Y111500D02*Y106000D01*
G54D135*X315300Y100000D02*X316700D01*
X344800Y71500D02*X346200D01*
X344800Y79500D02*X346200D01*
X334300Y71500D02*X335700D01*
X334300Y79500D02*X335700D01*
X323800Y71500D02*X325200D01*
X323800Y79500D02*X325200D01*
X313300Y71500D02*X314700D01*
X313300Y79500D02*X314700D01*
X302300Y71500D02*X303700D01*
X302300Y79500D02*X303700D01*
X291300Y71500D02*X292700D01*
X291300Y79500D02*X292700D01*
X362800Y99000D02*X364200D01*
X362800Y107000D02*X364200D01*
G54D136*X222610Y98378D02*X227508D01*
X222610Y100346D02*X227508D01*
X222610Y102315D02*X227508D01*
X222610Y104283D02*X227508D01*
X222610Y106252D02*X227508D01*
X222610Y108220D02*X227508D01*
X222610Y110189D02*X227508D01*
X222610Y112157D02*X227508D01*
G54D135*X241500Y74700D02*Y73300D01*
G54D137*X247831Y63071D02*X249406D01*
G54D140*X173725Y18902D02*Y15162D01*
X178843Y18902D02*Y15162D01*
X168607Y18902D02*Y15162D01*
X176284Y18902D02*Y15162D01*
X171166Y18902D02*Y15162D01*
G54D141*X160536Y16540D02*X162504D01*
X184945D02*X186914D01*
G54D142*X158764Y6697D02*Y6303D01*
G54D143*X158000Y34000D02*Y33000D01*
X146000Y34000D02*Y33000D01*
G54D144*X128607Y56000D02*X129394D01*
X145536D02*X146323D01*
G54D132*G36*
X164960Y10540D02*Y2460D01*
X173040D01*
Y10540D01*
X164960D01*
G37*
G36*
X174409D02*Y2460D01*
X182489D01*
Y10540D01*
X174409D01*
G37*
G54D142*X188685Y6697D02*Y6303D01*
G54D132*G36*
X280216Y17284D02*Y14716D01*
X282784D01*
Y17284D01*
X280216D01*
G37*
G36*
X276278D02*Y14716D01*
X278848D01*
Y17284D01*
X276278D01*
G37*
G54D137*X271453Y7953D02*Y5984D01*
G54D145*X252555Y23701D02*Y20945D01*
X248224Y25276D02*Y22520D01*
X243894Y23701D02*Y20945D01*
X239563Y22913D02*Y20157D01*
X235232Y23701D02*Y20945D01*
X230902Y22913D02*Y20157D01*
X226571Y23701D02*Y20945D01*
X222240Y23701D02*Y20945D01*
G54D137*X219091Y12283D02*Y10315D01*
G54D138*X149000Y226000D02*Y219500D01*
X144000Y226000D02*Y219500D01*
X139000Y226000D02*Y219500D01*
X134000Y226000D02*Y219500D01*
X129000Y226000D02*Y219500D01*
X124000Y226000D02*Y219500D01*
X119000Y226000D02*Y219500D01*
G54D135*X74800Y230000D02*X76200D01*
X74800Y222000D02*X76200D01*
G54D144*X21500Y234894D02*Y234107D01*
Y251823D02*Y251036D01*
G54D138*X119000Y205500D02*Y199000D01*
X124000Y205500D02*Y199000D01*
X129000Y205500D02*Y199000D01*
X134000Y205500D02*Y199000D01*
X139000Y205500D02*Y199000D01*
X144000Y205500D02*Y199000D01*
X149000Y205500D02*Y199000D01*
G54D132*G36*
X153216Y211284D02*Y208716D01*
X155784D01*
Y211284D01*
X153216D01*
G37*
G36*
Y207348D02*Y204778D01*
X155784D01*
Y207348D01*
X153216D01*
G37*
G54D143*X21500Y321000D02*X22500D01*
X21500Y309000D02*X22500D01*
G54D144*X77106D02*X77893D01*
X60177D02*X60964D01*
G54D136*X157492Y145622D02*X162390D01*
X157492Y143654D02*X162390D01*
X157492Y141685D02*X162390D01*
X157492Y139717D02*X162390D01*
X157492Y137748D02*X162390D01*
X157492Y135780D02*X162390D01*
G54D132*G36*
X160716Y153784D02*Y151216D01*
X163284D01*
Y153784D01*
X160716D01*
G37*
G54D135*X136000Y155200D02*Y153800D01*
X144000Y155200D02*Y153800D01*
G54D132*G36*
X160716Y157722D02*Y155152D01*
X163284D01*
Y157722D01*
X160716D01*
G37*
G54D136*X157492Y133811D02*X162390D01*
X157492Y131843D02*X162390D01*
X157492Y129874D02*X162390D01*
X157492Y127906D02*X162390D01*
X157492Y125937D02*X162390D01*
X157492Y123969D02*X162390D01*
X157492Y122000D02*X162390D01*
X157492Y120032D02*X162390D01*
X157492Y118063D02*X162390D01*
X157492Y116095D02*X162390D01*
X157492Y114126D02*X162390D01*
X157492Y112158D02*X162390D01*
X157492Y110189D02*X162390D01*
X157492Y108221D02*X162390D01*
X157492Y106252D02*X162390D01*
X157492Y104284D02*X162390D01*
X157492Y102315D02*X162390D01*
X157492Y100347D02*X162390D01*
G54D146*X125844Y85950D02*X133944D01*
X109844D02*X117944D01*
X125844Y90950D02*X133944D01*
X109844D02*X117944D01*
X109844Y95950D02*X117944D01*
X109844Y100950D02*X117944D01*
X109844Y105950D02*X117944D01*
X125844Y95950D02*X133944D01*
X125844Y100950D02*X133944D01*
X125844Y105950D02*X133944D01*
G54D136*X216122Y157008D02*Y152110D01*
X214154Y157008D02*Y152110D01*
X212185Y157008D02*Y152110D01*
X210217Y157008D02*Y152110D01*
X208248Y157008D02*Y152110D01*
X206280Y157008D02*Y152110D01*
G54D132*G36*
X221716Y157722D02*Y155152D01*
X224284D01*
Y157722D01*
X221716D01*
G37*
G36*
Y153784D02*Y151216D01*
X224284D01*
Y153784D01*
X221716D01*
G37*
G54D136*X204311Y157008D02*Y152110D01*
X202343Y157008D02*Y152110D01*
X200374Y157008D02*Y152110D01*
X198406Y157008D02*Y152110D01*
X196437Y157008D02*Y152110D01*
X194469Y157008D02*Y152110D01*
X192500Y157008D02*Y152110D01*
G54D132*G36*
X192216Y166222D02*Y163652D01*
X194784D01*
Y166222D01*
X192216D01*
G37*
G36*
Y162284D02*Y159716D01*
X194784D01*
Y162284D01*
X192216D01*
G37*
G54D136*X190532Y157008D02*Y152110D01*
X188563Y157008D02*Y152110D01*
X186595Y157008D02*Y152110D01*
X184626Y157008D02*Y152110D01*
X182658Y157008D02*Y152110D01*
X180689Y157008D02*Y152110D01*
X178721Y157008D02*Y152110D01*
X176752Y157008D02*Y152110D01*
X174784Y157008D02*Y152110D01*
X172815Y157008D02*Y152110D01*
X170847Y157008D02*Y152110D01*
X168878Y157008D02*Y152110D01*
G54D138*X262500Y226250D02*Y219750D01*
X257500Y226250D02*Y219750D01*
Y205750D02*Y199250D01*
X262500Y205750D02*Y199250D01*
X267500Y205750D02*Y199250D01*
X272500Y205750D02*Y199250D01*
X277500Y205750D02*Y199250D01*
G54D132*G36*
X231216Y211284D02*Y208716D01*
X233784D01*
Y211284D01*
X231216D01*
G37*
G36*
Y207348D02*Y204778D01*
X233784D01*
Y207348D01*
X231216D01*
G37*
G54D138*X217000Y226000D02*Y219500D01*
G54D135*X205800Y266000D02*X207200D01*
X205800Y258000D02*X207200D01*
G54D138*X212000Y226000D02*Y219500D01*
X207000Y226000D02*Y219500D01*
X202000Y226000D02*Y219500D01*
X197000Y226000D02*Y219500D01*
X227000Y226000D02*Y219500D01*
X222000Y226000D02*Y219500D01*
X197000Y205500D02*Y199000D01*
X202000Y205500D02*Y199000D01*
X207000Y205500D02*Y199000D01*
X212000Y205500D02*Y199000D01*
X217000Y205500D02*Y199000D01*
X222000Y205500D02*Y199000D01*
X227000Y205500D02*Y199000D01*
M02*
