G04 start of page 7 for group -4063 idx -4063 *
G04 Title: (unknown), componentmask *
G04 Creator: pcb 20110918 *
G04 CreationDate: Wed 02 Oct 2013 12:02:10 GMT UTC *
G04 For: michael *
G04 Format: Gerber/RS-274X *
G04 PCB-Dimensions: 384000 393500 *
G04 PCB-Coordinate-Origin: lower left *
%MOIN*%
%FSLAX25Y25*%
%LNTOPMASK*%
%ADD94C,0.0410*%
%ADD93R,0.0375X0.0375*%
%ADD92R,0.1006X0.1006*%
%ADD91R,0.0660X0.0660*%
%ADD90R,0.0769X0.0769*%
%ADD89R,0.0690X0.0690*%
%ADD88R,0.0218X0.0218*%
%ADD87R,0.0750X0.0750*%
%ADD86R,0.0300X0.0300*%
%ADD85R,0.0611X0.0611*%
%ADD84R,0.0140X0.0140*%
%ADD83R,0.0510X0.0510*%
%ADD82C,0.1600*%
%ADD81C,0.1100*%
%ADD80C,0.0001*%
%ADD79C,0.0660*%
G54D79*X132000Y349500D03*
X142000D03*
X152000D03*
X162000D03*
X172000D03*
X182000D03*
X162000Y339500D03*
X172000D03*
X182000D03*
X192000Y349500D03*
X202000D03*
X212000D03*
X192000Y339500D03*
X202000D03*
X212000D03*
X222000D03*
Y349500D03*
X232000D03*
X242000D03*
X232000Y339500D03*
X242000D03*
X252000D03*
X262000D03*
X272000D03*
X282000D03*
X252000Y349500D03*
X262000D03*
X272000D03*
X282000D03*
X292000Y339500D03*
X302000D03*
X312000D03*
X292000Y349500D03*
X302000D03*
X312000D03*
X322000D03*
X332000D03*
X342000D03*
X322000Y339500D03*
X332000D03*
X342000D03*
X352000D03*
Y349500D03*
G54D80*G36*
X358700Y352800D02*Y346200D01*
X365300D01*
Y352800D01*
X358700D01*
G37*
G54D79*X362000Y339500D03*
G54D80*G36*
X303700Y249300D02*Y242700D01*
X310300D01*
Y249300D01*
X303700D01*
G37*
G54D79*X297000Y246000D03*
X287000D03*
X277000D03*
X267000D03*
X257000D03*
X247000D03*
X237000D03*
X227000D03*
X217000D03*
G54D80*G36*
X201700Y249300D02*Y242700D01*
X208300D01*
Y249300D01*
X201700D01*
G37*
G54D79*X195000Y246000D03*
X185000D03*
X175000D03*
X165000D03*
X155000D03*
X145000D03*
X135000D03*
X125000D03*
X115000D03*
X122000Y339500D03*
Y349500D03*
X132000Y339500D03*
X142000D03*
X152000D03*
G54D81*X61000D03*
X81000D03*
X91000Y349500D03*
G54D82*X31000Y379500D03*
X71000D03*
G54D81*X21000Y339500D03*
X41000D03*
X11000Y349500D03*
G54D80*G36*
X37700Y316800D02*Y310200D01*
X44300D01*
Y316800D01*
X37700D01*
G37*
G54D79*X41000Y303500D03*
G54D83*X362500Y327200D02*Y325800D01*
X370500Y327200D02*Y325800D01*
G54D84*X156492Y98378D02*X161390D01*
X167878Y91890D02*Y86992D01*
G54D80*G36*
X159716Y92722D02*Y90152D01*
X162284D01*
Y92722D01*
X159716D01*
G37*
G36*
Y88784D02*Y86216D01*
X162284D01*
Y88784D01*
X159716D01*
G37*
G54D84*X169846Y91890D02*Y86992D01*
X171815Y91890D02*Y86992D01*
X173783Y91890D02*Y86992D01*
X175752Y91890D02*Y86992D01*
G54D83*X168500Y64200D02*Y62800D01*
X176500Y64200D02*Y62800D01*
X168439Y74952D02*Y73552D01*
X176439Y74952D02*Y73552D01*
G54D84*X177720Y91890D02*Y86992D01*
X179689Y91890D02*Y86992D01*
X181657Y91890D02*Y86992D01*
X183626Y91890D02*Y86992D01*
X185594Y91890D02*Y86992D01*
X187563Y91890D02*Y86992D01*
X189531Y91890D02*Y86992D01*
X191500Y91890D02*Y86992D01*
G54D80*G36*
X195652Y73284D02*Y70716D01*
X198222D01*
Y73284D01*
X195652D01*
G37*
G36*
X191716D02*Y70716D01*
X194284D01*
Y73284D01*
X191716D01*
G37*
G36*
Y78784D02*Y76216D01*
X194284D01*
Y78784D01*
X191716D01*
G37*
G36*
Y82722D02*Y80152D01*
X194284D01*
Y82722D01*
X191716D01*
G37*
G36*
X197216Y78784D02*Y76216D01*
X199784D01*
Y78784D01*
X197216D01*
G37*
G36*
Y82722D02*Y80152D01*
X199784D01*
Y82722D01*
X197216D01*
G37*
G54D84*X193468Y91890D02*Y86992D01*
X195437Y91890D02*Y86992D01*
X197405Y91890D02*Y86992D01*
X199374Y91890D02*Y86992D01*
X201342Y91890D02*Y86992D01*
X203311Y91890D02*Y86992D01*
X205279Y91890D02*Y86992D01*
X207248Y91890D02*Y86992D01*
X209216Y91890D02*Y86992D01*
X211185Y91890D02*Y86992D01*
X213153Y91890D02*Y86992D01*
X215122Y91890D02*Y86992D01*
G54D80*G36*
X220716Y92784D02*Y90216D01*
X223284D01*
Y92784D01*
X220716D01*
G37*
G36*
Y88848D02*Y86278D01*
X223284D01*
Y88848D01*
X220716D01*
G37*
G54D84*X221610Y114126D02*X226508D01*
X221610Y116094D02*X226508D01*
X221610Y118063D02*X226508D01*
X221610Y120031D02*X226508D01*
X221610Y122000D02*X226508D01*
G54D80*G36*
X229216Y117847D02*Y115279D01*
X231784D01*
Y117847D01*
X229216D01*
G37*
G36*
Y121784D02*Y119216D01*
X231784D01*
Y121784D01*
X229216D01*
G37*
G54D83*X232500Y74700D02*Y73300D01*
G54D85*X224390Y63071D02*X225965D01*
G54D84*X221610Y123968D02*X226508D01*
X221610Y125937D02*X226508D01*
X221610Y127905D02*X226508D01*
X221610Y129874D02*X226508D01*
X221610Y131842D02*X226508D01*
X221610Y133811D02*X226508D01*
X221610Y135779D02*X226508D01*
X221610Y137748D02*X226508D01*
X221610Y139716D02*X226508D01*
X221610Y141685D02*X226508D01*
X221610Y143653D02*X226508D01*
X221610Y145622D02*X226508D01*
G54D80*G36*
X229216Y130721D02*Y128153D01*
X231784D01*
Y130721D01*
X229216D01*
G37*
G36*
X234788Y130649D02*Y128080D01*
X237356D01*
Y130649D01*
X234788D01*
G37*
G36*
X229216Y126784D02*Y124216D01*
X231784D01*
Y126784D01*
X229216D01*
G37*
G36*
X234788Y126712D02*Y124144D01*
X237356D01*
Y126712D01*
X234788D01*
G37*
G54D83*X287500Y157200D02*Y155800D01*
X279500Y157200D02*Y155800D01*
X287500Y169700D02*Y168300D01*
X279500Y169700D02*Y168300D01*
G54D86*X286500Y226250D02*Y219750D01*
G54D83*X305300Y266000D02*X306700D01*
X305300Y258000D02*X306700D01*
G54D86*X281500Y226250D02*Y219750D01*
X276500Y226250D02*Y219750D01*
X271500Y226250D02*Y219750D01*
X266500Y226250D02*Y219750D01*
X281500Y205750D02*Y199250D01*
X286500Y205750D02*Y199250D01*
G54D80*G36*
X291716Y209722D02*Y207152D01*
X294284D01*
Y209722D01*
X291716D01*
G37*
G36*
Y205784D02*Y203216D01*
X294284D01*
Y205784D01*
X291716D01*
G37*
G54D83*X338800Y194500D02*X340200D01*
X338800Y202500D02*X340200D01*
G54D80*G36*
X324750Y261250D02*Y233750D01*
X352250D01*
Y261250D01*
X324750D01*
G37*
G36*
Y246250D02*Y233750D01*
X337250D01*
Y246250D01*
X324750D01*
G37*
G36*
X339750Y261250D02*Y248750D01*
X352250D01*
Y261250D01*
X339750D01*
G37*
G36*
X324750D02*Y248750D01*
X337250D01*
Y261250D01*
X324750D01*
G37*
G54D87*X329500Y224000D02*Y218500D01*
G54D80*G36*
X339750Y246250D02*Y233750D01*
X352250D01*
Y246250D01*
X339750D01*
G37*
G54D87*X347500Y224000D02*Y218500D01*
G54D83*X314300Y108000D02*X315700D01*
G54D80*G36*
X324250Y148750D02*Y136250D01*
X336750D01*
Y148750D01*
X324250D01*
G37*
G36*
Y133750D02*Y121250D01*
X336750D01*
Y133750D01*
X324250D01*
G37*
G36*
Y148750D02*Y121250D01*
X351750D01*
Y148750D01*
X324250D01*
G37*
G36*
X339250D02*Y136250D01*
X351750D01*
Y148750D01*
X339250D01*
G37*
G36*
Y133750D02*Y121250D01*
X351750D01*
Y133750D01*
X339250D01*
G37*
G54D87*X347000Y111500D02*Y106000D01*
X329000Y111500D02*Y106000D01*
G54D83*X314300Y100000D02*X315700D01*
X343800Y71500D02*X345200D01*
X343800Y79500D02*X345200D01*
X333300Y71500D02*X334700D01*
X333300Y79500D02*X334700D01*
X322800Y71500D02*X324200D01*
X322800Y79500D02*X324200D01*
X312300Y71500D02*X313700D01*
X312300Y79500D02*X313700D01*
X301300Y71500D02*X302700D01*
X301300Y79500D02*X302700D01*
X290300Y71500D02*X291700D01*
X290300Y79500D02*X291700D01*
X361800Y99000D02*X363200D01*
X361800Y107000D02*X363200D01*
G54D84*X221610Y98378D02*X226508D01*
X221610Y100346D02*X226508D01*
X221610Y102315D02*X226508D01*
X221610Y104283D02*X226508D01*
X221610Y106252D02*X226508D01*
X221610Y108220D02*X226508D01*
X221610Y110189D02*X226508D01*
X221610Y112157D02*X226508D01*
G54D83*X240500Y74700D02*Y73300D01*
G54D85*X246831Y63071D02*X248406D01*
G54D88*X172725Y18902D02*Y15162D01*
X177843Y18902D02*Y15162D01*
X167607Y18902D02*Y15162D01*
X175284Y18902D02*Y15162D01*
X170166Y18902D02*Y15162D01*
G54D89*X159536Y16540D02*X161504D01*
X183945D02*X185914D01*
G54D90*X157764Y6697D02*Y6303D01*
G54D91*X157000Y34000D02*Y33000D01*
X145000Y34000D02*Y33000D01*
G54D92*X127607Y56000D02*X128394D01*
X144536D02*X145323D01*
G54D80*G36*
X163960Y10540D02*Y2460D01*
X172040D01*
Y10540D01*
X163960D01*
G37*
G36*
X173409D02*Y2460D01*
X181489D01*
Y10540D01*
X173409D01*
G37*
G54D90*X187685Y6697D02*Y6303D01*
G54D80*G36*
X279216Y17284D02*Y14716D01*
X281784D01*
Y17284D01*
X279216D01*
G37*
G36*
X275278D02*Y14716D01*
X277848D01*
Y17284D01*
X275278D01*
G37*
G54D85*X270453Y7953D02*Y5984D01*
G54D93*X251555Y23701D02*Y20945D01*
X247224Y25276D02*Y22520D01*
X242894Y23701D02*Y20945D01*
X238563Y22913D02*Y20157D01*
X234232Y23701D02*Y20945D01*
X229902Y22913D02*Y20157D01*
X225571Y23701D02*Y20945D01*
X221240Y23701D02*Y20945D01*
G54D85*X218091Y12283D02*Y10315D01*
G54D86*X148000Y226000D02*Y219500D01*
X143000Y226000D02*Y219500D01*
X138000Y226000D02*Y219500D01*
X133000Y226000D02*Y219500D01*
X128000Y226000D02*Y219500D01*
X123000Y226000D02*Y219500D01*
X118000Y226000D02*Y219500D01*
G54D83*X73800Y230000D02*X75200D01*
X73800Y222000D02*X75200D01*
G54D92*X20500Y234894D02*Y234107D01*
Y251823D02*Y251036D01*
G54D86*X118000Y205500D02*Y199000D01*
X123000Y205500D02*Y199000D01*
X128000Y205500D02*Y199000D01*
X133000Y205500D02*Y199000D01*
X138000Y205500D02*Y199000D01*
X143000Y205500D02*Y199000D01*
X148000Y205500D02*Y199000D01*
G54D80*G36*
X152216Y211284D02*Y208716D01*
X154784D01*
Y211284D01*
X152216D01*
G37*
G36*
Y207348D02*Y204778D01*
X154784D01*
Y207348D01*
X152216D01*
G37*
G54D91*X20500Y321000D02*X21500D01*
X20500Y309000D02*X21500D01*
G54D92*X76106D02*X76893D01*
X59177D02*X59964D01*
G54D84*X156492Y145622D02*X161390D01*
X156492Y143654D02*X161390D01*
X156492Y141685D02*X161390D01*
X156492Y139717D02*X161390D01*
X156492Y137748D02*X161390D01*
X156492Y135780D02*X161390D01*
G54D80*G36*
X159716Y153784D02*Y151216D01*
X162284D01*
Y153784D01*
X159716D01*
G37*
G54D83*X135000Y155200D02*Y153800D01*
X143000Y155200D02*Y153800D01*
G54D80*G36*
X159716Y157722D02*Y155152D01*
X162284D01*
Y157722D01*
X159716D01*
G37*
G54D84*X156492Y133811D02*X161390D01*
X156492Y131843D02*X161390D01*
X156492Y129874D02*X161390D01*
X156492Y127906D02*X161390D01*
X156492Y125937D02*X161390D01*
X156492Y123969D02*X161390D01*
X156492Y122000D02*X161390D01*
X156492Y120032D02*X161390D01*
X156492Y118063D02*X161390D01*
X156492Y116095D02*X161390D01*
X156492Y114126D02*X161390D01*
X156492Y112158D02*X161390D01*
X156492Y110189D02*X161390D01*
X156492Y108221D02*X161390D01*
X156492Y106252D02*X161390D01*
X156492Y104284D02*X161390D01*
X156492Y102315D02*X161390D01*
X156492Y100347D02*X161390D01*
G54D94*X124844Y85950D02*X132944D01*
X108844D02*X116944D01*
X124844Y90950D02*X132944D01*
X108844D02*X116944D01*
X108844Y95950D02*X116944D01*
X108844Y100950D02*X116944D01*
X108844Y105950D02*X116944D01*
X124844Y95950D02*X132944D01*
X124844Y100950D02*X132944D01*
X124844Y105950D02*X132944D01*
G54D84*X215122Y157008D02*Y152110D01*
X213154Y157008D02*Y152110D01*
X211185Y157008D02*Y152110D01*
X209217Y157008D02*Y152110D01*
X207248Y157008D02*Y152110D01*
X205280Y157008D02*Y152110D01*
G54D80*G36*
X220716Y157722D02*Y155152D01*
X223284D01*
Y157722D01*
X220716D01*
G37*
G36*
Y153784D02*Y151216D01*
X223284D01*
Y153784D01*
X220716D01*
G37*
G54D84*X203311Y157008D02*Y152110D01*
X201343Y157008D02*Y152110D01*
X199374Y157008D02*Y152110D01*
X197406Y157008D02*Y152110D01*
X195437Y157008D02*Y152110D01*
X193469Y157008D02*Y152110D01*
X191500Y157008D02*Y152110D01*
G54D80*G36*
X191216Y166222D02*Y163652D01*
X193784D01*
Y166222D01*
X191216D01*
G37*
G36*
Y162284D02*Y159716D01*
X193784D01*
Y162284D01*
X191216D01*
G37*
G54D84*X189532Y157008D02*Y152110D01*
X187563Y157008D02*Y152110D01*
X185595Y157008D02*Y152110D01*
X183626Y157008D02*Y152110D01*
X181658Y157008D02*Y152110D01*
X179689Y157008D02*Y152110D01*
X177721Y157008D02*Y152110D01*
X175752Y157008D02*Y152110D01*
X173784Y157008D02*Y152110D01*
X171815Y157008D02*Y152110D01*
X169847Y157008D02*Y152110D01*
X167878Y157008D02*Y152110D01*
G54D86*X261500Y226250D02*Y219750D01*
X256500Y226250D02*Y219750D01*
Y205750D02*Y199250D01*
X261500Y205750D02*Y199250D01*
X266500Y205750D02*Y199250D01*
X271500Y205750D02*Y199250D01*
X276500Y205750D02*Y199250D01*
G54D80*G36*
X230216Y211284D02*Y208716D01*
X232784D01*
Y211284D01*
X230216D01*
G37*
G36*
Y207348D02*Y204778D01*
X232784D01*
Y207348D01*
X230216D01*
G37*
G54D86*X216000Y226000D02*Y219500D01*
G54D83*X204800Y266000D02*X206200D01*
X204800Y258000D02*X206200D01*
G54D86*X211000Y226000D02*Y219500D01*
X206000Y226000D02*Y219500D01*
X201000Y226000D02*Y219500D01*
X196000Y226000D02*Y219500D01*
X226000Y226000D02*Y219500D01*
X221000Y226000D02*Y219500D01*
X196000Y205500D02*Y199000D01*
X201000Y205500D02*Y199000D01*
X206000Y205500D02*Y199000D01*
X211000Y205500D02*Y199000D01*
X216000Y205500D02*Y199000D01*
X221000Y205500D02*Y199000D01*
X226000Y205500D02*Y199000D01*
M02*
