%TF.GenerationSoftware,KiCad,Pcbnew,6.0.5-a6ca702e91~116~ubuntu21.10.1*%
%TF.CreationDate,2023-01-26T06:13:44-07:00*%
%TF.ProjectId,PowerBook,506f7765-7242-46f6-9f6b-2e6b69636164,rev?*%
%TF.SameCoordinates,Original*%
%TF.FileFunction,Soldermask,Top*%
%TF.FilePolarity,Negative*%
%FSLAX46Y46*%
G04 Gerber Fmt 4.6, Leading zero omitted, Abs format (unit mm)*
G04 Created by KiCad (PCBNEW 6.0.5-a6ca702e91~116~ubuntu21.10.1) date 2023-01-26 06:13:44*
%MOMM*%
%LPD*%
G01*
G04 APERTURE LIST*
G04 Aperture macros list*
%AMRoundRect*
0 Rectangle with rounded corners*
0 $1 Rounding radius*
0 $2 $3 $4 $5 $6 $7 $8 $9 X,Y pos of 4 corners*
0 Add a 4 corners polygon primitive as box body*
4,1,4,$2,$3,$4,$5,$6,$7,$8,$9,$2,$3,0*
0 Add four circle primitives for the rounded corners*
1,1,$1+$1,$2,$3*
1,1,$1+$1,$4,$5*
1,1,$1+$1,$6,$7*
1,1,$1+$1,$8,$9*
0 Add four rect primitives between the rounded corners*
20,1,$1+$1,$2,$3,$4,$5,0*
20,1,$1+$1,$4,$5,$6,$7,0*
20,1,$1+$1,$6,$7,$8,$9,0*
20,1,$1+$1,$8,$9,$2,$3,0*%
%AMRotRect*
0 Rectangle, with rotation*
0 The origin of the aperture is its center*
0 $1 length*
0 $2 width*
0 $3 Rotation angle, in degrees counterclockwise*
0 Add horizontal line*
21,1,$1,$2,0,0,$3*%
G04 Aperture macros list end*
%ADD10RoundRect,0.250001X0.462499X0.624999X-0.462499X0.624999X-0.462499X-0.624999X0.462499X-0.624999X0*%
%ADD11R,1.500000X2.000000*%
%ADD12R,3.800000X2.000000*%
%ADD13RoundRect,0.412500X0.412500X0.412500X-0.412500X0.412500X-0.412500X-0.412500X0.412500X-0.412500X0*%
%ADD14C,1.650000*%
%ADD15RoundRect,0.250000X0.325000X0.450000X-0.325000X0.450000X-0.325000X-0.450000X0.325000X-0.450000X0*%
%ADD16RoundRect,0.250000X0.450000X-0.325000X0.450000X0.325000X-0.450000X0.325000X-0.450000X-0.325000X0*%
%ADD17RoundRect,0.250000X-0.325000X-0.450000X0.325000X-0.450000X0.325000X0.450000X-0.325000X0.450000X0*%
%ADD18R,1.800000X2.500000*%
%ADD19R,1.700000X1.700000*%
%ADD20O,1.700000X1.700000*%
%ADD21RoundRect,0.160000X0.026517X0.252791X-0.252791X-0.026517X-0.026517X-0.252791X0.252791X0.026517X0*%
%ADD22RoundRect,0.100000X-0.100000X0.637500X-0.100000X-0.637500X0.100000X-0.637500X0.100000X0.637500X0*%
%ADD23RoundRect,0.160000X0.197500X0.160000X-0.197500X0.160000X-0.197500X-0.160000X0.197500X-0.160000X0*%
%ADD24RoundRect,0.237500X-0.250000X-0.237500X0.250000X-0.237500X0.250000X0.237500X-0.250000X0.237500X0*%
%ADD25C,3.200000*%
%ADD26RoundRect,0.250000X0.475000X-0.337500X0.475000X0.337500X-0.475000X0.337500X-0.475000X-0.337500X0*%
%ADD27RoundRect,0.100000X-0.637500X-0.100000X0.637500X-0.100000X0.637500X0.100000X-0.637500X0.100000X0*%
%ADD28RoundRect,0.250000X0.097227X-0.574524X0.574524X-0.097227X-0.097227X0.574524X-0.574524X0.097227X0*%
%ADD29RoundRect,0.160000X0.160000X-0.197500X0.160000X0.197500X-0.160000X0.197500X-0.160000X-0.197500X0*%
%ADD30RoundRect,0.100000X0.380070X0.521491X-0.521491X-0.380070X-0.380070X-0.521491X0.521491X0.380070X0*%
%ADD31RoundRect,0.237500X-0.237500X0.287500X-0.237500X-0.287500X0.237500X-0.287500X0.237500X0.287500X0*%
%ADD32RoundRect,0.160000X-0.197500X-0.160000X0.197500X-0.160000X0.197500X0.160000X-0.197500X0.160000X0*%
%ADD33RoundRect,0.250000X-0.337500X-0.475000X0.337500X-0.475000X0.337500X0.475000X-0.337500X0.475000X0*%
%ADD34RoundRect,0.250000X0.337500X0.475000X-0.337500X0.475000X-0.337500X-0.475000X0.337500X-0.475000X0*%
%ADD35RoundRect,0.237500X0.250000X0.237500X-0.250000X0.237500X-0.250000X-0.237500X0.250000X-0.237500X0*%
%ADD36RoundRect,0.237500X-0.287500X-0.237500X0.287500X-0.237500X0.287500X0.237500X-0.287500X0.237500X0*%
%ADD37RotRect,2.500000X1.800000X135.000000*%
%ADD38RoundRect,0.237500X0.237500X-0.250000X0.237500X0.250000X-0.237500X0.250000X-0.237500X-0.250000X0*%
%ADD39RoundRect,0.125000X-0.415000X0.125000X-0.415000X-0.125000X0.415000X-0.125000X0.415000X0.125000X0*%
%ADD40RoundRect,0.262500X-0.337500X0.262500X-0.337500X-0.262500X0.337500X-0.262500X0.337500X0.262500X0*%
%ADD41R,1.000000X1.500000*%
%ADD42RoundRect,0.150000X-0.825000X-0.150000X0.825000X-0.150000X0.825000X0.150000X-0.825000X0.150000X0*%
%ADD43RoundRect,0.237500X-0.237500X0.250000X-0.237500X-0.250000X0.237500X-0.250000X0.237500X0.250000X0*%
%ADD44RoundRect,0.187500X0.187500X-0.312500X0.187500X0.312500X-0.187500X0.312500X-0.187500X-0.312500X0*%
%ADD45RoundRect,0.100000X0.637500X0.100000X-0.637500X0.100000X-0.637500X-0.100000X0.637500X-0.100000X0*%
%ADD46R,1.350000X1.350000*%
%ADD47O,1.350000X1.350000*%
G04 APERTURE END LIST*
D10*
%TO.C,C3*%
X116041500Y-93167200D03*
X113066500Y-93167200D03*
%TD*%
%TO.C,C4*%
X117870300Y-109118400D03*
X114895300Y-109118400D03*
%TD*%
D11*
%TO.C,U3*%
X120393220Y-98146920D03*
X118093220Y-98146920D03*
D12*
X118093220Y-104446920D03*
D11*
X115793220Y-98146920D03*
%TD*%
D13*
%TO.C,RP1*%
X169468800Y-124104400D03*
D14*
X169468800Y-121564400D03*
X169468800Y-119024400D03*
X169468800Y-116484400D03*
X169468800Y-113944400D03*
X169468800Y-111404400D03*
X169468800Y-108864400D03*
X169468800Y-106324400D03*
X169468800Y-103784400D03*
X169468800Y-101244400D03*
X169468800Y-98704400D03*
X169468800Y-96164400D03*
X169468800Y-93624400D03*
X169468800Y-91084400D03*
X169468800Y-88544400D03*
X169468800Y-86004400D03*
X169468800Y-83464400D03*
X169468800Y-80924400D03*
X169468800Y-78384400D03*
X169468800Y-75844400D03*
X151688800Y-75844400D03*
X151688800Y-78384400D03*
X151688800Y-80924400D03*
X151688800Y-83464400D03*
X151688800Y-86004400D03*
X151688800Y-88544400D03*
X151688800Y-91084400D03*
X151688800Y-93624400D03*
X151688800Y-96164400D03*
X151688800Y-98704400D03*
X151688800Y-101244400D03*
X151688800Y-103784400D03*
X151688800Y-106324400D03*
X151688800Y-108864400D03*
X151688800Y-111404400D03*
X151688800Y-113944400D03*
X151688800Y-116484400D03*
X151688800Y-119024400D03*
X151688800Y-121564400D03*
X151688800Y-124104400D03*
%TD*%
D15*
%TO.C,C2*%
X116078000Y-95554800D03*
X114028000Y-95554800D03*
%TD*%
D16*
%TO.C,C5*%
X123596400Y-99941600D03*
X123596400Y-97891600D03*
%TD*%
D17*
%TO.C,C6*%
X108347400Y-124663200D03*
X110397400Y-124663200D03*
%TD*%
D18*
%TO.C,D1*%
X111963200Y-77635600D03*
X111963200Y-81635600D03*
%TD*%
D19*
%TO.C,J1*%
X123494800Y-93268800D03*
D20*
X126034800Y-93268800D03*
X128574800Y-93268800D03*
%TD*%
D21*
%TO.C,R42*%
X166725600Y-117906800D03*
X165880608Y-118751792D03*
%TD*%
D22*
%TO.C,U2*%
X122345400Y-119971900D03*
X121695400Y-119971900D03*
X121045400Y-119971900D03*
X120395400Y-119971900D03*
X119745400Y-119971900D03*
X119095400Y-119971900D03*
X118445400Y-119971900D03*
X117795400Y-119971900D03*
X117145400Y-119971900D03*
X116495400Y-119971900D03*
X115845400Y-119971900D03*
X115195400Y-119971900D03*
X115195400Y-125696900D03*
X115845400Y-125696900D03*
X116495400Y-125696900D03*
X117145400Y-125696900D03*
X117795400Y-125696900D03*
X118445400Y-125696900D03*
X119095400Y-125696900D03*
X119745400Y-125696900D03*
X120395400Y-125696900D03*
X121045400Y-125696900D03*
X121695400Y-125696900D03*
X122345400Y-125696900D03*
%TD*%
D23*
%TO.C,R54*%
X135178800Y-120954800D03*
X133983800Y-120954800D03*
%TD*%
D24*
%TO.C,R39*%
X126595500Y-122580400D03*
X128420500Y-122580400D03*
%TD*%
D21*
%TO.C,R16*%
X166624000Y-110083600D03*
X165779008Y-110928592D03*
%TD*%
D24*
%TO.C,R4*%
X127052700Y-83820000D03*
X128877700Y-83820000D03*
%TD*%
D23*
%TO.C,R50*%
X147511100Y-122377200D03*
X146316100Y-122377200D03*
%TD*%
D24*
%TO.C,R33*%
X126495800Y-117652800D03*
X128320800Y-117652800D03*
%TD*%
%TO.C,R36*%
X126648200Y-127406400D03*
X128473200Y-127406400D03*
%TD*%
D25*
%TO.C,H1*%
X123190000Y-110032800D03*
%TD*%
D26*
%TO.C,C12*%
X165963600Y-84349500D03*
X165963600Y-82274500D03*
%TD*%
D27*
%TO.C,U1*%
X118549500Y-73641000D03*
X118549500Y-74291000D03*
X118549500Y-74941000D03*
X118549500Y-75591000D03*
X118549500Y-76241000D03*
X118549500Y-76891000D03*
X118549500Y-77541000D03*
X118549500Y-78191000D03*
X118549500Y-78841000D03*
X118549500Y-79491000D03*
X118549500Y-80141000D03*
X118549500Y-80791000D03*
X124274500Y-80791000D03*
X124274500Y-80141000D03*
X124274500Y-79491000D03*
X124274500Y-78841000D03*
X124274500Y-78191000D03*
X124274500Y-77541000D03*
X124274500Y-76891000D03*
X124274500Y-76241000D03*
X124274500Y-75591000D03*
X124274500Y-74941000D03*
X124274500Y-74291000D03*
X124274500Y-73641000D03*
%TD*%
D24*
%TO.C,R5*%
X127052700Y-82194400D03*
X128877700Y-82194400D03*
%TD*%
%TO.C,R35*%
X126445000Y-114401600D03*
X128270000Y-114401600D03*
%TD*%
%TO.C,R1*%
X126546600Y-119329200D03*
X128371600Y-119329200D03*
%TD*%
D28*
%TO.C,C8*%
X161216777Y-126514423D03*
X162684023Y-125047177D03*
%TD*%
D24*
%TO.C,R38*%
X126646300Y-124155200D03*
X128471300Y-124155200D03*
%TD*%
D21*
%TO.C,R17*%
X166351392Y-111931008D03*
X165506400Y-112776000D03*
%TD*%
D24*
%TO.C,R9*%
X127105400Y-78892400D03*
X128930400Y-78892400D03*
%TD*%
D21*
%TO.C,R13*%
X156581696Y-114029904D03*
X155736704Y-114874896D03*
%TD*%
D26*
%TO.C,C7*%
X163068000Y-83964600D03*
X163068000Y-81889600D03*
%TD*%
D24*
%TO.C,R40*%
X126493900Y-121056400D03*
X128318900Y-121056400D03*
%TD*%
D21*
%TO.C,R45*%
X162204400Y-115417600D03*
X161359408Y-116262592D03*
%TD*%
D29*
%TO.C,R57*%
X155549600Y-78563400D03*
X155549600Y-77368400D03*
%TD*%
D30*
%TO.C,U4*%
X163553580Y-121659394D03*
X163093961Y-121199775D03*
X162634342Y-120740155D03*
X162174722Y-120280536D03*
X161715103Y-119820917D03*
X161255483Y-119361297D03*
X160795864Y-118901678D03*
X160336245Y-118442058D03*
X159876625Y-117982439D03*
X159417006Y-117522820D03*
X155368820Y-121571006D03*
X155828439Y-122030625D03*
X156288058Y-122490245D03*
X156747678Y-122949864D03*
X157207297Y-123409483D03*
X157666917Y-123869103D03*
X158126536Y-124328722D03*
X158586155Y-124788342D03*
X159045775Y-125247961D03*
X159505394Y-125707580D03*
%TD*%
D21*
%TO.C,R18*%
X166319200Y-113944400D03*
X165474208Y-114789392D03*
%TD*%
D31*
%TO.C,D5*%
X109931200Y-96040000D03*
X109931200Y-97790000D03*
%TD*%
D32*
%TO.C,R47*%
X164541200Y-123494800D03*
X165736200Y-123494800D03*
%TD*%
D33*
%TO.C,C15*%
X139729300Y-115011200D03*
X141804300Y-115011200D03*
%TD*%
D34*
%TO.C,C14*%
X147900300Y-74472800D03*
X145825300Y-74472800D03*
%TD*%
D23*
%TO.C,R53*%
X135178800Y-122428000D03*
X133983800Y-122428000D03*
%TD*%
D18*
%TO.C,D2*%
X108305600Y-81603600D03*
X108305600Y-77603600D03*
%TD*%
D35*
%TO.C,R31*%
X138887200Y-108915200D03*
X137062200Y-108915200D03*
%TD*%
D25*
%TO.C,H4*%
X160070800Y-77470000D03*
%TD*%
D24*
%TO.C,R3*%
X127054600Y-85445600D03*
X128879600Y-85445600D03*
%TD*%
D21*
%TO.C,R15*%
X166573200Y-108356400D03*
X165728208Y-109201392D03*
%TD*%
D35*
%TO.C,R32*%
X138887200Y-107340400D03*
X137062200Y-107340400D03*
%TD*%
D36*
%TO.C,D4*%
X146292600Y-80518000D03*
X148042600Y-80518000D03*
%TD*%
D35*
%TO.C,R56*%
X113434500Y-97891600D03*
X111609500Y-97891600D03*
%TD*%
D25*
%TO.C,H5*%
X176326800Y-75539600D03*
%TD*%
D37*
%TO.C,D3*%
X107645200Y-121056400D03*
X104816772Y-118227972D03*
%TD*%
D24*
%TO.C,R7*%
X127103500Y-75590400D03*
X128928500Y-75590400D03*
%TD*%
D21*
%TO.C,R43*%
X164998400Y-116230400D03*
X164153408Y-117075392D03*
%TD*%
D23*
%TO.C,R30*%
X155830200Y-82296000D03*
X154635200Y-82296000D03*
%TD*%
%TO.C,R49*%
X145440400Y-126288800D03*
X144245400Y-126288800D03*
%TD*%
D24*
%TO.C,R8*%
X127105400Y-77266800D03*
X128930400Y-77266800D03*
%TD*%
%TO.C,R2*%
X126953000Y-87122000D03*
X128778000Y-87122000D03*
%TD*%
D38*
%TO.C,R27*%
X148590000Y-106066600D03*
X148590000Y-104241600D03*
%TD*%
D39*
%TO.C,SD2*%
X179936400Y-81189200D03*
X179936400Y-82289200D03*
X179936400Y-83389200D03*
X179936400Y-84139200D03*
X179936400Y-84839200D03*
X179936400Y-85589200D03*
X179936400Y-86689200D03*
X179936400Y-87789200D03*
X179936400Y-88889200D03*
D40*
X178296400Y-90264200D03*
X178296400Y-79814200D03*
X173846400Y-90264200D03*
X173846400Y-79814200D03*
%TD*%
D23*
%TO.C,R55*%
X135585200Y-118364000D03*
X134390200Y-118364000D03*
%TD*%
D21*
%TO.C,R12*%
X165303200Y-102870000D03*
X164458208Y-103714992D03*
%TD*%
D23*
%TO.C,R51*%
X147155500Y-121056400D03*
X145960500Y-121056400D03*
%TD*%
D41*
%TO.C,JP1*%
X156189200Y-73304400D03*
X154889200Y-73304400D03*
%TD*%
D21*
%TO.C,R19*%
X166928800Y-115773200D03*
X166083808Y-116618192D03*
%TD*%
D33*
%TO.C,C10*%
X164519700Y-126542800D03*
X166594700Y-126542800D03*
%TD*%
D35*
%TO.C,R24*%
X131214500Y-101752400D03*
X129389500Y-101752400D03*
%TD*%
D34*
%TO.C,C9*%
X144162600Y-95148400D03*
X142087600Y-95148400D03*
%TD*%
D42*
%TO.C,U8*%
X158256200Y-85699600D03*
X158256200Y-86969600D03*
X158256200Y-88239600D03*
X158256200Y-89509600D03*
X158256200Y-90779600D03*
X158256200Y-92049600D03*
X158256200Y-93319600D03*
X163206200Y-93319600D03*
X163206200Y-92049600D03*
X163206200Y-90779600D03*
X163206200Y-89509600D03*
X163206200Y-88239600D03*
X163206200Y-86969600D03*
X163206200Y-85699600D03*
%TD*%
D24*
%TO.C,R10*%
X127054600Y-80568800D03*
X128879600Y-80568800D03*
%TD*%
%TO.C,R34*%
X126443100Y-115976400D03*
X128268100Y-115976400D03*
%TD*%
D43*
%TO.C,R26*%
X147472400Y-108610400D03*
X147472400Y-110435400D03*
%TD*%
D38*
%TO.C,R41*%
X122834400Y-116533300D03*
X122834400Y-114708300D03*
%TD*%
D27*
%TO.C,U7*%
X136685100Y-89236000D03*
X136685100Y-89886000D03*
X136685100Y-90536000D03*
X136685100Y-91186000D03*
X136685100Y-91836000D03*
X136685100Y-92486000D03*
X136685100Y-93136000D03*
X142410100Y-93136000D03*
X142410100Y-92486000D03*
X142410100Y-91836000D03*
X142410100Y-91186000D03*
X142410100Y-90536000D03*
X142410100Y-89886000D03*
X142410100Y-89236000D03*
%TD*%
D24*
%TO.C,R37*%
X126646300Y-125780800D03*
X128471300Y-125780800D03*
%TD*%
D44*
%TO.C,SW1*%
X131153300Y-105458000D03*
X131153300Y-111458000D03*
X134903300Y-105458000D03*
X134903300Y-111458000D03*
%TD*%
D15*
%TO.C,F2*%
X114105800Y-74676000D03*
X112055800Y-74676000D03*
%TD*%
D25*
%TO.C,H3*%
X176428400Y-95046800D03*
%TD*%
D19*
%TO.C,J4*%
X144373600Y-108610400D03*
D20*
X141833600Y-108610400D03*
X144373600Y-106070400D03*
X141833600Y-106070400D03*
%TD*%
D24*
%TO.C,R23*%
X144678400Y-99009200D03*
X146503400Y-99009200D03*
%TD*%
%TO.C,R25*%
X145291800Y-113995200D03*
X147116800Y-113995200D03*
%TD*%
D27*
%TO.C,U5*%
X134500700Y-97160800D03*
X134500700Y-97810800D03*
X134500700Y-98460800D03*
X134500700Y-99110800D03*
X134500700Y-99760800D03*
X134500700Y-100410800D03*
X134500700Y-101060800D03*
X140225700Y-101060800D03*
X140225700Y-100410800D03*
X140225700Y-99760800D03*
X140225700Y-99110800D03*
X140225700Y-98460800D03*
X140225700Y-97810800D03*
X140225700Y-97160800D03*
%TD*%
D21*
%TO.C,R14*%
X166319200Y-106934000D03*
X165474208Y-107778992D03*
%TD*%
D45*
%TO.C,U9*%
X143984900Y-123676600D03*
X143984900Y-123026600D03*
X143984900Y-122376600D03*
X143984900Y-121726600D03*
X143984900Y-121076600D03*
X143984900Y-120426600D03*
X143984900Y-119776600D03*
X143984900Y-119126600D03*
X143984900Y-118476600D03*
X143984900Y-117826600D03*
X138259900Y-117826600D03*
X138259900Y-118476600D03*
X138259900Y-119126600D03*
X138259900Y-119776600D03*
X138259900Y-120426600D03*
X138259900Y-121076600D03*
X138259900Y-121726600D03*
X138259900Y-122376600D03*
X138259900Y-123026600D03*
X138259900Y-123676600D03*
%TD*%
D23*
%TO.C,R52*%
X147714300Y-118719600D03*
X146519300Y-118719600D03*
%TD*%
D27*
%TO.C,U6*%
X137650300Y-74250000D03*
X137650300Y-74900000D03*
X137650300Y-75550000D03*
X137650300Y-76200000D03*
X137650300Y-76850000D03*
X137650300Y-77500000D03*
X137650300Y-78150000D03*
X143375300Y-78150000D03*
X143375300Y-77500000D03*
X143375300Y-76850000D03*
X143375300Y-76200000D03*
X143375300Y-75550000D03*
X143375300Y-74900000D03*
X143375300Y-74250000D03*
%TD*%
D46*
%TO.C,J2*%
X103073200Y-112776800D03*
D47*
X105073200Y-112776800D03*
X103073200Y-110776800D03*
X105073200Y-110776800D03*
X103073200Y-108776800D03*
X105073200Y-108776800D03*
X103073200Y-106776800D03*
X105073200Y-106776800D03*
X103073200Y-104776800D03*
X105073200Y-104776800D03*
X103073200Y-102776800D03*
X105073200Y-102776800D03*
X103073200Y-100776800D03*
X105073200Y-100776800D03*
X103073200Y-98776800D03*
X105073200Y-98776800D03*
X105073200Y-96776800D03*
X103073200Y-94776800D03*
X105073200Y-94776800D03*
X103073200Y-92776800D03*
X105073200Y-92776800D03*
X103073200Y-90776800D03*
X105073200Y-90776800D03*
X103073200Y-88776800D03*
X105073200Y-88776800D03*
X103073200Y-86776800D03*
X105073200Y-86776800D03*
X103073200Y-84776800D03*
X105073200Y-84776800D03*
X103073200Y-82776800D03*
X105073200Y-82776800D03*
X103073200Y-80776800D03*
X105073200Y-80776800D03*
X103073200Y-78776800D03*
X105073200Y-78776800D03*
X103073200Y-76776800D03*
X105073200Y-76776800D03*
X103073200Y-74776800D03*
X105073200Y-74776800D03*
X103073200Y-96776800D03*
%TD*%
D24*
%TO.C,R6*%
X127103500Y-73914000D03*
X128928500Y-73914000D03*
%TD*%
D34*
%TO.C,C11*%
X138197500Y-125323600D03*
X136122500Y-125323600D03*
%TD*%
D21*
%TO.C,R11*%
X164744400Y-118465600D03*
X163899408Y-119310592D03*
%TD*%
D34*
%TO.C,C13*%
X146405600Y-87985600D03*
X144330600Y-87985600D03*
%TD*%
D24*
%TO.C,R29*%
X140514700Y-81381600D03*
X142339700Y-81381600D03*
%TD*%
D21*
%TO.C,R44*%
X163220400Y-116484400D03*
X162375408Y-117329392D03*
%TD*%
D32*
%TO.C,R46*%
X164553300Y-124561600D03*
X165748300Y-124561600D03*
%TD*%
D35*
%TO.C,R28*%
X141730100Y-84175600D03*
X139905100Y-84175600D03*
%TD*%
D32*
%TO.C,R48*%
X164514600Y-122377200D03*
X165709600Y-122377200D03*
%TD*%
M02*
