M48
; DRILL file {KiCad 8.0.2} date 2024-12-18T21:07:28-0600
; FORMAT={-:-/ absolute / inch / decimal}
; #@! TF.CreationDate,2024-12-18T21:07:28-06:00
; #@! TF.GenerationSoftware,Kicad,Pcbnew,8.0.2
; #@! TF.FileFunction,Plated,1,4,PTH
FMAT,2
INCH
; #@! TA.AperFunction,Plated,PTH,ViaDrill
T1C0.0059
; #@! TA.AperFunction,Plated,PTH,ViaDrill
T2C0.0079
; #@! TA.AperFunction,Plated,PTH,ViaDrill
T3C0.0118
; #@! TA.AperFunction,Plated,PTH,ComponentDrill
T4C0.0236
%
G90
G05
T1
X1.439Y0.1941
X1.4394Y0.1717
X1.4435Y0.1526
X1.4587Y0.2047
X1.5059Y0.1732
X1.5089Y0.2244
X1.6177Y0.1311
X1.628Y0.0575
X1.7295Y0.1299
X1.7319Y0.0756
X1.7417Y0.2295
X1.7642Y0.2154
X1.785Y0.2004
X1.7929Y0.176
X1.8138Y0.161
X1.8654Y0.1406
X1.8669Y-0.0075
X1.8921Y-0.0693
T2
X0.1807Y0.3406
X0.2043Y-0.4929
X0.2083Y0.635
X0.215Y0.5669
X0.215Y0.4992
X0.2287Y0.1094
X0.2394Y-0.3878
X0.2398Y0.6028
X0.2398Y0.5323
X0.2398Y0.4606
X0.2398Y0.3902
X0.2402Y0.2551
X0.2402Y0.1768
X0.2402Y0.0374
X0.2402Y-0.528
X0.2406Y0.3209
X0.2406Y-0.0303
X0.2406Y-0.3177
X0.2409Y-0.4583
X0.2425Y-0.1752
X0.2425Y-0.2461
X0.2431Y-0.1055
X0.2431Y-0.6
X0.3177Y-0.5972
X0.3303Y0.1984
X0.3882Y0.6226
X0.3882Y-0.0972
X0.3898Y0.0878
X0.4024Y0.2335
X0.4091Y-0.4248
X0.4091Y-0.4512
X0.4197Y-0.0744
X0.4236Y0.0819
X0.4299Y-0.2071
X0.4386Y-0.5461
X0.461Y0.4315
X0.4614Y0.2063
X0.4933Y0.2035
X0.4961Y0.4516
X0.4984Y0.3685
X0.5047Y0.6161
X0.5083Y-0.5346
X0.5098Y-0.1287
X0.521Y-0.2328
X0.5244Y-0.2055
X0.5254Y-0.0865
X0.5362Y-0.6185
X0.537Y0.5898
X0.5394Y0.0004
X0.5425Y0.2213
X0.5795Y0.4819
X0.5862Y-0.4705
X0.6134Y-0.5378
X0.6138Y0.1945
X0.6319Y-0.6075
X0.7264Y-0.2425
X0.7268Y0.2479
X0.7315Y0.398
X0.7326Y0.166
X0.7327Y0.448
X0.7331Y-0.5366
X0.7343Y0.4732
X0.7343Y-0.1693
X0.735Y0.4256
X0.7354Y0.0461
X0.7354Y-0.4409
X0.739Y0.1908
X0.739Y-0.1272
X0.7485Y0.2701
X0.75Y-0.3846
X0.7524Y0.2125
X0.7571Y-0.2024
X0.7689Y0.1248
X0.7783Y0.511
X0.7799Y0.0945
X0.7799Y-0.4937
X0.7846Y-0.6055
X0.7865Y0.5617
X0.7874Y-0.3169
X0.7913Y0.2543
X0.7951Y-0.048
X0.7984Y-0.5098
X0.813Y0.3685
X0.8138Y0.1283
X0.8142Y0.4224
X0.8143Y0.023
X0.8276Y0.5224
X0.8354Y0.3283
X0.8446Y0.0233
X0.8461Y0.211
X0.8572Y0.048
X0.8622Y-0.1472
X0.8654Y0.463
X0.8656Y-0.5104
X0.8681Y0.5059
X0.8692Y0.1724
X0.8717Y0.4402
X0.873Y0.2681
X0.873Y0.0255
X0.8756Y0.398
X0.8776Y0.5894
X0.9122Y0.3047
X0.9136Y0.0751
X0.9323Y-0.5882
X0.9362Y0.087
X0.9401Y0.0644
X0.9472Y0.3235
X0.9531Y0.4193
X0.9572Y0.1104
X0.9586Y0.5047
X0.9622Y0.635
X0.974Y0.1906
X0.9809Y0.2819
X0.9907Y0.3335
X0.9925Y0.6055
X0.9932Y-0.4724
X0.9936Y0.4305
X0.9939Y-0.3943
X0.994Y-0.1389
X0.9952Y-0.4361
X0.9965Y0.4531
X0.9965Y-0.2398
X0.997Y-0.1056
X0.9972Y0.5323
X0.9972Y0.2354
X0.9976Y-0.0706
X0.9976Y-0.0453
X0.9988Y0.1957
X1.0161Y-0.2902
X1.0309Y-0.1943
X1.0389Y-0.4142
X1.0406Y-0.3843
X1.0429Y0.3075
X1.0458Y-0.0655
X1.0518Y0.4254
X1.0528Y-0.513
X1.0571Y0.6056
X1.0593Y0.3291
X1.0677Y-0.0858
X1.0717Y0.3067
X1.0717Y0.0004
X1.0795Y-0.4492
X1.0827Y0.4634
X1.0844Y0.1046
X1.0931Y0.1833
X1.0961Y0.065
X1.0993Y0.3475
X1.1152Y0.4948
X1.1335Y0.4768
X1.1432Y0.0035
X1.1441Y-0.3559
X1.1453Y-0.5488
X1.1496Y0.1961
X1.15Y-0.6197
X1.1606Y-0.0307
X1.1654Y0.6056
X1.1669Y0.5327
X1.1681Y0.074
X1.1681Y-0.1973
X1.1693Y0.0446
X1.1702Y0.1522
X1.1713Y0.1272
X1.1717Y0.3728
X1.1724Y0.4992
X1.174Y0.1961
X1.1744Y-0.5953
X1.1752Y-0.3996
X1.1756Y-0.2906
X1.1803Y-0.422
X1.1804Y0.2722
X1.1805Y-0.3295
X1.1844Y-0.4913
X1.185Y-0.5146
X1.1941Y0.2294
X1.1972Y0.5992
X1.1988Y0.3102
X1.2104Y-0.0917
X1.2122Y0.2714
X1.2135Y-0.2021
X1.2143Y0.4232
X1.2163Y-0.0383
X1.2167Y0.5674
X1.217Y-0.0132
X1.2199Y0.3774
X1.221Y-0.2265
X1.2236Y-0.296
X1.228Y0.3
X1.2316Y0.256
X1.2404Y0.1126
X1.2405Y0.0863
X1.2414Y0.0506
X1.2416Y0.2033
X1.2421Y0.1381
X1.2434Y0.1604
X1.245Y0.1819
X1.2525Y-0.0969
X1.2537Y0.5666
X1.2566Y0.0352
X1.2572Y0.0096
X1.2581Y-0.2043
X1.2598Y-0.5681
X1.2602Y-0.5276
X1.2677Y0.3472
X1.2718Y0.424
X1.278Y0.2819
X1.279Y0.3994
X1.2812Y-0.2898
X1.285Y0.5368
X1.2906Y0.2305
X1.3007Y0.4259
X1.3054Y0.4967
X1.3068Y-0.2882
X1.3172Y-0.5306
X1.3232Y0.2783
X1.3239Y0.0157
X1.3247Y0.4799
X1.3262Y-0.0504
X1.3316Y0.5398
X1.3358Y-0.2902
X1.3402Y0.4346
X1.342Y0.1949
X1.3449Y-0.4443
X1.3539Y-0.6043
X1.3601Y0.3319
X1.3641Y-0.4611
X1.3665Y0.2877
X1.374Y0.5193
X1.3756Y0.2115
X1.3837Y0.3513
X1.3867Y0.2799
X1.3893Y0.4541
X1.3906Y0.3028
X1.3968Y0.5744
X1.404Y-0.0763
X1.4047Y-0.2803
X1.4105Y0.2891
X1.4126Y-0.1455
X1.4146Y-0.4307
X1.4185Y-0.1217
X1.4219Y-0.385
X1.4287Y0.2225
X1.4287Y-0.0492
X1.4329Y0.4412
X1.4355Y0.2948
X1.4358Y-0.1911
X1.4388Y0.1325
X1.4388Y0.0772
X1.4427Y0.0417
X1.4436Y0.0165
X1.4451Y-0.1614
X1.4488Y-0.5283
X1.45Y0.2276
X1.4514Y-0.0409
X1.4521Y0.1154
X1.4565Y-0.2294
X1.4571Y0.5949
X1.463Y0.3433
X1.4646Y0.4402
X1.4752Y-0.1563
X1.4827Y-0.0161
X1.4828Y0.5005
X1.4952Y0.2424
X1.5063Y-0.3685
X1.5075Y0.263
X1.5146Y-0.0917
X1.5182Y0.2892
X1.5224Y0.337
X1.5244Y0.0449
X1.5268Y-0.0386
X1.5366Y0.4358
X1.5402Y-0.1104
X1.5461Y-0.2524
X1.563Y-0.0089
X1.5657Y0.5929
X1.5689Y0.1087
X1.5701Y0.4949
X1.5724Y0.6173
X1.5894Y0.5543
X1.5917Y-0.1795
X1.602Y-0.0898
X1.605Y0.0583
X1.6173Y-0.0311
X1.6196Y0.1022
X1.6283Y-0.1217
X1.6335Y-0.2626
X1.6411Y0.5
X1.6508Y-0.3181
X1.6602Y-0.0929
X1.6713Y-0.4276
X1.6913Y0.6114
X1.6937Y0.5638
X1.6984Y0.5079
X1.7028Y0.4579
X1.7059Y-0.3555
X1.7362Y-0.185
X1.7511Y0.4291
X1.7512Y-0.2622
X1.7626Y0.3039
X1.7823Y-0.0874
X1.7928Y0.5876
X1.8291Y-0.3366
X1.8395Y0.6244
X1.852Y-0.5224
X1.8559Y-0.4248
X1.8571Y-0.3799
X1.8602Y-0.3122
X1.8634Y-0.2496
X1.8642Y-0.2839
X1.8776Y-0.5354
X1.9343Y0.5354
T3
X0.1732Y0.5984
X0.1732Y0.1614
X0.1732Y0.0
X0.1732Y-0.0354
X0.1732Y-0.1732
X0.1732Y-0.2087
X0.1732Y-0.252
X0.1772Y0.252
X0.1772Y0.0394
X0.1811Y0.4685
X0.4638Y0.0874
T4
G00X1.6594Y0.3835
M15
G01X1.7028Y0.3835
M16
G05
G00X1.6594Y0.0433
M15
G01X1.7028Y0.0433
M16
G05
G00X1.8307Y0.3835
M15
G01X1.8622Y0.3835
M16
G05
G00X1.8307Y0.0433
M15
G01X1.8622Y0.0433
M16
G05
M30
