%TF.GenerationSoftware,KiCad,Pcbnew,8.0.2*%
%TF.CreationDate,2024-12-18T21:07:28-06:00*%
%TF.ProjectId,Usb_Bridge,5573625f-4272-4696-9467-652e6b696361,rev?*%
%TF.SameCoordinates,Original*%
%TF.FileFunction,Copper,L2,Inr*%
%TF.FilePolarity,Positive*%
%FSLAX46Y46*%
G04 Gerber Fmt 4.6, Leading zero omitted, Abs format (unit mm)*
G04 Created by KiCad (PCBNEW 8.0.2) date 2024-12-18 21:07:28*
%MOMM*%
%LPD*%
G01*
G04 APERTURE LIST*
%TA.AperFunction,ComponentPad*%
%ADD10O,2.100000X1.000000*%
%TD*%
%TA.AperFunction,ComponentPad*%
%ADD11O,1.800000X1.000000*%
%TD*%
%TA.AperFunction,ViaPad*%
%ADD12C,0.400000*%
%TD*%
%TA.AperFunction,ViaPad*%
%ADD13C,0.500000*%
%TD*%
%TA.AperFunction,ViaPad*%
%ADD14C,0.250000*%
%TD*%
%TA.AperFunction,Conductor*%
%ADD15C,0.200000*%
%TD*%
G04 APERTURE END LIST*
D10*
%TO.N,GND*%
%TO.C,J12*%
X42700000Y1100000D03*
D11*
X46900000Y1100000D03*
D10*
X42700000Y9740000D03*
D11*
X46900000Y9740000D03*
%TD*%
D12*
%TO.N,GND*%
X41490000Y-6670000D03*
X46460000Y-8550000D03*
X43330000Y-9030000D03*
X44480000Y-6660000D03*
X35930000Y-10940000D03*
%TO.N,SCL*%
X41930000Y-8080000D03*
X42450000Y-10860000D03*
%TO.N,GND*%
X25210000Y15380000D03*
X29200000Y4980000D03*
D13*
X4400000Y0D03*
D12*
X46722669Y15859104D03*
D13*
X4400000Y-5300000D03*
D12*
X23878407Y1636978D03*
X5190000Y-12520000D03*
X9900000Y2230000D03*
D13*
X4400000Y4100000D03*
D12*
X31550586Y3508285D03*
X13320000Y-5220000D03*
X10920000Y-5260000D03*
X35320000Y7690000D03*
X36545000Y1960000D03*
X19930000Y-15380000D03*
X45270000Y-2220000D03*
X42960000Y15530000D03*
X30410000Y15220000D03*
X32200000Y8820000D03*
X39270000Y-6410000D03*
X24060000Y8216844D03*
X35680000Y-7120000D03*
X15580000Y-13660000D03*
X26185986Y-4935282D03*
X13640000Y14980000D03*
X26740000Y-13030000D03*
X49130000Y13600000D03*
X4588561Y8651827D03*
X14720000Y12240000D03*
X13346172Y-2196399D03*
X26905998Y8359128D03*
X36545000Y3364772D03*
X11720000Y5240000D03*
X29830000Y-15120000D03*
X27840002Y1650000D03*
X43020000Y14320000D03*
X30986581Y9586563D03*
X21220000Y8340000D03*
D13*
X11779265Y2220735D03*
D12*
X18680000Y1170000D03*
X24440000Y16130000D03*
X5290000Y16130000D03*
X37660000Y-410000D03*
D13*
X4400000Y15200000D03*
D12*
X11710000Y10960000D03*
X15590000Y4940000D03*
X9860000Y-2470000D03*
X21772969Y1218175D03*
X39850000Y2761393D03*
X30824049Y-5132671D03*
%TO.N,+2V8*%
X23170000Y7740000D03*
X13234175Y-5911993D03*
X19530000Y3170000D03*
X14890000Y-11950000D03*
X13700000Y10000D03*
X10660000Y-1890000D03*
X29760000Y9470000D03*
X11140000Y-13870000D03*
X13780000Y5620000D03*
X32639651Y13633804D03*
X18620000Y-13630000D03*
X12820000Y15650000D03*
X8388409Y5040000D03*
X18450000Y-6160000D03*
X10760000Y2079998D03*
X25164986Y8471637D03*
X12910000Y-13580000D03*
X12950000Y-3270000D03*
X22290000Y14970000D03*
X12600000Y11470000D03*
X10390000Y-11460000D03*
X23780748Y2210495D03*
%TO.N,+5V*%
X31190000Y7620000D03*
X38670000Y8560000D03*
X34390000Y-15350000D03*
X38260000Y-9360000D03*
X29210000Y-15740000D03*
X39880000Y12570000D03*
X26387703Y-10519999D03*
X38562067Y7346815D03*
X29060000Y-9040000D03*
%TO.N,iATN*%
X37010000Y15110000D03*
X30904979Y14413116D03*
%TO.N,oIO*%
X21020000Y13270000D03*
X33627125Y400000D03*
X34040000Y11040000D03*
X25330000Y13520000D03*
X25310000Y11510000D03*
%TO.N,oREQ*%
X22140000Y11180000D03*
X21453111Y592525D03*
X20680000Y10730000D03*
X31932467Y243152D03*
%TO.N,oSEL*%
X30893794Y-973837D03*
X20100000Y6460000D03*
X20683909Y583909D03*
X29780000Y12680000D03*
X24913913Y7160000D03*
X18461207Y6296410D03*
X24347643Y12820390D03*
%TO.N,oBSY*%
X44479187Y10900000D03*
X39770000Y15060000D03*
X26850000Y15382500D03*
X43250000Y11630000D03*
X37199948Y11179948D03*
X32487499Y10145239D03*
X24210000Y10650000D03*
X19810000Y2400000D03*
X36666860Y418842D03*
X43140000Y12900000D03*
X35479883Y14590000D03*
X23206143Y1906633D03*
X29600000Y15382500D03*
%TO.N,SD_CLK*%
X47140000Y-10790000D03*
X27420000Y-11410000D03*
X30790913Y6894519D03*
%TO.N,oCD_iSEL*%
X30911413Y-335412D03*
X31623084Y4621464D03*
X21490018Y5360000D03*
D13*
%TO.N,ATN*%
X4500000Y6400000D03*
D12*
X36395698Y11206381D03*
X6100000Y6480000D03*
%TO.N,BSY*%
X5810000Y2780000D03*
X26490000Y7810000D03*
%TO.N,DBP*%
X20195313Y-1218106D03*
X6110000Y-770000D03*
D13*
X4400000Y-900000D03*
D12*
%TO.N,ACK*%
X28327331Y12568305D03*
X20650000Y9360000D03*
X12530000Y5170000D03*
X12660000Y9360000D03*
X20670000Y3260000D03*
X6100000Y4490000D03*
%TO.N,RST*%
X6110000Y8150000D03*
X35146901Y8922131D03*
%TO.N,MSG*%
X6090000Y13520000D03*
X33821788Y13710753D03*
%TO.N,SEL*%
X19011207Y6860000D03*
D13*
X4500000Y1000000D03*
D12*
X22175000Y6810000D03*
X19110000Y5396410D03*
X6100000Y950000D03*
%TO.N,CD*%
X19770000Y12980000D03*
X18608611Y4216719D03*
D13*
X4599994Y11900000D03*
D12*
X22078325Y4380000D03*
X6090000Y11700000D03*
%TO.N,REQ*%
X22049890Y12850000D03*
X6090000Y15310000D03*
X18650000Y12020000D03*
X19977953Y14267432D03*
%TO.N,IO*%
X18580000Y10110000D03*
X6090000Y9910000D03*
X22240000Y10110000D03*
%TO.N,DB7*%
X6175000Y-15240000D03*
X20280000Y-12950000D03*
%TO.N,DB6*%
X19810000Y-12540000D03*
X6100000Y-13410000D03*
%TO.N,DB5*%
X18680000Y-11200000D03*
X6120000Y-11640000D03*
%TO.N,DB4*%
X6080000Y-9850000D03*
X19050000Y-9770000D03*
%TO.N,DB3*%
X20000000Y-8050000D03*
X6110000Y-8070000D03*
%TO.N,DB2*%
X19230000Y-5140000D03*
D13*
X4400000Y-6400000D03*
D12*
X6160000Y-6250000D03*
%TO.N,DB1*%
X18650000Y-4300000D03*
X6160000Y-4450000D03*
D13*
X4400000Y-4400000D03*
D12*
%TO.N,DB0*%
X18770000Y-3230000D03*
X6175000Y-2680000D03*
%TO.N,+3V3*%
X42170000Y-2360000D03*
X36883933Y2931612D03*
X36830000Y5780000D03*
X33457308Y-13478472D03*
X27221510Y10000D03*
X31813157Y-2460013D03*
X36116091Y-9780000D03*
X30448575Y7880000D03*
X36866067Y-1039979D03*
X32000000Y-14430000D03*
X39700000Y-225422D03*
X27220000Y7790000D03*
X41080000Y-790000D03*
X34546414Y8429152D03*
X47170000Y-9650000D03*
X31507200Y2859732D03*
X37160000Y8720000D03*
D14*
X47420000Y-190000D03*
X48060000Y-1760000D03*
D12*
X27120000Y-2180000D03*
%TO.N,Net-(D3-A)*%
X29090000Y-13940000D03*
%TO.N,oMSG_iBSY*%
X33037499Y10817499D03*
X31917021Y892971D03*
%TO.N,SD_CMD_MOSI*%
X31282726Y6501973D03*
X29850000Y-10150000D03*
X47250000Y-7930000D03*
%TO.N,SD_D0_MISO*%
X30331216Y5825784D03*
X30084127Y-12478474D03*
X47040000Y-13270000D03*
%TO.N,DBPTr*%
X32010000Y-13400000D03*
X32460000Y7160000D03*
X21985000Y-12965000D03*
%TO.N,SD_D1*%
X31537878Y5164825D03*
X30100000Y-13070000D03*
X29981866Y6913013D03*
X47690000Y-13600000D03*
%TO.N,SD_D2*%
X47330000Y-6340000D03*
X29820710Y4980710D03*
X29670000Y-5012582D03*
%TO.N,SD_D3_CS*%
X31582757Y4072942D03*
X31014478Y-5754153D03*
X47350000Y-7210000D03*
%TO.N,iRST*%
X35289490Y11534771D03*
X33646798Y12189305D03*
%TO.N,/Pico/ADC_AVDD*%
X38470000Y-2330000D03*
X36030000Y-3090000D03*
%TO.N,iACK*%
X27500000Y11770000D03*
X32302932Y10768487D03*
%TO.N,+1V1*%
X38289998Y6680000D03*
X31507844Y2190983D03*
X40765945Y1481637D03*
%TO.N,SCL*%
X29480000Y-780000D03*
X29860000Y-7380000D03*
%TO.N,TRM_ON_J*%
X5460449Y12678824D03*
X10220000Y5930000D03*
X9860000Y15815000D03*
X10390000Y-10790000D03*
X5460449Y14400000D03*
X8070000Y-15170000D03*
%TO.N,iBSY*%
X25236601Y10934419D03*
X30844128Y10748110D03*
%TO.N,iCD*%
X24740000Y4840000D03*
X18769832Y4846410D03*
%TO.N,iMSG*%
X34900000Y13190000D03*
X29640000Y13530000D03*
%TO.N,iIO*%
X21980000Y11760000D03*
X18670000Y10810000D03*
%TO.N,oACK*%
X27922100Y8825505D03*
X33685858Y-1280000D03*
X26563686Y-1663818D03*
%TO.N,SDA*%
X29037984Y90000D03*
X29980000Y-10720000D03*
%TO.N,VBUS*%
X44100000Y-4700000D03*
X31954747Y-5190000D03*
X36996364Y-5826631D03*
X41138083Y2594794D03*
X37470000Y-3970002D03*
X40690000Y-2280000D03*
X44770000Y7720000D03*
%TO.N,!oBSY*%
X28789665Y12111412D03*
X33156163Y12615662D03*
X41683429Y12700000D03*
X18610000Y11380000D03*
%TO.N,ACKDr*%
X24313725Y2805120D03*
X26716091Y10806091D03*
%TO.N,/Pico/XIN*%
X29723522Y3864781D03*
X27545000Y2655618D03*
D14*
%TO.N,/Pico/USB_D-*%
X41350000Y1460000D03*
X43990000Y1920000D03*
%TO.N,/Pico/USB_D+*%
X41090000Y3330000D03*
X43930000Y3300000D03*
D12*
%TO.N,/Pico/SWDIO*%
X22175271Y648183D03*
X21900000Y-3740000D03*
X31531210Y1284954D03*
%TO.N,/Pico/SWCLK*%
X29670000Y1880000D03*
%TO.N,/Pico/RUN*%
X29699498Y1131680D03*
X39030000Y11069653D03*
X38720000Y1140000D03*
X38780000Y-980000D03*
%TO.N,/Pico/XOUT*%
X29750000Y3230000D03*
X27764670Y4655375D03*
%TO.N,/Pico/GPIO24*%
X36645004Y1060000D03*
X30743457Y-2329396D03*
D14*
%TO.N,/Pico/QSPI_SS*%
X38325000Y5700000D03*
X44240000Y5830000D03*
D12*
%TO.N,/Pico/GPIO08*%
X32781634Y5853644D03*
X32543352Y-7359998D03*
X29985549Y-8370000D03*
%TO.N,/Pico/GPIO07*%
X26430000Y-9760000D03*
X33191518Y-7321182D03*
X33608728Y7070000D03*
%TO.N,/Pico/GPIO06*%
X34086886Y4950001D03*
X25245385Y-10014077D03*
X33930000Y-7370000D03*
%TO.N,/Pico/GPIO05*%
X34160998Y-11284816D03*
X34708728Y7307215D03*
X25279345Y-11077431D03*
%TO.N,/Pico/GPIO28*%
X37663840Y12712850D03*
X39120000Y-2803360D03*
X31842761Y14392550D03*
%TO.N,/Pico/GPIO04*%
X34940000Y5373149D03*
X25227649Y-11998432D03*
X34648924Y-11711106D03*
%TO.N,/Pico/GPIO03*%
X35661801Y-1938199D03*
X25340000Y-1150000D03*
X35221565Y7108470D03*
%TO.N,/Pico/GPIO02*%
X36290000Y5652022D03*
X25339892Y-1793029D03*
X36290000Y-1250000D03*
%TO.N,/Pico/GPIO01*%
X35879857Y-3695508D03*
X35827692Y7343234D03*
X25322637Y-2681205D03*
%TO.N,/Pico/GPIO00*%
X36461442Y7487679D03*
X25247288Y-3529121D03*
X36704377Y-4099228D03*
X37977617Y6158206D03*
D14*
%TO.N,/Pico/QSPI_SCLK*%
X36560000Y4360000D03*
X46070000Y4090000D03*
%TO.N,/Pico/QSPI_SD0*%
X38250785Y4400011D03*
X45540000Y4470000D03*
%TO.N,/Pico/QSPI_SD1*%
X37050000Y5200000D03*
X44810000Y5470000D03*
D12*
%TO.N,Net-(R24-Pad1)*%
X45537499Y14925596D03*
X39940000Y15680000D03*
D14*
%TO.N,/Pico/QSPI_SD2*%
X36550000Y4930000D03*
X45340000Y5090000D03*
D12*
%TO.N,Net-(J13-Pin_1)*%
X25370000Y4970000D03*
%TO.N,Net-(J13-Pin_3)*%
X25330000Y5980000D03*
D14*
%TO.N,/Pico/QSPI_SD3*%
X47380000Y3570000D03*
X36665000Y3875876D03*
D12*
%TO.N,Net-(R58-Pad2)*%
X41360000Y-3090000D03*
%TO.N,Net-(D8-K)*%
X31080000Y-7517158D03*
%TO.N,Net-(D9-K)*%
X25310000Y-6090000D03*
%TO.N,EXT_TERM_PWR*%
X23680000Y-14940000D03*
X13620577Y-15709248D03*
%TO.N,Net-(D9-A)*%
X25810000Y-7370000D03*
X16050000Y-15430000D03*
%TO.N,Net-(JP7-A)*%
X40430000Y-4560000D03*
X36469778Y-4852987D03*
X36800000Y-13420000D03*
%TO.N,Net-(R27-Pad2)*%
X40370000Y14080000D03*
%TD*%
D15*
%TO.N,+5V*%
X38260000Y-3157818D02*
X38260000Y-9360000D01*
X38562067Y7346815D02*
X38840000Y7068882D01*
X38140000Y3234975D02*
X38140000Y-1982182D01*
X38840000Y3934975D02*
X38140000Y3234975D01*
X37840000Y-2737818D02*
X38260000Y-3157818D01*
X37840000Y-2282182D02*
X37840000Y-2737818D01*
X38840000Y7068882D02*
X38840000Y3934975D01*
X38140000Y-1982182D02*
X37840000Y-2282182D01*
%TO.N,+2V8*%
X29760000Y9680000D02*
X29760000Y10690000D01*
X30172593Y13633804D02*
X28986397Y14820000D01*
X25164986Y8471637D02*
X24433349Y7740000D01*
X26690000Y11610000D02*
X25164986Y10084986D01*
X32639651Y13633804D02*
X30172593Y13633804D01*
X29760000Y9470000D02*
X29760000Y9680000D01*
X28620000Y9680000D02*
X26690000Y11610000D01*
X22630000Y-6190000D02*
X18480000Y-6190000D01*
X24980000Y1630000D02*
X22630000Y-720000D01*
X29760000Y9680000D02*
X28620000Y9680000D01*
X25164986Y10084986D02*
X25164986Y8471637D01*
X18480000Y-6190000D02*
X18450000Y-6160000D01*
X32639651Y13569651D02*
X32639651Y13633804D01*
X23780748Y2210495D02*
X24399505Y2210495D01*
X24433349Y7740000D02*
X23170000Y7740000D01*
X22630000Y-720000D02*
X22630000Y-6190000D01*
X22440000Y14820000D02*
X22290000Y14970000D01*
X28986397Y14820000D02*
X22440000Y14820000D01*
X29760000Y10690000D02*
X32639651Y13569651D01*
X24399505Y2210495D02*
X24980000Y1630000D01*
%TO.N,+5V*%
X33970000Y-15770000D02*
X34390000Y-15350000D01*
X29240000Y-15770000D02*
X33970000Y-15770000D01*
X29210000Y-15740000D02*
X29240000Y-15770000D01*
%TO.N,oIO*%
X34158728Y6842182D02*
X34158728Y7453619D01*
X34040000Y7572347D02*
X34040000Y11040000D01*
X34158728Y7453619D02*
X34040000Y7572347D01*
X33627125Y400000D02*
X33636886Y409761D01*
X33636886Y6320340D02*
X34158728Y6842182D01*
X33636886Y409761D02*
X33636886Y6320340D01*
%TO.N,oREQ*%
X20670000Y8567818D02*
X20670000Y5375874D01*
X21270874Y9168692D02*
X20670000Y8567818D01*
X20670000Y5375874D02*
X21270874Y4775000D01*
X21270874Y4775000D02*
X21270874Y774762D01*
X21270874Y774762D02*
X21453111Y592525D01*
X21270874Y10139126D02*
X21270874Y9168692D01*
X20680000Y10730000D02*
X21270874Y10139126D01*
%TO.N,oBSY*%
X37199948Y11179948D02*
X35479883Y12900013D01*
X37350000Y4838248D02*
X37350000Y1101982D01*
X37350000Y1101982D02*
X36666860Y418842D01*
X35479883Y12900013D02*
X35479883Y14590000D01*
X37500000Y7088980D02*
X37500000Y4988248D01*
X37661375Y7250355D02*
X37500000Y7088980D01*
X37661375Y10718521D02*
X37661375Y7250355D01*
X37199948Y11179948D02*
X37661375Y10718521D01*
X37500000Y4988248D02*
X37350000Y4838248D01*
%TO.N,SD_CLK*%
X27420000Y-11410000D02*
X27720000Y-11110000D01*
X27314670Y3182490D02*
X27314670Y5042935D01*
X27039999Y2907819D02*
X27314670Y3182490D01*
X30178223Y7507209D02*
X30790913Y6894519D01*
X27039999Y1070001D02*
X27039999Y2907819D01*
X27720000Y390000D02*
X27039999Y1070001D01*
X27720000Y-11110000D02*
X27720000Y390000D01*
X29778944Y7507209D02*
X30178223Y7507209D01*
X27314670Y5042935D02*
X29778944Y7507209D01*
%TO.N,oCD_iSEL*%
X31623084Y4621464D02*
X31323646Y4621464D01*
X31323646Y4621464D02*
X30623522Y3921340D01*
X30911413Y-332687D02*
X30911413Y-335412D01*
X30623522Y3921340D02*
X30623522Y-44796D01*
X30623522Y-44796D02*
X30911413Y-332687D01*
%TO.N,+3V3*%
X27120000Y-10932182D02*
X27120000Y-2180000D01*
X28149918Y9375505D02*
X29645423Y7880000D01*
X36513604Y8073604D02*
X35714214Y8073604D01*
X26870000Y-12497818D02*
X26870000Y-11182182D01*
X25950000Y8087818D02*
X27237687Y9375505D01*
X26870000Y-11182182D02*
X27120000Y-10932182D01*
X25820000Y-1556529D02*
X26377289Y-2113818D01*
X26280000Y6890000D02*
X26280000Y4276420D01*
X27237687Y9375505D02*
X28149918Y9375505D01*
X27220000Y7790000D02*
X26650000Y7220000D01*
X32000000Y-14430000D02*
X28802182Y-14430000D01*
X35714214Y8073604D02*
X35547818Y8240000D01*
X27053818Y-2113818D02*
X27120000Y-2180000D01*
X27221510Y-2078490D02*
X27120000Y-2180000D01*
X27221510Y10000D02*
X27221510Y-2078490D01*
X26650000Y7220000D02*
X25950000Y7220000D01*
X35547818Y8240000D02*
X35092182Y8240000D01*
X28802182Y-14430000D02*
X26870000Y-12497818D01*
X29645423Y7880000D02*
X30448575Y7880000D01*
X34903030Y8429152D02*
X34546414Y8429152D01*
X25950000Y7220000D02*
X25950000Y8087818D01*
X37160000Y8720000D02*
X36513604Y8073604D01*
X25950000Y7220000D02*
X26280000Y6890000D01*
X35092182Y8240000D02*
X34903030Y8429152D01*
X26377289Y-2113818D02*
X27053818Y-2113818D01*
X25820000Y3816420D02*
X25820000Y-1556529D01*
X26280000Y4276420D02*
X25820000Y3816420D01*
%TO.N,oMSG_iBSY*%
X32073084Y5266016D02*
X32073084Y4423084D01*
X33037499Y9658166D02*
X32750000Y9370667D01*
X32750000Y8592182D02*
X31871190Y7713372D01*
X32073084Y4423084D02*
X32040000Y4390000D01*
X32750000Y9370667D02*
X32750000Y8592182D01*
X32040000Y4390000D02*
X32080000Y4350000D01*
X32080000Y4350000D02*
X32080000Y1055950D01*
X32040000Y4390000D02*
X32034008Y4395992D01*
X33037499Y10817499D02*
X33037499Y9658166D01*
X31871190Y5467910D02*
X32073084Y5266016D01*
X32080000Y1055950D02*
X31917021Y892971D01*
X31871190Y7713372D02*
X31871190Y5467910D01*
%TO.N,SD_CMD_MOSI*%
X30727672Y6445785D02*
X30909131Y6264326D01*
X28420002Y395028D02*
X28730000Y705026D01*
X28730000Y5157818D02*
X30017967Y6445785D01*
X29392182Y-10150000D02*
X28420002Y-9177820D01*
X30017967Y6445785D02*
X30727672Y6445785D01*
X28730000Y705026D02*
X28730000Y5157818D01*
X29850000Y-10150000D02*
X29392182Y-10150000D01*
X28420002Y-9177820D02*
X28420002Y395028D01*
X30909131Y6264326D02*
X31045079Y6264326D01*
X31045079Y6264326D02*
X31282726Y6501973D01*
%TO.N,SD_D0_MISO*%
X30361413Y-7861695D02*
X30361413Y-2725170D01*
X30535549Y-8035831D02*
X30361413Y-7861695D01*
X30535549Y-8182095D02*
X30535549Y-8035831D01*
X30361413Y-1933622D02*
X30361413Y-277662D01*
X30193457Y-2101578D02*
X30361413Y-1933622D01*
X30361413Y-2725170D02*
X30193457Y-2557214D01*
X30675060Y-11887541D02*
X30675060Y-8321606D01*
X30193457Y-2557214D02*
X30193457Y-2101578D01*
X30273522Y5768090D02*
X30331216Y5825784D01*
X30273522Y-189771D02*
X30273522Y5768090D01*
X30084127Y-12478474D02*
X30675060Y-11887541D01*
X30675060Y-8321606D02*
X30535549Y-8182095D01*
X30361413Y-277662D02*
X30273522Y-189771D01*
%TO.N,DBPTr*%
X32010000Y-13400000D02*
X32010000Y-7180000D01*
X32430000Y5404075D02*
X32330000Y5504075D01*
X32010000Y-7180000D02*
X32430000Y-6760000D01*
X32330000Y5504075D02*
X32330000Y7030000D01*
X32430000Y-6760000D02*
X32430000Y5404075D01*
X32330000Y7030000D02*
X32460000Y7160000D01*
%TO.N,SD_D1*%
X28380000Y5311147D02*
X29981866Y6913013D01*
X28380000Y850000D02*
X28380000Y5311147D01*
X28070002Y-11242167D02*
X28070002Y540002D01*
X30100000Y-13070000D02*
X29897835Y-13070000D01*
X28070002Y540002D02*
X28380000Y850000D01*
X29897835Y-13070000D02*
X28070002Y-11242167D01*
%TO.N,SD_D2*%
X30011413Y-1788648D02*
X29670000Y-2130061D01*
X29670000Y-2130061D02*
X29670000Y-5012582D01*
X30011413Y-422637D02*
X30011413Y-1788648D01*
X29820710Y4980710D02*
X29820710Y4930710D01*
X29820710Y4930710D02*
X29200000Y4310000D01*
X29710000Y270000D02*
X29710000Y-121224D01*
X29200000Y780000D02*
X29710000Y270000D01*
X29200000Y4310000D02*
X29200000Y780000D01*
X29710000Y-121224D02*
X30011413Y-422637D01*
%TO.N,SD_D3_CS*%
X31331383Y-5437248D02*
X31014478Y-5754153D01*
X31331383Y-4871259D02*
X31331383Y-5437248D01*
X31290000Y-1812182D02*
X31290000Y-4829876D01*
X30973522Y271198D02*
X31430000Y-185280D01*
X30973522Y3709039D02*
X30973522Y271198D01*
X31582757Y4072942D02*
X31337425Y4072942D01*
X31430000Y-1672182D02*
X31290000Y-1812182D01*
X31430000Y-185280D02*
X31430000Y-1672182D01*
X31337425Y4072942D02*
X30973522Y3709039D01*
X31290000Y-4829876D02*
X31331383Y-4871259D01*
%TO.N,SCL*%
X29860000Y-7380000D02*
X29120000Y-6640000D01*
X29120000Y-1140000D02*
X29480000Y-780000D01*
X29120000Y-6640000D02*
X29120000Y-1140000D01*
%TO.N,TRM_ON_J*%
X10290000Y-10890000D02*
X10390000Y-10790000D01*
X9855000Y15820000D02*
X9860000Y15815000D01*
X5156373Y9529828D02*
X5460449Y9833904D01*
X5460449Y12678824D02*
X5460449Y14400000D01*
X5460449Y9833904D02*
X5460449Y12678824D01*
X5360000Y-11657818D02*
X5360000Y-10890000D01*
X5410000Y5930000D02*
X5360000Y5980000D01*
X10220000Y5930000D02*
X5410000Y5930000D01*
X5360000Y-10890000D02*
X5360000Y5980000D01*
X5156373Y8476572D02*
X5156373Y9529828D01*
X5360000Y8272945D02*
X5156373Y8476572D01*
X8070000Y-15170000D02*
X8070000Y-14367818D01*
X5630000Y15820000D02*
X9855000Y15820000D01*
X5360000Y5980000D02*
X5360000Y8272945D01*
X8070000Y-14367818D02*
X5360000Y-11657818D01*
X5460449Y15650449D02*
X5630000Y15820000D01*
X5460449Y14400000D02*
X5460449Y15650449D01*
X5360000Y-10890000D02*
X10290000Y-10890000D01*
%TO.N,oACK*%
X26964670Y3327464D02*
X26964670Y6826852D01*
X26563686Y2926480D02*
X26964670Y3327464D01*
X27922100Y7784282D02*
X27922100Y8825505D01*
X26563686Y-1663818D02*
X26563686Y2926480D01*
X26964670Y6826852D02*
X27922100Y7784282D01*
%TO.N,SDA*%
X29980000Y-10720000D02*
X30207807Y-10720000D01*
X30207807Y-10720000D02*
X30325060Y-10602747D01*
X29567212Y-8769394D02*
X28770000Y-7972182D01*
X28770000Y-7972182D02*
X28770000Y-177984D01*
X28770000Y-177984D02*
X29037984Y90000D01*
X30325060Y-9325060D02*
X29769394Y-8769394D01*
X29769394Y-8769394D02*
X29567212Y-8769394D01*
X30325060Y-10602747D02*
X30325060Y-9325060D01*
%TO.N,VBUS*%
X44100000Y-239340D02*
X44100000Y-4700000D01*
X46495000Y5995000D02*
X46495000Y2155660D01*
X46495000Y2155660D02*
X44100000Y-239340D01*
X44770000Y7720000D02*
X46495000Y5995000D01*
%TO.N,ACKDr*%
X25820000Y6460000D02*
X25570000Y6710000D01*
X26716091Y9348884D02*
X26716091Y10806091D01*
X24313725Y2805120D02*
X25820000Y4311395D01*
X25820000Y4311395D02*
X25820000Y6460000D01*
X25570000Y6710000D02*
X25570000Y8202793D01*
X25570000Y8202793D02*
X26716091Y9348884D01*
%TO.N,/Pico/RUN*%
X39383274Y1071726D02*
X38985000Y1470000D01*
X39190000Y3830000D02*
X39190000Y10909653D01*
X38720000Y1205000D02*
X38720000Y1140000D01*
X39190000Y10909653D02*
X39030000Y11069653D01*
X39210000Y3810000D02*
X39190000Y3830000D01*
X38780000Y468452D02*
X39383274Y1071726D01*
X38985000Y1470000D02*
X38985000Y3585000D01*
X38985000Y3585000D02*
X39210000Y3810000D01*
X38780000Y-980000D02*
X38780000Y468452D01*
X38985000Y1470000D02*
X38720000Y1205000D01*
%TO.N,/Pico/GPIO08*%
X32781634Y-7121716D02*
X32543352Y-7359998D01*
X32781634Y5853644D02*
X32781634Y-7121716D01*
%TO.N,/Pico/GPIO07*%
X33608728Y7070000D02*
X33250000Y6711272D01*
X33250000Y6711272D02*
X33250000Y4814974D01*
X33177125Y-7306789D02*
X33191518Y-7321182D01*
X33177125Y4742099D02*
X33177125Y-7306789D01*
X33250000Y4814974D02*
X33177125Y4742099D01*
%TO.N,/Pico/GPIO06*%
X34123871Y4913016D02*
X34086886Y4950001D01*
X34123871Y-940195D02*
X34123871Y4913016D01*
X34235858Y-1052182D02*
X34123871Y-940195D01*
X33930000Y-7370000D02*
X34123871Y-7176129D01*
X34235858Y-1507818D02*
X34235858Y-1052182D01*
X34123871Y-1619805D02*
X34235858Y-1507818D01*
X34123871Y-7176129D02*
X34123871Y-1619805D01*
%TO.N,/Pico/GPIO28*%
X39335000Y-2588360D02*
X39335000Y-607182D01*
X39580000Y11617471D02*
X38484621Y12712850D01*
X38484621Y12712850D02*
X37663840Y12712850D01*
X39733274Y1216700D02*
X39390000Y1559974D01*
X39580000Y3685026D02*
X39580000Y11617471D01*
X39170000Y-442182D02*
X39170000Y363478D01*
X39390000Y1559974D02*
X39390000Y3495026D01*
X39170000Y363478D02*
X39733274Y926752D01*
X39120000Y-2803360D02*
X39335000Y-2588360D01*
X39390000Y3495026D02*
X39580000Y3685026D01*
X39733274Y926752D02*
X39733274Y1216700D01*
X39335000Y-607182D02*
X39170000Y-442182D01*
%TO.N,/Pico/GPIO03*%
X35395000Y-1671398D02*
X35395000Y5685000D01*
X35661801Y-1938199D02*
X35395000Y-1671398D01*
X35221565Y5858435D02*
X35221565Y7108470D01*
X35230000Y5850000D02*
X35221565Y5858435D01*
X35230000Y5850000D02*
X35395000Y5685000D01*
%TO.N,/Pico/GPIO02*%
X36095000Y717182D02*
X36105000Y707182D01*
X36105000Y707182D02*
X36105000Y-1065000D01*
X36105000Y-1065000D02*
X36290000Y-1250000D01*
X36095000Y5457022D02*
X36095000Y717182D01*
X36290000Y5652022D02*
X36095000Y5457022D01*
%TO.N,/Pico/GPIO01*%
X35430000Y-3030000D02*
X36380000Y-2080000D01*
X36380000Y-2020000D02*
X35745000Y-1385000D01*
X35745000Y7260542D02*
X35827692Y7343234D01*
X35430000Y-3245651D02*
X35430000Y-3030000D01*
X36380000Y-2080000D02*
X36380000Y-2020000D01*
X35879857Y-3695508D02*
X35430000Y-3245651D01*
X35745000Y-1385000D02*
X35745000Y7260542D01*
%TO.N,/Pico/GPIO00*%
X37850000Y4771752D02*
X37850000Y6030589D01*
X37110000Y327207D02*
X37700000Y917207D01*
X37700000Y4621752D02*
X37850000Y4771752D01*
X36345000Y7455000D02*
X36377679Y7487679D01*
X37377102Y-904920D02*
X37110000Y-637818D01*
X36704377Y-4099228D02*
X37377102Y-3426503D01*
X37850000Y6030589D02*
X37977617Y6158206D01*
X37377102Y-3426503D02*
X37377102Y-904920D01*
X36377679Y7487679D02*
X36461442Y7487679D01*
X37110000Y-637818D02*
X37110000Y327207D01*
X37700000Y917207D02*
X37700000Y4621752D01*
%TO.N,Net-(D9-A)*%
X16810000Y-16190000D02*
X25390000Y-16190000D01*
X25729345Y-7450655D02*
X25729345Y-15850655D01*
X25390000Y-16190000D02*
X25729345Y-15850655D01*
X16050000Y-15430000D02*
X16810000Y-16190000D01*
X25810000Y-7370000D02*
X25729345Y-7450655D01*
%TO.N,/Pico/GPIO05*%
X34600000Y5040000D02*
X34490000Y5150000D01*
X34160998Y-11284816D02*
X34600000Y-10845814D01*
X34600000Y-10845814D02*
X34600000Y5040000D01*
%TO.N,/Pico/GPIO04*%
X34950000Y5363149D02*
X34950000Y-11410030D01*
%TO.N,/Pico/GPIO05*%
X34490000Y5150000D02*
X34490000Y6678480D01*
X34490000Y6678480D02*
X34708728Y6897208D01*
%TO.N,/Pico/GPIO04*%
X34940000Y5373149D02*
X34950000Y5363149D01*
X34950000Y-11410030D02*
X34648924Y-11711106D01*
%TO.N,/Pico/GPIO05*%
X34708728Y6897208D02*
X34708728Y7307215D01*
%TD*%
%TA.AperFunction,Conductor*%
%TO.N,+3V3*%
G36*
X26631565Y-11209869D02*
G01*
X26688628Y-11250188D01*
X26714833Y-11314957D01*
X26714535Y-11342143D01*
X26706296Y-11409999D01*
X26706296Y-11410000D01*
X26727034Y-11580801D01*
X26788045Y-11741673D01*
X26788046Y-11741675D01*
X26884842Y-11881907D01*
X26885786Y-11883274D01*
X26885789Y-11883277D01*
X27014567Y-11997365D01*
X27014568Y-11997365D01*
X27014570Y-11997367D01*
X27166917Y-12077325D01*
X27166919Y-12077325D01*
X27166920Y-12077326D01*
X27333972Y-12118500D01*
X27506028Y-12118500D01*
X27673079Y-12077326D01*
X27673079Y-12077325D01*
X27673083Y-12077325D01*
X27825430Y-11997367D01*
X27825431Y-11997365D01*
X27832071Y-11993881D01*
X27833084Y-11995812D01*
X27889081Y-11977334D01*
X27956736Y-11994787D01*
X27980871Y-12013585D01*
X29004800Y-13037514D01*
X29038285Y-13098837D01*
X29033301Y-13168529D01*
X28991429Y-13224462D01*
X28946795Y-13245592D01*
X28836920Y-13272674D01*
X28836919Y-13272674D01*
X28836917Y-13272675D01*
X28760743Y-13312654D01*
X28684567Y-13352634D01*
X28555789Y-13466722D01*
X28555786Y-13466725D01*
X28458045Y-13608326D01*
X28397034Y-13769198D01*
X28376296Y-13939999D01*
X28376296Y-13940000D01*
X28397034Y-14110801D01*
X28457355Y-14269853D01*
X28458046Y-14271675D01*
X28554561Y-14411500D01*
X28555786Y-14413274D01*
X28555789Y-14413277D01*
X28684567Y-14527365D01*
X28684568Y-14527365D01*
X28684570Y-14527367D01*
X28836917Y-14607325D01*
X28836919Y-14607325D01*
X28836920Y-14607326D01*
X29003972Y-14648500D01*
X29071430Y-14648500D01*
X29138469Y-14668185D01*
X29184224Y-14720989D01*
X29194168Y-14790147D01*
X29187372Y-14816471D01*
X29137034Y-14949198D01*
X29135240Y-14956481D01*
X29133068Y-14955945D01*
X29109823Y-15009941D01*
X29051884Y-15048991D01*
X29044032Y-15051203D01*
X28956920Y-15072673D01*
X28804567Y-15152634D01*
X28675789Y-15266722D01*
X28675786Y-15266725D01*
X28578045Y-15408326D01*
X28517034Y-15569198D01*
X28496296Y-15739999D01*
X28496296Y-15740000D01*
X28517034Y-15910801D01*
X28578045Y-16071673D01*
X28578046Y-16071675D01*
X28675785Y-16213273D01*
X28675786Y-16213274D01*
X28675789Y-16213277D01*
X28697696Y-16232685D01*
X28734823Y-16291874D01*
X28734055Y-16361740D01*
X28695637Y-16420099D01*
X28631767Y-16448424D01*
X28615469Y-16449500D01*
X26290411Y-16449500D01*
X26223372Y-16429815D01*
X26177617Y-16377011D01*
X26167673Y-16307853D01*
X26196698Y-16244297D01*
X26202730Y-16237819D01*
X26207864Y-16232685D01*
X26216266Y-16224283D01*
X26296377Y-16085528D01*
X26324378Y-15981027D01*
X26337845Y-15930766D01*
X26337845Y-13818856D01*
X26357530Y-13751817D01*
X26410334Y-13706062D01*
X26479492Y-13696118D01*
X26491509Y-13698457D01*
X26653972Y-13738500D01*
X26826028Y-13738500D01*
X26993079Y-13697326D01*
X26993079Y-13697325D01*
X26993083Y-13697325D01*
X27145430Y-13617367D01*
X27274215Y-13503273D01*
X27371954Y-13361675D01*
X27432965Y-13200801D01*
X27453704Y-13030000D01*
X27451596Y-13012634D01*
X27432965Y-12859198D01*
X27402459Y-12778762D01*
X27371954Y-12698325D01*
X27274215Y-12556727D01*
X27274213Y-12556725D01*
X27274210Y-12556722D01*
X27145432Y-12442634D01*
X27023105Y-12378432D01*
X26993083Y-12362675D01*
X26993082Y-12362674D01*
X26993079Y-12362673D01*
X26826028Y-12321500D01*
X26653972Y-12321500D01*
X26491520Y-12361540D01*
X26421717Y-12358471D01*
X26364655Y-12318151D01*
X26338450Y-12253381D01*
X26337845Y-12241143D01*
X26337845Y-11352499D01*
X26357530Y-11285460D01*
X26410334Y-11239705D01*
X26461845Y-11228499D01*
X26473729Y-11228499D01*
X26473731Y-11228499D01*
X26561767Y-11206800D01*
X26631565Y-11209869D01*
G37*
%TD.AperFunction*%
%TA.AperFunction,Conductor*%
G36*
X49885037Y9213588D02*
G01*
X49934392Y9164133D01*
X49949500Y9104816D01*
X49949500Y-16325500D01*
X49929815Y-16392539D01*
X49877011Y-16438294D01*
X49825500Y-16449500D01*
X34450412Y-16449500D01*
X34383373Y-16429815D01*
X34337618Y-16377011D01*
X34327674Y-16307853D01*
X34356699Y-16244297D01*
X34362730Y-16237820D01*
X34490717Y-16109831D01*
X34539201Y-16061346D01*
X34597204Y-16028632D01*
X34643083Y-16017325D01*
X34795430Y-15937367D01*
X34924215Y-15823273D01*
X35021954Y-15681675D01*
X35082965Y-15520801D01*
X35103704Y-15350000D01*
X35103542Y-15348661D01*
X35082965Y-15179198D01*
X35042565Y-15072673D01*
X35021954Y-15018325D01*
X34924215Y-14876727D01*
X34924213Y-14876725D01*
X34924210Y-14876722D01*
X34795432Y-14762634D01*
X34643079Y-14682673D01*
X34476028Y-14641500D01*
X34303972Y-14641500D01*
X34136920Y-14682673D01*
X33984567Y-14762634D01*
X33855789Y-14876722D01*
X33855786Y-14876725D01*
X33758045Y-15018326D01*
X33734098Y-15081471D01*
X33691920Y-15137174D01*
X33626322Y-15161231D01*
X33618156Y-15161500D01*
X30658598Y-15161500D01*
X30591559Y-15141815D01*
X30545804Y-15089011D01*
X30535502Y-15052447D01*
X30530340Y-15009941D01*
X30522965Y-14949199D01*
X30461954Y-14788325D01*
X30364215Y-14646727D01*
X30364213Y-14646725D01*
X30364210Y-14646722D01*
X30235432Y-14532634D01*
X30083079Y-14452673D01*
X29916028Y-14411500D01*
X29848570Y-14411500D01*
X29781531Y-14391815D01*
X29735776Y-14339011D01*
X29725832Y-14269853D01*
X29732628Y-14243529D01*
X29753928Y-14187367D01*
X29782965Y-14110801D01*
X29803704Y-13940000D01*
X29798656Y-13898427D01*
X29810116Y-13829504D01*
X29857020Y-13777718D01*
X29924476Y-13759511D01*
X29951425Y-13763083D01*
X30013972Y-13778500D01*
X30186028Y-13778500D01*
X30353079Y-13737326D01*
X30353079Y-13737325D01*
X30353083Y-13737325D01*
X30505430Y-13657367D01*
X30634215Y-13543273D01*
X30731954Y-13401675D01*
X30792965Y-13240801D01*
X30813704Y-13070000D01*
X30813501Y-13068324D01*
X30792965Y-12899198D01*
X30754313Y-12797281D01*
X30748946Y-12727618D01*
X30754312Y-12709341D01*
X30757226Y-12701658D01*
X30769620Y-12668976D01*
X30797876Y-12625272D01*
X31161981Y-12261169D01*
X31170113Y-12247083D01*
X31220680Y-12198868D01*
X31289287Y-12185646D01*
X31354152Y-12211614D01*
X31394680Y-12268528D01*
X31401500Y-12309084D01*
X31401500Y-12995705D01*
X31381815Y-13062744D01*
X31379554Y-13066140D01*
X31378046Y-13068323D01*
X31378046Y-13068324D01*
X31317034Y-13229198D01*
X31296296Y-13399999D01*
X31296296Y-13400000D01*
X31317034Y-13570801D01*
X31378045Y-13731673D01*
X31378046Y-13731675D01*
X31464806Y-13857367D01*
X31475786Y-13873274D01*
X31475789Y-13873277D01*
X31604567Y-13987365D01*
X31604568Y-13987365D01*
X31604570Y-13987367D01*
X31756917Y-14067325D01*
X31756919Y-14067325D01*
X31756920Y-14067326D01*
X31923972Y-14108500D01*
X32096028Y-14108500D01*
X32263079Y-14067326D01*
X32263079Y-14067325D01*
X32263083Y-14067325D01*
X32415430Y-13987367D01*
X32544215Y-13873273D01*
X32641954Y-13731675D01*
X32702965Y-13570801D01*
X32721276Y-13419999D01*
X36086296Y-13419999D01*
X36086296Y-13420000D01*
X36107034Y-13590801D01*
X36167898Y-13751285D01*
X36168046Y-13751675D01*
X36241001Y-13857367D01*
X36265786Y-13893274D01*
X36265789Y-13893277D01*
X36394567Y-14007365D01*
X36394568Y-14007365D01*
X36394570Y-14007367D01*
X36546917Y-14087325D01*
X36546919Y-14087325D01*
X36546920Y-14087326D01*
X36713972Y-14128500D01*
X36886028Y-14128500D01*
X37053079Y-14087326D01*
X37053079Y-14087325D01*
X37053083Y-14087325D01*
X37205430Y-14007367D01*
X37334215Y-13893273D01*
X37431954Y-13751675D01*
X37492965Y-13590801D01*
X37513704Y-13420000D01*
X37511276Y-13399999D01*
X37495491Y-13269999D01*
X46326296Y-13269999D01*
X46326296Y-13270000D01*
X46347034Y-13440801D01*
X46403922Y-13590801D01*
X46408046Y-13601675D01*
X46505785Y-13743273D01*
X46505786Y-13743274D01*
X46505789Y-13743277D01*
X46634567Y-13857365D01*
X46634568Y-13857365D01*
X46634570Y-13857367D01*
X46786917Y-13937325D01*
X46786919Y-13937325D01*
X46786920Y-13937326D01*
X46953972Y-13978500D01*
X47025287Y-13978500D01*
X47092326Y-13998185D01*
X47127336Y-14032059D01*
X47155785Y-14073273D01*
X47284567Y-14187365D01*
X47284568Y-14187365D01*
X47284570Y-14187367D01*
X47436917Y-14267325D01*
X47436919Y-14267325D01*
X47436920Y-14267326D01*
X47603972Y-14308500D01*
X47776028Y-14308500D01*
X47943079Y-14267326D01*
X47943079Y-14267325D01*
X47943083Y-14267325D01*
X48095430Y-14187367D01*
X48224215Y-14073273D01*
X48321954Y-13931675D01*
X48382965Y-13770801D01*
X48403704Y-13600000D01*
X48387522Y-13466725D01*
X48382965Y-13429198D01*
X48352459Y-13348762D01*
X48321954Y-13268325D01*
X48224215Y-13126727D01*
X48224213Y-13126725D01*
X48224210Y-13126722D01*
X48095432Y-13012634D01*
X47943079Y-12932673D01*
X47776028Y-12891500D01*
X47704713Y-12891500D01*
X47637674Y-12871815D01*
X47602664Y-12837941D01*
X47574214Y-12796726D01*
X47445432Y-12682634D01*
X47293079Y-12602673D01*
X47126028Y-12561500D01*
X46953972Y-12561500D01*
X46786920Y-12602673D01*
X46634567Y-12682634D01*
X46505789Y-12796722D01*
X46505786Y-12796725D01*
X46408045Y-12938326D01*
X46347034Y-13099198D01*
X46326296Y-13269999D01*
X37495491Y-13269999D01*
X37492965Y-13249198D01*
X37462371Y-13168529D01*
X37431954Y-13088325D01*
X37334215Y-12946727D01*
X37334213Y-12946725D01*
X37334210Y-12946722D01*
X37205432Y-12832634D01*
X37053079Y-12752673D01*
X36886028Y-12711500D01*
X36713972Y-12711500D01*
X36546920Y-12752673D01*
X36394567Y-12832634D01*
X36265789Y-12946722D01*
X36265786Y-12946725D01*
X36168045Y-13088326D01*
X36107034Y-13249198D01*
X36086296Y-13419999D01*
X32721276Y-13419999D01*
X32723704Y-13400000D01*
X32705394Y-13249199D01*
X32702965Y-13229198D01*
X32664077Y-13126659D01*
X32641954Y-13068325D01*
X32640446Y-13066140D01*
X32639835Y-13064288D01*
X32638467Y-13061681D01*
X32638900Y-13061453D01*
X32618567Y-12999784D01*
X32618500Y-12995705D01*
X32618500Y-8168327D01*
X32638185Y-8101288D01*
X32690989Y-8055533D01*
X32712820Y-8047932D01*
X32796435Y-8027323D01*
X32850495Y-7998949D01*
X32919001Y-7985224D01*
X32937795Y-7988349D01*
X32938434Y-7988506D01*
X32938435Y-7988507D01*
X33105490Y-8029682D01*
X33277546Y-8029682D01*
X33444601Y-7988507D01*
X33450856Y-7985224D01*
X33456621Y-7982197D01*
X33525129Y-7968470D01*
X33571875Y-7982194D01*
X33676917Y-8037325D01*
X33843972Y-8078500D01*
X33867500Y-8078500D01*
X33934539Y-8098185D01*
X33980294Y-8150989D01*
X33991500Y-8202500D01*
X33991500Y-10500200D01*
X33971815Y-10567239D01*
X33919011Y-10612994D01*
X33911478Y-10616139D01*
X33907925Y-10617486D01*
X33755565Y-10697450D01*
X33626787Y-10811538D01*
X33626784Y-10811541D01*
X33529043Y-10953142D01*
X33468032Y-11114014D01*
X33447294Y-11284815D01*
X33447294Y-11284816D01*
X33468032Y-11455617D01*
X33525449Y-11607012D01*
X33529044Y-11616491D01*
X33615452Y-11741673D01*
X33626784Y-11758090D01*
X33626787Y-11758093D01*
X33755565Y-11872181D01*
X33755566Y-11872181D01*
X33755568Y-11872183D01*
X33907915Y-11952141D01*
X33927104Y-11956870D01*
X33987484Y-11992023D01*
X34013371Y-12033292D01*
X34016970Y-12042780D01*
X34016972Y-12042786D01*
X34114705Y-12184374D01*
X34114713Y-12184383D01*
X34243491Y-12298471D01*
X34243492Y-12298471D01*
X34243494Y-12298473D01*
X34395841Y-12378431D01*
X34395843Y-12378431D01*
X34395844Y-12378432D01*
X34562896Y-12419606D01*
X34734952Y-12419606D01*
X34902003Y-12378432D01*
X34902003Y-12378431D01*
X34902007Y-12378431D01*
X35054354Y-12298473D01*
X35183139Y-12184379D01*
X35280878Y-12042781D01*
X35334416Y-11901609D01*
X35362678Y-11857900D01*
X35436920Y-11783659D01*
X35436920Y-11783658D01*
X35436922Y-11783657D01*
X35511312Y-11654808D01*
X35561877Y-11606595D01*
X35630484Y-11593371D01*
X35669760Y-11605059D01*
X35669909Y-11604667D01*
X35675255Y-11606694D01*
X35676320Y-11607011D01*
X35676917Y-11607325D01*
X35676916Y-11607325D01*
X35843972Y-11648500D01*
X36016028Y-11648500D01*
X36183079Y-11607326D01*
X36183079Y-11607325D01*
X36183083Y-11607325D01*
X36335430Y-11527367D01*
X36464215Y-11413273D01*
X36561954Y-11271675D01*
X36622965Y-11110801D01*
X36643704Y-10940000D01*
X36633990Y-10859999D01*
X41736296Y-10859999D01*
X41736296Y-10860000D01*
X41757034Y-11030801D01*
X41809225Y-11168417D01*
X41818046Y-11191675D01*
X41913703Y-11330257D01*
X41915786Y-11333274D01*
X41915789Y-11333277D01*
X42044567Y-11447365D01*
X42044568Y-11447365D01*
X42044570Y-11447367D01*
X42196917Y-11527325D01*
X42196919Y-11527325D01*
X42196920Y-11527326D01*
X42363972Y-11568500D01*
X42536028Y-11568500D01*
X42703079Y-11527326D01*
X42703079Y-11527325D01*
X42703083Y-11527325D01*
X42855430Y-11447367D01*
X42984215Y-11333273D01*
X43081954Y-11191675D01*
X43142965Y-11030801D01*
X43163704Y-10860000D01*
X43155628Y-10793484D01*
X43155205Y-10789999D01*
X46426296Y-10789999D01*
X46426296Y-10790000D01*
X46447034Y-10960801D01*
X46505141Y-11114015D01*
X46508046Y-11121675D01*
X46562110Y-11199999D01*
X46605786Y-11263274D01*
X46605789Y-11263277D01*
X46734567Y-11377365D01*
X46734568Y-11377365D01*
X46734570Y-11377367D01*
X46886917Y-11457325D01*
X46886919Y-11457325D01*
X46886920Y-11457326D01*
X47053972Y-11498500D01*
X47226028Y-11498500D01*
X47393079Y-11457326D01*
X47393079Y-11457325D01*
X47393083Y-11457325D01*
X47545430Y-11377367D01*
X47674215Y-11263273D01*
X47771954Y-11121675D01*
X47832965Y-10960801D01*
X47853704Y-10790000D01*
X47851786Y-10774199D01*
X47832965Y-10619198D01*
X47787835Y-10500200D01*
X47771954Y-10458325D01*
X47674215Y-10316727D01*
X47674213Y-10316725D01*
X47674210Y-10316722D01*
X47545432Y-10202634D01*
X47393079Y-10122673D01*
X47226028Y-10081500D01*
X47053972Y-10081500D01*
X46886920Y-10122673D01*
X46734567Y-10202634D01*
X46605789Y-10316722D01*
X46605786Y-10316725D01*
X46508045Y-10458326D01*
X46447034Y-10619198D01*
X46426296Y-10789999D01*
X43155205Y-10789999D01*
X43142965Y-10689198D01*
X43088385Y-10545282D01*
X43081954Y-10528325D01*
X42984215Y-10386727D01*
X42984213Y-10386725D01*
X42984210Y-10386722D01*
X42855432Y-10272634D01*
X42703079Y-10192673D01*
X42536028Y-10151500D01*
X42363972Y-10151500D01*
X42196920Y-10192673D01*
X42044567Y-10272634D01*
X41915789Y-10386722D01*
X41915786Y-10386725D01*
X41818045Y-10528326D01*
X41757034Y-10689198D01*
X41736296Y-10859999D01*
X36633990Y-10859999D01*
X36628107Y-10811543D01*
X36622965Y-10769198D01*
X36572799Y-10636921D01*
X36561954Y-10608325D01*
X36464215Y-10466727D01*
X36464213Y-10466725D01*
X36464210Y-10466722D01*
X36335432Y-10352634D01*
X36183079Y-10272673D01*
X36016028Y-10231500D01*
X35843972Y-10231500D01*
X35843970Y-10231500D01*
X35712174Y-10263984D01*
X35642372Y-10260915D01*
X35585310Y-10220594D01*
X35559105Y-10155825D01*
X35558500Y-10143587D01*
X35558500Y-7952500D01*
X35578185Y-7885461D01*
X35630989Y-7839706D01*
X35682500Y-7828500D01*
X35766028Y-7828500D01*
X35933079Y-7787326D01*
X35933079Y-7787325D01*
X35933083Y-7787325D01*
X36085430Y-7707367D01*
X36214215Y-7593273D01*
X36311954Y-7451675D01*
X36372965Y-7290801D01*
X36393704Y-7120000D01*
X36388523Y-7077326D01*
X36372965Y-6949198D01*
X36331855Y-6840801D01*
X36311954Y-6788325D01*
X36214215Y-6646727D01*
X36214213Y-6646725D01*
X36214210Y-6646722D01*
X36085432Y-6532634D01*
X36011737Y-6493956D01*
X35933083Y-6452675D01*
X35933082Y-6452674D01*
X35933079Y-6452673D01*
X35766028Y-6411500D01*
X35682500Y-6411500D01*
X35615461Y-6391815D01*
X35569706Y-6339011D01*
X35558500Y-6287500D01*
X35558500Y-5124790D01*
X35578185Y-5057751D01*
X35630989Y-5011996D01*
X35700147Y-5002052D01*
X35763703Y-5031077D01*
X35798441Y-5080818D01*
X35805087Y-5098340D01*
X35816605Y-5128713D01*
X35837824Y-5184662D01*
X35925226Y-5311284D01*
X35935564Y-5326261D01*
X35935567Y-5326264D01*
X36064345Y-5440352D01*
X36064346Y-5440352D01*
X36064348Y-5440354D01*
X36216695Y-5520312D01*
X36216701Y-5520313D01*
X36216702Y-5520314D01*
X36223713Y-5522974D01*
X36222588Y-5525939D01*
X36270522Y-5553811D01*
X36302348Y-5616011D01*
X36303614Y-5654052D01*
X36282660Y-5826630D01*
X36282660Y-5826631D01*
X36303398Y-5997432D01*
X36364409Y-6158304D01*
X36364410Y-6158306D01*
X36420247Y-6239199D01*
X36462150Y-6299905D01*
X36462153Y-6299908D01*
X36590931Y-6413996D01*
X36590932Y-6413996D01*
X36590934Y-6413998D01*
X36743281Y-6493956D01*
X36743283Y-6493956D01*
X36743284Y-6493957D01*
X36910336Y-6535131D01*
X37082392Y-6535131D01*
X37249443Y-6493957D01*
X37249443Y-6493956D01*
X37249447Y-6493956D01*
X37401794Y-6413998D01*
X37445273Y-6375478D01*
X37508505Y-6345757D01*
X37577769Y-6354940D01*
X37631072Y-6400112D01*
X37651493Y-6466931D01*
X37651500Y-6468294D01*
X37651500Y-8955705D01*
X37631815Y-9022744D01*
X37629554Y-9026140D01*
X37628046Y-9028323D01*
X37628046Y-9028324D01*
X37567034Y-9189198D01*
X37546296Y-9359999D01*
X37546296Y-9360000D01*
X37567034Y-9530801D01*
X37623131Y-9678715D01*
X37628046Y-9691675D01*
X37714558Y-9817008D01*
X37725786Y-9833274D01*
X37725789Y-9833277D01*
X37854567Y-9947365D01*
X37854568Y-9947365D01*
X37854570Y-9947367D01*
X38006917Y-10027325D01*
X38006919Y-10027325D01*
X38006920Y-10027326D01*
X38173972Y-10068500D01*
X38346028Y-10068500D01*
X38513079Y-10027326D01*
X38513079Y-10027325D01*
X38513083Y-10027325D01*
X38665430Y-9947367D01*
X38794215Y-9833273D01*
X38891954Y-9691675D01*
X38952965Y-9530801D01*
X38973704Y-9360000D01*
X38960893Y-9254487D01*
X38952965Y-9189198D01*
X38929826Y-9128187D01*
X38892589Y-9029999D01*
X42616296Y-9029999D01*
X42616296Y-9030000D01*
X42637034Y-9200801D01*
X42698045Y-9361673D01*
X42795786Y-9503274D01*
X42795789Y-9503277D01*
X42924567Y-9617365D01*
X42924568Y-9617365D01*
X42924570Y-9617367D01*
X43076917Y-9697325D01*
X43076919Y-9697325D01*
X43076920Y-9697326D01*
X43243972Y-9738500D01*
X43416028Y-9738500D01*
X43583079Y-9697326D01*
X43583079Y-9697325D01*
X43583083Y-9697325D01*
X43735430Y-9617367D01*
X43864215Y-9503273D01*
X43961954Y-9361675D01*
X44022965Y-9200801D01*
X44043704Y-9030000D01*
X44043501Y-9028324D01*
X44022965Y-8859198D01*
X43961954Y-8698326D01*
X43961954Y-8698325D01*
X43864215Y-8556727D01*
X43864213Y-8556725D01*
X43864210Y-8556722D01*
X43856621Y-8549999D01*
X45746296Y-8549999D01*
X45746296Y-8550000D01*
X45767034Y-8720801D01*
X45819522Y-8859199D01*
X45828046Y-8881675D01*
X45895233Y-8979011D01*
X45925786Y-9023274D01*
X45925789Y-9023277D01*
X46054567Y-9137365D01*
X46054568Y-9137365D01*
X46054570Y-9137367D01*
X46206917Y-9217325D01*
X46206919Y-9217325D01*
X46206920Y-9217326D01*
X46373972Y-9258500D01*
X46546028Y-9258500D01*
X46713079Y-9217326D01*
X46713079Y-9217325D01*
X46713083Y-9217325D01*
X46865430Y-9137367D01*
X46994215Y-9023273D01*
X47091954Y-8881675D01*
X47134269Y-8770097D01*
X47153827Y-8718529D01*
X47196005Y-8662826D01*
X47261603Y-8638769D01*
X47269769Y-8638500D01*
X47336028Y-8638500D01*
X47503079Y-8597326D01*
X47503079Y-8597325D01*
X47503083Y-8597325D01*
X47655430Y-8517367D01*
X47784215Y-8403273D01*
X47881954Y-8261675D01*
X47942965Y-8100801D01*
X47963704Y-7930000D01*
X47957958Y-7882673D01*
X47942965Y-7759198D01*
X47926626Y-7716116D01*
X47921259Y-7646453D01*
X47940519Y-7601704D01*
X47981951Y-7541679D01*
X47981952Y-7541678D01*
X47981952Y-7541677D01*
X47981954Y-7541675D01*
X48042965Y-7380801D01*
X48063704Y-7210000D01*
X48062393Y-7199198D01*
X48042965Y-7039198D01*
X47996338Y-6916254D01*
X47981954Y-6878325D01*
X47949254Y-6830952D01*
X47927371Y-6764599D01*
X47944836Y-6696947D01*
X47949229Y-6690109D01*
X47961954Y-6671675D01*
X48022965Y-6510801D01*
X48043704Y-6340000D01*
X48042287Y-6328325D01*
X48022965Y-6169198D01*
X47961954Y-6008326D01*
X47961954Y-6008325D01*
X47864215Y-5866727D01*
X47864213Y-5866725D01*
X47864210Y-5866722D01*
X47735432Y-5752634D01*
X47583079Y-5672673D01*
X47416028Y-5631500D01*
X47243972Y-5631500D01*
X47076920Y-5672673D01*
X46924567Y-5752634D01*
X46795789Y-5866722D01*
X46795786Y-5866725D01*
X46698045Y-6008326D01*
X46637034Y-6169198D01*
X46616296Y-6339999D01*
X46616296Y-6340000D01*
X46637034Y-6510801D01*
X46698046Y-6671675D01*
X46698049Y-6671681D01*
X46730744Y-6719048D01*
X46752627Y-6785402D01*
X46735161Y-6853054D01*
X46730746Y-6859924D01*
X46718048Y-6878321D01*
X46718046Y-6878324D01*
X46657034Y-7039198D01*
X46636296Y-7209999D01*
X46636296Y-7210000D01*
X46657034Y-7380797D01*
X46657035Y-7380802D01*
X46673374Y-7423885D01*
X46678740Y-7493548D01*
X46659482Y-7538293D01*
X46618046Y-7598324D01*
X46556173Y-7761471D01*
X46513995Y-7817174D01*
X46448397Y-7841231D01*
X46440231Y-7841500D01*
X46373972Y-7841500D01*
X46206920Y-7882673D01*
X46054567Y-7962634D01*
X45925789Y-8076722D01*
X45925786Y-8076725D01*
X45828045Y-8218326D01*
X45767034Y-8379198D01*
X45746296Y-8549999D01*
X43856621Y-8549999D01*
X43735432Y-8442634D01*
X43676441Y-8411673D01*
X43583083Y-8362675D01*
X43583082Y-8362674D01*
X43583079Y-8362673D01*
X43416028Y-8321500D01*
X43243972Y-8321500D01*
X43076920Y-8362673D01*
X42924567Y-8442634D01*
X42795789Y-8556722D01*
X42795786Y-8556725D01*
X42698045Y-8698326D01*
X42637034Y-8859198D01*
X42616296Y-9029999D01*
X38892589Y-9029999D01*
X38891954Y-9028325D01*
X38890446Y-9026140D01*
X38889835Y-9024288D01*
X38888467Y-9021681D01*
X38888900Y-9021453D01*
X38868567Y-8959784D01*
X38868500Y-8955705D01*
X38868500Y-7199018D01*
X38888185Y-7131979D01*
X38940989Y-7086224D01*
X39010147Y-7076280D01*
X39022175Y-7078621D01*
X39183972Y-7118500D01*
X39356028Y-7118500D01*
X39523079Y-7077326D01*
X39523079Y-7077325D01*
X39523083Y-7077325D01*
X39675430Y-6997367D01*
X39804215Y-6883273D01*
X39901954Y-6741675D01*
X39929137Y-6669999D01*
X40776296Y-6669999D01*
X40776296Y-6670000D01*
X40797034Y-6840801D01*
X40856411Y-6997365D01*
X40858046Y-7001675D01*
X40955785Y-7143273D01*
X40955786Y-7143274D01*
X40955789Y-7143277D01*
X41084567Y-7257365D01*
X41084568Y-7257365D01*
X41084570Y-7257367D01*
X41236917Y-7337325D01*
X41369712Y-7370055D01*
X41430092Y-7405211D01*
X41461881Y-7467430D01*
X41454985Y-7536958D01*
X41422266Y-7583266D01*
X41395786Y-7606725D01*
X41298045Y-7748326D01*
X41237034Y-7909198D01*
X41216296Y-8079999D01*
X41216296Y-8080000D01*
X41237034Y-8250801D01*
X41294860Y-8403274D01*
X41298046Y-8411675D01*
X41371001Y-8517367D01*
X41395786Y-8553274D01*
X41395789Y-8553277D01*
X41524567Y-8667365D01*
X41524568Y-8667365D01*
X41524570Y-8667367D01*
X41676917Y-8747325D01*
X41676919Y-8747325D01*
X41676920Y-8747326D01*
X41843972Y-8788500D01*
X42016028Y-8788500D01*
X42183079Y-8747326D01*
X42183079Y-8747325D01*
X42183083Y-8747325D01*
X42335430Y-8667367D01*
X42464215Y-8553273D01*
X42561954Y-8411675D01*
X42622965Y-8250801D01*
X42643704Y-8080000D01*
X42642308Y-8068498D01*
X42622965Y-7909198D01*
X42576745Y-7787326D01*
X42561954Y-7748325D01*
X42464215Y-7606727D01*
X42464213Y-7606725D01*
X42464210Y-7606722D01*
X42335432Y-7492634D01*
X42183079Y-7412673D01*
X42050287Y-7379944D01*
X41989906Y-7344788D01*
X41958118Y-7282568D01*
X41965014Y-7213040D01*
X41997736Y-7166731D01*
X42024210Y-7143277D01*
X42024215Y-7143273D01*
X42121954Y-7001675D01*
X42182965Y-6840801D01*
X42203704Y-6670000D01*
X42202490Y-6659999D01*
X43766296Y-6659999D01*
X43766296Y-6660000D01*
X43787034Y-6830801D01*
X43831937Y-6949199D01*
X43848046Y-6991675D01*
X43944892Y-7131979D01*
X43945786Y-7133274D01*
X43945789Y-7133277D01*
X44074567Y-7247365D01*
X44074568Y-7247365D01*
X44074570Y-7247367D01*
X44226917Y-7327325D01*
X44226919Y-7327325D01*
X44226920Y-7327326D01*
X44393972Y-7368500D01*
X44566028Y-7368500D01*
X44733079Y-7327326D01*
X44733079Y-7327325D01*
X44733083Y-7327325D01*
X44885430Y-7247367D01*
X45014215Y-7133273D01*
X45111954Y-6991675D01*
X45172965Y-6830801D01*
X45193704Y-6660000D01*
X45184088Y-6580801D01*
X45172965Y-6489198D01*
X45129837Y-6375479D01*
X45111954Y-6328325D01*
X45014215Y-6186727D01*
X45014213Y-6186725D01*
X45014210Y-6186722D01*
X44885432Y-6072634D01*
X44762903Y-6008326D01*
X44733083Y-5992675D01*
X44733082Y-5992674D01*
X44733079Y-5992673D01*
X44566028Y-5951500D01*
X44393972Y-5951500D01*
X44226920Y-5992673D01*
X44074567Y-6072634D01*
X43945789Y-6186722D01*
X43945786Y-6186725D01*
X43848045Y-6328326D01*
X43787034Y-6489198D01*
X43766296Y-6659999D01*
X42202490Y-6659999D01*
X42182965Y-6499199D01*
X42171244Y-6468294D01*
X42149705Y-6411500D01*
X42121954Y-6338325D01*
X42024215Y-6196727D01*
X42024213Y-6196725D01*
X42024210Y-6196722D01*
X41895432Y-6082634D01*
X41743079Y-6002673D01*
X41576028Y-5961500D01*
X41403972Y-5961500D01*
X41236920Y-6002673D01*
X41084567Y-6082634D01*
X40955789Y-6196722D01*
X40955786Y-6196725D01*
X40858045Y-6338326D01*
X40797034Y-6499198D01*
X40776296Y-6669999D01*
X39929137Y-6669999D01*
X39962965Y-6580801D01*
X39983704Y-6410000D01*
X39982504Y-6400112D01*
X39962965Y-6239198D01*
X39909104Y-6097179D01*
X39901954Y-6078325D01*
X39804215Y-5936727D01*
X39804213Y-5936725D01*
X39804210Y-5936722D01*
X39675432Y-5822634D01*
X39624647Y-5795980D01*
X39523083Y-5742675D01*
X39523082Y-5742674D01*
X39523079Y-5742673D01*
X39356028Y-5701500D01*
X39183972Y-5701500D01*
X39183970Y-5701500D01*
X39022174Y-5741378D01*
X38952372Y-5738308D01*
X38895310Y-5697988D01*
X38869105Y-5633219D01*
X38868500Y-5620981D01*
X38868500Y-4559999D01*
X39716296Y-4559999D01*
X39716296Y-4560000D01*
X39737034Y-4730801D01*
X39798045Y-4891673D01*
X39798046Y-4891675D01*
X39894681Y-5031673D01*
X39895786Y-5033274D01*
X39895789Y-5033277D01*
X40024567Y-5147365D01*
X40024568Y-5147365D01*
X40024570Y-5147367D01*
X40176917Y-5227325D01*
X40176919Y-5227325D01*
X40176920Y-5227326D01*
X40343972Y-5268500D01*
X40516028Y-5268500D01*
X40683079Y-5227326D01*
X40683079Y-5227325D01*
X40683083Y-5227325D01*
X40835430Y-5147367D01*
X40964215Y-5033273D01*
X41061954Y-4891675D01*
X41122965Y-4730801D01*
X41143704Y-4560000D01*
X41139007Y-4521312D01*
X41122965Y-4389198D01*
X41076984Y-4267957D01*
X41061954Y-4228325D01*
X40964215Y-4086727D01*
X40964213Y-4086725D01*
X40964210Y-4086722D01*
X40835432Y-3972634D01*
X40742133Y-3923667D01*
X40683083Y-3892675D01*
X40683082Y-3892674D01*
X40683079Y-3892673D01*
X40516028Y-3851500D01*
X40343972Y-3851500D01*
X40176920Y-3892673D01*
X40024567Y-3972634D01*
X39895789Y-4086722D01*
X39895786Y-4086725D01*
X39798045Y-4228326D01*
X39737034Y-4389198D01*
X39716296Y-4559999D01*
X38868500Y-4559999D01*
X38868500Y-3629349D01*
X38888185Y-3562310D01*
X38940989Y-3516555D01*
X39010147Y-3506611D01*
X39022176Y-3508953D01*
X39033967Y-3511859D01*
X39033971Y-3511860D01*
X39033972Y-3511860D01*
X39206028Y-3511860D01*
X39373079Y-3470686D01*
X39373079Y-3470685D01*
X39373083Y-3470685D01*
X39525430Y-3390727D01*
X39654215Y-3276633D01*
X39751954Y-3135035D01*
X39806876Y-2990215D01*
X39818486Y-2969389D01*
X39817857Y-2969026D01*
X39821919Y-2961989D01*
X39821922Y-2961987D01*
X39902032Y-2823233D01*
X39917062Y-2767137D01*
X39953425Y-2707479D01*
X40016271Y-2676949D01*
X40085647Y-2685243D01*
X40138884Y-2728790D01*
X40155779Y-2753266D01*
X40155789Y-2753277D01*
X40284567Y-2867365D01*
X40284568Y-2867365D01*
X40284570Y-2867367D01*
X40436917Y-2947325D01*
X40551972Y-2975683D01*
X40612351Y-3010837D01*
X40644140Y-3073057D01*
X40645033Y-3082598D01*
X40645392Y-3082555D01*
X40667034Y-3260801D01*
X40728045Y-3421673D01*
X40728046Y-3421675D01*
X40825785Y-3563273D01*
X40825786Y-3563274D01*
X40825789Y-3563277D01*
X40954567Y-3677365D01*
X40954568Y-3677365D01*
X40954570Y-3677367D01*
X41106917Y-3757325D01*
X41106919Y-3757325D01*
X41106920Y-3757326D01*
X41273972Y-3798500D01*
X41446028Y-3798500D01*
X41613079Y-3757326D01*
X41613079Y-3757325D01*
X41613083Y-3757325D01*
X41765430Y-3677367D01*
X41894215Y-3563273D01*
X41991954Y-3421675D01*
X42052965Y-3260801D01*
X42073704Y-3090000D01*
X42058161Y-2961987D01*
X42052965Y-2919198D01*
X41991954Y-2758326D01*
X41991954Y-2758325D01*
X41894215Y-2616727D01*
X41894213Y-2616725D01*
X41894210Y-2616722D01*
X41765432Y-2502634D01*
X41714647Y-2475980D01*
X41613083Y-2422675D01*
X41613082Y-2422674D01*
X41613079Y-2422673D01*
X41498029Y-2394317D01*
X41437649Y-2359161D01*
X41405860Y-2296942D01*
X41404966Y-2287401D01*
X41404608Y-2287445D01*
X41382965Y-2109198D01*
X41321954Y-1948326D01*
X41321954Y-1948325D01*
X41224215Y-1806727D01*
X41224213Y-1806725D01*
X41224210Y-1806722D01*
X41095432Y-1692634D01*
X40943079Y-1612673D01*
X40776028Y-1571500D01*
X40603972Y-1571500D01*
X40436920Y-1612673D01*
X40284567Y-1692634D01*
X40150170Y-1811701D01*
X40148049Y-1809307D01*
X40101121Y-1838741D01*
X40031255Y-1837971D01*
X39972897Y-1799550D01*
X39944575Y-1735678D01*
X39943500Y-1719386D01*
X39943500Y-527073D01*
X39943499Y-527069D01*
X39936110Y-499493D01*
X39929296Y-474061D01*
X39912897Y-412855D01*
X39912897Y-412854D01*
X39902033Y-372312D01*
X39902032Y-372309D01*
X39891934Y-354819D01*
X39821921Y-233554D01*
X39814819Y-226452D01*
X39781334Y-165129D01*
X39778500Y-138771D01*
X39778500Y60067D01*
X39798185Y127106D01*
X39814819Y147748D01*
X39983721Y316650D01*
X40220196Y553125D01*
X40300306Y691880D01*
X40315148Y747273D01*
X40351511Y806931D01*
X40414358Y837461D01*
X40483734Y829167D01*
X40492530Y824983D01*
X40512862Y814312D01*
X40679917Y773137D01*
X40851973Y773137D01*
X41019028Y814312D01*
X41028349Y819205D01*
X41096855Y832932D01*
X41161909Y807443D01*
X41200539Y756863D01*
X41256277Y622300D01*
X41256282Y622290D01*
X41366646Y457120D01*
X41366649Y457116D01*
X41507115Y316650D01*
X41507119Y316647D01*
X41672289Y206283D01*
X41672295Y206280D01*
X41672296Y206279D01*
X41855831Y130256D01*
X42025107Y96585D01*
X42050666Y91501D01*
X42050670Y91500D01*
X42050671Y91500D01*
X43349328Y91500D01*
X43349329Y91500D01*
X43374891Y96585D01*
X43444481Y90359D01*
X43499659Y47497D01*
X43522905Y-18392D01*
X43518858Y-57124D01*
X43491500Y-159227D01*
X43491500Y-4295705D01*
X43471815Y-4362744D01*
X43469554Y-4366140D01*
X43468046Y-4368323D01*
X43468046Y-4368324D01*
X43407034Y-4529198D01*
X43386296Y-4699999D01*
X43386296Y-4700000D01*
X43407034Y-4870801D01*
X43465728Y-5025564D01*
X43468046Y-5031675D01*
X43552271Y-5153695D01*
X43565786Y-5173274D01*
X43565789Y-5173277D01*
X43694567Y-5287365D01*
X43694568Y-5287365D01*
X43694570Y-5287367D01*
X43846917Y-5367325D01*
X43846919Y-5367325D01*
X43846920Y-5367326D01*
X44013972Y-5408500D01*
X44186028Y-5408500D01*
X44353079Y-5367326D01*
X44353079Y-5367325D01*
X44353083Y-5367325D01*
X44505430Y-5287367D01*
X44634215Y-5173273D01*
X44731954Y-5031675D01*
X44792965Y-4870801D01*
X44813704Y-4700000D01*
X44792965Y-4529199D01*
X44731954Y-4368325D01*
X44730446Y-4366140D01*
X44729835Y-4364288D01*
X44728467Y-4361681D01*
X44728900Y-4361453D01*
X44708567Y-4299784D01*
X44708500Y-4295705D01*
X44708500Y-2930576D01*
X44728185Y-2863537D01*
X44780989Y-2817782D01*
X44850147Y-2807838D01*
X44890121Y-2820777D01*
X45016917Y-2887325D01*
X45016919Y-2887325D01*
X45016920Y-2887326D01*
X45183972Y-2928500D01*
X45356028Y-2928500D01*
X45523079Y-2887326D01*
X45523079Y-2887325D01*
X45523083Y-2887325D01*
X45675430Y-2807367D01*
X45804215Y-2693273D01*
X45901954Y-2551675D01*
X45962965Y-2390801D01*
X45983704Y-2220000D01*
X45966562Y-2078818D01*
X45962965Y-2049198D01*
X45901954Y-1888326D01*
X45901954Y-1888325D01*
X45804215Y-1746727D01*
X45804213Y-1746725D01*
X45804210Y-1746722D01*
X45675432Y-1632634D01*
X45523079Y-1552673D01*
X45356028Y-1511500D01*
X45183972Y-1511500D01*
X45016918Y-1552674D01*
X44890125Y-1619220D01*
X44821617Y-1632944D01*
X44756564Y-1607452D01*
X44715620Y-1550836D01*
X44708500Y-1509423D01*
X44708500Y-542750D01*
X44728185Y-475711D01*
X44744815Y-455073D01*
X45599147Y399260D01*
X45660468Y432743D01*
X45730159Y427759D01*
X45774507Y399258D01*
X45857115Y316650D01*
X45857119Y316647D01*
X46022289Y206283D01*
X46022295Y206280D01*
X46022296Y206279D01*
X46205831Y130256D01*
X46375107Y96585D01*
X46400666Y91501D01*
X46400670Y91500D01*
X46400671Y91500D01*
X47399330Y91500D01*
X47399331Y91501D01*
X47594169Y130256D01*
X47777704Y206279D01*
X47942881Y316647D01*
X48083353Y457119D01*
X48193721Y622296D01*
X48269744Y805831D01*
X48308500Y1000671D01*
X48308500Y1199329D01*
X48269744Y1394169D01*
X48193721Y1577704D01*
X48193720Y1577705D01*
X48193717Y1577711D01*
X48083353Y1742881D01*
X48083350Y1742885D01*
X47942884Y1883351D01*
X47942880Y1883354D01*
X47777710Y1993718D01*
X47777701Y1993723D01*
X47594169Y2069744D01*
X47594161Y2069746D01*
X47399333Y2108500D01*
X47399329Y2108500D01*
X47227500Y2108500D01*
X47160461Y2128185D01*
X47114706Y2180989D01*
X47103500Y2232500D01*
X47103500Y2827418D01*
X47123185Y2894457D01*
X47175989Y2940212D01*
X47245147Y2950156D01*
X47257175Y2947815D01*
X47303076Y2936501D01*
X47303077Y2936500D01*
X47303079Y2936500D01*
X47456922Y2936500D01*
X47531945Y2954992D01*
X47606292Y2973317D01*
X47742512Y3044810D01*
X47857664Y3146826D01*
X47945056Y3273436D01*
X47999609Y3417280D01*
X48018153Y3570000D01*
X47999609Y3722720D01*
X47945056Y3866564D01*
X47857664Y3993174D01*
X47857661Y3993177D01*
X47857659Y3993179D01*
X47742513Y4095190D01*
X47606290Y4166684D01*
X47456922Y4203500D01*
X47456921Y4203500D01*
X47303079Y4203500D01*
X47303078Y4203500D01*
X47257175Y4192186D01*
X47187373Y4195255D01*
X47130310Y4235575D01*
X47104105Y4300345D01*
X47103500Y4312583D01*
X47103500Y6075109D01*
X47103500Y6075111D01*
X47062032Y6229872D01*
X47058359Y6236233D01*
X46981923Y6368625D01*
X46981918Y6368631D01*
X45483752Y7866797D01*
X45455492Y7910505D01*
X45401954Y8051675D01*
X45304215Y8193273D01*
X45304213Y8193275D01*
X45304210Y8193278D01*
X45175432Y8307366D01*
X45023079Y8387327D01*
X44856028Y8428500D01*
X44683972Y8428500D01*
X44516920Y8387327D01*
X44364567Y8307366D01*
X44235789Y8193278D01*
X44235786Y8193275D01*
X44138045Y8051674D01*
X44077034Y7890802D01*
X44056296Y7720001D01*
X44056296Y7720000D01*
X44077034Y7549199D01*
X44138045Y7388327D01*
X44138046Y7388325D01*
X44235785Y7246727D01*
X44235786Y7246726D01*
X44235789Y7246723D01*
X44364567Y7132635D01*
X44364568Y7132635D01*
X44364570Y7132633D01*
X44516917Y7052675D01*
X44562790Y7041369D01*
X44620798Y7008653D01*
X45782504Y5846947D01*
X45815989Y5785624D01*
X45811005Y5715932D01*
X45769133Y5659999D01*
X45703669Y5635582D01*
X45637198Y5649469D01*
X45566290Y5686684D01*
X45447951Y5715852D01*
X45387571Y5751009D01*
X45375577Y5765809D01*
X45287665Y5893173D01*
X45287659Y5893179D01*
X45172513Y5995190D01*
X45036290Y6066684D01*
X44886922Y6103500D01*
X44886921Y6103500D01*
X44886056Y6103500D01*
X44885444Y6103680D01*
X44879477Y6104404D01*
X44879597Y6105397D01*
X44819017Y6123185D01*
X44784006Y6157060D01*
X44717665Y6253173D01*
X44717659Y6253179D01*
X44602513Y6355190D01*
X44466290Y6426684D01*
X44316922Y6463500D01*
X44316921Y6463500D01*
X44163079Y6463500D01*
X44163078Y6463500D01*
X44013709Y6426684D01*
X43877486Y6355190D01*
X43762340Y6253179D01*
X43762334Y6253172D01*
X43674945Y6126567D01*
X43620391Y5982721D01*
X43620390Y5982719D01*
X43601847Y5830000D01*
X43620390Y5677282D01*
X43620391Y5677280D01*
X43672111Y5540905D01*
X43674945Y5533434D01*
X43691791Y5509029D01*
X43762336Y5406826D01*
X43762338Y5406824D01*
X43762340Y5406822D01*
X43877486Y5304811D01*
X43877488Y5304810D01*
X44013708Y5233317D01*
X44088393Y5214909D01*
X44163078Y5196500D01*
X44163079Y5196500D01*
X44163944Y5196500D01*
X44164555Y5196321D01*
X44170523Y5195596D01*
X44170402Y5194604D01*
X44230983Y5176815D01*
X44265993Y5142941D01*
X44279764Y5122990D01*
X44332334Y5046828D01*
X44332340Y5046822D01*
X44447486Y4944811D01*
X44447488Y4944810D01*
X44583708Y4873317D01*
X44702047Y4844149D01*
X44762428Y4808993D01*
X44774422Y4794192D01*
X44862334Y4666829D01*
X44862337Y4666825D01*
X44870875Y4659261D01*
X44908000Y4600071D01*
X44911742Y4551502D01*
X44901847Y4470001D01*
X44920390Y4317282D01*
X44920391Y4317280D01*
X44970558Y4185000D01*
X44974945Y4173434D01*
X44997793Y4140333D01*
X45062336Y4046826D01*
X45062338Y4046824D01*
X45062340Y4046822D01*
X45177486Y3944811D01*
X45177488Y3944810D01*
X45313708Y3873317D01*
X45432047Y3844149D01*
X45492428Y3808993D01*
X45504422Y3794192D01*
X45504944Y3793436D01*
X45592336Y3666826D01*
X45592338Y3666824D01*
X45592340Y3666822D01*
X45707486Y3564811D01*
X45820125Y3505694D01*
X45870338Y3457109D01*
X45886500Y3395897D01*
X45886500Y2459072D01*
X45866815Y2392033D01*
X45850181Y2371391D01*
X44470181Y991391D01*
X44408858Y957906D01*
X44339166Y962890D01*
X44283233Y1004762D01*
X44258816Y1070226D01*
X44258500Y1079072D01*
X44258500Y1199331D01*
X44250262Y1240742D01*
X44256489Y1310334D01*
X44299351Y1365512D01*
X44314246Y1374727D01*
X44352512Y1394810D01*
X44467664Y1496826D01*
X44555056Y1623436D01*
X44609609Y1767280D01*
X44628153Y1920000D01*
X44609609Y2072720D01*
X44555056Y2216564D01*
X44467664Y2343174D01*
X44467661Y2343177D01*
X44467659Y2343179D01*
X44352513Y2445190D01*
X44264682Y2491286D01*
X44217689Y2515950D01*
X44167478Y2564532D01*
X44151503Y2632551D01*
X44174837Y2698409D01*
X44217689Y2735541D01*
X44292512Y2774810D01*
X44407664Y2876826D01*
X44495056Y3003436D01*
X44549609Y3147280D01*
X44568153Y3300000D01*
X44549609Y3452720D01*
X44495056Y3596564D01*
X44407664Y3723174D01*
X44407661Y3723177D01*
X44407659Y3723179D01*
X44292513Y3825190D01*
X44156290Y3896684D01*
X44006922Y3933500D01*
X44006921Y3933500D01*
X43853079Y3933500D01*
X43853078Y3933500D01*
X43703709Y3896684D01*
X43567486Y3825190D01*
X43452340Y3723179D01*
X43452334Y3723172D01*
X43364945Y3596567D01*
X43310391Y3452721D01*
X43310390Y3452719D01*
X43294413Y3321134D01*
X43291847Y3300000D01*
X43298592Y3244446D01*
X43287133Y3175524D01*
X43240230Y3123738D01*
X43175497Y3105500D01*
X43144234Y3105500D01*
X42997863Y3066281D01*
X42866635Y2990515D01*
X42866632Y2990513D01*
X42759487Y2883368D01*
X42759485Y2883365D01*
X42683719Y2752137D01*
X42662819Y2674135D01*
X42644500Y2605766D01*
X42644500Y2454234D01*
X42683491Y2308715D01*
X42683720Y2307863D01*
X42683721Y2307860D01*
X42691434Y2294501D01*
X42707908Y2226601D01*
X42685056Y2160574D01*
X42630136Y2117383D01*
X42584048Y2108500D01*
X42050666Y2108500D01*
X41901360Y2078801D01*
X41831768Y2085028D01*
X41776591Y2127891D01*
X41753347Y2193781D01*
X41767374Y2258047D01*
X41770032Y2263113D01*
X41770037Y2263119D01*
X41831048Y2423993D01*
X41851787Y2594794D01*
X41849387Y2614564D01*
X41831048Y2765596D01*
X41770037Y2926468D01*
X41770037Y2926469D01*
X41706615Y3018351D01*
X41684733Y3084703D01*
X41692725Y3132762D01*
X41709609Y3177280D01*
X41728153Y3330000D01*
X41709609Y3482720D01*
X41655056Y3626564D01*
X41567664Y3753174D01*
X41567661Y3753177D01*
X41567659Y3753179D01*
X41452513Y3855190D01*
X41316290Y3926684D01*
X41166922Y3963500D01*
X41166921Y3963500D01*
X41013079Y3963500D01*
X41013078Y3963500D01*
X40863709Y3926684D01*
X40727486Y3855190D01*
X40612340Y3753179D01*
X40612334Y3753172D01*
X40524945Y3626567D01*
X40470391Y3482721D01*
X40470390Y3482719D01*
X40463305Y3424367D01*
X40435682Y3360190D01*
X40377748Y3321134D01*
X40307895Y3319599D01*
X40261625Y3344535D01*
X40261602Y3344500D01*
X40261286Y3344718D01*
X40257985Y3346497D01*
X40255430Y3348760D01*
X40224395Y3365049D01*
X40174183Y3413634D01*
X40158209Y3481654D01*
X40162247Y3506938D01*
X40188500Y3604915D01*
X40188500Y8434121D01*
X40208185Y8501160D01*
X40260989Y8546915D01*
X40303771Y8557813D01*
X42567366Y8717403D01*
X42635622Y8702482D01*
X42684977Y8653027D01*
X42699760Y8584739D01*
X42686016Y8539987D01*
X42686831Y8539649D01*
X42683720Y8532138D01*
X42683719Y8532136D01*
X42683719Y8532135D01*
X42644500Y8385766D01*
X42644500Y8234234D01*
X42651062Y8209743D01*
X42683719Y8087864D01*
X42716837Y8030503D01*
X42759485Y7956635D01*
X42866635Y7849485D01*
X42997865Y7773719D01*
X43144234Y7734500D01*
X43144236Y7734500D01*
X43295764Y7734500D01*
X43295766Y7734500D01*
X43442135Y7773719D01*
X43573365Y7849485D01*
X43680515Y7956635D01*
X43756281Y8087865D01*
X43795500Y8234234D01*
X43795500Y8385766D01*
X43756281Y8532135D01*
X43706154Y8618957D01*
X43689682Y8686854D01*
X43712534Y8752881D01*
X43767455Y8796072D01*
X43804813Y8804647D01*
X45824683Y8947054D01*
X45892938Y8932133D01*
X45902292Y8926463D01*
X46022289Y8846283D01*
X46022295Y8846280D01*
X46022296Y8846279D01*
X46205831Y8770256D01*
X46400666Y8731501D01*
X46400670Y8731500D01*
X46400671Y8731500D01*
X47399330Y8731500D01*
X47399331Y8731501D01*
X47594169Y8770256D01*
X47777704Y8846279D01*
X47942881Y8956647D01*
X48060476Y9074243D01*
X48121795Y9107725D01*
X48139409Y9110249D01*
X49816781Y9228509D01*
X49885037Y9213588D01*
G37*
%TD.AperFunction*%
%TA.AperFunction,Conductor*%
G36*
X27047524Y-5061044D02*
G01*
X27096657Y-5110720D01*
X27111500Y-5169548D01*
X27111500Y-9141693D01*
X27091815Y-9208732D01*
X27039011Y-9254487D01*
X26969853Y-9264431D01*
X26906297Y-9235406D01*
X26905273Y-9234508D01*
X26835432Y-9172634D01*
X26683079Y-9092673D01*
X26516028Y-9051500D01*
X26461845Y-9051500D01*
X26394806Y-9031815D01*
X26349051Y-8979011D01*
X26337845Y-8927500D01*
X26337845Y-7891141D01*
X26357530Y-7824102D01*
X26359796Y-7820700D01*
X26409754Y-7748325D01*
X26441954Y-7701675D01*
X26502965Y-7540801D01*
X26523704Y-7370000D01*
X26518523Y-7327326D01*
X26502965Y-7199198D01*
X26472360Y-7118500D01*
X26441954Y-7038325D01*
X26344215Y-6896727D01*
X26344213Y-6896725D01*
X26344210Y-6896722D01*
X26215432Y-6782634D01*
X26063079Y-6702673D01*
X25968230Y-6679296D01*
X25907849Y-6644140D01*
X25876061Y-6581920D01*
X25882957Y-6512392D01*
X25895853Y-6488461D01*
X25941954Y-6421675D01*
X26002965Y-6260801D01*
X26023704Y-6090000D01*
X26023197Y-6085828D01*
X26002965Y-5919199D01*
X25990701Y-5886861D01*
X25961519Y-5809915D01*
X25956153Y-5740257D01*
X25989300Y-5678750D01*
X26050438Y-5644929D01*
X26092198Y-5645456D01*
X26092512Y-5642878D01*
X26099957Y-5643782D01*
X26099958Y-5643782D01*
X26272014Y-5643782D01*
X26439065Y-5602608D01*
X26439065Y-5602607D01*
X26439069Y-5602607D01*
X26591416Y-5522649D01*
X26720201Y-5408555D01*
X26817940Y-5266957D01*
X26871558Y-5125577D01*
X26913736Y-5069874D01*
X26979333Y-5045817D01*
X27047524Y-5061044D01*
G37*
%TD.AperFunction*%
%TA.AperFunction,Conductor*%
G36*
X26131590Y-2237563D02*
G01*
X26151518Y-2247882D01*
X26151615Y-2247699D01*
X26158254Y-2251183D01*
X26158256Y-2251185D01*
X26310603Y-2331143D01*
X26310605Y-2331143D01*
X26310606Y-2331144D01*
X26477658Y-2372318D01*
X26649714Y-2372318D01*
X26816765Y-2331144D01*
X26816765Y-2331143D01*
X26816769Y-2331143D01*
X26929876Y-2271779D01*
X26998383Y-2258055D01*
X27063436Y-2283548D01*
X27104380Y-2340164D01*
X27111500Y-2381577D01*
X27111500Y-4701015D01*
X27091815Y-4768054D01*
X27039011Y-4813809D01*
X26969853Y-4823753D01*
X26906297Y-4794728D01*
X26871558Y-4744986D01*
X26839932Y-4661596D01*
X26817940Y-4603607D01*
X26720201Y-4462009D01*
X26720199Y-4462007D01*
X26720196Y-4462004D01*
X26591418Y-4347916D01*
X26439065Y-4267955D01*
X26272014Y-4226782D01*
X26099958Y-4226782D01*
X26099955Y-4226782D01*
X26083895Y-4230740D01*
X26014093Y-4227668D01*
X25957032Y-4187346D01*
X25935789Y-4147069D01*
X25920199Y-4096794D01*
X25866571Y-4013348D01*
X25846887Y-3946311D01*
X25866571Y-3879272D01*
X25868839Y-3875867D01*
X25872711Y-3870257D01*
X25879242Y-3860796D01*
X25940253Y-3699922D01*
X25960992Y-3529121D01*
X25950758Y-3444832D01*
X25940253Y-3358319D01*
X25883863Y-3209631D01*
X25878496Y-3139968D01*
X25897753Y-3095222D01*
X25954591Y-3012880D01*
X26015602Y-2852006D01*
X26036341Y-2681205D01*
X26032997Y-2653668D01*
X26015602Y-2510404D01*
X26000734Y-2471200D01*
X25972953Y-2397948D01*
X25967587Y-2328290D01*
X26000734Y-2266783D01*
X26061872Y-2232962D01*
X26131590Y-2237563D01*
G37*
%TD.AperFunction*%
%TA.AperFunction,Conductor*%
G36*
X26275504Y3803837D02*
G01*
X26331437Y3761965D01*
X26355854Y3696501D01*
X26356170Y3687655D01*
X26356170Y3630875D01*
X26336485Y3563836D01*
X26319851Y3543194D01*
X26076766Y3300110D01*
X26076762Y3300104D01*
X25996653Y3161352D01*
X25996652Y3161351D01*
X25981165Y3103547D01*
X25981165Y3103546D01*
X25955186Y3006591D01*
X25955186Y2646647D01*
X25935501Y2579608D01*
X25882697Y2533853D01*
X25813539Y2523909D01*
X25749983Y2552934D01*
X25712209Y2611712D01*
X25709865Y2621478D01*
X25694558Y2682146D01*
X25694552Y2682167D01*
X25648691Y2800154D01*
X25561746Y2917638D01*
X25553012Y2926469D01*
X25511743Y2968196D01*
X25478596Y3029702D01*
X25483965Y3099366D01*
X25512222Y3143070D01*
X26144490Y3775337D01*
X26205812Y3808821D01*
X26275504Y3803837D01*
G37*
%TD.AperFunction*%
%TD*%
%TA.AperFunction,Conductor*%
%TO.N,+2V8*%
G36*
X13896080Y16429815D02*
G01*
X13941835Y16377011D01*
X13951885Y16342388D01*
X13987697Y16081840D01*
X13987698Y16081834D01*
X14063380Y15811725D01*
X14065995Y15805704D01*
X14074645Y15736372D01*
X14044438Y15673369D01*
X13984965Y15636699D01*
X13915107Y15638004D01*
X13894632Y15646512D01*
X13893082Y15647326D01*
X13893083Y15647326D01*
X13726028Y15688500D01*
X13553972Y15688500D01*
X13386920Y15647327D01*
X13234567Y15567366D01*
X13105789Y15453278D01*
X13105786Y15453275D01*
X13008045Y15311674D01*
X12947034Y15150802D01*
X12926296Y14980001D01*
X12926296Y14980000D01*
X12947034Y14809199D01*
X13006776Y14651674D01*
X13008046Y14648325D01*
X13105785Y14506727D01*
X13105786Y14506726D01*
X13105789Y14506723D01*
X13234567Y14392635D01*
X13234568Y14392635D01*
X13234570Y14392633D01*
X13386917Y14312675D01*
X13386919Y14312675D01*
X13386920Y14312674D01*
X13553972Y14271500D01*
X13726028Y14271500D01*
X13893079Y14312674D01*
X13893079Y14312675D01*
X13893083Y14312675D01*
X14045430Y14392633D01*
X14174215Y14506727D01*
X14271954Y14648325D01*
X14332965Y14809199D01*
X14351758Y14963975D01*
X14379380Y15028152D01*
X14437314Y15067209D01*
X14507167Y15068744D01*
X14559488Y15039654D01*
X14702931Y14905688D01*
X14932103Y14743920D01*
X14932102Y14743920D01*
X14932104Y14743919D01*
X15181170Y14614864D01*
X15356153Y14552675D01*
X15440677Y14522635D01*
X15445489Y14520925D01*
X15445491Y14520925D01*
X15445500Y14520922D01*
X15625315Y14483557D01*
X15720136Y14463853D01*
X15720137Y14463852D01*
X15738054Y14462627D01*
X16000000Y14444709D01*
X16279862Y14463852D01*
X16427005Y14494429D01*
X16554499Y14520922D01*
X16554504Y14520924D01*
X16554511Y14520925D01*
X16818830Y14614864D01*
X17067896Y14743919D01*
X17297069Y14905688D01*
X17502081Y15097155D01*
X17679111Y15314754D01*
X17824862Y15554432D01*
X17830481Y15567367D01*
X17859465Y15634096D01*
X17936620Y15811725D01*
X18012303Y16081839D01*
X18048114Y16342387D01*
X18076744Y16406119D01*
X18135286Y16444258D01*
X18170959Y16449500D01*
X23625412Y16449500D01*
X23692451Y16429815D01*
X23738206Y16377011D01*
X23748150Y16307853D01*
X23747462Y16304323D01*
X23726296Y16130001D01*
X23726296Y16130000D01*
X23747034Y15959199D01*
X23808045Y15798327D01*
X23808046Y15798325D01*
X23889720Y15680001D01*
X23905786Y15656726D01*
X23905789Y15656723D01*
X24034567Y15542635D01*
X24034568Y15542635D01*
X24034570Y15542633D01*
X24186917Y15462675D01*
X24186919Y15462675D01*
X24186920Y15462674D01*
X24353972Y15421500D01*
X24381402Y15421500D01*
X24448441Y15401815D01*
X24494196Y15349011D01*
X24504498Y15312447D01*
X24517035Y15209198D01*
X24574861Y15056723D01*
X24578046Y15048325D01*
X24675378Y14907317D01*
X24675786Y14906726D01*
X24675789Y14906723D01*
X24804567Y14792635D01*
X24804568Y14792635D01*
X24804570Y14792633D01*
X24956917Y14712675D01*
X24956919Y14712675D01*
X24956920Y14712674D01*
X25123972Y14671500D01*
X25296028Y14671500D01*
X25463079Y14712674D01*
X25463079Y14712675D01*
X25463083Y14712675D01*
X25615430Y14792633D01*
X25744215Y14906727D01*
X25841954Y15048325D01*
X25902965Y15209199D01*
X25907055Y15242889D01*
X25934675Y15307066D01*
X25992609Y15346123D01*
X26062461Y15347659D01*
X26122056Y15311187D01*
X26152471Y15248284D01*
X26153247Y15242892D01*
X26157035Y15211698D01*
X26215808Y15056726D01*
X26218046Y15050825D01*
X26309763Y14917952D01*
X26315786Y14909226D01*
X26315789Y14909223D01*
X26444567Y14795135D01*
X26444568Y14795135D01*
X26444570Y14795133D01*
X26596917Y14715175D01*
X26596919Y14715175D01*
X26596920Y14715174D01*
X26763972Y14674000D01*
X26936028Y14674000D01*
X27103079Y14715174D01*
X27103079Y14715175D01*
X27103083Y14715175D01*
X27255430Y14795133D01*
X27384215Y14909227D01*
X27481954Y15050825D01*
X27542965Y15211699D01*
X27563704Y15382500D01*
X27561717Y15398869D01*
X27542965Y15553302D01*
X27507306Y15647327D01*
X27481954Y15714175D01*
X27384215Y15855773D01*
X27384213Y15855775D01*
X27384210Y15855778D01*
X27255432Y15969866D01*
X27191771Y16003278D01*
X27103083Y16049825D01*
X27103082Y16049826D01*
X27103079Y16049827D01*
X26936028Y16091000D01*
X26763972Y16091000D01*
X26596920Y16049827D01*
X26444567Y15969866D01*
X26315789Y15855778D01*
X26315786Y15855775D01*
X26218045Y15714174D01*
X26157035Y15553303D01*
X26152944Y15519611D01*
X26125322Y15455433D01*
X26067387Y15416377D01*
X25997534Y15414842D01*
X25937941Y15451317D01*
X25907527Y15514220D01*
X25906752Y15519612D01*
X25906548Y15521292D01*
X25902965Y15550801D01*
X25841954Y15711675D01*
X25744215Y15853273D01*
X25744213Y15853275D01*
X25744210Y15853278D01*
X25615432Y15967366D01*
X25463079Y16047327D01*
X25296028Y16088500D01*
X25268598Y16088500D01*
X25201559Y16108185D01*
X25155804Y16160989D01*
X25145502Y16197553D01*
X25132061Y16308246D01*
X25134755Y16308574D01*
X25137254Y16365609D01*
X25177565Y16422677D01*
X25242330Y16448893D01*
X25254588Y16449500D01*
X39413195Y16449500D01*
X39480234Y16429815D01*
X39525989Y16377011D01*
X39535933Y16307853D01*
X39506908Y16244297D01*
X39495422Y16232685D01*
X39405789Y16153278D01*
X39405786Y16153275D01*
X39308045Y16011674D01*
X39247034Y15850802D01*
X39226296Y15680001D01*
X39226296Y15680000D01*
X39237197Y15590216D01*
X39225736Y15521292D01*
X39216151Y15504830D01*
X39138047Y15391677D01*
X39138046Y15391676D01*
X39077034Y15230802D01*
X39056296Y15060001D01*
X39056296Y15060000D01*
X39077034Y14889199D01*
X39137876Y14728773D01*
X39138046Y14728325D01*
X39235785Y14586727D01*
X39235786Y14586726D01*
X39235789Y14586723D01*
X39364567Y14472635D01*
X39364568Y14472635D01*
X39364570Y14472633D01*
X39516917Y14392675D01*
X39576132Y14378080D01*
X39582445Y14376524D01*
X39642825Y14341368D01*
X39674614Y14279149D01*
X39675866Y14241181D01*
X39656296Y14080001D01*
X39656296Y14080000D01*
X39677034Y13909199D01*
X39732853Y13762018D01*
X39738046Y13748325D01*
X39833839Y13609546D01*
X39835786Y13606726D01*
X39835789Y13606723D01*
X39961542Y13495315D01*
X39998669Y13436126D01*
X39997901Y13366260D01*
X39959483Y13307901D01*
X39895612Y13279576D01*
X39879315Y13278500D01*
X39793972Y13278500D01*
X39626920Y13237327D01*
X39474567Y13157366D01*
X39345789Y13043278D01*
X39345784Y13043273D01*
X39295118Y12969871D01*
X39240834Y12925882D01*
X39171386Y12918224D01*
X39108821Y12949328D01*
X39105388Y12952632D01*
X38858250Y13199770D01*
X38858248Y13199772D01*
X38788871Y13239827D01*
X38719495Y13279882D01*
X38623183Y13305688D01*
X38623182Y13305689D01*
X38580393Y13317154D01*
X38564732Y13321350D01*
X38564731Y13321350D01*
X38059567Y13321350D01*
X38001941Y13335554D01*
X37916922Y13380176D01*
X37916923Y13380176D01*
X37749868Y13421350D01*
X37577812Y13421350D01*
X37410760Y13380177D01*
X37258407Y13300216D01*
X37129629Y13186128D01*
X37129626Y13186125D01*
X37031885Y13044524D01*
X36970874Y12883652D01*
X36950136Y12712851D01*
X36950136Y12712850D01*
X36965218Y12588631D01*
X36953757Y12519707D01*
X36906853Y12467922D01*
X36839397Y12449715D01*
X36772806Y12470868D01*
X36754441Y12486004D01*
X36124702Y13115743D01*
X36091217Y13177066D01*
X36088383Y13203424D01*
X36088383Y14185707D01*
X36108068Y14252746D01*
X36110316Y14256123D01*
X36111837Y14258325D01*
X36172848Y14419199D01*
X36193587Y14590000D01*
X36187104Y14643388D01*
X36198564Y14712307D01*
X36245467Y14764094D01*
X36312922Y14782302D01*
X36379514Y14761150D01*
X36412248Y14728775D01*
X36471190Y14643384D01*
X36475786Y14636726D01*
X36475789Y14636723D01*
X36604567Y14522635D01*
X36604568Y14522635D01*
X36604570Y14522633D01*
X36756917Y14442675D01*
X36756919Y14442675D01*
X36756920Y14442674D01*
X36923972Y14401500D01*
X37096028Y14401500D01*
X37263079Y14442674D01*
X37263079Y14442675D01*
X37263083Y14442675D01*
X37415430Y14522633D01*
X37544215Y14636727D01*
X37641954Y14778325D01*
X37702965Y14939199D01*
X37723704Y15110000D01*
X37719130Y15147675D01*
X37702965Y15280802D01*
X37664396Y15382500D01*
X37641954Y15441675D01*
X37544215Y15583273D01*
X37544213Y15583275D01*
X37544210Y15583278D01*
X37415432Y15697366D01*
X37263079Y15777327D01*
X37096028Y15818500D01*
X36923972Y15818500D01*
X36756920Y15777327D01*
X36604567Y15697366D01*
X36475789Y15583278D01*
X36475786Y15583275D01*
X36378045Y15441674D01*
X36317034Y15280802D01*
X36296296Y15110001D01*
X36296296Y15110000D01*
X36302778Y15056615D01*
X36291317Y14987692D01*
X36244414Y14935906D01*
X36176958Y14917699D01*
X36110367Y14938852D01*
X36077634Y14971226D01*
X36014098Y15063273D01*
X36014096Y15063275D01*
X36014093Y15063278D01*
X35885315Y15177366D01*
X35750192Y15248284D01*
X35732966Y15257325D01*
X35732965Y15257326D01*
X35732962Y15257327D01*
X35565911Y15298500D01*
X35393855Y15298500D01*
X35226803Y15257327D01*
X35074450Y15177366D01*
X34945672Y15063278D01*
X34945669Y15063275D01*
X34847928Y14921674D01*
X34786917Y14760802D01*
X34766179Y14590001D01*
X34766179Y14590000D01*
X34786917Y14419199D01*
X34847928Y14258326D01*
X34847929Y14258325D01*
X34849431Y14256149D01*
X34850040Y14254302D01*
X34851415Y14251683D01*
X34850979Y14251455D01*
X34871316Y14189797D01*
X34871383Y14185707D01*
X34871383Y14009799D01*
X34851698Y13942760D01*
X34798894Y13897005D01*
X34777058Y13889402D01*
X34641116Y13855896D01*
X34571313Y13858965D01*
X34514251Y13899285D01*
X34495499Y13932322D01*
X34494196Y13935757D01*
X34453742Y14042428D01*
X34356003Y14184026D01*
X34356001Y14184028D01*
X34355998Y14184031D01*
X34227220Y14298119D01*
X34074867Y14378080D01*
X33907816Y14419253D01*
X33735760Y14419253D01*
X33568708Y14378080D01*
X33416355Y14298119D01*
X33287577Y14184031D01*
X33287574Y14184028D01*
X33189833Y14042427D01*
X33128822Y13881555D01*
X33108084Y13710754D01*
X33108084Y13710753D01*
X33128822Y13539952D01*
X33149015Y13486710D01*
X33154382Y13417047D01*
X33121235Y13355541D01*
X33062748Y13322342D01*
X32903083Y13282989D01*
X32750730Y13203028D01*
X32621952Y13088940D01*
X32621949Y13088937D01*
X32524208Y12947336D01*
X32463197Y12786464D01*
X32442459Y12615663D01*
X32442459Y12615662D01*
X32463197Y12444861D01*
X32516316Y12304799D01*
X32524209Y12283987D01*
X32621948Y12142389D01*
X32621949Y12142388D01*
X32621952Y12142385D01*
X32750730Y12028297D01*
X32750731Y12028297D01*
X32750733Y12028295D01*
X32903080Y11948337D01*
X32925229Y11942878D01*
X32985610Y11907723D01*
X33011497Y11866454D01*
X33013429Y11861361D01*
X33014845Y11857627D01*
X33014845Y11857626D01*
X33109540Y11720440D01*
X33131424Y11654086D01*
X33113959Y11586434D01*
X33062692Y11538963D01*
X33007491Y11525999D01*
X32951471Y11525999D01*
X32784417Y11484825D01*
X32681147Y11430625D01*
X32612638Y11416901D01*
X32565896Y11430626D01*
X32556014Y11435813D01*
X32556015Y11435813D01*
X32388960Y11476987D01*
X32216904Y11476987D01*
X32049852Y11435814D01*
X31897499Y11355853D01*
X31768721Y11241765D01*
X31768713Y11241756D01*
X31668546Y11096640D01*
X31614263Y11052650D01*
X31544815Y11044991D01*
X31482250Y11076095D01*
X31464450Y11096636D01*
X31378343Y11221383D01*
X31378341Y11221385D01*
X31378338Y11221388D01*
X31249560Y11335476D01*
X31151494Y11386945D01*
X31097211Y11415435D01*
X31097210Y11415436D01*
X31097207Y11415437D01*
X30930156Y11456610D01*
X30758100Y11456610D01*
X30591048Y11415437D01*
X30438695Y11335476D01*
X30309917Y11221388D01*
X30309914Y11221385D01*
X30212173Y11079784D01*
X30151162Y10918912D01*
X30130424Y10748111D01*
X30130424Y10748110D01*
X30151162Y10577309D01*
X30210838Y10419958D01*
X30212174Y10416435D01*
X30308705Y10276587D01*
X30309914Y10274836D01*
X30309917Y10274833D01*
X30408173Y10187786D01*
X30445300Y10128597D01*
X30444532Y10058732D01*
X30427996Y10024531D01*
X30354627Y9918240D01*
X30354627Y9918239D01*
X30293615Y9757365D01*
X30272877Y9586564D01*
X30272877Y9586563D01*
X30293615Y9415762D01*
X30354626Y9254890D01*
X30354627Y9254888D01*
X30452366Y9113290D01*
X30452367Y9113289D01*
X30452370Y9113286D01*
X30581148Y8999198D01*
X30581149Y8999198D01*
X30581151Y8999196D01*
X30733498Y8919238D01*
X30733500Y8919238D01*
X30733501Y8919237D01*
X30900553Y8878063D01*
X31072609Y8878063D01*
X31239664Y8919238D01*
X31306753Y8954450D01*
X31375260Y8968175D01*
X31440313Y8942683D01*
X31481258Y8886067D01*
X31487474Y8829711D01*
X31486296Y8820007D01*
X31486296Y8820000D01*
X31500540Y8702689D01*
X31489080Y8633766D01*
X31442176Y8581980D01*
X31390390Y8564421D01*
X30826642Y8505242D01*
X30757913Y8517820D01*
X30756071Y8518767D01*
X30701656Y8547326D01*
X30534603Y8588500D01*
X30362547Y8588500D01*
X30195492Y8547326D01*
X30110474Y8502704D01*
X30052848Y8488500D01*
X29948834Y8488500D01*
X29881795Y8508185D01*
X29861153Y8524819D01*
X28523547Y9862425D01*
X28523545Y9862427D01*
X28384791Y9942537D01*
X28307409Y9963271D01*
X28307408Y9963272D01*
X28234996Y9982674D01*
X28230029Y9984005D01*
X28230028Y9984005D01*
X27448591Y9984005D01*
X27381552Y10003690D01*
X27335797Y10056494D01*
X27324591Y10108005D01*
X27324591Y10401798D01*
X27344276Y10468837D01*
X27346524Y10472214D01*
X27348045Y10474416D01*
X27409056Y10635290D01*
X27429795Y10806091D01*
X27418532Y10898852D01*
X27415654Y10922554D01*
X27427114Y10991477D01*
X27474018Y11043263D01*
X27538750Y11061500D01*
X27586028Y11061500D01*
X27753079Y11102674D01*
X27753079Y11102675D01*
X27753083Y11102675D01*
X27905430Y11182633D01*
X28034215Y11296727D01*
X28131954Y11438325D01*
X28156030Y11501810D01*
X28198207Y11557512D01*
X28263805Y11581570D01*
X28331995Y11566343D01*
X28354197Y11550657D01*
X28384235Y11524045D01*
X28536582Y11444087D01*
X28536584Y11444087D01*
X28536585Y11444086D01*
X28703637Y11402912D01*
X28875693Y11402912D01*
X29042744Y11444086D01*
X29042744Y11444087D01*
X29042748Y11444087D01*
X29195095Y11524045D01*
X29323880Y11638139D01*
X29421619Y11779737D01*
X29472455Y11913783D01*
X29514633Y11969485D01*
X29580230Y11993542D01*
X29618068Y11990209D01*
X29693972Y11971500D01*
X29866028Y11971500D01*
X30033079Y12012674D01*
X30033079Y12012675D01*
X30033083Y12012675D01*
X30185430Y12092633D01*
X30314215Y12206727D01*
X30411954Y12348325D01*
X30472965Y12509199D01*
X30493704Y12680000D01*
X30492815Y12687326D01*
X30472965Y12850802D01*
X30427808Y12969871D01*
X30411954Y13011675D01*
X30314215Y13153273D01*
X30314212Y13153275D01*
X30312882Y13155203D01*
X30290999Y13221558D01*
X30298989Y13269612D01*
X30332965Y13359199D01*
X30353704Y13530000D01*
X30333900Y13693098D01*
X30345360Y13762018D01*
X30392264Y13813805D01*
X30459720Y13832012D01*
X30514618Y13817840D01*
X30651896Y13745791D01*
X30651898Y13745791D01*
X30651899Y13745790D01*
X30818951Y13704616D01*
X30991007Y13704616D01*
X31158058Y13745790D01*
X31158058Y13745791D01*
X31158062Y13745791D01*
X31299749Y13820155D01*
X31368256Y13833879D01*
X31431042Y13809275D01*
X31431159Y13809443D01*
X31431877Y13808947D01*
X31433309Y13808386D01*
X31436395Y13805829D01*
X31437325Y13805187D01*
X31437328Y13805186D01*
X31437331Y13805183D01*
X31589678Y13725225D01*
X31589680Y13725225D01*
X31589681Y13725224D01*
X31756733Y13684050D01*
X31928789Y13684050D01*
X32095840Y13725224D01*
X32095840Y13725225D01*
X32095844Y13725225D01*
X32248191Y13805183D01*
X32376976Y13919277D01*
X32474715Y14060875D01*
X32535726Y14221749D01*
X32556465Y14392550D01*
X32550413Y14442397D01*
X32535726Y14563352D01*
X32479235Y14712307D01*
X32474715Y14724225D01*
X32376976Y14865823D01*
X32376974Y14865825D01*
X32376971Y14865828D01*
X32248193Y14979916D01*
X32134376Y15039652D01*
X32095844Y15059875D01*
X32095843Y15059876D01*
X32095840Y15059877D01*
X31928789Y15101050D01*
X31756733Y15101050D01*
X31589679Y15059876D01*
X31447991Y14985513D01*
X31379482Y14971789D01*
X31316697Y14996392D01*
X31316581Y14996223D01*
X31315861Y14996720D01*
X31314429Y14997281D01*
X31311340Y14999841D01*
X31310408Y15000484D01*
X31185618Y15065979D01*
X31135406Y15114563D01*
X31119431Y15182582D01*
X31120144Y15190686D01*
X31123704Y15220000D01*
X31106290Y15363412D01*
X31102965Y15390802D01*
X31072459Y15471238D01*
X31041954Y15551675D01*
X30944215Y15693273D01*
X30944213Y15693275D01*
X30944210Y15693278D01*
X30815432Y15807366D01*
X30764647Y15834020D01*
X30663083Y15887325D01*
X30663082Y15887326D01*
X30663079Y15887327D01*
X30496028Y15928500D01*
X30323972Y15928500D01*
X30323970Y15928500D01*
X30174481Y15891655D01*
X30104679Y15894724D01*
X30062580Y15919237D01*
X30005432Y15969866D01*
X29941771Y16003278D01*
X29853083Y16049825D01*
X29853082Y16049826D01*
X29853079Y16049827D01*
X29686028Y16091000D01*
X29513972Y16091000D01*
X29346920Y16049827D01*
X29194567Y15969866D01*
X29065789Y15855778D01*
X29065786Y15855775D01*
X28968045Y15714174D01*
X28907034Y15553302D01*
X28886296Y15382501D01*
X28886296Y15382500D01*
X28907034Y15211699D01*
X28965808Y15056726D01*
X28968046Y15050825D01*
X29059763Y14917952D01*
X29065786Y14909226D01*
X29065789Y14909223D01*
X29194567Y14795135D01*
X29194568Y14795135D01*
X29194570Y14795133D01*
X29346917Y14715175D01*
X29346919Y14715175D01*
X29346920Y14715174D01*
X29513972Y14674000D01*
X29686028Y14674000D01*
X29835519Y14710846D01*
X29905319Y14707777D01*
X29947419Y14683264D01*
X30004568Y14632634D01*
X30004570Y14632633D01*
X30129359Y14567139D01*
X30179572Y14518554D01*
X30195547Y14450535D01*
X30194830Y14442397D01*
X30191275Y14413117D01*
X30191275Y14413116D01*
X30211078Y14250021D01*
X30199617Y14181098D01*
X30152714Y14129312D01*
X30085258Y14111105D01*
X30030357Y14125278D01*
X29893081Y14197326D01*
X29726028Y14238500D01*
X29553972Y14238500D01*
X29386920Y14197327D01*
X29234567Y14117366D01*
X29105789Y14003278D01*
X29105786Y14003275D01*
X29008045Y13861674D01*
X28947034Y13700802D01*
X28926296Y13530001D01*
X28926296Y13530000D01*
X28947035Y13359199D01*
X28993302Y13237201D01*
X28998669Y13167537D01*
X28965521Y13106031D01*
X28904383Y13072210D01*
X28834665Y13076812D01*
X28795135Y13100414D01*
X28732761Y13155672D01*
X28580414Y13235630D01*
X28580413Y13235631D01*
X28580410Y13235632D01*
X28413359Y13276805D01*
X28241303Y13276805D01*
X28074251Y13235632D01*
X27921898Y13155671D01*
X27793120Y13041583D01*
X27793117Y13041580D01*
X27695376Y12899979D01*
X27634366Y12739108D01*
X27615964Y12587553D01*
X27588342Y12523375D01*
X27530408Y12484319D01*
X27492868Y12478500D01*
X27413972Y12478500D01*
X27246920Y12437327D01*
X27094567Y12357366D01*
X26965789Y12243278D01*
X26965786Y12243275D01*
X26868045Y12101674D01*
X26807034Y11940802D01*
X26786296Y11770001D01*
X26786296Y11770000D01*
X26800437Y11653537D01*
X26788977Y11584614D01*
X26742073Y11532828D01*
X26677341Y11514591D01*
X26630063Y11514591D01*
X26463011Y11473418D01*
X26310658Y11393457D01*
X26217992Y11311361D01*
X26154759Y11281639D01*
X26085496Y11290823D01*
X26032192Y11335995D01*
X26011772Y11402814D01*
X26012668Y11419115D01*
X26023704Y11510000D01*
X26003927Y11672881D01*
X26002965Y11680802D01*
X25970154Y11767316D01*
X25941954Y11841675D01*
X25844215Y11983273D01*
X25844213Y11983275D01*
X25844210Y11983278D01*
X25715432Y12097366D01*
X25661860Y12125483D01*
X25563083Y12177325D01*
X25563082Y12177326D01*
X25563079Y12177327D01*
X25396028Y12218500D01*
X25223972Y12218500D01*
X25056916Y12177326D01*
X25056916Y12177325D01*
X25044097Y12170597D01*
X24975588Y12156873D01*
X24910536Y12182366D01*
X24869592Y12238982D01*
X24865758Y12308747D01*
X24884424Y12350835D01*
X24885004Y12351674D01*
X24979597Y12488715D01*
X25040608Y12649589D01*
X25048734Y12716519D01*
X25076355Y12780695D01*
X25134289Y12819752D01*
X25201505Y12821967D01*
X25243970Y12811501D01*
X25243971Y12811500D01*
X25243972Y12811500D01*
X25416028Y12811500D01*
X25583079Y12852674D01*
X25583079Y12852675D01*
X25583083Y12852675D01*
X25735430Y12932633D01*
X25864215Y13046727D01*
X25961954Y13188325D01*
X26022965Y13349199D01*
X26043704Y13520000D01*
X26043627Y13520639D01*
X26022965Y13690802D01*
X25963831Y13846726D01*
X25961954Y13851675D01*
X25864215Y13993273D01*
X25864213Y13993275D01*
X25864210Y13993278D01*
X25735432Y14107366D01*
X25655726Y14149199D01*
X25583083Y14187325D01*
X25583082Y14187326D01*
X25583079Y14187327D01*
X25416028Y14228500D01*
X25243972Y14228500D01*
X25076920Y14187327D01*
X24924567Y14107366D01*
X24795789Y13993278D01*
X24795786Y13993275D01*
X24698045Y13851674D01*
X24637035Y13690803D01*
X24628908Y13623873D01*
X24601286Y13559695D01*
X24543351Y13520639D01*
X24476137Y13518424D01*
X24433671Y13528890D01*
X24261615Y13528890D01*
X24094563Y13487717D01*
X23942210Y13407756D01*
X23813432Y13293668D01*
X23813429Y13293665D01*
X23715688Y13152064D01*
X23654677Y12991192D01*
X23633939Y12820391D01*
X23633939Y12820390D01*
X23654677Y12649589D01*
X23713960Y12493273D01*
X23715689Y12488715D01*
X23812593Y12348327D01*
X23813429Y12347116D01*
X23813432Y12347113D01*
X23942210Y12233025D01*
X23942211Y12233025D01*
X23942213Y12233023D01*
X24094560Y12153065D01*
X24094562Y12153065D01*
X24094563Y12153064D01*
X24261615Y12111890D01*
X24433671Y12111890D01*
X24600722Y12153064D01*
X24600722Y12153065D01*
X24600726Y12153065D01*
X24613543Y12159793D01*
X24682046Y12173519D01*
X24747100Y12148030D01*
X24788047Y12091416D01*
X24791886Y12021652D01*
X24773219Y11979557D01*
X24678047Y11841677D01*
X24678046Y11841676D01*
X24617034Y11680802D01*
X24596296Y11510001D01*
X24596296Y11509999D01*
X24602868Y11455868D01*
X24591407Y11386945D01*
X24544503Y11335159D01*
X24477047Y11316953D01*
X24450097Y11320526D01*
X24296028Y11358500D01*
X24123972Y11358500D01*
X23956920Y11317327D01*
X23804567Y11237366D01*
X23675789Y11123278D01*
X23675786Y11123275D01*
X23578045Y10981674D01*
X23517034Y10820802D01*
X23496296Y10650001D01*
X23496296Y10650000D01*
X23517034Y10479199D01*
X23578045Y10318327D01*
X23578046Y10318325D01*
X23675784Y10176729D01*
X23675786Y10176726D01*
X23675789Y10176723D01*
X23804567Y10062635D01*
X23804568Y10062635D01*
X23804570Y10062633D01*
X23956917Y9982675D01*
X23956919Y9982675D01*
X23956920Y9982674D01*
X24123972Y9941500D01*
X24296028Y9941500D01*
X24463079Y9982674D01*
X24463079Y9982675D01*
X24463083Y9982675D01*
X24615430Y10062633D01*
X24744215Y10176727D01*
X24791239Y10244853D01*
X24845519Y10288841D01*
X24914968Y10296501D01*
X24950912Y10284207D01*
X24983518Y10267094D01*
X25150573Y10225919D01*
X25322629Y10225919D01*
X25489680Y10267093D01*
X25489680Y10267094D01*
X25489684Y10267094D01*
X25642031Y10347052D01*
X25770816Y10461146D01*
X25842069Y10564373D01*
X25896351Y10608362D01*
X25965800Y10616022D01*
X26028364Y10584918D01*
X26060059Y10537904D01*
X26084137Y10474416D01*
X26085639Y10472240D01*
X26086248Y10470393D01*
X26087623Y10467774D01*
X26087187Y10467546D01*
X26107524Y10405888D01*
X26107591Y10401798D01*
X26107591Y9652295D01*
X26087906Y9585256D01*
X26071272Y9564614D01*
X25083080Y8576423D01*
X25083076Y8576417D01*
X25002967Y8437665D01*
X25002966Y8437664D01*
X24993881Y8403753D01*
X24993878Y8403742D01*
X24991061Y8393232D01*
X24954692Y8333575D01*
X24891843Y8303050D01*
X24822468Y8311350D01*
X24768593Y8355840D01*
X24755347Y8381364D01*
X24733995Y8437666D01*
X24691954Y8548519D01*
X24594215Y8690117D01*
X24594213Y8690119D01*
X24594210Y8690122D01*
X24465432Y8804210D01*
X24313079Y8884171D01*
X24146028Y8925344D01*
X23973972Y8925344D01*
X23806920Y8884171D01*
X23654567Y8804210D01*
X23525789Y8690122D01*
X23525786Y8690119D01*
X23428045Y8548518D01*
X23367034Y8387646D01*
X23346296Y8216845D01*
X23346296Y8216844D01*
X23367034Y8046043D01*
X23428045Y7885171D01*
X23428046Y7885169D01*
X23499479Y7781682D01*
X23525786Y7743570D01*
X23525789Y7743567D01*
X23654567Y7629479D01*
X23654568Y7629479D01*
X23654570Y7629477D01*
X23806917Y7549519D01*
X23806919Y7549519D01*
X23806920Y7549518D01*
X23973972Y7508344D01*
X24108636Y7508344D01*
X24175675Y7488659D01*
X24221430Y7435855D01*
X24231374Y7366697D01*
X24224578Y7340372D01*
X24220947Y7330801D01*
X24200209Y7160001D01*
X24200209Y7160000D01*
X24220947Y6989199D01*
X24260929Y6883776D01*
X24281959Y6828325D01*
X24322434Y6769688D01*
X24379699Y6686726D01*
X24379702Y6686723D01*
X24508480Y6572635D01*
X24508481Y6572635D01*
X24508483Y6572633D01*
X24655926Y6495249D01*
X24706137Y6446665D01*
X24722112Y6378646D01*
X24701489Y6318342D01*
X24701533Y6318319D01*
X24701387Y6318041D01*
X24700354Y6315020D01*
X24698048Y6311680D01*
X24698046Y6311676D01*
X24637034Y6150802D01*
X24616296Y5980001D01*
X24616296Y5980000D01*
X24637035Y5809199D01*
X24679267Y5697841D01*
X24684634Y5628178D01*
X24651486Y5566672D01*
X24593001Y5533473D01*
X24486920Y5507326D01*
X24486919Y5507326D01*
X24486917Y5507325D01*
X24410743Y5467346D01*
X24334567Y5427366D01*
X24205789Y5313278D01*
X24205786Y5313275D01*
X24108045Y5171674D01*
X24047034Y5010802D01*
X24026296Y4840001D01*
X24026296Y4840000D01*
X24047034Y4669199D01*
X24092850Y4548394D01*
X24108046Y4508325D01*
X24201760Y4372558D01*
X24205786Y4366726D01*
X24205789Y4366723D01*
X24334567Y4252635D01*
X24334568Y4252635D01*
X24334570Y4252633D01*
X24486917Y4172675D01*
X24541252Y4159283D01*
X24601633Y4124128D01*
X24633422Y4061909D01*
X24626527Y3992380D01*
X24599259Y3951205D01*
X24164523Y3516469D01*
X24106519Y3483754D01*
X24060648Y3472448D01*
X23908292Y3392486D01*
X23779514Y3278398D01*
X23779511Y3278395D01*
X23681770Y3136794D01*
X23620759Y2975922D01*
X23600021Y2805121D01*
X23600021Y2805119D01*
X23611644Y2709387D01*
X23600183Y2640464D01*
X23553279Y2588678D01*
X23485823Y2570472D01*
X23458873Y2574045D01*
X23292171Y2615133D01*
X23120115Y2615133D01*
X22953063Y2573960D01*
X22800710Y2493999D01*
X22671932Y2379911D01*
X22671929Y2379908D01*
X22574188Y2238307D01*
X22513177Y2077435D01*
X22492439Y1906634D01*
X22492439Y1906633D01*
X22504635Y1806183D01*
X22493174Y1737259D01*
X22446270Y1685474D01*
X22378814Y1667267D01*
X22312223Y1688420D01*
X22299319Y1698416D01*
X22178399Y1805542D01*
X22026052Y1885500D01*
X22026051Y1885501D01*
X22026048Y1885502D01*
X21973699Y1898404D01*
X21913318Y1933560D01*
X21881530Y1995780D01*
X21879374Y2018801D01*
X21879374Y3547500D01*
X21899059Y3614539D01*
X21951863Y3660294D01*
X22003374Y3671500D01*
X22164353Y3671500D01*
X22331404Y3712674D01*
X22331404Y3712675D01*
X22331408Y3712675D01*
X22483755Y3792633D01*
X22612540Y3906727D01*
X22710279Y4048325D01*
X22771290Y4209199D01*
X22792029Y4380000D01*
X22781499Y4466727D01*
X22771290Y4550802D01*
X22732841Y4652183D01*
X22710279Y4711675D01*
X22612540Y4853273D01*
X22612538Y4853275D01*
X22612535Y4853278D01*
X22483757Y4967366D01*
X22423104Y4999199D01*
X22331408Y5047325D01*
X22277231Y5060679D01*
X22216852Y5095834D01*
X22185063Y5158053D01*
X22183811Y5196022D01*
X22203722Y5360000D01*
X22182983Y5530801D01*
X22173285Y5556372D01*
X22140328Y5643273D01*
X22121972Y5691675D01*
X22024233Y5833273D01*
X22024231Y5833275D01*
X22024228Y5833278D01*
X21956377Y5893389D01*
X21919250Y5952578D01*
X21920018Y6022444D01*
X21958436Y6080803D01*
X22022307Y6109128D01*
X22068280Y6106601D01*
X22088970Y6101501D01*
X22088971Y6101500D01*
X22088972Y6101500D01*
X22261028Y6101500D01*
X22428079Y6142674D01*
X22428079Y6142675D01*
X22428083Y6142675D01*
X22580430Y6222633D01*
X22709215Y6336727D01*
X22806954Y6478325D01*
X22867965Y6639199D01*
X22888704Y6810000D01*
X22867965Y6980801D01*
X22863752Y6991909D01*
X22814882Y7120770D01*
X22806954Y7141675D01*
X22709215Y7283273D01*
X22709213Y7283275D01*
X22709210Y7283278D01*
X22580432Y7397366D01*
X22428079Y7477327D01*
X22261028Y7518500D01*
X22088972Y7518500D01*
X21921920Y7477327D01*
X21769567Y7397366D01*
X21640789Y7283278D01*
X21640786Y7283275D01*
X21543045Y7141674D01*
X21518442Y7076799D01*
X21476264Y7021096D01*
X21410666Y6997039D01*
X21342476Y7012266D01*
X21293343Y7061942D01*
X21278500Y7120770D01*
X21278500Y7527567D01*
X21298185Y7594606D01*
X21350989Y7640361D01*
X21372823Y7647964D01*
X21473083Y7672675D01*
X21625430Y7752633D01*
X21754215Y7866727D01*
X21851954Y8008325D01*
X21912965Y8169199D01*
X21933704Y8340000D01*
X21927241Y8393232D01*
X21912965Y8510802D01*
X21883498Y8588500D01*
X21851954Y8671675D01*
X21844755Y8682104D01*
X21819022Y8719385D01*
X21806432Y8737624D01*
X21784550Y8803977D01*
X21801097Y8870064D01*
X21837903Y8933814D01*
X21837904Y8933815D01*
X21837904Y8933817D01*
X21837906Y8933819D01*
X21871817Y9060377D01*
X21879374Y9088581D01*
X21879374Y9310908D01*
X21899059Y9377947D01*
X21951863Y9423702D01*
X22021021Y9433646D01*
X22033040Y9431307D01*
X22153972Y9401500D01*
X22326028Y9401500D01*
X22493079Y9442674D01*
X22493079Y9442675D01*
X22493083Y9442675D01*
X22645430Y9522633D01*
X22774215Y9636727D01*
X22871954Y9778325D01*
X22932965Y9939199D01*
X22953704Y10110000D01*
X22949426Y10145237D01*
X22932965Y10280802D01*
X22888394Y10398325D01*
X22871954Y10441675D01*
X22774215Y10583273D01*
X22741507Y10612250D01*
X22704383Y10671437D01*
X22705151Y10741302D01*
X22721688Y10775503D01*
X22771952Y10848322D01*
X22771952Y10848323D01*
X22771954Y10848325D01*
X22832965Y11009199D01*
X22853704Y11180000D01*
X22846739Y11237367D01*
X22832965Y11350802D01*
X22802692Y11430625D01*
X22771954Y11511675D01*
X22769941Y11514591D01*
X22706482Y11606527D01*
X22684599Y11672881D01*
X22685435Y11691904D01*
X22693704Y11760000D01*
X22675694Y11908327D01*
X22672965Y11930802D01*
X22641915Y12012674D01*
X22611954Y12091675D01*
X22611291Y12092635D01*
X22541695Y12193462D01*
X22519812Y12259816D01*
X22537277Y12327468D01*
X22561514Y12356714D01*
X22584105Y12376727D01*
X22681844Y12518325D01*
X22742855Y12679199D01*
X22763594Y12850000D01*
X22757526Y12899979D01*
X22742855Y13020802D01*
X22710094Y13107186D01*
X22681844Y13181675D01*
X22584105Y13323273D01*
X22584103Y13323275D01*
X22584100Y13323278D01*
X22455322Y13437366D01*
X22359386Y13487717D01*
X22302973Y13517325D01*
X22302972Y13517326D01*
X22302969Y13517327D01*
X22135918Y13558500D01*
X21963862Y13558500D01*
X21963860Y13558500D01*
X21800252Y13518175D01*
X21730450Y13521244D01*
X21673388Y13561564D01*
X21654635Y13594605D01*
X21651954Y13601675D01*
X21554215Y13743273D01*
X21554213Y13743275D01*
X21554210Y13743278D01*
X21425432Y13857366D01*
X21374647Y13884020D01*
X21273083Y13937325D01*
X21273082Y13937326D01*
X21273079Y13937327D01*
X21106028Y13978500D01*
X20933972Y13978500D01*
X20933970Y13978500D01*
X20822063Y13950918D01*
X20752261Y13953987D01*
X20695199Y13994308D01*
X20668994Y14059077D01*
X20671139Y14089049D01*
X20670014Y14089185D01*
X20691657Y14267432D01*
X20691657Y14267433D01*
X20670918Y14438234D01*
X20627289Y14553273D01*
X20609907Y14599107D01*
X20512168Y14740705D01*
X20512166Y14740707D01*
X20512163Y14740710D01*
X20383385Y14854798D01*
X20284450Y14906723D01*
X20231036Y14934757D01*
X20231035Y14934758D01*
X20231032Y14934759D01*
X20063981Y14975932D01*
X19891925Y14975932D01*
X19724873Y14934759D01*
X19572520Y14854798D01*
X19443742Y14740710D01*
X19443739Y14740707D01*
X19345998Y14599106D01*
X19284987Y14438234D01*
X19264249Y14267433D01*
X19264249Y14267432D01*
X19284987Y14096631D01*
X19345404Y13937325D01*
X19345999Y13935757D01*
X19436129Y13805183D01*
X19443739Y13794158D01*
X19448712Y13788545D01*
X19446875Y13786918D01*
X19477703Y13737771D01*
X19476937Y13667906D01*
X19438520Y13609546D01*
X19415977Y13594348D01*
X19364568Y13567367D01*
X19235789Y13453278D01*
X19235786Y13453275D01*
X19138045Y13311674D01*
X19077034Y13150802D01*
X19056296Y12980001D01*
X19056296Y12980000D01*
X19076219Y12815911D01*
X19064758Y12746988D01*
X19017854Y12695202D01*
X18950398Y12676995D01*
X18909147Y12685025D01*
X18903082Y12687326D01*
X18736028Y12728500D01*
X18563972Y12728500D01*
X18396920Y12687327D01*
X18244567Y12607366D01*
X18115789Y12493278D01*
X18115786Y12493275D01*
X18018045Y12351674D01*
X17957034Y12190802D01*
X17936296Y12020001D01*
X17936296Y12020000D01*
X17957034Y11849203D01*
X17957034Y11849201D01*
X17957035Y11849199D01*
X17959889Y11841674D01*
X17976942Y11796708D01*
X17982309Y11727044D01*
X17976942Y11708767D01*
X17917035Y11550805D01*
X17917035Y11550803D01*
X17896296Y11380001D01*
X17896296Y11380000D01*
X17917035Y11209199D01*
X17973818Y11059472D01*
X17979185Y10989808D01*
X17978274Y10985832D01*
X17977035Y10980807D01*
X17956296Y10810001D01*
X17956296Y10810000D01*
X17977034Y10639203D01*
X17977036Y10639194D01*
X17992024Y10599674D01*
X17997391Y10530011D01*
X17978133Y10485266D01*
X17948048Y10441680D01*
X17948046Y10441676D01*
X17887034Y10280802D01*
X17866296Y10110001D01*
X17866296Y10110000D01*
X17887034Y9939199D01*
X17948045Y9778327D01*
X17948046Y9778325D01*
X18021461Y9671966D01*
X18045786Y9636726D01*
X18045789Y9636723D01*
X18174567Y9522635D01*
X18174568Y9522635D01*
X18174570Y9522633D01*
X18326917Y9442675D01*
X18326919Y9442675D01*
X18326920Y9442674D01*
X18493972Y9401500D01*
X18666028Y9401500D01*
X18833079Y9442674D01*
X18833079Y9442675D01*
X18833083Y9442675D01*
X18985430Y9522633D01*
X19114215Y9636727D01*
X19211954Y9778325D01*
X19272965Y9939199D01*
X19293704Y10110000D01*
X19289426Y10145237D01*
X19272965Y10280802D01*
X19257975Y10320327D01*
X19252608Y10389990D01*
X19271868Y10434739D01*
X19276656Y10441675D01*
X19301954Y10478325D01*
X19362965Y10639199D01*
X19383704Y10810000D01*
X19382393Y10820802D01*
X19362965Y10980802D01*
X19306181Y11130529D01*
X19300814Y11200192D01*
X19301728Y11204183D01*
X19302961Y11209190D01*
X19302965Y11209199D01*
X19323704Y11380000D01*
X19321114Y11401327D01*
X19302965Y11550801D01*
X19295562Y11570320D01*
X19283056Y11603295D01*
X19277690Y11672957D01*
X19283052Y11691222D01*
X19342965Y11849199D01*
X19363704Y12020000D01*
X19363704Y12020001D01*
X19343780Y12184090D01*
X19355240Y12253013D01*
X19402144Y12304799D01*
X19469600Y12323006D01*
X19510857Y12314974D01*
X19516914Y12312677D01*
X19516917Y12312675D01*
X19683972Y12271500D01*
X19856028Y12271500D01*
X20023079Y12312674D01*
X20023079Y12312675D01*
X20023083Y12312675D01*
X20175430Y12392633D01*
X20304215Y12506727D01*
X20401954Y12648325D01*
X20401955Y12648329D01*
X20405438Y12654964D01*
X20406895Y12654199D01*
X20443628Y12702720D01*
X20509223Y12726784D01*
X20577415Y12711564D01*
X20599626Y12695872D01*
X20614570Y12682633D01*
X20766917Y12602675D01*
X20766919Y12602675D01*
X20766920Y12602674D01*
X20933972Y12561500D01*
X21106028Y12561500D01*
X21269638Y12601826D01*
X21339438Y12598757D01*
X21396500Y12558437D01*
X21415251Y12525405D01*
X21416287Y12522674D01*
X21417937Y12518323D01*
X21452727Y12467922D01*
X21473845Y12437327D01*
X21488194Y12416540D01*
X21510077Y12350185D01*
X21492612Y12282534D01*
X21468373Y12253285D01*
X21445786Y12233275D01*
X21348045Y12091674D01*
X21287034Y11930802D01*
X21266296Y11760001D01*
X21266296Y11760000D01*
X21287034Y11589199D01*
X21348045Y11428327D01*
X21348046Y11428325D01*
X21378438Y11384294D01*
X21400321Y11317941D01*
X21382856Y11250289D01*
X21331588Y11202819D01*
X21262795Y11190602D01*
X21198317Y11217517D01*
X21194161Y11221040D01*
X21085432Y11317366D01*
X20933079Y11397327D01*
X20766028Y11438500D01*
X20593972Y11438500D01*
X20426920Y11397327D01*
X20274567Y11317366D01*
X20145789Y11203278D01*
X20145786Y11203275D01*
X20048045Y11061674D01*
X19987034Y10900802D01*
X19966296Y10730001D01*
X19966296Y10730000D01*
X19987034Y10559199D01*
X20046729Y10401798D01*
X20048046Y10398325D01*
X20138629Y10267094D01*
X20145786Y10256726D01*
X20145789Y10256723D01*
X20267354Y10149026D01*
X20304481Y10089837D01*
X20303713Y10019971D01*
X20265296Y9961612D01*
X20250663Y9951746D01*
X20250744Y9951629D01*
X20244569Y9947367D01*
X20115789Y9833278D01*
X20115786Y9833275D01*
X20018045Y9691674D01*
X19957034Y9530802D01*
X19936296Y9360001D01*
X19936296Y9360000D01*
X19957034Y9189199D01*
X20018046Y9028325D01*
X20018046Y9028324D01*
X20091191Y8922357D01*
X20113074Y8856003D01*
X20104819Y8810608D01*
X20105071Y8810540D01*
X20104250Y8807477D01*
X20103703Y8804468D01*
X20102968Y8802696D01*
X20100401Y8793117D01*
X20100402Y8793116D01*
X20061500Y8647929D01*
X20061500Y7277363D01*
X20041815Y7210324D01*
X19989011Y7164569D01*
X19967175Y7156966D01*
X19846918Y7127326D01*
X19821270Y7113865D01*
X19752761Y7100142D01*
X19687709Y7125636D01*
X19647705Y7179693D01*
X19643161Y7191675D01*
X19545422Y7333273D01*
X19545420Y7333275D01*
X19545417Y7333278D01*
X19416639Y7447366D01*
X19300455Y7508344D01*
X19264290Y7527325D01*
X19264289Y7527326D01*
X19264286Y7527327D01*
X19097235Y7568500D01*
X18925179Y7568500D01*
X18758127Y7527327D01*
X18605774Y7447366D01*
X18476996Y7333278D01*
X18476993Y7333275D01*
X18379253Y7191675D01*
X18324616Y7047611D01*
X18282437Y6991909D01*
X18238352Y6971187D01*
X18208129Y6963737D01*
X18208126Y6963736D01*
X18208124Y6963735D01*
X18128854Y6922131D01*
X18055774Y6883776D01*
X17926996Y6769688D01*
X17926993Y6769685D01*
X17829252Y6628084D01*
X17768241Y6467212D01*
X17747503Y6296411D01*
X17747503Y6296410D01*
X17768241Y6125609D01*
X17829252Y5964737D01*
X17829253Y5964735D01*
X17926992Y5823137D01*
X17926993Y5823136D01*
X17926996Y5823133D01*
X18055774Y5709045D01*
X18055775Y5709045D01*
X18055777Y5709043D01*
X18208124Y5629085D01*
X18208127Y5629085D01*
X18208128Y5629084D01*
X18273461Y5612981D01*
X18333842Y5577825D01*
X18365631Y5515606D01*
X18358735Y5446077D01*
X18326015Y5399769D01*
X18311038Y5386500D01*
X18235617Y5319683D01*
X18197385Y5264295D01*
X18137877Y5178084D01*
X18076866Y5017212D01*
X18056128Y4846411D01*
X18056128Y4846410D01*
X18069343Y4737569D01*
X18057882Y4668646D01*
X18048297Y4652183D01*
X17976658Y4548396D01*
X17976657Y4548395D01*
X17915645Y4387521D01*
X17894907Y4216720D01*
X17894907Y4216719D01*
X17915645Y4045918D01*
X17968434Y3906726D01*
X17976657Y3885044D01*
X18067681Y3753174D01*
X18074397Y3743445D01*
X18074400Y3743442D01*
X18203178Y3629354D01*
X18203179Y3629354D01*
X18203181Y3629352D01*
X18355528Y3549394D01*
X18355530Y3549394D01*
X18355531Y3549393D01*
X18522583Y3508219D01*
X18694639Y3508219D01*
X18861690Y3549393D01*
X18861690Y3549394D01*
X18861694Y3549394D01*
X19014041Y3629352D01*
X19142826Y3743446D01*
X19240565Y3885044D01*
X19301576Y4045918D01*
X19322315Y4216719D01*
X19309098Y4325562D01*
X19320558Y4394482D01*
X19330141Y4410942D01*
X19401786Y4514735D01*
X19462797Y4675609D01*
X19468939Y4726196D01*
X19496560Y4790373D01*
X19510864Y4802886D01*
X19509816Y4804069D01*
X19610394Y4893174D01*
X19644215Y4923137D01*
X19741954Y5064735D01*
X19802965Y5225609D01*
X19814404Y5319819D01*
X19842026Y5383996D01*
X19899960Y5423053D01*
X19969813Y5424588D01*
X20029406Y5388114D01*
X20059821Y5325211D01*
X20061500Y5304872D01*
X20061500Y5295762D01*
X20075706Y5242742D01*
X20075707Y5242742D01*
X20102968Y5141001D01*
X20183078Y5002247D01*
X20183080Y5002245D01*
X20626055Y4559270D01*
X20659540Y4497947D01*
X20662374Y4471589D01*
X20662374Y4084973D01*
X20642689Y4017934D01*
X20589885Y3972179D01*
X20568049Y3964576D01*
X20416920Y3927327D01*
X20264567Y3847366D01*
X20135789Y3733278D01*
X20135786Y3733275D01*
X20038045Y3591674D01*
X19977034Y3430802D01*
X19956296Y3260001D01*
X19956296Y3259998D01*
X19957820Y3247445D01*
X19946359Y3178521D01*
X19899454Y3126736D01*
X19834724Y3108500D01*
X19723972Y3108500D01*
X19556920Y3067327D01*
X19404567Y2987366D01*
X19275789Y2873278D01*
X19275786Y2873275D01*
X19178045Y2731674D01*
X19117034Y2570802D01*
X19096296Y2400001D01*
X19096296Y2400000D01*
X19117034Y2229199D01*
X19164456Y2104159D01*
X19178046Y2068325D01*
X19275783Y1926730D01*
X19275786Y1926726D01*
X19275789Y1926723D01*
X19404567Y1812635D01*
X19404568Y1812635D01*
X19404570Y1812633D01*
X19556917Y1732675D01*
X19556919Y1732675D01*
X19556920Y1732674D01*
X19723972Y1691500D01*
X19896028Y1691500D01*
X20063079Y1732674D01*
X20063079Y1732675D01*
X20063083Y1732675D01*
X20215430Y1812633D01*
X20344215Y1926727D01*
X20436324Y2060170D01*
X20490607Y2104159D01*
X20560056Y2111819D01*
X20622621Y2080715D01*
X20658438Y2020724D01*
X20662374Y1989729D01*
X20662374Y1405454D01*
X20642689Y1338415D01*
X20589885Y1292660D01*
X20568050Y1285057D01*
X20430829Y1251235D01*
X20430828Y1251235D01*
X20430826Y1251234D01*
X20400943Y1235550D01*
X20278476Y1171275D01*
X20149698Y1057187D01*
X20149695Y1057184D01*
X20051954Y915583D01*
X19990943Y754711D01*
X19970205Y583910D01*
X19970205Y583909D01*
X19990943Y413108D01*
X20027579Y316508D01*
X20051955Y252234D01*
X20133369Y134287D01*
X20149695Y110635D01*
X20149698Y110632D01*
X20278476Y-3456D01*
X20278477Y-3456D01*
X20278479Y-3458D01*
X20430826Y-83416D01*
X20430828Y-83416D01*
X20430829Y-83417D01*
X20597881Y-124591D01*
X20769937Y-124591D01*
X20936992Y-83416D01*
X21019092Y-40325D01*
X21087599Y-26600D01*
X21134343Y-40325D01*
X21200028Y-74800D01*
X21367083Y-115975D01*
X21539139Y-115975D01*
X21706194Y-74800D01*
X21809589Y-20533D01*
X21878096Y-6808D01*
X21914766Y-17575D01*
X21915180Y-16484D01*
X21922187Y-19142D01*
X22089243Y-60317D01*
X22261299Y-60317D01*
X22428350Y-19143D01*
X22428350Y-19142D01*
X22428354Y-19142D01*
X22580701Y60816D01*
X22709486Y174910D01*
X22807225Y316508D01*
X22868236Y477382D01*
X22888975Y648183D01*
X22868236Y818984D01*
X22860900Y838327D01*
X22826711Y928478D01*
X22807225Y979858D01*
X22729347Y1092683D01*
X22707465Y1159035D01*
X22724930Y1226686D01*
X22776198Y1274157D01*
X22844991Y1286374D01*
X22889024Y1272917D01*
X22953060Y1239308D01*
X22953059Y1239308D01*
X23120115Y1198133D01*
X23258304Y1198133D01*
X23325343Y1178448D01*
X23340531Y1166948D01*
X23472974Y1049613D01*
X23472975Y1049613D01*
X23472977Y1049611D01*
X23625324Y969653D01*
X23625326Y969653D01*
X23625327Y969652D01*
X23792379Y928478D01*
X23964435Y928478D01*
X24131486Y969652D01*
X24131486Y969653D01*
X24131490Y969653D01*
X24283837Y1049611D01*
X24412622Y1163705D01*
X24510361Y1305303D01*
X24571372Y1466177D01*
X24592111Y1636978D01*
X24591347Y1643275D01*
X24571372Y1807780D01*
X24533882Y1906633D01*
X24510361Y1968653D01*
X24510360Y1968654D01*
X24507701Y1975666D01*
X24508989Y1976155D01*
X24496852Y2036755D01*
X24522346Y2101807D01*
X24562748Y2135665D01*
X24566804Y2137795D01*
X24566808Y2137795D01*
X24719155Y2217753D01*
X24847940Y2331847D01*
X24945679Y2473445D01*
X24971558Y2541684D01*
X25013736Y2597386D01*
X25079333Y2621443D01*
X25147524Y2606216D01*
X25196657Y2556540D01*
X25211500Y2497712D01*
X25211500Y-354819D01*
X25191815Y-421858D01*
X25139011Y-467613D01*
X25117178Y-475215D01*
X25086922Y-482673D01*
X25086919Y-482674D01*
X25086917Y-482675D01*
X25007587Y-524310D01*
X24934567Y-562634D01*
X24805789Y-676722D01*
X24805786Y-676725D01*
X24708045Y-818326D01*
X24647034Y-979198D01*
X24626296Y-1149999D01*
X24626296Y-1150000D01*
X24647034Y-1320797D01*
X24647036Y-1320806D01*
X24687462Y-1427402D01*
X24692829Y-1497065D01*
X24687462Y-1515342D01*
X24646928Y-1622222D01*
X24646926Y-1622231D01*
X24626188Y-1793028D01*
X24626188Y-1793029D01*
X24646926Y-1963830D01*
X24707937Y-2124702D01*
X24707938Y-2124704D01*
X24728282Y-2154178D01*
X24750165Y-2220531D01*
X24732700Y-2288182D01*
X24728283Y-2295056D01*
X24690683Y-2349529D01*
X24629671Y-2510403D01*
X24608933Y-2681204D01*
X24608933Y-2681205D01*
X24629672Y-2852006D01*
X24686061Y-3000694D01*
X24691428Y-3070358D01*
X24672169Y-3115104D01*
X24615337Y-3197439D01*
X24615334Y-3197445D01*
X24554322Y-3358319D01*
X24533584Y-3529120D01*
X24533584Y-3529121D01*
X24554322Y-3699922D01*
X24615333Y-3860794D01*
X24615334Y-3860796D01*
X24713073Y-4002394D01*
X24713074Y-4002395D01*
X24713077Y-4002398D01*
X24841855Y-4116486D01*
X24841856Y-4116486D01*
X24841858Y-4116488D01*
X24994205Y-4196446D01*
X24994207Y-4196446D01*
X24994208Y-4196447D01*
X25161260Y-4237621D01*
X25340309Y-4237621D01*
X25407348Y-4257306D01*
X25453103Y-4310110D01*
X25463888Y-4371829D01*
X25449406Y-4547136D01*
X25390521Y-5260000D01*
X25389884Y-5267708D01*
X25364747Y-5332900D01*
X25308356Y-5374152D01*
X25266305Y-5381500D01*
X25223972Y-5381500D01*
X25056920Y-5422673D01*
X24904567Y-5502634D01*
X24775789Y-5616722D01*
X24775786Y-5616725D01*
X24678045Y-5758326D01*
X24617034Y-5919198D01*
X24596296Y-6089999D01*
X24596296Y-6090000D01*
X24617034Y-6260801D01*
X24677971Y-6421478D01*
X24678046Y-6421675D01*
X24737599Y-6507951D01*
X24775786Y-6563274D01*
X24775789Y-6563277D01*
X24904567Y-6677365D01*
X24904568Y-6677365D01*
X24904570Y-6677367D01*
X25056917Y-6757325D01*
X25151767Y-6780703D01*
X25212148Y-6815859D01*
X25243937Y-6878078D01*
X25237041Y-6947607D01*
X25224144Y-6971539D01*
X25178046Y-7038324D01*
X25117034Y-7199198D01*
X25096296Y-7369999D01*
X25096296Y-7370000D01*
X25117035Y-7540803D01*
X25117241Y-7541639D01*
X25120845Y-7571316D01*
X25120845Y-8519502D01*
X25120424Y-8529710D01*
X25061289Y-9245571D01*
X25036152Y-9310763D01*
X24995336Y-9345159D01*
X24839956Y-9426708D01*
X24839954Y-9426710D01*
X24711174Y-9540799D01*
X24711171Y-9540802D01*
X24613430Y-9682403D01*
X24552419Y-9843275D01*
X24531681Y-10014076D01*
X24531681Y-10014077D01*
X24552419Y-10184878D01*
X24602423Y-10316727D01*
X24613431Y-10345752D01*
X24711170Y-10487350D01*
X24711171Y-10487351D01*
X24715431Y-10493522D01*
X24714399Y-10494233D01*
X24740877Y-10550572D01*
X24731690Y-10619835D01*
X24720389Y-10640000D01*
X24647392Y-10745754D01*
X24647391Y-10745755D01*
X24586379Y-10906629D01*
X24565641Y-11077430D01*
X24565641Y-11077431D01*
X24586379Y-11248232D01*
X24647391Y-11409106D01*
X24647392Y-11409107D01*
X24661844Y-11430045D01*
X24683727Y-11496400D01*
X24666262Y-11564051D01*
X24661857Y-11570905D01*
X24626044Y-11622790D01*
X24595694Y-11666758D01*
X24534683Y-11827630D01*
X24513945Y-11998431D01*
X24513945Y-11998432D01*
X24534683Y-12169233D01*
X24583394Y-12297673D01*
X24595695Y-12330107D01*
X24693434Y-12471705D01*
X24741420Y-12514217D01*
X24778545Y-12573405D01*
X24782770Y-12617238D01*
X24608635Y-14725281D01*
X24583498Y-14790473D01*
X24527107Y-14831725D01*
X24457365Y-14835941D01*
X24396414Y-14801783D01*
X24369114Y-14759044D01*
X24335913Y-14671500D01*
X24311954Y-14608325D01*
X24214215Y-14466727D01*
X24214213Y-14466725D01*
X24214210Y-14466722D01*
X24085432Y-14352634D01*
X23933079Y-14272673D01*
X23766028Y-14231500D01*
X23593972Y-14231500D01*
X23426920Y-14272673D01*
X23274567Y-14352634D01*
X23145789Y-14466722D01*
X23145786Y-14466725D01*
X23048045Y-14608326D01*
X22987034Y-14769198D01*
X22966296Y-14939999D01*
X22966296Y-14940000D01*
X22987034Y-15110801D01*
X23048046Y-15271675D01*
X23048046Y-15271676D01*
X23127691Y-15387060D01*
X23149574Y-15453414D01*
X23132109Y-15521066D01*
X23080841Y-15568536D01*
X23025641Y-15581500D01*
X20759205Y-15581500D01*
X20692166Y-15561815D01*
X20646411Y-15509011D01*
X20636109Y-15442554D01*
X20643704Y-15380000D01*
X20643704Y-15379999D01*
X20622965Y-15209198D01*
X20589850Y-15121881D01*
X20561954Y-15048325D01*
X20464215Y-14906727D01*
X20464213Y-14906725D01*
X20464210Y-14906722D01*
X20335432Y-14792634D01*
X20207102Y-14725281D01*
X20183083Y-14712675D01*
X20183082Y-14712674D01*
X20183079Y-14712673D01*
X20016028Y-14671500D01*
X19843972Y-14671500D01*
X19676920Y-14712673D01*
X19524567Y-14792634D01*
X19395789Y-14906722D01*
X19395786Y-14906725D01*
X19298045Y-15048326D01*
X19237034Y-15209198D01*
X19216296Y-15379999D01*
X19216296Y-15380000D01*
X19223891Y-15442554D01*
X19212430Y-15511477D01*
X19165526Y-15563263D01*
X19100795Y-15581500D01*
X17113411Y-15581500D01*
X17046372Y-15561815D01*
X17025730Y-15545181D01*
X16763752Y-15283203D01*
X16735492Y-15239495D01*
X16681954Y-15098325D01*
X16584215Y-14956727D01*
X16584213Y-14956725D01*
X16584210Y-14956722D01*
X16455432Y-14842634D01*
X16360163Y-14792633D01*
X16303083Y-14762675D01*
X16303082Y-14762674D01*
X16303079Y-14762673D01*
X16136028Y-14721500D01*
X15963972Y-14721500D01*
X15796920Y-14762673D01*
X15644567Y-14842634D01*
X15515789Y-14956722D01*
X15515786Y-14956725D01*
X15418045Y-15098326D01*
X15357034Y-15259198D01*
X15336296Y-15429999D01*
X15336296Y-15430000D01*
X15357034Y-15600801D01*
X15416411Y-15757365D01*
X15418046Y-15761675D01*
X15515785Y-15903273D01*
X15515786Y-15903274D01*
X15515789Y-15903277D01*
X15644567Y-16017365D01*
X15644568Y-16017365D01*
X15644570Y-16017367D01*
X15796917Y-16097325D01*
X15842790Y-16108631D01*
X15900798Y-16141347D01*
X15997270Y-16237819D01*
X16030755Y-16299142D01*
X16025771Y-16368834D01*
X15983899Y-16424767D01*
X15918435Y-16449184D01*
X15909589Y-16449500D01*
X14180396Y-16449500D01*
X14113357Y-16429815D01*
X14067602Y-16377011D01*
X14057658Y-16307853D01*
X14086683Y-16244297D01*
X14098169Y-16232685D01*
X14154787Y-16182525D01*
X14154792Y-16182521D01*
X14252531Y-16040923D01*
X14313542Y-15880049D01*
X14334281Y-15709248D01*
X14317196Y-15568536D01*
X14313542Y-15538446D01*
X14266070Y-15413273D01*
X14252531Y-15377573D01*
X14154792Y-15235975D01*
X14154790Y-15235973D01*
X14154787Y-15235970D01*
X14026009Y-15121882D01*
X13873656Y-15041921D01*
X13706605Y-15000748D01*
X13534549Y-15000748D01*
X13367497Y-15041921D01*
X13215144Y-15121882D01*
X13086366Y-15235970D01*
X13086363Y-15235973D01*
X12988622Y-15377574D01*
X12927611Y-15538446D01*
X12906873Y-15709247D01*
X12906873Y-15709248D01*
X12927611Y-15880049D01*
X12979689Y-16017367D01*
X12988623Y-16040923D01*
X13086362Y-16182521D01*
X13086363Y-16182522D01*
X13086366Y-16182525D01*
X13142985Y-16232685D01*
X13180112Y-16291874D01*
X13179344Y-16361740D01*
X13140927Y-16420099D01*
X13077056Y-16448424D01*
X13060758Y-16449500D01*
X7876575Y-16449500D01*
X7809536Y-16429815D01*
X7763781Y-16377011D01*
X7752575Y-16325791D01*
X7752066Y-16108631D01*
X7751765Y-15979827D01*
X7771292Y-15912745D01*
X7823988Y-15866867D01*
X7893123Y-15856761D01*
X7905429Y-15859141D01*
X7983972Y-15878500D01*
X8156028Y-15878500D01*
X8323079Y-15837326D01*
X8323079Y-15837325D01*
X8323083Y-15837325D01*
X8475430Y-15757367D01*
X8604215Y-15643273D01*
X8701954Y-15501675D01*
X8762965Y-15340801D01*
X8783704Y-15170000D01*
X8777862Y-15121882D01*
X8762965Y-14999198D01*
X8727895Y-14906727D01*
X8701954Y-14838325D01*
X8700446Y-14836140D01*
X8699835Y-14834288D01*
X8698467Y-14831681D01*
X8698900Y-14831453D01*
X8678567Y-14769784D01*
X8678500Y-14765705D01*
X8678500Y-14287709D01*
X8678500Y-14287707D01*
X8637032Y-14132946D01*
X8610693Y-14087325D01*
X8556922Y-13994191D01*
X8222730Y-13659999D01*
X14866296Y-13659999D01*
X14866296Y-13660000D01*
X14887034Y-13830801D01*
X14934792Y-13956727D01*
X14948046Y-13991675D01*
X15045785Y-14133273D01*
X15045786Y-14133274D01*
X15045789Y-14133277D01*
X15174567Y-14247365D01*
X15174568Y-14247365D01*
X15174570Y-14247367D01*
X15326917Y-14327325D01*
X15326919Y-14327325D01*
X15326920Y-14327326D01*
X15493972Y-14368500D01*
X15666028Y-14368500D01*
X15833079Y-14327326D01*
X15833079Y-14327325D01*
X15833083Y-14327325D01*
X15985430Y-14247367D01*
X16114215Y-14133273D01*
X16211954Y-13991675D01*
X16272965Y-13830801D01*
X16293704Y-13660000D01*
X16288523Y-13617326D01*
X16272965Y-13489198D01*
X16239772Y-13401675D01*
X16211954Y-13328325D01*
X16114215Y-13186727D01*
X16114213Y-13186725D01*
X16114210Y-13186722D01*
X15985432Y-13072634D01*
X15833079Y-12992673D01*
X15666028Y-12951500D01*
X15493972Y-12951500D01*
X15326920Y-12992673D01*
X15174567Y-13072634D01*
X15045789Y-13186722D01*
X15045786Y-13186725D01*
X14948045Y-13328326D01*
X14887034Y-13489198D01*
X14866296Y-13659999D01*
X8222730Y-13659999D01*
X7781419Y-13218688D01*
X7747934Y-13157365D01*
X7745100Y-13131306D01*
X7743717Y-12539999D01*
X19096296Y-12539999D01*
X19096296Y-12540000D01*
X19117034Y-12710801D01*
X19163239Y-12832633D01*
X19178046Y-12871675D01*
X19261566Y-12992673D01*
X19275786Y-13013274D01*
X19275789Y-13013277D01*
X19404567Y-13127365D01*
X19404568Y-13127365D01*
X19404570Y-13127367D01*
X19556917Y-13207325D01*
X19563145Y-13208860D01*
X19623524Y-13244011D01*
X19643375Y-13275658D01*
X19644562Y-13275036D01*
X19648044Y-13281672D01*
X19648045Y-13281673D01*
X19648046Y-13281675D01*
X19680246Y-13328325D01*
X19745786Y-13423274D01*
X19745789Y-13423277D01*
X19874567Y-13537365D01*
X19874568Y-13537365D01*
X19874570Y-13537367D01*
X20026917Y-13617325D01*
X20026919Y-13617325D01*
X20026920Y-13617326D01*
X20193972Y-13658500D01*
X20366028Y-13658500D01*
X20533079Y-13617326D01*
X20533079Y-13617325D01*
X20533083Y-13617325D01*
X20685430Y-13537367D01*
X20814215Y-13423273D01*
X20911954Y-13281675D01*
X20972965Y-13120801D01*
X20991883Y-12964999D01*
X21271296Y-12964999D01*
X21271296Y-12965000D01*
X21292034Y-13135801D01*
X21347357Y-13281675D01*
X21353046Y-13296675D01*
X21423839Y-13399235D01*
X21450786Y-13438274D01*
X21450789Y-13438277D01*
X21579567Y-13552365D01*
X21579568Y-13552365D01*
X21579570Y-13552367D01*
X21731917Y-13632325D01*
X21731919Y-13632325D01*
X21731920Y-13632326D01*
X21898972Y-13673500D01*
X22071028Y-13673500D01*
X22238079Y-13632326D01*
X22238079Y-13632325D01*
X22238083Y-13632325D01*
X22390430Y-13552367D01*
X22519215Y-13438273D01*
X22616954Y-13296675D01*
X22677965Y-13135801D01*
X22698704Y-12965000D01*
X22677965Y-12794199D01*
X22672276Y-12779199D01*
X22616954Y-12633326D01*
X22616954Y-12633325D01*
X22519215Y-12491727D01*
X22519213Y-12491725D01*
X22519210Y-12491722D01*
X22390432Y-12377634D01*
X22238079Y-12297673D01*
X22071028Y-12256500D01*
X21898972Y-12256500D01*
X21731920Y-12297673D01*
X21579567Y-12377634D01*
X21450789Y-12491722D01*
X21450786Y-12491725D01*
X21353045Y-12633326D01*
X21292034Y-12794198D01*
X21271296Y-12964999D01*
X20991883Y-12964999D01*
X20993704Y-12950000D01*
X20972965Y-12779199D01*
X20911954Y-12618325D01*
X20814215Y-12476727D01*
X20814213Y-12476725D01*
X20814210Y-12476722D01*
X20685432Y-12362634D01*
X20679368Y-12359451D01*
X20533083Y-12282675D01*
X20533078Y-12282673D01*
X20533075Y-12282672D01*
X20533077Y-12282672D01*
X20526844Y-12281136D01*
X20466465Y-12245976D01*
X20446626Y-12214345D01*
X20445441Y-12214968D01*
X20441958Y-12208331D01*
X20414970Y-12169233D01*
X20344215Y-12066727D01*
X20344213Y-12066725D01*
X20344210Y-12066722D01*
X20215432Y-11952634D01*
X20063079Y-11872673D01*
X19896028Y-11831500D01*
X19723972Y-11831500D01*
X19556920Y-11872673D01*
X19404567Y-11952634D01*
X19275789Y-12066722D01*
X19275786Y-12066725D01*
X19178045Y-12208326D01*
X19117034Y-12369198D01*
X19096296Y-12539999D01*
X7743717Y-12539999D01*
X7741572Y-11622790D01*
X7761100Y-11555705D01*
X7813797Y-11509826D01*
X7865572Y-11498500D01*
X10476028Y-11498500D01*
X10643079Y-11457326D01*
X10643079Y-11457325D01*
X10643083Y-11457325D01*
X10795430Y-11377367D01*
X10924215Y-11263273D01*
X10967890Y-11199999D01*
X17966296Y-11199999D01*
X17966296Y-11200000D01*
X17987034Y-11370801D01*
X18045575Y-11525159D01*
X18048046Y-11531675D01*
X18141288Y-11666758D01*
X18145786Y-11673274D01*
X18145789Y-11673277D01*
X18274567Y-11787365D01*
X18274568Y-11787365D01*
X18274570Y-11787367D01*
X18426917Y-11867325D01*
X18426919Y-11867325D01*
X18426920Y-11867326D01*
X18593972Y-11908500D01*
X18766028Y-11908500D01*
X18933079Y-11867326D01*
X18933079Y-11867325D01*
X18933083Y-11867325D01*
X19085430Y-11787367D01*
X19214215Y-11673273D01*
X19311954Y-11531675D01*
X19372965Y-11370801D01*
X19393704Y-11200000D01*
X19378822Y-11077431D01*
X19372965Y-11029198D01*
X19342459Y-10948762D01*
X19311954Y-10868325D01*
X19214215Y-10726727D01*
X19171855Y-10689199D01*
X19154837Y-10674122D01*
X19117711Y-10614932D01*
X19118479Y-10545066D01*
X19156897Y-10486707D01*
X19207388Y-10460911D01*
X19303083Y-10437325D01*
X19455430Y-10357367D01*
X19584215Y-10243273D01*
X19681954Y-10101675D01*
X19742965Y-9940801D01*
X19763704Y-9770000D01*
X19742965Y-9599199D01*
X19681954Y-9438325D01*
X19584215Y-9296727D01*
X19584213Y-9296725D01*
X19584210Y-9296722D01*
X19455432Y-9182634D01*
X19303079Y-9102673D01*
X19136028Y-9061500D01*
X18963972Y-9061500D01*
X18796920Y-9102673D01*
X18644567Y-9182634D01*
X18515789Y-9296722D01*
X18515786Y-9296725D01*
X18418045Y-9438326D01*
X18357034Y-9599198D01*
X18336296Y-9769999D01*
X18336296Y-9770000D01*
X18357034Y-9940801D01*
X18418045Y-10101673D01*
X18418046Y-10101675D01*
X18515785Y-10243273D01*
X18557283Y-10280037D01*
X18575162Y-10295877D01*
X18612288Y-10355067D01*
X18611520Y-10424933D01*
X18573102Y-10483292D01*
X18522609Y-10509089D01*
X18426920Y-10532673D01*
X18274567Y-10612634D01*
X18145789Y-10726722D01*
X18145786Y-10726725D01*
X18048045Y-10868326D01*
X17987034Y-11029198D01*
X17966296Y-11199999D01*
X10967890Y-11199999D01*
X11021954Y-11121675D01*
X11082965Y-10960801D01*
X11103704Y-10790000D01*
X11082965Y-10619199D01*
X11082317Y-10617491D01*
X11035302Y-10493522D01*
X11021954Y-10458325D01*
X10924215Y-10316727D01*
X10924213Y-10316725D01*
X10924210Y-10316722D01*
X10795432Y-10202634D01*
X10643079Y-10122673D01*
X10476028Y-10081500D01*
X10303972Y-10081500D01*
X10136920Y-10122673D01*
X9984567Y-10202634D01*
X9930748Y-10250315D01*
X9867516Y-10280037D01*
X9848521Y-10281500D01*
X7862145Y-10281500D01*
X7795106Y-10261815D01*
X7749351Y-10209011D01*
X7738145Y-10157790D01*
X7733214Y-8049999D01*
X19286296Y-8049999D01*
X19286296Y-8050000D01*
X19307034Y-8220801D01*
X19368045Y-8381673D01*
X19465786Y-8523274D01*
X19465789Y-8523277D01*
X19594567Y-8637365D01*
X19594568Y-8637365D01*
X19594570Y-8637367D01*
X19746917Y-8717325D01*
X19746919Y-8717325D01*
X19746920Y-8717326D01*
X19913972Y-8758500D01*
X20086028Y-8758500D01*
X20253079Y-8717326D01*
X20253079Y-8717325D01*
X20253083Y-8717325D01*
X20405430Y-8637367D01*
X20534215Y-8523273D01*
X20631954Y-8381675D01*
X20692965Y-8220801D01*
X20713704Y-8050000D01*
X20706238Y-7988507D01*
X20692965Y-7879198D01*
X20631954Y-7718326D01*
X20631954Y-7718325D01*
X20534215Y-7576727D01*
X20534213Y-7576725D01*
X20534210Y-7576722D01*
X20405432Y-7462634D01*
X20253079Y-7382673D01*
X20086028Y-7341500D01*
X19913972Y-7341500D01*
X19746920Y-7382673D01*
X19594567Y-7462634D01*
X19465789Y-7576722D01*
X19465786Y-7576725D01*
X19368045Y-7718326D01*
X19307034Y-7879198D01*
X19286296Y-8049999D01*
X7733214Y-8049999D01*
X7726686Y-5259999D01*
X10206296Y-5259999D01*
X10206296Y-5260000D01*
X10227034Y-5430801D01*
X10288045Y-5591673D01*
X10288046Y-5591675D01*
X10385785Y-5733273D01*
X10385786Y-5733274D01*
X10385789Y-5733277D01*
X10514567Y-5847365D01*
X10514568Y-5847365D01*
X10514570Y-5847367D01*
X10666917Y-5927325D01*
X10666919Y-5927325D01*
X10666920Y-5927326D01*
X10833972Y-5968500D01*
X11006028Y-5968500D01*
X11173079Y-5927326D01*
X11173079Y-5927325D01*
X11173083Y-5927325D01*
X11325430Y-5847367D01*
X11454215Y-5733273D01*
X11551954Y-5591675D01*
X11612965Y-5430801D01*
X11633704Y-5260000D01*
X11628847Y-5219999D01*
X12606296Y-5219999D01*
X12606296Y-5220000D01*
X12627034Y-5390801D01*
X12677038Y-5522649D01*
X12688046Y-5551675D01*
X12759940Y-5655830D01*
X12785786Y-5693274D01*
X12785789Y-5693277D01*
X12914567Y-5807365D01*
X12914568Y-5807365D01*
X12914570Y-5807367D01*
X13066917Y-5887325D01*
X13066919Y-5887325D01*
X13066920Y-5887326D01*
X13233972Y-5928500D01*
X13406028Y-5928500D01*
X13573079Y-5887326D01*
X13573079Y-5887325D01*
X13573083Y-5887325D01*
X13725430Y-5807367D01*
X13854215Y-5693273D01*
X13951954Y-5551675D01*
X14012965Y-5390801D01*
X14033704Y-5220000D01*
X14026335Y-5159306D01*
X14012965Y-5049198D01*
X13951954Y-4888326D01*
X13951954Y-4888325D01*
X13854215Y-4746727D01*
X13854213Y-4746725D01*
X13854210Y-4746722D01*
X13725432Y-4632634D01*
X13670126Y-4603607D01*
X13573083Y-4552675D01*
X13573082Y-4552674D01*
X13573079Y-4552673D01*
X13406028Y-4511500D01*
X13233972Y-4511500D01*
X13066920Y-4552673D01*
X12914567Y-4632634D01*
X12785789Y-4746722D01*
X12785786Y-4746725D01*
X12688045Y-4888326D01*
X12627034Y-5049198D01*
X12606296Y-5219999D01*
X11628847Y-5219999D01*
X11623174Y-5173273D01*
X11612965Y-5089198D01*
X11579482Y-5000911D01*
X11551954Y-4928325D01*
X11454215Y-4786727D01*
X11454213Y-4786725D01*
X11454210Y-4786722D01*
X11325432Y-4672634D01*
X11173079Y-4592673D01*
X11006028Y-4551500D01*
X10833972Y-4551500D01*
X10666920Y-4592673D01*
X10514567Y-4672634D01*
X10385789Y-4786722D01*
X10385786Y-4786725D01*
X10288045Y-4928326D01*
X10227034Y-5089198D01*
X10206296Y-5259999D01*
X7726686Y-5259999D01*
X7724440Y-4299999D01*
X17936296Y-4299999D01*
X17936296Y-4300000D01*
X17957034Y-4470801D01*
X18003255Y-4592675D01*
X18018046Y-4631675D01*
X18115785Y-4773273D01*
X18115786Y-4773274D01*
X18115789Y-4773277D01*
X18244567Y-4887365D01*
X18244568Y-4887365D01*
X18244570Y-4887367D01*
X18396917Y-4967325D01*
X18396920Y-4967325D01*
X18396921Y-4967326D01*
X18426519Y-4974621D01*
X18486900Y-5009776D01*
X18518690Y-5071995D01*
X18519942Y-5109961D01*
X18516296Y-5139996D01*
X18516296Y-5140000D01*
X18537034Y-5310801D01*
X18598045Y-5471673D01*
X18598046Y-5471675D01*
X18680877Y-5591675D01*
X18695786Y-5613274D01*
X18695789Y-5613277D01*
X18824567Y-5727365D01*
X18824568Y-5727365D01*
X18824570Y-5727367D01*
X18976917Y-5807325D01*
X18976919Y-5807325D01*
X18976920Y-5807326D01*
X19143972Y-5848500D01*
X19316028Y-5848500D01*
X19483079Y-5807326D01*
X19483079Y-5807325D01*
X19483083Y-5807325D01*
X19635430Y-5727367D01*
X19764215Y-5613273D01*
X19861954Y-5471675D01*
X19922965Y-5310801D01*
X19943704Y-5140000D01*
X19942269Y-5128177D01*
X19922965Y-4969198D01*
X19861954Y-4808326D01*
X19861954Y-4808325D01*
X19764215Y-4666727D01*
X19764213Y-4666725D01*
X19764210Y-4666722D01*
X19635432Y-4552634D01*
X19590780Y-4529199D01*
X19483083Y-4472675D01*
X19483080Y-4472674D01*
X19483076Y-4472672D01*
X19453475Y-4465376D01*
X19393095Y-4430219D01*
X19361307Y-4367999D01*
X19360057Y-4330033D01*
X19363704Y-4300000D01*
X19342965Y-4129199D01*
X19281954Y-3968325D01*
X19239275Y-3906494D01*
X19217393Y-3840142D01*
X19234858Y-3772491D01*
X19259095Y-3743245D01*
X19262759Y-3739999D01*
X21186296Y-3739999D01*
X21186296Y-3740000D01*
X21207034Y-3910801D01*
X21268045Y-4071673D01*
X21268046Y-4071675D01*
X21354170Y-4196446D01*
X21365786Y-4213274D01*
X21365789Y-4213277D01*
X21494567Y-4327365D01*
X21494568Y-4327365D01*
X21494570Y-4327367D01*
X21646917Y-4407325D01*
X21646919Y-4407325D01*
X21646920Y-4407326D01*
X21813972Y-4448500D01*
X21986028Y-4448500D01*
X22153079Y-4407326D01*
X22153079Y-4407325D01*
X22153083Y-4407325D01*
X22305430Y-4327367D01*
X22434215Y-4213273D01*
X22531954Y-4071675D01*
X22592965Y-3910801D01*
X22613704Y-3740000D01*
X22599559Y-3623501D01*
X22592965Y-3569198D01*
X22531954Y-3408326D01*
X22531954Y-3408325D01*
X22434215Y-3266727D01*
X22434213Y-3266725D01*
X22434210Y-3266722D01*
X22305432Y-3152634D01*
X22153079Y-3072673D01*
X21986028Y-3031500D01*
X21813972Y-3031500D01*
X21646920Y-3072673D01*
X21494567Y-3152634D01*
X21365789Y-3266722D01*
X21365786Y-3266725D01*
X21268045Y-3408326D01*
X21207034Y-3569198D01*
X21186296Y-3739999D01*
X19262759Y-3739999D01*
X19304215Y-3703273D01*
X19401954Y-3561675D01*
X19462965Y-3400801D01*
X19483704Y-3230000D01*
X19476960Y-3174454D01*
X19462965Y-3059198D01*
X19401954Y-2898326D01*
X19401954Y-2898325D01*
X19304215Y-2756727D01*
X19304213Y-2756725D01*
X19304210Y-2756722D01*
X19175432Y-2642634D01*
X19023079Y-2562673D01*
X18856028Y-2521500D01*
X18683972Y-2521500D01*
X18516920Y-2562673D01*
X18364567Y-2642634D01*
X18235789Y-2756722D01*
X18235786Y-2756725D01*
X18138045Y-2898326D01*
X18077034Y-3059198D01*
X18056296Y-3229999D01*
X18056296Y-3230000D01*
X18077034Y-3400801D01*
X18138046Y-3561675D01*
X18138047Y-3561677D01*
X18180722Y-3623501D01*
X18202606Y-3689855D01*
X18185141Y-3757507D01*
X18160901Y-3786756D01*
X18115790Y-3826721D01*
X18115786Y-3826725D01*
X18018045Y-3968326D01*
X17957034Y-4129198D01*
X17936296Y-4299999D01*
X7724440Y-4299999D01*
X7720159Y-2469999D01*
X9146296Y-2469999D01*
X9146296Y-2470000D01*
X9167034Y-2640801D01*
X9221253Y-2783764D01*
X9228046Y-2801675D01*
X9294760Y-2898326D01*
X9325786Y-2943274D01*
X9325789Y-2943277D01*
X9454567Y-3057365D01*
X9454568Y-3057365D01*
X9454570Y-3057367D01*
X9606917Y-3137325D01*
X9606919Y-3137325D01*
X9606920Y-3137326D01*
X9773972Y-3178500D01*
X9946028Y-3178500D01*
X10113079Y-3137326D01*
X10113079Y-3137325D01*
X10113083Y-3137325D01*
X10265430Y-3057367D01*
X10394215Y-2943273D01*
X10491954Y-2801675D01*
X10552965Y-2640801D01*
X10573704Y-2470000D01*
X10564088Y-2390801D01*
X10552965Y-2299198D01*
X10513978Y-2196398D01*
X12632468Y-2196398D01*
X12632468Y-2196399D01*
X12653206Y-2367200D01*
X12711725Y-2521500D01*
X12714218Y-2528074D01*
X12774194Y-2614963D01*
X12811958Y-2669673D01*
X12811961Y-2669676D01*
X12940739Y-2783764D01*
X12940740Y-2783764D01*
X12940742Y-2783766D01*
X13093089Y-2863724D01*
X13093091Y-2863724D01*
X13093092Y-2863725D01*
X13260144Y-2904899D01*
X13432200Y-2904899D01*
X13599251Y-2863725D01*
X13599251Y-2863724D01*
X13599255Y-2863724D01*
X13751602Y-2783766D01*
X13880387Y-2669672D01*
X13978126Y-2528074D01*
X14039137Y-2367200D01*
X14059876Y-2196399D01*
X14051171Y-2124702D01*
X14039137Y-2025597D01*
X14008631Y-1945161D01*
X13978126Y-1864724D01*
X13880387Y-1723126D01*
X13880385Y-1723124D01*
X13880382Y-1723121D01*
X13751604Y-1609033D01*
X13599251Y-1529072D01*
X13432200Y-1487899D01*
X13260144Y-1487899D01*
X13093092Y-1529072D01*
X12940739Y-1609033D01*
X12811961Y-1723121D01*
X12811958Y-1723124D01*
X12714217Y-1864725D01*
X12653206Y-2025597D01*
X12632468Y-2196398D01*
X10513978Y-2196398D01*
X10491954Y-2138326D01*
X10491954Y-2138325D01*
X10394215Y-1996727D01*
X10394213Y-1996725D01*
X10394210Y-1996722D01*
X10265432Y-1882634D01*
X10113079Y-1802673D01*
X9946028Y-1761500D01*
X9773972Y-1761500D01*
X9606920Y-1802673D01*
X9454567Y-1882634D01*
X9325789Y-1996722D01*
X9325786Y-1996725D01*
X9228045Y-2138326D01*
X9167034Y-2299198D01*
X9146296Y-2469999D01*
X7720159Y-2469999D01*
X7717230Y-1218105D01*
X19481609Y-1218105D01*
X19481609Y-1218106D01*
X19502347Y-1388907D01*
X19548841Y-1511500D01*
X19563359Y-1549781D01*
X19661098Y-1691379D01*
X19661099Y-1691380D01*
X19661102Y-1691383D01*
X19789880Y-1805471D01*
X19789881Y-1805471D01*
X19789883Y-1805473D01*
X19942230Y-1885431D01*
X19942232Y-1885431D01*
X19942233Y-1885432D01*
X20109285Y-1926606D01*
X20281341Y-1926606D01*
X20448392Y-1885432D01*
X20448392Y-1885431D01*
X20448396Y-1885431D01*
X20600743Y-1805473D01*
X20729528Y-1691379D01*
X20827267Y-1549781D01*
X20888278Y-1388907D01*
X20909017Y-1218106D01*
X20900748Y-1150000D01*
X20888278Y-1047304D01*
X20855472Y-960801D01*
X20827267Y-886431D01*
X20729528Y-744833D01*
X20729526Y-744831D01*
X20729523Y-744828D01*
X20600745Y-630740D01*
X20448392Y-550779D01*
X20281341Y-509606D01*
X20109285Y-509606D01*
X19942233Y-550779D01*
X19789880Y-630740D01*
X19661102Y-744828D01*
X19661099Y-744831D01*
X19563358Y-886432D01*
X19502347Y-1047304D01*
X19481609Y-1218105D01*
X7717230Y-1218105D01*
X7711644Y1170001D01*
X17966296Y1170001D01*
X17966296Y1170000D01*
X17987034Y999199D01*
X18043002Y851625D01*
X18048046Y838325D01*
X18099815Y763326D01*
X18145786Y696726D01*
X18145789Y696723D01*
X18274567Y582635D01*
X18274568Y582635D01*
X18274570Y582633D01*
X18426917Y502675D01*
X18426919Y502675D01*
X18426920Y502674D01*
X18593972Y461500D01*
X18766028Y461500D01*
X18933079Y502674D01*
X18933079Y502675D01*
X18933083Y502675D01*
X19085430Y582633D01*
X19214215Y696727D01*
X19311954Y838325D01*
X19372965Y999199D01*
X19393704Y1170000D01*
X19385289Y1239308D01*
X19372965Y1340802D01*
X19337862Y1433360D01*
X19311954Y1501675D01*
X19214215Y1643273D01*
X19214213Y1643275D01*
X19214210Y1643278D01*
X19085432Y1757366D01*
X18981292Y1812023D01*
X18933083Y1837325D01*
X18933082Y1837326D01*
X18933079Y1837327D01*
X18766028Y1878500D01*
X18593972Y1878500D01*
X18426920Y1837327D01*
X18274567Y1757366D01*
X18145789Y1643278D01*
X18145786Y1643275D01*
X18048045Y1501674D01*
X17987034Y1340802D01*
X17966296Y1170001D01*
X7711644Y1170001D01*
X7709164Y2230001D01*
X9186296Y2230001D01*
X9186296Y2230000D01*
X9207034Y2059199D01*
X9264895Y1906634D01*
X9268046Y1898325D01*
X9365344Y1757366D01*
X9365786Y1756726D01*
X9365789Y1756723D01*
X9494567Y1642635D01*
X9494568Y1642635D01*
X9494570Y1642633D01*
X9646917Y1562675D01*
X9646919Y1562675D01*
X9646920Y1562674D01*
X9813972Y1521500D01*
X9986028Y1521500D01*
X10153079Y1562674D01*
X10153079Y1562675D01*
X10153083Y1562675D01*
X10305430Y1642633D01*
X10434215Y1756727D01*
X10531954Y1898325D01*
X10592965Y2059199D01*
X10612580Y2220739D01*
X11015966Y2220739D01*
X11015966Y2220732D01*
X11035101Y2050891D01*
X11035102Y2050886D01*
X11091556Y1889552D01*
X11175018Y1756723D01*
X11182494Y1744826D01*
X11303356Y1623964D01*
X11448082Y1533026D01*
X11609415Y1476573D01*
X11609420Y1476572D01*
X11779261Y1457436D01*
X11779265Y1457436D01*
X11779269Y1457436D01*
X11949109Y1476572D01*
X11949112Y1476573D01*
X11949115Y1476573D01*
X12110448Y1533026D01*
X12255174Y1623964D01*
X12376036Y1744826D01*
X12466974Y1889552D01*
X12523427Y2050885D01*
X12525392Y2068325D01*
X12542564Y2220732D01*
X12542564Y2220739D01*
X12523428Y2390580D01*
X12523427Y2390585D01*
X12494432Y2473447D01*
X12466974Y2551918D01*
X12376036Y2696644D01*
X12255174Y2817506D01*
X12255173Y2817507D01*
X12110448Y2908444D01*
X11949114Y2964898D01*
X11949109Y2964899D01*
X11779269Y2984034D01*
X11779261Y2984034D01*
X11609420Y2964899D01*
X11609415Y2964898D01*
X11448081Y2908444D01*
X11303356Y2817507D01*
X11182493Y2696644D01*
X11091556Y2551919D01*
X11035102Y2390585D01*
X11035101Y2390580D01*
X11015966Y2220739D01*
X10612580Y2220739D01*
X10613704Y2230000D01*
X10613004Y2235770D01*
X10592965Y2400802D01*
X10557620Y2493999D01*
X10531954Y2561675D01*
X10434215Y2703273D01*
X10434213Y2703275D01*
X10434210Y2703278D01*
X10305432Y2817366D01*
X10198901Y2873278D01*
X10153083Y2897325D01*
X10153082Y2897326D01*
X10153079Y2897327D01*
X9986028Y2938500D01*
X9813972Y2938500D01*
X9646920Y2897327D01*
X9494567Y2817366D01*
X9365789Y2703278D01*
X9365786Y2703275D01*
X9268045Y2561674D01*
X9207034Y2400802D01*
X9186296Y2230001D01*
X7709164Y2230001D01*
X7702222Y5197210D01*
X7721750Y5264295D01*
X7774447Y5310174D01*
X7826222Y5321500D01*
X9824273Y5321500D01*
X9881899Y5307296D01*
X9966917Y5262675D01*
X9966916Y5262675D01*
X10133972Y5221500D01*
X10306028Y5221500D01*
X10473079Y5262674D01*
X10473079Y5262675D01*
X10473083Y5262675D01*
X10625430Y5342633D01*
X10754215Y5456727D01*
X10818256Y5549507D01*
X10843049Y5569598D01*
X11004824Y5569598D01*
X11040370Y5510062D01*
X11038067Y5440230D01*
X11036248Y5435096D01*
X11027035Y5410805D01*
X11027035Y5410803D01*
X11006296Y5240001D01*
X11006296Y5240000D01*
X11027034Y5069199D01*
X11082429Y4923136D01*
X11088046Y4908325D01*
X11170673Y4788621D01*
X11185786Y4766726D01*
X11185789Y4766723D01*
X11314567Y4652635D01*
X11314568Y4652635D01*
X11314570Y4652633D01*
X11466917Y4572675D01*
X11466919Y4572675D01*
X11466920Y4572674D01*
X11633972Y4531500D01*
X11806028Y4531500D01*
X11973083Y4572675D01*
X12000956Y4587305D01*
X12069463Y4601031D01*
X12116799Y4583968D01*
X12117929Y4586119D01*
X12124568Y4582635D01*
X12124570Y4582633D01*
X12276917Y4502675D01*
X12276919Y4502675D01*
X12276920Y4502674D01*
X12443972Y4461500D01*
X12616028Y4461500D01*
X12783079Y4502674D01*
X12783079Y4502675D01*
X12783083Y4502675D01*
X12935430Y4582633D01*
X13064215Y4696727D01*
X13161954Y4838325D01*
X13200514Y4940001D01*
X14876296Y4940001D01*
X14876296Y4940000D01*
X14897034Y4769199D01*
X14955095Y4616106D01*
X14958046Y4608325D01*
X15052429Y4471589D01*
X15055786Y4466726D01*
X15055789Y4466723D01*
X15184567Y4352635D01*
X15184568Y4352635D01*
X15184570Y4352633D01*
X15336917Y4272675D01*
X15336919Y4272675D01*
X15336920Y4272674D01*
X15503972Y4231500D01*
X15676028Y4231500D01*
X15843079Y4272674D01*
X15843079Y4272675D01*
X15843083Y4272675D01*
X15995430Y4352633D01*
X16124215Y4466727D01*
X16221954Y4608325D01*
X16282965Y4769199D01*
X16303704Y4940000D01*
X16290673Y5047325D01*
X16282965Y5110802D01*
X16236501Y5233317D01*
X16221954Y5271675D01*
X16124215Y5413273D01*
X16124213Y5413275D01*
X16124210Y5413278D01*
X15995432Y5527366D01*
X15843079Y5607327D01*
X15676028Y5648500D01*
X15503972Y5648500D01*
X15336920Y5607327D01*
X15184567Y5527366D01*
X15055789Y5413278D01*
X15055786Y5413275D01*
X14958045Y5271674D01*
X14897034Y5110802D01*
X14876296Y4940001D01*
X13200514Y4940001D01*
X13222965Y4999199D01*
X13243704Y5170000D01*
X13242723Y5178084D01*
X13222965Y5340802D01*
X13161954Y5501674D01*
X13161954Y5501675D01*
X13064215Y5643273D01*
X13064213Y5643275D01*
X13064210Y5643278D01*
X12935432Y5757366D01*
X12837107Y5808971D01*
X12783083Y5837325D01*
X12783082Y5837326D01*
X12783079Y5837327D01*
X12616028Y5878500D01*
X12443972Y5878500D01*
X12276914Y5837325D01*
X12249040Y5822695D01*
X12180531Y5808971D01*
X12133201Y5826036D01*
X12132071Y5823881D01*
X12125431Y5827366D01*
X12125430Y5827367D01*
X11973083Y5907325D01*
X11973082Y5907326D01*
X11973079Y5907327D01*
X11806028Y5948500D01*
X11633972Y5948500D01*
X11466920Y5907327D01*
X11314567Y5827366D01*
X11185789Y5713278D01*
X11185781Y5713269D01*
X11121742Y5620494D01*
X11067459Y5576504D01*
X11004824Y5569598D01*
X10843049Y5569598D01*
X10872539Y5593496D01*
X10935173Y5600405D01*
X10899629Y5659941D01*
X10901932Y5729773D01*
X10903731Y5734852D01*
X10912965Y5759199D01*
X10933704Y5930000D01*
X10929487Y5964735D01*
X10912965Y6100802D01*
X10868736Y6217423D01*
X10851954Y6261675D01*
X10754215Y6403273D01*
X10754213Y6403275D01*
X10754210Y6403278D01*
X10625432Y6517366D01*
X10532253Y6566270D01*
X10473083Y6597325D01*
X10473082Y6597326D01*
X10473079Y6597327D01*
X10306028Y6638500D01*
X10133972Y6638500D01*
X9966917Y6597326D01*
X9881899Y6552704D01*
X9824273Y6538500D01*
X7822795Y6538500D01*
X7755756Y6558185D01*
X7710001Y6610989D01*
X7698795Y6662210D01*
X7692483Y9360001D01*
X11946296Y9360001D01*
X11946296Y9360000D01*
X11967034Y9189199D01*
X12022165Y9043832D01*
X12028046Y9028325D01*
X12101191Y8922357D01*
X12125786Y8886726D01*
X12125789Y8886723D01*
X12254567Y8772635D01*
X12254568Y8772635D01*
X12254570Y8772633D01*
X12406917Y8692675D01*
X12406919Y8692675D01*
X12406920Y8692674D01*
X12573972Y8651500D01*
X12746028Y8651500D01*
X12913079Y8692674D01*
X12913079Y8692675D01*
X12913083Y8692675D01*
X13065430Y8772633D01*
X13194215Y8886727D01*
X13291954Y9028325D01*
X13352965Y9189199D01*
X13373704Y9360000D01*
X13373548Y9361289D01*
X13352965Y9530802D01*
X13306889Y9652295D01*
X13291954Y9691675D01*
X13194215Y9833273D01*
X13194213Y9833275D01*
X13194210Y9833278D01*
X13065432Y9947366D01*
X12927095Y10019971D01*
X12913083Y10027325D01*
X12913082Y10027326D01*
X12913079Y10027327D01*
X12746028Y10068500D01*
X12573972Y10068500D01*
X12406920Y10027327D01*
X12254567Y9947366D01*
X12125789Y9833278D01*
X12125786Y9833275D01*
X12028045Y9691674D01*
X11967034Y9530802D01*
X11946296Y9360001D01*
X7692483Y9360001D01*
X7688740Y10960001D01*
X10996296Y10960001D01*
X10996296Y10960000D01*
X11017034Y10789199D01*
X11078045Y10628327D01*
X11078046Y10628325D01*
X11168086Y10497881D01*
X11175786Y10486726D01*
X11175789Y10486723D01*
X11304567Y10372635D01*
X11304568Y10372635D01*
X11304570Y10372633D01*
X11456917Y10292675D01*
X11456919Y10292675D01*
X11456920Y10292674D01*
X11623972Y10251500D01*
X11796028Y10251500D01*
X11963079Y10292674D01*
X11963079Y10292675D01*
X11963083Y10292675D01*
X12115430Y10372633D01*
X12244215Y10486727D01*
X12341954Y10628325D01*
X12402965Y10789199D01*
X12423704Y10960000D01*
X12420568Y10985832D01*
X12402965Y11130802D01*
X12364709Y11231675D01*
X12341954Y11291675D01*
X12244215Y11433273D01*
X12244213Y11433275D01*
X12244210Y11433278D01*
X12115432Y11547366D01*
X12035726Y11589199D01*
X11963083Y11627325D01*
X11963082Y11627326D01*
X11963079Y11627327D01*
X11796028Y11668500D01*
X11623972Y11668500D01*
X11456920Y11627327D01*
X11304567Y11547366D01*
X11175789Y11433278D01*
X11175786Y11433275D01*
X11078045Y11291674D01*
X11017034Y11130802D01*
X10996296Y10960001D01*
X7688740Y10960001D01*
X7685745Y12240001D01*
X14006296Y12240001D01*
X14006296Y12240000D01*
X14027034Y12069199D01*
X14085976Y11913782D01*
X14088046Y11908325D01*
X14185379Y11767315D01*
X14185786Y11766726D01*
X14185789Y11766723D01*
X14314567Y11652635D01*
X14314568Y11652635D01*
X14314570Y11652633D01*
X14466917Y11572675D01*
X14466919Y11572675D01*
X14466920Y11572674D01*
X14633972Y11531500D01*
X14806028Y11531500D01*
X14973079Y11572674D01*
X14973079Y11572675D01*
X14973083Y11572675D01*
X15125430Y11652633D01*
X15254215Y11766727D01*
X15351954Y11908325D01*
X15412965Y12069199D01*
X15433704Y12240000D01*
X15428540Y12282534D01*
X15412965Y12410802D01*
X15374456Y12512341D01*
X15351954Y12571675D01*
X15254215Y12713273D01*
X15254213Y12713275D01*
X15254210Y12713278D01*
X15125432Y12827366D01*
X15056392Y12863601D01*
X14973083Y12907325D01*
X14973082Y12907326D01*
X14973079Y12907327D01*
X14806028Y12948500D01*
X14633972Y12948500D01*
X14466920Y12907327D01*
X14314567Y12827366D01*
X14185789Y12713278D01*
X14185786Y12713275D01*
X14088045Y12571674D01*
X14027034Y12410802D01*
X14006296Y12240001D01*
X7685745Y12240001D01*
X7683013Y13407756D01*
X7679084Y15087211D01*
X7698612Y15154295D01*
X7751309Y15200174D01*
X7803084Y15211500D01*
X9454746Y15211500D01*
X9512369Y15197298D01*
X9606917Y15147675D01*
X9606919Y15147675D01*
X9606920Y15147674D01*
X9773972Y15106500D01*
X9946028Y15106500D01*
X10113079Y15147674D01*
X10113079Y15147675D01*
X10113083Y15147675D01*
X10265430Y15227633D01*
X10394215Y15341727D01*
X10491954Y15483325D01*
X10552965Y15644199D01*
X10573704Y15815000D01*
X10564397Y15891655D01*
X10552965Y15985802D01*
X10516542Y16081840D01*
X10491954Y16146675D01*
X10491952Y16146677D01*
X10491952Y16146679D01*
X10432306Y16233090D01*
X10417140Y16255060D01*
X10395257Y16321414D01*
X10412722Y16389065D01*
X10463989Y16436536D01*
X10519190Y16449500D01*
X13829041Y16449500D01*
X13896080Y16429815D01*
G37*
%TD.AperFunction*%
%TD*%
M02*
