%TF.GenerationSoftware,KiCad,Pcbnew,8.0.2*%
%TF.CreationDate,2024-12-18T21:07:28-06:00*%
%TF.ProjectId,Usb_Bridge,5573625f-4272-4696-9467-652e6b696361,rev?*%
%TF.SameCoordinates,Original*%
%TF.FileFunction,Legend,Top*%
%TF.FilePolarity,Positive*%
%FSLAX46Y46*%
G04 Gerber Fmt 4.6, Leading zero omitted, Abs format (unit mm)*
G04 Created by KiCad (PCBNEW 8.0.2) date 2024-12-18 21:07:28*
%MOMM*%
%LPD*%
G01*
G04 APERTURE LIST*
G04 Aperture macros list*
%AMRoundRect*
0 Rectangle with rounded corners*
0 $1 Rounding radius*
0 $2 $3 $4 $5 $6 $7 $8 $9 X,Y pos of 4 corners*
0 Add a 4 corners polygon primitive as box body*
4,1,4,$2,$3,$4,$5,$6,$7,$8,$9,$2,$3,0*
0 Add four circle primitives for the rounded corners*
1,1,$1+$1,$2,$3*
1,1,$1+$1,$4,$5*
1,1,$1+$1,$6,$7*
1,1,$1+$1,$8,$9*
0 Add four rect primitives between the rounded corners*
20,1,$1+$1,$2,$3,$4,$5,0*
20,1,$1+$1,$4,$5,$6,$7,0*
20,1,$1+$1,$6,$7,$8,$9,0*
20,1,$1+$1,$8,$9,$2,$3,0*%
G04 Aperture macros list end*
%ADD10C,0.100000*%
%ADD11C,0.300000*%
%ADD12C,0.150000*%
%ADD13C,0.120000*%
%ADD14R,3.480000X1.846667*%
%ADD15RoundRect,0.140000X-0.140000X-0.170000X0.140000X-0.170000X0.140000X0.170000X-0.140000X0.170000X0*%
%ADD16RoundRect,0.100000X0.100000X-0.637500X0.100000X0.637500X-0.100000X0.637500X-0.100000X-0.637500X0*%
%ADD17RoundRect,0.140000X0.140000X0.170000X-0.140000X0.170000X-0.140000X-0.170000X0.140000X-0.170000X0*%
%ADD18R,1.100000X0.850000*%
%ADD19R,1.100000X0.750000*%
%ADD20R,1.000000X1.200000*%
%ADD21R,1.350000X1.550000*%
%ADD22R,1.350000X1.900000*%
%ADD23R,1.800000X1.170000*%
%ADD24RoundRect,0.243750X0.243750X0.456250X-0.243750X0.456250X-0.243750X-0.456250X0.243750X-0.456250X0*%
%ADD25RoundRect,0.135000X-0.135000X-0.185000X0.135000X-0.185000X0.135000X0.185000X-0.135000X0.185000X0*%
%ADD26RoundRect,0.200000X0.200000X0.275000X-0.200000X0.275000X-0.200000X-0.275000X0.200000X-0.275000X0*%
%ADD27RoundRect,0.135000X0.135000X0.185000X-0.135000X0.185000X-0.135000X-0.185000X0.135000X-0.185000X0*%
%ADD28RoundRect,0.150000X0.587500X0.150000X-0.587500X0.150000X-0.587500X-0.150000X0.587500X-0.150000X0*%
%ADD29RoundRect,0.100000X0.637500X0.100000X-0.637500X0.100000X-0.637500X-0.100000X0.637500X-0.100000X0*%
%ADD30RoundRect,0.140000X-0.170000X0.140000X-0.170000X-0.140000X0.170000X-0.140000X0.170000X0.140000X0*%
%ADD31RoundRect,0.135000X-0.185000X0.135000X-0.185000X-0.135000X0.185000X-0.135000X0.185000X0.135000X0*%
%ADD32RoundRect,0.135000X0.185000X-0.135000X0.185000X0.135000X-0.185000X0.135000X-0.185000X-0.135000X0*%
%ADD33C,0.650000*%
%ADD34R,1.240000X0.600000*%
%ADD35R,1.240000X0.300000*%
%ADD36O,2.100000X1.000000*%
%ADD37O,1.800000X1.000000*%
%ADD38RoundRect,0.100000X-0.100000X0.637500X-0.100000X-0.637500X0.100000X-0.637500X0.100000X0.637500X0*%
%ADD39RoundRect,0.050000X-0.050000X0.387500X-0.050000X-0.387500X0.050000X-0.387500X0.050000X0.387500X0*%
%ADD40RoundRect,0.050000X-0.387500X0.050000X-0.387500X-0.050000X0.387500X-0.050000X0.387500X0.050000X0*%
%ADD41R,3.200000X3.200000*%
%ADD42RoundRect,0.250000X-0.325000X-0.450000X0.325000X-0.450000X0.325000X0.450000X-0.325000X0.450000X0*%
%ADD43RoundRect,0.112500X-0.112500X0.187500X-0.112500X-0.187500X0.112500X-0.187500X0.112500X0.187500X0*%
%ADD44RoundRect,0.375000X0.625000X0.375000X-0.625000X0.375000X-0.625000X-0.375000X0.625000X-0.375000X0*%
%ADD45RoundRect,0.500000X0.500000X1.400000X-0.500000X1.400000X-0.500000X-1.400000X0.500000X-1.400000X0*%
%ADD46RoundRect,0.062500X-0.387500X-0.062500X0.387500X-0.062500X0.387500X0.062500X-0.387500X0.062500X0*%
%ADD47R,0.200000X1.600000*%
%ADD48RoundRect,0.112500X0.112500X-0.187500X0.112500X0.187500X-0.112500X0.187500X-0.112500X-0.187500X0*%
%ADD49RoundRect,0.250000X0.325000X0.450000X-0.325000X0.450000X-0.325000X-0.450000X0.325000X-0.450000X0*%
%ADD50RoundRect,0.140000X0.170000X-0.140000X0.170000X0.140000X-0.170000X0.140000X-0.170000X-0.140000X0*%
%ADD51RoundRect,0.375000X0.375000X-0.625000X0.375000X0.625000X-0.375000X0.625000X-0.375000X-0.625000X0*%
%ADD52RoundRect,0.500000X1.400000X-0.500000X1.400000X0.500000X-1.400000X0.500000X-1.400000X-0.500000X0*%
%ADD53RoundRect,0.112500X0.187500X0.112500X-0.187500X0.112500X-0.187500X-0.112500X0.187500X-0.112500X0*%
%ADD54R,1.200000X1.400000*%
G04 APERTURE END LIST*
D10*
X7732466Y-13764211D02*
X8199133Y-13597544D01*
X8199133Y-13597544D02*
X7732466Y-13430877D01*
X7565800Y-13197544D02*
X7532466Y-13164211D01*
X7532466Y-13164211D02*
X7499133Y-13097544D01*
X7499133Y-13097544D02*
X7499133Y-12930878D01*
X7499133Y-12930878D02*
X7532466Y-12864211D01*
X7532466Y-12864211D02*
X7565800Y-12830878D01*
X7565800Y-12830878D02*
X7632466Y-12797544D01*
X7632466Y-12797544D02*
X7699133Y-12797544D01*
X7699133Y-12797544D02*
X7799133Y-12830878D01*
X7799133Y-12830878D02*
X8199133Y-13230878D01*
X8199133Y-13230878D02*
X8199133Y-12797544D01*
X7499133Y-12364211D02*
X7499133Y-12297544D01*
X7499133Y-12297544D02*
X7532466Y-12230877D01*
X7532466Y-12230877D02*
X7565800Y-12197544D01*
X7565800Y-12197544D02*
X7632466Y-12164211D01*
X7632466Y-12164211D02*
X7765800Y-12130877D01*
X7765800Y-12130877D02*
X7932466Y-12130877D01*
X7932466Y-12130877D02*
X8065800Y-12164211D01*
X8065800Y-12164211D02*
X8132466Y-12197544D01*
X8132466Y-12197544D02*
X8165800Y-12230877D01*
X8165800Y-12230877D02*
X8199133Y-12297544D01*
X8199133Y-12297544D02*
X8199133Y-12364211D01*
X8199133Y-12364211D02*
X8165800Y-12430877D01*
X8165800Y-12430877D02*
X8132466Y-12464211D01*
X8132466Y-12464211D02*
X8065800Y-12497544D01*
X8065800Y-12497544D02*
X7932466Y-12530877D01*
X7932466Y-12530877D02*
X7765800Y-12530877D01*
X7765800Y-12530877D02*
X7632466Y-12497544D01*
X7632466Y-12497544D02*
X7565800Y-12464211D01*
X7565800Y-12464211D02*
X7532466Y-12430877D01*
X7532466Y-12430877D02*
X7499133Y-12364211D01*
X7565800Y-11864210D02*
X7532466Y-11830877D01*
X7532466Y-11830877D02*
X7499133Y-11764210D01*
X7499133Y-11764210D02*
X7499133Y-11597544D01*
X7499133Y-11597544D02*
X7532466Y-11530877D01*
X7532466Y-11530877D02*
X7565800Y-11497544D01*
X7565800Y-11497544D02*
X7632466Y-11464210D01*
X7632466Y-11464210D02*
X7699133Y-11464210D01*
X7699133Y-11464210D02*
X7799133Y-11497544D01*
X7799133Y-11497544D02*
X8199133Y-11897544D01*
X8199133Y-11897544D02*
X8199133Y-11464210D01*
X7732466Y-10864210D02*
X8199133Y-10864210D01*
X7465800Y-11030877D02*
X7965800Y-11197543D01*
X7965800Y-11197543D02*
X7965800Y-10764210D01*
X8132466Y-10497543D02*
X8165800Y-10464210D01*
X8165800Y-10464210D02*
X8199133Y-10497543D01*
X8199133Y-10497543D02*
X8165800Y-10530876D01*
X8165800Y-10530876D02*
X8132466Y-10497543D01*
X8132466Y-10497543D02*
X8199133Y-10497543D01*
X8199133Y-9797543D02*
X8199133Y-10197543D01*
X8199133Y-9997543D02*
X7499133Y-9997543D01*
X7499133Y-9997543D02*
X7599133Y-10064210D01*
X7599133Y-10064210D02*
X7665800Y-10130877D01*
X7665800Y-10130877D02*
X7699133Y-10197543D01*
X7565800Y-9530876D02*
X7532466Y-9497543D01*
X7532466Y-9497543D02*
X7499133Y-9430876D01*
X7499133Y-9430876D02*
X7499133Y-9264210D01*
X7499133Y-9264210D02*
X7532466Y-9197543D01*
X7532466Y-9197543D02*
X7565800Y-9164210D01*
X7565800Y-9164210D02*
X7632466Y-9130876D01*
X7632466Y-9130876D02*
X7699133Y-9130876D01*
X7699133Y-9130876D02*
X7799133Y-9164210D01*
X7799133Y-9164210D02*
X8199133Y-9564210D01*
X8199133Y-9564210D02*
X8199133Y-9130876D01*
X8132466Y-8830876D02*
X8165800Y-8797543D01*
X8165800Y-8797543D02*
X8199133Y-8830876D01*
X8199133Y-8830876D02*
X8165800Y-8864209D01*
X8165800Y-8864209D02*
X8132466Y-8830876D01*
X8132466Y-8830876D02*
X8199133Y-8830876D01*
X8199133Y-8130876D02*
X8199133Y-8530876D01*
X8199133Y-8330876D02*
X7499133Y-8330876D01*
X7499133Y-8330876D02*
X7599133Y-8397543D01*
X7599133Y-8397543D02*
X7665800Y-8464210D01*
X7665800Y-8464210D02*
X7699133Y-8530876D01*
X8199133Y-7530876D02*
X7832466Y-7530876D01*
X7832466Y-7530876D02*
X7765800Y-7564209D01*
X7765800Y-7564209D02*
X7732466Y-7630876D01*
X7732466Y-7630876D02*
X7732466Y-7764209D01*
X7732466Y-7764209D02*
X7765800Y-7830876D01*
X8165800Y-7530876D02*
X8199133Y-7597543D01*
X8199133Y-7597543D02*
X8199133Y-7764209D01*
X8199133Y-7764209D02*
X8165800Y-7830876D01*
X8165800Y-7830876D02*
X8099133Y-7864209D01*
X8099133Y-7864209D02*
X8032466Y-7864209D01*
X8032466Y-7864209D02*
X7965800Y-7830876D01*
X7965800Y-7830876D02*
X7932466Y-7764209D01*
X7932466Y-7764209D02*
X7932466Y-7597543D01*
X7932466Y-7597543D02*
X7899133Y-7530876D01*
D11*
X39829524Y-6165198D02*
X40015238Y-6236626D01*
X40015238Y-6236626D02*
X40077143Y-6308055D01*
X40077143Y-6308055D02*
X40139047Y-6450912D01*
X40139047Y-6450912D02*
X40139047Y-6665198D01*
X40139047Y-6665198D02*
X40077143Y-6808055D01*
X40077143Y-6808055D02*
X40015238Y-6879484D01*
X40015238Y-6879484D02*
X39891428Y-6950912D01*
X39891428Y-6950912D02*
X39396190Y-6950912D01*
X39396190Y-6950912D02*
X39396190Y-5450912D01*
X39396190Y-5450912D02*
X39829524Y-5450912D01*
X39829524Y-5450912D02*
X39953333Y-5522341D01*
X39953333Y-5522341D02*
X40015238Y-5593769D01*
X40015238Y-5593769D02*
X40077143Y-5736626D01*
X40077143Y-5736626D02*
X40077143Y-5879484D01*
X40077143Y-5879484D02*
X40015238Y-6022341D01*
X40015238Y-6022341D02*
X39953333Y-6093769D01*
X39953333Y-6093769D02*
X39829524Y-6165198D01*
X39829524Y-6165198D02*
X39396190Y-6165198D01*
X40881905Y-6950912D02*
X40758095Y-6879484D01*
X40758095Y-6879484D02*
X40696190Y-6736626D01*
X40696190Y-6736626D02*
X40696190Y-5450912D01*
X41934285Y-5950912D02*
X41934285Y-6950912D01*
X41377142Y-5950912D02*
X41377142Y-6736626D01*
X41377142Y-6736626D02*
X41439047Y-6879484D01*
X41439047Y-6879484D02*
X41562857Y-6950912D01*
X41562857Y-6950912D02*
X41748571Y-6950912D01*
X41748571Y-6950912D02*
X41872380Y-6879484D01*
X41872380Y-6879484D02*
X41934285Y-6808055D01*
X43048570Y-6879484D02*
X42924761Y-6950912D01*
X42924761Y-6950912D02*
X42677142Y-6950912D01*
X42677142Y-6950912D02*
X42553332Y-6879484D01*
X42553332Y-6879484D02*
X42491428Y-6736626D01*
X42491428Y-6736626D02*
X42491428Y-6165198D01*
X42491428Y-6165198D02*
X42553332Y-6022341D01*
X42553332Y-6022341D02*
X42677142Y-5950912D01*
X42677142Y-5950912D02*
X42924761Y-5950912D01*
X42924761Y-5950912D02*
X43048570Y-6022341D01*
X43048570Y-6022341D02*
X43110475Y-6165198D01*
X43110475Y-6165198D02*
X43110475Y-6308055D01*
X43110475Y-6308055D02*
X42491428Y-6450912D01*
X43605714Y-6879484D02*
X43791428Y-6950912D01*
X43791428Y-6950912D02*
X44100952Y-6950912D01*
X44100952Y-6950912D02*
X44224761Y-6879484D01*
X44224761Y-6879484D02*
X44286666Y-6808055D01*
X44286666Y-6808055D02*
X44348571Y-6665198D01*
X44348571Y-6665198D02*
X44348571Y-6522341D01*
X44348571Y-6522341D02*
X44286666Y-6379484D01*
X44286666Y-6379484D02*
X44224761Y-6308055D01*
X44224761Y-6308055D02*
X44100952Y-6236626D01*
X44100952Y-6236626D02*
X43853333Y-6165198D01*
X43853333Y-6165198D02*
X43729523Y-6093769D01*
X43729523Y-6093769D02*
X43667618Y-6022341D01*
X43667618Y-6022341D02*
X43605714Y-5879484D01*
X43605714Y-5879484D02*
X43605714Y-5736626D01*
X43605714Y-5736626D02*
X43667618Y-5593769D01*
X43667618Y-5593769D02*
X43729523Y-5522341D01*
X43729523Y-5522341D02*
X43853333Y-5450912D01*
X43853333Y-5450912D02*
X44162856Y-5450912D01*
X44162856Y-5450912D02*
X44348571Y-5522341D01*
X45648570Y-6808055D02*
X45586666Y-6879484D01*
X45586666Y-6879484D02*
X45400951Y-6950912D01*
X45400951Y-6950912D02*
X45277142Y-6950912D01*
X45277142Y-6950912D02*
X45091428Y-6879484D01*
X45091428Y-6879484D02*
X44967618Y-6736626D01*
X44967618Y-6736626D02*
X44905713Y-6593769D01*
X44905713Y-6593769D02*
X44843809Y-6308055D01*
X44843809Y-6308055D02*
X44843809Y-6093769D01*
X44843809Y-6093769D02*
X44905713Y-5808055D01*
X44905713Y-5808055D02*
X44967618Y-5665198D01*
X44967618Y-5665198D02*
X45091428Y-5522341D01*
X45091428Y-5522341D02*
X45277142Y-5450912D01*
X45277142Y-5450912D02*
X45400951Y-5450912D01*
X45400951Y-5450912D02*
X45586666Y-5522341D01*
X45586666Y-5522341D02*
X45648570Y-5593769D01*
X46143809Y-6879484D02*
X46329523Y-6950912D01*
X46329523Y-6950912D02*
X46639047Y-6950912D01*
X46639047Y-6950912D02*
X46762856Y-6879484D01*
X46762856Y-6879484D02*
X46824761Y-6808055D01*
X46824761Y-6808055D02*
X46886666Y-6665198D01*
X46886666Y-6665198D02*
X46886666Y-6522341D01*
X46886666Y-6522341D02*
X46824761Y-6379484D01*
X46824761Y-6379484D02*
X46762856Y-6308055D01*
X46762856Y-6308055D02*
X46639047Y-6236626D01*
X46639047Y-6236626D02*
X46391428Y-6165198D01*
X46391428Y-6165198D02*
X46267618Y-6093769D01*
X46267618Y-6093769D02*
X46205713Y-6022341D01*
X46205713Y-6022341D02*
X46143809Y-5879484D01*
X46143809Y-5879484D02*
X46143809Y-5736626D01*
X46143809Y-5736626D02*
X46205713Y-5593769D01*
X46205713Y-5593769D02*
X46267618Y-5522341D01*
X46267618Y-5522341D02*
X46391428Y-5450912D01*
X46391428Y-5450912D02*
X46700951Y-5450912D01*
X46700951Y-5450912D02*
X46886666Y-5522341D01*
X47443808Y-6950912D02*
X47443808Y-5450912D01*
X42491429Y-8365828D02*
X42800953Y-9365828D01*
X42800953Y-9365828D02*
X43110476Y-8365828D01*
X43543810Y-8008685D02*
X43605714Y-7937257D01*
X43605714Y-7937257D02*
X43729524Y-7865828D01*
X43729524Y-7865828D02*
X44039048Y-7865828D01*
X44039048Y-7865828D02*
X44162857Y-7937257D01*
X44162857Y-7937257D02*
X44224762Y-8008685D01*
X44224762Y-8008685D02*
X44286667Y-8151542D01*
X44286667Y-8151542D02*
X44286667Y-8294400D01*
X44286667Y-8294400D02*
X44224762Y-8508685D01*
X44224762Y-8508685D02*
X43481905Y-9365828D01*
X43481905Y-9365828D02*
X44286667Y-9365828D01*
D12*
X36126133Y2980952D02*
X36126133Y2219047D01*
X35745180Y2600000D02*
X36507085Y2600000D01*
D10*
X4158646Y-16383609D02*
X4158646Y-15883609D01*
X4158646Y-15883609D02*
X4301503Y-15883609D01*
X4301503Y-15883609D02*
X4387217Y-15907419D01*
X4387217Y-15907419D02*
X4444360Y-15955038D01*
X4444360Y-15955038D02*
X4472931Y-16002657D01*
X4472931Y-16002657D02*
X4501503Y-16097895D01*
X4501503Y-16097895D02*
X4501503Y-16169323D01*
X4501503Y-16169323D02*
X4472931Y-16264561D01*
X4472931Y-16264561D02*
X4444360Y-16312180D01*
X4444360Y-16312180D02*
X4387217Y-16359800D01*
X4387217Y-16359800D02*
X4301503Y-16383609D01*
X4301503Y-16383609D02*
X4158646Y-16383609D01*
X4958646Y-16121704D02*
X5044360Y-16145514D01*
X5044360Y-16145514D02*
X5072931Y-16169323D01*
X5072931Y-16169323D02*
X5101503Y-16216942D01*
X5101503Y-16216942D02*
X5101503Y-16288371D01*
X5101503Y-16288371D02*
X5072931Y-16335990D01*
X5072931Y-16335990D02*
X5044360Y-16359800D01*
X5044360Y-16359800D02*
X4987217Y-16383609D01*
X4987217Y-16383609D02*
X4758646Y-16383609D01*
X4758646Y-16383609D02*
X4758646Y-15883609D01*
X4758646Y-15883609D02*
X4958646Y-15883609D01*
X4958646Y-15883609D02*
X5015789Y-15907419D01*
X5015789Y-15907419D02*
X5044360Y-15931228D01*
X5044360Y-15931228D02*
X5072931Y-15978847D01*
X5072931Y-15978847D02*
X5072931Y-16026466D01*
X5072931Y-16026466D02*
X5044360Y-16074085D01*
X5044360Y-16074085D02*
X5015789Y-16097895D01*
X5015789Y-16097895D02*
X4958646Y-16121704D01*
X4958646Y-16121704D02*
X4758646Y-16121704D01*
X5301503Y-15883609D02*
X5701503Y-15883609D01*
X5701503Y-15883609D02*
X5444360Y-16383609D01*
D12*
X38070951Y-10524819D02*
X38070951Y-11239104D01*
X38070951Y-11239104D02*
X38023332Y-11381961D01*
X38023332Y-11381961D02*
X37928094Y-11477200D01*
X37928094Y-11477200D02*
X37785237Y-11524819D01*
X37785237Y-11524819D02*
X37689999Y-11524819D01*
X39023332Y-11524819D02*
X38547142Y-11524819D01*
X38547142Y-11524819D02*
X38547142Y-10524819D01*
X39928094Y-11429580D02*
X39880475Y-11477200D01*
X39880475Y-11477200D02*
X39737618Y-11524819D01*
X39737618Y-11524819D02*
X39642380Y-11524819D01*
X39642380Y-11524819D02*
X39499523Y-11477200D01*
X39499523Y-11477200D02*
X39404285Y-11381961D01*
X39404285Y-11381961D02*
X39356666Y-11286723D01*
X39356666Y-11286723D02*
X39309047Y-11096247D01*
X39309047Y-11096247D02*
X39309047Y-10953390D01*
X39309047Y-10953390D02*
X39356666Y-10762914D01*
X39356666Y-10762914D02*
X39404285Y-10667676D01*
X39404285Y-10667676D02*
X39499523Y-10572438D01*
X39499523Y-10572438D02*
X39642380Y-10524819D01*
X39642380Y-10524819D02*
X39737618Y-10524819D01*
X39737618Y-10524819D02*
X39880475Y-10572438D01*
X39880475Y-10572438D02*
X39928094Y-10620057D01*
X40642380Y-10524819D02*
X40642380Y-11239104D01*
X40642380Y-11239104D02*
X40594761Y-11381961D01*
X40594761Y-11381961D02*
X40499523Y-11477200D01*
X40499523Y-11477200D02*
X40356666Y-11524819D01*
X40356666Y-11524819D02*
X40261428Y-11524819D01*
X41594761Y-11524819D02*
X41118571Y-11524819D01*
X41118571Y-11524819D02*
X41118571Y-10524819D01*
X42499523Y-11429580D02*
X42451904Y-11477200D01*
X42451904Y-11477200D02*
X42309047Y-11524819D01*
X42309047Y-11524819D02*
X42213809Y-11524819D01*
X42213809Y-11524819D02*
X42070952Y-11477200D01*
X42070952Y-11477200D02*
X41975714Y-11381961D01*
X41975714Y-11381961D02*
X41928095Y-11286723D01*
X41928095Y-11286723D02*
X41880476Y-11096247D01*
X41880476Y-11096247D02*
X41880476Y-10953390D01*
X41880476Y-10953390D02*
X41928095Y-10762914D01*
X41928095Y-10762914D02*
X41975714Y-10667676D01*
X41975714Y-10667676D02*
X42070952Y-10572438D01*
X42070952Y-10572438D02*
X42213809Y-10524819D01*
X42213809Y-10524819D02*
X42309047Y-10524819D01*
X42309047Y-10524819D02*
X42451904Y-10572438D01*
X42451904Y-10572438D02*
X42499523Y-10620057D01*
X43213809Y-10524819D02*
X43213809Y-11239104D01*
X43213809Y-11239104D02*
X43166190Y-11381961D01*
X43166190Y-11381961D02*
X43070952Y-11477200D01*
X43070952Y-11477200D02*
X42928095Y-11524819D01*
X42928095Y-11524819D02*
X42832857Y-11524819D01*
X44166190Y-11524819D02*
X43690000Y-11524819D01*
X43690000Y-11524819D02*
X43690000Y-10524819D01*
X45070952Y-11429580D02*
X45023333Y-11477200D01*
X45023333Y-11477200D02*
X44880476Y-11524819D01*
X44880476Y-11524819D02*
X44785238Y-11524819D01*
X44785238Y-11524819D02*
X44642381Y-11477200D01*
X44642381Y-11477200D02*
X44547143Y-11381961D01*
X44547143Y-11381961D02*
X44499524Y-11286723D01*
X44499524Y-11286723D02*
X44451905Y-11096247D01*
X44451905Y-11096247D02*
X44451905Y-10953390D01*
X44451905Y-10953390D02*
X44499524Y-10762914D01*
X44499524Y-10762914D02*
X44547143Y-10667676D01*
X44547143Y-10667676D02*
X44642381Y-10572438D01*
X44642381Y-10572438D02*
X44785238Y-10524819D01*
X44785238Y-10524819D02*
X44880476Y-10524819D01*
X44880476Y-10524819D02*
X45023333Y-10572438D01*
X45023333Y-10572438D02*
X45070952Y-10620057D01*
X45785238Y-10524819D02*
X45785238Y-11239104D01*
X45785238Y-11239104D02*
X45737619Y-11381961D01*
X45737619Y-11381961D02*
X45642381Y-11477200D01*
X45642381Y-11477200D02*
X45499524Y-11524819D01*
X45499524Y-11524819D02*
X45404286Y-11524819D01*
X46737619Y-11524819D02*
X46261429Y-11524819D01*
X46261429Y-11524819D02*
X46261429Y-10524819D01*
X47642381Y-11429580D02*
X47594762Y-11477200D01*
X47594762Y-11477200D02*
X47451905Y-11524819D01*
X47451905Y-11524819D02*
X47356667Y-11524819D01*
X47356667Y-11524819D02*
X47213810Y-11477200D01*
X47213810Y-11477200D02*
X47118572Y-11381961D01*
X47118572Y-11381961D02*
X47070953Y-11286723D01*
X47070953Y-11286723D02*
X47023334Y-11096247D01*
X47023334Y-11096247D02*
X47023334Y-10953390D01*
X47023334Y-10953390D02*
X47070953Y-10762914D01*
X47070953Y-10762914D02*
X47118572Y-10667676D01*
X47118572Y-10667676D02*
X47213810Y-10572438D01*
X47213810Y-10572438D02*
X47356667Y-10524819D01*
X47356667Y-10524819D02*
X47451905Y-10524819D01*
X47451905Y-10524819D02*
X47594762Y-10572438D01*
X47594762Y-10572438D02*
X47642381Y-10620057D01*
X38519048Y-1873866D02*
X39280953Y-1873866D01*
D10*
X4421704Y2245789D02*
X4445514Y2331503D01*
X4445514Y2331503D02*
X4469323Y2360074D01*
X4469323Y2360074D02*
X4516942Y2388646D01*
X4516942Y2388646D02*
X4588371Y2388646D01*
X4588371Y2388646D02*
X4635990Y2360074D01*
X4635990Y2360074D02*
X4659800Y2331503D01*
X4659800Y2331503D02*
X4683609Y2274360D01*
X4683609Y2274360D02*
X4683609Y2045789D01*
X4683609Y2045789D02*
X4183609Y2045789D01*
X4183609Y2045789D02*
X4183609Y2245789D01*
X4183609Y2245789D02*
X4207419Y2302931D01*
X4207419Y2302931D02*
X4231228Y2331503D01*
X4231228Y2331503D02*
X4278847Y2360074D01*
X4278847Y2360074D02*
X4326466Y2360074D01*
X4326466Y2360074D02*
X4374085Y2331503D01*
X4374085Y2331503D02*
X4397895Y2302931D01*
X4397895Y2302931D02*
X4421704Y2245789D01*
X4421704Y2245789D02*
X4421704Y2045789D01*
X4659800Y2617217D02*
X4683609Y2702931D01*
X4683609Y2702931D02*
X4683609Y2845789D01*
X4683609Y2845789D02*
X4659800Y2902931D01*
X4659800Y2902931D02*
X4635990Y2931503D01*
X4635990Y2931503D02*
X4588371Y2960074D01*
X4588371Y2960074D02*
X4540752Y2960074D01*
X4540752Y2960074D02*
X4493133Y2931503D01*
X4493133Y2931503D02*
X4469323Y2902931D01*
X4469323Y2902931D02*
X4445514Y2845789D01*
X4445514Y2845789D02*
X4421704Y2731503D01*
X4421704Y2731503D02*
X4397895Y2674360D01*
X4397895Y2674360D02*
X4374085Y2645789D01*
X4374085Y2645789D02*
X4326466Y2617217D01*
X4326466Y2617217D02*
X4278847Y2617217D01*
X4278847Y2617217D02*
X4231228Y2645789D01*
X4231228Y2645789D02*
X4207419Y2674360D01*
X4207419Y2674360D02*
X4183609Y2731503D01*
X4183609Y2731503D02*
X4183609Y2874360D01*
X4183609Y2874360D02*
X4207419Y2960074D01*
X4445514Y3331503D02*
X4683609Y3331503D01*
X4183609Y3131503D02*
X4445514Y3331503D01*
X4445514Y3331503D02*
X4183609Y3531503D01*
X4683609Y-9077068D02*
X4183609Y-9077068D01*
X4183609Y-9077068D02*
X4183609Y-8934211D01*
X4183609Y-8934211D02*
X4207419Y-8848497D01*
X4207419Y-8848497D02*
X4255038Y-8791354D01*
X4255038Y-8791354D02*
X4302657Y-8762783D01*
X4302657Y-8762783D02*
X4397895Y-8734211D01*
X4397895Y-8734211D02*
X4469323Y-8734211D01*
X4469323Y-8734211D02*
X4564561Y-8762783D01*
X4564561Y-8762783D02*
X4612180Y-8791354D01*
X4612180Y-8791354D02*
X4659800Y-8848497D01*
X4659800Y-8848497D02*
X4683609Y-8934211D01*
X4683609Y-8934211D02*
X4683609Y-9077068D01*
X4421704Y-8277068D02*
X4445514Y-8191354D01*
X4445514Y-8191354D02*
X4469323Y-8162783D01*
X4469323Y-8162783D02*
X4516942Y-8134211D01*
X4516942Y-8134211D02*
X4588371Y-8134211D01*
X4588371Y-8134211D02*
X4635990Y-8162783D01*
X4635990Y-8162783D02*
X4659800Y-8191354D01*
X4659800Y-8191354D02*
X4683609Y-8248497D01*
X4683609Y-8248497D02*
X4683609Y-8477068D01*
X4683609Y-8477068D02*
X4183609Y-8477068D01*
X4183609Y-8477068D02*
X4183609Y-8277068D01*
X4183609Y-8277068D02*
X4207419Y-8219926D01*
X4207419Y-8219926D02*
X4231228Y-8191354D01*
X4231228Y-8191354D02*
X4278847Y-8162783D01*
X4278847Y-8162783D02*
X4326466Y-8162783D01*
X4326466Y-8162783D02*
X4374085Y-8191354D01*
X4374085Y-8191354D02*
X4397895Y-8219926D01*
X4397895Y-8219926D02*
X4421704Y-8277068D01*
X4421704Y-8277068D02*
X4421704Y-8477068D01*
X4183609Y-7934211D02*
X4183609Y-7562783D01*
X4183609Y-7562783D02*
X4374085Y-7762783D01*
X4374085Y-7762783D02*
X4374085Y-7677068D01*
X4374085Y-7677068D02*
X4397895Y-7619926D01*
X4397895Y-7619926D02*
X4421704Y-7591354D01*
X4421704Y-7591354D02*
X4469323Y-7562783D01*
X4469323Y-7562783D02*
X4588371Y-7562783D01*
X4588371Y-7562783D02*
X4635990Y-7591354D01*
X4635990Y-7591354D02*
X4659800Y-7619926D01*
X4659800Y-7619926D02*
X4683609Y-7677068D01*
X4683609Y-7677068D02*
X4683609Y-7848497D01*
X4683609Y-7848497D02*
X4659800Y-7905640D01*
X4659800Y-7905640D02*
X4635990Y-7934211D01*
X4683609Y-14617068D02*
X4183609Y-14617068D01*
X4183609Y-14617068D02*
X4183609Y-14474211D01*
X4183609Y-14474211D02*
X4207419Y-14388497D01*
X4207419Y-14388497D02*
X4255038Y-14331354D01*
X4255038Y-14331354D02*
X4302657Y-14302783D01*
X4302657Y-14302783D02*
X4397895Y-14274211D01*
X4397895Y-14274211D02*
X4469323Y-14274211D01*
X4469323Y-14274211D02*
X4564561Y-14302783D01*
X4564561Y-14302783D02*
X4612180Y-14331354D01*
X4612180Y-14331354D02*
X4659800Y-14388497D01*
X4659800Y-14388497D02*
X4683609Y-14474211D01*
X4683609Y-14474211D02*
X4683609Y-14617068D01*
X4421704Y-13817068D02*
X4445514Y-13731354D01*
X4445514Y-13731354D02*
X4469323Y-13702783D01*
X4469323Y-13702783D02*
X4516942Y-13674211D01*
X4516942Y-13674211D02*
X4588371Y-13674211D01*
X4588371Y-13674211D02*
X4635990Y-13702783D01*
X4635990Y-13702783D02*
X4659800Y-13731354D01*
X4659800Y-13731354D02*
X4683609Y-13788497D01*
X4683609Y-13788497D02*
X4683609Y-14017068D01*
X4683609Y-14017068D02*
X4183609Y-14017068D01*
X4183609Y-14017068D02*
X4183609Y-13817068D01*
X4183609Y-13817068D02*
X4207419Y-13759926D01*
X4207419Y-13759926D02*
X4231228Y-13731354D01*
X4231228Y-13731354D02*
X4278847Y-13702783D01*
X4278847Y-13702783D02*
X4326466Y-13702783D01*
X4326466Y-13702783D02*
X4374085Y-13731354D01*
X4374085Y-13731354D02*
X4397895Y-13759926D01*
X4397895Y-13759926D02*
X4421704Y-13817068D01*
X4421704Y-13817068D02*
X4421704Y-14017068D01*
X4183609Y-13159926D02*
X4183609Y-13274211D01*
X4183609Y-13274211D02*
X4207419Y-13331354D01*
X4207419Y-13331354D02*
X4231228Y-13359926D01*
X4231228Y-13359926D02*
X4302657Y-13417068D01*
X4302657Y-13417068D02*
X4397895Y-13445640D01*
X4397895Y-13445640D02*
X4588371Y-13445640D01*
X4588371Y-13445640D02*
X4635990Y-13417068D01*
X4635990Y-13417068D02*
X4659800Y-13388497D01*
X4659800Y-13388497D02*
X4683609Y-13331354D01*
X4683609Y-13331354D02*
X4683609Y-13217068D01*
X4683609Y-13217068D02*
X4659800Y-13159926D01*
X4659800Y-13159926D02*
X4635990Y-13131354D01*
X4635990Y-13131354D02*
X4588371Y-13102783D01*
X4588371Y-13102783D02*
X4469323Y-13102783D01*
X4469323Y-13102783D02*
X4421704Y-13131354D01*
X4421704Y-13131354D02*
X4397895Y-13159926D01*
X4397895Y-13159926D02*
X4374085Y-13217068D01*
X4374085Y-13217068D02*
X4374085Y-13331354D01*
X4374085Y-13331354D02*
X4397895Y-13388497D01*
X4397895Y-13388497D02*
X4421704Y-13417068D01*
X4421704Y-13417068D02*
X4469323Y-13445640D01*
X4683609Y-3537068D02*
X4183609Y-3537068D01*
X4183609Y-3537068D02*
X4183609Y-3394211D01*
X4183609Y-3394211D02*
X4207419Y-3308497D01*
X4207419Y-3308497D02*
X4255038Y-3251354D01*
X4255038Y-3251354D02*
X4302657Y-3222783D01*
X4302657Y-3222783D02*
X4397895Y-3194211D01*
X4397895Y-3194211D02*
X4469323Y-3194211D01*
X4469323Y-3194211D02*
X4564561Y-3222783D01*
X4564561Y-3222783D02*
X4612180Y-3251354D01*
X4612180Y-3251354D02*
X4659800Y-3308497D01*
X4659800Y-3308497D02*
X4683609Y-3394211D01*
X4683609Y-3394211D02*
X4683609Y-3537068D01*
X4421704Y-2737068D02*
X4445514Y-2651354D01*
X4445514Y-2651354D02*
X4469323Y-2622783D01*
X4469323Y-2622783D02*
X4516942Y-2594211D01*
X4516942Y-2594211D02*
X4588371Y-2594211D01*
X4588371Y-2594211D02*
X4635990Y-2622783D01*
X4635990Y-2622783D02*
X4659800Y-2651354D01*
X4659800Y-2651354D02*
X4683609Y-2708497D01*
X4683609Y-2708497D02*
X4683609Y-2937068D01*
X4683609Y-2937068D02*
X4183609Y-2937068D01*
X4183609Y-2937068D02*
X4183609Y-2737068D01*
X4183609Y-2737068D02*
X4207419Y-2679926D01*
X4207419Y-2679926D02*
X4231228Y-2651354D01*
X4231228Y-2651354D02*
X4278847Y-2622783D01*
X4278847Y-2622783D02*
X4326466Y-2622783D01*
X4326466Y-2622783D02*
X4374085Y-2651354D01*
X4374085Y-2651354D02*
X4397895Y-2679926D01*
X4397895Y-2679926D02*
X4421704Y-2737068D01*
X4421704Y-2737068D02*
X4421704Y-2937068D01*
X4183609Y-2222783D02*
X4183609Y-2165640D01*
X4183609Y-2165640D02*
X4207419Y-2108497D01*
X4207419Y-2108497D02*
X4231228Y-2079926D01*
X4231228Y-2079926D02*
X4278847Y-2051354D01*
X4278847Y-2051354D02*
X4374085Y-2022783D01*
X4374085Y-2022783D02*
X4493133Y-2022783D01*
X4493133Y-2022783D02*
X4588371Y-2051354D01*
X4588371Y-2051354D02*
X4635990Y-2079926D01*
X4635990Y-2079926D02*
X4659800Y-2108497D01*
X4659800Y-2108497D02*
X4683609Y-2165640D01*
X4683609Y-2165640D02*
X4683609Y-2222783D01*
X4683609Y-2222783D02*
X4659800Y-2279926D01*
X4659800Y-2279926D02*
X4635990Y-2308497D01*
X4635990Y-2308497D02*
X4588371Y-2337068D01*
X4588371Y-2337068D02*
X4493133Y-2365640D01*
X4493133Y-2365640D02*
X4374085Y-2365640D01*
X4374085Y-2365640D02*
X4278847Y-2337068D01*
X4278847Y-2337068D02*
X4231228Y-2308497D01*
X4231228Y-2308497D02*
X4207419Y-2279926D01*
X4207419Y-2279926D02*
X4183609Y-2222783D01*
X4683609Y-11847068D02*
X4183609Y-11847068D01*
X4183609Y-11847068D02*
X4183609Y-11704211D01*
X4183609Y-11704211D02*
X4207419Y-11618497D01*
X4207419Y-11618497D02*
X4255038Y-11561354D01*
X4255038Y-11561354D02*
X4302657Y-11532783D01*
X4302657Y-11532783D02*
X4397895Y-11504211D01*
X4397895Y-11504211D02*
X4469323Y-11504211D01*
X4469323Y-11504211D02*
X4564561Y-11532783D01*
X4564561Y-11532783D02*
X4612180Y-11561354D01*
X4612180Y-11561354D02*
X4659800Y-11618497D01*
X4659800Y-11618497D02*
X4683609Y-11704211D01*
X4683609Y-11704211D02*
X4683609Y-11847068D01*
X4421704Y-11047068D02*
X4445514Y-10961354D01*
X4445514Y-10961354D02*
X4469323Y-10932783D01*
X4469323Y-10932783D02*
X4516942Y-10904211D01*
X4516942Y-10904211D02*
X4588371Y-10904211D01*
X4588371Y-10904211D02*
X4635990Y-10932783D01*
X4635990Y-10932783D02*
X4659800Y-10961354D01*
X4659800Y-10961354D02*
X4683609Y-11018497D01*
X4683609Y-11018497D02*
X4683609Y-11247068D01*
X4683609Y-11247068D02*
X4183609Y-11247068D01*
X4183609Y-11247068D02*
X4183609Y-11047068D01*
X4183609Y-11047068D02*
X4207419Y-10989926D01*
X4207419Y-10989926D02*
X4231228Y-10961354D01*
X4231228Y-10961354D02*
X4278847Y-10932783D01*
X4278847Y-10932783D02*
X4326466Y-10932783D01*
X4326466Y-10932783D02*
X4374085Y-10961354D01*
X4374085Y-10961354D02*
X4397895Y-10989926D01*
X4397895Y-10989926D02*
X4421704Y-11047068D01*
X4421704Y-11047068D02*
X4421704Y-11247068D01*
X4183609Y-10361354D02*
X4183609Y-10647068D01*
X4183609Y-10647068D02*
X4421704Y-10675640D01*
X4421704Y-10675640D02*
X4397895Y-10647068D01*
X4397895Y-10647068D02*
X4374085Y-10589926D01*
X4374085Y-10589926D02*
X4374085Y-10447068D01*
X4374085Y-10447068D02*
X4397895Y-10389926D01*
X4397895Y-10389926D02*
X4421704Y-10361354D01*
X4421704Y-10361354D02*
X4469323Y-10332783D01*
X4469323Y-10332783D02*
X4588371Y-10332783D01*
X4588371Y-10332783D02*
X4635990Y-10361354D01*
X4635990Y-10361354D02*
X4659800Y-10389926D01*
X4659800Y-10389926D02*
X4683609Y-10447068D01*
X4683609Y-10447068D02*
X4683609Y-10589926D01*
X4683609Y-10589926D02*
X4659800Y-10647068D01*
X4659800Y-10647068D02*
X4635990Y-10675640D01*
X4207419Y-6021354D02*
X4183609Y-6078497D01*
X4183609Y-6078497D02*
X4183609Y-6164211D01*
X4183609Y-6164211D02*
X4207419Y-6249925D01*
X4207419Y-6249925D02*
X4255038Y-6307068D01*
X4255038Y-6307068D02*
X4302657Y-6335639D01*
X4302657Y-6335639D02*
X4397895Y-6364211D01*
X4397895Y-6364211D02*
X4469323Y-6364211D01*
X4469323Y-6364211D02*
X4564561Y-6335639D01*
X4564561Y-6335639D02*
X4612180Y-6307068D01*
X4612180Y-6307068D02*
X4659800Y-6249925D01*
X4659800Y-6249925D02*
X4683609Y-6164211D01*
X4683609Y-6164211D02*
X4683609Y-6107068D01*
X4683609Y-6107068D02*
X4659800Y-6021354D01*
X4659800Y-6021354D02*
X4635990Y-5992782D01*
X4635990Y-5992782D02*
X4469323Y-5992782D01*
X4469323Y-5992782D02*
X4469323Y-6107068D01*
X4683609Y-5735639D02*
X4183609Y-5735639D01*
X4183609Y-5735639D02*
X4683609Y-5392782D01*
X4683609Y-5392782D02*
X4183609Y-5392782D01*
X4683609Y-5107068D02*
X4183609Y-5107068D01*
X4183609Y-5107068D02*
X4183609Y-4964211D01*
X4183609Y-4964211D02*
X4207419Y-4878497D01*
X4207419Y-4878497D02*
X4255038Y-4821354D01*
X4255038Y-4821354D02*
X4302657Y-4792783D01*
X4302657Y-4792783D02*
X4397895Y-4764211D01*
X4397895Y-4764211D02*
X4469323Y-4764211D01*
X4469323Y-4764211D02*
X4564561Y-4792783D01*
X4564561Y-4792783D02*
X4612180Y-4821354D01*
X4612180Y-4821354D02*
X4659800Y-4878497D01*
X4659800Y-4878497D02*
X4683609Y-4964211D01*
X4683609Y-4964211D02*
X4683609Y-5107068D01*
D12*
X30719048Y-1873866D02*
X31480953Y-1873866D01*
D10*
X4540752Y4772932D02*
X4540752Y5058646D01*
X4683609Y4715789D02*
X4183609Y4915789D01*
X4183609Y4915789D02*
X4683609Y5115789D01*
X4635990Y5658647D02*
X4659800Y5630075D01*
X4659800Y5630075D02*
X4683609Y5544361D01*
X4683609Y5544361D02*
X4683609Y5487218D01*
X4683609Y5487218D02*
X4659800Y5401504D01*
X4659800Y5401504D02*
X4612180Y5344361D01*
X4612180Y5344361D02*
X4564561Y5315790D01*
X4564561Y5315790D02*
X4469323Y5287218D01*
X4469323Y5287218D02*
X4397895Y5287218D01*
X4397895Y5287218D02*
X4302657Y5315790D01*
X4302657Y5315790D02*
X4255038Y5344361D01*
X4255038Y5344361D02*
X4207419Y5401504D01*
X4207419Y5401504D02*
X4183609Y5487218D01*
X4183609Y5487218D02*
X4183609Y5544361D01*
X4183609Y5544361D02*
X4207419Y5630075D01*
X4207419Y5630075D02*
X4231228Y5658647D01*
X4683609Y5915790D02*
X4183609Y5915790D01*
X4683609Y6258647D02*
X4397895Y6001504D01*
X4183609Y6258647D02*
X4469323Y5915790D01*
D12*
X-5672800Y-4304286D02*
X-5625181Y-4161429D01*
X-5625181Y-4161429D02*
X-5625181Y-3923334D01*
X-5625181Y-3923334D02*
X-5672800Y-3828096D01*
X-5672800Y-3828096D02*
X-5720420Y-3780477D01*
X-5720420Y-3780477D02*
X-5815658Y-3732858D01*
X-5815658Y-3732858D02*
X-5910896Y-3732858D01*
X-5910896Y-3732858D02*
X-6006134Y-3780477D01*
X-6006134Y-3780477D02*
X-6053753Y-3828096D01*
X-6053753Y-3828096D02*
X-6101372Y-3923334D01*
X-6101372Y-3923334D02*
X-6148991Y-4113810D01*
X-6148991Y-4113810D02*
X-6196610Y-4209048D01*
X-6196610Y-4209048D02*
X-6244229Y-4256667D01*
X-6244229Y-4256667D02*
X-6339467Y-4304286D01*
X-6339467Y-4304286D02*
X-6434705Y-4304286D01*
X-6434705Y-4304286D02*
X-6529943Y-4256667D01*
X-6529943Y-4256667D02*
X-6577562Y-4209048D01*
X-6577562Y-4209048D02*
X-6625181Y-4113810D01*
X-6625181Y-4113810D02*
X-6625181Y-3875715D01*
X-6625181Y-3875715D02*
X-6577562Y-3732858D01*
X-5720420Y-2732858D02*
X-5672800Y-2780477D01*
X-5672800Y-2780477D02*
X-5625181Y-2923334D01*
X-5625181Y-2923334D02*
X-5625181Y-3018572D01*
X-5625181Y-3018572D02*
X-5672800Y-3161429D01*
X-5672800Y-3161429D02*
X-5768039Y-3256667D01*
X-5768039Y-3256667D02*
X-5863277Y-3304286D01*
X-5863277Y-3304286D02*
X-6053753Y-3351905D01*
X-6053753Y-3351905D02*
X-6196610Y-3351905D01*
X-6196610Y-3351905D02*
X-6387086Y-3304286D01*
X-6387086Y-3304286D02*
X-6482324Y-3256667D01*
X-6482324Y-3256667D02*
X-6577562Y-3161429D01*
X-6577562Y-3161429D02*
X-6625181Y-3018572D01*
X-6625181Y-3018572D02*
X-6625181Y-2923334D01*
X-6625181Y-2923334D02*
X-6577562Y-2780477D01*
X-6577562Y-2780477D02*
X-6529943Y-2732858D01*
X-5672800Y-2351905D02*
X-5625181Y-2209048D01*
X-5625181Y-2209048D02*
X-5625181Y-1970953D01*
X-5625181Y-1970953D02*
X-5672800Y-1875715D01*
X-5672800Y-1875715D02*
X-5720420Y-1828096D01*
X-5720420Y-1828096D02*
X-5815658Y-1780477D01*
X-5815658Y-1780477D02*
X-5910896Y-1780477D01*
X-5910896Y-1780477D02*
X-6006134Y-1828096D01*
X-6006134Y-1828096D02*
X-6053753Y-1875715D01*
X-6053753Y-1875715D02*
X-6101372Y-1970953D01*
X-6101372Y-1970953D02*
X-6148991Y-2161429D01*
X-6148991Y-2161429D02*
X-6196610Y-2256667D01*
X-6196610Y-2256667D02*
X-6244229Y-2304286D01*
X-6244229Y-2304286D02*
X-6339467Y-2351905D01*
X-6339467Y-2351905D02*
X-6434705Y-2351905D01*
X-6434705Y-2351905D02*
X-6529943Y-2304286D01*
X-6529943Y-2304286D02*
X-6577562Y-2256667D01*
X-6577562Y-2256667D02*
X-6625181Y-2161429D01*
X-6625181Y-2161429D02*
X-6625181Y-1923334D01*
X-6625181Y-1923334D02*
X-6577562Y-1780477D01*
X-5625181Y-1351905D02*
X-6625181Y-1351905D01*
X-5720420Y457618D02*
X-5672800Y409999D01*
X-5672800Y409999D02*
X-5625181Y267142D01*
X-5625181Y267142D02*
X-5625181Y171904D01*
X-5625181Y171904D02*
X-5672800Y29047D01*
X-5672800Y29047D02*
X-5768039Y-66191D01*
X-5768039Y-66191D02*
X-5863277Y-113810D01*
X-5863277Y-113810D02*
X-6053753Y-161429D01*
X-6053753Y-161429D02*
X-6196610Y-161429D01*
X-6196610Y-161429D02*
X-6387086Y-113810D01*
X-6387086Y-113810D02*
X-6482324Y-66191D01*
X-6482324Y-66191D02*
X-6577562Y29047D01*
X-6577562Y29047D02*
X-6625181Y171904D01*
X-6625181Y171904D02*
X-6625181Y267142D01*
X-6625181Y267142D02*
X-6577562Y409999D01*
X-6577562Y409999D02*
X-6529943Y457618D01*
X-5625181Y1029047D02*
X-5672800Y933809D01*
X-5672800Y933809D02*
X-5720420Y886190D01*
X-5720420Y886190D02*
X-5815658Y838571D01*
X-5815658Y838571D02*
X-6101372Y838571D01*
X-6101372Y838571D02*
X-6196610Y886190D01*
X-6196610Y886190D02*
X-6244229Y933809D01*
X-6244229Y933809D02*
X-6291848Y1029047D01*
X-6291848Y1029047D02*
X-6291848Y1171904D01*
X-6291848Y1171904D02*
X-6244229Y1267142D01*
X-6244229Y1267142D02*
X-6196610Y1314761D01*
X-6196610Y1314761D02*
X-6101372Y1362380D01*
X-6101372Y1362380D02*
X-5815658Y1362380D01*
X-5815658Y1362380D02*
X-5720420Y1314761D01*
X-5720420Y1314761D02*
X-5672800Y1267142D01*
X-5672800Y1267142D02*
X-5625181Y1171904D01*
X-5625181Y1171904D02*
X-5625181Y1029047D01*
X-6291848Y1790952D02*
X-5625181Y1790952D01*
X-6196610Y1790952D02*
X-6244229Y1838571D01*
X-6244229Y1838571D02*
X-6291848Y1933809D01*
X-6291848Y1933809D02*
X-6291848Y2076666D01*
X-6291848Y2076666D02*
X-6244229Y2171904D01*
X-6244229Y2171904D02*
X-6148991Y2219523D01*
X-6148991Y2219523D02*
X-5625181Y2219523D01*
X-6291848Y2695714D02*
X-5625181Y2695714D01*
X-6196610Y2695714D02*
X-6244229Y2743333D01*
X-6244229Y2743333D02*
X-6291848Y2838571D01*
X-6291848Y2838571D02*
X-6291848Y2981428D01*
X-6291848Y2981428D02*
X-6244229Y3076666D01*
X-6244229Y3076666D02*
X-6148991Y3124285D01*
X-6148991Y3124285D02*
X-5625181Y3124285D01*
X-5672800Y3981428D02*
X-5625181Y3886190D01*
X-5625181Y3886190D02*
X-5625181Y3695714D01*
X-5625181Y3695714D02*
X-5672800Y3600476D01*
X-5672800Y3600476D02*
X-5768039Y3552857D01*
X-5768039Y3552857D02*
X-6148991Y3552857D01*
X-6148991Y3552857D02*
X-6244229Y3600476D01*
X-6244229Y3600476D02*
X-6291848Y3695714D01*
X-6291848Y3695714D02*
X-6291848Y3886190D01*
X-6291848Y3886190D02*
X-6244229Y3981428D01*
X-6244229Y3981428D02*
X-6148991Y4029047D01*
X-6148991Y4029047D02*
X-6053753Y4029047D01*
X-6053753Y4029047D02*
X-5958515Y3552857D01*
X-5672800Y4886190D02*
X-5625181Y4790952D01*
X-5625181Y4790952D02*
X-5625181Y4600476D01*
X-5625181Y4600476D02*
X-5672800Y4505238D01*
X-5672800Y4505238D02*
X-5720420Y4457619D01*
X-5720420Y4457619D02*
X-5815658Y4410000D01*
X-5815658Y4410000D02*
X-6101372Y4410000D01*
X-6101372Y4410000D02*
X-6196610Y4457619D01*
X-6196610Y4457619D02*
X-6244229Y4505238D01*
X-6244229Y4505238D02*
X-6291848Y4600476D01*
X-6291848Y4600476D02*
X-6291848Y4790952D01*
X-6291848Y4790952D02*
X-6244229Y4886190D01*
X-6291848Y5171905D02*
X-6291848Y5552857D01*
X-6625181Y5314762D02*
X-5768039Y5314762D01*
X-5768039Y5314762D02*
X-5672800Y5362381D01*
X-5672800Y5362381D02*
X-5625181Y5457619D01*
X-5625181Y5457619D02*
X-5625181Y5552857D01*
X-5625181Y6029048D02*
X-5672800Y5933810D01*
X-5672800Y5933810D02*
X-5720420Y5886191D01*
X-5720420Y5886191D02*
X-5815658Y5838572D01*
X-5815658Y5838572D02*
X-6101372Y5838572D01*
X-6101372Y5838572D02*
X-6196610Y5886191D01*
X-6196610Y5886191D02*
X-6244229Y5933810D01*
X-6244229Y5933810D02*
X-6291848Y6029048D01*
X-6291848Y6029048D02*
X-6291848Y6171905D01*
X-6291848Y6171905D02*
X-6244229Y6267143D01*
X-6244229Y6267143D02*
X-6196610Y6314762D01*
X-6196610Y6314762D02*
X-6101372Y6362381D01*
X-6101372Y6362381D02*
X-5815658Y6362381D01*
X-5815658Y6362381D02*
X-5720420Y6314762D01*
X-5720420Y6314762D02*
X-5672800Y6267143D01*
X-5672800Y6267143D02*
X-5625181Y6171905D01*
X-5625181Y6171905D02*
X-5625181Y6029048D01*
X-5625181Y6790953D02*
X-6291848Y6790953D01*
X-6101372Y6790953D02*
X-6196610Y6838572D01*
X-6196610Y6838572D02*
X-6244229Y6886191D01*
X-6244229Y6886191D02*
X-6291848Y6981429D01*
X-6291848Y6981429D02*
X-6291848Y7076667D01*
X-5625181Y8171906D02*
X-6625181Y8171906D01*
X-6148991Y8171906D02*
X-6148991Y8743334D01*
X-5625181Y8743334D02*
X-6625181Y8743334D01*
X-5672800Y9600477D02*
X-5625181Y9505239D01*
X-5625181Y9505239D02*
X-5625181Y9314763D01*
X-5625181Y9314763D02*
X-5672800Y9219525D01*
X-5672800Y9219525D02*
X-5768039Y9171906D01*
X-5768039Y9171906D02*
X-6148991Y9171906D01*
X-6148991Y9171906D02*
X-6244229Y9219525D01*
X-6244229Y9219525D02*
X-6291848Y9314763D01*
X-6291848Y9314763D02*
X-6291848Y9505239D01*
X-6291848Y9505239D02*
X-6244229Y9600477D01*
X-6244229Y9600477D02*
X-6148991Y9648096D01*
X-6148991Y9648096D02*
X-6053753Y9648096D01*
X-6053753Y9648096D02*
X-5958515Y9171906D01*
X-5625181Y10076668D02*
X-6291848Y10076668D01*
X-6101372Y10076668D02*
X-6196610Y10124287D01*
X-6196610Y10124287D02*
X-6244229Y10171906D01*
X-6244229Y10171906D02*
X-6291848Y10267144D01*
X-6291848Y10267144D02*
X-6291848Y10362382D01*
X-5672800Y11076668D02*
X-5625181Y10981430D01*
X-5625181Y10981430D02*
X-5625181Y10790954D01*
X-5625181Y10790954D02*
X-5672800Y10695716D01*
X-5672800Y10695716D02*
X-5768039Y10648097D01*
X-5768039Y10648097D02*
X-6148991Y10648097D01*
X-6148991Y10648097D02*
X-6244229Y10695716D01*
X-6244229Y10695716D02*
X-6291848Y10790954D01*
X-6291848Y10790954D02*
X-6291848Y10981430D01*
X-6291848Y10981430D02*
X-6244229Y11076668D01*
X-6244229Y11076668D02*
X-6148991Y11124287D01*
X-6148991Y11124287D02*
X-6053753Y11124287D01*
X-6053753Y11124287D02*
X-5958515Y10648097D01*
D10*
X4683609Y10928529D02*
X4183609Y10928529D01*
X4183609Y11328528D02*
X4183609Y11442814D01*
X4183609Y11442814D02*
X4207419Y11499957D01*
X4207419Y11499957D02*
X4255038Y11557100D01*
X4255038Y11557100D02*
X4350276Y11585671D01*
X4350276Y11585671D02*
X4516942Y11585671D01*
X4516942Y11585671D02*
X4612180Y11557100D01*
X4612180Y11557100D02*
X4659800Y11499957D01*
X4659800Y11499957D02*
X4683609Y11442814D01*
X4683609Y11442814D02*
X4683609Y11328528D01*
X4683609Y11328528D02*
X4659800Y11271385D01*
X4659800Y11271385D02*
X4612180Y11214243D01*
X4612180Y11214243D02*
X4516942Y11185671D01*
X4516942Y11185671D02*
X4350276Y11185671D01*
X4350276Y11185671D02*
X4255038Y11214243D01*
X4255038Y11214243D02*
X4207419Y11271385D01*
X4207419Y11271385D02*
X4183609Y11328528D01*
X4207419Y-481354D02*
X4183609Y-538497D01*
X4183609Y-538497D02*
X4183609Y-624211D01*
X4183609Y-624211D02*
X4207419Y-709925D01*
X4207419Y-709925D02*
X4255038Y-767068D01*
X4255038Y-767068D02*
X4302657Y-795639D01*
X4302657Y-795639D02*
X4397895Y-824211D01*
X4397895Y-824211D02*
X4469323Y-824211D01*
X4469323Y-824211D02*
X4564561Y-795639D01*
X4564561Y-795639D02*
X4612180Y-767068D01*
X4612180Y-767068D02*
X4659800Y-709925D01*
X4659800Y-709925D02*
X4683609Y-624211D01*
X4683609Y-624211D02*
X4683609Y-567068D01*
X4683609Y-567068D02*
X4659800Y-481354D01*
X4659800Y-481354D02*
X4635990Y-452782D01*
X4635990Y-452782D02*
X4469323Y-452782D01*
X4469323Y-452782D02*
X4469323Y-567068D01*
X4683609Y-195639D02*
X4183609Y-195639D01*
X4183609Y-195639D02*
X4683609Y147218D01*
X4683609Y147218D02*
X4183609Y147218D01*
X4683609Y432932D02*
X4183609Y432932D01*
X4183609Y432932D02*
X4183609Y575789D01*
X4183609Y575789D02*
X4207419Y661503D01*
X4207419Y661503D02*
X4255038Y718646D01*
X4255038Y718646D02*
X4302657Y747217D01*
X4302657Y747217D02*
X4397895Y775789D01*
X4397895Y775789D02*
X4469323Y775789D01*
X4469323Y775789D02*
X4564561Y747217D01*
X4564561Y747217D02*
X4612180Y718646D01*
X4612180Y718646D02*
X4659800Y661503D01*
X4659800Y661503D02*
X4683609Y575789D01*
X4683609Y575789D02*
X4683609Y432932D01*
X4683609Y7957218D02*
X4445514Y7757218D01*
X4683609Y7614361D02*
X4183609Y7614361D01*
X4183609Y7614361D02*
X4183609Y7842932D01*
X4183609Y7842932D02*
X4207419Y7900075D01*
X4207419Y7900075D02*
X4231228Y7928646D01*
X4231228Y7928646D02*
X4278847Y7957218D01*
X4278847Y7957218D02*
X4350276Y7957218D01*
X4350276Y7957218D02*
X4397895Y7928646D01*
X4397895Y7928646D02*
X4421704Y7900075D01*
X4421704Y7900075D02*
X4445514Y7842932D01*
X4445514Y7842932D02*
X4445514Y7614361D01*
X4659800Y8185789D02*
X4683609Y8271503D01*
X4683609Y8271503D02*
X4683609Y8414361D01*
X4683609Y8414361D02*
X4659800Y8471503D01*
X4659800Y8471503D02*
X4635990Y8500075D01*
X4635990Y8500075D02*
X4588371Y8528646D01*
X4588371Y8528646D02*
X4540752Y8528646D01*
X4540752Y8528646D02*
X4493133Y8500075D01*
X4493133Y8500075D02*
X4469323Y8471503D01*
X4469323Y8471503D02*
X4445514Y8414361D01*
X4445514Y8414361D02*
X4421704Y8300075D01*
X4421704Y8300075D02*
X4397895Y8242932D01*
X4397895Y8242932D02*
X4374085Y8214361D01*
X4374085Y8214361D02*
X4326466Y8185789D01*
X4326466Y8185789D02*
X4278847Y8185789D01*
X4278847Y8185789D02*
X4231228Y8214361D01*
X4231228Y8214361D02*
X4207419Y8242932D01*
X4207419Y8242932D02*
X4183609Y8300075D01*
X4183609Y8300075D02*
X4183609Y8442932D01*
X4183609Y8442932D02*
X4207419Y8528646D01*
X4183609Y8700075D02*
X4183609Y9042932D01*
X4683609Y8871504D02*
X4183609Y8871504D01*
X4683609Y12920659D02*
X4183609Y12920659D01*
X4183609Y12920659D02*
X4540752Y13120659D01*
X4540752Y13120659D02*
X4183609Y13320659D01*
X4183609Y13320659D02*
X4683609Y13320659D01*
X4659800Y13577801D02*
X4683609Y13663515D01*
X4683609Y13663515D02*
X4683609Y13806373D01*
X4683609Y13806373D02*
X4659800Y13863515D01*
X4659800Y13863515D02*
X4635990Y13892087D01*
X4635990Y13892087D02*
X4588371Y13920658D01*
X4588371Y13920658D02*
X4540752Y13920658D01*
X4540752Y13920658D02*
X4493133Y13892087D01*
X4493133Y13892087D02*
X4469323Y13863515D01*
X4469323Y13863515D02*
X4445514Y13806373D01*
X4445514Y13806373D02*
X4421704Y13692087D01*
X4421704Y13692087D02*
X4397895Y13634944D01*
X4397895Y13634944D02*
X4374085Y13606373D01*
X4374085Y13606373D02*
X4326466Y13577801D01*
X4326466Y13577801D02*
X4278847Y13577801D01*
X4278847Y13577801D02*
X4231228Y13606373D01*
X4231228Y13606373D02*
X4207419Y13634944D01*
X4207419Y13634944D02*
X4183609Y13692087D01*
X4183609Y13692087D02*
X4183609Y13834944D01*
X4183609Y13834944D02*
X4207419Y13920658D01*
X4207419Y14492087D02*
X4183609Y14434944D01*
X4183609Y14434944D02*
X4183609Y14349230D01*
X4183609Y14349230D02*
X4207419Y14263516D01*
X4207419Y14263516D02*
X4255038Y14206373D01*
X4255038Y14206373D02*
X4302657Y14177802D01*
X4302657Y14177802D02*
X4397895Y14149230D01*
X4397895Y14149230D02*
X4469323Y14149230D01*
X4469323Y14149230D02*
X4564561Y14177802D01*
X4564561Y14177802D02*
X4612180Y14206373D01*
X4612180Y14206373D02*
X4659800Y14263516D01*
X4659800Y14263516D02*
X4683609Y14349230D01*
X4683609Y14349230D02*
X4683609Y14406373D01*
X4683609Y14406373D02*
X4659800Y14492087D01*
X4659800Y14492087D02*
X4635990Y14520659D01*
X4635990Y14520659D02*
X4469323Y14520659D01*
X4469323Y14520659D02*
X4469323Y14406373D01*
X4501503Y15878629D02*
X4301503Y16164343D01*
X4158646Y15878629D02*
X4158646Y16478629D01*
X4158646Y16478629D02*
X4387217Y16478629D01*
X4387217Y16478629D02*
X4444360Y16450058D01*
X4444360Y16450058D02*
X4472931Y16421486D01*
X4472931Y16421486D02*
X4501503Y16364343D01*
X4501503Y16364343D02*
X4501503Y16278629D01*
X4501503Y16278629D02*
X4472931Y16221486D01*
X4472931Y16221486D02*
X4444360Y16192915D01*
X4444360Y16192915D02*
X4387217Y16164343D01*
X4387217Y16164343D02*
X4158646Y16164343D01*
X4758646Y16192915D02*
X4958646Y16192915D01*
X5044360Y15878629D02*
X4758646Y15878629D01*
X4758646Y15878629D02*
X4758646Y16478629D01*
X4758646Y16478629D02*
X5044360Y16478629D01*
X5701503Y15821486D02*
X5644360Y15850058D01*
X5644360Y15850058D02*
X5587217Y15907200D01*
X5587217Y15907200D02*
X5501503Y15992915D01*
X5501503Y15992915D02*
X5444360Y16021486D01*
X5444360Y16021486D02*
X5387217Y16021486D01*
X5415788Y15878629D02*
X5358646Y15907200D01*
X5358646Y15907200D02*
X5301503Y15964343D01*
X5301503Y15964343D02*
X5272931Y16078629D01*
X5272931Y16078629D02*
X5272931Y16278629D01*
X5272931Y16278629D02*
X5301503Y16392915D01*
X5301503Y16392915D02*
X5358646Y16450058D01*
X5358646Y16450058D02*
X5415788Y16478629D01*
X5415788Y16478629D02*
X5530074Y16478629D01*
X5530074Y16478629D02*
X5587217Y16450058D01*
X5587217Y16450058D02*
X5644360Y16392915D01*
X5644360Y16392915D02*
X5672931Y16278629D01*
X5672931Y16278629D02*
X5672931Y16078629D01*
X5672931Y16078629D02*
X5644360Y15964343D01*
X5644360Y15964343D02*
X5587217Y15907200D01*
X5587217Y15907200D02*
X5530074Y15878629D01*
X5530074Y15878629D02*
X5415788Y15878629D01*
D13*
%TO.C,J3*%
X260000Y-17803333D02*
X4000000Y-17803333D01*
X2000000Y18043333D02*
X4240000Y18043333D01*
X4000000Y17803333D02*
X260000Y17803333D01*
X4000000Y-17803333D02*
X4000000Y17803333D01*
X4240000Y18043333D02*
X4240000Y13850000D01*
%TO.C,C3*%
X19352164Y-5852500D02*
X19567836Y-5852500D01*
X19352164Y-6572500D02*
X19567836Y-6572500D01*
%TO.C,C4*%
X12912164Y-12680000D02*
X13127836Y-12680000D01*
X12912164Y-13400000D02*
X13127836Y-13400000D01*
%TO.C,U3*%
X32150000Y12520000D02*
X32150000Y14720000D01*
X32150000Y12520000D02*
X32150000Y10320000D01*
X37370000Y12520000D02*
X37370000Y14720000D01*
X37370000Y12520000D02*
X37370000Y10320000D01*
X32350000Y9620000D02*
X32020000Y9380000D01*
X32020000Y9860000D01*
X32350000Y9620000D01*
G36*
X32350000Y9620000D02*
G01*
X32020000Y9380000D01*
X32020000Y9860000D01*
X32350000Y9620000D01*
G37*
%TO.C,C7*%
X19352164Y-13940000D02*
X19567836Y-13940000D01*
X19352164Y-14660000D02*
X19567836Y-14660000D01*
%TO.C,C1*%
X28312164Y-1630000D02*
X28527836Y-1630000D01*
X28312164Y-2350000D02*
X28527836Y-2350000D01*
%TO.C,C2*%
X17607836Y-5852500D02*
X17392164Y-5852500D01*
X17607836Y-6572500D02*
X17392164Y-6572500D01*
%TO.C,C5*%
X13012164Y15033334D02*
X13227836Y15033334D01*
X13012164Y14313334D02*
X13227836Y14313334D01*
%TO.C,C6*%
X17645336Y-13940000D02*
X17429664Y-13940000D01*
X17645336Y-14660000D02*
X17429664Y-14660000D01*
%TO.C,C12*%
X39742164Y9580000D02*
X39957836Y9580000D01*
X39742164Y8860000D02*
X39957836Y8860000D01*
%TO.C,SD1*%
X37600000Y-3495000D02*
X37600000Y-6175000D01*
X37600000Y-8475000D02*
X37600000Y-12145000D01*
X37600000Y-14445000D02*
X37600000Y-15675000D01*
X37600000Y-15675000D02*
X47420000Y-15675000D01*
X38320000Y-3495000D02*
X37600000Y-3495000D01*
X42020000Y-3495000D02*
X39720000Y-3495000D01*
X47870000Y-3495000D02*
X43420000Y-3495000D01*
X49240000Y-4975000D02*
X49240000Y-5835000D01*
%TO.C,D1*%
X47210000Y11360000D02*
X49895000Y11360000D01*
X49895000Y13280000D02*
X47210000Y13280000D01*
X49895000Y11360000D02*
X49895000Y13280000D01*
%TO.C,D2*%
X47250000Y13960000D02*
X49935000Y13960000D01*
X49935000Y15880000D02*
X47250000Y15880000D01*
X49935000Y13960000D02*
X49935000Y15880000D01*
%TO.C,R46*%
X12966359Y14016668D02*
X13273641Y14016668D01*
X12966359Y13256668D02*
X13273641Y13256668D01*
%TO.C,R42*%
X6337258Y14026324D02*
X5862742Y14026324D01*
X6337258Y12981324D02*
X5862742Y12981324D01*
%TO.C,C25*%
X29942164Y-3870000D02*
X30157836Y-3870000D01*
X29942164Y-4590000D02*
X30157836Y-4590000D01*
%TO.C,R56*%
X40043641Y3686668D02*
X39736359Y3686668D01*
X40043641Y2926668D02*
X39736359Y2926668D01*
%TO.C,R30*%
X6337258Y3249268D02*
X5862742Y3249268D01*
X6337258Y2204268D02*
X5862742Y2204268D01*
%TO.C,R4*%
X35733641Y-3980000D02*
X35426359Y-3980000D01*
X35733641Y-4740000D02*
X35426359Y-4740000D01*
%TO.C,Q1*%
X10070000Y-12705000D02*
X9420000Y-12705000D01*
X10070000Y-12705000D02*
X10720000Y-12705000D01*
X10070000Y-15825000D02*
X9420000Y-15825000D01*
X10070000Y-15825000D02*
X11745000Y-15825000D01*
%TO.C,R39*%
X6337258Y-3935436D02*
X5862742Y-3935436D01*
X6337258Y-4980436D02*
X5862742Y-4980436D01*
%TO.C,R31*%
X6337258Y-11120140D02*
X5862742Y-11120140D01*
X6337258Y-12165140D02*
X5862742Y-12165140D01*
%TO.C,U2*%
X20400000Y7740000D02*
X18200000Y7740000D01*
X20400000Y7740000D02*
X22600000Y7740000D01*
X20400000Y2520000D02*
X18200000Y2520000D01*
X20400000Y2520000D02*
X22600000Y2520000D01*
X23540000Y2390000D02*
X23060000Y2390000D01*
X23300000Y2720000D01*
X23540000Y2390000D01*
G36*
X23540000Y2390000D02*
G01*
X23060000Y2390000D01*
X23300000Y2720000D01*
X23540000Y2390000D01*
G37*
%TO.C,C17*%
X28090000Y-5702164D02*
X28090000Y-5917836D01*
X28810000Y-5702164D02*
X28810000Y-5917836D01*
%TO.C,R84*%
X20640000Y14633641D02*
X20640000Y14326359D01*
X21400000Y14633641D02*
X21400000Y14326359D01*
%TO.C,R24*%
X45660000Y12166359D02*
X45660000Y12473641D01*
X46420000Y12166359D02*
X46420000Y12473641D01*
%TO.C,C16*%
X30852164Y16270000D02*
X31067836Y16270000D01*
X30852164Y15550000D02*
X31067836Y15550000D01*
%TO.C,R33*%
X6337258Y-9323964D02*
X5862742Y-9323964D01*
X6337258Y-10368964D02*
X5862742Y-10368964D01*
%TO.C,R2*%
X27413641Y5810000D02*
X27106359Y5810000D01*
X27413641Y5050000D02*
X27106359Y5050000D01*
%TO.C,C29*%
X37262164Y-1470000D02*
X37477836Y-1470000D01*
X37262164Y-2190000D02*
X37477836Y-2190000D01*
%TO.C,C30*%
X39782164Y4868334D02*
X39997836Y4868334D01*
X39782164Y4148334D02*
X39997836Y4148334D01*
%TO.C,R48*%
X40043641Y7280000D02*
X39736359Y7280000D01*
X40043641Y6520000D02*
X39736359Y6520000D01*
%TO.C,J12*%
X43975000Y840000D02*
X45895000Y840000D01*
X45895000Y10000000D02*
X43975000Y10000000D01*
X47905000Y10000000D02*
X49610000Y10000000D01*
X49610000Y10000000D02*
X49610000Y840000D01*
X49610000Y840000D02*
X47905000Y840000D01*
%TO.C,U5*%
X41587500Y16230000D02*
X39387500Y16230000D01*
X41587500Y16230000D02*
X43787500Y16230000D01*
X41587500Y11010000D02*
X39387500Y11010000D01*
X41587500Y11010000D02*
X43787500Y11010000D01*
X44727500Y10880000D02*
X44247500Y10880000D01*
X44487500Y11210000D01*
X44727500Y10880000D01*
G36*
X44727500Y10880000D02*
G01*
X44247500Y10880000D01*
X44487500Y11210000D01*
X44727500Y10880000D01*
G37*
%TO.C,R36*%
X6337258Y8637796D02*
X5862742Y8637796D01*
X6337258Y7592796D02*
X5862742Y7592796D01*
%TO.C,R5*%
X25146359Y7880000D02*
X25453641Y7880000D01*
X25146359Y7120000D02*
X25453641Y7120000D01*
%TO.C,R35*%
X6337258Y-7527788D02*
X5862742Y-7527788D01*
X6337258Y-8572788D02*
X5862742Y-8572788D01*
%TO.C,C33*%
X37192164Y8530000D02*
X37407836Y8530000D01*
X37192164Y7810000D02*
X37407836Y7810000D01*
%TO.C,C8*%
X15182164Y4560000D02*
X15397836Y4560000D01*
X15182164Y3840000D02*
X15397836Y3840000D01*
%TO.C,R38*%
X6337258Y10433972D02*
X5862742Y10433972D01*
X6337258Y9388972D02*
X5862742Y9388972D01*
%TO.C,C24*%
X13237164Y4560000D02*
X13452836Y4560000D01*
X13237164Y3840000D02*
X13452836Y3840000D01*
%TO.C,C19*%
X28647836Y-11500000D02*
X28432164Y-11500000D01*
X28647836Y-12220000D02*
X28432164Y-12220000D01*
%TO.C,R9*%
X21563641Y-13930000D02*
X21256359Y-13930000D01*
X21563641Y-14690000D02*
X21256359Y-14690000D01*
%TO.C,U1*%
X20400000Y13330000D02*
X18200000Y13330000D01*
X20400000Y13330000D02*
X22600000Y13330000D01*
X20400000Y8110000D02*
X18200000Y8110000D01*
X20400000Y8110000D02*
X22600000Y8110000D01*
X23540000Y7980000D02*
X23060000Y7980000D01*
X23300000Y8310000D01*
X23540000Y7980000D01*
G36*
X23540000Y7980000D02*
G01*
X23060000Y7980000D01*
X23300000Y8310000D01*
X23540000Y7980000D01*
G37*
%TO.C,R40*%
X6337258Y12230148D02*
X5862742Y12230148D01*
X6337258Y11185148D02*
X5862742Y11185148D01*
%TO.C,R85*%
X25383641Y-8120000D02*
X25076359Y-8120000D01*
X25383641Y-8880000D02*
X25076359Y-8880000D01*
%TO.C,U4*%
X24550000Y12520000D02*
X24550000Y14720000D01*
X24550000Y12520000D02*
X24550000Y10320000D01*
X29770000Y12520000D02*
X29770000Y14720000D01*
X29770000Y12520000D02*
X29770000Y10320000D01*
X29900000Y15180000D02*
X29570000Y15420000D01*
X29900000Y15660000D01*
X29900000Y15180000D01*
G36*
X29900000Y15180000D02*
G01*
X29570000Y15420000D01*
X29900000Y15660000D01*
X29900000Y15180000D01*
G37*
%TO.C,C27*%
X34640000Y-2502164D02*
X34640000Y-2717836D01*
X35360000Y-2502164D02*
X35360000Y-2717836D01*
%TO.C,U6*%
X20400000Y1210000D02*
X18200000Y1210000D01*
X20400000Y1210000D02*
X22600000Y1210000D01*
X20400000Y-5560000D02*
X18200000Y-5560000D01*
X20400000Y-5560000D02*
X22600000Y-5560000D01*
X24590000Y-5340000D02*
X24260000Y-5100000D01*
X24590000Y-4860000D01*
X24590000Y-5340000D01*
G36*
X24590000Y-5340000D02*
G01*
X24260000Y-5100000D01*
X24590000Y-4860000D01*
X24590000Y-5340000D01*
G37*
%TO.C,R47*%
X39736359Y8480000D02*
X40043641Y8480000D01*
X39736359Y7720000D02*
X40043641Y7720000D01*
%TO.C,U13*%
X30572500Y6610000D02*
X31222500Y6610000D01*
X30572500Y5960000D02*
X30572500Y6610000D01*
X30572500Y40000D02*
X30572500Y-610000D01*
X30572500Y-610000D02*
X31222500Y-610000D01*
X37142500Y6610000D02*
X37552500Y6610000D01*
X37792500Y5960000D02*
X37792500Y6310000D01*
X37792500Y40000D02*
X37792500Y-610000D01*
X37792500Y-610000D02*
X37142500Y-610000D01*
X38122500Y6370000D02*
X37792500Y6610000D01*
X38122500Y6850000D01*
X38122500Y6370000D01*
G36*
X38122500Y6370000D02*
G01*
X37792500Y6610000D01*
X38122500Y6850000D01*
X38122500Y6370000D01*
G37*
%TO.C,U7*%
X12000000Y11885000D02*
X9800000Y11885000D01*
X12000000Y11885000D02*
X14200000Y11885000D01*
X12000000Y5115000D02*
X9800000Y5115000D01*
X12000000Y5115000D02*
X14200000Y5115000D01*
X16190000Y5335000D02*
X15860000Y5575000D01*
X16190000Y5815000D01*
X16190000Y5335000D01*
G36*
X16190000Y5335000D02*
G01*
X15860000Y5575000D01*
X16190000Y5815000D01*
X16190000Y5335000D01*
G37*
%TO.C,C15*%
X31007836Y10360000D02*
X30792164Y10360000D01*
X31007836Y9640000D02*
X30792164Y9640000D01*
%TO.C,C14*%
X15630000Y13087836D02*
X15630000Y12872164D01*
X16350000Y13087836D02*
X16350000Y12872164D01*
%TO.C,R49*%
X30620000Y-2763641D02*
X30620000Y-2456359D01*
X31380000Y-2763641D02*
X31380000Y-2456359D01*
%TO.C,R45*%
X6337258Y15822500D02*
X5862742Y15822500D01*
X6337258Y14777500D02*
X5862742Y14777500D01*
%TO.C,C21*%
X29062164Y8300000D02*
X29277836Y8300000D01*
X29062164Y7580000D02*
X29277836Y7580000D01*
%TO.C,R87*%
X25383641Y-9120000D02*
X25076359Y-9120000D01*
X25383641Y-9880000D02*
X25076359Y-9880000D01*
%TO.C,C20*%
X28647836Y-10455000D02*
X28432164Y-10455000D01*
X28647836Y-11175000D02*
X28432164Y-11175000D01*
%TO.C,R55*%
X42446359Y-1220000D02*
X42753641Y-1220000D01*
X42446359Y-1980000D02*
X42753641Y-1980000D01*
%TO.C,F3*%
X34648748Y-5160000D02*
X35171252Y-5160000D01*
X34648748Y-6580000D02*
X35171252Y-6580000D01*
%TO.C,Q2*%
X10070000Y15890000D02*
X9420000Y15890000D01*
X10070000Y15890000D02*
X10720000Y15890000D01*
X10070000Y12770000D02*
X9420000Y12770000D01*
X10070000Y12770000D02*
X11745000Y12770000D01*
%TO.C,C23*%
X28432164Y-9410000D02*
X28647836Y-9410000D01*
X28432164Y-10130000D02*
X28647836Y-10130000D01*
%TO.C,R86*%
X30746359Y9380000D02*
X31053641Y9380000D01*
X30746359Y8620000D02*
X31053641Y8620000D01*
%TO.C,R83*%
X31113641Y12380000D02*
X30806359Y12380000D01*
X31113641Y11620000D02*
X30806359Y11620000D01*
%TO.C,R50*%
X32620000Y-2456359D02*
X32620000Y-2763641D01*
X33380000Y-2456359D02*
X33380000Y-2763641D01*
%TO.C,R81*%
X18950000Y14613641D02*
X18950000Y14306359D01*
X19710000Y14613641D02*
X19710000Y14306359D01*
%TO.C,C22*%
X26770000Y-10102164D02*
X26770000Y-10317836D01*
X27490000Y-10102164D02*
X27490000Y-10317836D01*
%TO.C,C34*%
X33437836Y8530000D02*
X33222164Y8530000D01*
X33437836Y7810000D02*
X33222164Y7810000D01*
%TO.C,D8*%
X31170000Y-3580000D02*
X31170000Y-6240000D01*
X32870000Y-3580000D02*
X31170000Y-3580000D01*
X32870000Y-3580000D02*
X32870000Y-6240000D01*
%TO.C,R22*%
X27523641Y380000D02*
X27216359Y380000D01*
X27523641Y-380000D02*
X27216359Y-380000D01*
%TO.C,R80*%
X25176359Y5810000D02*
X25483641Y5810000D01*
X25176359Y5050000D02*
X25483641Y5050000D01*
%TO.C,R7*%
X19643641Y2230000D02*
X19336359Y2230000D01*
X19643641Y1470000D02*
X19336359Y1470000D01*
%TO.C,C38*%
X48782164Y-830000D02*
X48997836Y-830000D01*
X48782164Y-1550000D02*
X48997836Y-1550000D01*
%TO.C,R88*%
X25383641Y-10120000D02*
X25076359Y-10120000D01*
X25383641Y-10880000D02*
X25076359Y-10880000D01*
%TO.C,R79*%
X25146359Y6860000D02*
X25453641Y6860000D01*
X25146359Y6100000D02*
X25453641Y6100000D01*
%TO.C,C36*%
X27990000Y1797836D02*
X27990000Y1582164D01*
X28710000Y1797836D02*
X28710000Y1582164D01*
%TO.C,R89*%
X25383641Y-11120000D02*
X25076359Y-11120000D01*
X25383641Y-11880000D02*
X25076359Y-11880000D01*
%TO.C,R91*%
X25383641Y-12120000D02*
X25076359Y-12120000D01*
X25383641Y-12880000D02*
X25076359Y-12880000D01*
%TO.C,C18*%
X28527836Y-2660000D02*
X28312164Y-2660000D01*
X28527836Y-3380000D02*
X28312164Y-3380000D01*
%TO.C,C43*%
X30157836Y-5920000D02*
X29942164Y-5920000D01*
X30157836Y-6640000D02*
X29942164Y-6640000D01*
%TO.C,R32*%
X6337258Y5045444D02*
X5862742Y5045444D01*
X6337258Y4000444D02*
X5862742Y4000444D01*
%TO.C,R43*%
X6337258Y-343084D02*
X5862742Y-343084D01*
X6337258Y-1388084D02*
X5862742Y-1388084D01*
%TO.C,R1*%
X39736359Y-1120000D02*
X40043641Y-1120000D01*
X39736359Y-1880000D02*
X40043641Y-1880000D01*
%TO.C,R25*%
X45660000Y15073641D02*
X45660000Y14766359D01*
X46420000Y15073641D02*
X46420000Y14766359D01*
%TO.C,C10*%
X11507836Y4560000D02*
X11292164Y4560000D01*
X11507836Y3840000D02*
X11292164Y3840000D01*
%TO.C,R90*%
X31113641Y14380000D02*
X30806359Y14380000D01*
X31113641Y13620000D02*
X30806359Y13620000D01*
%TO.C,C32*%
X39782164Y1253336D02*
X39997836Y1253336D01*
X39782164Y533336D02*
X39997836Y533336D01*
%TO.C,U10*%
X10090000Y3410000D02*
X10090000Y2150000D01*
X10090000Y-3410000D02*
X10090000Y-2150000D01*
X13850000Y3410000D02*
X10090000Y3410000D01*
X13850000Y-3410000D02*
X10090000Y-3410000D01*
X15370000Y-3640000D02*
X14890000Y-3640000D01*
X15130000Y-3310000D01*
X15370000Y-3640000D01*
G36*
X15370000Y-3640000D02*
G01*
X14890000Y-3640000D01*
X15130000Y-3310000D01*
X15370000Y-3640000D01*
G37*
%TO.C,F1*%
X25318748Y-14090000D02*
X25841252Y-14090000D01*
X25318748Y-15510000D02*
X25841252Y-15510000D01*
%TO.C,C9*%
X13192164Y-3740000D02*
X13407836Y-3740000D01*
X13192164Y-4460000D02*
X13407836Y-4460000D01*
%TO.C,U12*%
X44300000Y-265000D02*
X47300000Y-265000D01*
X44300000Y-2535000D02*
X47300000Y-2535000D01*
X43750000Y-350000D02*
X43470000Y-350000D01*
X43750000Y-70000D01*
X43750000Y-350000D01*
G36*
X43750000Y-350000D02*
G01*
X43470000Y-350000D01*
X43750000Y-70000D01*
X43750000Y-350000D01*
G37*
%TO.C,C39*%
X48782164Y-1830000D02*
X48997836Y-1830000D01*
X48782164Y-2550000D02*
X48997836Y-2550000D01*
%TO.C,R34*%
X6337258Y6841620D02*
X5862742Y6841620D01*
X6337258Y5796620D02*
X5862742Y5796620D01*
%TO.C,R94*%
X31083641Y13380000D02*
X30776359Y13380000D01*
X31083641Y12620000D02*
X30776359Y12620000D01*
%TO.C,D3*%
X27690000Y-15655000D02*
X27690000Y-12995000D01*
X27690000Y-15655000D02*
X29390000Y-15655000D01*
X29390000Y-15655000D02*
X29390000Y-12995000D01*
%TO.C,R93*%
X25383641Y-1620000D02*
X25076359Y-1620000D01*
X25383641Y-2380000D02*
X25076359Y-2380000D01*
%TO.C,R37*%
X6337258Y-5731612D02*
X5862742Y-5731612D01*
X6337258Y-6776612D02*
X5862742Y-6776612D01*
%TO.C,R41*%
X6337258Y-2139260D02*
X5862742Y-2139260D01*
X6337258Y-3184260D02*
X5862742Y-3184260D01*
%TO.C,U8*%
X12000000Y-5115000D02*
X9800000Y-5115000D01*
X12000000Y-5115000D02*
X14200000Y-5115000D01*
X12000000Y-11885000D02*
X9800000Y-11885000D01*
X12000000Y-11885000D02*
X14200000Y-11885000D01*
X16190000Y-11665000D02*
X15860000Y-11425000D01*
X16190000Y-11185000D01*
X16190000Y-11665000D01*
G36*
X16190000Y-11665000D02*
G01*
X15860000Y-11425000D01*
X16190000Y-11185000D01*
X16190000Y-11665000D01*
G37*
%TO.C,R23*%
X27216359Y-620000D02*
X27523641Y-620000D01*
X27216359Y-1380000D02*
X27523641Y-1380000D01*
%TO.C,R52*%
X33620000Y-2763641D02*
X33620000Y-2456359D01*
X34380000Y-2763641D02*
X34380000Y-2456359D01*
%TO.C,R29*%
X6337258Y-12916316D02*
X5862742Y-12916316D01*
X6337258Y-13961316D02*
X5862742Y-13961316D01*
%TO.C,C40*%
X27152164Y6840000D02*
X27367836Y6840000D01*
X27152164Y6120000D02*
X27367836Y6120000D01*
%TO.C,F5*%
X14231252Y-14310000D02*
X13708748Y-14310000D01*
X14231252Y-15730000D02*
X13708748Y-15730000D01*
%TO.C,U9*%
X20400000Y-6865000D02*
X18200000Y-6865000D01*
X20400000Y-6865000D02*
X22600000Y-6865000D01*
X20400000Y-13635000D02*
X18200000Y-13635000D01*
X20400000Y-13635000D02*
X22600000Y-13635000D01*
X24590000Y-13415000D02*
X24260000Y-13175000D01*
X24590000Y-12935000D01*
X24590000Y-13415000D01*
G36*
X24590000Y-13415000D02*
G01*
X24260000Y-13175000D01*
X24590000Y-12935000D01*
X24590000Y-13415000D01*
G37*
%TO.C,C35*%
X28000000Y3682164D02*
X28000000Y3897836D01*
X28720000Y3682164D02*
X28720000Y3897836D01*
%TO.C,C37*%
X39782164Y6060000D02*
X39997836Y6060000D01*
X39782164Y5340000D02*
X39997836Y5340000D01*
%TO.C,R44*%
X6337258Y-14712500D02*
X5862742Y-14712500D01*
X6337258Y-15757500D02*
X5862742Y-15757500D01*
%TO.C,C28*%
X31640000Y-2502164D02*
X31640000Y-2717836D01*
X32360000Y-2502164D02*
X32360000Y-2717836D01*
%TO.C,R58*%
X42753641Y-220000D02*
X42446359Y-220000D01*
X42753641Y-980000D02*
X42446359Y-980000D01*
%TO.C,R96*%
X25383641Y-3620000D02*
X25076359Y-3620000D01*
X25383641Y-4380000D02*
X25076359Y-4380000D01*
%TO.C,R28*%
X6337258Y1453092D02*
X5862742Y1453092D01*
X6337258Y408092D02*
X5862742Y408092D01*
%TO.C,R82*%
X30796359Y11380000D02*
X31103641Y11380000D01*
X30796359Y10620000D02*
X31103641Y10620000D01*
%TO.C,C11*%
X22640000Y-14987836D02*
X22640000Y-14772164D01*
X23360000Y-14987836D02*
X23360000Y-14772164D01*
%TO.C,C26*%
X28237836Y-3870000D02*
X28022164Y-3870000D01*
X28237836Y-4590000D02*
X28022164Y-4590000D01*
%TO.C,R95*%
X25383641Y-2620000D02*
X25076359Y-2620000D01*
X25383641Y-3380000D02*
X25076359Y-3380000D01*
%TO.C,C13*%
X17645336Y2210000D02*
X17429664Y2210000D01*
X17645336Y1490000D02*
X17429664Y1490000D01*
%TO.C,U11*%
X29740000Y-10090000D02*
X31000000Y-10090000D01*
X29740000Y-13850000D02*
X29740000Y-10090000D01*
X36560000Y-10090000D02*
X35300000Y-10090000D01*
X36560000Y-13850000D02*
X36560000Y-10090000D01*
X29840000Y-15130000D02*
X29510000Y-15370000D01*
X29510000Y-14890000D01*
X29840000Y-15130000D01*
G36*
X29840000Y-15130000D02*
G01*
X29510000Y-15370000D01*
X29510000Y-14890000D01*
X29840000Y-15130000D01*
G37*
%TO.C,D9*%
X29440000Y-6870000D02*
X26780000Y-6870000D01*
X29440000Y-8570000D02*
X26780000Y-8570000D01*
X29440000Y-8570000D02*
X29440000Y-6870000D01*
%TO.C,Y1*%
X24390000Y620000D02*
X27690000Y620000D01*
X27690000Y620000D02*
X27690000Y4620000D01*
%TO.C,R92*%
X25383641Y-620000D02*
X25076359Y-620000D01*
X25383641Y-1380000D02*
X25076359Y-1380000D01*
%TO.C,R27*%
X40013641Y10600000D02*
X39706359Y10600000D01*
X40013641Y9840000D02*
X39706359Y9840000D01*
%TO.C,C31*%
X39782164Y61670D02*
X39997836Y61670D01*
X39782164Y-658330D02*
X39997836Y-658330D01*
%TO.C,R51*%
X29620000Y-2456359D02*
X29620000Y-2763641D01*
X30380000Y-2456359D02*
X30380000Y-2763641D01*
%TO.C,C42*%
X25537836Y360000D02*
X25322164Y360000D01*
X25537836Y-360000D02*
X25322164Y-360000D01*
%TO.C,R57*%
X40043641Y2475002D02*
X39736359Y2475002D01*
X40043641Y1715002D02*
X39736359Y1715002D01*
%TD*%
%LPC*%
D14*
%TO.C,J3*%
X2000000Y16620000D03*
X2000000Y13850000D03*
X2000000Y11080000D03*
X2000000Y8310000D03*
X2000000Y5540000D03*
X2000000Y2770000D03*
X2000000Y0D03*
X2000000Y-2770000D03*
X2000000Y-5540000D03*
X2000000Y-8310000D03*
X2000000Y-11080000D03*
X2000000Y-13850000D03*
X2000000Y-16620000D03*
%TD*%
D15*
%TO.C,C3*%
X18980000Y-6212500D03*
X19940000Y-6212500D03*
%TD*%
%TO.C,C4*%
X12540000Y-13040000D03*
X13500000Y-13040000D03*
%TD*%
D16*
%TO.C,U3*%
X32810000Y9657500D03*
X33460000Y9657500D03*
X34110000Y9657500D03*
X34760000Y9657500D03*
X35410000Y9657500D03*
X36060000Y9657500D03*
X36710000Y9657500D03*
X36710000Y15382500D03*
X36060000Y15382500D03*
X35410000Y15382500D03*
X34760000Y15382500D03*
X34110000Y15382500D03*
X33460000Y15382500D03*
X32810000Y15382500D03*
%TD*%
D15*
%TO.C,C7*%
X18980000Y-14300000D03*
X19940000Y-14300000D03*
%TD*%
%TO.C,C1*%
X27940000Y-1990000D03*
X28900000Y-1990000D03*
%TD*%
D17*
%TO.C,C2*%
X17980000Y-6212500D03*
X17020000Y-6212500D03*
%TD*%
D15*
%TO.C,C5*%
X12640000Y14673334D03*
X13600000Y14673334D03*
%TD*%
D17*
%TO.C,C6*%
X18017500Y-14300000D03*
X17057500Y-14300000D03*
%TD*%
D15*
%TO.C,C12*%
X39370000Y9220000D03*
X40330000Y9220000D03*
%TD*%
D18*
%TO.C,SD1*%
X48870000Y-6460000D03*
X48870000Y-7560000D03*
X48870000Y-8660000D03*
X48870000Y-9760000D03*
X48870000Y-10860000D03*
X48870000Y-11960000D03*
X48870000Y-13060000D03*
D19*
X48870000Y-14110000D03*
D20*
X42720000Y-3825000D03*
X39020000Y-3825000D03*
D21*
X48745000Y-4000000D03*
D22*
X38045000Y-7325000D03*
X38045000Y-13295000D03*
D23*
X48520000Y-15320000D03*
%TD*%
D24*
%TO.C,D1*%
X49147500Y12320000D03*
X47272500Y12320000D03*
%TD*%
%TO.C,D2*%
X49187500Y14920000D03*
X47312500Y14920000D03*
%TD*%
D25*
%TO.C,R46*%
X12610000Y13636668D03*
X13630000Y13636668D03*
%TD*%
D26*
%TO.C,R42*%
X6925000Y13503824D03*
X5275000Y13503824D03*
%TD*%
D15*
%TO.C,C25*%
X29570000Y-4230000D03*
X30530000Y-4230000D03*
%TD*%
D27*
%TO.C,R56*%
X40400000Y3306668D03*
X39380000Y3306668D03*
%TD*%
D26*
%TO.C,R30*%
X6925000Y2726768D03*
X5275000Y2726768D03*
%TD*%
D27*
%TO.C,R4*%
X36090000Y-4360000D03*
X35070000Y-4360000D03*
%TD*%
D28*
%TO.C,Q1*%
X11007500Y-15215000D03*
X11007500Y-13315000D03*
X9132500Y-14265000D03*
%TD*%
D26*
%TO.C,R39*%
X6925000Y-4457936D03*
X5275000Y-4457936D03*
%TD*%
%TO.C,R31*%
X6925000Y-11642640D03*
X5275000Y-11642640D03*
%TD*%
D29*
%TO.C,U2*%
X23262500Y3180000D03*
X23262500Y3830000D03*
X23262500Y4480000D03*
X23262500Y5130000D03*
X23262500Y5780000D03*
X23262500Y6430000D03*
X23262500Y7080000D03*
X17537500Y7080000D03*
X17537500Y6430000D03*
X17537500Y5780000D03*
X17537500Y5130000D03*
X17537500Y4480000D03*
X17537500Y3830000D03*
X17537500Y3180000D03*
%TD*%
D30*
%TO.C,C17*%
X28450000Y-5330000D03*
X28450000Y-6290000D03*
%TD*%
D31*
%TO.C,R84*%
X21020000Y14990000D03*
X21020000Y13970000D03*
%TD*%
D32*
%TO.C,R24*%
X46040000Y11810000D03*
X46040000Y12830000D03*
%TD*%
D15*
%TO.C,C16*%
X30480000Y15910000D03*
X31440000Y15910000D03*
%TD*%
D26*
%TO.C,R33*%
X6925000Y-9846464D03*
X5275000Y-9846464D03*
%TD*%
D27*
%TO.C,R2*%
X27770000Y5430000D03*
X26750000Y5430000D03*
%TD*%
D15*
%TO.C,C29*%
X36890000Y-1830000D03*
X37850000Y-1830000D03*
%TD*%
%TO.C,C30*%
X39410000Y4508334D03*
X40370000Y4508334D03*
%TD*%
D27*
%TO.C,R48*%
X40400000Y6900000D03*
X39380000Y6900000D03*
%TD*%
D33*
%TO.C,J12*%
X43220000Y2530000D03*
X43220000Y8310000D03*
D34*
X42100000Y2220000D03*
X42100000Y3020000D03*
D35*
X42100000Y4170000D03*
X42100000Y5170000D03*
X42100000Y5670000D03*
X42100000Y6670000D03*
D34*
X42100000Y7820000D03*
X42100000Y8620000D03*
X42100000Y8620000D03*
X42100000Y7820000D03*
D35*
X42100000Y7170000D03*
X42100000Y6170000D03*
X42100000Y4670000D03*
X42100000Y3670000D03*
D34*
X42100000Y3020000D03*
X42100000Y2220000D03*
D36*
X42700000Y1100000D03*
D37*
X46900000Y1100000D03*
D36*
X42700000Y9740000D03*
D37*
X46900000Y9740000D03*
%TD*%
D29*
%TO.C,U5*%
X44450000Y11670000D03*
X44450000Y12320000D03*
X44450000Y12970000D03*
X44450000Y13620000D03*
X44450000Y14270000D03*
X44450000Y14920000D03*
X44450000Y15570000D03*
X38725000Y15570000D03*
X38725000Y14920000D03*
X38725000Y14270000D03*
X38725000Y13620000D03*
X38725000Y12970000D03*
X38725000Y12320000D03*
X38725000Y11670000D03*
%TD*%
D26*
%TO.C,R36*%
X6925000Y8115296D03*
X5275000Y8115296D03*
%TD*%
D25*
%TO.C,R5*%
X24790000Y7500000D03*
X25810000Y7500000D03*
%TD*%
D26*
%TO.C,R35*%
X6925000Y-8050288D03*
X5275000Y-8050288D03*
%TD*%
D15*
%TO.C,C33*%
X36820000Y8170000D03*
X37780000Y8170000D03*
%TD*%
%TO.C,C8*%
X14810000Y4200000D03*
X15770000Y4200000D03*
%TD*%
D26*
%TO.C,R38*%
X6925000Y9911472D03*
X5275000Y9911472D03*
%TD*%
D15*
%TO.C,C24*%
X12865000Y4200000D03*
X13825000Y4200000D03*
%TD*%
D17*
%TO.C,C19*%
X29020000Y-11860000D03*
X28060000Y-11860000D03*
%TD*%
D27*
%TO.C,R9*%
X21920000Y-14310000D03*
X20900000Y-14310000D03*
%TD*%
D29*
%TO.C,U1*%
X23262500Y8770000D03*
X23262500Y9420000D03*
X23262500Y10070000D03*
X23262500Y10720000D03*
X23262500Y11370000D03*
X23262500Y12020000D03*
X23262500Y12670000D03*
X17537500Y12670000D03*
X17537500Y12020000D03*
X17537500Y11370000D03*
X17537500Y10720000D03*
X17537500Y10070000D03*
X17537500Y9420000D03*
X17537500Y8770000D03*
%TD*%
D26*
%TO.C,R40*%
X6925000Y11707648D03*
X5275000Y11707648D03*
%TD*%
D27*
%TO.C,R85*%
X25740000Y-8500000D03*
X24720000Y-8500000D03*
%TD*%
D38*
%TO.C,U4*%
X29110000Y15382500D03*
X28460000Y15382500D03*
X27810000Y15382500D03*
X27160000Y15382500D03*
X26510000Y15382500D03*
X25860000Y15382500D03*
X25210000Y15382500D03*
X25210000Y9657500D03*
X25860000Y9657500D03*
X26510000Y9657500D03*
X27160000Y9657500D03*
X27810000Y9657500D03*
X28460000Y9657500D03*
X29110000Y9657500D03*
%TD*%
D30*
%TO.C,C27*%
X35000000Y-2130000D03*
X35000000Y-3090000D03*
%TD*%
D29*
%TO.C,U6*%
X23262500Y-5100000D03*
X23262500Y-4450000D03*
X23262500Y-3800000D03*
X23262500Y-3150000D03*
X23262500Y-2500000D03*
X23262500Y-1850000D03*
X23262500Y-1200000D03*
X23262500Y-550000D03*
X23262500Y100000D03*
X23262500Y750000D03*
X17537500Y750000D03*
X17537500Y100000D03*
X17537500Y-550000D03*
X17537500Y-1200000D03*
X17537500Y-1850000D03*
X17537500Y-2500000D03*
X17537500Y-3150000D03*
X17537500Y-3800000D03*
X17537500Y-4450000D03*
X17537500Y-5100000D03*
%TD*%
D25*
%TO.C,R47*%
X39380000Y8100000D03*
X40400000Y8100000D03*
%TD*%
D39*
%TO.C,U13*%
X36782500Y6437500D03*
X36382500Y6437500D03*
X35982500Y6437500D03*
X35582500Y6437500D03*
X35182500Y6437500D03*
X34782500Y6437500D03*
X34382500Y6437500D03*
X33982500Y6437500D03*
X33582500Y6437500D03*
X33182500Y6437500D03*
X32782500Y6437500D03*
X32382500Y6437500D03*
X31982500Y6437500D03*
X31582500Y6437500D03*
D40*
X30745000Y5600000D03*
X30745000Y5200000D03*
X30745000Y4800000D03*
X30745000Y4400000D03*
X30745000Y4000000D03*
X30745000Y3600000D03*
X30745000Y3200000D03*
X30745000Y2800000D03*
X30745000Y2400000D03*
X30745000Y2000000D03*
X30745000Y1600000D03*
X30745000Y1200000D03*
X30745000Y800000D03*
X30745000Y400000D03*
D39*
X31582500Y-437500D03*
X31982500Y-437500D03*
X32382500Y-437500D03*
X32782500Y-437500D03*
X33182500Y-437500D03*
X33582500Y-437500D03*
X33982500Y-437500D03*
X34382500Y-437500D03*
X34782500Y-437500D03*
X35182500Y-437500D03*
X35582500Y-437500D03*
X35982500Y-437500D03*
X36382500Y-437500D03*
X36782500Y-437500D03*
D40*
X37620000Y400000D03*
X37620000Y800000D03*
X37620000Y1200000D03*
X37620000Y1600000D03*
X37620000Y2000000D03*
X37620000Y2400000D03*
X37620000Y2800000D03*
X37620000Y3200000D03*
X37620000Y3600000D03*
X37620000Y4000000D03*
X37620000Y4400000D03*
X37620000Y4800000D03*
X37620000Y5200000D03*
X37620000Y5600000D03*
D41*
X34182500Y3000000D03*
%TD*%
D29*
%TO.C,U7*%
X14862500Y5575000D03*
X14862500Y6225000D03*
X14862500Y6875000D03*
X14862500Y7525000D03*
X14862500Y8175000D03*
X14862500Y8825000D03*
X14862500Y9475000D03*
X14862500Y10125000D03*
X14862500Y10775000D03*
X14862500Y11425000D03*
X9137500Y11425000D03*
X9137500Y10775000D03*
X9137500Y10125000D03*
X9137500Y9475000D03*
X9137500Y8825000D03*
X9137500Y8175000D03*
X9137500Y7525000D03*
X9137500Y6875000D03*
X9137500Y6225000D03*
X9137500Y5575000D03*
%TD*%
D17*
%TO.C,C15*%
X31380000Y10000000D03*
X30420000Y10000000D03*
%TD*%
D30*
%TO.C,C14*%
X15990000Y13460000D03*
X15990000Y12500000D03*
%TD*%
D32*
%TO.C,R49*%
X31000000Y-3120000D03*
X31000000Y-2100000D03*
%TD*%
D26*
%TO.C,R45*%
X6925000Y15300000D03*
X5275000Y15300000D03*
%TD*%
D15*
%TO.C,C21*%
X28690000Y7940000D03*
X29650000Y7940000D03*
%TD*%
D27*
%TO.C,R87*%
X25740000Y-9500000D03*
X24720000Y-9500000D03*
%TD*%
D17*
%TO.C,C20*%
X29020000Y-10815000D03*
X28060000Y-10815000D03*
%TD*%
D25*
%TO.C,R55*%
X42090000Y-1600000D03*
X43110000Y-1600000D03*
%TD*%
D42*
%TO.C,F3*%
X33885000Y-5870000D03*
X35935000Y-5870000D03*
%TD*%
D28*
%TO.C,Q2*%
X11007500Y13380000D03*
X11007500Y15280000D03*
X9132500Y14330000D03*
%TD*%
D15*
%TO.C,C23*%
X28060000Y-9770000D03*
X29020000Y-9770000D03*
%TD*%
D25*
%TO.C,R86*%
X30390000Y9000000D03*
X31410000Y9000000D03*
%TD*%
D27*
%TO.C,R83*%
X31470000Y12000000D03*
X30450000Y12000000D03*
%TD*%
D31*
%TO.C,R50*%
X33000000Y-2100000D03*
X33000000Y-3120000D03*
%TD*%
%TO.C,R81*%
X19330000Y14970000D03*
X19330000Y13950000D03*
%TD*%
D30*
%TO.C,C22*%
X27130000Y-9730000D03*
X27130000Y-10690000D03*
%TD*%
D17*
%TO.C,C34*%
X33810000Y8170000D03*
X32850000Y8170000D03*
%TD*%
D43*
%TO.C,D8*%
X32020000Y-4140000D03*
X32020000Y-6240000D03*
%TD*%
D27*
%TO.C,R22*%
X27880000Y0D03*
X26860000Y0D03*
%TD*%
D25*
%TO.C,R80*%
X24820000Y5430000D03*
X25840000Y5430000D03*
%TD*%
D27*
%TO.C,R7*%
X20000000Y1850000D03*
X18980000Y1850000D03*
%TD*%
D15*
%TO.C,C38*%
X48410000Y-1190000D03*
X49370000Y-1190000D03*
%TD*%
D27*
%TO.C,R88*%
X25740000Y-10500000D03*
X24720000Y-10500000D03*
%TD*%
D25*
%TO.C,R79*%
X24790000Y6480000D03*
X25810000Y6480000D03*
%TD*%
D30*
%TO.C,C36*%
X28350000Y2170000D03*
X28350000Y1210000D03*
%TD*%
D27*
%TO.C,R89*%
X25740000Y-11500000D03*
X24720000Y-11500000D03*
%TD*%
%TO.C,R91*%
X25740000Y-12500000D03*
X24720000Y-12500000D03*
%TD*%
D17*
%TO.C,C18*%
X28900000Y-3020000D03*
X27940000Y-3020000D03*
%TD*%
%TO.C,C43*%
X30530000Y-6280000D03*
X29570000Y-6280000D03*
%TD*%
D26*
%TO.C,R32*%
X6925000Y4522944D03*
X5275000Y4522944D03*
%TD*%
%TO.C,R43*%
X6925000Y-865584D03*
X5275000Y-865584D03*
%TD*%
D25*
%TO.C,R1*%
X39380000Y-1500000D03*
X40400000Y-1500000D03*
%TD*%
D31*
%TO.C,R25*%
X46040000Y15430000D03*
X46040000Y14410000D03*
%TD*%
D17*
%TO.C,C10*%
X11880000Y4200000D03*
X10920000Y4200000D03*
%TD*%
D27*
%TO.C,R90*%
X31470000Y14000000D03*
X30450000Y14000000D03*
%TD*%
D15*
%TO.C,C32*%
X39410000Y893336D03*
X40370000Y893336D03*
%TD*%
D44*
%TO.C,U10*%
X15150000Y-2300000D03*
X15150000Y0D03*
D45*
X8850000Y0D03*
D44*
X15150000Y2300000D03*
%TD*%
D42*
%TO.C,F1*%
X24555000Y-14800000D03*
X26605000Y-14800000D03*
%TD*%
D15*
%TO.C,C9*%
X12820000Y-4100000D03*
X13780000Y-4100000D03*
%TD*%
D46*
%TO.C,U12*%
X44375000Y-650000D03*
X44375000Y-1150000D03*
X44375000Y-1650000D03*
X44375000Y-2150000D03*
X47225000Y-2150000D03*
X47225000Y-1650000D03*
X47225000Y-1150000D03*
X47225000Y-650000D03*
D47*
X45800000Y-1400000D03*
%TD*%
D15*
%TO.C,C39*%
X48410000Y-2190000D03*
X49370000Y-2190000D03*
%TD*%
D26*
%TO.C,R34*%
X6925000Y6319120D03*
X5275000Y6319120D03*
%TD*%
D27*
%TO.C,R94*%
X31440000Y13000000D03*
X30420000Y13000000D03*
%TD*%
D48*
%TO.C,D3*%
X28540000Y-15095000D03*
X28540000Y-12995000D03*
%TD*%
D27*
%TO.C,R93*%
X25740000Y-2000000D03*
X24720000Y-2000000D03*
%TD*%
D26*
%TO.C,R37*%
X6925000Y-6254112D03*
X5275000Y-6254112D03*
%TD*%
%TO.C,R41*%
X6925000Y-2661760D03*
X5275000Y-2661760D03*
%TD*%
D29*
%TO.C,U8*%
X14862500Y-11425000D03*
X14862500Y-10775000D03*
X14862500Y-10125000D03*
X14862500Y-9475000D03*
X14862500Y-8825000D03*
X14862500Y-8175000D03*
X14862500Y-7525000D03*
X14862500Y-6875000D03*
X14862500Y-6225000D03*
X14862500Y-5575000D03*
X9137500Y-5575000D03*
X9137500Y-6225000D03*
X9137500Y-6875000D03*
X9137500Y-7525000D03*
X9137500Y-8175000D03*
X9137500Y-8825000D03*
X9137500Y-9475000D03*
X9137500Y-10125000D03*
X9137500Y-10775000D03*
X9137500Y-11425000D03*
%TD*%
D25*
%TO.C,R23*%
X26860000Y-1000000D03*
X27880000Y-1000000D03*
%TD*%
D32*
%TO.C,R52*%
X34000000Y-3120000D03*
X34000000Y-2100000D03*
%TD*%
D26*
%TO.C,R29*%
X6925000Y-13438816D03*
X5275000Y-13438816D03*
%TD*%
D15*
%TO.C,C40*%
X26780000Y6480000D03*
X27740000Y6480000D03*
%TD*%
D49*
%TO.C,F5*%
X14995000Y-15020000D03*
X12945000Y-15020000D03*
%TD*%
D29*
%TO.C,U9*%
X23262500Y-13175000D03*
X23262500Y-12525000D03*
X23262500Y-11875000D03*
X23262500Y-11225000D03*
X23262500Y-10575000D03*
X23262500Y-9925000D03*
X23262500Y-9275000D03*
X23262500Y-8625000D03*
X23262500Y-7975000D03*
X23262500Y-7325000D03*
X17537500Y-7325000D03*
X17537500Y-7975000D03*
X17537500Y-8625000D03*
X17537500Y-9275000D03*
X17537500Y-9925000D03*
X17537500Y-10575000D03*
X17537500Y-11225000D03*
X17537500Y-11875000D03*
X17537500Y-12525000D03*
X17537500Y-13175000D03*
%TD*%
D50*
%TO.C,C35*%
X28360000Y3310000D03*
X28360000Y4270000D03*
%TD*%
D15*
%TO.C,C37*%
X39410000Y5700000D03*
X40370000Y5700000D03*
%TD*%
D26*
%TO.C,R44*%
X6925000Y-15235000D03*
X5275000Y-15235000D03*
%TD*%
D30*
%TO.C,C28*%
X32000000Y-2130000D03*
X32000000Y-3090000D03*
%TD*%
D27*
%TO.C,R58*%
X43110000Y-600000D03*
X42090000Y-600000D03*
%TD*%
%TO.C,R96*%
X25740000Y-4000000D03*
X24720000Y-4000000D03*
%TD*%
D26*
%TO.C,R28*%
X6925000Y930592D03*
X5275000Y930592D03*
%TD*%
D25*
%TO.C,R82*%
X30440000Y11000000D03*
X31460000Y11000000D03*
%TD*%
D50*
%TO.C,C11*%
X23000000Y-15360000D03*
X23000000Y-14400000D03*
%TD*%
D17*
%TO.C,C26*%
X28610000Y-4230000D03*
X27650000Y-4230000D03*
%TD*%
D27*
%TO.C,R95*%
X25740000Y-3000000D03*
X24720000Y-3000000D03*
%TD*%
D17*
%TO.C,C13*%
X18017500Y1850000D03*
X17057500Y1850000D03*
%TD*%
D51*
%TO.C,U11*%
X30850000Y-15150000D03*
X33150000Y-15150000D03*
D52*
X33150000Y-8850000D03*
D51*
X35450000Y-15150000D03*
%TD*%
D53*
%TO.C,D9*%
X28880000Y-7720000D03*
X26780000Y-7720000D03*
%TD*%
D54*
%TO.C,Y1*%
X26890000Y1520000D03*
X26890000Y3720000D03*
X25190000Y3720000D03*
X25190000Y1520000D03*
%TD*%
D27*
%TO.C,R92*%
X25740000Y-1000000D03*
X24720000Y-1000000D03*
%TD*%
%TO.C,R27*%
X40370000Y10220000D03*
X39350000Y10220000D03*
%TD*%
D15*
%TO.C,C31*%
X39410000Y-298330D03*
X40370000Y-298330D03*
%TD*%
D31*
%TO.C,R51*%
X30000000Y-2100000D03*
X30000000Y-3120000D03*
%TD*%
D17*
%TO.C,C42*%
X25910000Y0D03*
X24950000Y0D03*
%TD*%
D27*
%TO.C,R57*%
X40400000Y2095002D03*
X39380000Y2095002D03*
%TD*%
%LPD*%
M02*
