%TF.GenerationSoftware,KiCad,Pcbnew,8.0.2*%
%TF.CreationDate,2024-12-18T21:07:28-06:00*%
%TF.ProjectId,Usb_Bridge,5573625f-4272-4696-9467-652e6b696361,rev?*%
%TF.SameCoordinates,Original*%
%TF.FileFunction,Soldermask,Top*%
%TF.FilePolarity,Negative*%
%FSLAX46Y46*%
G04 Gerber Fmt 4.6, Leading zero omitted, Abs format (unit mm)*
G04 Created by KiCad (PCBNEW 8.0.2) date 2024-12-18 21:07:28*
%MOMM*%
%LPD*%
G01*
G04 APERTURE LIST*
G04 Aperture macros list*
%AMRoundRect*
0 Rectangle with rounded corners*
0 $1 Rounding radius*
0 $2 $3 $4 $5 $6 $7 $8 $9 X,Y pos of 4 corners*
0 Add a 4 corners polygon primitive as box body*
4,1,4,$2,$3,$4,$5,$6,$7,$8,$9,$2,$3,0*
0 Add four circle primitives for the rounded corners*
1,1,$1+$1,$2,$3*
1,1,$1+$1,$4,$5*
1,1,$1+$1,$6,$7*
1,1,$1+$1,$8,$9*
0 Add four rect primitives between the rounded corners*
20,1,$1+$1,$2,$3,$4,$5,0*
20,1,$1+$1,$4,$5,$6,$7,0*
20,1,$1+$1,$6,$7,$8,$9,0*
20,1,$1+$1,$8,$9,$2,$3,0*%
G04 Aperture macros list end*
%ADD10R,3.480000X1.846667*%
%ADD11RoundRect,0.140000X-0.140000X-0.170000X0.140000X-0.170000X0.140000X0.170000X-0.140000X0.170000X0*%
%ADD12RoundRect,0.100000X0.100000X-0.637500X0.100000X0.637500X-0.100000X0.637500X-0.100000X-0.637500X0*%
%ADD13RoundRect,0.140000X0.140000X0.170000X-0.140000X0.170000X-0.140000X-0.170000X0.140000X-0.170000X0*%
%ADD14R,1.100000X0.850000*%
%ADD15R,1.100000X0.750000*%
%ADD16R,1.000000X1.200000*%
%ADD17R,1.350000X1.550000*%
%ADD18R,1.350000X1.900000*%
%ADD19R,1.800000X1.170000*%
%ADD20RoundRect,0.243750X0.243750X0.456250X-0.243750X0.456250X-0.243750X-0.456250X0.243750X-0.456250X0*%
%ADD21RoundRect,0.135000X-0.135000X-0.185000X0.135000X-0.185000X0.135000X0.185000X-0.135000X0.185000X0*%
%ADD22RoundRect,0.200000X0.200000X0.275000X-0.200000X0.275000X-0.200000X-0.275000X0.200000X-0.275000X0*%
%ADD23RoundRect,0.135000X0.135000X0.185000X-0.135000X0.185000X-0.135000X-0.185000X0.135000X-0.185000X0*%
%ADD24RoundRect,0.150000X0.587500X0.150000X-0.587500X0.150000X-0.587500X-0.150000X0.587500X-0.150000X0*%
%ADD25RoundRect,0.100000X0.637500X0.100000X-0.637500X0.100000X-0.637500X-0.100000X0.637500X-0.100000X0*%
%ADD26RoundRect,0.140000X-0.170000X0.140000X-0.170000X-0.140000X0.170000X-0.140000X0.170000X0.140000X0*%
%ADD27RoundRect,0.135000X-0.185000X0.135000X-0.185000X-0.135000X0.185000X-0.135000X0.185000X0.135000X0*%
%ADD28RoundRect,0.135000X0.185000X-0.135000X0.185000X0.135000X-0.185000X0.135000X-0.185000X-0.135000X0*%
%ADD29C,0.650000*%
%ADD30R,1.240000X0.600000*%
%ADD31R,1.240000X0.300000*%
%ADD32O,2.100000X1.000000*%
%ADD33O,1.800000X1.000000*%
%ADD34RoundRect,0.100000X-0.100000X0.637500X-0.100000X-0.637500X0.100000X-0.637500X0.100000X0.637500X0*%
%ADD35RoundRect,0.050000X-0.050000X0.387500X-0.050000X-0.387500X0.050000X-0.387500X0.050000X0.387500X0*%
%ADD36RoundRect,0.050000X-0.387500X0.050000X-0.387500X-0.050000X0.387500X-0.050000X0.387500X0.050000X0*%
%ADD37R,3.200000X3.200000*%
%ADD38RoundRect,0.250000X-0.325000X-0.450000X0.325000X-0.450000X0.325000X0.450000X-0.325000X0.450000X0*%
%ADD39RoundRect,0.112500X-0.112500X0.187500X-0.112500X-0.187500X0.112500X-0.187500X0.112500X0.187500X0*%
%ADD40RoundRect,0.375000X0.625000X0.375000X-0.625000X0.375000X-0.625000X-0.375000X0.625000X-0.375000X0*%
%ADD41RoundRect,0.500000X0.500000X1.400000X-0.500000X1.400000X-0.500000X-1.400000X0.500000X-1.400000X0*%
%ADD42RoundRect,0.062500X-0.387500X-0.062500X0.387500X-0.062500X0.387500X0.062500X-0.387500X0.062500X0*%
%ADD43R,0.200000X1.600000*%
%ADD44RoundRect,0.112500X0.112500X-0.187500X0.112500X0.187500X-0.112500X0.187500X-0.112500X-0.187500X0*%
%ADD45RoundRect,0.250000X0.325000X0.450000X-0.325000X0.450000X-0.325000X-0.450000X0.325000X-0.450000X0*%
%ADD46RoundRect,0.140000X0.170000X-0.140000X0.170000X0.140000X-0.170000X0.140000X-0.170000X-0.140000X0*%
%ADD47RoundRect,0.375000X0.375000X-0.625000X0.375000X0.625000X-0.375000X0.625000X-0.375000X-0.625000X0*%
%ADD48RoundRect,0.500000X1.400000X-0.500000X1.400000X0.500000X-1.400000X0.500000X-1.400000X-0.500000X0*%
%ADD49RoundRect,0.112500X0.187500X0.112500X-0.187500X0.112500X-0.187500X-0.112500X0.187500X-0.112500X0*%
%ADD50R,1.200000X1.400000*%
G04 APERTURE END LIST*
D10*
%TO.C,J3*%
X2000000Y16620000D03*
X2000000Y13850000D03*
X2000000Y11080000D03*
X2000000Y8310000D03*
X2000000Y5540000D03*
X2000000Y2770000D03*
X2000000Y0D03*
X2000000Y-2770000D03*
X2000000Y-5540000D03*
X2000000Y-8310000D03*
X2000000Y-11080000D03*
X2000000Y-13850000D03*
X2000000Y-16620000D03*
%TD*%
D11*
%TO.C,C3*%
X18980000Y-6212500D03*
X19940000Y-6212500D03*
%TD*%
%TO.C,C4*%
X12540000Y-13040000D03*
X13500000Y-13040000D03*
%TD*%
D12*
%TO.C,U3*%
X32810000Y9657500D03*
X33460000Y9657500D03*
X34110000Y9657500D03*
X34760000Y9657500D03*
X35410000Y9657500D03*
X36060000Y9657500D03*
X36710000Y9657500D03*
X36710000Y15382500D03*
X36060000Y15382500D03*
X35410000Y15382500D03*
X34760000Y15382500D03*
X34110000Y15382500D03*
X33460000Y15382500D03*
X32810000Y15382500D03*
%TD*%
D11*
%TO.C,C7*%
X18980000Y-14300000D03*
X19940000Y-14300000D03*
%TD*%
%TO.C,C1*%
X27940000Y-1990000D03*
X28900000Y-1990000D03*
%TD*%
D13*
%TO.C,C2*%
X17980000Y-6212500D03*
X17020000Y-6212500D03*
%TD*%
D11*
%TO.C,C5*%
X12640000Y14673334D03*
X13600000Y14673334D03*
%TD*%
D13*
%TO.C,C6*%
X18017500Y-14300000D03*
X17057500Y-14300000D03*
%TD*%
D11*
%TO.C,C12*%
X39370000Y9220000D03*
X40330000Y9220000D03*
%TD*%
D14*
%TO.C,SD1*%
X48870000Y-6460000D03*
X48870000Y-7560000D03*
X48870000Y-8660000D03*
X48870000Y-9760000D03*
X48870000Y-10860000D03*
X48870000Y-11960000D03*
X48870000Y-13060000D03*
D15*
X48870000Y-14110000D03*
D16*
X42720000Y-3825000D03*
X39020000Y-3825000D03*
D17*
X48745000Y-4000000D03*
D18*
X38045000Y-7325000D03*
X38045000Y-13295000D03*
D19*
X48520000Y-15320000D03*
%TD*%
D20*
%TO.C,D1*%
X49147500Y12320000D03*
X47272500Y12320000D03*
%TD*%
%TO.C,D2*%
X49187500Y14920000D03*
X47312500Y14920000D03*
%TD*%
D21*
%TO.C,R46*%
X12610000Y13636668D03*
X13630000Y13636668D03*
%TD*%
D22*
%TO.C,R42*%
X6925000Y13503824D03*
X5275000Y13503824D03*
%TD*%
D11*
%TO.C,C25*%
X29570000Y-4230000D03*
X30530000Y-4230000D03*
%TD*%
D23*
%TO.C,R56*%
X40400000Y3306668D03*
X39380000Y3306668D03*
%TD*%
D22*
%TO.C,R30*%
X6925000Y2726768D03*
X5275000Y2726768D03*
%TD*%
D23*
%TO.C,R4*%
X36090000Y-4360000D03*
X35070000Y-4360000D03*
%TD*%
D24*
%TO.C,Q1*%
X11007500Y-15215000D03*
X11007500Y-13315000D03*
X9132500Y-14265000D03*
%TD*%
D22*
%TO.C,R39*%
X6925000Y-4457936D03*
X5275000Y-4457936D03*
%TD*%
%TO.C,R31*%
X6925000Y-11642640D03*
X5275000Y-11642640D03*
%TD*%
D25*
%TO.C,U2*%
X23262500Y3180000D03*
X23262500Y3830000D03*
X23262500Y4480000D03*
X23262500Y5130000D03*
X23262500Y5780000D03*
X23262500Y6430000D03*
X23262500Y7080000D03*
X17537500Y7080000D03*
X17537500Y6430000D03*
X17537500Y5780000D03*
X17537500Y5130000D03*
X17537500Y4480000D03*
X17537500Y3830000D03*
X17537500Y3180000D03*
%TD*%
D26*
%TO.C,C17*%
X28450000Y-5330000D03*
X28450000Y-6290000D03*
%TD*%
D27*
%TO.C,R84*%
X21020000Y14990000D03*
X21020000Y13970000D03*
%TD*%
D28*
%TO.C,R24*%
X46040000Y11810000D03*
X46040000Y12830000D03*
%TD*%
D11*
%TO.C,C16*%
X30480000Y15910000D03*
X31440000Y15910000D03*
%TD*%
D22*
%TO.C,R33*%
X6925000Y-9846464D03*
X5275000Y-9846464D03*
%TD*%
D23*
%TO.C,R2*%
X27770000Y5430000D03*
X26750000Y5430000D03*
%TD*%
D11*
%TO.C,C29*%
X36890000Y-1830000D03*
X37850000Y-1830000D03*
%TD*%
%TO.C,C30*%
X39410000Y4508334D03*
X40370000Y4508334D03*
%TD*%
D23*
%TO.C,R48*%
X40400000Y6900000D03*
X39380000Y6900000D03*
%TD*%
D29*
%TO.C,J12*%
X43220000Y2530000D03*
X43220000Y8310000D03*
D30*
X42100000Y2220000D03*
X42100000Y3020000D03*
D31*
X42100000Y4170000D03*
X42100000Y5170000D03*
X42100000Y5670000D03*
X42100000Y6670000D03*
D30*
X42100000Y7820000D03*
X42100000Y8620000D03*
X42100000Y8620000D03*
X42100000Y7820000D03*
D31*
X42100000Y7170000D03*
X42100000Y6170000D03*
X42100000Y4670000D03*
X42100000Y3670000D03*
D30*
X42100000Y3020000D03*
X42100000Y2220000D03*
D32*
X42700000Y1100000D03*
D33*
X46900000Y1100000D03*
D32*
X42700000Y9740000D03*
D33*
X46900000Y9740000D03*
%TD*%
D25*
%TO.C,U5*%
X44450000Y11670000D03*
X44450000Y12320000D03*
X44450000Y12970000D03*
X44450000Y13620000D03*
X44450000Y14270000D03*
X44450000Y14920000D03*
X44450000Y15570000D03*
X38725000Y15570000D03*
X38725000Y14920000D03*
X38725000Y14270000D03*
X38725000Y13620000D03*
X38725000Y12970000D03*
X38725000Y12320000D03*
X38725000Y11670000D03*
%TD*%
D22*
%TO.C,R36*%
X6925000Y8115296D03*
X5275000Y8115296D03*
%TD*%
D21*
%TO.C,R5*%
X24790000Y7500000D03*
X25810000Y7500000D03*
%TD*%
D22*
%TO.C,R35*%
X6925000Y-8050288D03*
X5275000Y-8050288D03*
%TD*%
D11*
%TO.C,C33*%
X36820000Y8170000D03*
X37780000Y8170000D03*
%TD*%
%TO.C,C8*%
X14810000Y4200000D03*
X15770000Y4200000D03*
%TD*%
D22*
%TO.C,R38*%
X6925000Y9911472D03*
X5275000Y9911472D03*
%TD*%
D11*
%TO.C,C24*%
X12865000Y4200000D03*
X13825000Y4200000D03*
%TD*%
D13*
%TO.C,C19*%
X29020000Y-11860000D03*
X28060000Y-11860000D03*
%TD*%
D23*
%TO.C,R9*%
X21920000Y-14310000D03*
X20900000Y-14310000D03*
%TD*%
D25*
%TO.C,U1*%
X23262500Y8770000D03*
X23262500Y9420000D03*
X23262500Y10070000D03*
X23262500Y10720000D03*
X23262500Y11370000D03*
X23262500Y12020000D03*
X23262500Y12670000D03*
X17537500Y12670000D03*
X17537500Y12020000D03*
X17537500Y11370000D03*
X17537500Y10720000D03*
X17537500Y10070000D03*
X17537500Y9420000D03*
X17537500Y8770000D03*
%TD*%
D22*
%TO.C,R40*%
X6925000Y11707648D03*
X5275000Y11707648D03*
%TD*%
D23*
%TO.C,R85*%
X25740000Y-8500000D03*
X24720000Y-8500000D03*
%TD*%
D34*
%TO.C,U4*%
X29110000Y15382500D03*
X28460000Y15382500D03*
X27810000Y15382500D03*
X27160000Y15382500D03*
X26510000Y15382500D03*
X25860000Y15382500D03*
X25210000Y15382500D03*
X25210000Y9657500D03*
X25860000Y9657500D03*
X26510000Y9657500D03*
X27160000Y9657500D03*
X27810000Y9657500D03*
X28460000Y9657500D03*
X29110000Y9657500D03*
%TD*%
D26*
%TO.C,C27*%
X35000000Y-2130000D03*
X35000000Y-3090000D03*
%TD*%
D25*
%TO.C,U6*%
X23262500Y-5100000D03*
X23262500Y-4450000D03*
X23262500Y-3800000D03*
X23262500Y-3150000D03*
X23262500Y-2500000D03*
X23262500Y-1850000D03*
X23262500Y-1200000D03*
X23262500Y-550000D03*
X23262500Y100000D03*
X23262500Y750000D03*
X17537500Y750000D03*
X17537500Y100000D03*
X17537500Y-550000D03*
X17537500Y-1200000D03*
X17537500Y-1850000D03*
X17537500Y-2500000D03*
X17537500Y-3150000D03*
X17537500Y-3800000D03*
X17537500Y-4450000D03*
X17537500Y-5100000D03*
%TD*%
D21*
%TO.C,R47*%
X39380000Y8100000D03*
X40400000Y8100000D03*
%TD*%
D35*
%TO.C,U13*%
X36782500Y6437500D03*
X36382500Y6437500D03*
X35982500Y6437500D03*
X35582500Y6437500D03*
X35182500Y6437500D03*
X34782500Y6437500D03*
X34382500Y6437500D03*
X33982500Y6437500D03*
X33582500Y6437500D03*
X33182500Y6437500D03*
X32782500Y6437500D03*
X32382500Y6437500D03*
X31982500Y6437500D03*
X31582500Y6437500D03*
D36*
X30745000Y5600000D03*
X30745000Y5200000D03*
X30745000Y4800000D03*
X30745000Y4400000D03*
X30745000Y4000000D03*
X30745000Y3600000D03*
X30745000Y3200000D03*
X30745000Y2800000D03*
X30745000Y2400000D03*
X30745000Y2000000D03*
X30745000Y1600000D03*
X30745000Y1200000D03*
X30745000Y800000D03*
X30745000Y400000D03*
D35*
X31582500Y-437500D03*
X31982500Y-437500D03*
X32382500Y-437500D03*
X32782500Y-437500D03*
X33182500Y-437500D03*
X33582500Y-437500D03*
X33982500Y-437500D03*
X34382500Y-437500D03*
X34782500Y-437500D03*
X35182500Y-437500D03*
X35582500Y-437500D03*
X35982500Y-437500D03*
X36382500Y-437500D03*
X36782500Y-437500D03*
D36*
X37620000Y400000D03*
X37620000Y800000D03*
X37620000Y1200000D03*
X37620000Y1600000D03*
X37620000Y2000000D03*
X37620000Y2400000D03*
X37620000Y2800000D03*
X37620000Y3200000D03*
X37620000Y3600000D03*
X37620000Y4000000D03*
X37620000Y4400000D03*
X37620000Y4800000D03*
X37620000Y5200000D03*
X37620000Y5600000D03*
D37*
X34182500Y3000000D03*
%TD*%
D25*
%TO.C,U7*%
X14862500Y5575000D03*
X14862500Y6225000D03*
X14862500Y6875000D03*
X14862500Y7525000D03*
X14862500Y8175000D03*
X14862500Y8825000D03*
X14862500Y9475000D03*
X14862500Y10125000D03*
X14862500Y10775000D03*
X14862500Y11425000D03*
X9137500Y11425000D03*
X9137500Y10775000D03*
X9137500Y10125000D03*
X9137500Y9475000D03*
X9137500Y8825000D03*
X9137500Y8175000D03*
X9137500Y7525000D03*
X9137500Y6875000D03*
X9137500Y6225000D03*
X9137500Y5575000D03*
%TD*%
D13*
%TO.C,C15*%
X31380000Y10000000D03*
X30420000Y10000000D03*
%TD*%
D26*
%TO.C,C14*%
X15990000Y13460000D03*
X15990000Y12500000D03*
%TD*%
D28*
%TO.C,R49*%
X31000000Y-3120000D03*
X31000000Y-2100000D03*
%TD*%
D22*
%TO.C,R45*%
X6925000Y15300000D03*
X5275000Y15300000D03*
%TD*%
D11*
%TO.C,C21*%
X28690000Y7940000D03*
X29650000Y7940000D03*
%TD*%
D23*
%TO.C,R87*%
X25740000Y-9500000D03*
X24720000Y-9500000D03*
%TD*%
D13*
%TO.C,C20*%
X29020000Y-10815000D03*
X28060000Y-10815000D03*
%TD*%
D21*
%TO.C,R55*%
X42090000Y-1600000D03*
X43110000Y-1600000D03*
%TD*%
D38*
%TO.C,F3*%
X33885000Y-5870000D03*
X35935000Y-5870000D03*
%TD*%
D24*
%TO.C,Q2*%
X11007500Y13380000D03*
X11007500Y15280000D03*
X9132500Y14330000D03*
%TD*%
D11*
%TO.C,C23*%
X28060000Y-9770000D03*
X29020000Y-9770000D03*
%TD*%
D21*
%TO.C,R86*%
X30390000Y9000000D03*
X31410000Y9000000D03*
%TD*%
D23*
%TO.C,R83*%
X31470000Y12000000D03*
X30450000Y12000000D03*
%TD*%
D27*
%TO.C,R50*%
X33000000Y-2100000D03*
X33000000Y-3120000D03*
%TD*%
%TO.C,R81*%
X19330000Y14970000D03*
X19330000Y13950000D03*
%TD*%
D26*
%TO.C,C22*%
X27130000Y-9730000D03*
X27130000Y-10690000D03*
%TD*%
D13*
%TO.C,C34*%
X33810000Y8170000D03*
X32850000Y8170000D03*
%TD*%
D39*
%TO.C,D8*%
X32020000Y-4140000D03*
X32020000Y-6240000D03*
%TD*%
D23*
%TO.C,R22*%
X27880000Y0D03*
X26860000Y0D03*
%TD*%
D21*
%TO.C,R80*%
X24820000Y5430000D03*
X25840000Y5430000D03*
%TD*%
D23*
%TO.C,R7*%
X20000000Y1850000D03*
X18980000Y1850000D03*
%TD*%
D11*
%TO.C,C38*%
X48410000Y-1190000D03*
X49370000Y-1190000D03*
%TD*%
D23*
%TO.C,R88*%
X25740000Y-10500000D03*
X24720000Y-10500000D03*
%TD*%
D21*
%TO.C,R79*%
X24790000Y6480000D03*
X25810000Y6480000D03*
%TD*%
D26*
%TO.C,C36*%
X28350000Y2170000D03*
X28350000Y1210000D03*
%TD*%
D23*
%TO.C,R89*%
X25740000Y-11500000D03*
X24720000Y-11500000D03*
%TD*%
%TO.C,R91*%
X25740000Y-12500000D03*
X24720000Y-12500000D03*
%TD*%
D13*
%TO.C,C18*%
X28900000Y-3020000D03*
X27940000Y-3020000D03*
%TD*%
%TO.C,C43*%
X30530000Y-6280000D03*
X29570000Y-6280000D03*
%TD*%
D22*
%TO.C,R32*%
X6925000Y4522944D03*
X5275000Y4522944D03*
%TD*%
%TO.C,R43*%
X6925000Y-865584D03*
X5275000Y-865584D03*
%TD*%
D21*
%TO.C,R1*%
X39380000Y-1500000D03*
X40400000Y-1500000D03*
%TD*%
D27*
%TO.C,R25*%
X46040000Y15430000D03*
X46040000Y14410000D03*
%TD*%
D13*
%TO.C,C10*%
X11880000Y4200000D03*
X10920000Y4200000D03*
%TD*%
D23*
%TO.C,R90*%
X31470000Y14000000D03*
X30450000Y14000000D03*
%TD*%
D11*
%TO.C,C32*%
X39410000Y893336D03*
X40370000Y893336D03*
%TD*%
D40*
%TO.C,U10*%
X15150000Y-2300000D03*
X15150000Y0D03*
D41*
X8850000Y0D03*
D40*
X15150000Y2300000D03*
%TD*%
D38*
%TO.C,F1*%
X24555000Y-14800000D03*
X26605000Y-14800000D03*
%TD*%
D11*
%TO.C,C9*%
X12820000Y-4100000D03*
X13780000Y-4100000D03*
%TD*%
D42*
%TO.C,U12*%
X44375000Y-650000D03*
X44375000Y-1150000D03*
X44375000Y-1650000D03*
X44375000Y-2150000D03*
X47225000Y-2150000D03*
X47225000Y-1650000D03*
X47225000Y-1150000D03*
X47225000Y-650000D03*
D43*
X45800000Y-1400000D03*
%TD*%
D11*
%TO.C,C39*%
X48410000Y-2190000D03*
X49370000Y-2190000D03*
%TD*%
D22*
%TO.C,R34*%
X6925000Y6319120D03*
X5275000Y6319120D03*
%TD*%
D23*
%TO.C,R94*%
X31440000Y13000000D03*
X30420000Y13000000D03*
%TD*%
D44*
%TO.C,D3*%
X28540000Y-15095000D03*
X28540000Y-12995000D03*
%TD*%
D23*
%TO.C,R93*%
X25740000Y-2000000D03*
X24720000Y-2000000D03*
%TD*%
D22*
%TO.C,R37*%
X6925000Y-6254112D03*
X5275000Y-6254112D03*
%TD*%
%TO.C,R41*%
X6925000Y-2661760D03*
X5275000Y-2661760D03*
%TD*%
D25*
%TO.C,U8*%
X14862500Y-11425000D03*
X14862500Y-10775000D03*
X14862500Y-10125000D03*
X14862500Y-9475000D03*
X14862500Y-8825000D03*
X14862500Y-8175000D03*
X14862500Y-7525000D03*
X14862500Y-6875000D03*
X14862500Y-6225000D03*
X14862500Y-5575000D03*
X9137500Y-5575000D03*
X9137500Y-6225000D03*
X9137500Y-6875000D03*
X9137500Y-7525000D03*
X9137500Y-8175000D03*
X9137500Y-8825000D03*
X9137500Y-9475000D03*
X9137500Y-10125000D03*
X9137500Y-10775000D03*
X9137500Y-11425000D03*
%TD*%
D21*
%TO.C,R23*%
X26860000Y-1000000D03*
X27880000Y-1000000D03*
%TD*%
D28*
%TO.C,R52*%
X34000000Y-3120000D03*
X34000000Y-2100000D03*
%TD*%
D22*
%TO.C,R29*%
X6925000Y-13438816D03*
X5275000Y-13438816D03*
%TD*%
D11*
%TO.C,C40*%
X26780000Y6480000D03*
X27740000Y6480000D03*
%TD*%
D45*
%TO.C,F5*%
X14995000Y-15020000D03*
X12945000Y-15020000D03*
%TD*%
D25*
%TO.C,U9*%
X23262500Y-13175000D03*
X23262500Y-12525000D03*
X23262500Y-11875000D03*
X23262500Y-11225000D03*
X23262500Y-10575000D03*
X23262500Y-9925000D03*
X23262500Y-9275000D03*
X23262500Y-8625000D03*
X23262500Y-7975000D03*
X23262500Y-7325000D03*
X17537500Y-7325000D03*
X17537500Y-7975000D03*
X17537500Y-8625000D03*
X17537500Y-9275000D03*
X17537500Y-9925000D03*
X17537500Y-10575000D03*
X17537500Y-11225000D03*
X17537500Y-11875000D03*
X17537500Y-12525000D03*
X17537500Y-13175000D03*
%TD*%
D46*
%TO.C,C35*%
X28360000Y3310000D03*
X28360000Y4270000D03*
%TD*%
D11*
%TO.C,C37*%
X39410000Y5700000D03*
X40370000Y5700000D03*
%TD*%
D22*
%TO.C,R44*%
X6925000Y-15235000D03*
X5275000Y-15235000D03*
%TD*%
D26*
%TO.C,C28*%
X32000000Y-2130000D03*
X32000000Y-3090000D03*
%TD*%
D23*
%TO.C,R58*%
X43110000Y-600000D03*
X42090000Y-600000D03*
%TD*%
%TO.C,R96*%
X25740000Y-4000000D03*
X24720000Y-4000000D03*
%TD*%
D22*
%TO.C,R28*%
X6925000Y930592D03*
X5275000Y930592D03*
%TD*%
D21*
%TO.C,R82*%
X30440000Y11000000D03*
X31460000Y11000000D03*
%TD*%
D46*
%TO.C,C11*%
X23000000Y-15360000D03*
X23000000Y-14400000D03*
%TD*%
D13*
%TO.C,C26*%
X28610000Y-4230000D03*
X27650000Y-4230000D03*
%TD*%
D23*
%TO.C,R95*%
X25740000Y-3000000D03*
X24720000Y-3000000D03*
%TD*%
D13*
%TO.C,C13*%
X18017500Y1850000D03*
X17057500Y1850000D03*
%TD*%
D47*
%TO.C,U11*%
X30850000Y-15150000D03*
X33150000Y-15150000D03*
D48*
X33150000Y-8850000D03*
D47*
X35450000Y-15150000D03*
%TD*%
D49*
%TO.C,D9*%
X28880000Y-7720000D03*
X26780000Y-7720000D03*
%TD*%
D50*
%TO.C,Y1*%
X26890000Y1520000D03*
X26890000Y3720000D03*
X25190000Y3720000D03*
X25190000Y1520000D03*
%TD*%
D23*
%TO.C,R92*%
X25740000Y-1000000D03*
X24720000Y-1000000D03*
%TD*%
%TO.C,R27*%
X40370000Y10220000D03*
X39350000Y10220000D03*
%TD*%
D11*
%TO.C,C31*%
X39410000Y-298330D03*
X40370000Y-298330D03*
%TD*%
D27*
%TO.C,R51*%
X30000000Y-2100000D03*
X30000000Y-3120000D03*
%TD*%
D13*
%TO.C,C42*%
X25910000Y0D03*
X24950000Y0D03*
%TD*%
D23*
%TO.C,R57*%
X40400000Y2095002D03*
X39380000Y2095002D03*
%TD*%
M02*
