%TF.GenerationSoftware,KiCad,Pcbnew,(5.1.10-1-10_14)*%
%TF.CreationDate,2021-10-09T12:14:23-05:00*%
%TF.ProjectId,bluepill_scsi,626c7565-7069-46c6-9c5f-736373692e6b,rev?*%
%TF.SameCoordinates,Original*%
%TF.FileFunction,Soldermask,Top*%
%TF.FilePolarity,Negative*%
%FSLAX46Y46*%
G04 Gerber Fmt 4.6, Leading zero omitted, Abs format (unit mm)*
G04 Created by KiCad (PCBNEW (5.1.10-1-10_14)) date 2021-10-09 12:14:23*
%MOMM*%
%LPD*%
G01*
G04 APERTURE LIST*
%TA.AperFunction,Profile*%
%ADD10C,0.050000*%
%TD*%
%ADD11O,2.350000X1.827200*%
%ADD12C,1.800000*%
%ADD13O,1.800000X1.800000*%
%ADD14O,1.700000X1.700000*%
%ADD15C,1.350000*%
%ADD16O,1.900000X1.900000*%
%ADD17C,5.500000*%
%ADD18C,0.900000*%
%ADD19C,1.500000*%
%ADD20O,1.500000X1.500000*%
G04 APERTURE END LIST*
D10*
X125095000Y-169291000D02*
G75*
G02*
X124841000Y-169545000I-254000J0D01*
G01*
X81534000Y-169545000D02*
G75*
G02*
X81280000Y-169291000I0J254000D01*
G01*
X81280000Y-96139000D02*
G75*
G02*
X81534000Y-95885000I254000J0D01*
G01*
X124714000Y-95885000D02*
G75*
G02*
X125095000Y-96266000I0J-381000D01*
G01*
X81915000Y-169545000D02*
X81534000Y-169545000D01*
X81280000Y-168275000D02*
X81280000Y-169291000D01*
X124841000Y-169545000D02*
X81915000Y-169545000D01*
X125095000Y-168275000D02*
X125095000Y-169291000D01*
X124714000Y-95885000D02*
X81534000Y-95885000D01*
X125095000Y-168275000D02*
X125095000Y-96266000D01*
X81280000Y-168275000D02*
X81280000Y-96139000D01*
D11*
%TO.C,U1*%
X85725000Y-151866600D03*
X85725000Y-149275800D03*
X85725000Y-146735800D03*
X85725000Y-144195800D03*
X85725000Y-141655800D03*
X85725000Y-139115800D03*
X85725000Y-136575800D03*
X85725000Y-134035800D03*
X85725000Y-131495800D03*
X85725000Y-128955800D03*
X85725000Y-126415800D03*
X85725000Y-123875800D03*
X85725000Y-121335800D03*
X85725000Y-118795800D03*
X85725000Y-116255800D03*
X85725000Y-113715800D03*
X85725000Y-111175800D03*
X85725000Y-108635800D03*
X85725000Y-106095800D03*
X85725000Y-103555800D03*
X100965000Y-103555800D03*
X100965000Y-106095800D03*
X100965000Y-108635800D03*
X100965000Y-111175800D03*
X100965000Y-113715800D03*
X100965000Y-116255800D03*
X100965000Y-118795800D03*
X100965000Y-121335800D03*
X100965000Y-123875800D03*
X100965000Y-126415800D03*
X100965000Y-128955800D03*
X100965000Y-131495800D03*
X100965000Y-134035800D03*
X100965000Y-136575800D03*
X100965000Y-139115800D03*
X100965000Y-141655800D03*
X100965000Y-144195800D03*
X100965000Y-146735800D03*
X100965000Y-149275800D03*
G36*
G01*
X102090000Y-152729400D02*
X99840000Y-152729400D01*
G75*
G02*
X99790000Y-152679400I0J50000D01*
G01*
X99790000Y-150952200D01*
G75*
G02*
X99840000Y-150902200I50000J0D01*
G01*
X102090000Y-150902200D01*
G75*
G02*
X102140000Y-150952200I0J-50000D01*
G01*
X102140000Y-152679400D01*
G75*
G02*
X102090000Y-152729400I-50000J0D01*
G01*
G37*
%TD*%
D12*
%TO.C,J2*%
X121285000Y-163195000D03*
X121285000Y-160655000D03*
X121285000Y-158115000D03*
X121285000Y-155575000D03*
X121285000Y-153035000D03*
X121285000Y-150495000D03*
X121285000Y-147955000D03*
X121285000Y-145415000D03*
X121285000Y-142875000D03*
X121285000Y-140335000D03*
X121285000Y-137795000D03*
X121285000Y-135255000D03*
X121285000Y-132715000D03*
X121285000Y-130175000D03*
X121285000Y-127635000D03*
X121285000Y-125095000D03*
X121285000Y-122555000D03*
X121285000Y-120015000D03*
X121285000Y-117475000D03*
X121285000Y-114935000D03*
X121285000Y-112395000D03*
X121285000Y-109855000D03*
X121285000Y-107315000D03*
X121285000Y-104775000D03*
X121285000Y-102235000D03*
X118745000Y-163195000D03*
X118745000Y-160655000D03*
X118745000Y-158115000D03*
X118745000Y-155575000D03*
X118745000Y-153035000D03*
X118745000Y-150495000D03*
X118745000Y-147955000D03*
X118745000Y-145415000D03*
X118745000Y-142875000D03*
X118745000Y-140335000D03*
X118745000Y-137795000D03*
X118745000Y-135255000D03*
X118745000Y-132715000D03*
X118745000Y-130175000D03*
X118745000Y-127635000D03*
X118745000Y-125095000D03*
X118745000Y-122555000D03*
X118745000Y-120015000D03*
X118745000Y-117475000D03*
X118745000Y-114935000D03*
X118745000Y-112395000D03*
X118745000Y-109855000D03*
X118745000Y-107315000D03*
X118745000Y-104775000D03*
G36*
G01*
X117845000Y-102870295D02*
X117845000Y-101599705D01*
G75*
G02*
X118109705Y-101335000I264705J0D01*
G01*
X119380295Y-101335000D01*
G75*
G02*
X119645000Y-101599705I0J-264705D01*
G01*
X119645000Y-102870295D01*
G75*
G02*
X119380295Y-103135000I-264705J0D01*
G01*
X118109705Y-103135000D01*
G75*
G02*
X117845000Y-102870295I0J264705D01*
G01*
G37*
%TD*%
%TO.C,J5*%
G36*
G01*
X94274000Y-159495000D02*
X92924000Y-159495000D01*
G75*
G02*
X92874000Y-159445000I0J50000D01*
G01*
X92874000Y-157545000D01*
G75*
G02*
X92924000Y-157495000I50000J0D01*
G01*
X94274000Y-157495000D01*
G75*
G02*
X94324000Y-157545000I0J-50000D01*
G01*
X94324000Y-159445000D01*
G75*
G02*
X94274000Y-159495000I-50000J0D01*
G01*
G37*
G36*
G01*
X94274000Y-165465000D02*
X92924000Y-165465000D01*
G75*
G02*
X92874000Y-165415000I0J50000D01*
G01*
X92874000Y-163515000D01*
G75*
G02*
X92924000Y-163465000I50000J0D01*
G01*
X94274000Y-163465000D01*
G75*
G02*
X94324000Y-163515000I0J-50000D01*
G01*
X94324000Y-165415000D01*
G75*
G02*
X94274000Y-165465000I-50000J0D01*
G01*
G37*
G36*
G01*
X89424000Y-168615000D02*
X88424000Y-168615000D01*
G75*
G02*
X88374000Y-168565000I0J50000D01*
G01*
X88374000Y-167365000D01*
G75*
G02*
X88424000Y-167315000I50000J0D01*
G01*
X89424000Y-167315000D01*
G75*
G02*
X89474000Y-167365000I0J-50000D01*
G01*
X89474000Y-168565000D01*
G75*
G02*
X89424000Y-168615000I-50000J0D01*
G01*
G37*
G36*
G01*
X93124000Y-168615000D02*
X92124000Y-168615000D01*
G75*
G02*
X92074000Y-168565000I0J50000D01*
G01*
X92074000Y-167365000D01*
G75*
G02*
X92124000Y-167315000I50000J0D01*
G01*
X93124000Y-167315000D01*
G75*
G02*
X93174000Y-167365000I0J-50000D01*
G01*
X93174000Y-168565000D01*
G75*
G02*
X93124000Y-168615000I-50000J0D01*
G01*
G37*
G36*
G01*
X83574000Y-168615000D02*
X82224000Y-168615000D01*
G75*
G02*
X82174000Y-168565000I0J50000D01*
G01*
X82174000Y-167015000D01*
G75*
G02*
X82224000Y-166965000I50000J0D01*
G01*
X83574000Y-166965000D01*
G75*
G02*
X83624000Y-167015000I0J-50000D01*
G01*
X83624000Y-168565000D01*
G75*
G02*
X83574000Y-168615000I-50000J0D01*
G01*
G37*
G36*
G01*
X84024000Y-157105000D02*
X82224000Y-157105000D01*
G75*
G02*
X82174000Y-157055000I0J50000D01*
G01*
X82174000Y-155885000D01*
G75*
G02*
X82224000Y-155835000I50000J0D01*
G01*
X84024000Y-155835000D01*
G75*
G02*
X84074000Y-155885000I0J-50000D01*
G01*
X84074000Y-157055000D01*
G75*
G02*
X84024000Y-157105000I-50000J0D01*
G01*
G37*
G36*
G01*
X83324000Y-159205000D02*
X82224000Y-159205000D01*
G75*
G02*
X82174000Y-159155000I0J50000D01*
G01*
X82174000Y-158305000D01*
G75*
G02*
X82224000Y-158255000I50000J0D01*
G01*
X83324000Y-158255000D01*
G75*
G02*
X83374000Y-158305000I0J-50000D01*
G01*
X83374000Y-159155000D01*
G75*
G02*
X83324000Y-159205000I-50000J0D01*
G01*
G37*
G36*
G01*
X83324000Y-160305000D02*
X82224000Y-160305000D01*
G75*
G02*
X82174000Y-160255000I0J50000D01*
G01*
X82174000Y-159405000D01*
G75*
G02*
X82224000Y-159355000I50000J0D01*
G01*
X83324000Y-159355000D01*
G75*
G02*
X83374000Y-159405000I0J-50000D01*
G01*
X83374000Y-160255000D01*
G75*
G02*
X83324000Y-160305000I-50000J0D01*
G01*
G37*
G36*
G01*
X83324000Y-161405000D02*
X82224000Y-161405000D01*
G75*
G02*
X82174000Y-161355000I0J50000D01*
G01*
X82174000Y-160505000D01*
G75*
G02*
X82224000Y-160455000I50000J0D01*
G01*
X83324000Y-160455000D01*
G75*
G02*
X83374000Y-160505000I0J-50000D01*
G01*
X83374000Y-161355000D01*
G75*
G02*
X83324000Y-161405000I-50000J0D01*
G01*
G37*
G36*
G01*
X83324000Y-162505000D02*
X82224000Y-162505000D01*
G75*
G02*
X82174000Y-162455000I0J50000D01*
G01*
X82174000Y-161605000D01*
G75*
G02*
X82224000Y-161555000I50000J0D01*
G01*
X83324000Y-161555000D01*
G75*
G02*
X83374000Y-161605000I0J-50000D01*
G01*
X83374000Y-162455000D01*
G75*
G02*
X83324000Y-162505000I-50000J0D01*
G01*
G37*
G36*
G01*
X83324000Y-163605000D02*
X82224000Y-163605000D01*
G75*
G02*
X82174000Y-163555000I0J50000D01*
G01*
X82174000Y-162705000D01*
G75*
G02*
X82224000Y-162655000I50000J0D01*
G01*
X83324000Y-162655000D01*
G75*
G02*
X83374000Y-162705000I0J-50000D01*
G01*
X83374000Y-163555000D01*
G75*
G02*
X83324000Y-163605000I-50000J0D01*
G01*
G37*
G36*
G01*
X83324000Y-164705000D02*
X82224000Y-164705000D01*
G75*
G02*
X82174000Y-164655000I0J50000D01*
G01*
X82174000Y-163805000D01*
G75*
G02*
X82224000Y-163755000I50000J0D01*
G01*
X83324000Y-163755000D01*
G75*
G02*
X83374000Y-163805000I0J-50000D01*
G01*
X83374000Y-164655000D01*
G75*
G02*
X83324000Y-164705000I-50000J0D01*
G01*
G37*
G36*
G01*
X83324000Y-158105000D02*
X82224000Y-158105000D01*
G75*
G02*
X82174000Y-158055000I0J50000D01*
G01*
X82174000Y-157305000D01*
G75*
G02*
X82224000Y-157255000I50000J0D01*
G01*
X83324000Y-157255000D01*
G75*
G02*
X83374000Y-157305000I0J-50000D01*
G01*
X83374000Y-158055000D01*
G75*
G02*
X83324000Y-158105000I-50000J0D01*
G01*
G37*
G36*
G01*
X83324000Y-165805000D02*
X82224000Y-165805000D01*
G75*
G02*
X82174000Y-165755000I0J50000D01*
G01*
X82174000Y-164905000D01*
G75*
G02*
X82224000Y-164855000I50000J0D01*
G01*
X83324000Y-164855000D01*
G75*
G02*
X83374000Y-164905000I0J-50000D01*
G01*
X83374000Y-165755000D01*
G75*
G02*
X83324000Y-165805000I-50000J0D01*
G01*
G37*
%TD*%
%TO.C,JP1*%
G36*
G01*
X110225000Y-152488000D02*
X110225000Y-150788000D01*
G75*
G02*
X110275000Y-150738000I50000J0D01*
G01*
X111975000Y-150738000D01*
G75*
G02*
X112025000Y-150788000I0J-50000D01*
G01*
X112025000Y-152488000D01*
G75*
G02*
X111975000Y-152538000I-50000J0D01*
G01*
X110275000Y-152538000D01*
G75*
G02*
X110225000Y-152488000I0J50000D01*
G01*
G37*
D13*
X111125000Y-154178000D03*
%TD*%
%TO.C,JP2*%
X107315000Y-154178000D03*
G36*
G01*
X106415000Y-152488000D02*
X106415000Y-150788000D01*
G75*
G02*
X106465000Y-150738000I50000J0D01*
G01*
X108165000Y-150738000D01*
G75*
G02*
X108215000Y-150788000I0J-50000D01*
G01*
X108215000Y-152488000D01*
G75*
G02*
X108165000Y-152538000I-50000J0D01*
G01*
X106465000Y-152538000D01*
G75*
G02*
X106415000Y-152488000I0J50000D01*
G01*
G37*
%TD*%
%TO.C,RN1*%
G36*
G01*
X106515000Y-97575000D02*
X108115000Y-97575000D01*
G75*
G02*
X108165000Y-97625000I0J-50000D01*
G01*
X108165000Y-99225000D01*
G75*
G02*
X108115000Y-99275000I-50000J0D01*
G01*
X106515000Y-99275000D01*
G75*
G02*
X106465000Y-99225000I0J50000D01*
G01*
X106465000Y-97625000D01*
G75*
G02*
X106515000Y-97575000I50000J0D01*
G01*
G37*
D14*
X107315000Y-100965000D03*
X107315000Y-103505000D03*
X107315000Y-106045000D03*
X107315000Y-108585000D03*
X107315000Y-111125000D03*
X107315000Y-113665000D03*
X107315000Y-116205000D03*
X107315000Y-118745000D03*
X107315000Y-121285000D03*
%TD*%
%TO.C,RN2*%
G36*
G01*
X110325000Y-97575000D02*
X111925000Y-97575000D01*
G75*
G02*
X111975000Y-97625000I0J-50000D01*
G01*
X111975000Y-99225000D01*
G75*
G02*
X111925000Y-99275000I-50000J0D01*
G01*
X110325000Y-99275000D01*
G75*
G02*
X110275000Y-99225000I0J50000D01*
G01*
X110275000Y-97625000D01*
G75*
G02*
X110325000Y-97575000I50000J0D01*
G01*
G37*
X111125000Y-100965000D03*
X111125000Y-103505000D03*
X111125000Y-106045000D03*
X111125000Y-108585000D03*
X111125000Y-111125000D03*
X111125000Y-113665000D03*
X111125000Y-116205000D03*
X111125000Y-118745000D03*
X111125000Y-121285000D03*
%TD*%
%TO.C,RN3*%
X107315000Y-147955000D03*
X107315000Y-145415000D03*
X107315000Y-142875000D03*
X107315000Y-140335000D03*
X107315000Y-137795000D03*
X107315000Y-135255000D03*
X107315000Y-132715000D03*
X107315000Y-130175000D03*
X107315000Y-127635000D03*
G36*
G01*
X106515000Y-124245000D02*
X108115000Y-124245000D01*
G75*
G02*
X108165000Y-124295000I0J-50000D01*
G01*
X108165000Y-125895000D01*
G75*
G02*
X108115000Y-125945000I-50000J0D01*
G01*
X106515000Y-125945000D01*
G75*
G02*
X106465000Y-125895000I0J50000D01*
G01*
X106465000Y-124295000D01*
G75*
G02*
X106515000Y-124245000I50000J0D01*
G01*
G37*
%TD*%
%TO.C,RN4*%
X111125000Y-147955000D03*
X111125000Y-145415000D03*
X111125000Y-142875000D03*
X111125000Y-140335000D03*
X111125000Y-137795000D03*
X111125000Y-135255000D03*
X111125000Y-132715000D03*
X111125000Y-130175000D03*
X111125000Y-127635000D03*
G36*
G01*
X110325000Y-124245000D02*
X111925000Y-124245000D01*
G75*
G02*
X111975000Y-124295000I0J-50000D01*
G01*
X111975000Y-125895000D01*
G75*
G02*
X111925000Y-125945000I-50000J0D01*
G01*
X110325000Y-125945000D01*
G75*
G02*
X110275000Y-125895000I0J50000D01*
G01*
X110275000Y-124295000D01*
G75*
G02*
X110325000Y-124245000I50000J0D01*
G01*
G37*
%TD*%
%TO.C,J1*%
G36*
G01*
X104481000Y-166233000D02*
X104481000Y-164983000D01*
G75*
G02*
X104531000Y-164933000I50000J0D01*
G01*
X105781000Y-164933000D01*
G75*
G02*
X105831000Y-164983000I0J-50000D01*
G01*
X105831000Y-166233000D01*
G75*
G02*
X105781000Y-166283000I-50000J0D01*
G01*
X104531000Y-166283000D01*
G75*
G02*
X104481000Y-166233000I0J50000D01*
G01*
G37*
D15*
X107656000Y-165608000D03*
X110156000Y-165608000D03*
X112656000Y-165608000D03*
%TD*%
%TO.C,D4*%
G36*
G01*
X104460000Y-162063000D02*
X104460000Y-160263000D01*
G75*
G02*
X104510000Y-160213000I50000J0D01*
G01*
X106310000Y-160213000D01*
G75*
G02*
X106360000Y-160263000I0J-50000D01*
G01*
X106360000Y-162063000D01*
G75*
G02*
X106310000Y-162113000I-50000J0D01*
G01*
X104510000Y-162113000D01*
G75*
G02*
X104460000Y-162063000I0J50000D01*
G01*
G37*
D16*
X113030000Y-161163000D03*
%TD*%
%TO.C,D5*%
X113030000Y-157734000D03*
G36*
G01*
X104460000Y-158634000D02*
X104460000Y-156834000D01*
G75*
G02*
X104510000Y-156784000I50000J0D01*
G01*
X106310000Y-156784000D01*
G75*
G02*
X106360000Y-156834000I0J-50000D01*
G01*
X106360000Y-158634000D01*
G75*
G02*
X106310000Y-158684000I-50000J0D01*
G01*
X104510000Y-158684000D01*
G75*
G02*
X104460000Y-158634000I0J50000D01*
G01*
G37*
%TD*%
D17*
%TO.C,H1*%
X99314000Y-99060000D03*
D18*
X101339000Y-99060000D03*
X100745891Y-100491891D03*
X99314000Y-101085000D03*
X97882109Y-100491891D03*
X97289000Y-99060000D03*
X97882109Y-97628109D03*
X99314000Y-97035000D03*
X100745891Y-97628109D03*
%TD*%
D17*
%TO.C,H2*%
X99314000Y-166116000D03*
D18*
X101339000Y-166116000D03*
X100745891Y-167547891D03*
X99314000Y-168141000D03*
X97882109Y-167547891D03*
X97289000Y-166116000D03*
X97882109Y-164684109D03*
X99314000Y-164091000D03*
X100745891Y-164684109D03*
%TD*%
D19*
%TO.C,R2*%
X82423000Y-144272000D03*
D20*
X82423000Y-139192000D03*
%TD*%
%TO.C,R1*%
X82423000Y-146685000D03*
D19*
X82423000Y-151765000D03*
%TD*%
%TO.C,J3*%
G36*
G01*
X99910000Y-158126000D02*
X98210000Y-158126000D01*
G75*
G02*
X98160000Y-158076000I0J50000D01*
G01*
X98160000Y-156376000D01*
G75*
G02*
X98210000Y-156326000I50000J0D01*
G01*
X99910000Y-156326000D01*
G75*
G02*
X99960000Y-156376000I0J-50000D01*
G01*
X99960000Y-158076000D01*
G75*
G02*
X99910000Y-158126000I-50000J0D01*
G01*
G37*
D13*
X101600000Y-157226000D03*
%TD*%
%TO.C,J4*%
X101600000Y-161036000D03*
G36*
G01*
X99910000Y-161936000D02*
X98210000Y-161936000D01*
G75*
G02*
X98160000Y-161886000I0J50000D01*
G01*
X98160000Y-160186000D01*
G75*
G02*
X98210000Y-160136000I50000J0D01*
G01*
X99910000Y-160136000D01*
G75*
G02*
X99960000Y-160186000I0J-50000D01*
G01*
X99960000Y-161886000D01*
G75*
G02*
X99910000Y-161936000I-50000J0D01*
G01*
G37*
%TD*%
M02*
