M48
; DRILL file {KiCad (5.1.10-1-10_14)} date Saturday, October 09, 2021 at 12:15:26 PM
; FORMAT={-:-/ absolute / metric / decimal}
; #@! TF.CreationDate,2021-10-09T12:15:26-05:00
; #@! TF.GenerationSoftware,Kicad,Pcbnew,(5.1.10-1-10_14)
; #@! TF.FileFunction,Plated,1,2,PTH
FMAT,2
METRIC
T1C0.400
T2C0.500
T3C0.700
T4C0.800
T5C0.900
T6C1.000
T7C1.016
T8C2.700
%
G90
G05
T1
X83.566Y-154.305
X83.693Y-153.162
X90.297Y-146.304
X92.456Y-141.732
X94.361Y-152.781
X95.377Y-150.114
X96.901Y-150.114
X97.536Y-152.654
X113.665Y-109.855
X113.665Y-122.555
X116.205Y-128.905
T2
X97.289Y-99.06
X97.289Y-166.116
X97.882Y-97.628
X97.882Y-100.492
X97.882Y-164.684
X97.882Y-167.548
X99.314Y-97.035
X99.314Y-101.085
X99.314Y-164.091
X99.314Y-168.141
X100.746Y-97.628
X100.746Y-100.492
X100.746Y-164.684
X100.746Y-167.548
X101.339Y-99.06
X101.339Y-166.116
T3
X82.423Y-139.192
X82.423Y-144.272
X82.423Y-146.685
X82.423Y-151.765
T4
X107.315Y-98.425
X107.315Y-100.965
X107.315Y-103.505
X107.315Y-106.045
X107.315Y-108.585
X107.315Y-111.125
X107.315Y-113.665
X107.315Y-116.205
X107.315Y-118.745
X107.315Y-121.285
X107.315Y-125.095
X107.315Y-127.635
X107.315Y-130.175
X107.315Y-132.715
X107.315Y-135.255
X107.315Y-137.795
X107.315Y-140.335
X107.315Y-142.875
X107.315Y-145.415
X107.315Y-147.955
X111.125Y-98.425
X111.125Y-100.965
X111.125Y-103.505
X111.125Y-106.045
X111.125Y-108.585
X111.125Y-111.125
X111.125Y-113.665
X111.125Y-116.205
X111.125Y-118.745
X111.125Y-121.285
X111.125Y-125.095
X111.125Y-127.635
X111.125Y-130.175
X111.125Y-132.715
X111.125Y-135.255
X111.125Y-137.795
X111.125Y-140.335
X111.125Y-142.875
X111.125Y-145.415
X111.125Y-147.955
T5
X105.156Y-165.608
X105.41Y-157.734
X105.41Y-161.163
X107.656Y-165.608
X110.156Y-165.608
X112.656Y-165.608
X113.03Y-157.734
X113.03Y-161.163
T6
X99.06Y-157.226
X99.06Y-161.036
X101.6Y-157.226
X101.6Y-161.036
X107.315Y-151.638
X107.315Y-154.178
X111.125Y-151.638
X111.125Y-154.178
X118.745Y-102.235
X118.745Y-104.775
X118.745Y-107.315
X118.745Y-109.855
X118.745Y-112.395
X118.745Y-114.935
X118.745Y-117.475
X118.745Y-120.015
X118.745Y-122.555
X118.745Y-125.095
X118.745Y-127.635
X118.745Y-130.175
X118.745Y-132.715
X118.745Y-135.255
X118.745Y-137.795
X118.745Y-140.335
X118.745Y-142.875
X118.745Y-145.415
X118.745Y-147.955
X118.745Y-150.495
X118.745Y-153.035
X118.745Y-155.575
X118.745Y-158.115
X118.745Y-160.655
X118.745Y-163.195
X121.285Y-102.235
X121.285Y-104.775
X121.285Y-107.315
X121.285Y-109.855
X121.285Y-112.395
X121.285Y-114.935
X121.285Y-117.475
X121.285Y-120.015
X121.285Y-122.555
X121.285Y-125.095
X121.285Y-127.635
X121.285Y-130.175
X121.285Y-132.715
X121.285Y-135.255
X121.285Y-137.795
X121.285Y-140.335
X121.285Y-142.875
X121.285Y-145.415
X121.285Y-147.955
X121.285Y-150.495
X121.285Y-153.035
X121.285Y-155.575
X121.285Y-158.115
X121.285Y-160.655
X121.285Y-163.195
T7
X85.725Y-103.556
X85.725Y-106.096
X85.725Y-108.636
X85.725Y-111.176
X85.725Y-113.716
X85.725Y-116.256
X85.725Y-118.796
X85.725Y-121.336
X85.725Y-123.876
X85.725Y-126.416
X85.725Y-128.956
X85.725Y-131.496
X85.725Y-134.036
X85.725Y-136.576
X85.725Y-139.116
X85.725Y-141.656
X85.725Y-144.196
X85.725Y-146.736
X85.725Y-149.276
X85.725Y-151.867
X100.965Y-103.556
X100.965Y-106.096
X100.965Y-108.636
X100.965Y-111.176
X100.965Y-113.716
X100.965Y-116.256
X100.965Y-118.796
X100.965Y-121.336
X100.965Y-123.876
X100.965Y-126.416
X100.965Y-128.956
X100.965Y-131.496
X100.965Y-134.036
X100.965Y-136.576
X100.965Y-139.116
X100.965Y-141.656
X100.965Y-144.196
X100.965Y-146.736
X100.965Y-149.276
X100.965Y-151.816
T8
X99.314Y-99.06
X99.314Y-166.116
T0
M30
