%FSLAX45Y45*%
G04 Gerber Fmt 4.5, Leading zero omitted, Abs format (unit mm)*
G04 Created by KiCad (PCBNEW (5.1.10-1-10_14)) date 2021-10-09 12:15:42*
%MOMM*%
%LPD*%
G01*
G04 APERTURE LIST*
%TA.AperFunction,Profile*%
%ADD10C,0.050000*%
%TD*%
%ADD11C,0.200000*%
%ADD12C,0.300000*%
G04 APERTURE END LIST*
D10*
X12509500Y-16929100D02*
G75*
G02*
X12484100Y-16954500I-25400J0D01*
G01*
X8153400Y-16954500D02*
G75*
G02*
X8128000Y-16929100I0J25400D01*
G01*
X8128000Y-9613900D02*
G75*
G02*
X8153400Y-9588500I25400J0D01*
G01*
X12471400Y-9588500D02*
G75*
G02*
X12509500Y-9626600I0J-38100D01*
G01*
X8191500Y-16954500D02*
X8153400Y-16954500D01*
X8128000Y-16827500D02*
X8128000Y-16929100D01*
X12484100Y-16954500D02*
X8191500Y-16954500D01*
X12509500Y-16827500D02*
X12509500Y-16929100D01*
X12471400Y-9588500D02*
X8153400Y-9588500D01*
X12509500Y-16827500D02*
X12509500Y-9626600D01*
X8128000Y-16827500D02*
X8128000Y-9613900D01*
D11*
X8336600Y-15410500D02*
X8376600Y-15450500D01*
X8376600Y-15410500D02*
X8336600Y-15450500D01*
X8349300Y-15296200D02*
X8389300Y-15336200D01*
X8389300Y-15296200D02*
X8349300Y-15336200D01*
X9009700Y-14610400D02*
X9049700Y-14650400D01*
X9049700Y-14610400D02*
X9009700Y-14650400D01*
X9225600Y-14153200D02*
X9265600Y-14193200D01*
X9265600Y-14153200D02*
X9225600Y-14193200D01*
X9416100Y-15258100D02*
X9456100Y-15298100D01*
X9456100Y-15258100D02*
X9416100Y-15298100D01*
X9517700Y-14991400D02*
X9557700Y-15031400D01*
X9557700Y-14991400D02*
X9517700Y-15031400D01*
X9670100Y-14991400D02*
X9710100Y-15031400D01*
X9710100Y-14991400D02*
X9670100Y-15031400D01*
X9733600Y-15245400D02*
X9773600Y-15285400D01*
X9773600Y-15245400D02*
X9733600Y-15285400D01*
X11346500Y-10965500D02*
X11386500Y-11005500D01*
X11386500Y-10965500D02*
X11346500Y-11005500D01*
X11346500Y-12235500D02*
X11386500Y-12275500D01*
X11386500Y-12235500D02*
X11346500Y-12275500D01*
X11600500Y-12870500D02*
X11640500Y-12910500D01*
X11640500Y-12870500D02*
X11600500Y-12910500D01*
X9753900Y-9906000D02*
G75*
G03*
X9753900Y-9906000I-25000J0D01*
G01*
X9753900Y-16611600D02*
G75*
G03*
X9753900Y-16611600I-25000J0D01*
G01*
X9813211Y-9762811D02*
G75*
G03*
X9813211Y-9762811I-25000J0D01*
G01*
X9813211Y-10049189D02*
G75*
G03*
X9813211Y-10049189I-25000J0D01*
G01*
X9813211Y-16468411D02*
G75*
G03*
X9813211Y-16468411I-25000J0D01*
G01*
X9813211Y-16754789D02*
G75*
G03*
X9813211Y-16754789I-25000J0D01*
G01*
X9956400Y-9703500D02*
G75*
G03*
X9956400Y-9703500I-25000J0D01*
G01*
X9956400Y-10108500D02*
G75*
G03*
X9956400Y-10108500I-25000J0D01*
G01*
X9956400Y-16409100D02*
G75*
G03*
X9956400Y-16409100I-25000J0D01*
G01*
X9956400Y-16814100D02*
G75*
G03*
X9956400Y-16814100I-25000J0D01*
G01*
X10099589Y-9762811D02*
G75*
G03*
X10099589Y-9762811I-25000J0D01*
G01*
X10099589Y-10049189D02*
G75*
G03*
X10099589Y-10049189I-25000J0D01*
G01*
X10099589Y-16468411D02*
G75*
G03*
X10099589Y-16468411I-25000J0D01*
G01*
X10099589Y-16754789D02*
G75*
G03*
X10099589Y-16754789I-25000J0D01*
G01*
X10158900Y-9906000D02*
G75*
G03*
X10158900Y-9906000I-25000J0D01*
G01*
X10158900Y-16611600D02*
G75*
G03*
X10158900Y-16611600I-25000J0D01*
G01*
X8242300Y-13884200D02*
X8242300Y-13954200D01*
X8207300Y-13919200D02*
X8277300Y-13919200D01*
X8242300Y-14392200D02*
X8242300Y-14462200D01*
X8207300Y-14427200D02*
X8277300Y-14427200D01*
X8242300Y-14633500D02*
X8242300Y-14703500D01*
X8207300Y-14668500D02*
X8277300Y-14668500D01*
X8242300Y-15141500D02*
X8242300Y-15211500D01*
X8207300Y-15176500D02*
X8277300Y-15176500D01*
X10759785Y-9870785D02*
X10759785Y-9814216D01*
X10703216Y-9814216D01*
X10703216Y-9870785D01*
X10759785Y-9870785D01*
X10759785Y-10124785D02*
X10759785Y-10068216D01*
X10703216Y-10068216D01*
X10703216Y-10124785D01*
X10759785Y-10124785D01*
X10759785Y-10378785D02*
X10759785Y-10322216D01*
X10703216Y-10322216D01*
X10703216Y-10378785D01*
X10759785Y-10378785D01*
X10759785Y-10632785D02*
X10759785Y-10576216D01*
X10703216Y-10576216D01*
X10703216Y-10632785D01*
X10759785Y-10632785D01*
X10759785Y-10886785D02*
X10759785Y-10830216D01*
X10703216Y-10830216D01*
X10703216Y-10886785D01*
X10759785Y-10886785D01*
X10759785Y-11140785D02*
X10759785Y-11084216D01*
X10703216Y-11084216D01*
X10703216Y-11140785D01*
X10759785Y-11140785D01*
X10759785Y-11394784D02*
X10759785Y-11338215D01*
X10703216Y-11338215D01*
X10703216Y-11394784D01*
X10759785Y-11394784D01*
X10759785Y-11648784D02*
X10759785Y-11592215D01*
X10703216Y-11592215D01*
X10703216Y-11648784D01*
X10759785Y-11648784D01*
X10759785Y-11902784D02*
X10759785Y-11846215D01*
X10703216Y-11846215D01*
X10703216Y-11902784D01*
X10759785Y-11902784D01*
X10759785Y-12156784D02*
X10759785Y-12100215D01*
X10703216Y-12100215D01*
X10703216Y-12156784D01*
X10759785Y-12156784D01*
X10759785Y-12537784D02*
X10759785Y-12481215D01*
X10703216Y-12481215D01*
X10703216Y-12537784D01*
X10759785Y-12537784D01*
X10759785Y-12791784D02*
X10759785Y-12735215D01*
X10703216Y-12735215D01*
X10703216Y-12791784D01*
X10759785Y-12791784D01*
X10759785Y-13045784D02*
X10759785Y-12989215D01*
X10703216Y-12989215D01*
X10703216Y-13045784D01*
X10759785Y-13045784D01*
X10759785Y-13299784D02*
X10759785Y-13243215D01*
X10703216Y-13243215D01*
X10703216Y-13299784D01*
X10759785Y-13299784D01*
X10759785Y-13553784D02*
X10759785Y-13497215D01*
X10703216Y-13497215D01*
X10703216Y-13553784D01*
X10759785Y-13553784D01*
X10759785Y-13807784D02*
X10759785Y-13751215D01*
X10703216Y-13751215D01*
X10703216Y-13807784D01*
X10759785Y-13807784D01*
X10759785Y-14061784D02*
X10759785Y-14005215D01*
X10703216Y-14005215D01*
X10703216Y-14061784D01*
X10759785Y-14061784D01*
X10759785Y-14315784D02*
X10759785Y-14259215D01*
X10703216Y-14259215D01*
X10703216Y-14315784D01*
X10759785Y-14315784D01*
X10759785Y-14569784D02*
X10759785Y-14513215D01*
X10703216Y-14513215D01*
X10703216Y-14569784D01*
X10759785Y-14569784D01*
X10759785Y-14823784D02*
X10759785Y-14767215D01*
X10703216Y-14767215D01*
X10703216Y-14823784D01*
X10759785Y-14823784D01*
X11140785Y-9870785D02*
X11140785Y-9814216D01*
X11084216Y-9814216D01*
X11084216Y-9870785D01*
X11140785Y-9870785D01*
X11140785Y-10124785D02*
X11140785Y-10068216D01*
X11084216Y-10068216D01*
X11084216Y-10124785D01*
X11140785Y-10124785D01*
X11140785Y-10378785D02*
X11140785Y-10322216D01*
X11084216Y-10322216D01*
X11084216Y-10378785D01*
X11140785Y-10378785D01*
X11140785Y-10632785D02*
X11140785Y-10576216D01*
X11084216Y-10576216D01*
X11084216Y-10632785D01*
X11140785Y-10632785D01*
X11140785Y-10886785D02*
X11140785Y-10830216D01*
X11084216Y-10830216D01*
X11084216Y-10886785D01*
X11140785Y-10886785D01*
X11140785Y-11140785D02*
X11140785Y-11084216D01*
X11084216Y-11084216D01*
X11084216Y-11140785D01*
X11140785Y-11140785D01*
X11140785Y-11394784D02*
X11140785Y-11338215D01*
X11084216Y-11338215D01*
X11084216Y-11394784D01*
X11140785Y-11394784D01*
X11140785Y-11648784D02*
X11140785Y-11592215D01*
X11084216Y-11592215D01*
X11084216Y-11648784D01*
X11140785Y-11648784D01*
X11140785Y-11902784D02*
X11140785Y-11846215D01*
X11084216Y-11846215D01*
X11084216Y-11902784D01*
X11140785Y-11902784D01*
X11140785Y-12156784D02*
X11140785Y-12100215D01*
X11084216Y-12100215D01*
X11084216Y-12156784D01*
X11140785Y-12156784D01*
X11140785Y-12537784D02*
X11140785Y-12481215D01*
X11084216Y-12481215D01*
X11084216Y-12537784D01*
X11140785Y-12537784D01*
X11140785Y-12791784D02*
X11140785Y-12735215D01*
X11084216Y-12735215D01*
X11084216Y-12791784D01*
X11140785Y-12791784D01*
X11140785Y-13045784D02*
X11140785Y-12989215D01*
X11084216Y-12989215D01*
X11084216Y-13045784D01*
X11140785Y-13045784D01*
X11140785Y-13299784D02*
X11140785Y-13243215D01*
X11084216Y-13243215D01*
X11084216Y-13299784D01*
X11140785Y-13299784D01*
X11140785Y-13553784D02*
X11140785Y-13497215D01*
X11084216Y-13497215D01*
X11084216Y-13553784D01*
X11140785Y-13553784D01*
X11140785Y-13807784D02*
X11140785Y-13751215D01*
X11084216Y-13751215D01*
X11084216Y-13807784D01*
X11140785Y-13807784D01*
X11140785Y-14061784D02*
X11140785Y-14005215D01*
X11084216Y-14005215D01*
X11084216Y-14061784D01*
X11140785Y-14061784D01*
X11140785Y-14315784D02*
X11140785Y-14259215D01*
X11084216Y-14259215D01*
X11084216Y-14315784D01*
X11140785Y-14315784D01*
X11140785Y-14569784D02*
X11140785Y-14513215D01*
X11084216Y-14513215D01*
X11084216Y-14569784D01*
X11140785Y-14569784D01*
X11140785Y-14823784D02*
X11140785Y-14767215D01*
X11084216Y-14767215D01*
X11084216Y-14823784D01*
X11140785Y-14823784D01*
X10515600Y-16605800D02*
X10560600Y-16560800D01*
X10515600Y-16515800D01*
X10470600Y-16560800D01*
X10515600Y-16605800D01*
X10541000Y-15818400D02*
X10586000Y-15773400D01*
X10541000Y-15728400D01*
X10496000Y-15773400D01*
X10541000Y-15818400D01*
X10541000Y-16161300D02*
X10586000Y-16116300D01*
X10541000Y-16071300D01*
X10496000Y-16116300D01*
X10541000Y-16161300D01*
X10765600Y-16605800D02*
X10810600Y-16560800D01*
X10765600Y-16515800D01*
X10720600Y-16560800D01*
X10765600Y-16605800D01*
X11015600Y-16605800D02*
X11060600Y-16560800D01*
X11015600Y-16515800D01*
X10970600Y-16560800D01*
X11015600Y-16605800D01*
X11265600Y-16605800D02*
X11310600Y-16560800D01*
X11265600Y-16515800D01*
X11220600Y-16560800D01*
X11265600Y-16605800D01*
X11303000Y-15818400D02*
X11348000Y-15773400D01*
X11303000Y-15728400D01*
X11258000Y-15773400D01*
X11303000Y-15818400D01*
X11303000Y-16161300D02*
X11348000Y-16116300D01*
X11303000Y-16071300D01*
X11258000Y-16116300D01*
X11303000Y-16161300D01*
X9856000Y-15672600D02*
X9956000Y-15772600D01*
X9956000Y-15672600D02*
X9856000Y-15772600D01*
X9956000Y-15722600D02*
G75*
G03*
X9956000Y-15722600I-50000J0D01*
G01*
X9856000Y-16053600D02*
X9956000Y-16153600D01*
X9956000Y-16053600D02*
X9856000Y-16153600D01*
X9956000Y-16103600D02*
G75*
G03*
X9956000Y-16103600I-50000J0D01*
G01*
X10110000Y-15672600D02*
X10210000Y-15772600D01*
X10210000Y-15672600D02*
X10110000Y-15772600D01*
X10210000Y-15722600D02*
G75*
G03*
X10210000Y-15722600I-50000J0D01*
G01*
X10110000Y-16053600D02*
X10210000Y-16153600D01*
X10210000Y-16053600D02*
X10110000Y-16153600D01*
X10210000Y-16103600D02*
G75*
G03*
X10210000Y-16103600I-50000J0D01*
G01*
X10681500Y-15113800D02*
X10781500Y-15213800D01*
X10781500Y-15113800D02*
X10681500Y-15213800D01*
X10781500Y-15163800D02*
G75*
G03*
X10781500Y-15163800I-50000J0D01*
G01*
X10681500Y-15367800D02*
X10781500Y-15467800D01*
X10781500Y-15367800D02*
X10681500Y-15467800D01*
X10781500Y-15417800D02*
G75*
G03*
X10781500Y-15417800I-50000J0D01*
G01*
X11062500Y-15113800D02*
X11162500Y-15213800D01*
X11162500Y-15113800D02*
X11062500Y-15213800D01*
X11162500Y-15163800D02*
G75*
G03*
X11162500Y-15163800I-50000J0D01*
G01*
X11062500Y-15367800D02*
X11162500Y-15467800D01*
X11162500Y-15367800D02*
X11062500Y-15467800D01*
X11162500Y-15417800D02*
G75*
G03*
X11162500Y-15417800I-50000J0D01*
G01*
X11824500Y-10173500D02*
X11924500Y-10273500D01*
X11924500Y-10173500D02*
X11824500Y-10273500D01*
X11924500Y-10223500D02*
G75*
G03*
X11924500Y-10223500I-50000J0D01*
G01*
X11824500Y-10427500D02*
X11924500Y-10527500D01*
X11924500Y-10427500D02*
X11824500Y-10527500D01*
X11924500Y-10477500D02*
G75*
G03*
X11924500Y-10477500I-50000J0D01*
G01*
X11824500Y-10681500D02*
X11924500Y-10781500D01*
X11924500Y-10681500D02*
X11824500Y-10781500D01*
X11924500Y-10731500D02*
G75*
G03*
X11924500Y-10731500I-50000J0D01*
G01*
X11824500Y-10935500D02*
X11924500Y-11035500D01*
X11924500Y-10935500D02*
X11824500Y-11035500D01*
X11924500Y-10985500D02*
G75*
G03*
X11924500Y-10985500I-50000J0D01*
G01*
X11824500Y-11189500D02*
X11924500Y-11289500D01*
X11924500Y-11189500D02*
X11824500Y-11289500D01*
X11924500Y-11239500D02*
G75*
G03*
X11924500Y-11239500I-50000J0D01*
G01*
X11824500Y-11443500D02*
X11924500Y-11543500D01*
X11924500Y-11443500D02*
X11824500Y-11543500D01*
X11924500Y-11493500D02*
G75*
G03*
X11924500Y-11493500I-50000J0D01*
G01*
X11824500Y-11697500D02*
X11924500Y-11797500D01*
X11924500Y-11697500D02*
X11824500Y-11797500D01*
X11924500Y-11747500D02*
G75*
G03*
X11924500Y-11747500I-50000J0D01*
G01*
X11824500Y-11951500D02*
X11924500Y-12051500D01*
X11924500Y-11951500D02*
X11824500Y-12051500D01*
X11924500Y-12001500D02*
G75*
G03*
X11924500Y-12001500I-50000J0D01*
G01*
X11824500Y-12205500D02*
X11924500Y-12305500D01*
X11924500Y-12205500D02*
X11824500Y-12305500D01*
X11924500Y-12255500D02*
G75*
G03*
X11924500Y-12255500I-50000J0D01*
G01*
X11824500Y-12459500D02*
X11924500Y-12559500D01*
X11924500Y-12459500D02*
X11824500Y-12559500D01*
X11924500Y-12509500D02*
G75*
G03*
X11924500Y-12509500I-50000J0D01*
G01*
X11824500Y-12713500D02*
X11924500Y-12813500D01*
X11924500Y-12713500D02*
X11824500Y-12813500D01*
X11924500Y-12763500D02*
G75*
G03*
X11924500Y-12763500I-50000J0D01*
G01*
X11824500Y-12967500D02*
X11924500Y-13067500D01*
X11924500Y-12967500D02*
X11824500Y-13067500D01*
X11924500Y-13017500D02*
G75*
G03*
X11924500Y-13017500I-50000J0D01*
G01*
X11824500Y-13221500D02*
X11924500Y-13321500D01*
X11924500Y-13221500D02*
X11824500Y-13321500D01*
X11924500Y-13271500D02*
G75*
G03*
X11924500Y-13271500I-50000J0D01*
G01*
X11824500Y-13475500D02*
X11924500Y-13575500D01*
X11924500Y-13475500D02*
X11824500Y-13575500D01*
X11924500Y-13525500D02*
G75*
G03*
X11924500Y-13525500I-50000J0D01*
G01*
X11824500Y-13729500D02*
X11924500Y-13829500D01*
X11924500Y-13729500D02*
X11824500Y-13829500D01*
X11924500Y-13779500D02*
G75*
G03*
X11924500Y-13779500I-50000J0D01*
G01*
X11824500Y-13983500D02*
X11924500Y-14083500D01*
X11924500Y-13983500D02*
X11824500Y-14083500D01*
X11924500Y-14033500D02*
G75*
G03*
X11924500Y-14033500I-50000J0D01*
G01*
X11824500Y-14237500D02*
X11924500Y-14337500D01*
X11924500Y-14237500D02*
X11824500Y-14337500D01*
X11924500Y-14287500D02*
G75*
G03*
X11924500Y-14287500I-50000J0D01*
G01*
X11824500Y-14491500D02*
X11924500Y-14591500D01*
X11924500Y-14491500D02*
X11824500Y-14591500D01*
X11924500Y-14541500D02*
G75*
G03*
X11924500Y-14541500I-50000J0D01*
G01*
X11824500Y-14745500D02*
X11924500Y-14845500D01*
X11924500Y-14745500D02*
X11824500Y-14845500D01*
X11924500Y-14795500D02*
G75*
G03*
X11924500Y-14795500I-50000J0D01*
G01*
X11824500Y-14999500D02*
X11924500Y-15099500D01*
X11924500Y-14999500D02*
X11824500Y-15099500D01*
X11924500Y-15049500D02*
G75*
G03*
X11924500Y-15049500I-50000J0D01*
G01*
X11824500Y-15253500D02*
X11924500Y-15353500D01*
X11924500Y-15253500D02*
X11824500Y-15353500D01*
X11924500Y-15303500D02*
G75*
G03*
X11924500Y-15303500I-50000J0D01*
G01*
X11824500Y-15507500D02*
X11924500Y-15607500D01*
X11924500Y-15507500D02*
X11824500Y-15607500D01*
X11924500Y-15557500D02*
G75*
G03*
X11924500Y-15557500I-50000J0D01*
G01*
X11824500Y-15761500D02*
X11924500Y-15861500D01*
X11924500Y-15761500D02*
X11824500Y-15861500D01*
X11924500Y-15811500D02*
G75*
G03*
X11924500Y-15811500I-50000J0D01*
G01*
X11824500Y-16015500D02*
X11924500Y-16115500D01*
X11924500Y-16015500D02*
X11824500Y-16115500D01*
X11924500Y-16065500D02*
G75*
G03*
X11924500Y-16065500I-50000J0D01*
G01*
X11824500Y-16269500D02*
X11924500Y-16369500D01*
X11924500Y-16269500D02*
X11824500Y-16369500D01*
X11924500Y-16319500D02*
G75*
G03*
X11924500Y-16319500I-50000J0D01*
G01*
X12078500Y-10173500D02*
X12178500Y-10273500D01*
X12178500Y-10173500D02*
X12078500Y-10273500D01*
X12178500Y-10223500D02*
G75*
G03*
X12178500Y-10223500I-50000J0D01*
G01*
X12078500Y-10427500D02*
X12178500Y-10527500D01*
X12178500Y-10427500D02*
X12078500Y-10527500D01*
X12178500Y-10477500D02*
G75*
G03*
X12178500Y-10477500I-50000J0D01*
G01*
X12078500Y-10681500D02*
X12178500Y-10781500D01*
X12178500Y-10681500D02*
X12078500Y-10781500D01*
X12178500Y-10731500D02*
G75*
G03*
X12178500Y-10731500I-50000J0D01*
G01*
X12078500Y-10935500D02*
X12178500Y-11035500D01*
X12178500Y-10935500D02*
X12078500Y-11035500D01*
X12178500Y-10985500D02*
G75*
G03*
X12178500Y-10985500I-50000J0D01*
G01*
X12078500Y-11189500D02*
X12178500Y-11289500D01*
X12178500Y-11189500D02*
X12078500Y-11289500D01*
X12178500Y-11239500D02*
G75*
G03*
X12178500Y-11239500I-50000J0D01*
G01*
X12078500Y-11443500D02*
X12178500Y-11543500D01*
X12178500Y-11443500D02*
X12078500Y-11543500D01*
X12178500Y-11493500D02*
G75*
G03*
X12178500Y-11493500I-50000J0D01*
G01*
X12078500Y-11697500D02*
X12178500Y-11797500D01*
X12178500Y-11697500D02*
X12078500Y-11797500D01*
X12178500Y-11747500D02*
G75*
G03*
X12178500Y-11747500I-50000J0D01*
G01*
X12078500Y-11951500D02*
X12178500Y-12051500D01*
X12178500Y-11951500D02*
X12078500Y-12051500D01*
X12178500Y-12001500D02*
G75*
G03*
X12178500Y-12001500I-50000J0D01*
G01*
X12078500Y-12205500D02*
X12178500Y-12305500D01*
X12178500Y-12205500D02*
X12078500Y-12305500D01*
X12178500Y-12255500D02*
G75*
G03*
X12178500Y-12255500I-50000J0D01*
G01*
X12078500Y-12459500D02*
X12178500Y-12559500D01*
X12178500Y-12459500D02*
X12078500Y-12559500D01*
X12178500Y-12509500D02*
G75*
G03*
X12178500Y-12509500I-50000J0D01*
G01*
X12078500Y-12713500D02*
X12178500Y-12813500D01*
X12178500Y-12713500D02*
X12078500Y-12813500D01*
X12178500Y-12763500D02*
G75*
G03*
X12178500Y-12763500I-50000J0D01*
G01*
X12078500Y-12967500D02*
X12178500Y-13067500D01*
X12178500Y-12967500D02*
X12078500Y-13067500D01*
X12178500Y-13017500D02*
G75*
G03*
X12178500Y-13017500I-50000J0D01*
G01*
X12078500Y-13221500D02*
X12178500Y-13321500D01*
X12178500Y-13221500D02*
X12078500Y-13321500D01*
X12178500Y-13271500D02*
G75*
G03*
X12178500Y-13271500I-50000J0D01*
G01*
X12078500Y-13475500D02*
X12178500Y-13575500D01*
X12178500Y-13475500D02*
X12078500Y-13575500D01*
X12178500Y-13525500D02*
G75*
G03*
X12178500Y-13525500I-50000J0D01*
G01*
X12078500Y-13729500D02*
X12178500Y-13829500D01*
X12178500Y-13729500D02*
X12078500Y-13829500D01*
X12178500Y-13779500D02*
G75*
G03*
X12178500Y-13779500I-50000J0D01*
G01*
X12078500Y-13983500D02*
X12178500Y-14083500D01*
X12178500Y-13983500D02*
X12078500Y-14083500D01*
X12178500Y-14033500D02*
G75*
G03*
X12178500Y-14033500I-50000J0D01*
G01*
X12078500Y-14237500D02*
X12178500Y-14337500D01*
X12178500Y-14237500D02*
X12078500Y-14337500D01*
X12178500Y-14287500D02*
G75*
G03*
X12178500Y-14287500I-50000J0D01*
G01*
X12078500Y-14491500D02*
X12178500Y-14591500D01*
X12178500Y-14491500D02*
X12078500Y-14591500D01*
X12178500Y-14541500D02*
G75*
G03*
X12178500Y-14541500I-50000J0D01*
G01*
X12078500Y-14745500D02*
X12178500Y-14845500D01*
X12178500Y-14745500D02*
X12078500Y-14845500D01*
X12178500Y-14795500D02*
G75*
G03*
X12178500Y-14795500I-50000J0D01*
G01*
X12078500Y-14999500D02*
X12178500Y-15099500D01*
X12178500Y-14999500D02*
X12078500Y-15099500D01*
X12178500Y-15049500D02*
G75*
G03*
X12178500Y-15049500I-50000J0D01*
G01*
X12078500Y-15253500D02*
X12178500Y-15353500D01*
X12178500Y-15253500D02*
X12078500Y-15353500D01*
X12178500Y-15303500D02*
G75*
G03*
X12178500Y-15303500I-50000J0D01*
G01*
X12078500Y-15507500D02*
X12178500Y-15607500D01*
X12178500Y-15507500D02*
X12078500Y-15607500D01*
X12178500Y-15557500D02*
G75*
G03*
X12178500Y-15557500I-50000J0D01*
G01*
X12078500Y-15761500D02*
X12178500Y-15861500D01*
X12178500Y-15761500D02*
X12078500Y-15861500D01*
X12178500Y-15811500D02*
G75*
G03*
X12178500Y-15811500I-50000J0D01*
G01*
X12078500Y-16015500D02*
X12178500Y-16115500D01*
X12178500Y-16015500D02*
X12078500Y-16115500D01*
X12178500Y-16065500D02*
G75*
G03*
X12178500Y-16065500I-50000J0D01*
G01*
X12078500Y-16269500D02*
X12178500Y-16369500D01*
X12178500Y-16269500D02*
X12078500Y-16369500D01*
X12178500Y-16319500D02*
G75*
G03*
X12178500Y-16319500I-50000J0D01*
G01*
X8521700Y-10304780D02*
X8623300Y-10406380D01*
X8623300Y-10304780D02*
X8521700Y-10406380D01*
X8572500Y-10304780D02*
X8572500Y-10406380D01*
X8521700Y-10355580D02*
X8623300Y-10355580D01*
X8521700Y-10558780D02*
X8623300Y-10660380D01*
X8623300Y-10558780D02*
X8521700Y-10660380D01*
X8572500Y-10558780D02*
X8572500Y-10660380D01*
X8521700Y-10609580D02*
X8623300Y-10609580D01*
X8521700Y-10812780D02*
X8623300Y-10914380D01*
X8623300Y-10812780D02*
X8521700Y-10914380D01*
X8572500Y-10812780D02*
X8572500Y-10914380D01*
X8521700Y-10863580D02*
X8623300Y-10863580D01*
X8521700Y-11066780D02*
X8623300Y-11168380D01*
X8623300Y-11066780D02*
X8521700Y-11168380D01*
X8572500Y-11066780D02*
X8572500Y-11168380D01*
X8521700Y-11117580D02*
X8623300Y-11117580D01*
X8521700Y-11320780D02*
X8623300Y-11422380D01*
X8623300Y-11320780D02*
X8521700Y-11422380D01*
X8572500Y-11320780D02*
X8572500Y-11422380D01*
X8521700Y-11371580D02*
X8623300Y-11371580D01*
X8521700Y-11574780D02*
X8623300Y-11676380D01*
X8623300Y-11574780D02*
X8521700Y-11676380D01*
X8572500Y-11574780D02*
X8572500Y-11676380D01*
X8521700Y-11625580D02*
X8623300Y-11625580D01*
X8521700Y-11828780D02*
X8623300Y-11930380D01*
X8623300Y-11828780D02*
X8521700Y-11930380D01*
X8572500Y-11828780D02*
X8572500Y-11930380D01*
X8521700Y-11879580D02*
X8623300Y-11879580D01*
X8521700Y-12082780D02*
X8623300Y-12184380D01*
X8623300Y-12082780D02*
X8521700Y-12184380D01*
X8572500Y-12082780D02*
X8572500Y-12184380D01*
X8521700Y-12133580D02*
X8623300Y-12133580D01*
X8521700Y-12336780D02*
X8623300Y-12438380D01*
X8623300Y-12336780D02*
X8521700Y-12438380D01*
X8572500Y-12336780D02*
X8572500Y-12438380D01*
X8521700Y-12387580D02*
X8623300Y-12387580D01*
X8521700Y-12590780D02*
X8623300Y-12692380D01*
X8623300Y-12590780D02*
X8521700Y-12692380D01*
X8572500Y-12590780D02*
X8572500Y-12692380D01*
X8521700Y-12641580D02*
X8623300Y-12641580D01*
X8521700Y-12844780D02*
X8623300Y-12946380D01*
X8623300Y-12844780D02*
X8521700Y-12946380D01*
X8572500Y-12844780D02*
X8572500Y-12946380D01*
X8521700Y-12895580D02*
X8623300Y-12895580D01*
X8521700Y-13098780D02*
X8623300Y-13200380D01*
X8623300Y-13098780D02*
X8521700Y-13200380D01*
X8572500Y-13098780D02*
X8572500Y-13200380D01*
X8521700Y-13149580D02*
X8623300Y-13149580D01*
X8521700Y-13352780D02*
X8623300Y-13454380D01*
X8623300Y-13352780D02*
X8521700Y-13454380D01*
X8572500Y-13352780D02*
X8572500Y-13454380D01*
X8521700Y-13403580D02*
X8623300Y-13403580D01*
X8521700Y-13606780D02*
X8623300Y-13708380D01*
X8623300Y-13606780D02*
X8521700Y-13708380D01*
X8572500Y-13606780D02*
X8572500Y-13708380D01*
X8521700Y-13657580D02*
X8623300Y-13657580D01*
X8521700Y-13860780D02*
X8623300Y-13962380D01*
X8623300Y-13860780D02*
X8521700Y-13962380D01*
X8572500Y-13860780D02*
X8572500Y-13962380D01*
X8521700Y-13911580D02*
X8623300Y-13911580D01*
X8521700Y-14114780D02*
X8623300Y-14216380D01*
X8623300Y-14114780D02*
X8521700Y-14216380D01*
X8572500Y-14114780D02*
X8572500Y-14216380D01*
X8521700Y-14165580D02*
X8623300Y-14165580D01*
X8521700Y-14368780D02*
X8623300Y-14470380D01*
X8623300Y-14368780D02*
X8521700Y-14470380D01*
X8572500Y-14368780D02*
X8572500Y-14470380D01*
X8521700Y-14419580D02*
X8623300Y-14419580D01*
X8521700Y-14622780D02*
X8623300Y-14724380D01*
X8623300Y-14622780D02*
X8521700Y-14724380D01*
X8572500Y-14622780D02*
X8572500Y-14724380D01*
X8521700Y-14673580D02*
X8623300Y-14673580D01*
X8521700Y-14876780D02*
X8623300Y-14978380D01*
X8623300Y-14876780D02*
X8521700Y-14978380D01*
X8572500Y-14876780D02*
X8572500Y-14978380D01*
X8521700Y-14927580D02*
X8623300Y-14927580D01*
X8521700Y-15135860D02*
X8623300Y-15237460D01*
X8623300Y-15135860D02*
X8521700Y-15237460D01*
X8572500Y-15135860D02*
X8572500Y-15237460D01*
X8521700Y-15186660D02*
X8623300Y-15186660D01*
X10045700Y-10304780D02*
X10147300Y-10406380D01*
X10147300Y-10304780D02*
X10045700Y-10406380D01*
X10096500Y-10304780D02*
X10096500Y-10406380D01*
X10045700Y-10355580D02*
X10147300Y-10355580D01*
X10045700Y-10558780D02*
X10147300Y-10660380D01*
X10147300Y-10558780D02*
X10045700Y-10660380D01*
X10096500Y-10558780D02*
X10096500Y-10660380D01*
X10045700Y-10609580D02*
X10147300Y-10609580D01*
X10045700Y-10812780D02*
X10147300Y-10914380D01*
X10147300Y-10812780D02*
X10045700Y-10914380D01*
X10096500Y-10812780D02*
X10096500Y-10914380D01*
X10045700Y-10863580D02*
X10147300Y-10863580D01*
X10045700Y-11066780D02*
X10147300Y-11168380D01*
X10147300Y-11066780D02*
X10045700Y-11168380D01*
X10096500Y-11066780D02*
X10096500Y-11168380D01*
X10045700Y-11117580D02*
X10147300Y-11117580D01*
X10045700Y-11320780D02*
X10147300Y-11422380D01*
X10147300Y-11320780D02*
X10045700Y-11422380D01*
X10096500Y-11320780D02*
X10096500Y-11422380D01*
X10045700Y-11371580D02*
X10147300Y-11371580D01*
X10045700Y-11574780D02*
X10147300Y-11676380D01*
X10147300Y-11574780D02*
X10045700Y-11676380D01*
X10096500Y-11574780D02*
X10096500Y-11676380D01*
X10045700Y-11625580D02*
X10147300Y-11625580D01*
X10045700Y-11828780D02*
X10147300Y-11930380D01*
X10147300Y-11828780D02*
X10045700Y-11930380D01*
X10096500Y-11828780D02*
X10096500Y-11930380D01*
X10045700Y-11879580D02*
X10147300Y-11879580D01*
X10045700Y-12082780D02*
X10147300Y-12184380D01*
X10147300Y-12082780D02*
X10045700Y-12184380D01*
X10096500Y-12082780D02*
X10096500Y-12184380D01*
X10045700Y-12133580D02*
X10147300Y-12133580D01*
X10045700Y-12336780D02*
X10147300Y-12438380D01*
X10147300Y-12336780D02*
X10045700Y-12438380D01*
X10096500Y-12336780D02*
X10096500Y-12438380D01*
X10045700Y-12387580D02*
X10147300Y-12387580D01*
X10045700Y-12590780D02*
X10147300Y-12692380D01*
X10147300Y-12590780D02*
X10045700Y-12692380D01*
X10096500Y-12590780D02*
X10096500Y-12692380D01*
X10045700Y-12641580D02*
X10147300Y-12641580D01*
X10045700Y-12844780D02*
X10147300Y-12946380D01*
X10147300Y-12844780D02*
X10045700Y-12946380D01*
X10096500Y-12844780D02*
X10096500Y-12946380D01*
X10045700Y-12895580D02*
X10147300Y-12895580D01*
X10045700Y-13098780D02*
X10147300Y-13200380D01*
X10147300Y-13098780D02*
X10045700Y-13200380D01*
X10096500Y-13098780D02*
X10096500Y-13200380D01*
X10045700Y-13149580D02*
X10147300Y-13149580D01*
X10045700Y-13352780D02*
X10147300Y-13454380D01*
X10147300Y-13352780D02*
X10045700Y-13454380D01*
X10096500Y-13352780D02*
X10096500Y-13454380D01*
X10045700Y-13403580D02*
X10147300Y-13403580D01*
X10045700Y-13606780D02*
X10147300Y-13708380D01*
X10147300Y-13606780D02*
X10045700Y-13708380D01*
X10096500Y-13606780D02*
X10096500Y-13708380D01*
X10045700Y-13657580D02*
X10147300Y-13657580D01*
X10045700Y-13860780D02*
X10147300Y-13962380D01*
X10147300Y-13860780D02*
X10045700Y-13962380D01*
X10096500Y-13860780D02*
X10096500Y-13962380D01*
X10045700Y-13911580D02*
X10147300Y-13911580D01*
X10045700Y-14114780D02*
X10147300Y-14216380D01*
X10147300Y-14114780D02*
X10045700Y-14216380D01*
X10096500Y-14114780D02*
X10096500Y-14216380D01*
X10045700Y-14165580D02*
X10147300Y-14165580D01*
X10045700Y-14368780D02*
X10147300Y-14470380D01*
X10147300Y-14368780D02*
X10045700Y-14470380D01*
X10096500Y-14368780D02*
X10096500Y-14470380D01*
X10045700Y-14419580D02*
X10147300Y-14419580D01*
X10045700Y-14622780D02*
X10147300Y-14724380D01*
X10147300Y-14622780D02*
X10045700Y-14724380D01*
X10096500Y-14622780D02*
X10096500Y-14724380D01*
X10045700Y-14673580D02*
X10147300Y-14673580D01*
X10045700Y-14876780D02*
X10147300Y-14978380D01*
X10147300Y-14876780D02*
X10045700Y-14978380D01*
X10096500Y-14876780D02*
X10096500Y-14978380D01*
X10045700Y-14927580D02*
X10147300Y-14927580D01*
X10045700Y-15130780D02*
X10147300Y-15232380D01*
X10147300Y-15130780D02*
X10045700Y-15232380D01*
X10096500Y-15130780D02*
X10096500Y-15232380D01*
X10045700Y-15181580D02*
X10147300Y-15181580D01*
X9796400Y-9771000D02*
X10066400Y-10041000D01*
X10066400Y-9771000D02*
X9796400Y-10041000D01*
X10026860Y-10001460D02*
X10026860Y-9810540D01*
X9835940Y-9810540D01*
X9835940Y-10001460D01*
X10026860Y-10001460D01*
X9796400Y-16476600D02*
X10066400Y-16746600D01*
X10066400Y-16476600D02*
X9796400Y-16746600D01*
X10026860Y-16707060D02*
X10026860Y-16516140D01*
X9835940Y-16516140D01*
X9835940Y-16707060D01*
X10026860Y-16707060D01*
D12*
X8411928Y-17422714D02*
X8411928Y-17122714D01*
X8483357Y-17122714D01*
X8526214Y-17137000D01*
X8554786Y-17165572D01*
X8569071Y-17194143D01*
X8583357Y-17251286D01*
X8583357Y-17294143D01*
X8569071Y-17351286D01*
X8554786Y-17379857D01*
X8526214Y-17408429D01*
X8483357Y-17422714D01*
X8411928Y-17422714D01*
X8711928Y-17422714D02*
X8711928Y-17222714D01*
X8711928Y-17279857D02*
X8726214Y-17251286D01*
X8740500Y-17237000D01*
X8769071Y-17222714D01*
X8797643Y-17222714D01*
X8897643Y-17422714D02*
X8897643Y-17222714D01*
X8897643Y-17122714D02*
X8883357Y-17137000D01*
X8897643Y-17151286D01*
X8911928Y-17137000D01*
X8897643Y-17122714D01*
X8897643Y-17151286D01*
X9083357Y-17422714D02*
X9054786Y-17408429D01*
X9040500Y-17379857D01*
X9040500Y-17122714D01*
X9240500Y-17422714D02*
X9211928Y-17408429D01*
X9197643Y-17379857D01*
X9197643Y-17122714D01*
X9583357Y-17422714D02*
X9583357Y-17122714D01*
X9683357Y-17337000D01*
X9783357Y-17122714D01*
X9783357Y-17422714D01*
X10054786Y-17422714D02*
X10054786Y-17265572D01*
X10040500Y-17237000D01*
X10011928Y-17222714D01*
X9954786Y-17222714D01*
X9926214Y-17237000D01*
X10054786Y-17408429D02*
X10026214Y-17422714D01*
X9954786Y-17422714D01*
X9926214Y-17408429D01*
X9911928Y-17379857D01*
X9911928Y-17351286D01*
X9926214Y-17322714D01*
X9954786Y-17308429D01*
X10026214Y-17308429D01*
X10054786Y-17294143D01*
X10197643Y-17222714D02*
X10197643Y-17522714D01*
X10197643Y-17237000D02*
X10226214Y-17222714D01*
X10283357Y-17222714D01*
X10311928Y-17237000D01*
X10326214Y-17251286D01*
X10340500Y-17279857D01*
X10340500Y-17365572D01*
X10326214Y-17394143D01*
X10311928Y-17408429D01*
X10283357Y-17422714D01*
X10226214Y-17422714D01*
X10197643Y-17408429D01*
X10469071Y-17394143D02*
X10483357Y-17408429D01*
X10469071Y-17422714D01*
X10454786Y-17408429D01*
X10469071Y-17394143D01*
X10469071Y-17422714D01*
X10469071Y-17237000D02*
X10483357Y-17251286D01*
X10469071Y-17265572D01*
X10454786Y-17251286D01*
X10469071Y-17237000D01*
X10469071Y-17265572D01*
X8085500Y-17897000D02*
X8125500Y-17937000D01*
X8125500Y-17897000D02*
X8085500Y-17937000D01*
X8469071Y-17752714D02*
X8497643Y-17752714D01*
X8526214Y-17767000D01*
X8540500Y-17781286D01*
X8554786Y-17809857D01*
X8569071Y-17867000D01*
X8569071Y-17938429D01*
X8554786Y-17995572D01*
X8540500Y-18024143D01*
X8526214Y-18038429D01*
X8497643Y-18052714D01*
X8469071Y-18052714D01*
X8440500Y-18038429D01*
X8426214Y-18024143D01*
X8411928Y-17995572D01*
X8397643Y-17938429D01*
X8397643Y-17867000D01*
X8411928Y-17809857D01*
X8426214Y-17781286D01*
X8440500Y-17767000D01*
X8469071Y-17752714D01*
X8697643Y-18024143D02*
X8711928Y-18038429D01*
X8697643Y-18052714D01*
X8683357Y-18038429D01*
X8697643Y-18024143D01*
X8697643Y-18052714D01*
X8969071Y-17852714D02*
X8969071Y-18052714D01*
X8897643Y-17738429D02*
X8826214Y-17952714D01*
X9011928Y-17952714D01*
X9183357Y-17752714D02*
X9211928Y-17752714D01*
X9240500Y-17767000D01*
X9254786Y-17781286D01*
X9269071Y-17809857D01*
X9283357Y-17867000D01*
X9283357Y-17938429D01*
X9269071Y-17995572D01*
X9254786Y-18024143D01*
X9240500Y-18038429D01*
X9211928Y-18052714D01*
X9183357Y-18052714D01*
X9154786Y-18038429D01*
X9140500Y-18024143D01*
X9126214Y-17995572D01*
X9111928Y-17938429D01*
X9111928Y-17867000D01*
X9126214Y-17809857D01*
X9140500Y-17781286D01*
X9154786Y-17767000D01*
X9183357Y-17752714D01*
X9469071Y-17752714D02*
X9497643Y-17752714D01*
X9526214Y-17767000D01*
X9540500Y-17781286D01*
X9554786Y-17809857D01*
X9569071Y-17867000D01*
X9569071Y-17938429D01*
X9554786Y-17995572D01*
X9540500Y-18024143D01*
X9526214Y-18038429D01*
X9497643Y-18052714D01*
X9469071Y-18052714D01*
X9440500Y-18038429D01*
X9426214Y-18024143D01*
X9411928Y-17995572D01*
X9397643Y-17938429D01*
X9397643Y-17867000D01*
X9411928Y-17809857D01*
X9426214Y-17781286D01*
X9440500Y-17767000D01*
X9469071Y-17752714D01*
X9697643Y-18052714D02*
X9697643Y-17852714D01*
X9697643Y-17881286D02*
X9711928Y-17867000D01*
X9740500Y-17852714D01*
X9783357Y-17852714D01*
X9811928Y-17867000D01*
X9826214Y-17895572D01*
X9826214Y-18052714D01*
X9826214Y-17895572D02*
X9840500Y-17867000D01*
X9869071Y-17852714D01*
X9911928Y-17852714D01*
X9940500Y-17867000D01*
X9954786Y-17895572D01*
X9954786Y-18052714D01*
X10097643Y-18052714D02*
X10097643Y-17852714D01*
X10097643Y-17881286D02*
X10111928Y-17867000D01*
X10140500Y-17852714D01*
X10183357Y-17852714D01*
X10211928Y-17867000D01*
X10226214Y-17895572D01*
X10226214Y-18052714D01*
X10226214Y-17895572D02*
X10240500Y-17867000D01*
X10269071Y-17852714D01*
X10311928Y-17852714D01*
X10340500Y-17867000D01*
X10354786Y-17895572D01*
X10354786Y-18052714D01*
X10940500Y-17738429D02*
X10683357Y-18124143D01*
X11326214Y-17752714D02*
X11354786Y-17752714D01*
X11383357Y-17767000D01*
X11397643Y-17781286D01*
X11411928Y-17809857D01*
X11426214Y-17867000D01*
X11426214Y-17938429D01*
X11411928Y-17995572D01*
X11397643Y-18024143D01*
X11383357Y-18038429D01*
X11354786Y-18052714D01*
X11326214Y-18052714D01*
X11297643Y-18038429D01*
X11283357Y-18024143D01*
X11269071Y-17995572D01*
X11254786Y-17938429D01*
X11254786Y-17867000D01*
X11269071Y-17809857D01*
X11283357Y-17781286D01*
X11297643Y-17767000D01*
X11326214Y-17752714D01*
X11554786Y-18024143D02*
X11569071Y-18038429D01*
X11554786Y-18052714D01*
X11540500Y-18038429D01*
X11554786Y-18024143D01*
X11554786Y-18052714D01*
X11754786Y-17752714D02*
X11783357Y-17752714D01*
X11811928Y-17767000D01*
X11826214Y-17781286D01*
X11840500Y-17809857D01*
X11854786Y-17867000D01*
X11854786Y-17938429D01*
X11840500Y-17995572D01*
X11826214Y-18024143D01*
X11811928Y-18038429D01*
X11783357Y-18052714D01*
X11754786Y-18052714D01*
X11726214Y-18038429D01*
X11711928Y-18024143D01*
X11697643Y-17995572D01*
X11683357Y-17938429D01*
X11683357Y-17867000D01*
X11697643Y-17809857D01*
X11711928Y-17781286D01*
X11726214Y-17767000D01*
X11754786Y-17752714D01*
X12140500Y-18052714D02*
X11969071Y-18052714D01*
X12054786Y-18052714D02*
X12054786Y-17752714D01*
X12026214Y-17795572D01*
X11997643Y-17824143D01*
X11969071Y-17838429D01*
X12411928Y-17752714D02*
X12269071Y-17752714D01*
X12254786Y-17895572D01*
X12269071Y-17881286D01*
X12297643Y-17867000D01*
X12369071Y-17867000D01*
X12397643Y-17881286D01*
X12411928Y-17895572D01*
X12426214Y-17924143D01*
X12426214Y-17995572D01*
X12411928Y-18024143D01*
X12397643Y-18038429D01*
X12369071Y-18052714D01*
X12297643Y-18052714D01*
X12269071Y-18038429D01*
X12254786Y-18024143D01*
X12526214Y-17752714D02*
X12726214Y-17752714D01*
X12597643Y-18052714D01*
X12826214Y-17752714D02*
X12826214Y-17809857D01*
X12940500Y-17752714D02*
X12940500Y-17809857D01*
X13383357Y-18167000D02*
X13369071Y-18152714D01*
X13340500Y-18109857D01*
X13326214Y-18081286D01*
X13311928Y-18038429D01*
X13297643Y-17967000D01*
X13297643Y-17909857D01*
X13311928Y-17838429D01*
X13326214Y-17795572D01*
X13340500Y-17767000D01*
X13369071Y-17724143D01*
X13383357Y-17709857D01*
X13654786Y-18052714D02*
X13483357Y-18052714D01*
X13569071Y-18052714D02*
X13569071Y-17752714D01*
X13540500Y-17795572D01*
X13511928Y-17824143D01*
X13483357Y-17838429D01*
X13940500Y-18052714D02*
X13769071Y-18052714D01*
X13854786Y-18052714D02*
X13854786Y-17752714D01*
X13826214Y-17795572D01*
X13797643Y-17824143D01*
X13769071Y-17838429D01*
X14297643Y-18052714D02*
X14297643Y-17752714D01*
X14426214Y-18052714D02*
X14426214Y-17895572D01*
X14411928Y-17867000D01*
X14383357Y-17852714D01*
X14340500Y-17852714D01*
X14311928Y-17867000D01*
X14297643Y-17881286D01*
X14611928Y-18052714D02*
X14583357Y-18038429D01*
X14569071Y-18024143D01*
X14554786Y-17995572D01*
X14554786Y-17909857D01*
X14569071Y-17881286D01*
X14583357Y-17867000D01*
X14611928Y-17852714D01*
X14654786Y-17852714D01*
X14683357Y-17867000D01*
X14697643Y-17881286D01*
X14711928Y-17909857D01*
X14711928Y-17995572D01*
X14697643Y-18024143D01*
X14683357Y-18038429D01*
X14654786Y-18052714D01*
X14611928Y-18052714D01*
X14883357Y-18052714D02*
X14854786Y-18038429D01*
X14840500Y-18009857D01*
X14840500Y-17752714D01*
X15111928Y-18038429D02*
X15083357Y-18052714D01*
X15026214Y-18052714D01*
X14997643Y-18038429D01*
X14983357Y-18009857D01*
X14983357Y-17895572D01*
X14997643Y-17867000D01*
X15026214Y-17852714D01*
X15083357Y-17852714D01*
X15111928Y-17867000D01*
X15126214Y-17895572D01*
X15126214Y-17924143D01*
X14983357Y-17952714D01*
X15240500Y-18038429D02*
X15269071Y-18052714D01*
X15326214Y-18052714D01*
X15354786Y-18038429D01*
X15369071Y-18009857D01*
X15369071Y-17995572D01*
X15354786Y-17967000D01*
X15326214Y-17952714D01*
X15283357Y-17952714D01*
X15254786Y-17938429D01*
X15240500Y-17909857D01*
X15240500Y-17895572D01*
X15254786Y-17867000D01*
X15283357Y-17852714D01*
X15326214Y-17852714D01*
X15354786Y-17867000D01*
X15469071Y-18167000D02*
X15483357Y-18152714D01*
X15511928Y-18109857D01*
X15526214Y-18081286D01*
X15540500Y-18038429D01*
X15554786Y-17967000D01*
X15554786Y-17909857D01*
X15540500Y-17838429D01*
X15526214Y-17795572D01*
X15511928Y-17767000D01*
X15483357Y-17724143D01*
X15469071Y-17709857D01*
X8125500Y-18313000D02*
G75*
G03*
X8125500Y-18313000I-25000J0D01*
G01*
X8469071Y-18148714D02*
X8497643Y-18148714D01*
X8526214Y-18163000D01*
X8540500Y-18177286D01*
X8554786Y-18205857D01*
X8569071Y-18263000D01*
X8569071Y-18334429D01*
X8554786Y-18391572D01*
X8540500Y-18420143D01*
X8526214Y-18434429D01*
X8497643Y-18448714D01*
X8469071Y-18448714D01*
X8440500Y-18434429D01*
X8426214Y-18420143D01*
X8411928Y-18391572D01*
X8397643Y-18334429D01*
X8397643Y-18263000D01*
X8411928Y-18205857D01*
X8426214Y-18177286D01*
X8440500Y-18163000D01*
X8469071Y-18148714D01*
X8697643Y-18420143D02*
X8711928Y-18434429D01*
X8697643Y-18448714D01*
X8683357Y-18434429D01*
X8697643Y-18420143D01*
X8697643Y-18448714D01*
X8983357Y-18148714D02*
X8840500Y-18148714D01*
X8826214Y-18291572D01*
X8840500Y-18277286D01*
X8869071Y-18263000D01*
X8940500Y-18263000D01*
X8969071Y-18277286D01*
X8983357Y-18291572D01*
X8997643Y-18320143D01*
X8997643Y-18391572D01*
X8983357Y-18420143D01*
X8969071Y-18434429D01*
X8940500Y-18448714D01*
X8869071Y-18448714D01*
X8840500Y-18434429D01*
X8826214Y-18420143D01*
X9183357Y-18148714D02*
X9211928Y-18148714D01*
X9240500Y-18163000D01*
X9254786Y-18177286D01*
X9269071Y-18205857D01*
X9283357Y-18263000D01*
X9283357Y-18334429D01*
X9269071Y-18391572D01*
X9254786Y-18420143D01*
X9240500Y-18434429D01*
X9211928Y-18448714D01*
X9183357Y-18448714D01*
X9154786Y-18434429D01*
X9140500Y-18420143D01*
X9126214Y-18391572D01*
X9111928Y-18334429D01*
X9111928Y-18263000D01*
X9126214Y-18205857D01*
X9140500Y-18177286D01*
X9154786Y-18163000D01*
X9183357Y-18148714D01*
X9469071Y-18148714D02*
X9497643Y-18148714D01*
X9526214Y-18163000D01*
X9540500Y-18177286D01*
X9554786Y-18205857D01*
X9569071Y-18263000D01*
X9569071Y-18334429D01*
X9554786Y-18391572D01*
X9540500Y-18420143D01*
X9526214Y-18434429D01*
X9497643Y-18448714D01*
X9469071Y-18448714D01*
X9440500Y-18434429D01*
X9426214Y-18420143D01*
X9411928Y-18391572D01*
X9397643Y-18334429D01*
X9397643Y-18263000D01*
X9411928Y-18205857D01*
X9426214Y-18177286D01*
X9440500Y-18163000D01*
X9469071Y-18148714D01*
X9697643Y-18448714D02*
X9697643Y-18248714D01*
X9697643Y-18277286D02*
X9711928Y-18263000D01*
X9740500Y-18248714D01*
X9783357Y-18248714D01*
X9811928Y-18263000D01*
X9826214Y-18291572D01*
X9826214Y-18448714D01*
X9826214Y-18291572D02*
X9840500Y-18263000D01*
X9869071Y-18248714D01*
X9911928Y-18248714D01*
X9940500Y-18263000D01*
X9954786Y-18291572D01*
X9954786Y-18448714D01*
X10097643Y-18448714D02*
X10097643Y-18248714D01*
X10097643Y-18277286D02*
X10111928Y-18263000D01*
X10140500Y-18248714D01*
X10183357Y-18248714D01*
X10211928Y-18263000D01*
X10226214Y-18291572D01*
X10226214Y-18448714D01*
X10226214Y-18291572D02*
X10240500Y-18263000D01*
X10269071Y-18248714D01*
X10311928Y-18248714D01*
X10340500Y-18263000D01*
X10354786Y-18291572D01*
X10354786Y-18448714D01*
X10940500Y-18134429D02*
X10683357Y-18520143D01*
X11326214Y-18148714D02*
X11354786Y-18148714D01*
X11383357Y-18163000D01*
X11397643Y-18177286D01*
X11411928Y-18205857D01*
X11426214Y-18263000D01*
X11426214Y-18334429D01*
X11411928Y-18391572D01*
X11397643Y-18420143D01*
X11383357Y-18434429D01*
X11354786Y-18448714D01*
X11326214Y-18448714D01*
X11297643Y-18434429D01*
X11283357Y-18420143D01*
X11269071Y-18391572D01*
X11254786Y-18334429D01*
X11254786Y-18263000D01*
X11269071Y-18205857D01*
X11283357Y-18177286D01*
X11297643Y-18163000D01*
X11326214Y-18148714D01*
X11554786Y-18420143D02*
X11569071Y-18434429D01*
X11554786Y-18448714D01*
X11540500Y-18434429D01*
X11554786Y-18420143D01*
X11554786Y-18448714D01*
X11754786Y-18148714D02*
X11783357Y-18148714D01*
X11811928Y-18163000D01*
X11826214Y-18177286D01*
X11840500Y-18205857D01*
X11854786Y-18263000D01*
X11854786Y-18334429D01*
X11840500Y-18391572D01*
X11826214Y-18420143D01*
X11811928Y-18434429D01*
X11783357Y-18448714D01*
X11754786Y-18448714D01*
X11726214Y-18434429D01*
X11711928Y-18420143D01*
X11697643Y-18391572D01*
X11683357Y-18334429D01*
X11683357Y-18263000D01*
X11697643Y-18205857D01*
X11711928Y-18177286D01*
X11726214Y-18163000D01*
X11754786Y-18148714D01*
X12140500Y-18448714D02*
X11969071Y-18448714D01*
X12054786Y-18448714D02*
X12054786Y-18148714D01*
X12026214Y-18191572D01*
X11997643Y-18220143D01*
X11969071Y-18234429D01*
X12283357Y-18448714D02*
X12340500Y-18448714D01*
X12369071Y-18434429D01*
X12383357Y-18420143D01*
X12411928Y-18377286D01*
X12426214Y-18320143D01*
X12426214Y-18205857D01*
X12411928Y-18177286D01*
X12397643Y-18163000D01*
X12369071Y-18148714D01*
X12311928Y-18148714D01*
X12283357Y-18163000D01*
X12269071Y-18177286D01*
X12254786Y-18205857D01*
X12254786Y-18277286D01*
X12269071Y-18305857D01*
X12283357Y-18320143D01*
X12311928Y-18334429D01*
X12369071Y-18334429D01*
X12397643Y-18320143D01*
X12411928Y-18305857D01*
X12426214Y-18277286D01*
X12526214Y-18148714D02*
X12726214Y-18148714D01*
X12597643Y-18448714D01*
X12826214Y-18148714D02*
X12826214Y-18205857D01*
X12940500Y-18148714D02*
X12940500Y-18205857D01*
X13383357Y-18563000D02*
X13369071Y-18548714D01*
X13340500Y-18505857D01*
X13326214Y-18477286D01*
X13311928Y-18434429D01*
X13297643Y-18363000D01*
X13297643Y-18305857D01*
X13311928Y-18234429D01*
X13326214Y-18191572D01*
X13340500Y-18163000D01*
X13369071Y-18120143D01*
X13383357Y-18105857D01*
X13654786Y-18448714D02*
X13483357Y-18448714D01*
X13569071Y-18448714D02*
X13569071Y-18148714D01*
X13540500Y-18191572D01*
X13511928Y-18220143D01*
X13483357Y-18234429D01*
X13911928Y-18148714D02*
X13854786Y-18148714D01*
X13826214Y-18163000D01*
X13811928Y-18177286D01*
X13783357Y-18220143D01*
X13769071Y-18277286D01*
X13769071Y-18391572D01*
X13783357Y-18420143D01*
X13797643Y-18434429D01*
X13826214Y-18448714D01*
X13883357Y-18448714D01*
X13911928Y-18434429D01*
X13926214Y-18420143D01*
X13940500Y-18391572D01*
X13940500Y-18320143D01*
X13926214Y-18291572D01*
X13911928Y-18277286D01*
X13883357Y-18263000D01*
X13826214Y-18263000D01*
X13797643Y-18277286D01*
X13783357Y-18291572D01*
X13769071Y-18320143D01*
X14297643Y-18448714D02*
X14297643Y-18148714D01*
X14426214Y-18448714D02*
X14426214Y-18291572D01*
X14411928Y-18263000D01*
X14383357Y-18248714D01*
X14340500Y-18248714D01*
X14311928Y-18263000D01*
X14297643Y-18277286D01*
X14611928Y-18448714D02*
X14583357Y-18434429D01*
X14569071Y-18420143D01*
X14554786Y-18391572D01*
X14554786Y-18305857D01*
X14569071Y-18277286D01*
X14583357Y-18263000D01*
X14611928Y-18248714D01*
X14654786Y-18248714D01*
X14683357Y-18263000D01*
X14697643Y-18277286D01*
X14711928Y-18305857D01*
X14711928Y-18391572D01*
X14697643Y-18420143D01*
X14683357Y-18434429D01*
X14654786Y-18448714D01*
X14611928Y-18448714D01*
X14883357Y-18448714D02*
X14854786Y-18434429D01*
X14840500Y-18405857D01*
X14840500Y-18148714D01*
X15111928Y-18434429D02*
X15083357Y-18448714D01*
X15026214Y-18448714D01*
X14997643Y-18434429D01*
X14983357Y-18405857D01*
X14983357Y-18291572D01*
X14997643Y-18263000D01*
X15026214Y-18248714D01*
X15083357Y-18248714D01*
X15111928Y-18263000D01*
X15126214Y-18291572D01*
X15126214Y-18320143D01*
X14983357Y-18348714D01*
X15240500Y-18434429D02*
X15269071Y-18448714D01*
X15326214Y-18448714D01*
X15354786Y-18434429D01*
X15369071Y-18405857D01*
X15369071Y-18391572D01*
X15354786Y-18363000D01*
X15326214Y-18348714D01*
X15283357Y-18348714D01*
X15254786Y-18334429D01*
X15240500Y-18305857D01*
X15240500Y-18291572D01*
X15254786Y-18263000D01*
X15283357Y-18248714D01*
X15326214Y-18248714D01*
X15354786Y-18263000D01*
X15469071Y-18563000D02*
X15483357Y-18548714D01*
X15511928Y-18505857D01*
X15526214Y-18477286D01*
X15540500Y-18434429D01*
X15554786Y-18363000D01*
X15554786Y-18305857D01*
X15540500Y-18234429D01*
X15526214Y-18191572D01*
X15511928Y-18163000D01*
X15483357Y-18120143D01*
X15469071Y-18105857D01*
X8090500Y-18674000D02*
X8090500Y-18744000D01*
X8055500Y-18709000D02*
X8125500Y-18709000D01*
X8469071Y-18544714D02*
X8497643Y-18544714D01*
X8526214Y-18559000D01*
X8540500Y-18573286D01*
X8554786Y-18601857D01*
X8569071Y-18659000D01*
X8569071Y-18730429D01*
X8554786Y-18787572D01*
X8540500Y-18816143D01*
X8526214Y-18830429D01*
X8497643Y-18844714D01*
X8469071Y-18844714D01*
X8440500Y-18830429D01*
X8426214Y-18816143D01*
X8411928Y-18787572D01*
X8397643Y-18730429D01*
X8397643Y-18659000D01*
X8411928Y-18601857D01*
X8426214Y-18573286D01*
X8440500Y-18559000D01*
X8469071Y-18544714D01*
X8697643Y-18816143D02*
X8711928Y-18830429D01*
X8697643Y-18844714D01*
X8683357Y-18830429D01*
X8697643Y-18816143D01*
X8697643Y-18844714D01*
X8811928Y-18544714D02*
X9011928Y-18544714D01*
X8883357Y-18844714D01*
X9183357Y-18544714D02*
X9211928Y-18544714D01*
X9240500Y-18559000D01*
X9254786Y-18573286D01*
X9269071Y-18601857D01*
X9283357Y-18659000D01*
X9283357Y-18730429D01*
X9269071Y-18787572D01*
X9254786Y-18816143D01*
X9240500Y-18830429D01*
X9211928Y-18844714D01*
X9183357Y-18844714D01*
X9154786Y-18830429D01*
X9140500Y-18816143D01*
X9126214Y-18787572D01*
X9111928Y-18730429D01*
X9111928Y-18659000D01*
X9126214Y-18601857D01*
X9140500Y-18573286D01*
X9154786Y-18559000D01*
X9183357Y-18544714D01*
X9469071Y-18544714D02*
X9497643Y-18544714D01*
X9526214Y-18559000D01*
X9540500Y-18573286D01*
X9554786Y-18601857D01*
X9569071Y-18659000D01*
X9569071Y-18730429D01*
X9554786Y-18787572D01*
X9540500Y-18816143D01*
X9526214Y-18830429D01*
X9497643Y-18844714D01*
X9469071Y-18844714D01*
X9440500Y-18830429D01*
X9426214Y-18816143D01*
X9411928Y-18787572D01*
X9397643Y-18730429D01*
X9397643Y-18659000D01*
X9411928Y-18601857D01*
X9426214Y-18573286D01*
X9440500Y-18559000D01*
X9469071Y-18544714D01*
X9697643Y-18844714D02*
X9697643Y-18644714D01*
X9697643Y-18673286D02*
X9711928Y-18659000D01*
X9740500Y-18644714D01*
X9783357Y-18644714D01*
X9811928Y-18659000D01*
X9826214Y-18687572D01*
X9826214Y-18844714D01*
X9826214Y-18687572D02*
X9840500Y-18659000D01*
X9869071Y-18644714D01*
X9911928Y-18644714D01*
X9940500Y-18659000D01*
X9954786Y-18687572D01*
X9954786Y-18844714D01*
X10097643Y-18844714D02*
X10097643Y-18644714D01*
X10097643Y-18673286D02*
X10111928Y-18659000D01*
X10140500Y-18644714D01*
X10183357Y-18644714D01*
X10211928Y-18659000D01*
X10226214Y-18687572D01*
X10226214Y-18844714D01*
X10226214Y-18687572D02*
X10240500Y-18659000D01*
X10269071Y-18644714D01*
X10311928Y-18644714D01*
X10340500Y-18659000D01*
X10354786Y-18687572D01*
X10354786Y-18844714D01*
X10940500Y-18530429D02*
X10683357Y-18916143D01*
X11326214Y-18544714D02*
X11354786Y-18544714D01*
X11383357Y-18559000D01*
X11397643Y-18573286D01*
X11411928Y-18601857D01*
X11426214Y-18659000D01*
X11426214Y-18730429D01*
X11411928Y-18787572D01*
X11397643Y-18816143D01*
X11383357Y-18830429D01*
X11354786Y-18844714D01*
X11326214Y-18844714D01*
X11297643Y-18830429D01*
X11283357Y-18816143D01*
X11269071Y-18787572D01*
X11254786Y-18730429D01*
X11254786Y-18659000D01*
X11269071Y-18601857D01*
X11283357Y-18573286D01*
X11297643Y-18559000D01*
X11326214Y-18544714D01*
X11554786Y-18816143D02*
X11569071Y-18830429D01*
X11554786Y-18844714D01*
X11540500Y-18830429D01*
X11554786Y-18816143D01*
X11554786Y-18844714D01*
X11754786Y-18544714D02*
X11783357Y-18544714D01*
X11811928Y-18559000D01*
X11826214Y-18573286D01*
X11840500Y-18601857D01*
X11854786Y-18659000D01*
X11854786Y-18730429D01*
X11840500Y-18787572D01*
X11826214Y-18816143D01*
X11811928Y-18830429D01*
X11783357Y-18844714D01*
X11754786Y-18844714D01*
X11726214Y-18830429D01*
X11711928Y-18816143D01*
X11697643Y-18787572D01*
X11683357Y-18730429D01*
X11683357Y-18659000D01*
X11697643Y-18601857D01*
X11711928Y-18573286D01*
X11726214Y-18559000D01*
X11754786Y-18544714D01*
X11969071Y-18573286D02*
X11983357Y-18559000D01*
X12011928Y-18544714D01*
X12083357Y-18544714D01*
X12111928Y-18559000D01*
X12126214Y-18573286D01*
X12140500Y-18601857D01*
X12140500Y-18630429D01*
X12126214Y-18673286D01*
X11954786Y-18844714D01*
X12140500Y-18844714D01*
X12240500Y-18544714D02*
X12440500Y-18544714D01*
X12311928Y-18844714D01*
X12683357Y-18544714D02*
X12626214Y-18544714D01*
X12597643Y-18559000D01*
X12583357Y-18573286D01*
X12554786Y-18616143D01*
X12540500Y-18673286D01*
X12540500Y-18787572D01*
X12554786Y-18816143D01*
X12569071Y-18830429D01*
X12597643Y-18844714D01*
X12654786Y-18844714D01*
X12683357Y-18830429D01*
X12697643Y-18816143D01*
X12711928Y-18787572D01*
X12711928Y-18716143D01*
X12697643Y-18687572D01*
X12683357Y-18673286D01*
X12654786Y-18659000D01*
X12597643Y-18659000D01*
X12569071Y-18673286D01*
X12554786Y-18687572D01*
X12540500Y-18716143D01*
X12826214Y-18544714D02*
X12826214Y-18601857D01*
X12940500Y-18544714D02*
X12940500Y-18601857D01*
X13383357Y-18959000D02*
X13369071Y-18944714D01*
X13340500Y-18901857D01*
X13326214Y-18873286D01*
X13311928Y-18830429D01*
X13297643Y-18759000D01*
X13297643Y-18701857D01*
X13311928Y-18630429D01*
X13326214Y-18587572D01*
X13340500Y-18559000D01*
X13369071Y-18516143D01*
X13383357Y-18501857D01*
X13626214Y-18644714D02*
X13626214Y-18844714D01*
X13554786Y-18530429D02*
X13483357Y-18744714D01*
X13669071Y-18744714D01*
X14011928Y-18844714D02*
X14011928Y-18544714D01*
X14140500Y-18844714D02*
X14140500Y-18687572D01*
X14126214Y-18659000D01*
X14097643Y-18644714D01*
X14054786Y-18644714D01*
X14026214Y-18659000D01*
X14011928Y-18673286D01*
X14326214Y-18844714D02*
X14297643Y-18830429D01*
X14283357Y-18816143D01*
X14269071Y-18787572D01*
X14269071Y-18701857D01*
X14283357Y-18673286D01*
X14297643Y-18659000D01*
X14326214Y-18644714D01*
X14369071Y-18644714D01*
X14397643Y-18659000D01*
X14411928Y-18673286D01*
X14426214Y-18701857D01*
X14426214Y-18787572D01*
X14411928Y-18816143D01*
X14397643Y-18830429D01*
X14369071Y-18844714D01*
X14326214Y-18844714D01*
X14597643Y-18844714D02*
X14569071Y-18830429D01*
X14554786Y-18801857D01*
X14554786Y-18544714D01*
X14826214Y-18830429D02*
X14797643Y-18844714D01*
X14740500Y-18844714D01*
X14711928Y-18830429D01*
X14697643Y-18801857D01*
X14697643Y-18687572D01*
X14711928Y-18659000D01*
X14740500Y-18644714D01*
X14797643Y-18644714D01*
X14826214Y-18659000D01*
X14840500Y-18687572D01*
X14840500Y-18716143D01*
X14697643Y-18744714D01*
X14954786Y-18830429D02*
X14983357Y-18844714D01*
X15040500Y-18844714D01*
X15069071Y-18830429D01*
X15083357Y-18801857D01*
X15083357Y-18787572D01*
X15069071Y-18759000D01*
X15040500Y-18744714D01*
X14997643Y-18744714D01*
X14969071Y-18730429D01*
X14954786Y-18701857D01*
X14954786Y-18687572D01*
X14969071Y-18659000D01*
X14997643Y-18644714D01*
X15040500Y-18644714D01*
X15069071Y-18659000D01*
X15183357Y-18959000D02*
X15197643Y-18944714D01*
X15226214Y-18901857D01*
X15240500Y-18873286D01*
X15254786Y-18830429D01*
X15269071Y-18759000D01*
X15269071Y-18701857D01*
X15254786Y-18630429D01*
X15240500Y-18587572D01*
X15226214Y-18559000D01*
X15197643Y-18516143D01*
X15183357Y-18501857D01*
X8113784Y-19133285D02*
X8113784Y-19076716D01*
X8057215Y-19076716D01*
X8057215Y-19133285D01*
X8113784Y-19133285D01*
X8469071Y-18940714D02*
X8497643Y-18940714D01*
X8526214Y-18955000D01*
X8540500Y-18969286D01*
X8554786Y-18997857D01*
X8569071Y-19055000D01*
X8569071Y-19126429D01*
X8554786Y-19183572D01*
X8540500Y-19212143D01*
X8526214Y-19226429D01*
X8497643Y-19240714D01*
X8469071Y-19240714D01*
X8440500Y-19226429D01*
X8426214Y-19212143D01*
X8411928Y-19183572D01*
X8397643Y-19126429D01*
X8397643Y-19055000D01*
X8411928Y-18997857D01*
X8426214Y-18969286D01*
X8440500Y-18955000D01*
X8469071Y-18940714D01*
X8697643Y-19212143D02*
X8711928Y-19226429D01*
X8697643Y-19240714D01*
X8683357Y-19226429D01*
X8697643Y-19212143D01*
X8697643Y-19240714D01*
X8883357Y-19069286D02*
X8854786Y-19055000D01*
X8840500Y-19040714D01*
X8826214Y-19012143D01*
X8826214Y-18997857D01*
X8840500Y-18969286D01*
X8854786Y-18955000D01*
X8883357Y-18940714D01*
X8940500Y-18940714D01*
X8969071Y-18955000D01*
X8983357Y-18969286D01*
X8997643Y-18997857D01*
X8997643Y-19012143D01*
X8983357Y-19040714D01*
X8969071Y-19055000D01*
X8940500Y-19069286D01*
X8883357Y-19069286D01*
X8854786Y-19083572D01*
X8840500Y-19097857D01*
X8826214Y-19126429D01*
X8826214Y-19183572D01*
X8840500Y-19212143D01*
X8854786Y-19226429D01*
X8883357Y-19240714D01*
X8940500Y-19240714D01*
X8969071Y-19226429D01*
X8983357Y-19212143D01*
X8997643Y-19183572D01*
X8997643Y-19126429D01*
X8983357Y-19097857D01*
X8969071Y-19083572D01*
X8940500Y-19069286D01*
X9183357Y-18940714D02*
X9211928Y-18940714D01*
X9240500Y-18955000D01*
X9254786Y-18969286D01*
X9269071Y-18997857D01*
X9283357Y-19055000D01*
X9283357Y-19126429D01*
X9269071Y-19183572D01*
X9254786Y-19212143D01*
X9240500Y-19226429D01*
X9211928Y-19240714D01*
X9183357Y-19240714D01*
X9154786Y-19226429D01*
X9140500Y-19212143D01*
X9126214Y-19183572D01*
X9111928Y-19126429D01*
X9111928Y-19055000D01*
X9126214Y-18997857D01*
X9140500Y-18969286D01*
X9154786Y-18955000D01*
X9183357Y-18940714D01*
X9469071Y-18940714D02*
X9497643Y-18940714D01*
X9526214Y-18955000D01*
X9540500Y-18969286D01*
X9554786Y-18997857D01*
X9569071Y-19055000D01*
X9569071Y-19126429D01*
X9554786Y-19183572D01*
X9540500Y-19212143D01*
X9526214Y-19226429D01*
X9497643Y-19240714D01*
X9469071Y-19240714D01*
X9440500Y-19226429D01*
X9426214Y-19212143D01*
X9411928Y-19183572D01*
X9397643Y-19126429D01*
X9397643Y-19055000D01*
X9411928Y-18997857D01*
X9426214Y-18969286D01*
X9440500Y-18955000D01*
X9469071Y-18940714D01*
X9697643Y-19240714D02*
X9697643Y-19040714D01*
X9697643Y-19069286D02*
X9711928Y-19055000D01*
X9740500Y-19040714D01*
X9783357Y-19040714D01*
X9811928Y-19055000D01*
X9826214Y-19083572D01*
X9826214Y-19240714D01*
X9826214Y-19083572D02*
X9840500Y-19055000D01*
X9869071Y-19040714D01*
X9911928Y-19040714D01*
X9940500Y-19055000D01*
X9954786Y-19083572D01*
X9954786Y-19240714D01*
X10097643Y-19240714D02*
X10097643Y-19040714D01*
X10097643Y-19069286D02*
X10111928Y-19055000D01*
X10140500Y-19040714D01*
X10183357Y-19040714D01*
X10211928Y-19055000D01*
X10226214Y-19083572D01*
X10226214Y-19240714D01*
X10226214Y-19083572D02*
X10240500Y-19055000D01*
X10269071Y-19040714D01*
X10311928Y-19040714D01*
X10340500Y-19055000D01*
X10354786Y-19083572D01*
X10354786Y-19240714D01*
X10940500Y-18926429D02*
X10683357Y-19312143D01*
X11326214Y-18940714D02*
X11354786Y-18940714D01*
X11383357Y-18955000D01*
X11397643Y-18969286D01*
X11411928Y-18997857D01*
X11426214Y-19055000D01*
X11426214Y-19126429D01*
X11411928Y-19183572D01*
X11397643Y-19212143D01*
X11383357Y-19226429D01*
X11354786Y-19240714D01*
X11326214Y-19240714D01*
X11297643Y-19226429D01*
X11283357Y-19212143D01*
X11269071Y-19183572D01*
X11254786Y-19126429D01*
X11254786Y-19055000D01*
X11269071Y-18997857D01*
X11283357Y-18969286D01*
X11297643Y-18955000D01*
X11326214Y-18940714D01*
X11554786Y-19212143D02*
X11569071Y-19226429D01*
X11554786Y-19240714D01*
X11540500Y-19226429D01*
X11554786Y-19212143D01*
X11554786Y-19240714D01*
X11754786Y-18940714D02*
X11783357Y-18940714D01*
X11811928Y-18955000D01*
X11826214Y-18969286D01*
X11840500Y-18997857D01*
X11854786Y-19055000D01*
X11854786Y-19126429D01*
X11840500Y-19183572D01*
X11826214Y-19212143D01*
X11811928Y-19226429D01*
X11783357Y-19240714D01*
X11754786Y-19240714D01*
X11726214Y-19226429D01*
X11711928Y-19212143D01*
X11697643Y-19183572D01*
X11683357Y-19126429D01*
X11683357Y-19055000D01*
X11697643Y-18997857D01*
X11711928Y-18969286D01*
X11726214Y-18955000D01*
X11754786Y-18940714D01*
X11954786Y-18940714D02*
X12140500Y-18940714D01*
X12040500Y-19055000D01*
X12083357Y-19055000D01*
X12111928Y-19069286D01*
X12126214Y-19083572D01*
X12140500Y-19112143D01*
X12140500Y-19183572D01*
X12126214Y-19212143D01*
X12111928Y-19226429D01*
X12083357Y-19240714D01*
X11997643Y-19240714D01*
X11969071Y-19226429D01*
X11954786Y-19212143D01*
X12426214Y-19240714D02*
X12254786Y-19240714D01*
X12340500Y-19240714D02*
X12340500Y-18940714D01*
X12311928Y-18983572D01*
X12283357Y-19012143D01*
X12254786Y-19026429D01*
X12697643Y-18940714D02*
X12554786Y-18940714D01*
X12540500Y-19083572D01*
X12554786Y-19069286D01*
X12583357Y-19055000D01*
X12654786Y-19055000D01*
X12683357Y-19069286D01*
X12697643Y-19083572D01*
X12711928Y-19112143D01*
X12711928Y-19183572D01*
X12697643Y-19212143D01*
X12683357Y-19226429D01*
X12654786Y-19240714D01*
X12583357Y-19240714D01*
X12554786Y-19226429D01*
X12540500Y-19212143D01*
X12826214Y-18940714D02*
X12826214Y-18997857D01*
X12940500Y-18940714D02*
X12940500Y-18997857D01*
X13383357Y-19355000D02*
X13369071Y-19340714D01*
X13340500Y-19297857D01*
X13326214Y-19269286D01*
X13311928Y-19226429D01*
X13297643Y-19155000D01*
X13297643Y-19097857D01*
X13311928Y-19026429D01*
X13326214Y-18983572D01*
X13340500Y-18955000D01*
X13369071Y-18912143D01*
X13383357Y-18897857D01*
X13626214Y-19040714D02*
X13626214Y-19240714D01*
X13554786Y-18926429D02*
X13483357Y-19140714D01*
X13669071Y-19140714D01*
X13840500Y-18940714D02*
X13869071Y-18940714D01*
X13897643Y-18955000D01*
X13911928Y-18969286D01*
X13926214Y-18997857D01*
X13940500Y-19055000D01*
X13940500Y-19126429D01*
X13926214Y-19183572D01*
X13911928Y-19212143D01*
X13897643Y-19226429D01*
X13869071Y-19240714D01*
X13840500Y-19240714D01*
X13811928Y-19226429D01*
X13797643Y-19212143D01*
X13783357Y-19183572D01*
X13769071Y-19126429D01*
X13769071Y-19055000D01*
X13783357Y-18997857D01*
X13797643Y-18969286D01*
X13811928Y-18955000D01*
X13840500Y-18940714D01*
X14297643Y-19240714D02*
X14297643Y-18940714D01*
X14426214Y-19240714D02*
X14426214Y-19083572D01*
X14411928Y-19055000D01*
X14383357Y-19040714D01*
X14340500Y-19040714D01*
X14311928Y-19055000D01*
X14297643Y-19069286D01*
X14611928Y-19240714D02*
X14583357Y-19226429D01*
X14569071Y-19212143D01*
X14554786Y-19183572D01*
X14554786Y-19097857D01*
X14569071Y-19069286D01*
X14583357Y-19055000D01*
X14611928Y-19040714D01*
X14654786Y-19040714D01*
X14683357Y-19055000D01*
X14697643Y-19069286D01*
X14711928Y-19097857D01*
X14711928Y-19183572D01*
X14697643Y-19212143D01*
X14683357Y-19226429D01*
X14654786Y-19240714D01*
X14611928Y-19240714D01*
X14883357Y-19240714D02*
X14854786Y-19226429D01*
X14840500Y-19197857D01*
X14840500Y-18940714D01*
X15111928Y-19226429D02*
X15083357Y-19240714D01*
X15026214Y-19240714D01*
X14997643Y-19226429D01*
X14983357Y-19197857D01*
X14983357Y-19083572D01*
X14997643Y-19055000D01*
X15026214Y-19040714D01*
X15083357Y-19040714D01*
X15111928Y-19055000D01*
X15126214Y-19083572D01*
X15126214Y-19112143D01*
X14983357Y-19140714D01*
X15240500Y-19226429D02*
X15269071Y-19240714D01*
X15326214Y-19240714D01*
X15354786Y-19226429D01*
X15369071Y-19197857D01*
X15369071Y-19183572D01*
X15354786Y-19155000D01*
X15326214Y-19140714D01*
X15283357Y-19140714D01*
X15254786Y-19126429D01*
X15240500Y-19097857D01*
X15240500Y-19083572D01*
X15254786Y-19055000D01*
X15283357Y-19040714D01*
X15326214Y-19040714D01*
X15354786Y-19055000D01*
X15469071Y-19355000D02*
X15483357Y-19340714D01*
X15511928Y-19297857D01*
X15526214Y-19269286D01*
X15540500Y-19226429D01*
X15554786Y-19155000D01*
X15554786Y-19097857D01*
X15540500Y-19026429D01*
X15526214Y-18983572D01*
X15511928Y-18955000D01*
X15483357Y-18912143D01*
X15469071Y-18897857D01*
X8080500Y-19546000D02*
X8125500Y-19501000D01*
X8080500Y-19456000D01*
X8035500Y-19501000D01*
X8080500Y-19546000D01*
X8469071Y-19336714D02*
X8497643Y-19336714D01*
X8526214Y-19351000D01*
X8540500Y-19365286D01*
X8554786Y-19393857D01*
X8569071Y-19451000D01*
X8569071Y-19522429D01*
X8554786Y-19579572D01*
X8540500Y-19608143D01*
X8526214Y-19622429D01*
X8497643Y-19636714D01*
X8469071Y-19636714D01*
X8440500Y-19622429D01*
X8426214Y-19608143D01*
X8411928Y-19579572D01*
X8397643Y-19522429D01*
X8397643Y-19451000D01*
X8411928Y-19393857D01*
X8426214Y-19365286D01*
X8440500Y-19351000D01*
X8469071Y-19336714D01*
X8697643Y-19608143D02*
X8711928Y-19622429D01*
X8697643Y-19636714D01*
X8683357Y-19622429D01*
X8697643Y-19608143D01*
X8697643Y-19636714D01*
X8854786Y-19636714D02*
X8911928Y-19636714D01*
X8940500Y-19622429D01*
X8954786Y-19608143D01*
X8983357Y-19565286D01*
X8997643Y-19508143D01*
X8997643Y-19393857D01*
X8983357Y-19365286D01*
X8969071Y-19351000D01*
X8940500Y-19336714D01*
X8883357Y-19336714D01*
X8854786Y-19351000D01*
X8840500Y-19365286D01*
X8826214Y-19393857D01*
X8826214Y-19465286D01*
X8840500Y-19493857D01*
X8854786Y-19508143D01*
X8883357Y-19522429D01*
X8940500Y-19522429D01*
X8969071Y-19508143D01*
X8983357Y-19493857D01*
X8997643Y-19465286D01*
X9183357Y-19336714D02*
X9211928Y-19336714D01*
X9240500Y-19351000D01*
X9254786Y-19365286D01*
X9269071Y-19393857D01*
X9283357Y-19451000D01*
X9283357Y-19522429D01*
X9269071Y-19579572D01*
X9254786Y-19608143D01*
X9240500Y-19622429D01*
X9211928Y-19636714D01*
X9183357Y-19636714D01*
X9154786Y-19622429D01*
X9140500Y-19608143D01*
X9126214Y-19579572D01*
X9111928Y-19522429D01*
X9111928Y-19451000D01*
X9126214Y-19393857D01*
X9140500Y-19365286D01*
X9154786Y-19351000D01*
X9183357Y-19336714D01*
X9469071Y-19336714D02*
X9497643Y-19336714D01*
X9526214Y-19351000D01*
X9540500Y-19365286D01*
X9554786Y-19393857D01*
X9569071Y-19451000D01*
X9569071Y-19522429D01*
X9554786Y-19579572D01*
X9540500Y-19608143D01*
X9526214Y-19622429D01*
X9497643Y-19636714D01*
X9469071Y-19636714D01*
X9440500Y-19622429D01*
X9426214Y-19608143D01*
X9411928Y-19579572D01*
X9397643Y-19522429D01*
X9397643Y-19451000D01*
X9411928Y-19393857D01*
X9426214Y-19365286D01*
X9440500Y-19351000D01*
X9469071Y-19336714D01*
X9697643Y-19636714D02*
X9697643Y-19436714D01*
X9697643Y-19465286D02*
X9711928Y-19451000D01*
X9740500Y-19436714D01*
X9783357Y-19436714D01*
X9811928Y-19451000D01*
X9826214Y-19479572D01*
X9826214Y-19636714D01*
X9826214Y-19479572D02*
X9840500Y-19451000D01*
X9869071Y-19436714D01*
X9911928Y-19436714D01*
X9940500Y-19451000D01*
X9954786Y-19479572D01*
X9954786Y-19636714D01*
X10097643Y-19636714D02*
X10097643Y-19436714D01*
X10097643Y-19465286D02*
X10111928Y-19451000D01*
X10140500Y-19436714D01*
X10183357Y-19436714D01*
X10211928Y-19451000D01*
X10226214Y-19479572D01*
X10226214Y-19636714D01*
X10226214Y-19479572D02*
X10240500Y-19451000D01*
X10269071Y-19436714D01*
X10311928Y-19436714D01*
X10340500Y-19451000D01*
X10354786Y-19479572D01*
X10354786Y-19636714D01*
X10940500Y-19322429D02*
X10683357Y-19708143D01*
X11326214Y-19336714D02*
X11354786Y-19336714D01*
X11383357Y-19351000D01*
X11397643Y-19365286D01*
X11411928Y-19393857D01*
X11426214Y-19451000D01*
X11426214Y-19522429D01*
X11411928Y-19579572D01*
X11397643Y-19608143D01*
X11383357Y-19622429D01*
X11354786Y-19636714D01*
X11326214Y-19636714D01*
X11297643Y-19622429D01*
X11283357Y-19608143D01*
X11269071Y-19579572D01*
X11254786Y-19522429D01*
X11254786Y-19451000D01*
X11269071Y-19393857D01*
X11283357Y-19365286D01*
X11297643Y-19351000D01*
X11326214Y-19336714D01*
X11554786Y-19608143D02*
X11569071Y-19622429D01*
X11554786Y-19636714D01*
X11540500Y-19622429D01*
X11554786Y-19608143D01*
X11554786Y-19636714D01*
X11754786Y-19336714D02*
X11783357Y-19336714D01*
X11811928Y-19351000D01*
X11826214Y-19365286D01*
X11840500Y-19393857D01*
X11854786Y-19451000D01*
X11854786Y-19522429D01*
X11840500Y-19579572D01*
X11826214Y-19608143D01*
X11811928Y-19622429D01*
X11783357Y-19636714D01*
X11754786Y-19636714D01*
X11726214Y-19622429D01*
X11711928Y-19608143D01*
X11697643Y-19579572D01*
X11683357Y-19522429D01*
X11683357Y-19451000D01*
X11697643Y-19393857D01*
X11711928Y-19365286D01*
X11726214Y-19351000D01*
X11754786Y-19336714D01*
X11954786Y-19336714D02*
X12140500Y-19336714D01*
X12040500Y-19451000D01*
X12083357Y-19451000D01*
X12111928Y-19465286D01*
X12126214Y-19479572D01*
X12140500Y-19508143D01*
X12140500Y-19579572D01*
X12126214Y-19608143D01*
X12111928Y-19622429D01*
X12083357Y-19636714D01*
X11997643Y-19636714D01*
X11969071Y-19622429D01*
X11954786Y-19608143D01*
X12411928Y-19336714D02*
X12269071Y-19336714D01*
X12254786Y-19479572D01*
X12269071Y-19465286D01*
X12297643Y-19451000D01*
X12369071Y-19451000D01*
X12397643Y-19465286D01*
X12411928Y-19479572D01*
X12426214Y-19508143D01*
X12426214Y-19579572D01*
X12411928Y-19608143D01*
X12397643Y-19622429D01*
X12369071Y-19636714D01*
X12297643Y-19636714D01*
X12269071Y-19622429D01*
X12254786Y-19608143D01*
X12683357Y-19436714D02*
X12683357Y-19636714D01*
X12611928Y-19322429D02*
X12540500Y-19536714D01*
X12726214Y-19536714D01*
X12826214Y-19336714D02*
X12826214Y-19393857D01*
X12940500Y-19336714D02*
X12940500Y-19393857D01*
X13383357Y-19751000D02*
X13369071Y-19736714D01*
X13340500Y-19693857D01*
X13326214Y-19665286D01*
X13311928Y-19622429D01*
X13297643Y-19551000D01*
X13297643Y-19493857D01*
X13311928Y-19422429D01*
X13326214Y-19379572D01*
X13340500Y-19351000D01*
X13369071Y-19308143D01*
X13383357Y-19293857D01*
X13540500Y-19465286D02*
X13511928Y-19451000D01*
X13497643Y-19436714D01*
X13483357Y-19408143D01*
X13483357Y-19393857D01*
X13497643Y-19365286D01*
X13511928Y-19351000D01*
X13540500Y-19336714D01*
X13597643Y-19336714D01*
X13626214Y-19351000D01*
X13640500Y-19365286D01*
X13654786Y-19393857D01*
X13654786Y-19408143D01*
X13640500Y-19436714D01*
X13626214Y-19451000D01*
X13597643Y-19465286D01*
X13540500Y-19465286D01*
X13511928Y-19479572D01*
X13497643Y-19493857D01*
X13483357Y-19522429D01*
X13483357Y-19579572D01*
X13497643Y-19608143D01*
X13511928Y-19622429D01*
X13540500Y-19636714D01*
X13597643Y-19636714D01*
X13626214Y-19622429D01*
X13640500Y-19608143D01*
X13654786Y-19579572D01*
X13654786Y-19522429D01*
X13640500Y-19493857D01*
X13626214Y-19479572D01*
X13597643Y-19465286D01*
X14011928Y-19636714D02*
X14011928Y-19336714D01*
X14140500Y-19636714D02*
X14140500Y-19479572D01*
X14126214Y-19451000D01*
X14097643Y-19436714D01*
X14054786Y-19436714D01*
X14026214Y-19451000D01*
X14011928Y-19465286D01*
X14326214Y-19636714D02*
X14297643Y-19622429D01*
X14283357Y-19608143D01*
X14269071Y-19579572D01*
X14269071Y-19493857D01*
X14283357Y-19465286D01*
X14297643Y-19451000D01*
X14326214Y-19436714D01*
X14369071Y-19436714D01*
X14397643Y-19451000D01*
X14411928Y-19465286D01*
X14426214Y-19493857D01*
X14426214Y-19579572D01*
X14411928Y-19608143D01*
X14397643Y-19622429D01*
X14369071Y-19636714D01*
X14326214Y-19636714D01*
X14597643Y-19636714D02*
X14569071Y-19622429D01*
X14554786Y-19593857D01*
X14554786Y-19336714D01*
X14826214Y-19622429D02*
X14797643Y-19636714D01*
X14740500Y-19636714D01*
X14711928Y-19622429D01*
X14697643Y-19593857D01*
X14697643Y-19479572D01*
X14711928Y-19451000D01*
X14740500Y-19436714D01*
X14797643Y-19436714D01*
X14826214Y-19451000D01*
X14840500Y-19479572D01*
X14840500Y-19508143D01*
X14697643Y-19536714D01*
X14954786Y-19622429D02*
X14983357Y-19636714D01*
X15040500Y-19636714D01*
X15069071Y-19622429D01*
X15083357Y-19593857D01*
X15083357Y-19579572D01*
X15069071Y-19551000D01*
X15040500Y-19536714D01*
X14997643Y-19536714D01*
X14969071Y-19522429D01*
X14954786Y-19493857D01*
X14954786Y-19479572D01*
X14969071Y-19451000D01*
X14997643Y-19436714D01*
X15040500Y-19436714D01*
X15069071Y-19451000D01*
X15183357Y-19751000D02*
X15197643Y-19736714D01*
X15226214Y-19693857D01*
X15240500Y-19665286D01*
X15254786Y-19622429D01*
X15269071Y-19551000D01*
X15269071Y-19493857D01*
X15254786Y-19422429D01*
X15240500Y-19379572D01*
X15226214Y-19351000D01*
X15197643Y-19308143D01*
X15183357Y-19293857D01*
X8025500Y-19847000D02*
X8125500Y-19947000D01*
X8125500Y-19847000D02*
X8025500Y-19947000D01*
X8125500Y-19897000D02*
G75*
G03*
X8125500Y-19897000I-50000J0D01*
G01*
X8569071Y-20032714D02*
X8397643Y-20032714D01*
X8483357Y-20032714D02*
X8483357Y-19732714D01*
X8454786Y-19775572D01*
X8426214Y-19804143D01*
X8397643Y-19818429D01*
X8697643Y-20004143D02*
X8711928Y-20018429D01*
X8697643Y-20032714D01*
X8683357Y-20018429D01*
X8697643Y-20004143D01*
X8697643Y-20032714D01*
X8897643Y-19732714D02*
X8926214Y-19732714D01*
X8954786Y-19747000D01*
X8969071Y-19761286D01*
X8983357Y-19789857D01*
X8997643Y-19847000D01*
X8997643Y-19918429D01*
X8983357Y-19975572D01*
X8969071Y-20004143D01*
X8954786Y-20018429D01*
X8926214Y-20032714D01*
X8897643Y-20032714D01*
X8869071Y-20018429D01*
X8854786Y-20004143D01*
X8840500Y-19975572D01*
X8826214Y-19918429D01*
X8826214Y-19847000D01*
X8840500Y-19789857D01*
X8854786Y-19761286D01*
X8869071Y-19747000D01*
X8897643Y-19732714D01*
X9183357Y-19732714D02*
X9211928Y-19732714D01*
X9240500Y-19747000D01*
X9254786Y-19761286D01*
X9269071Y-19789857D01*
X9283357Y-19847000D01*
X9283357Y-19918429D01*
X9269071Y-19975572D01*
X9254786Y-20004143D01*
X9240500Y-20018429D01*
X9211928Y-20032714D01*
X9183357Y-20032714D01*
X9154786Y-20018429D01*
X9140500Y-20004143D01*
X9126214Y-19975572D01*
X9111928Y-19918429D01*
X9111928Y-19847000D01*
X9126214Y-19789857D01*
X9140500Y-19761286D01*
X9154786Y-19747000D01*
X9183357Y-19732714D01*
X9469071Y-19732714D02*
X9497643Y-19732714D01*
X9526214Y-19747000D01*
X9540500Y-19761286D01*
X9554786Y-19789857D01*
X9569071Y-19847000D01*
X9569071Y-19918429D01*
X9554786Y-19975572D01*
X9540500Y-20004143D01*
X9526214Y-20018429D01*
X9497643Y-20032714D01*
X9469071Y-20032714D01*
X9440500Y-20018429D01*
X9426214Y-20004143D01*
X9411928Y-19975572D01*
X9397643Y-19918429D01*
X9397643Y-19847000D01*
X9411928Y-19789857D01*
X9426214Y-19761286D01*
X9440500Y-19747000D01*
X9469071Y-19732714D01*
X9697643Y-20032714D02*
X9697643Y-19832714D01*
X9697643Y-19861286D02*
X9711928Y-19847000D01*
X9740500Y-19832714D01*
X9783357Y-19832714D01*
X9811928Y-19847000D01*
X9826214Y-19875572D01*
X9826214Y-20032714D01*
X9826214Y-19875572D02*
X9840500Y-19847000D01*
X9869071Y-19832714D01*
X9911928Y-19832714D01*
X9940500Y-19847000D01*
X9954786Y-19875572D01*
X9954786Y-20032714D01*
X10097643Y-20032714D02*
X10097643Y-19832714D01*
X10097643Y-19861286D02*
X10111928Y-19847000D01*
X10140500Y-19832714D01*
X10183357Y-19832714D01*
X10211928Y-19847000D01*
X10226214Y-19875572D01*
X10226214Y-20032714D01*
X10226214Y-19875572D02*
X10240500Y-19847000D01*
X10269071Y-19832714D01*
X10311928Y-19832714D01*
X10340500Y-19847000D01*
X10354786Y-19875572D01*
X10354786Y-20032714D01*
X10940500Y-19718429D02*
X10683357Y-20104143D01*
X11326214Y-19732714D02*
X11354786Y-19732714D01*
X11383357Y-19747000D01*
X11397643Y-19761286D01*
X11411928Y-19789857D01*
X11426214Y-19847000D01*
X11426214Y-19918429D01*
X11411928Y-19975572D01*
X11397643Y-20004143D01*
X11383357Y-20018429D01*
X11354786Y-20032714D01*
X11326214Y-20032714D01*
X11297643Y-20018429D01*
X11283357Y-20004143D01*
X11269071Y-19975572D01*
X11254786Y-19918429D01*
X11254786Y-19847000D01*
X11269071Y-19789857D01*
X11283357Y-19761286D01*
X11297643Y-19747000D01*
X11326214Y-19732714D01*
X11554786Y-20004143D02*
X11569071Y-20018429D01*
X11554786Y-20032714D01*
X11540500Y-20018429D01*
X11554786Y-20004143D01*
X11554786Y-20032714D01*
X11754786Y-19732714D02*
X11783357Y-19732714D01*
X11811928Y-19747000D01*
X11826214Y-19761286D01*
X11840500Y-19789857D01*
X11854786Y-19847000D01*
X11854786Y-19918429D01*
X11840500Y-19975572D01*
X11826214Y-20004143D01*
X11811928Y-20018429D01*
X11783357Y-20032714D01*
X11754786Y-20032714D01*
X11726214Y-20018429D01*
X11711928Y-20004143D01*
X11697643Y-19975572D01*
X11683357Y-19918429D01*
X11683357Y-19847000D01*
X11697643Y-19789857D01*
X11711928Y-19761286D01*
X11726214Y-19747000D01*
X11754786Y-19732714D01*
X11954786Y-19732714D02*
X12140500Y-19732714D01*
X12040500Y-19847000D01*
X12083357Y-19847000D01*
X12111928Y-19861286D01*
X12126214Y-19875572D01*
X12140500Y-19904143D01*
X12140500Y-19975572D01*
X12126214Y-20004143D01*
X12111928Y-20018429D01*
X12083357Y-20032714D01*
X11997643Y-20032714D01*
X11969071Y-20018429D01*
X11954786Y-20004143D01*
X12283357Y-20032714D02*
X12340500Y-20032714D01*
X12369071Y-20018429D01*
X12383357Y-20004143D01*
X12411928Y-19961286D01*
X12426214Y-19904143D01*
X12426214Y-19789857D01*
X12411928Y-19761286D01*
X12397643Y-19747000D01*
X12369071Y-19732714D01*
X12311928Y-19732714D01*
X12283357Y-19747000D01*
X12269071Y-19761286D01*
X12254786Y-19789857D01*
X12254786Y-19861286D01*
X12269071Y-19889857D01*
X12283357Y-19904143D01*
X12311928Y-19918429D01*
X12369071Y-19918429D01*
X12397643Y-19904143D01*
X12411928Y-19889857D01*
X12426214Y-19861286D01*
X12683357Y-19832714D02*
X12683357Y-20032714D01*
X12611928Y-19718429D02*
X12540500Y-19932714D01*
X12726214Y-19932714D01*
X12826214Y-19732714D02*
X12826214Y-19789857D01*
X12940500Y-19732714D02*
X12940500Y-19789857D01*
X13383357Y-20147000D02*
X13369071Y-20132714D01*
X13340500Y-20089857D01*
X13326214Y-20061286D01*
X13311928Y-20018429D01*
X13297643Y-19947000D01*
X13297643Y-19889857D01*
X13311928Y-19818429D01*
X13326214Y-19775572D01*
X13340500Y-19747000D01*
X13369071Y-19704143D01*
X13383357Y-19689857D01*
X13640500Y-19732714D02*
X13497643Y-19732714D01*
X13483357Y-19875572D01*
X13497643Y-19861286D01*
X13526214Y-19847000D01*
X13597643Y-19847000D01*
X13626214Y-19861286D01*
X13640500Y-19875572D01*
X13654786Y-19904143D01*
X13654786Y-19975572D01*
X13640500Y-20004143D01*
X13626214Y-20018429D01*
X13597643Y-20032714D01*
X13526214Y-20032714D01*
X13497643Y-20018429D01*
X13483357Y-20004143D01*
X13826214Y-19861286D02*
X13797643Y-19847000D01*
X13783357Y-19832714D01*
X13769071Y-19804143D01*
X13769071Y-19789857D01*
X13783357Y-19761286D01*
X13797643Y-19747000D01*
X13826214Y-19732714D01*
X13883357Y-19732714D01*
X13911928Y-19747000D01*
X13926214Y-19761286D01*
X13940500Y-19789857D01*
X13940500Y-19804143D01*
X13926214Y-19832714D01*
X13911928Y-19847000D01*
X13883357Y-19861286D01*
X13826214Y-19861286D01*
X13797643Y-19875572D01*
X13783357Y-19889857D01*
X13769071Y-19918429D01*
X13769071Y-19975572D01*
X13783357Y-20004143D01*
X13797643Y-20018429D01*
X13826214Y-20032714D01*
X13883357Y-20032714D01*
X13911928Y-20018429D01*
X13926214Y-20004143D01*
X13940500Y-19975572D01*
X13940500Y-19918429D01*
X13926214Y-19889857D01*
X13911928Y-19875572D01*
X13883357Y-19861286D01*
X14297643Y-20032714D02*
X14297643Y-19732714D01*
X14426214Y-20032714D02*
X14426214Y-19875572D01*
X14411928Y-19847000D01*
X14383357Y-19832714D01*
X14340500Y-19832714D01*
X14311928Y-19847000D01*
X14297643Y-19861286D01*
X14611928Y-20032714D02*
X14583357Y-20018429D01*
X14569071Y-20004143D01*
X14554786Y-19975572D01*
X14554786Y-19889857D01*
X14569071Y-19861286D01*
X14583357Y-19847000D01*
X14611928Y-19832714D01*
X14654786Y-19832714D01*
X14683357Y-19847000D01*
X14697643Y-19861286D01*
X14711928Y-19889857D01*
X14711928Y-19975572D01*
X14697643Y-20004143D01*
X14683357Y-20018429D01*
X14654786Y-20032714D01*
X14611928Y-20032714D01*
X14883357Y-20032714D02*
X14854786Y-20018429D01*
X14840500Y-19989857D01*
X14840500Y-19732714D01*
X15111928Y-20018429D02*
X15083357Y-20032714D01*
X15026214Y-20032714D01*
X14997643Y-20018429D01*
X14983357Y-19989857D01*
X14983357Y-19875572D01*
X14997643Y-19847000D01*
X15026214Y-19832714D01*
X15083357Y-19832714D01*
X15111928Y-19847000D01*
X15126214Y-19875572D01*
X15126214Y-19904143D01*
X14983357Y-19932714D01*
X15240500Y-20018429D02*
X15269071Y-20032714D01*
X15326214Y-20032714D01*
X15354786Y-20018429D01*
X15369071Y-19989857D01*
X15369071Y-19975572D01*
X15354786Y-19947000D01*
X15326214Y-19932714D01*
X15283357Y-19932714D01*
X15254786Y-19918429D01*
X15240500Y-19889857D01*
X15240500Y-19875572D01*
X15254786Y-19847000D01*
X15283357Y-19832714D01*
X15326214Y-19832714D01*
X15354786Y-19847000D01*
X15469071Y-20147000D02*
X15483357Y-20132714D01*
X15511928Y-20089857D01*
X15526214Y-20061286D01*
X15540500Y-20018429D01*
X15554786Y-19947000D01*
X15554786Y-19889857D01*
X15540500Y-19818429D01*
X15526214Y-19775572D01*
X15511928Y-19747000D01*
X15483357Y-19704143D01*
X15469071Y-19689857D01*
X8023900Y-20242200D02*
X8125500Y-20343800D01*
X8125500Y-20242200D02*
X8023900Y-20343800D01*
X8074700Y-20242200D02*
X8074700Y-20343800D01*
X8023900Y-20293000D02*
X8125500Y-20293000D01*
X8569071Y-20428714D02*
X8397643Y-20428714D01*
X8483357Y-20428714D02*
X8483357Y-20128714D01*
X8454786Y-20171572D01*
X8426214Y-20200143D01*
X8397643Y-20214429D01*
X8697643Y-20400143D02*
X8711928Y-20414429D01*
X8697643Y-20428714D01*
X8683357Y-20414429D01*
X8697643Y-20400143D01*
X8697643Y-20428714D01*
X8897643Y-20128714D02*
X8926214Y-20128714D01*
X8954786Y-20143000D01*
X8969071Y-20157286D01*
X8983357Y-20185857D01*
X8997643Y-20243000D01*
X8997643Y-20314429D01*
X8983357Y-20371572D01*
X8969071Y-20400143D01*
X8954786Y-20414429D01*
X8926214Y-20428714D01*
X8897643Y-20428714D01*
X8869071Y-20414429D01*
X8854786Y-20400143D01*
X8840500Y-20371572D01*
X8826214Y-20314429D01*
X8826214Y-20243000D01*
X8840500Y-20185857D01*
X8854786Y-20157286D01*
X8869071Y-20143000D01*
X8897643Y-20128714D01*
X9283357Y-20428714D02*
X9111928Y-20428714D01*
X9197643Y-20428714D02*
X9197643Y-20128714D01*
X9169071Y-20171572D01*
X9140500Y-20200143D01*
X9111928Y-20214429D01*
X9540500Y-20128714D02*
X9483357Y-20128714D01*
X9454786Y-20143000D01*
X9440500Y-20157286D01*
X9411928Y-20200143D01*
X9397643Y-20257286D01*
X9397643Y-20371572D01*
X9411928Y-20400143D01*
X9426214Y-20414429D01*
X9454786Y-20428714D01*
X9511928Y-20428714D01*
X9540500Y-20414429D01*
X9554786Y-20400143D01*
X9569071Y-20371572D01*
X9569071Y-20300143D01*
X9554786Y-20271572D01*
X9540500Y-20257286D01*
X9511928Y-20243000D01*
X9454786Y-20243000D01*
X9426214Y-20257286D01*
X9411928Y-20271572D01*
X9397643Y-20300143D01*
X9697643Y-20428714D02*
X9697643Y-20228714D01*
X9697643Y-20257286D02*
X9711928Y-20243000D01*
X9740500Y-20228714D01*
X9783357Y-20228714D01*
X9811928Y-20243000D01*
X9826214Y-20271572D01*
X9826214Y-20428714D01*
X9826214Y-20271572D02*
X9840500Y-20243000D01*
X9869071Y-20228714D01*
X9911928Y-20228714D01*
X9940500Y-20243000D01*
X9954786Y-20271572D01*
X9954786Y-20428714D01*
X10097643Y-20428714D02*
X10097643Y-20228714D01*
X10097643Y-20257286D02*
X10111928Y-20243000D01*
X10140500Y-20228714D01*
X10183357Y-20228714D01*
X10211928Y-20243000D01*
X10226214Y-20271572D01*
X10226214Y-20428714D01*
X10226214Y-20271572D02*
X10240500Y-20243000D01*
X10269071Y-20228714D01*
X10311928Y-20228714D01*
X10340500Y-20243000D01*
X10354786Y-20271572D01*
X10354786Y-20428714D01*
X10940500Y-20114429D02*
X10683357Y-20500143D01*
X11326214Y-20128714D02*
X11354786Y-20128714D01*
X11383357Y-20143000D01*
X11397643Y-20157286D01*
X11411928Y-20185857D01*
X11426214Y-20243000D01*
X11426214Y-20314429D01*
X11411928Y-20371572D01*
X11397643Y-20400143D01*
X11383357Y-20414429D01*
X11354786Y-20428714D01*
X11326214Y-20428714D01*
X11297643Y-20414429D01*
X11283357Y-20400143D01*
X11269071Y-20371572D01*
X11254786Y-20314429D01*
X11254786Y-20243000D01*
X11269071Y-20185857D01*
X11283357Y-20157286D01*
X11297643Y-20143000D01*
X11326214Y-20128714D01*
X11554786Y-20400143D02*
X11569071Y-20414429D01*
X11554786Y-20428714D01*
X11540500Y-20414429D01*
X11554786Y-20400143D01*
X11554786Y-20428714D01*
X11754786Y-20128714D02*
X11783357Y-20128714D01*
X11811928Y-20143000D01*
X11826214Y-20157286D01*
X11840500Y-20185857D01*
X11854786Y-20243000D01*
X11854786Y-20314429D01*
X11840500Y-20371572D01*
X11826214Y-20400143D01*
X11811928Y-20414429D01*
X11783357Y-20428714D01*
X11754786Y-20428714D01*
X11726214Y-20414429D01*
X11711928Y-20400143D01*
X11697643Y-20371572D01*
X11683357Y-20314429D01*
X11683357Y-20243000D01*
X11697643Y-20185857D01*
X11711928Y-20157286D01*
X11726214Y-20143000D01*
X11754786Y-20128714D01*
X12111928Y-20228714D02*
X12111928Y-20428714D01*
X12040500Y-20114429D02*
X11969071Y-20328714D01*
X12154786Y-20328714D01*
X12326214Y-20128714D02*
X12354786Y-20128714D01*
X12383357Y-20143000D01*
X12397643Y-20157286D01*
X12411928Y-20185857D01*
X12426214Y-20243000D01*
X12426214Y-20314429D01*
X12411928Y-20371572D01*
X12397643Y-20400143D01*
X12383357Y-20414429D01*
X12354786Y-20428714D01*
X12326214Y-20428714D01*
X12297643Y-20414429D01*
X12283357Y-20400143D01*
X12269071Y-20371572D01*
X12254786Y-20314429D01*
X12254786Y-20243000D01*
X12269071Y-20185857D01*
X12283357Y-20157286D01*
X12297643Y-20143000D01*
X12326214Y-20128714D01*
X12611928Y-20128714D02*
X12640500Y-20128714D01*
X12669071Y-20143000D01*
X12683357Y-20157286D01*
X12697643Y-20185857D01*
X12711928Y-20243000D01*
X12711928Y-20314429D01*
X12697643Y-20371572D01*
X12683357Y-20400143D01*
X12669071Y-20414429D01*
X12640500Y-20428714D01*
X12611928Y-20428714D01*
X12583357Y-20414429D01*
X12569071Y-20400143D01*
X12554786Y-20371572D01*
X12540500Y-20314429D01*
X12540500Y-20243000D01*
X12554786Y-20185857D01*
X12569071Y-20157286D01*
X12583357Y-20143000D01*
X12611928Y-20128714D01*
X12826214Y-20128714D02*
X12826214Y-20185857D01*
X12940500Y-20128714D02*
X12940500Y-20185857D01*
X13383357Y-20543000D02*
X13369071Y-20528714D01*
X13340500Y-20485857D01*
X13326214Y-20457286D01*
X13311928Y-20414429D01*
X13297643Y-20343000D01*
X13297643Y-20285857D01*
X13311928Y-20214429D01*
X13326214Y-20171572D01*
X13340500Y-20143000D01*
X13369071Y-20100143D01*
X13383357Y-20085857D01*
X13626214Y-20228714D02*
X13626214Y-20428714D01*
X13554786Y-20114429D02*
X13483357Y-20328714D01*
X13669071Y-20328714D01*
X13840500Y-20128714D02*
X13869071Y-20128714D01*
X13897643Y-20143000D01*
X13911928Y-20157286D01*
X13926214Y-20185857D01*
X13940500Y-20243000D01*
X13940500Y-20314429D01*
X13926214Y-20371572D01*
X13911928Y-20400143D01*
X13897643Y-20414429D01*
X13869071Y-20428714D01*
X13840500Y-20428714D01*
X13811928Y-20414429D01*
X13797643Y-20400143D01*
X13783357Y-20371572D01*
X13769071Y-20314429D01*
X13769071Y-20243000D01*
X13783357Y-20185857D01*
X13797643Y-20157286D01*
X13811928Y-20143000D01*
X13840500Y-20128714D01*
X14297643Y-20428714D02*
X14297643Y-20128714D01*
X14426214Y-20428714D02*
X14426214Y-20271572D01*
X14411928Y-20243000D01*
X14383357Y-20228714D01*
X14340500Y-20228714D01*
X14311928Y-20243000D01*
X14297643Y-20257286D01*
X14611928Y-20428714D02*
X14583357Y-20414429D01*
X14569071Y-20400143D01*
X14554786Y-20371572D01*
X14554786Y-20285857D01*
X14569071Y-20257286D01*
X14583357Y-20243000D01*
X14611928Y-20228714D01*
X14654786Y-20228714D01*
X14683357Y-20243000D01*
X14697643Y-20257286D01*
X14711928Y-20285857D01*
X14711928Y-20371572D01*
X14697643Y-20400143D01*
X14683357Y-20414429D01*
X14654786Y-20428714D01*
X14611928Y-20428714D01*
X14883357Y-20428714D02*
X14854786Y-20414429D01*
X14840500Y-20385857D01*
X14840500Y-20128714D01*
X15111928Y-20414429D02*
X15083357Y-20428714D01*
X15026214Y-20428714D01*
X14997643Y-20414429D01*
X14983357Y-20385857D01*
X14983357Y-20271572D01*
X14997643Y-20243000D01*
X15026214Y-20228714D01*
X15083357Y-20228714D01*
X15111928Y-20243000D01*
X15126214Y-20271572D01*
X15126214Y-20300143D01*
X14983357Y-20328714D01*
X15240500Y-20414429D02*
X15269071Y-20428714D01*
X15326214Y-20428714D01*
X15354786Y-20414429D01*
X15369071Y-20385857D01*
X15369071Y-20371572D01*
X15354786Y-20343000D01*
X15326214Y-20328714D01*
X15283357Y-20328714D01*
X15254786Y-20314429D01*
X15240500Y-20285857D01*
X15240500Y-20271572D01*
X15254786Y-20243000D01*
X15283357Y-20228714D01*
X15326214Y-20228714D01*
X15354786Y-20243000D01*
X15469071Y-20543000D02*
X15483357Y-20528714D01*
X15511928Y-20485857D01*
X15526214Y-20457286D01*
X15540500Y-20414429D01*
X15554786Y-20343000D01*
X15554786Y-20285857D01*
X15540500Y-20214429D01*
X15526214Y-20171572D01*
X15511928Y-20143000D01*
X15483357Y-20100143D01*
X15469071Y-20085857D01*
X7855500Y-20554000D02*
X8125500Y-20824000D01*
X8125500Y-20554000D02*
X7855500Y-20824000D01*
X8085960Y-20784460D02*
X8085960Y-20593540D01*
X7895040Y-20593540D01*
X7895040Y-20784460D01*
X8085960Y-20784460D01*
X8397643Y-20553286D02*
X8411928Y-20539000D01*
X8440500Y-20524714D01*
X8511928Y-20524714D01*
X8540500Y-20539000D01*
X8554786Y-20553286D01*
X8569071Y-20581857D01*
X8569071Y-20610429D01*
X8554786Y-20653286D01*
X8383357Y-20824714D01*
X8569071Y-20824714D01*
X8697643Y-20796143D02*
X8711928Y-20810429D01*
X8697643Y-20824714D01*
X8683357Y-20810429D01*
X8697643Y-20796143D01*
X8697643Y-20824714D01*
X8811928Y-20524714D02*
X9011928Y-20524714D01*
X8883357Y-20824714D01*
X9183357Y-20524714D02*
X9211928Y-20524714D01*
X9240500Y-20539000D01*
X9254786Y-20553286D01*
X9269071Y-20581857D01*
X9283357Y-20639000D01*
X9283357Y-20710429D01*
X9269071Y-20767572D01*
X9254786Y-20796143D01*
X9240500Y-20810429D01*
X9211928Y-20824714D01*
X9183357Y-20824714D01*
X9154786Y-20810429D01*
X9140500Y-20796143D01*
X9126214Y-20767572D01*
X9111928Y-20710429D01*
X9111928Y-20639000D01*
X9126214Y-20581857D01*
X9140500Y-20553286D01*
X9154786Y-20539000D01*
X9183357Y-20524714D01*
X9469071Y-20524714D02*
X9497643Y-20524714D01*
X9526214Y-20539000D01*
X9540500Y-20553286D01*
X9554786Y-20581857D01*
X9569071Y-20639000D01*
X9569071Y-20710429D01*
X9554786Y-20767572D01*
X9540500Y-20796143D01*
X9526214Y-20810429D01*
X9497643Y-20824714D01*
X9469071Y-20824714D01*
X9440500Y-20810429D01*
X9426214Y-20796143D01*
X9411928Y-20767572D01*
X9397643Y-20710429D01*
X9397643Y-20639000D01*
X9411928Y-20581857D01*
X9426214Y-20553286D01*
X9440500Y-20539000D01*
X9469071Y-20524714D01*
X9697643Y-20824714D02*
X9697643Y-20624714D01*
X9697643Y-20653286D02*
X9711928Y-20639000D01*
X9740500Y-20624714D01*
X9783357Y-20624714D01*
X9811928Y-20639000D01*
X9826214Y-20667572D01*
X9826214Y-20824714D01*
X9826214Y-20667572D02*
X9840500Y-20639000D01*
X9869071Y-20624714D01*
X9911928Y-20624714D01*
X9940500Y-20639000D01*
X9954786Y-20667572D01*
X9954786Y-20824714D01*
X10097643Y-20824714D02*
X10097643Y-20624714D01*
X10097643Y-20653286D02*
X10111928Y-20639000D01*
X10140500Y-20624714D01*
X10183357Y-20624714D01*
X10211928Y-20639000D01*
X10226214Y-20667572D01*
X10226214Y-20824714D01*
X10226214Y-20667572D02*
X10240500Y-20639000D01*
X10269071Y-20624714D01*
X10311928Y-20624714D01*
X10340500Y-20639000D01*
X10354786Y-20667572D01*
X10354786Y-20824714D01*
X10940500Y-20510429D02*
X10683357Y-20896143D01*
X11326214Y-20524714D02*
X11354786Y-20524714D01*
X11383357Y-20539000D01*
X11397643Y-20553286D01*
X11411928Y-20581857D01*
X11426214Y-20639000D01*
X11426214Y-20710429D01*
X11411928Y-20767572D01*
X11397643Y-20796143D01*
X11383357Y-20810429D01*
X11354786Y-20824714D01*
X11326214Y-20824714D01*
X11297643Y-20810429D01*
X11283357Y-20796143D01*
X11269071Y-20767572D01*
X11254786Y-20710429D01*
X11254786Y-20639000D01*
X11269071Y-20581857D01*
X11283357Y-20553286D01*
X11297643Y-20539000D01*
X11326214Y-20524714D01*
X11554786Y-20796143D02*
X11569071Y-20810429D01*
X11554786Y-20824714D01*
X11540500Y-20810429D01*
X11554786Y-20796143D01*
X11554786Y-20824714D01*
X11854786Y-20824714D02*
X11683357Y-20824714D01*
X11769071Y-20824714D02*
X11769071Y-20524714D01*
X11740500Y-20567572D01*
X11711928Y-20596143D01*
X11683357Y-20610429D01*
X12040500Y-20524714D02*
X12069071Y-20524714D01*
X12097643Y-20539000D01*
X12111928Y-20553286D01*
X12126214Y-20581857D01*
X12140500Y-20639000D01*
X12140500Y-20710429D01*
X12126214Y-20767572D01*
X12111928Y-20796143D01*
X12097643Y-20810429D01*
X12069071Y-20824714D01*
X12040500Y-20824714D01*
X12011928Y-20810429D01*
X11997643Y-20796143D01*
X11983357Y-20767572D01*
X11969071Y-20710429D01*
X11969071Y-20639000D01*
X11983357Y-20581857D01*
X11997643Y-20553286D01*
X12011928Y-20539000D01*
X12040500Y-20524714D01*
X12397643Y-20524714D02*
X12340500Y-20524714D01*
X12311928Y-20539000D01*
X12297643Y-20553286D01*
X12269071Y-20596143D01*
X12254786Y-20653286D01*
X12254786Y-20767572D01*
X12269071Y-20796143D01*
X12283357Y-20810429D01*
X12311928Y-20824714D01*
X12369071Y-20824714D01*
X12397643Y-20810429D01*
X12411928Y-20796143D01*
X12426214Y-20767572D01*
X12426214Y-20696143D01*
X12411928Y-20667572D01*
X12397643Y-20653286D01*
X12369071Y-20639000D01*
X12311928Y-20639000D01*
X12283357Y-20653286D01*
X12269071Y-20667572D01*
X12254786Y-20696143D01*
X12526214Y-20524714D02*
X12711928Y-20524714D01*
X12611928Y-20639000D01*
X12654786Y-20639000D01*
X12683357Y-20653286D01*
X12697643Y-20667572D01*
X12711928Y-20696143D01*
X12711928Y-20767572D01*
X12697643Y-20796143D01*
X12683357Y-20810429D01*
X12654786Y-20824714D01*
X12569071Y-20824714D01*
X12540500Y-20810429D01*
X12526214Y-20796143D01*
X12826214Y-20524714D02*
X12826214Y-20581857D01*
X12940500Y-20524714D02*
X12940500Y-20581857D01*
X13383357Y-20939000D02*
X13369071Y-20924714D01*
X13340500Y-20881857D01*
X13326214Y-20853286D01*
X13311928Y-20810429D01*
X13297643Y-20739000D01*
X13297643Y-20681857D01*
X13311928Y-20610429D01*
X13326214Y-20567572D01*
X13340500Y-20539000D01*
X13369071Y-20496143D01*
X13383357Y-20481857D01*
X13483357Y-20553286D02*
X13497643Y-20539000D01*
X13526214Y-20524714D01*
X13597643Y-20524714D01*
X13626214Y-20539000D01*
X13640500Y-20553286D01*
X13654786Y-20581857D01*
X13654786Y-20610429D01*
X13640500Y-20653286D01*
X13469071Y-20824714D01*
X13654786Y-20824714D01*
X14011928Y-20824714D02*
X14011928Y-20524714D01*
X14140500Y-20824714D02*
X14140500Y-20667572D01*
X14126214Y-20639000D01*
X14097643Y-20624714D01*
X14054786Y-20624714D01*
X14026214Y-20639000D01*
X14011928Y-20653286D01*
X14326214Y-20824714D02*
X14297643Y-20810429D01*
X14283357Y-20796143D01*
X14269071Y-20767572D01*
X14269071Y-20681857D01*
X14283357Y-20653286D01*
X14297643Y-20639000D01*
X14326214Y-20624714D01*
X14369071Y-20624714D01*
X14397643Y-20639000D01*
X14411928Y-20653286D01*
X14426214Y-20681857D01*
X14426214Y-20767572D01*
X14411928Y-20796143D01*
X14397643Y-20810429D01*
X14369071Y-20824714D01*
X14326214Y-20824714D01*
X14597643Y-20824714D02*
X14569071Y-20810429D01*
X14554786Y-20781857D01*
X14554786Y-20524714D01*
X14826214Y-20810429D02*
X14797643Y-20824714D01*
X14740500Y-20824714D01*
X14711928Y-20810429D01*
X14697643Y-20781857D01*
X14697643Y-20667572D01*
X14711928Y-20639000D01*
X14740500Y-20624714D01*
X14797643Y-20624714D01*
X14826214Y-20639000D01*
X14840500Y-20667572D01*
X14840500Y-20696143D01*
X14697643Y-20724714D01*
X14954786Y-20810429D02*
X14983357Y-20824714D01*
X15040500Y-20824714D01*
X15069071Y-20810429D01*
X15083357Y-20781857D01*
X15083357Y-20767572D01*
X15069071Y-20739000D01*
X15040500Y-20724714D01*
X14997643Y-20724714D01*
X14969071Y-20710429D01*
X14954786Y-20681857D01*
X14954786Y-20667572D01*
X14969071Y-20639000D01*
X14997643Y-20624714D01*
X15040500Y-20624714D01*
X15069071Y-20639000D01*
X15183357Y-20939000D02*
X15197643Y-20924714D01*
X15226214Y-20881857D01*
X15240500Y-20853286D01*
X15254786Y-20810429D01*
X15269071Y-20739000D01*
X15269071Y-20681857D01*
X15254786Y-20610429D01*
X15240500Y-20567572D01*
X15226214Y-20539000D01*
X15197643Y-20496143D01*
X15183357Y-20481857D01*
M02*
