M48
; DRILL file {KiCad 6.0.5-a6ca702e91~116~ubuntu21.10.1} date Thu 26 Jan 2023 05:59:24 AM MST
; FORMAT={-:-/ absolute / inch / decimal}
; #@! TF.CreationDate,2023-01-26T05:59:24-07:00
; #@! TF.GenerationSoftware,Kicad,Pcbnew,6.0.5-a6ca702e91~116~ubuntu21.10.1
; #@! TF.FileFunction,Plated,1,2,PTH
FMAT,2
INCH
; #@! TA.AperFunction,Plated,PTH,ViaDrill
T1C0.0118
; #@! TA.AperFunction,Plated,PTH,ViaDrill
T2C0.0157
; #@! TA.AperFunction,Plated,PTH,ComponentDrill
T3C0.0354
; #@! TA.AperFunction,Plated,PTH,ComponentDrill
T4C0.0394
; #@! TA.AperFunction,Plated,PTH,ComponentDrill
T5C0.1260
%
G90
G05
T1
X4.044Y-3.858
X4.298Y-3.286
X4.316Y-3.056
X4.3174Y-4.7779
X4.3292Y-4.8028
X4.336Y-3.404
X4.3435Y-3.03
X4.353Y-4.8244
X4.3697Y-4.8463
X4.3973Y-4.9239
X4.406Y-4.95
X4.414Y-3.734
X4.418Y-4.85
X4.436Y-4.966
X4.472Y-4.588
X4.508Y-4.136
X4.522Y-4.376
X4.574Y-4.824
X4.614Y-3.718
X4.628Y-4.824
X4.642Y-4.6283
X4.72Y-3.442
X4.722Y-3.156
X4.738Y-3.784
X4.746Y-3.64
X4.748Y-3.296
X4.758Y-4.552
X4.774Y-3.438
X4.786Y-3.498
X4.792Y-3.31
X4.796Y-2.946
X4.796Y-3.026
X4.808Y-3.464
X4.834Y-3.308
X4.836Y-4.626
X4.854Y-4.938
X4.898Y-4.56
X4.902Y-3.79
X4.962Y-3.842
X5.016Y-3.818
X5.04Y-3.544
X5.13Y-3.302
X5.138Y-5.0386
X5.142Y-4.8456
X5.144Y-4.67
X5.1578Y-4.5822
X5.1583Y-4.9737
X5.16Y-4.612
X5.162Y-4.742
X5.1631Y-5.0169
X5.166Y-4.87
X5.176Y-4.79
X5.1788Y-4.9072
X5.179Y-4.715
X5.182Y-3.064
X5.182Y-3.454
X5.183Y-3.227
X5.184Y-4.672
X5.184Y-4.944
X5.186Y-3.144
X5.19Y-2.998
X5.192Y-4.9953
X5.198Y-3.292
X5.208Y-4.814
X5.218Y-4.024
X5.224Y-3.898
X5.224Y-4.766
X5.234Y-3.3
X5.236Y-3.824
X5.284Y-3.626
X5.286Y-3.764
X5.296Y-4.024
X5.33Y-4.102
X5.332Y-3.476
X5.348Y-3.246
X5.36Y-3.174
X5.363Y-4.887
X5.372Y-3.944
X5.374Y-3.34
X5.426Y-3.196
X5.434Y-4.162
X5.452Y-3.826
X5.454Y-3.888
X5.4575Y-3.6022
X5.462Y-3.218
X5.462Y-3.71
X5.47Y-3.634
X5.484Y-4.008
X5.49Y-3.058
X5.49Y-3.412
X5.504Y-4.392
X5.5077Y-3.4477
X5.55Y-3.538
X5.572Y-4.954
X5.609Y-3.949
X5.61Y-3.894
X5.632Y-3.252
X5.634Y-4.53
X5.638Y-3.142
X5.642Y-4.978
X5.674Y-4.598
X5.682Y-4.078
X5.684Y-3.352
X5.706Y-4.598
X5.708Y-2.974
X5.73Y-4.01
X5.734Y-3.616
X5.734Y-3.748
X5.758Y-3.526
X5.764Y-4.206
X5.77Y-2.992
X5.77Y-4.898
X5.78Y-4.01
X5.794Y-4.08
X5.834Y-4.488
X5.845Y-4.851
X5.858Y-3.29
X5.866Y-3.462
X5.874Y-4.002
X5.89Y-3.266
X5.892Y-3.606
X5.892Y-4.292
X5.904Y-4.8
X5.92Y-4.134
X6.044Y-4.388
X6.046Y-4.534
X6.054Y-3.84
X6.066Y-4.97
X6.072Y-4.776
X6.142Y-3.562
X6.144Y-4.978
X6.23Y-4.674
X6.26Y-3.508
X6.286Y-3.22
X6.286Y-3.242
X6.31Y-4.206
X6.328Y-3.172
X6.332Y-3.452
X6.362Y-4.266
X6.388Y-3.108
X6.47Y-3.654
X6.492Y-3.676
X6.508Y-3.74
X6.546Y-3.688
X6.552Y-3.388
T2
X5.1158Y-3.4954
X5.12Y-3.196
X5.122Y-3.36
X5.124Y-3.256
X5.134Y-2.9
X5.136Y-3.06
X5.138Y-3.438
X5.14Y-3.136
X5.148Y-2.962
X5.451Y-3.935
X5.516Y-4.774
X5.516Y-4.826
X5.534Y-4.08
X5.564Y-4.08
X5.57Y-2.902
X5.574Y-3.924
X5.584Y-3.858
X5.594Y-4.08
X5.631Y-3.449
X5.664Y-3.812
X6.214Y-4.99
X6.25Y-4.996
X6.567Y-4.873
T3
X5.972Y-2.986
X5.972Y-3.086
X5.972Y-3.186
X5.972Y-3.286
X5.972Y-3.386
X5.972Y-3.486
X5.972Y-3.586
X5.972Y-3.686
X5.972Y-3.786
X5.972Y-3.886
X5.972Y-3.986
X5.972Y-4.086
X5.972Y-4.186
X5.972Y-4.286
X5.972Y-4.386
X5.972Y-4.486
X5.972Y-4.586
X5.972Y-4.686
X5.972Y-4.786
X5.972Y-4.886
X6.672Y-2.986
X6.672Y-3.086
X6.672Y-3.186
X6.672Y-3.286
X6.672Y-3.386
X6.672Y-3.486
X6.672Y-3.586
X6.672Y-3.686
X6.672Y-3.786
X6.672Y-3.886
X6.672Y-3.986
X6.672Y-4.086
X6.672Y-4.186
X6.672Y-4.286
X6.672Y-4.386
X6.672Y-4.486
X6.672Y-4.586
X6.672Y-4.686
X6.672Y-4.786
X6.672Y-4.886
T4
X4.1188Y-3.364
X4.1188Y-3.4731
X4.1188Y-3.5821
X4.1188Y-3.6912
X4.1188Y-3.8002
X4.1188Y-3.9093
X4.1188Y-4.0183
X4.1188Y-4.1274
X4.1188Y-4.2364
X4.1188Y-4.3455
X4.1188Y-4.4546
X4.1188Y-4.5636
X4.2306Y-3.3095
X4.2306Y-3.4185
X4.2306Y-3.5276
X4.2306Y-3.6366
X4.2306Y-3.7457
X4.2306Y-3.8547
X4.2306Y-3.9638
X4.2306Y-4.0729
X4.2306Y-4.1819
X4.2306Y-4.291
X4.2306Y-4.4
X4.2306Y-4.5091
X4.2306Y-4.6181
X4.862Y-3.672
X4.962Y-3.672
X5.062Y-3.672
X5.584Y-4.176
X5.584Y-4.276
X5.684Y-4.176
X5.684Y-4.276
T5
X4.1747Y-3.0366
X4.1747Y-4.891
T0
M30
