%TF.GenerationSoftware,KiCad,Pcbnew,6.0.5-a6ca702e91~116~ubuntu21.10.1*%
%TF.CreationDate,2023-01-26T05:59:22-07:00*%
%TF.ProjectId,DB25_External,44423235-5f45-4787-9465-726e616c2e6b,rev?*%
%TF.SameCoordinates,Original*%
%TF.FileFunction,Legend,Bot*%
%TF.FilePolarity,Positive*%
%FSLAX46Y46*%
G04 Gerber Fmt 4.6, Leading zero omitted, Abs format (unit mm)*
G04 Created by KiCad (PCBNEW 6.0.5-a6ca702e91~116~ubuntu21.10.1) date 2023-01-26 05:59:22*
%MOMM*%
%LPD*%
G01*
G04 APERTURE LIST*
%ADD10C,0.004000*%
%ADD11C,0.150000*%
G04 APERTURE END LIST*
D10*
G36*
X119735693Y-114306492D02*
G01*
X119749997Y-114307449D01*
X119763704Y-114309227D01*
X119776820Y-114311830D01*
X119789354Y-114315264D01*
X119801312Y-114319535D01*
X119812702Y-114324646D01*
X119823530Y-114330604D01*
X119833805Y-114337414D01*
X119843532Y-114345081D01*
X119852720Y-114353609D01*
X119861376Y-114363005D01*
X119869507Y-114373272D01*
X119877120Y-114384418D01*
X119884223Y-114396446D01*
X119890822Y-114409361D01*
X119893687Y-114415540D01*
X119896209Y-114421356D01*
X119897349Y-114424241D01*
X119898411Y-114427171D01*
X119899399Y-114430193D01*
X119900314Y-114433350D01*
X119901161Y-114436690D01*
X119901941Y-114440257D01*
X119902657Y-114444097D01*
X119903311Y-114448255D01*
X119903908Y-114452777D01*
X119904449Y-114457709D01*
X119904937Y-114463095D01*
X119905374Y-114468981D01*
X119905765Y-114475413D01*
X119906110Y-114482436D01*
X119906677Y-114498438D01*
X119907097Y-114517350D01*
X119907392Y-114539536D01*
X119907584Y-114565360D01*
X119907694Y-114595186D01*
X119907756Y-114668299D01*
X119907414Y-114793778D01*
X119906751Y-114835111D01*
X119905551Y-114865679D01*
X119903656Y-114888111D01*
X119900910Y-114905036D01*
X119897154Y-114919084D01*
X119892233Y-114932884D01*
X119889523Y-114939849D01*
X119886554Y-114946717D01*
X119879875Y-114960140D01*
X119872253Y-114973106D01*
X119863747Y-114985569D01*
X119854413Y-114997482D01*
X119844311Y-115008798D01*
X119833497Y-115019472D01*
X119822031Y-115029456D01*
X119809969Y-115038705D01*
X119797369Y-115047171D01*
X119784290Y-115054808D01*
X119770790Y-115061570D01*
X119756925Y-115067410D01*
X119742755Y-115072282D01*
X119728337Y-115076139D01*
X119721052Y-115077672D01*
X119713728Y-115078934D01*
X116022261Y-115464166D01*
X116010154Y-115463583D01*
X115998200Y-115462115D01*
X115986437Y-115459784D01*
X115974901Y-115456615D01*
X115963629Y-115452632D01*
X115952659Y-115447858D01*
X115942028Y-115442318D01*
X115931774Y-115436034D01*
X115921932Y-115429030D01*
X115912542Y-115421331D01*
X115903639Y-115412960D01*
X115895261Y-115403942D01*
X115887446Y-115394298D01*
X115880229Y-115384055D01*
X115873650Y-115373234D01*
X115867744Y-115361861D01*
X115864764Y-115355681D01*
X115862157Y-115349856D01*
X115860985Y-115346961D01*
X115859898Y-115344015D01*
X115858893Y-115340972D01*
X115857966Y-115337785D01*
X115857114Y-115334408D01*
X115856335Y-115330795D01*
X115855626Y-115326898D01*
X115854982Y-115322671D01*
X115854403Y-115318068D01*
X115853884Y-115313043D01*
X115853423Y-115307548D01*
X115853016Y-115301538D01*
X115852661Y-115294965D01*
X115852355Y-115287783D01*
X115851876Y-115271408D01*
X115851557Y-115252040D01*
X115851373Y-115229306D01*
X115851301Y-115202835D01*
X115851317Y-115172255D01*
X115851517Y-115097279D01*
X115851936Y-114971491D01*
X115852633Y-114929375D01*
X115853810Y-114897959D01*
X115855582Y-114874877D01*
X115858065Y-114857764D01*
X115861375Y-114844257D01*
X115865628Y-114831991D01*
X115869328Y-114823148D01*
X115873531Y-114814367D01*
X115878212Y-114805674D01*
X115883344Y-114797098D01*
X115888902Y-114788667D01*
X115894860Y-114780408D01*
X115901192Y-114772350D01*
X115907873Y-114764521D01*
X115914876Y-114756947D01*
X115922176Y-114749658D01*
X115929746Y-114742681D01*
X115937561Y-114736045D01*
X115945596Y-114729776D01*
X115953824Y-114723902D01*
X115962219Y-114718453D01*
X115970756Y-114713455D01*
X116008150Y-114692994D01*
X117839772Y-114499674D01*
X119147784Y-114363324D01*
X119720784Y-114306351D01*
X119735693Y-114306492D01*
G37*
X119735693Y-114306492D02*
X119749997Y-114307449D01*
X119763704Y-114309227D01*
X119776820Y-114311830D01*
X119789354Y-114315264D01*
X119801312Y-114319535D01*
X119812702Y-114324646D01*
X119823530Y-114330604D01*
X119833805Y-114337414D01*
X119843532Y-114345081D01*
X119852720Y-114353609D01*
X119861376Y-114363005D01*
X119869507Y-114373272D01*
X119877120Y-114384418D01*
X119884223Y-114396446D01*
X119890822Y-114409361D01*
X119893687Y-114415540D01*
X119896209Y-114421356D01*
X119897349Y-114424241D01*
X119898411Y-114427171D01*
X119899399Y-114430193D01*
X119900314Y-114433350D01*
X119901161Y-114436690D01*
X119901941Y-114440257D01*
X119902657Y-114444097D01*
X119903311Y-114448255D01*
X119903908Y-114452777D01*
X119904449Y-114457709D01*
X119904937Y-114463095D01*
X119905374Y-114468981D01*
X119905765Y-114475413D01*
X119906110Y-114482436D01*
X119906677Y-114498438D01*
X119907097Y-114517350D01*
X119907392Y-114539536D01*
X119907584Y-114565360D01*
X119907694Y-114595186D01*
X119907756Y-114668299D01*
X119907414Y-114793778D01*
X119906751Y-114835111D01*
X119905551Y-114865679D01*
X119903656Y-114888111D01*
X119900910Y-114905036D01*
X119897154Y-114919084D01*
X119892233Y-114932884D01*
X119889523Y-114939849D01*
X119886554Y-114946717D01*
X119879875Y-114960140D01*
X119872253Y-114973106D01*
X119863747Y-114985569D01*
X119854413Y-114997482D01*
X119844311Y-115008798D01*
X119833497Y-115019472D01*
X119822031Y-115029456D01*
X119809969Y-115038705D01*
X119797369Y-115047171D01*
X119784290Y-115054808D01*
X119770790Y-115061570D01*
X119756925Y-115067410D01*
X119742755Y-115072282D01*
X119728337Y-115076139D01*
X119721052Y-115077672D01*
X119713728Y-115078934D01*
X116022261Y-115464166D01*
X116010154Y-115463583D01*
X115998200Y-115462115D01*
X115986437Y-115459784D01*
X115974901Y-115456615D01*
X115963629Y-115452632D01*
X115952659Y-115447858D01*
X115942028Y-115442318D01*
X115931774Y-115436034D01*
X115921932Y-115429030D01*
X115912542Y-115421331D01*
X115903639Y-115412960D01*
X115895261Y-115403942D01*
X115887446Y-115394298D01*
X115880229Y-115384055D01*
X115873650Y-115373234D01*
X115867744Y-115361861D01*
X115864764Y-115355681D01*
X115862157Y-115349856D01*
X115860985Y-115346961D01*
X115859898Y-115344015D01*
X115858893Y-115340972D01*
X115857966Y-115337785D01*
X115857114Y-115334408D01*
X115856335Y-115330795D01*
X115855626Y-115326898D01*
X115854982Y-115322671D01*
X115854403Y-115318068D01*
X115853884Y-115313043D01*
X115853423Y-115307548D01*
X115853016Y-115301538D01*
X115852661Y-115294965D01*
X115852355Y-115287783D01*
X115851876Y-115271408D01*
X115851557Y-115252040D01*
X115851373Y-115229306D01*
X115851301Y-115202835D01*
X115851317Y-115172255D01*
X115851517Y-115097279D01*
X115851936Y-114971491D01*
X115852633Y-114929375D01*
X115853810Y-114897959D01*
X115855582Y-114874877D01*
X115858065Y-114857764D01*
X115861375Y-114844257D01*
X115865628Y-114831991D01*
X115869328Y-114823148D01*
X115873531Y-114814367D01*
X115878212Y-114805674D01*
X115883344Y-114797098D01*
X115888902Y-114788667D01*
X115894860Y-114780408D01*
X115901192Y-114772350D01*
X115907873Y-114764521D01*
X115914876Y-114756947D01*
X115922176Y-114749658D01*
X115929746Y-114742681D01*
X115937561Y-114736045D01*
X115945596Y-114729776D01*
X115953824Y-114723902D01*
X115962219Y-114718453D01*
X115970756Y-114713455D01*
X116008150Y-114692994D01*
X117839772Y-114499674D01*
X119147784Y-114363324D01*
X119720784Y-114306351D01*
X119735693Y-114306492D01*
G36*
X119737397Y-105431508D02*
G01*
X119751266Y-105432539D01*
X119764522Y-105434273D01*
X119777184Y-105436723D01*
X119789266Y-105439900D01*
X119800787Y-105443817D01*
X119811762Y-105448487D01*
X119822207Y-105453921D01*
X119832140Y-105460132D01*
X119841577Y-105467134D01*
X119850534Y-105474937D01*
X119859028Y-105483554D01*
X119867076Y-105492999D01*
X119874694Y-105503282D01*
X119881898Y-105514418D01*
X119888705Y-105526417D01*
X119904228Y-105554639D01*
X119904228Y-107671306D01*
X119888705Y-107705173D01*
X119884118Y-107714193D01*
X119878858Y-107723227D01*
X119872983Y-107732221D01*
X119866547Y-107741124D01*
X119859607Y-107749881D01*
X119852218Y-107758441D01*
X119844436Y-107766751D01*
X119836318Y-107774759D01*
X119827919Y-107782410D01*
X119819294Y-107789654D01*
X119810500Y-107796436D01*
X119801592Y-107802705D01*
X119792626Y-107808407D01*
X119783658Y-107813491D01*
X119774744Y-107817902D01*
X119765939Y-107821589D01*
X119758007Y-107823859D01*
X119745411Y-107826485D01*
X119703575Y-107833110D01*
X119635132Y-107842066D01*
X119534782Y-107853957D01*
X119397224Y-107869386D01*
X119217160Y-107888959D01*
X118708311Y-107942945D01*
X118081337Y-108007878D01*
X117736938Y-108040135D01*
X117641848Y-108046201D01*
X117582774Y-108046728D01*
X117548174Y-108042591D01*
X117526506Y-108034666D01*
X117505339Y-108024084D01*
X117498283Y-106584751D01*
X117482761Y-106556528D01*
X117479520Y-106550662D01*
X117476149Y-106544970D01*
X117472648Y-106539454D01*
X117469019Y-106534114D01*
X117465265Y-106528952D01*
X117461386Y-106523967D01*
X117457384Y-106519162D01*
X117453260Y-106514536D01*
X117449017Y-106510092D01*
X117444655Y-106505829D01*
X117440177Y-106501749D01*
X117435583Y-106497853D01*
X117430875Y-106494140D01*
X117426056Y-106490614D01*
X117421126Y-106487274D01*
X117416086Y-106484120D01*
X117410940Y-106481155D01*
X117405687Y-106478379D01*
X117400330Y-106475793D01*
X117394870Y-106473398D01*
X117389309Y-106471194D01*
X117383648Y-106469183D01*
X117377889Y-106467366D01*
X117372033Y-106465743D01*
X117366082Y-106464315D01*
X117360038Y-106463084D01*
X117353902Y-106462050D01*
X117347675Y-106461214D01*
X117341359Y-106460577D01*
X117334956Y-106460139D01*
X117328468Y-106459903D01*
X117321895Y-106459868D01*
X117272952Y-106462649D01*
X117187927Y-106470076D01*
X116959768Y-106493381D01*
X116737694Y-106518803D01*
X116660276Y-106528876D01*
X116621983Y-106535361D01*
X116613223Y-106538451D01*
X116604193Y-106542385D01*
X116594968Y-106547098D01*
X116585625Y-106552526D01*
X116576241Y-106558602D01*
X116566892Y-106565263D01*
X116557655Y-106572442D01*
X116548606Y-106580076D01*
X116539821Y-106588097D01*
X116531377Y-106596443D01*
X116523351Y-106605046D01*
X116515819Y-106613843D01*
X116508858Y-106622768D01*
X116502543Y-106631756D01*
X116496952Y-106640743D01*
X116492161Y-106649661D01*
X116475228Y-106683527D01*
X116471700Y-107353806D01*
X116468172Y-108024084D01*
X116449122Y-108064300D01*
X116444521Y-108073498D01*
X116439465Y-108082554D01*
X116433979Y-108091439D01*
X116428088Y-108100129D01*
X116421816Y-108108595D01*
X116415189Y-108116812D01*
X116408232Y-108124751D01*
X116400968Y-108132386D01*
X116393423Y-108139691D01*
X116385622Y-108146638D01*
X116377590Y-108153201D01*
X116369350Y-108159352D01*
X116360929Y-108165065D01*
X116352351Y-108170313D01*
X116343640Y-108175069D01*
X116334822Y-108179306D01*
X116324091Y-108183439D01*
X116309696Y-108187599D01*
X116292141Y-108191730D01*
X116271929Y-108195777D01*
X116225545Y-108203392D01*
X116174573Y-108209998D01*
X116123039Y-108215149D01*
X116074968Y-108218399D01*
X116053491Y-108219171D01*
X116034389Y-108219300D01*
X116018167Y-108218731D01*
X116005328Y-108217407D01*
X115995864Y-108215690D01*
X115986538Y-108213460D01*
X115977371Y-108210734D01*
X115968385Y-108207528D01*
X115959602Y-108203860D01*
X115951043Y-108199745D01*
X115942730Y-108195200D01*
X115934684Y-108190242D01*
X115926928Y-108184887D01*
X115919483Y-108179152D01*
X115912371Y-108173053D01*
X115905613Y-108166606D01*
X115899232Y-108159829D01*
X115893248Y-108152738D01*
X115887684Y-108145349D01*
X115882561Y-108137679D01*
X115861395Y-108103105D01*
X115859983Y-107047595D01*
X115860512Y-106126140D01*
X115864547Y-105995678D01*
X115868028Y-105970590D01*
X115872683Y-105956101D01*
X115876267Y-105947258D01*
X115880384Y-105938477D01*
X115885005Y-105929784D01*
X115890102Y-105921208D01*
X115895645Y-105912777D01*
X115901606Y-105904519D01*
X115907955Y-105896461D01*
X115914664Y-105888631D01*
X115921704Y-105881058D01*
X115929045Y-105873769D01*
X115936660Y-105866792D01*
X115944518Y-105860156D01*
X115952591Y-105853887D01*
X115960850Y-105848014D01*
X115969267Y-105842565D01*
X115977811Y-105837568D01*
X115984459Y-105834058D01*
X115987978Y-105832415D01*
X115991867Y-105830818D01*
X115996306Y-105829245D01*
X116001475Y-105827674D01*
X116007553Y-105826082D01*
X116014720Y-105824449D01*
X116023157Y-105822751D01*
X116033043Y-105820967D01*
X116044557Y-105819076D01*
X116057881Y-105817054D01*
X116073192Y-105814880D01*
X116090672Y-105812533D01*
X116110501Y-105809989D01*
X116132857Y-105807228D01*
X116185873Y-105800965D01*
X116251159Y-105793566D01*
X116330153Y-105784857D01*
X116424296Y-105774662D01*
X116663777Y-105749111D01*
X116981111Y-105715506D01*
X117825573Y-105628811D01*
X117901896Y-105622578D01*
X117946609Y-105620554D01*
X117970866Y-105621754D01*
X117985822Y-105625195D01*
X117994143Y-105627845D01*
X118002418Y-105631016D01*
X118010616Y-105634683D01*
X118018708Y-105638821D01*
X118026663Y-105643406D01*
X118034452Y-105648412D01*
X118042044Y-105653816D01*
X118049410Y-105659591D01*
X118056520Y-105665714D01*
X118063344Y-105672159D01*
X118069851Y-105678902D01*
X118076012Y-105685917D01*
X118081797Y-105693181D01*
X118087175Y-105700668D01*
X118092118Y-105708353D01*
X118096594Y-105716212D01*
X118112117Y-105745139D01*
X118115645Y-106415417D01*
X118119172Y-107085694D01*
X118136812Y-107117445D01*
X118141428Y-107125031D01*
X118146527Y-107132427D01*
X118152076Y-107139608D01*
X118158044Y-107146549D01*
X118164401Y-107153226D01*
X118171116Y-107159613D01*
X118178158Y-107165686D01*
X118185495Y-107171420D01*
X118193096Y-107176791D01*
X118200932Y-107181772D01*
X118208969Y-107186340D01*
X118217179Y-107190470D01*
X118225528Y-107194137D01*
X118233988Y-107197316D01*
X118242526Y-107199983D01*
X118251111Y-107202111D01*
X118257640Y-107203421D01*
X118265078Y-107204416D01*
X118273852Y-107205063D01*
X118284393Y-107205331D01*
X118297130Y-107205184D01*
X118312490Y-107204592D01*
X118330904Y-107203520D01*
X118352799Y-107201935D01*
X118378606Y-107199805D01*
X118408752Y-107197095D01*
X118483779Y-107189808D01*
X118581312Y-107179809D01*
X118704783Y-107166833D01*
X118930198Y-107142856D01*
X119060825Y-107127411D01*
X119100246Y-107121586D01*
X119127555Y-107116331D01*
X119146612Y-107111126D01*
X119161278Y-107105450D01*
X119169700Y-107101501D01*
X119178022Y-107097076D01*
X119186227Y-107092193D01*
X119194296Y-107086874D01*
X119202212Y-107081137D01*
X119209957Y-107075002D01*
X119217514Y-107068489D01*
X119224866Y-107061617D01*
X119231995Y-107054407D01*
X119238882Y-107046877D01*
X119245511Y-107039047D01*
X119251865Y-107030937D01*
X119257925Y-107022567D01*
X119263673Y-107013956D01*
X119269093Y-107005124D01*
X119274167Y-106996090D01*
X119290394Y-106965750D01*
X119293922Y-106295472D01*
X119297450Y-105625195D01*
X119315795Y-105585684D01*
X119320123Y-105576983D01*
X119324887Y-105568361D01*
X119330060Y-105559848D01*
X119335616Y-105551475D01*
X119341528Y-105543272D01*
X119347768Y-105535268D01*
X119354310Y-105527494D01*
X119361126Y-105519979D01*
X119368191Y-105512753D01*
X119375477Y-105505847D01*
X119382958Y-105499290D01*
X119390605Y-105493113D01*
X119398394Y-105487345D01*
X119406296Y-105482016D01*
X119414285Y-105477157D01*
X119422333Y-105472796D01*
X119430120Y-105469546D01*
X119440834Y-105466174D01*
X119454163Y-105462726D01*
X119469793Y-105459247D01*
X119506707Y-105452369D01*
X119549069Y-105445896D01*
X119594374Y-105440184D01*
X119640118Y-105435588D01*
X119683795Y-105432464D01*
X119704076Y-105431565D01*
X119722900Y-105431167D01*
X119737397Y-105431508D01*
G37*
X119737397Y-105431508D02*
X119751266Y-105432539D01*
X119764522Y-105434273D01*
X119777184Y-105436723D01*
X119789266Y-105439900D01*
X119800787Y-105443817D01*
X119811762Y-105448487D01*
X119822207Y-105453921D01*
X119832140Y-105460132D01*
X119841577Y-105467134D01*
X119850534Y-105474937D01*
X119859028Y-105483554D01*
X119867076Y-105492999D01*
X119874694Y-105503282D01*
X119881898Y-105514418D01*
X119888705Y-105526417D01*
X119904228Y-105554639D01*
X119904228Y-107671306D01*
X119888705Y-107705173D01*
X119884118Y-107714193D01*
X119878858Y-107723227D01*
X119872983Y-107732221D01*
X119866547Y-107741124D01*
X119859607Y-107749881D01*
X119852218Y-107758441D01*
X119844436Y-107766751D01*
X119836318Y-107774759D01*
X119827919Y-107782410D01*
X119819294Y-107789654D01*
X119810500Y-107796436D01*
X119801592Y-107802705D01*
X119792626Y-107808407D01*
X119783658Y-107813491D01*
X119774744Y-107817902D01*
X119765939Y-107821589D01*
X119758007Y-107823859D01*
X119745411Y-107826485D01*
X119703575Y-107833110D01*
X119635132Y-107842066D01*
X119534782Y-107853957D01*
X119397224Y-107869386D01*
X119217160Y-107888959D01*
X118708311Y-107942945D01*
X118081337Y-108007878D01*
X117736938Y-108040135D01*
X117641848Y-108046201D01*
X117582774Y-108046728D01*
X117548174Y-108042591D01*
X117526506Y-108034666D01*
X117505339Y-108024084D01*
X117498283Y-106584751D01*
X117482761Y-106556528D01*
X117479520Y-106550662D01*
X117476149Y-106544970D01*
X117472648Y-106539454D01*
X117469019Y-106534114D01*
X117465265Y-106528952D01*
X117461386Y-106523967D01*
X117457384Y-106519162D01*
X117453260Y-106514536D01*
X117449017Y-106510092D01*
X117444655Y-106505829D01*
X117440177Y-106501749D01*
X117435583Y-106497853D01*
X117430875Y-106494140D01*
X117426056Y-106490614D01*
X117421126Y-106487274D01*
X117416086Y-106484120D01*
X117410940Y-106481155D01*
X117405687Y-106478379D01*
X117400330Y-106475793D01*
X117394870Y-106473398D01*
X117389309Y-106471194D01*
X117383648Y-106469183D01*
X117377889Y-106467366D01*
X117372033Y-106465743D01*
X117366082Y-106464315D01*
X117360038Y-106463084D01*
X117353902Y-106462050D01*
X117347675Y-106461214D01*
X117341359Y-106460577D01*
X117334956Y-106460139D01*
X117328468Y-106459903D01*
X117321895Y-106459868D01*
X117272952Y-106462649D01*
X117187927Y-106470076D01*
X116959768Y-106493381D01*
X116737694Y-106518803D01*
X116660276Y-106528876D01*
X116621983Y-106535361D01*
X116613223Y-106538451D01*
X116604193Y-106542385D01*
X116594968Y-106547098D01*
X116585625Y-106552526D01*
X116576241Y-106558602D01*
X116566892Y-106565263D01*
X116557655Y-106572442D01*
X116548606Y-106580076D01*
X116539821Y-106588097D01*
X116531377Y-106596443D01*
X116523351Y-106605046D01*
X116515819Y-106613843D01*
X116508858Y-106622768D01*
X116502543Y-106631756D01*
X116496952Y-106640743D01*
X116492161Y-106649661D01*
X116475228Y-106683527D01*
X116471700Y-107353806D01*
X116468172Y-108024084D01*
X116449122Y-108064300D01*
X116444521Y-108073498D01*
X116439465Y-108082554D01*
X116433979Y-108091439D01*
X116428088Y-108100129D01*
X116421816Y-108108595D01*
X116415189Y-108116812D01*
X116408232Y-108124751D01*
X116400968Y-108132386D01*
X116393423Y-108139691D01*
X116385622Y-108146638D01*
X116377590Y-108153201D01*
X116369350Y-108159352D01*
X116360929Y-108165065D01*
X116352351Y-108170313D01*
X116343640Y-108175069D01*
X116334822Y-108179306D01*
X116324091Y-108183439D01*
X116309696Y-108187599D01*
X116292141Y-108191730D01*
X116271929Y-108195777D01*
X116225545Y-108203392D01*
X116174573Y-108209998D01*
X116123039Y-108215149D01*
X116074968Y-108218399D01*
X116053491Y-108219171D01*
X116034389Y-108219300D01*
X116018167Y-108218731D01*
X116005328Y-108217407D01*
X115995864Y-108215690D01*
X115986538Y-108213460D01*
X115977371Y-108210734D01*
X115968385Y-108207528D01*
X115959602Y-108203860D01*
X115951043Y-108199745D01*
X115942730Y-108195200D01*
X115934684Y-108190242D01*
X115926928Y-108184887D01*
X115919483Y-108179152D01*
X115912371Y-108173053D01*
X115905613Y-108166606D01*
X115899232Y-108159829D01*
X115893248Y-108152738D01*
X115887684Y-108145349D01*
X115882561Y-108137679D01*
X115861395Y-108103105D01*
X115859983Y-107047595D01*
X115860512Y-106126140D01*
X115864547Y-105995678D01*
X115868028Y-105970590D01*
X115872683Y-105956101D01*
X115876267Y-105947258D01*
X115880384Y-105938477D01*
X115885005Y-105929784D01*
X115890102Y-105921208D01*
X115895645Y-105912777D01*
X115901606Y-105904519D01*
X115907955Y-105896461D01*
X115914664Y-105888631D01*
X115921704Y-105881058D01*
X115929045Y-105873769D01*
X115936660Y-105866792D01*
X115944518Y-105860156D01*
X115952591Y-105853887D01*
X115960850Y-105848014D01*
X115969267Y-105842565D01*
X115977811Y-105837568D01*
X115984459Y-105834058D01*
X115987978Y-105832415D01*
X115991867Y-105830818D01*
X115996306Y-105829245D01*
X116001475Y-105827674D01*
X116007553Y-105826082D01*
X116014720Y-105824449D01*
X116023157Y-105822751D01*
X116033043Y-105820967D01*
X116044557Y-105819076D01*
X116057881Y-105817054D01*
X116073192Y-105814880D01*
X116090672Y-105812533D01*
X116110501Y-105809989D01*
X116132857Y-105807228D01*
X116185873Y-105800965D01*
X116251159Y-105793566D01*
X116330153Y-105784857D01*
X116424296Y-105774662D01*
X116663777Y-105749111D01*
X116981111Y-105715506D01*
X117825573Y-105628811D01*
X117901896Y-105622578D01*
X117946609Y-105620554D01*
X117970866Y-105621754D01*
X117985822Y-105625195D01*
X117994143Y-105627845D01*
X118002418Y-105631016D01*
X118010616Y-105634683D01*
X118018708Y-105638821D01*
X118026663Y-105643406D01*
X118034452Y-105648412D01*
X118042044Y-105653816D01*
X118049410Y-105659591D01*
X118056520Y-105665714D01*
X118063344Y-105672159D01*
X118069851Y-105678902D01*
X118076012Y-105685917D01*
X118081797Y-105693181D01*
X118087175Y-105700668D01*
X118092118Y-105708353D01*
X118096594Y-105716212D01*
X118112117Y-105745139D01*
X118115645Y-106415417D01*
X118119172Y-107085694D01*
X118136812Y-107117445D01*
X118141428Y-107125031D01*
X118146527Y-107132427D01*
X118152076Y-107139608D01*
X118158044Y-107146549D01*
X118164401Y-107153226D01*
X118171116Y-107159613D01*
X118178158Y-107165686D01*
X118185495Y-107171420D01*
X118193096Y-107176791D01*
X118200932Y-107181772D01*
X118208969Y-107186340D01*
X118217179Y-107190470D01*
X118225528Y-107194137D01*
X118233988Y-107197316D01*
X118242526Y-107199983D01*
X118251111Y-107202111D01*
X118257640Y-107203421D01*
X118265078Y-107204416D01*
X118273852Y-107205063D01*
X118284393Y-107205331D01*
X118297130Y-107205184D01*
X118312490Y-107204592D01*
X118330904Y-107203520D01*
X118352799Y-107201935D01*
X118378606Y-107199805D01*
X118408752Y-107197095D01*
X118483779Y-107189808D01*
X118581312Y-107179809D01*
X118704783Y-107166833D01*
X118930198Y-107142856D01*
X119060825Y-107127411D01*
X119100246Y-107121586D01*
X119127555Y-107116331D01*
X119146612Y-107111126D01*
X119161278Y-107105450D01*
X119169700Y-107101501D01*
X119178022Y-107097076D01*
X119186227Y-107092193D01*
X119194296Y-107086874D01*
X119202212Y-107081137D01*
X119209957Y-107075002D01*
X119217514Y-107068489D01*
X119224866Y-107061617D01*
X119231995Y-107054407D01*
X119238882Y-107046877D01*
X119245511Y-107039047D01*
X119251865Y-107030937D01*
X119257925Y-107022567D01*
X119263673Y-107013956D01*
X119269093Y-107005124D01*
X119274167Y-106996090D01*
X119290394Y-106965750D01*
X119293922Y-106295472D01*
X119297450Y-105625195D01*
X119315795Y-105585684D01*
X119320123Y-105576983D01*
X119324887Y-105568361D01*
X119330060Y-105559848D01*
X119335616Y-105551475D01*
X119341528Y-105543272D01*
X119347768Y-105535268D01*
X119354310Y-105527494D01*
X119361126Y-105519979D01*
X119368191Y-105512753D01*
X119375477Y-105505847D01*
X119382958Y-105499290D01*
X119390605Y-105493113D01*
X119398394Y-105487345D01*
X119406296Y-105482016D01*
X119414285Y-105477157D01*
X119422333Y-105472796D01*
X119430120Y-105469546D01*
X119440834Y-105466174D01*
X119454163Y-105462726D01*
X119469793Y-105459247D01*
X119506707Y-105452369D01*
X119549069Y-105445896D01*
X119594374Y-105440184D01*
X119640118Y-105435588D01*
X119683795Y-105432464D01*
X119704076Y-105431565D01*
X119722900Y-105431167D01*
X119737397Y-105431508D01*
G36*
X118009957Y-91469279D02*
G01*
X118035589Y-91470838D01*
X118060960Y-91473773D01*
X118086011Y-91478100D01*
X118107799Y-91482935D01*
X118129016Y-91488466D01*
X118149718Y-91494729D01*
X118169961Y-91501758D01*
X118189804Y-91509590D01*
X118209303Y-91518259D01*
X118228514Y-91527800D01*
X118247495Y-91538249D01*
X118266302Y-91549640D01*
X118284993Y-91562009D01*
X118303624Y-91575391D01*
X118322251Y-91589820D01*
X118340932Y-91605333D01*
X118359724Y-91621965D01*
X118378683Y-91639749D01*
X118397867Y-91658722D01*
X122293944Y-95615478D01*
X122302582Y-95626411D01*
X122311258Y-95638484D01*
X122319909Y-95651564D01*
X122328472Y-95665517D01*
X122336887Y-95680210D01*
X122345092Y-95695510D01*
X122353023Y-95711284D01*
X122360620Y-95727397D01*
X122367819Y-95743717D01*
X122374560Y-95760110D01*
X122380780Y-95776443D01*
X122386417Y-95792584D01*
X122391408Y-95808397D01*
X122395693Y-95823751D01*
X122399210Y-95838511D01*
X122401895Y-95852545D01*
X122406293Y-95880064D01*
X122408021Y-95892626D01*
X122409435Y-95904557D01*
X122410535Y-95915984D01*
X122411320Y-95927033D01*
X122411792Y-95937830D01*
X122411949Y-95948500D01*
X122411792Y-95959171D01*
X122411320Y-95969967D01*
X122410535Y-95981016D01*
X122409435Y-95992443D01*
X122408021Y-96004374D01*
X122406293Y-96016936D01*
X122401895Y-96044456D01*
X122398841Y-96060501D01*
X122394995Y-96076844D01*
X122390390Y-96093416D01*
X122385060Y-96110150D01*
X122379041Y-96126979D01*
X122372365Y-96143836D01*
X122365066Y-96160653D01*
X122357180Y-96177365D01*
X122348740Y-96193902D01*
X122339780Y-96210199D01*
X122330334Y-96226188D01*
X122320436Y-96241802D01*
X122310121Y-96256973D01*
X122299423Y-96271635D01*
X122288375Y-96285720D01*
X122277012Y-96299162D01*
X122182004Y-96398160D01*
X121955631Y-96629714D01*
X121244783Y-97351850D01*
X120257006Y-98353739D01*
X120252773Y-98232384D01*
X120251194Y-98196934D01*
X120249532Y-98167594D01*
X120247638Y-98143198D01*
X120245364Y-98122581D01*
X120242561Y-98104577D01*
X120239080Y-98088020D01*
X120234773Y-98071744D01*
X120229489Y-98054583D01*
X120222028Y-98032919D01*
X120213691Y-98011612D01*
X120204511Y-97990704D01*
X120194520Y-97970236D01*
X120183752Y-97950253D01*
X120172240Y-97930796D01*
X120160017Y-97911907D01*
X120147116Y-97893629D01*
X120133569Y-97876004D01*
X120119411Y-97859074D01*
X120104675Y-97842883D01*
X120089392Y-97827472D01*
X120073597Y-97812883D01*
X120057323Y-97799160D01*
X120040601Y-97786344D01*
X120023467Y-97774478D01*
X119979017Y-97745550D01*
X120012178Y-97720856D01*
X120027564Y-97709025D01*
X120042497Y-97696820D01*
X120056972Y-97684247D01*
X120070981Y-97671312D01*
X120084520Y-97658022D01*
X120097580Y-97644383D01*
X120110157Y-97630400D01*
X120122244Y-97616081D01*
X120133835Y-97601430D01*
X120144924Y-97586456D01*
X120155504Y-97571162D01*
X120165570Y-97555557D01*
X120175115Y-97539646D01*
X120184132Y-97523435D01*
X120192617Y-97506931D01*
X120200562Y-97490139D01*
X120208767Y-97472099D01*
X120215972Y-97455722D01*
X120222248Y-97440472D01*
X120227670Y-97425812D01*
X120232310Y-97411206D01*
X120236243Y-97396117D01*
X120239541Y-97380009D01*
X120242277Y-97362345D01*
X120244526Y-97342590D01*
X120246360Y-97320206D01*
X120247854Y-97294658D01*
X120249079Y-97265408D01*
X120250111Y-97231922D01*
X120251021Y-97193661D01*
X120252773Y-97100672D01*
X120257006Y-96845261D01*
X120694450Y-96400761D01*
X121003924Y-96084849D01*
X121098568Y-95987416D01*
X121134012Y-95949911D01*
X121132346Y-95947553D01*
X121127203Y-95941660D01*
X121107189Y-95920013D01*
X121033205Y-95842490D01*
X120923370Y-95729249D01*
X120788995Y-95592195D01*
X120293871Y-95087634D01*
X120178799Y-94968406D01*
X120119423Y-94904278D01*
X120109519Y-94893449D01*
X120099061Y-94882340D01*
X120088355Y-94871263D01*
X120077707Y-94860534D01*
X120067422Y-94850466D01*
X120057808Y-94841373D01*
X120049169Y-94833571D01*
X120041812Y-94827373D01*
X119949847Y-94736775D01*
X119723076Y-94508991D01*
X119001117Y-93778917D01*
X117987233Y-92753745D01*
X116383594Y-94344067D01*
X114786833Y-95940739D01*
X114794691Y-95948996D01*
X114816224Y-95970681D01*
X114894431Y-96048513D01*
X115150194Y-96301278D01*
X115511439Y-96656878D01*
X115514261Y-97225556D01*
X115515727Y-97551423D01*
X115518053Y-97725354D01*
X115520056Y-97772520D01*
X115522893Y-97802314D01*
X115526772Y-97821608D01*
X115531900Y-97837273D01*
X115538346Y-97855112D01*
X115545241Y-97872633D01*
X115552567Y-97889815D01*
X115560310Y-97906637D01*
X115568453Y-97923079D01*
X115576983Y-97939121D01*
X115585882Y-97954740D01*
X115595135Y-97969917D01*
X115604728Y-97984631D01*
X115614644Y-97998861D01*
X115624868Y-98012587D01*
X115635385Y-98025788D01*
X115646179Y-98038443D01*
X115657234Y-98050532D01*
X115668535Y-98062034D01*
X115680066Y-98072928D01*
X115721694Y-98109617D01*
X115657489Y-98142778D01*
X115631328Y-98156040D01*
X115607483Y-98168443D01*
X115588532Y-98178596D01*
X115577055Y-98185111D01*
X115575686Y-98185990D01*
X115574337Y-98186756D01*
X115572979Y-98187385D01*
X115572287Y-98187641D01*
X115571582Y-98187852D01*
X115570860Y-98188017D01*
X115570117Y-98188132D01*
X115569349Y-98188193D01*
X115568554Y-98188198D01*
X115567726Y-98188144D01*
X115566864Y-98188027D01*
X115565962Y-98187844D01*
X115565017Y-98187592D01*
X115564026Y-98187268D01*
X115562984Y-98186869D01*
X115561889Y-98186391D01*
X115560736Y-98185832D01*
X115559522Y-98185189D01*
X115558243Y-98184457D01*
X115555475Y-98182718D01*
X115552404Y-98180590D01*
X115548999Y-98178047D01*
X115545232Y-98175065D01*
X115541072Y-98171618D01*
X115536491Y-98167681D01*
X115531458Y-98163229D01*
X115525945Y-98158237D01*
X115519922Y-98152680D01*
X115513359Y-98146531D01*
X115506228Y-98139767D01*
X115498498Y-98132362D01*
X115490140Y-98124291D01*
X115471423Y-98106048D01*
X115449840Y-98084839D01*
X115425158Y-98060460D01*
X115397139Y-98032711D01*
X115049565Y-97688841D01*
X114443228Y-97091500D01*
X113874991Y-96528996D01*
X113694225Y-96348154D01*
X113618433Y-96270234D01*
X113611208Y-96260900D01*
X113603855Y-96250695D01*
X113596430Y-96239723D01*
X113588987Y-96228088D01*
X113581582Y-96215895D01*
X113574268Y-96203249D01*
X113567102Y-96190253D01*
X113560137Y-96177012D01*
X113553428Y-96163631D01*
X113547030Y-96150213D01*
X113540998Y-96136864D01*
X113535387Y-96123687D01*
X113530252Y-96110788D01*
X113525646Y-96098269D01*
X113521625Y-96086237D01*
X113518245Y-96074795D01*
X113515476Y-96063303D01*
X113512994Y-96050394D01*
X113510806Y-96036271D01*
X113508918Y-96021139D01*
X113506065Y-95988660D01*
X113504486Y-95954586D01*
X113504230Y-95920544D01*
X113504613Y-95904045D01*
X113505346Y-95888164D01*
X113506434Y-95873107D01*
X113507884Y-95859075D01*
X113509702Y-95846274D01*
X113511895Y-95834906D01*
X113514743Y-95823109D01*
X113517981Y-95811041D01*
X113521585Y-95798762D01*
X113525532Y-95786333D01*
X113534355Y-95761261D01*
X113544262Y-95736304D01*
X113555062Y-95711943D01*
X113560737Y-95700136D01*
X113566564Y-95688657D01*
X113572519Y-95677567D01*
X113578579Y-95666925D01*
X113584719Y-95656792D01*
X113590916Y-95647228D01*
X113616534Y-95618668D01*
X113679971Y-95552761D01*
X113912826Y-95316411D01*
X114274534Y-94953193D01*
X114750145Y-94478122D01*
X116764506Y-92469406D01*
X117397036Y-91841814D01*
X117597348Y-91645692D01*
X117680317Y-91567706D01*
X117703879Y-91552685D01*
X117727961Y-91538852D01*
X117752501Y-91526223D01*
X117777441Y-91514811D01*
X117802719Y-91504631D01*
X117828277Y-91495698D01*
X117854053Y-91488025D01*
X117879989Y-91481628D01*
X117906024Y-91476521D01*
X117932098Y-91472718D01*
X117958152Y-91470233D01*
X117984125Y-91469082D01*
X118009957Y-91469279D01*
G37*
X118009957Y-91469279D02*
X118035589Y-91470838D01*
X118060960Y-91473773D01*
X118086011Y-91478100D01*
X118107799Y-91482935D01*
X118129016Y-91488466D01*
X118149718Y-91494729D01*
X118169961Y-91501758D01*
X118189804Y-91509590D01*
X118209303Y-91518259D01*
X118228514Y-91527800D01*
X118247495Y-91538249D01*
X118266302Y-91549640D01*
X118284993Y-91562009D01*
X118303624Y-91575391D01*
X118322251Y-91589820D01*
X118340932Y-91605333D01*
X118359724Y-91621965D01*
X118378683Y-91639749D01*
X118397867Y-91658722D01*
X122293944Y-95615478D01*
X122302582Y-95626411D01*
X122311258Y-95638484D01*
X122319909Y-95651564D01*
X122328472Y-95665517D01*
X122336887Y-95680210D01*
X122345092Y-95695510D01*
X122353023Y-95711284D01*
X122360620Y-95727397D01*
X122367819Y-95743717D01*
X122374560Y-95760110D01*
X122380780Y-95776443D01*
X122386417Y-95792584D01*
X122391408Y-95808397D01*
X122395693Y-95823751D01*
X122399210Y-95838511D01*
X122401895Y-95852545D01*
X122406293Y-95880064D01*
X122408021Y-95892626D01*
X122409435Y-95904557D01*
X122410535Y-95915984D01*
X122411320Y-95927033D01*
X122411792Y-95937830D01*
X122411949Y-95948500D01*
X122411792Y-95959171D01*
X122411320Y-95969967D01*
X122410535Y-95981016D01*
X122409435Y-95992443D01*
X122408021Y-96004374D01*
X122406293Y-96016936D01*
X122401895Y-96044456D01*
X122398841Y-96060501D01*
X122394995Y-96076844D01*
X122390390Y-96093416D01*
X122385060Y-96110150D01*
X122379041Y-96126979D01*
X122372365Y-96143836D01*
X122365066Y-96160653D01*
X122357180Y-96177365D01*
X122348740Y-96193902D01*
X122339780Y-96210199D01*
X122330334Y-96226188D01*
X122320436Y-96241802D01*
X122310121Y-96256973D01*
X122299423Y-96271635D01*
X122288375Y-96285720D01*
X122277012Y-96299162D01*
X122182004Y-96398160D01*
X121955631Y-96629714D01*
X121244783Y-97351850D01*
X120257006Y-98353739D01*
X120252773Y-98232384D01*
X120251194Y-98196934D01*
X120249532Y-98167594D01*
X120247638Y-98143198D01*
X120245364Y-98122581D01*
X120242561Y-98104577D01*
X120239080Y-98088020D01*
X120234773Y-98071744D01*
X120229489Y-98054583D01*
X120222028Y-98032919D01*
X120213691Y-98011612D01*
X120204511Y-97990704D01*
X120194520Y-97970236D01*
X120183752Y-97950253D01*
X120172240Y-97930796D01*
X120160017Y-97911907D01*
X120147116Y-97893629D01*
X120133569Y-97876004D01*
X120119411Y-97859074D01*
X120104675Y-97842883D01*
X120089392Y-97827472D01*
X120073597Y-97812883D01*
X120057323Y-97799160D01*
X120040601Y-97786344D01*
X120023467Y-97774478D01*
X119979017Y-97745550D01*
X120012178Y-97720856D01*
X120027564Y-97709025D01*
X120042497Y-97696820D01*
X120056972Y-97684247D01*
X120070981Y-97671312D01*
X120084520Y-97658022D01*
X120097580Y-97644383D01*
X120110157Y-97630400D01*
X120122244Y-97616081D01*
X120133835Y-97601430D01*
X120144924Y-97586456D01*
X120155504Y-97571162D01*
X120165570Y-97555557D01*
X120175115Y-97539646D01*
X120184132Y-97523435D01*
X120192617Y-97506931D01*
X120200562Y-97490139D01*
X120208767Y-97472099D01*
X120215972Y-97455722D01*
X120222248Y-97440472D01*
X120227670Y-97425812D01*
X120232310Y-97411206D01*
X120236243Y-97396117D01*
X120239541Y-97380009D01*
X120242277Y-97362345D01*
X120244526Y-97342590D01*
X120246360Y-97320206D01*
X120247854Y-97294658D01*
X120249079Y-97265408D01*
X120250111Y-97231922D01*
X120251021Y-97193661D01*
X120252773Y-97100672D01*
X120257006Y-96845261D01*
X120694450Y-96400761D01*
X121003924Y-96084849D01*
X121098568Y-95987416D01*
X121134012Y-95949911D01*
X121132346Y-95947553D01*
X121127203Y-95941660D01*
X121107189Y-95920013D01*
X121033205Y-95842490D01*
X120923370Y-95729249D01*
X120788995Y-95592195D01*
X120293871Y-95087634D01*
X120178799Y-94968406D01*
X120119423Y-94904278D01*
X120109519Y-94893449D01*
X120099061Y-94882340D01*
X120088355Y-94871263D01*
X120077707Y-94860534D01*
X120067422Y-94850466D01*
X120057808Y-94841373D01*
X120049169Y-94833571D01*
X120041812Y-94827373D01*
X119949847Y-94736775D01*
X119723076Y-94508991D01*
X119001117Y-93778917D01*
X117987233Y-92753745D01*
X116383594Y-94344067D01*
X114786833Y-95940739D01*
X114794691Y-95948996D01*
X114816224Y-95970681D01*
X114894431Y-96048513D01*
X115150194Y-96301278D01*
X115511439Y-96656878D01*
X115514261Y-97225556D01*
X115515727Y-97551423D01*
X115518053Y-97725354D01*
X115520056Y-97772520D01*
X115522893Y-97802314D01*
X115526772Y-97821608D01*
X115531900Y-97837273D01*
X115538346Y-97855112D01*
X115545241Y-97872633D01*
X115552567Y-97889815D01*
X115560310Y-97906637D01*
X115568453Y-97923079D01*
X115576983Y-97939121D01*
X115585882Y-97954740D01*
X115595135Y-97969917D01*
X115604728Y-97984631D01*
X115614644Y-97998861D01*
X115624868Y-98012587D01*
X115635385Y-98025788D01*
X115646179Y-98038443D01*
X115657234Y-98050532D01*
X115668535Y-98062034D01*
X115680066Y-98072928D01*
X115721694Y-98109617D01*
X115657489Y-98142778D01*
X115631328Y-98156040D01*
X115607483Y-98168443D01*
X115588532Y-98178596D01*
X115577055Y-98185111D01*
X115575686Y-98185990D01*
X115574337Y-98186756D01*
X115572979Y-98187385D01*
X115572287Y-98187641D01*
X115571582Y-98187852D01*
X115570860Y-98188017D01*
X115570117Y-98188132D01*
X115569349Y-98188193D01*
X115568554Y-98188198D01*
X115567726Y-98188144D01*
X115566864Y-98188027D01*
X115565962Y-98187844D01*
X115565017Y-98187592D01*
X115564026Y-98187268D01*
X115562984Y-98186869D01*
X115561889Y-98186391D01*
X115560736Y-98185832D01*
X115559522Y-98185189D01*
X115558243Y-98184457D01*
X115555475Y-98182718D01*
X115552404Y-98180590D01*
X115548999Y-98178047D01*
X115545232Y-98175065D01*
X115541072Y-98171618D01*
X115536491Y-98167681D01*
X115531458Y-98163229D01*
X115525945Y-98158237D01*
X115519922Y-98152680D01*
X115513359Y-98146531D01*
X115506228Y-98139767D01*
X115498498Y-98132362D01*
X115490140Y-98124291D01*
X115471423Y-98106048D01*
X115449840Y-98084839D01*
X115425158Y-98060460D01*
X115397139Y-98032711D01*
X115049565Y-97688841D01*
X114443228Y-97091500D01*
X113874991Y-96528996D01*
X113694225Y-96348154D01*
X113618433Y-96270234D01*
X113611208Y-96260900D01*
X113603855Y-96250695D01*
X113596430Y-96239723D01*
X113588987Y-96228088D01*
X113581582Y-96215895D01*
X113574268Y-96203249D01*
X113567102Y-96190253D01*
X113560137Y-96177012D01*
X113553428Y-96163631D01*
X113547030Y-96150213D01*
X113540998Y-96136864D01*
X113535387Y-96123687D01*
X113530252Y-96110788D01*
X113525646Y-96098269D01*
X113521625Y-96086237D01*
X113518245Y-96074795D01*
X113515476Y-96063303D01*
X113512994Y-96050394D01*
X113510806Y-96036271D01*
X113508918Y-96021139D01*
X113506065Y-95988660D01*
X113504486Y-95954586D01*
X113504230Y-95920544D01*
X113504613Y-95904045D01*
X113505346Y-95888164D01*
X113506434Y-95873107D01*
X113507884Y-95859075D01*
X113509702Y-95846274D01*
X113511895Y-95834906D01*
X113514743Y-95823109D01*
X113517981Y-95811041D01*
X113521585Y-95798762D01*
X113525532Y-95786333D01*
X113534355Y-95761261D01*
X113544262Y-95736304D01*
X113555062Y-95711943D01*
X113560737Y-95700136D01*
X113566564Y-95688657D01*
X113572519Y-95677567D01*
X113578579Y-95666925D01*
X113584719Y-95656792D01*
X113590916Y-95647228D01*
X113616534Y-95618668D01*
X113679971Y-95552761D01*
X113912826Y-95316411D01*
X114274534Y-94953193D01*
X114750145Y-94478122D01*
X116764506Y-92469406D01*
X117397036Y-91841814D01*
X117597348Y-91645692D01*
X117680317Y-91567706D01*
X117703879Y-91552685D01*
X117727961Y-91538852D01*
X117752501Y-91526223D01*
X117777441Y-91514811D01*
X117802719Y-91504631D01*
X117828277Y-91495698D01*
X117854053Y-91488025D01*
X117879989Y-91481628D01*
X117906024Y-91476521D01*
X117932098Y-91472718D01*
X117958152Y-91470233D01*
X117984125Y-91469082D01*
X118009957Y-91469279D01*
G36*
X117907773Y-97855474D02*
G01*
X117910162Y-97855713D01*
X117912599Y-97856102D01*
X117915093Y-97856639D01*
X117917656Y-97857325D01*
X117920298Y-97858161D01*
X117923028Y-97859144D01*
X117942784Y-97865495D01*
X117916678Y-97871139D01*
X117911277Y-97872098D01*
X117905753Y-97872859D01*
X117900245Y-97873421D01*
X117894894Y-97873785D01*
X117889841Y-97873950D01*
X117885225Y-97873917D01*
X117881189Y-97873686D01*
X117879432Y-97873496D01*
X117877872Y-97873256D01*
X117876021Y-97872741D01*
X117874441Y-97872248D01*
X117873754Y-97872007D01*
X117873138Y-97871766D01*
X117872592Y-97871525D01*
X117872118Y-97871282D01*
X117871716Y-97871037D01*
X117871387Y-97870787D01*
X117871132Y-97870530D01*
X117870952Y-97870267D01*
X117870847Y-97869995D01*
X117870818Y-97869712D01*
X117870867Y-97869418D01*
X117870993Y-97869111D01*
X117871198Y-97868789D01*
X117871482Y-97868451D01*
X117871846Y-97868097D01*
X117872291Y-97867723D01*
X117872818Y-97867329D01*
X117873427Y-97866914D01*
X117874119Y-97866476D01*
X117874896Y-97866013D01*
X117876703Y-97865009D01*
X117878856Y-97863890D01*
X117881361Y-97862644D01*
X117884222Y-97861262D01*
X117886705Y-97860013D01*
X117889131Y-97858914D01*
X117891512Y-97857963D01*
X117893858Y-97857161D01*
X117896179Y-97856507D01*
X117898485Y-97856003D01*
X117900787Y-97855647D01*
X117903096Y-97855441D01*
X117905421Y-97855383D01*
X117907773Y-97855474D01*
G37*
X117907773Y-97855474D02*
X117910162Y-97855713D01*
X117912599Y-97856102D01*
X117915093Y-97856639D01*
X117917656Y-97857325D01*
X117920298Y-97858161D01*
X117923028Y-97859144D01*
X117942784Y-97865495D01*
X117916678Y-97871139D01*
X117911277Y-97872098D01*
X117905753Y-97872859D01*
X117900245Y-97873421D01*
X117894894Y-97873785D01*
X117889841Y-97873950D01*
X117885225Y-97873917D01*
X117881189Y-97873686D01*
X117879432Y-97873496D01*
X117877872Y-97873256D01*
X117876021Y-97872741D01*
X117874441Y-97872248D01*
X117873754Y-97872007D01*
X117873138Y-97871766D01*
X117872592Y-97871525D01*
X117872118Y-97871282D01*
X117871716Y-97871037D01*
X117871387Y-97870787D01*
X117871132Y-97870530D01*
X117870952Y-97870267D01*
X117870847Y-97869995D01*
X117870818Y-97869712D01*
X117870867Y-97869418D01*
X117870993Y-97869111D01*
X117871198Y-97868789D01*
X117871482Y-97868451D01*
X117871846Y-97868097D01*
X117872291Y-97867723D01*
X117872818Y-97867329D01*
X117873427Y-97866914D01*
X117874119Y-97866476D01*
X117874896Y-97866013D01*
X117876703Y-97865009D01*
X117878856Y-97863890D01*
X117881361Y-97862644D01*
X117884222Y-97861262D01*
X117886705Y-97860013D01*
X117889131Y-97858914D01*
X117891512Y-97857963D01*
X117893858Y-97857161D01*
X117896179Y-97856507D01*
X117898485Y-97856003D01*
X117900787Y-97855647D01*
X117903096Y-97855441D01*
X117905421Y-97855383D01*
X117907773Y-97855474D01*
G36*
X119744845Y-111346346D02*
G01*
X119751662Y-111346888D01*
X119758035Y-111347703D01*
X119770347Y-111350135D01*
X119783578Y-111353601D01*
X119789013Y-111355231D01*
X119794220Y-111356953D01*
X119799219Y-111358777D01*
X119804028Y-111360711D01*
X119808668Y-111362766D01*
X119813157Y-111364949D01*
X119817517Y-111367271D01*
X119821766Y-111369741D01*
X119825924Y-111372367D01*
X119830011Y-111375160D01*
X119834046Y-111378129D01*
X119838049Y-111381283D01*
X119842040Y-111384631D01*
X119846038Y-111388183D01*
X119850063Y-111391948D01*
X119854134Y-111395935D01*
X119873049Y-111413284D01*
X119876959Y-111417413D01*
X119880566Y-111421970D01*
X119883883Y-111427212D01*
X119885435Y-111430170D01*
X119886920Y-111433395D01*
X119888338Y-111436919D01*
X119889691Y-111440774D01*
X119892207Y-111449607D01*
X119894481Y-111460148D01*
X119896525Y-111472655D01*
X119898351Y-111487382D01*
X119899970Y-111504587D01*
X119901396Y-111524525D01*
X119902641Y-111547452D01*
X119903715Y-111573624D01*
X119904633Y-111603298D01*
X119905405Y-111636729D01*
X119906044Y-111674173D01*
X119906972Y-111762127D01*
X119907513Y-111869207D01*
X119907765Y-111997462D01*
X119907825Y-112148940D01*
X119907756Y-112529762D01*
X119907756Y-113565518D01*
X119892233Y-113606439D01*
X119888282Y-113616261D01*
X119883605Y-113626109D01*
X119878257Y-113635929D01*
X119872290Y-113645664D01*
X119865757Y-113655258D01*
X119858710Y-113664656D01*
X119851202Y-113673801D01*
X119843285Y-113682639D01*
X119835013Y-113691113D01*
X119826439Y-113699167D01*
X119817614Y-113706746D01*
X119808592Y-113713793D01*
X119799425Y-113720254D01*
X119790166Y-113726071D01*
X119780868Y-113731190D01*
X119771583Y-113735555D01*
X119764184Y-113738236D01*
X119753497Y-113741065D01*
X119738533Y-113744153D01*
X119718303Y-113747616D01*
X119691818Y-113751566D01*
X119658089Y-113756118D01*
X119564944Y-113767482D01*
X119430953Y-113782616D01*
X119248204Y-113802429D01*
X118704783Y-113859735D01*
X117965361Y-113936551D01*
X117634456Y-113968389D01*
X117624860Y-113968251D01*
X117615175Y-113967847D01*
X117605476Y-113967190D01*
X117595837Y-113966295D01*
X117586335Y-113965177D01*
X117577045Y-113963850D01*
X117568042Y-113962329D01*
X117559402Y-113960628D01*
X117551200Y-113958762D01*
X117543512Y-113956745D01*
X117536413Y-113954591D01*
X117529978Y-113952316D01*
X117524284Y-113949933D01*
X117519405Y-113947457D01*
X117515417Y-113944902D01*
X117512395Y-113942284D01*
X117511557Y-113941168D01*
X117510764Y-113939489D01*
X117510014Y-113937166D01*
X117509307Y-113934117D01*
X117508012Y-113925525D01*
X117506871Y-113913069D01*
X117505876Y-113896107D01*
X117505015Y-113873996D01*
X117504281Y-113846094D01*
X117503663Y-113811756D01*
X117502741Y-113721206D01*
X117502175Y-113597202D01*
X117501890Y-113434602D01*
X117501811Y-113228263D01*
X117501392Y-112789296D01*
X117500100Y-112656092D01*
X117497401Y-112566627D01*
X117492785Y-112510566D01*
X117489597Y-112491832D01*
X117485738Y-112477574D01*
X117481142Y-112466498D01*
X117475747Y-112457314D01*
X117462300Y-112439452D01*
X117457528Y-112433560D01*
X117452240Y-112427811D01*
X117446481Y-112422229D01*
X117440295Y-112416840D01*
X117433730Y-112411671D01*
X117426829Y-112406746D01*
X117419639Y-112402092D01*
X117412206Y-112397735D01*
X117404573Y-112393700D01*
X117396788Y-112390014D01*
X117388895Y-112386701D01*
X117380941Y-112383789D01*
X117372969Y-112381302D01*
X117365027Y-112379268D01*
X117357159Y-112377710D01*
X117349411Y-112376656D01*
X117343995Y-112376439D01*
X117335515Y-112376573D01*
X117309944Y-112377847D01*
X117273856Y-112380377D01*
X117228409Y-112384065D01*
X117114064Y-112394516D01*
X116976173Y-112408407D01*
X116783964Y-112429353D01*
X116722160Y-112436635D01*
X116677810Y-112442627D01*
X116646856Y-112447957D01*
X116625236Y-112453254D01*
X116608891Y-112459147D01*
X116593761Y-112466263D01*
X116585542Y-112470389D01*
X116577553Y-112474831D01*
X116569791Y-112479592D01*
X116562254Y-112484672D01*
X116554940Y-112490076D01*
X116547848Y-112495804D01*
X116540974Y-112501859D01*
X116534318Y-112508242D01*
X116527877Y-112514956D01*
X116521648Y-112522003D01*
X116515631Y-112529385D01*
X116509822Y-112537104D01*
X116504220Y-112545162D01*
X116498822Y-112553561D01*
X116493628Y-112562303D01*
X116488633Y-112571390D01*
X116487477Y-112573622D01*
X116486389Y-112576025D01*
X116485365Y-112578706D01*
X116484404Y-112581776D01*
X116483502Y-112585343D01*
X116482657Y-112589515D01*
X116481866Y-112594400D01*
X116481126Y-112600109D01*
X116480434Y-112606748D01*
X116479789Y-112614427D01*
X116479186Y-112623255D01*
X116478625Y-112633340D01*
X116477611Y-112657716D01*
X116476727Y-112688424D01*
X116475950Y-112726334D01*
X116475260Y-112772315D01*
X116474633Y-112827236D01*
X116474048Y-112891966D01*
X116472920Y-113054330D01*
X116471700Y-113266361D01*
X116468172Y-113936639D01*
X116447711Y-113980384D01*
X116445358Y-113985324D01*
X116442809Y-113990335D01*
X116440085Y-113995389D01*
X116437205Y-114000459D01*
X116434188Y-114005517D01*
X116431055Y-114010534D01*
X116427824Y-114015483D01*
X116424516Y-114020336D01*
X116421150Y-114025065D01*
X116417746Y-114029642D01*
X116414323Y-114034039D01*
X116410901Y-114038228D01*
X116407500Y-114042182D01*
X116404139Y-114045873D01*
X116400838Y-114049272D01*
X116397617Y-114052352D01*
X116388102Y-114060904D01*
X116379009Y-114068611D01*
X116370150Y-114075539D01*
X116361336Y-114081753D01*
X116356886Y-114084612D01*
X116352377Y-114087318D01*
X116347784Y-114089877D01*
X116343084Y-114092299D01*
X116338253Y-114094590D01*
X116333268Y-114096761D01*
X116328104Y-114098818D01*
X116322740Y-114100769D01*
X116317149Y-114102624D01*
X116311310Y-114104389D01*
X116298791Y-114107686D01*
X116284992Y-114110724D01*
X116269724Y-114113568D01*
X116252798Y-114116285D01*
X116234026Y-114118939D01*
X116213217Y-114121594D01*
X116190183Y-114124317D01*
X116138924Y-114129871D01*
X116096951Y-114133820D01*
X116062898Y-114136149D01*
X116048416Y-114136701D01*
X116035402Y-114136841D01*
X116023687Y-114136568D01*
X116013099Y-114135879D01*
X116003468Y-114134773D01*
X115994623Y-114133247D01*
X115986395Y-114131299D01*
X115978612Y-114128928D01*
X115971104Y-114126131D01*
X115963700Y-114122906D01*
X115955943Y-114119249D01*
X115948536Y-114115414D01*
X115941469Y-114111386D01*
X115934728Y-114107152D01*
X115928302Y-114102699D01*
X115922177Y-114098014D01*
X115916342Y-114093083D01*
X115910783Y-114087892D01*
X115905490Y-114082429D01*
X115900448Y-114076679D01*
X115895646Y-114070630D01*
X115891072Y-114064267D01*
X115886712Y-114057578D01*
X115882556Y-114050548D01*
X115878589Y-114043166D01*
X115874800Y-114035416D01*
X115857867Y-114000140D01*
X115857867Y-111904639D01*
X115878328Y-111862306D01*
X115883068Y-111852968D01*
X115888273Y-111843762D01*
X115893910Y-111834719D01*
X115899946Y-111825871D01*
X115906351Y-111817251D01*
X115913092Y-111808890D01*
X115920136Y-111800820D01*
X115927452Y-111793074D01*
X115935008Y-111785683D01*
X115942772Y-111778680D01*
X115950711Y-111772097D01*
X115958794Y-111765965D01*
X115966989Y-111760317D01*
X115975263Y-111755184D01*
X115983585Y-111750600D01*
X115991922Y-111746595D01*
X115998729Y-111744358D01*
X116009797Y-111741828D01*
X116025782Y-111738929D01*
X116047342Y-111735582D01*
X116109807Y-111727235D01*
X116202443Y-111716168D01*
X116330499Y-111701760D01*
X116499228Y-111683393D01*
X116979700Y-111632296D01*
X117718770Y-111556890D01*
X117899458Y-111540519D01*
X117968889Y-111537047D01*
X117978004Y-111538696D01*
X117987069Y-111540982D01*
X117996055Y-111543880D01*
X118004927Y-111547365D01*
X118013655Y-111551412D01*
X118022207Y-111555997D01*
X118030549Y-111561094D01*
X118038651Y-111566679D01*
X118046479Y-111572727D01*
X118054003Y-111579214D01*
X118061190Y-111586113D01*
X118068009Y-111593402D01*
X118074426Y-111601054D01*
X118080410Y-111609045D01*
X118085929Y-111617351D01*
X118090950Y-111625946D01*
X118112117Y-111664749D01*
X118115645Y-112335028D01*
X118117739Y-112675878D01*
X118120231Y-112882716D01*
X118123780Y-112987689D01*
X118126159Y-113012023D01*
X118129050Y-113022945D01*
X118136462Y-113035449D01*
X118144161Y-113047041D01*
X118148126Y-113052500D01*
X118152171Y-113057736D01*
X118156299Y-113062752D01*
X118160513Y-113067549D01*
X118164816Y-113072129D01*
X118169211Y-113076493D01*
X118173700Y-113080644D01*
X118178287Y-113084584D01*
X118182974Y-113088314D01*
X118187764Y-113091835D01*
X118192660Y-113095151D01*
X118197665Y-113098262D01*
X118202781Y-113101171D01*
X118208012Y-113103879D01*
X118213361Y-113106388D01*
X118218829Y-113108699D01*
X118224420Y-113110816D01*
X118230138Y-113112739D01*
X118235983Y-113114470D01*
X118241961Y-113116011D01*
X118248072Y-113117365D01*
X118254321Y-113118531D01*
X118260710Y-113119514D01*
X118267242Y-113120314D01*
X118280746Y-113121372D01*
X118294855Y-113121722D01*
X118312908Y-113120859D01*
X118345215Y-113118393D01*
X118445315Y-113109375D01*
X118580606Y-113096124D01*
X118736533Y-113080096D01*
X118944121Y-113057661D01*
X119067439Y-113042966D01*
X119105476Y-113037383D01*
X119132019Y-113032371D01*
X119150262Y-113027475D01*
X119163395Y-113022240D01*
X119171755Y-113017980D01*
X119180136Y-113013168D01*
X119188495Y-113007845D01*
X119196787Y-113002054D01*
X119204967Y-112995837D01*
X119212991Y-112989236D01*
X119220815Y-112982295D01*
X119228394Y-112975055D01*
X119235683Y-112967558D01*
X119242639Y-112959848D01*
X119249216Y-112951966D01*
X119255370Y-112943955D01*
X119261058Y-112935857D01*
X119266233Y-112927714D01*
X119270853Y-112919570D01*
X119274872Y-112911466D01*
X119277606Y-112905457D01*
X119278844Y-112902417D01*
X119280003Y-112899182D01*
X119281084Y-112895624D01*
X119282092Y-112891613D01*
X119283030Y-112887023D01*
X119283901Y-112881723D01*
X119284709Y-112875587D01*
X119285458Y-112868484D01*
X119286151Y-112860288D01*
X119286791Y-112850869D01*
X119287382Y-112840100D01*
X119287927Y-112827851D01*
X119288430Y-112813995D01*
X119288895Y-112798402D01*
X119289325Y-112780945D01*
X119289722Y-112761495D01*
X119290437Y-112716103D01*
X119291067Y-112661198D01*
X119291640Y-112595753D01*
X119292184Y-112518741D01*
X119292727Y-112429135D01*
X119293922Y-112208028D01*
X119297450Y-111537750D01*
X119317206Y-111498241D01*
X119321730Y-111489516D01*
X119326805Y-111480830D01*
X119332389Y-111472223D01*
X119338439Y-111463734D01*
X119344909Y-111455402D01*
X119351759Y-111447266D01*
X119358943Y-111439366D01*
X119366418Y-111431741D01*
X119374142Y-111424430D01*
X119382070Y-111417473D01*
X119390159Y-111410908D01*
X119398367Y-111404776D01*
X119406648Y-111399114D01*
X119414961Y-111393964D01*
X119423261Y-111389363D01*
X119431506Y-111385351D01*
X119435857Y-111383631D01*
X119440985Y-111381910D01*
X119446905Y-111380187D01*
X119453631Y-111378461D01*
X119461181Y-111376731D01*
X119469568Y-111374995D01*
X119488920Y-111371504D01*
X119511811Y-111367981D01*
X119538364Y-111364416D01*
X119568704Y-111360801D01*
X119602955Y-111357128D01*
X119647440Y-111352492D01*
X119682077Y-111349136D01*
X119708661Y-111347021D01*
X119728985Y-111346105D01*
X119737361Y-111346083D01*
X119744845Y-111346346D01*
G37*
X119744845Y-111346346D02*
X119751662Y-111346888D01*
X119758035Y-111347703D01*
X119770347Y-111350135D01*
X119783578Y-111353601D01*
X119789013Y-111355231D01*
X119794220Y-111356953D01*
X119799219Y-111358777D01*
X119804028Y-111360711D01*
X119808668Y-111362766D01*
X119813157Y-111364949D01*
X119817517Y-111367271D01*
X119821766Y-111369741D01*
X119825924Y-111372367D01*
X119830011Y-111375160D01*
X119834046Y-111378129D01*
X119838049Y-111381283D01*
X119842040Y-111384631D01*
X119846038Y-111388183D01*
X119850063Y-111391948D01*
X119854134Y-111395935D01*
X119873049Y-111413284D01*
X119876959Y-111417413D01*
X119880566Y-111421970D01*
X119883883Y-111427212D01*
X119885435Y-111430170D01*
X119886920Y-111433395D01*
X119888338Y-111436919D01*
X119889691Y-111440774D01*
X119892207Y-111449607D01*
X119894481Y-111460148D01*
X119896525Y-111472655D01*
X119898351Y-111487382D01*
X119899970Y-111504587D01*
X119901396Y-111524525D01*
X119902641Y-111547452D01*
X119903715Y-111573624D01*
X119904633Y-111603298D01*
X119905405Y-111636729D01*
X119906044Y-111674173D01*
X119906972Y-111762127D01*
X119907513Y-111869207D01*
X119907765Y-111997462D01*
X119907825Y-112148940D01*
X119907756Y-112529762D01*
X119907756Y-113565518D01*
X119892233Y-113606439D01*
X119888282Y-113616261D01*
X119883605Y-113626109D01*
X119878257Y-113635929D01*
X119872290Y-113645664D01*
X119865757Y-113655258D01*
X119858710Y-113664656D01*
X119851202Y-113673801D01*
X119843285Y-113682639D01*
X119835013Y-113691113D01*
X119826439Y-113699167D01*
X119817614Y-113706746D01*
X119808592Y-113713793D01*
X119799425Y-113720254D01*
X119790166Y-113726071D01*
X119780868Y-113731190D01*
X119771583Y-113735555D01*
X119764184Y-113738236D01*
X119753497Y-113741065D01*
X119738533Y-113744153D01*
X119718303Y-113747616D01*
X119691818Y-113751566D01*
X119658089Y-113756118D01*
X119564944Y-113767482D01*
X119430953Y-113782616D01*
X119248204Y-113802429D01*
X118704783Y-113859735D01*
X117965361Y-113936551D01*
X117634456Y-113968389D01*
X117624860Y-113968251D01*
X117615175Y-113967847D01*
X117605476Y-113967190D01*
X117595837Y-113966295D01*
X117586335Y-113965177D01*
X117577045Y-113963850D01*
X117568042Y-113962329D01*
X117559402Y-113960628D01*
X117551200Y-113958762D01*
X117543512Y-113956745D01*
X117536413Y-113954591D01*
X117529978Y-113952316D01*
X117524284Y-113949933D01*
X117519405Y-113947457D01*
X117515417Y-113944902D01*
X117512395Y-113942284D01*
X117511557Y-113941168D01*
X117510764Y-113939489D01*
X117510014Y-113937166D01*
X117509307Y-113934117D01*
X117508012Y-113925525D01*
X117506871Y-113913069D01*
X117505876Y-113896107D01*
X117505015Y-113873996D01*
X117504281Y-113846094D01*
X117503663Y-113811756D01*
X117502741Y-113721206D01*
X117502175Y-113597202D01*
X117501890Y-113434602D01*
X117501811Y-113228263D01*
X117501392Y-112789296D01*
X117500100Y-112656092D01*
X117497401Y-112566627D01*
X117492785Y-112510566D01*
X117489597Y-112491832D01*
X117485738Y-112477574D01*
X117481142Y-112466498D01*
X117475747Y-112457314D01*
X117462300Y-112439452D01*
X117457528Y-112433560D01*
X117452240Y-112427811D01*
X117446481Y-112422229D01*
X117440295Y-112416840D01*
X117433730Y-112411671D01*
X117426829Y-112406746D01*
X117419639Y-112402092D01*
X117412206Y-112397735D01*
X117404573Y-112393700D01*
X117396788Y-112390014D01*
X117388895Y-112386701D01*
X117380941Y-112383789D01*
X117372969Y-112381302D01*
X117365027Y-112379268D01*
X117357159Y-112377710D01*
X117349411Y-112376656D01*
X117343995Y-112376439D01*
X117335515Y-112376573D01*
X117309944Y-112377847D01*
X117273856Y-112380377D01*
X117228409Y-112384065D01*
X117114064Y-112394516D01*
X116976173Y-112408407D01*
X116783964Y-112429353D01*
X116722160Y-112436635D01*
X116677810Y-112442627D01*
X116646856Y-112447957D01*
X116625236Y-112453254D01*
X116608891Y-112459147D01*
X116593761Y-112466263D01*
X116585542Y-112470389D01*
X116577553Y-112474831D01*
X116569791Y-112479592D01*
X116562254Y-112484672D01*
X116554940Y-112490076D01*
X116547848Y-112495804D01*
X116540974Y-112501859D01*
X116534318Y-112508242D01*
X116527877Y-112514956D01*
X116521648Y-112522003D01*
X116515631Y-112529385D01*
X116509822Y-112537104D01*
X116504220Y-112545162D01*
X116498822Y-112553561D01*
X116493628Y-112562303D01*
X116488633Y-112571390D01*
X116487477Y-112573622D01*
X116486389Y-112576025D01*
X116485365Y-112578706D01*
X116484404Y-112581776D01*
X116483502Y-112585343D01*
X116482657Y-112589515D01*
X116481866Y-112594400D01*
X116481126Y-112600109D01*
X116480434Y-112606748D01*
X116479789Y-112614427D01*
X116479186Y-112623255D01*
X116478625Y-112633340D01*
X116477611Y-112657716D01*
X116476727Y-112688424D01*
X116475950Y-112726334D01*
X116475260Y-112772315D01*
X116474633Y-112827236D01*
X116474048Y-112891966D01*
X116472920Y-113054330D01*
X116471700Y-113266361D01*
X116468172Y-113936639D01*
X116447711Y-113980384D01*
X116445358Y-113985324D01*
X116442809Y-113990335D01*
X116440085Y-113995389D01*
X116437205Y-114000459D01*
X116434188Y-114005517D01*
X116431055Y-114010534D01*
X116427824Y-114015483D01*
X116424516Y-114020336D01*
X116421150Y-114025065D01*
X116417746Y-114029642D01*
X116414323Y-114034039D01*
X116410901Y-114038228D01*
X116407500Y-114042182D01*
X116404139Y-114045873D01*
X116400838Y-114049272D01*
X116397617Y-114052352D01*
X116388102Y-114060904D01*
X116379009Y-114068611D01*
X116370150Y-114075539D01*
X116361336Y-114081753D01*
X116356886Y-114084612D01*
X116352377Y-114087318D01*
X116347784Y-114089877D01*
X116343084Y-114092299D01*
X116338253Y-114094590D01*
X116333268Y-114096761D01*
X116328104Y-114098818D01*
X116322740Y-114100769D01*
X116317149Y-114102624D01*
X116311310Y-114104389D01*
X116298791Y-114107686D01*
X116284992Y-114110724D01*
X116269724Y-114113568D01*
X116252798Y-114116285D01*
X116234026Y-114118939D01*
X116213217Y-114121594D01*
X116190183Y-114124317D01*
X116138924Y-114129871D01*
X116096951Y-114133820D01*
X116062898Y-114136149D01*
X116048416Y-114136701D01*
X116035402Y-114136841D01*
X116023687Y-114136568D01*
X116013099Y-114135879D01*
X116003468Y-114134773D01*
X115994623Y-114133247D01*
X115986395Y-114131299D01*
X115978612Y-114128928D01*
X115971104Y-114126131D01*
X115963700Y-114122906D01*
X115955943Y-114119249D01*
X115948536Y-114115414D01*
X115941469Y-114111386D01*
X115934728Y-114107152D01*
X115928302Y-114102699D01*
X115922177Y-114098014D01*
X115916342Y-114093083D01*
X115910783Y-114087892D01*
X115905490Y-114082429D01*
X115900448Y-114076679D01*
X115895646Y-114070630D01*
X115891072Y-114064267D01*
X115886712Y-114057578D01*
X115882556Y-114050548D01*
X115878589Y-114043166D01*
X115874800Y-114035416D01*
X115857867Y-114000140D01*
X115857867Y-111904639D01*
X115878328Y-111862306D01*
X115883068Y-111852968D01*
X115888273Y-111843762D01*
X115893910Y-111834719D01*
X115899946Y-111825871D01*
X115906351Y-111817251D01*
X115913092Y-111808890D01*
X115920136Y-111800820D01*
X115927452Y-111793074D01*
X115935008Y-111785683D01*
X115942772Y-111778680D01*
X115950711Y-111772097D01*
X115958794Y-111765965D01*
X115966989Y-111760317D01*
X115975263Y-111755184D01*
X115983585Y-111750600D01*
X115991922Y-111746595D01*
X115998729Y-111744358D01*
X116009797Y-111741828D01*
X116025782Y-111738929D01*
X116047342Y-111735582D01*
X116109807Y-111727235D01*
X116202443Y-111716168D01*
X116330499Y-111701760D01*
X116499228Y-111683393D01*
X116979700Y-111632296D01*
X117718770Y-111556890D01*
X117899458Y-111540519D01*
X117968889Y-111537047D01*
X117978004Y-111538696D01*
X117987069Y-111540982D01*
X117996055Y-111543880D01*
X118004927Y-111547365D01*
X118013655Y-111551412D01*
X118022207Y-111555997D01*
X118030549Y-111561094D01*
X118038651Y-111566679D01*
X118046479Y-111572727D01*
X118054003Y-111579214D01*
X118061190Y-111586113D01*
X118068009Y-111593402D01*
X118074426Y-111601054D01*
X118080410Y-111609045D01*
X118085929Y-111617351D01*
X118090950Y-111625946D01*
X118112117Y-111664749D01*
X118115645Y-112335028D01*
X118117739Y-112675878D01*
X118120231Y-112882716D01*
X118123780Y-112987689D01*
X118126159Y-113012023D01*
X118129050Y-113022945D01*
X118136462Y-113035449D01*
X118144161Y-113047041D01*
X118148126Y-113052500D01*
X118152171Y-113057736D01*
X118156299Y-113062752D01*
X118160513Y-113067549D01*
X118164816Y-113072129D01*
X118169211Y-113076493D01*
X118173700Y-113080644D01*
X118178287Y-113084584D01*
X118182974Y-113088314D01*
X118187764Y-113091835D01*
X118192660Y-113095151D01*
X118197665Y-113098262D01*
X118202781Y-113101171D01*
X118208012Y-113103879D01*
X118213361Y-113106388D01*
X118218829Y-113108699D01*
X118224420Y-113110816D01*
X118230138Y-113112739D01*
X118235983Y-113114470D01*
X118241961Y-113116011D01*
X118248072Y-113117365D01*
X118254321Y-113118531D01*
X118260710Y-113119514D01*
X118267242Y-113120314D01*
X118280746Y-113121372D01*
X118294855Y-113121722D01*
X118312908Y-113120859D01*
X118345215Y-113118393D01*
X118445315Y-113109375D01*
X118580606Y-113096124D01*
X118736533Y-113080096D01*
X118944121Y-113057661D01*
X119067439Y-113042966D01*
X119105476Y-113037383D01*
X119132019Y-113032371D01*
X119150262Y-113027475D01*
X119163395Y-113022240D01*
X119171755Y-113017980D01*
X119180136Y-113013168D01*
X119188495Y-113007845D01*
X119196787Y-113002054D01*
X119204967Y-112995837D01*
X119212991Y-112989236D01*
X119220815Y-112982295D01*
X119228394Y-112975055D01*
X119235683Y-112967558D01*
X119242639Y-112959848D01*
X119249216Y-112951966D01*
X119255370Y-112943955D01*
X119261058Y-112935857D01*
X119266233Y-112927714D01*
X119270853Y-112919570D01*
X119274872Y-112911466D01*
X119277606Y-112905457D01*
X119278844Y-112902417D01*
X119280003Y-112899182D01*
X119281084Y-112895624D01*
X119282092Y-112891613D01*
X119283030Y-112887023D01*
X119283901Y-112881723D01*
X119284709Y-112875587D01*
X119285458Y-112868484D01*
X119286151Y-112860288D01*
X119286791Y-112850869D01*
X119287382Y-112840100D01*
X119287927Y-112827851D01*
X119288430Y-112813995D01*
X119288895Y-112798402D01*
X119289325Y-112780945D01*
X119289722Y-112761495D01*
X119290437Y-112716103D01*
X119291067Y-112661198D01*
X119291640Y-112595753D01*
X119292184Y-112518741D01*
X119292727Y-112429135D01*
X119293922Y-112208028D01*
X119297450Y-111537750D01*
X119317206Y-111498241D01*
X119321730Y-111489516D01*
X119326805Y-111480830D01*
X119332389Y-111472223D01*
X119338439Y-111463734D01*
X119344909Y-111455402D01*
X119351759Y-111447266D01*
X119358943Y-111439366D01*
X119366418Y-111431741D01*
X119374142Y-111424430D01*
X119382070Y-111417473D01*
X119390159Y-111410908D01*
X119398367Y-111404776D01*
X119406648Y-111399114D01*
X119414961Y-111393964D01*
X119423261Y-111389363D01*
X119431506Y-111385351D01*
X119435857Y-111383631D01*
X119440985Y-111381910D01*
X119446905Y-111380187D01*
X119453631Y-111378461D01*
X119461181Y-111376731D01*
X119469568Y-111374995D01*
X119488920Y-111371504D01*
X119511811Y-111367981D01*
X119538364Y-111364416D01*
X119568704Y-111360801D01*
X119602955Y-111357128D01*
X119647440Y-111352492D01*
X119682077Y-111349136D01*
X119708661Y-111347021D01*
X119728985Y-111346105D01*
X119737361Y-111346083D01*
X119744845Y-111346346D01*
G36*
X119759375Y-98033750D02*
G01*
X119767702Y-98035265D01*
X119776059Y-98037237D01*
X119784405Y-98039646D01*
X119792697Y-98042472D01*
X119800893Y-98045697D01*
X119808951Y-98049299D01*
X119816827Y-98053261D01*
X119824481Y-98057561D01*
X119831869Y-98062181D01*
X119838949Y-98067100D01*
X119845678Y-98072300D01*
X119852015Y-98077759D01*
X119857916Y-98083460D01*
X119863340Y-98089382D01*
X119868245Y-98095506D01*
X119874851Y-98104437D01*
X119880678Y-98112979D01*
X119883316Y-98117231D01*
X119885777Y-98121538D01*
X119888067Y-98125951D01*
X119890194Y-98130519D01*
X119892162Y-98135294D01*
X119893978Y-98140327D01*
X119895649Y-98145667D01*
X119897179Y-98151366D01*
X119898576Y-98157475D01*
X119899844Y-98164043D01*
X119900991Y-98171122D01*
X119902023Y-98178762D01*
X119902945Y-98187013D01*
X119903763Y-98195928D01*
X119904484Y-98205555D01*
X119905114Y-98215947D01*
X119906124Y-98239223D01*
X119906841Y-98266162D01*
X119907314Y-98297169D01*
X119907592Y-98332650D01*
X119907756Y-98418650D01*
X119907414Y-98552695D01*
X119906751Y-98596661D01*
X119905551Y-98628994D01*
X119903656Y-98652497D01*
X119900910Y-98669972D01*
X119897154Y-98684222D01*
X119892233Y-98698051D01*
X119888282Y-98707872D01*
X119883607Y-98717721D01*
X119878262Y-98727540D01*
X119872301Y-98737275D01*
X119865778Y-98746869D01*
X119858747Y-98756267D01*
X119851261Y-98765412D01*
X119843374Y-98774250D01*
X119835139Y-98782724D01*
X119826611Y-98790778D01*
X119817843Y-98798357D01*
X119808890Y-98805405D01*
X119799803Y-98811865D01*
X119790639Y-98817683D01*
X119781449Y-98822802D01*
X119772289Y-98827167D01*
X119763628Y-98829872D01*
X119748308Y-98833095D01*
X119724469Y-98837042D01*
X119690246Y-98841918D01*
X119583203Y-98855271D01*
X119412279Y-98874792D01*
X119162576Y-98902119D01*
X118819194Y-98938888D01*
X117791794Y-99047301D01*
X116571646Y-99175403D01*
X115982926Y-99232862D01*
X115850648Y-99241135D01*
X115786584Y-99238991D01*
X115760850Y-99228843D01*
X115743567Y-99213106D01*
X115740586Y-99210581D01*
X115737484Y-99207784D01*
X115734287Y-99204744D01*
X115731021Y-99201487D01*
X115727714Y-99198039D01*
X115724393Y-99194428D01*
X115721084Y-99190681D01*
X115717814Y-99186824D01*
X115714610Y-99182885D01*
X115711500Y-99178889D01*
X115708509Y-99174865D01*
X115705665Y-99170839D01*
X115702995Y-99166837D01*
X115700525Y-99162887D01*
X115698283Y-99159016D01*
X115696294Y-99155250D01*
X115677950Y-99119972D01*
X115676538Y-98869500D01*
X115676506Y-98770954D01*
X115677333Y-98687555D01*
X115678821Y-98628101D01*
X115679751Y-98610102D01*
X115680772Y-98601389D01*
X115686022Y-98586482D01*
X115692207Y-98571959D01*
X115699274Y-98557875D01*
X115707165Y-98544283D01*
X115715825Y-98531236D01*
X115725198Y-98518789D01*
X115735228Y-98506996D01*
X115745860Y-98495909D01*
X115757037Y-98485582D01*
X115768705Y-98476070D01*
X115780807Y-98467427D01*
X115793286Y-98459705D01*
X115806089Y-98452959D01*
X115819158Y-98447242D01*
X115832437Y-98442608D01*
X115845872Y-98439112D01*
X117810933Y-98228768D01*
X119751122Y-98032711D01*
X119759375Y-98033750D01*
G37*
X119759375Y-98033750D02*
X119767702Y-98035265D01*
X119776059Y-98037237D01*
X119784405Y-98039646D01*
X119792697Y-98042472D01*
X119800893Y-98045697D01*
X119808951Y-98049299D01*
X119816827Y-98053261D01*
X119824481Y-98057561D01*
X119831869Y-98062181D01*
X119838949Y-98067100D01*
X119845678Y-98072300D01*
X119852015Y-98077759D01*
X119857916Y-98083460D01*
X119863340Y-98089382D01*
X119868245Y-98095506D01*
X119874851Y-98104437D01*
X119880678Y-98112979D01*
X119883316Y-98117231D01*
X119885777Y-98121538D01*
X119888067Y-98125951D01*
X119890194Y-98130519D01*
X119892162Y-98135294D01*
X119893978Y-98140327D01*
X119895649Y-98145667D01*
X119897179Y-98151366D01*
X119898576Y-98157475D01*
X119899844Y-98164043D01*
X119900991Y-98171122D01*
X119902023Y-98178762D01*
X119902945Y-98187013D01*
X119903763Y-98195928D01*
X119904484Y-98205555D01*
X119905114Y-98215947D01*
X119906124Y-98239223D01*
X119906841Y-98266162D01*
X119907314Y-98297169D01*
X119907592Y-98332650D01*
X119907756Y-98418650D01*
X119907414Y-98552695D01*
X119906751Y-98596661D01*
X119905551Y-98628994D01*
X119903656Y-98652497D01*
X119900910Y-98669972D01*
X119897154Y-98684222D01*
X119892233Y-98698051D01*
X119888282Y-98707872D01*
X119883607Y-98717721D01*
X119878262Y-98727540D01*
X119872301Y-98737275D01*
X119865778Y-98746869D01*
X119858747Y-98756267D01*
X119851261Y-98765412D01*
X119843374Y-98774250D01*
X119835139Y-98782724D01*
X119826611Y-98790778D01*
X119817843Y-98798357D01*
X119808890Y-98805405D01*
X119799803Y-98811865D01*
X119790639Y-98817683D01*
X119781449Y-98822802D01*
X119772289Y-98827167D01*
X119763628Y-98829872D01*
X119748308Y-98833095D01*
X119724469Y-98837042D01*
X119690246Y-98841918D01*
X119583203Y-98855271D01*
X119412279Y-98874792D01*
X119162576Y-98902119D01*
X118819194Y-98938888D01*
X117791794Y-99047301D01*
X116571646Y-99175403D01*
X115982926Y-99232862D01*
X115850648Y-99241135D01*
X115786584Y-99238991D01*
X115760850Y-99228843D01*
X115743567Y-99213106D01*
X115740586Y-99210581D01*
X115737484Y-99207784D01*
X115734287Y-99204744D01*
X115731021Y-99201487D01*
X115727714Y-99198039D01*
X115724393Y-99194428D01*
X115721084Y-99190681D01*
X115717814Y-99186824D01*
X115714610Y-99182885D01*
X115711500Y-99178889D01*
X115708509Y-99174865D01*
X115705665Y-99170839D01*
X115702995Y-99166837D01*
X115700525Y-99162887D01*
X115698283Y-99159016D01*
X115696294Y-99155250D01*
X115677950Y-99119972D01*
X115676538Y-98869500D01*
X115676506Y-98770954D01*
X115677333Y-98687555D01*
X115678821Y-98628101D01*
X115679751Y-98610102D01*
X115680772Y-98601389D01*
X115686022Y-98586482D01*
X115692207Y-98571959D01*
X115699274Y-98557875D01*
X115707165Y-98544283D01*
X115715825Y-98531236D01*
X115725198Y-98518789D01*
X115735228Y-98506996D01*
X115745860Y-98495909D01*
X115757037Y-98485582D01*
X115768705Y-98476070D01*
X115780807Y-98467427D01*
X115793286Y-98459705D01*
X115806089Y-98452959D01*
X115819158Y-98447242D01*
X115832437Y-98442608D01*
X115845872Y-98439112D01*
X117810933Y-98228768D01*
X119751122Y-98032711D01*
X119759375Y-98033750D01*
G36*
X119605690Y-102438641D02*
G01*
X119754970Y-102426614D01*
X119778639Y-102431850D01*
X119786595Y-102434376D01*
X119794562Y-102437435D01*
X119802503Y-102441002D01*
X119810378Y-102445046D01*
X119818150Y-102449542D01*
X119825780Y-102454460D01*
X119833231Y-102459773D01*
X119840463Y-102465453D01*
X119847440Y-102471471D01*
X119854121Y-102477801D01*
X119860470Y-102484414D01*
X119866448Y-102491283D01*
X119872016Y-102498378D01*
X119877137Y-102505673D01*
X119881773Y-102513140D01*
X119885884Y-102520750D01*
X119904228Y-102555323D01*
X119904228Y-104792639D01*
X119885178Y-104827917D01*
X119880617Y-104836315D01*
X119875680Y-104844562D01*
X119870388Y-104852643D01*
X119864761Y-104860538D01*
X119858819Y-104868230D01*
X119852584Y-104875703D01*
X119846077Y-104882938D01*
X119839317Y-104889918D01*
X119832325Y-104896624D01*
X119825123Y-104903041D01*
X119817730Y-104909149D01*
X119810168Y-104914932D01*
X119802458Y-104920371D01*
X119794619Y-104925450D01*
X119786672Y-104930150D01*
X119778639Y-104934455D01*
X119773655Y-104936889D01*
X119768432Y-104939175D01*
X119762880Y-104941331D01*
X119756910Y-104943374D01*
X119750431Y-104945322D01*
X119743354Y-104947193D01*
X119735589Y-104949003D01*
X119727045Y-104950771D01*
X119717634Y-104952515D01*
X119707264Y-104954251D01*
X119695846Y-104955997D01*
X119683290Y-104957772D01*
X119654405Y-104961475D01*
X119619889Y-104965500D01*
X119570032Y-104970894D01*
X119527814Y-104974915D01*
X119492343Y-104977580D01*
X119462727Y-104978906D01*
X119438071Y-104978909D01*
X119417483Y-104977605D01*
X119408435Y-104976468D01*
X119400070Y-104975011D01*
X119392275Y-104973236D01*
X119384939Y-104971145D01*
X119378101Y-104968845D01*
X119371113Y-104965941D01*
X119364024Y-104962475D01*
X119356882Y-104958489D01*
X119349736Y-104954023D01*
X119342635Y-104949118D01*
X119335626Y-104943817D01*
X119328759Y-104938160D01*
X119322082Y-104932189D01*
X119315644Y-104925945D01*
X119309494Y-104919470D01*
X119303679Y-104912804D01*
X119298249Y-104905990D01*
X119293251Y-104899068D01*
X119288736Y-104892080D01*
X119284750Y-104885067D01*
X119269228Y-104856139D01*
X119265700Y-104147055D01*
X119262172Y-103437266D01*
X119243828Y-103402695D01*
X119239358Y-103394496D01*
X119234432Y-103386578D01*
X119229072Y-103378957D01*
X119223300Y-103371651D01*
X119217140Y-103364675D01*
X119210614Y-103358047D01*
X119203745Y-103351782D01*
X119196556Y-103345898D01*
X119189068Y-103340411D01*
X119181306Y-103335337D01*
X119173292Y-103330692D01*
X119165048Y-103326495D01*
X119156597Y-103322760D01*
X119147963Y-103319505D01*
X119139167Y-103316747D01*
X119130233Y-103314500D01*
X119123949Y-103313297D01*
X119117067Y-103312348D01*
X119109289Y-103311676D01*
X119100313Y-103311303D01*
X119089841Y-103311253D01*
X119077573Y-103311549D01*
X119063209Y-103312212D01*
X119046449Y-103313266D01*
X119026993Y-103314733D01*
X119004542Y-103316636D01*
X118949457Y-103321843D01*
X118878794Y-103329066D01*
X118790156Y-103338490D01*
X118678803Y-103350510D01*
X118594132Y-103360306D01*
X118531604Y-103368962D01*
X118507224Y-103373200D01*
X118486678Y-103377559D01*
X118469398Y-103382175D01*
X118454817Y-103387182D01*
X118442366Y-103392717D01*
X118431480Y-103398914D01*
X118421589Y-103405908D01*
X118412128Y-103413837D01*
X118392222Y-103433034D01*
X118389010Y-103436220D01*
X118385737Y-103439669D01*
X118382427Y-103443348D01*
X118379103Y-103447222D01*
X118375787Y-103451257D01*
X118372502Y-103455420D01*
X118369271Y-103459675D01*
X118366117Y-103463990D01*
X118363061Y-103468329D01*
X118360128Y-103472659D01*
X118357339Y-103476946D01*
X118354718Y-103481155D01*
X118352286Y-103485252D01*
X118350068Y-103489204D01*
X118348085Y-103492976D01*
X118346361Y-103496534D01*
X118330839Y-103529694D01*
X118327311Y-104238778D01*
X118323784Y-104947861D01*
X118305439Y-104986667D01*
X118300483Y-104996849D01*
X118295390Y-105006507D01*
X118290141Y-105015662D01*
X118284713Y-105024337D01*
X118279087Y-105032553D01*
X118273243Y-105040332D01*
X118267158Y-105047695D01*
X118260813Y-105054665D01*
X118254186Y-105061263D01*
X118247258Y-105067510D01*
X118240008Y-105073428D01*
X118232414Y-105079040D01*
X118224457Y-105084366D01*
X118216115Y-105089429D01*
X118207368Y-105094250D01*
X118198195Y-105098851D01*
X118191096Y-105102130D01*
X118184239Y-105105112D01*
X118177450Y-105107830D01*
X118170557Y-105110316D01*
X118163386Y-105112603D01*
X118155766Y-105114725D01*
X118147524Y-105116715D01*
X118138487Y-105118606D01*
X118128483Y-105120430D01*
X118117338Y-105122222D01*
X118104881Y-105124013D01*
X118090939Y-105125838D01*
X118057909Y-105129718D01*
X118016867Y-105134128D01*
X117341650Y-105205389D01*
X116952272Y-105245253D01*
X116826209Y-105257379D01*
X116770855Y-105261833D01*
X116757383Y-105261397D01*
X116744233Y-105260101D01*
X116731433Y-105257959D01*
X116719008Y-105254987D01*
X116706984Y-105251201D01*
X116695387Y-105246616D01*
X116684243Y-105241247D01*
X116673577Y-105235110D01*
X116663416Y-105228221D01*
X116653784Y-105220596D01*
X116644709Y-105212248D01*
X116636216Y-105203195D01*
X116628330Y-105193451D01*
X116621078Y-105183033D01*
X116614485Y-105171955D01*
X116608578Y-105160233D01*
X116591645Y-105124250D01*
X116591645Y-103949500D01*
X117233700Y-103949500D01*
X117233965Y-104119032D01*
X117234593Y-104172370D01*
X117235817Y-104209850D01*
X117237834Y-104235291D01*
X117240844Y-104252514D01*
X117245044Y-104265338D01*
X117250633Y-104277584D01*
X117254394Y-104285404D01*
X117258524Y-104292985D01*
X117263014Y-104300317D01*
X117267853Y-104307393D01*
X117273032Y-104314205D01*
X117278538Y-104320744D01*
X117284364Y-104327001D01*
X117290497Y-104332970D01*
X117296928Y-104338640D01*
X117303646Y-104344005D01*
X117310642Y-104349056D01*
X117317904Y-104353784D01*
X117325422Y-104358181D01*
X117333186Y-104362240D01*
X117341186Y-104365951D01*
X117349411Y-104369306D01*
X117354349Y-104371184D01*
X117359151Y-104372853D01*
X117363879Y-104374319D01*
X117368593Y-104375590D01*
X117373358Y-104376670D01*
X117378234Y-104377566D01*
X117383284Y-104378284D01*
X117388570Y-104378831D01*
X117394153Y-104379212D01*
X117400095Y-104379435D01*
X117406460Y-104379504D01*
X117413308Y-104379427D01*
X117420702Y-104379209D01*
X117428704Y-104378856D01*
X117446778Y-104377773D01*
X117466543Y-104376034D01*
X117485371Y-104373450D01*
X117503286Y-104370005D01*
X117520310Y-104365679D01*
X117536466Y-104360457D01*
X117551776Y-104354320D01*
X117566264Y-104347251D01*
X117579951Y-104339232D01*
X117592862Y-104330246D01*
X117605018Y-104320274D01*
X117616442Y-104309300D01*
X117627157Y-104297306D01*
X117637186Y-104284275D01*
X117646552Y-104270188D01*
X117655277Y-104255028D01*
X117663383Y-104238778D01*
X117681728Y-104199973D01*
X117681728Y-103607306D01*
X117665500Y-103575556D01*
X117661130Y-103567474D01*
X117656732Y-103559878D01*
X117652278Y-103552744D01*
X117647740Y-103546044D01*
X117643091Y-103539754D01*
X117638302Y-103533847D01*
X117633345Y-103528298D01*
X117628194Y-103523080D01*
X117622819Y-103518169D01*
X117617193Y-103513537D01*
X117611288Y-103509160D01*
X117605076Y-103505011D01*
X117598529Y-103501065D01*
X117591619Y-103497296D01*
X117584319Y-103493677D01*
X117576600Y-103490184D01*
X117570862Y-103487809D01*
X117565485Y-103485705D01*
X117560368Y-103483862D01*
X117555411Y-103482268D01*
X117550512Y-103480915D01*
X117545569Y-103479791D01*
X117540482Y-103478886D01*
X117535149Y-103478189D01*
X117529468Y-103477691D01*
X117523339Y-103477382D01*
X117516660Y-103477250D01*
X117509330Y-103477285D01*
X117501247Y-103477478D01*
X117492311Y-103477817D01*
X117471472Y-103478895D01*
X117456727Y-103479949D01*
X117442874Y-103481276D01*
X117429846Y-103482901D01*
X117417575Y-103484848D01*
X117405994Y-103487143D01*
X117395037Y-103489809D01*
X117384636Y-103492872D01*
X117374723Y-103496357D01*
X117365232Y-103500289D01*
X117356096Y-103504692D01*
X117347247Y-103509591D01*
X117338618Y-103515011D01*
X117330143Y-103520976D01*
X117321752Y-103527512D01*
X117313381Y-103534643D01*
X117304961Y-103542395D01*
X117301724Y-103545621D01*
X117298380Y-103549191D01*
X117294952Y-103553067D01*
X117291467Y-103557211D01*
X117287949Y-103561587D01*
X117284423Y-103566158D01*
X117280913Y-103570885D01*
X117277445Y-103575732D01*
X117274042Y-103580662D01*
X117270731Y-103585638D01*
X117267535Y-103590621D01*
X117264480Y-103595576D01*
X117261590Y-103600465D01*
X117258891Y-103605250D01*
X117256406Y-103609894D01*
X117254161Y-103614361D01*
X117233700Y-103656695D01*
X117233700Y-103949500D01*
X116591645Y-103949500D01*
X116591645Y-102908806D01*
X116612105Y-102866473D01*
X116616899Y-102856833D01*
X116622015Y-102847499D01*
X116627442Y-102838476D01*
X116633173Y-102829773D01*
X116639197Y-102821396D01*
X116645505Y-102813353D01*
X116652088Y-102805652D01*
X116658937Y-102798298D01*
X116666042Y-102791300D01*
X116673394Y-102784665D01*
X116680983Y-102778400D01*
X116688802Y-102772512D01*
X116696839Y-102767009D01*
X116705086Y-102761897D01*
X116713533Y-102757185D01*
X116722172Y-102752878D01*
X116729564Y-102750071D01*
X116740823Y-102747094D01*
X116757435Y-102743776D01*
X116780888Y-102739947D01*
X116812666Y-102735435D01*
X116854257Y-102730070D01*
X116972821Y-102716101D01*
X117148468Y-102696675D01*
X117393090Y-102670428D01*
X117516660Y-102657399D01*
X118136812Y-102592011D01*
X119605690Y-102438641D01*
G37*
X119605690Y-102438641D02*
X119754970Y-102426614D01*
X119778639Y-102431850D01*
X119786595Y-102434376D01*
X119794562Y-102437435D01*
X119802503Y-102441002D01*
X119810378Y-102445046D01*
X119818150Y-102449542D01*
X119825780Y-102454460D01*
X119833231Y-102459773D01*
X119840463Y-102465453D01*
X119847440Y-102471471D01*
X119854121Y-102477801D01*
X119860470Y-102484414D01*
X119866448Y-102491283D01*
X119872016Y-102498378D01*
X119877137Y-102505673D01*
X119881773Y-102513140D01*
X119885884Y-102520750D01*
X119904228Y-102555323D01*
X119904228Y-104792639D01*
X119885178Y-104827917D01*
X119880617Y-104836315D01*
X119875680Y-104844562D01*
X119870388Y-104852643D01*
X119864761Y-104860538D01*
X119858819Y-104868230D01*
X119852584Y-104875703D01*
X119846077Y-104882938D01*
X119839317Y-104889918D01*
X119832325Y-104896624D01*
X119825123Y-104903041D01*
X119817730Y-104909149D01*
X119810168Y-104914932D01*
X119802458Y-104920371D01*
X119794619Y-104925450D01*
X119786672Y-104930150D01*
X119778639Y-104934455D01*
X119773655Y-104936889D01*
X119768432Y-104939175D01*
X119762880Y-104941331D01*
X119756910Y-104943374D01*
X119750431Y-104945322D01*
X119743354Y-104947193D01*
X119735589Y-104949003D01*
X119727045Y-104950771D01*
X119717634Y-104952515D01*
X119707264Y-104954251D01*
X119695846Y-104955997D01*
X119683290Y-104957772D01*
X119654405Y-104961475D01*
X119619889Y-104965500D01*
X119570032Y-104970894D01*
X119527814Y-104974915D01*
X119492343Y-104977580D01*
X119462727Y-104978906D01*
X119438071Y-104978909D01*
X119417483Y-104977605D01*
X119408435Y-104976468D01*
X119400070Y-104975011D01*
X119392275Y-104973236D01*
X119384939Y-104971145D01*
X119378101Y-104968845D01*
X119371113Y-104965941D01*
X119364024Y-104962475D01*
X119356882Y-104958489D01*
X119349736Y-104954023D01*
X119342635Y-104949118D01*
X119335626Y-104943817D01*
X119328759Y-104938160D01*
X119322082Y-104932189D01*
X119315644Y-104925945D01*
X119309494Y-104919470D01*
X119303679Y-104912804D01*
X119298249Y-104905990D01*
X119293251Y-104899068D01*
X119288736Y-104892080D01*
X119284750Y-104885067D01*
X119269228Y-104856139D01*
X119265700Y-104147055D01*
X119262172Y-103437266D01*
X119243828Y-103402695D01*
X119239358Y-103394496D01*
X119234432Y-103386578D01*
X119229072Y-103378957D01*
X119223300Y-103371651D01*
X119217140Y-103364675D01*
X119210614Y-103358047D01*
X119203745Y-103351782D01*
X119196556Y-103345898D01*
X119189068Y-103340411D01*
X119181306Y-103335337D01*
X119173292Y-103330692D01*
X119165048Y-103326495D01*
X119156597Y-103322760D01*
X119147963Y-103319505D01*
X119139167Y-103316747D01*
X119130233Y-103314500D01*
X119123949Y-103313297D01*
X119117067Y-103312348D01*
X119109289Y-103311676D01*
X119100313Y-103311303D01*
X119089841Y-103311253D01*
X119077573Y-103311549D01*
X119063209Y-103312212D01*
X119046449Y-103313266D01*
X119026993Y-103314733D01*
X119004542Y-103316636D01*
X118949457Y-103321843D01*
X118878794Y-103329066D01*
X118790156Y-103338490D01*
X118678803Y-103350510D01*
X118594132Y-103360306D01*
X118531604Y-103368962D01*
X118507224Y-103373200D01*
X118486678Y-103377559D01*
X118469398Y-103382175D01*
X118454817Y-103387182D01*
X118442366Y-103392717D01*
X118431480Y-103398914D01*
X118421589Y-103405908D01*
X118412128Y-103413837D01*
X118392222Y-103433034D01*
X118389010Y-103436220D01*
X118385737Y-103439669D01*
X118382427Y-103443348D01*
X118379103Y-103447222D01*
X118375787Y-103451257D01*
X118372502Y-103455420D01*
X118369271Y-103459675D01*
X118366117Y-103463990D01*
X118363061Y-103468329D01*
X118360128Y-103472659D01*
X118357339Y-103476946D01*
X118354718Y-103481155D01*
X118352286Y-103485252D01*
X118350068Y-103489204D01*
X118348085Y-103492976D01*
X118346361Y-103496534D01*
X118330839Y-103529694D01*
X118327311Y-104238778D01*
X118323784Y-104947861D01*
X118305439Y-104986667D01*
X118300483Y-104996849D01*
X118295390Y-105006507D01*
X118290141Y-105015662D01*
X118284713Y-105024337D01*
X118279087Y-105032553D01*
X118273243Y-105040332D01*
X118267158Y-105047695D01*
X118260813Y-105054665D01*
X118254186Y-105061263D01*
X118247258Y-105067510D01*
X118240008Y-105073428D01*
X118232414Y-105079040D01*
X118224457Y-105084366D01*
X118216115Y-105089429D01*
X118207368Y-105094250D01*
X118198195Y-105098851D01*
X118191096Y-105102130D01*
X118184239Y-105105112D01*
X118177450Y-105107830D01*
X118170557Y-105110316D01*
X118163386Y-105112603D01*
X118155766Y-105114725D01*
X118147524Y-105116715D01*
X118138487Y-105118606D01*
X118128483Y-105120430D01*
X118117338Y-105122222D01*
X118104881Y-105124013D01*
X118090939Y-105125838D01*
X118057909Y-105129718D01*
X118016867Y-105134128D01*
X117341650Y-105205389D01*
X116952272Y-105245253D01*
X116826209Y-105257379D01*
X116770855Y-105261833D01*
X116757383Y-105261397D01*
X116744233Y-105260101D01*
X116731433Y-105257959D01*
X116719008Y-105254987D01*
X116706984Y-105251201D01*
X116695387Y-105246616D01*
X116684243Y-105241247D01*
X116673577Y-105235110D01*
X116663416Y-105228221D01*
X116653784Y-105220596D01*
X116644709Y-105212248D01*
X116636216Y-105203195D01*
X116628330Y-105193451D01*
X116621078Y-105183033D01*
X116614485Y-105171955D01*
X116608578Y-105160233D01*
X116591645Y-105124250D01*
X116591645Y-103949500D01*
X117233700Y-103949500D01*
X117233965Y-104119032D01*
X117234593Y-104172370D01*
X117235817Y-104209850D01*
X117237834Y-104235291D01*
X117240844Y-104252514D01*
X117245044Y-104265338D01*
X117250633Y-104277584D01*
X117254394Y-104285404D01*
X117258524Y-104292985D01*
X117263014Y-104300317D01*
X117267853Y-104307393D01*
X117273032Y-104314205D01*
X117278538Y-104320744D01*
X117284364Y-104327001D01*
X117290497Y-104332970D01*
X117296928Y-104338640D01*
X117303646Y-104344005D01*
X117310642Y-104349056D01*
X117317904Y-104353784D01*
X117325422Y-104358181D01*
X117333186Y-104362240D01*
X117341186Y-104365951D01*
X117349411Y-104369306D01*
X117354349Y-104371184D01*
X117359151Y-104372853D01*
X117363879Y-104374319D01*
X117368593Y-104375590D01*
X117373358Y-104376670D01*
X117378234Y-104377566D01*
X117383284Y-104378284D01*
X117388570Y-104378831D01*
X117394153Y-104379212D01*
X117400095Y-104379435D01*
X117406460Y-104379504D01*
X117413308Y-104379427D01*
X117420702Y-104379209D01*
X117428704Y-104378856D01*
X117446778Y-104377773D01*
X117466543Y-104376034D01*
X117485371Y-104373450D01*
X117503286Y-104370005D01*
X117520310Y-104365679D01*
X117536466Y-104360457D01*
X117551776Y-104354320D01*
X117566264Y-104347251D01*
X117579951Y-104339232D01*
X117592862Y-104330246D01*
X117605018Y-104320274D01*
X117616442Y-104309300D01*
X117627157Y-104297306D01*
X117637186Y-104284275D01*
X117646552Y-104270188D01*
X117655277Y-104255028D01*
X117663383Y-104238778D01*
X117681728Y-104199973D01*
X117681728Y-103607306D01*
X117665500Y-103575556D01*
X117661130Y-103567474D01*
X117656732Y-103559878D01*
X117652278Y-103552744D01*
X117647740Y-103546044D01*
X117643091Y-103539754D01*
X117638302Y-103533847D01*
X117633345Y-103528298D01*
X117628194Y-103523080D01*
X117622819Y-103518169D01*
X117617193Y-103513537D01*
X117611288Y-103509160D01*
X117605076Y-103505011D01*
X117598529Y-103501065D01*
X117591619Y-103497296D01*
X117584319Y-103493677D01*
X117576600Y-103490184D01*
X117570862Y-103487809D01*
X117565485Y-103485705D01*
X117560368Y-103483862D01*
X117555411Y-103482268D01*
X117550512Y-103480915D01*
X117545569Y-103479791D01*
X117540482Y-103478886D01*
X117535149Y-103478189D01*
X117529468Y-103477691D01*
X117523339Y-103477382D01*
X117516660Y-103477250D01*
X117509330Y-103477285D01*
X117501247Y-103477478D01*
X117492311Y-103477817D01*
X117471472Y-103478895D01*
X117456727Y-103479949D01*
X117442874Y-103481276D01*
X117429846Y-103482901D01*
X117417575Y-103484848D01*
X117405994Y-103487143D01*
X117395037Y-103489809D01*
X117384636Y-103492872D01*
X117374723Y-103496357D01*
X117365232Y-103500289D01*
X117356096Y-103504692D01*
X117347247Y-103509591D01*
X117338618Y-103515011D01*
X117330143Y-103520976D01*
X117321752Y-103527512D01*
X117313381Y-103534643D01*
X117304961Y-103542395D01*
X117301724Y-103545621D01*
X117298380Y-103549191D01*
X117294952Y-103553067D01*
X117291467Y-103557211D01*
X117287949Y-103561587D01*
X117284423Y-103566158D01*
X117280913Y-103570885D01*
X117277445Y-103575732D01*
X117274042Y-103580662D01*
X117270731Y-103585638D01*
X117267535Y-103590621D01*
X117264480Y-103595576D01*
X117261590Y-103600465D01*
X117258891Y-103605250D01*
X117256406Y-103609894D01*
X117254161Y-103614361D01*
X117233700Y-103656695D01*
X117233700Y-103949500D01*
X116591645Y-103949500D01*
X116591645Y-102908806D01*
X116612105Y-102866473D01*
X116616899Y-102856833D01*
X116622015Y-102847499D01*
X116627442Y-102838476D01*
X116633173Y-102829773D01*
X116639197Y-102821396D01*
X116645505Y-102813353D01*
X116652088Y-102805652D01*
X116658937Y-102798298D01*
X116666042Y-102791300D01*
X116673394Y-102784665D01*
X116680983Y-102778400D01*
X116688802Y-102772512D01*
X116696839Y-102767009D01*
X116705086Y-102761897D01*
X116713533Y-102757185D01*
X116722172Y-102752878D01*
X116729564Y-102750071D01*
X116740823Y-102747094D01*
X116757435Y-102743776D01*
X116780888Y-102739947D01*
X116812666Y-102735435D01*
X116854257Y-102730070D01*
X116972821Y-102716101D01*
X117148468Y-102696675D01*
X117393090Y-102670428D01*
X117516660Y-102657399D01*
X118136812Y-102592011D01*
X119605690Y-102438641D01*
G36*
X119868130Y-99419320D02*
G01*
X119875300Y-99423361D01*
X119877926Y-99426883D01*
X119880385Y-99430323D01*
X119882682Y-99433910D01*
X119883771Y-99435831D01*
X119884822Y-99437875D01*
X119885836Y-99440070D01*
X119886814Y-99442445D01*
X119887755Y-99445029D01*
X119888661Y-99447850D01*
X119889532Y-99450937D01*
X119890370Y-99454318D01*
X119891174Y-99458023D01*
X119891947Y-99462079D01*
X119892688Y-99466515D01*
X119893398Y-99471361D01*
X119894078Y-99476644D01*
X119894729Y-99482393D01*
X119895945Y-99495405D01*
X119897054Y-99510624D01*
X119898060Y-99528281D01*
X119898970Y-99548604D01*
X119899789Y-99571821D01*
X119900524Y-99598163D01*
X119901180Y-99627857D01*
X119901764Y-99661133D01*
X119902280Y-99698219D01*
X119902737Y-99739346D01*
X119903138Y-99784740D01*
X119903491Y-99834632D01*
X119904073Y-99948824D01*
X119904532Y-100083753D01*
X119904914Y-100241249D01*
X119905638Y-100631273D01*
X119905727Y-101630251D01*
X119901769Y-101766633D01*
X119898298Y-101792114D01*
X119893644Y-101807434D01*
X119889725Y-101816983D01*
X119885141Y-101826550D01*
X119879938Y-101836083D01*
X119874165Y-101845534D01*
X119867866Y-101854852D01*
X119861088Y-101863988D01*
X119853879Y-101872893D01*
X119846284Y-101881517D01*
X119838350Y-101889810D01*
X119830124Y-101897723D01*
X119821652Y-101905205D01*
X119812980Y-101912209D01*
X119804155Y-101918683D01*
X119795224Y-101924578D01*
X119786232Y-101929844D01*
X119777228Y-101934433D01*
X119769672Y-101937669D01*
X119764937Y-101939274D01*
X119759250Y-101940907D01*
X119752378Y-101942595D01*
X119744086Y-101944364D01*
X119722305Y-101948258D01*
X119692032Y-101952804D01*
X119651394Y-101958221D01*
X119598514Y-101964725D01*
X119531518Y-101972533D01*
X119448532Y-101981863D01*
X119347680Y-101992931D01*
X119084879Y-102021151D01*
X118262400Y-102108000D01*
X116754628Y-102263222D01*
X116741527Y-102262779D01*
X116728704Y-102261461D01*
X116716187Y-102259288D01*
X116704004Y-102256277D01*
X116692185Y-102252448D01*
X116680759Y-102247818D01*
X116669755Y-102242408D01*
X116659201Y-102236234D01*
X116649127Y-102229317D01*
X116639562Y-102221674D01*
X116630533Y-102213324D01*
X116622072Y-102204286D01*
X116614205Y-102194578D01*
X116606963Y-102184219D01*
X116600374Y-102173227D01*
X116594467Y-102161622D01*
X116591486Y-102155204D01*
X116588877Y-102149169D01*
X116587705Y-102146167D01*
X116586616Y-102143107D01*
X116585608Y-102139938D01*
X116584677Y-102136608D01*
X116583821Y-102133067D01*
X116583036Y-102129262D01*
X116582319Y-102125142D01*
X116581668Y-102120657D01*
X116581078Y-102115755D01*
X116580547Y-102110385D01*
X116580072Y-102104495D01*
X116579650Y-102098034D01*
X116579278Y-102090951D01*
X116578952Y-102083195D01*
X116578427Y-102065456D01*
X116578050Y-102044408D01*
X116577798Y-102019640D01*
X116577645Y-101990743D01*
X116577567Y-101957305D01*
X116577534Y-101875167D01*
X116577534Y-101624694D01*
X116597994Y-101581656D01*
X116602781Y-101572141D01*
X116607875Y-101562915D01*
X116613271Y-101553986D01*
X116618963Y-101545364D01*
X116624944Y-101537055D01*
X116631208Y-101529070D01*
X116637749Y-101521415D01*
X116644561Y-101514099D01*
X116651638Y-101507130D01*
X116658973Y-101500517D01*
X116666560Y-101494267D01*
X116674393Y-101488390D01*
X116682466Y-101482893D01*
X116690772Y-101477785D01*
X116699306Y-101473073D01*
X116708061Y-101468767D01*
X116715209Y-101465981D01*
X116725593Y-101463081D01*
X116740478Y-101459921D01*
X116761132Y-101456354D01*
X116788823Y-101452233D01*
X116824817Y-101447410D01*
X116870381Y-101441741D01*
X116926783Y-101435077D01*
X117077169Y-101418180D01*
X117286110Y-101395544D01*
X117920206Y-101328361D01*
X118931443Y-101220147D01*
X119086820Y-101199476D01*
X119118446Y-101192726D01*
X119135172Y-101186545D01*
X119144293Y-101181956D01*
X119153371Y-101176688D01*
X119162361Y-101170789D01*
X119171222Y-101164309D01*
X119179909Y-101157295D01*
X119188378Y-101149797D01*
X119196588Y-101141862D01*
X119204493Y-101133540D01*
X119212051Y-101124879D01*
X119219219Y-101115927D01*
X119225952Y-101106734D01*
X119232208Y-101097347D01*
X119237943Y-101087816D01*
X119243114Y-101078188D01*
X119247677Y-101068513D01*
X119251589Y-101058839D01*
X119254080Y-101051937D01*
X119256273Y-101045224D01*
X119258182Y-101038264D01*
X119259036Y-101034554D01*
X119259824Y-101030617D01*
X119260549Y-101026399D01*
X119261214Y-101021846D01*
X119261819Y-101016902D01*
X119262367Y-101011512D01*
X119263298Y-100999177D01*
X119264024Y-100984403D01*
X119264560Y-100966752D01*
X119264921Y-100945785D01*
X119265124Y-100921064D01*
X119265182Y-100892152D01*
X119264930Y-100819998D01*
X119264289Y-100725817D01*
X119262757Y-100565270D01*
X119261796Y-100512335D01*
X119260497Y-100473845D01*
X119258701Y-100446964D01*
X119256252Y-100428855D01*
X119252993Y-100416683D01*
X119248767Y-100407611D01*
X119242856Y-100397178D01*
X119236510Y-100387310D01*
X119229738Y-100378013D01*
X119222551Y-100369291D01*
X119214958Y-100361148D01*
X119206971Y-100353587D01*
X119198599Y-100346613D01*
X119189853Y-100340231D01*
X119180743Y-100334444D01*
X119171280Y-100329256D01*
X119161473Y-100324672D01*
X119151334Y-100320696D01*
X119140872Y-100317332D01*
X119130098Y-100314583D01*
X119119023Y-100312455D01*
X119107656Y-100310951D01*
X119078168Y-100312721D01*
X119007621Y-100318899D01*
X118755583Y-100343317D01*
X118376017Y-100381891D01*
X117893394Y-100432306D01*
X117019123Y-100522793D01*
X116774306Y-100546209D01*
X116677722Y-100552956D01*
X116669477Y-100551917D01*
X116661172Y-100550402D01*
X116652846Y-100548430D01*
X116644539Y-100546021D01*
X116636290Y-100543195D01*
X116628138Y-100539970D01*
X116620122Y-100536368D01*
X116612282Y-100532406D01*
X116604657Y-100528106D01*
X116597286Y-100523486D01*
X116590209Y-100518567D01*
X116583464Y-100513368D01*
X116577092Y-100507908D01*
X116571131Y-100502207D01*
X116565621Y-100496285D01*
X116560600Y-100490162D01*
X116553994Y-100481230D01*
X116550986Y-100476935D01*
X116548166Y-100472684D01*
X116545529Y-100468428D01*
X116543068Y-100464115D01*
X116540777Y-100459695D01*
X116538651Y-100455116D01*
X116536682Y-100450326D01*
X116534866Y-100445276D01*
X116533196Y-100439915D01*
X116531665Y-100434190D01*
X116530269Y-100428051D01*
X116529000Y-100421448D01*
X116527853Y-100414328D01*
X116526822Y-100406642D01*
X116525900Y-100398337D01*
X116525081Y-100389363D01*
X116524360Y-100379669D01*
X116523731Y-100369204D01*
X116522721Y-100345757D01*
X116522004Y-100318612D01*
X116521531Y-100287363D01*
X116521253Y-100251599D01*
X116521089Y-100164900D01*
X116521464Y-100026049D01*
X116522205Y-99981780D01*
X116523558Y-99949970D01*
X116525705Y-99927388D01*
X116528828Y-99910801D01*
X116533108Y-99896975D01*
X116538728Y-99882678D01*
X116543020Y-99873020D01*
X116547929Y-99863394D01*
X116553411Y-99853846D01*
X116559421Y-99844424D01*
X116565914Y-99835175D01*
X116572847Y-99826148D01*
X116580174Y-99817390D01*
X116587852Y-99808948D01*
X116595836Y-99800869D01*
X116604081Y-99793202D01*
X116612544Y-99785994D01*
X116621179Y-99779292D01*
X116629942Y-99773144D01*
X116638789Y-99767598D01*
X116647675Y-99762701D01*
X116656556Y-99758500D01*
X116664773Y-99755944D01*
X116678968Y-99752936D01*
X116700522Y-99749319D01*
X116730815Y-99744940D01*
X116823144Y-99733274D01*
X116967000Y-99716696D01*
X117173430Y-99693967D01*
X117453481Y-99663846D01*
X118278628Y-99576467D01*
X119660899Y-99432975D01*
X119842018Y-99418411D01*
X119868130Y-99419320D01*
G37*
X119868130Y-99419320D02*
X119875300Y-99423361D01*
X119877926Y-99426883D01*
X119880385Y-99430323D01*
X119882682Y-99433910D01*
X119883771Y-99435831D01*
X119884822Y-99437875D01*
X119885836Y-99440070D01*
X119886814Y-99442445D01*
X119887755Y-99445029D01*
X119888661Y-99447850D01*
X119889532Y-99450937D01*
X119890370Y-99454318D01*
X119891174Y-99458023D01*
X119891947Y-99462079D01*
X119892688Y-99466515D01*
X119893398Y-99471361D01*
X119894078Y-99476644D01*
X119894729Y-99482393D01*
X119895945Y-99495405D01*
X119897054Y-99510624D01*
X119898060Y-99528281D01*
X119898970Y-99548604D01*
X119899789Y-99571821D01*
X119900524Y-99598163D01*
X119901180Y-99627857D01*
X119901764Y-99661133D01*
X119902280Y-99698219D01*
X119902737Y-99739346D01*
X119903138Y-99784740D01*
X119903491Y-99834632D01*
X119904073Y-99948824D01*
X119904532Y-100083753D01*
X119904914Y-100241249D01*
X119905638Y-100631273D01*
X119905727Y-101630251D01*
X119901769Y-101766633D01*
X119898298Y-101792114D01*
X119893644Y-101807434D01*
X119889725Y-101816983D01*
X119885141Y-101826550D01*
X119879938Y-101836083D01*
X119874165Y-101845534D01*
X119867866Y-101854852D01*
X119861088Y-101863988D01*
X119853879Y-101872893D01*
X119846284Y-101881517D01*
X119838350Y-101889810D01*
X119830124Y-101897723D01*
X119821652Y-101905205D01*
X119812980Y-101912209D01*
X119804155Y-101918683D01*
X119795224Y-101924578D01*
X119786232Y-101929844D01*
X119777228Y-101934433D01*
X119769672Y-101937669D01*
X119764937Y-101939274D01*
X119759250Y-101940907D01*
X119752378Y-101942595D01*
X119744086Y-101944364D01*
X119722305Y-101948258D01*
X119692032Y-101952804D01*
X119651394Y-101958221D01*
X119598514Y-101964725D01*
X119531518Y-101972533D01*
X119448532Y-101981863D01*
X119347680Y-101992931D01*
X119084879Y-102021151D01*
X118262400Y-102108000D01*
X116754628Y-102263222D01*
X116741527Y-102262779D01*
X116728704Y-102261461D01*
X116716187Y-102259288D01*
X116704004Y-102256277D01*
X116692185Y-102252448D01*
X116680759Y-102247818D01*
X116669755Y-102242408D01*
X116659201Y-102236234D01*
X116649127Y-102229317D01*
X116639562Y-102221674D01*
X116630533Y-102213324D01*
X116622072Y-102204286D01*
X116614205Y-102194578D01*
X116606963Y-102184219D01*
X116600374Y-102173227D01*
X116594467Y-102161622D01*
X116591486Y-102155204D01*
X116588877Y-102149169D01*
X116587705Y-102146167D01*
X116586616Y-102143107D01*
X116585608Y-102139938D01*
X116584677Y-102136608D01*
X116583821Y-102133067D01*
X116583036Y-102129262D01*
X116582319Y-102125142D01*
X116581668Y-102120657D01*
X116581078Y-102115755D01*
X116580547Y-102110385D01*
X116580072Y-102104495D01*
X116579650Y-102098034D01*
X116579278Y-102090951D01*
X116578952Y-102083195D01*
X116578427Y-102065456D01*
X116578050Y-102044408D01*
X116577798Y-102019640D01*
X116577645Y-101990743D01*
X116577567Y-101957305D01*
X116577534Y-101875167D01*
X116577534Y-101624694D01*
X116597994Y-101581656D01*
X116602781Y-101572141D01*
X116607875Y-101562915D01*
X116613271Y-101553986D01*
X116618963Y-101545364D01*
X116624944Y-101537055D01*
X116631208Y-101529070D01*
X116637749Y-101521415D01*
X116644561Y-101514099D01*
X116651638Y-101507130D01*
X116658973Y-101500517D01*
X116666560Y-101494267D01*
X116674393Y-101488390D01*
X116682466Y-101482893D01*
X116690772Y-101477785D01*
X116699306Y-101473073D01*
X116708061Y-101468767D01*
X116715209Y-101465981D01*
X116725593Y-101463081D01*
X116740478Y-101459921D01*
X116761132Y-101456354D01*
X116788823Y-101452233D01*
X116824817Y-101447410D01*
X116870381Y-101441741D01*
X116926783Y-101435077D01*
X117077169Y-101418180D01*
X117286110Y-101395544D01*
X117920206Y-101328361D01*
X118931443Y-101220147D01*
X119086820Y-101199476D01*
X119118446Y-101192726D01*
X119135172Y-101186545D01*
X119144293Y-101181956D01*
X119153371Y-101176688D01*
X119162361Y-101170789D01*
X119171222Y-101164309D01*
X119179909Y-101157295D01*
X119188378Y-101149797D01*
X119196588Y-101141862D01*
X119204493Y-101133540D01*
X119212051Y-101124879D01*
X119219219Y-101115927D01*
X119225952Y-101106734D01*
X119232208Y-101097347D01*
X119237943Y-101087816D01*
X119243114Y-101078188D01*
X119247677Y-101068513D01*
X119251589Y-101058839D01*
X119254080Y-101051937D01*
X119256273Y-101045224D01*
X119258182Y-101038264D01*
X119259036Y-101034554D01*
X119259824Y-101030617D01*
X119260549Y-101026399D01*
X119261214Y-101021846D01*
X119261819Y-101016902D01*
X119262367Y-101011512D01*
X119263298Y-100999177D01*
X119264024Y-100984403D01*
X119264560Y-100966752D01*
X119264921Y-100945785D01*
X119265124Y-100921064D01*
X119265182Y-100892152D01*
X119264930Y-100819998D01*
X119264289Y-100725817D01*
X119262757Y-100565270D01*
X119261796Y-100512335D01*
X119260497Y-100473845D01*
X119258701Y-100446964D01*
X119256252Y-100428855D01*
X119252993Y-100416683D01*
X119248767Y-100407611D01*
X119242856Y-100397178D01*
X119236510Y-100387310D01*
X119229738Y-100378013D01*
X119222551Y-100369291D01*
X119214958Y-100361148D01*
X119206971Y-100353587D01*
X119198599Y-100346613D01*
X119189853Y-100340231D01*
X119180743Y-100334444D01*
X119171280Y-100329256D01*
X119161473Y-100324672D01*
X119151334Y-100320696D01*
X119140872Y-100317332D01*
X119130098Y-100314583D01*
X119119023Y-100312455D01*
X119107656Y-100310951D01*
X119078168Y-100312721D01*
X119007621Y-100318899D01*
X118755583Y-100343317D01*
X118376017Y-100381891D01*
X117893394Y-100432306D01*
X117019123Y-100522793D01*
X116774306Y-100546209D01*
X116677722Y-100552956D01*
X116669477Y-100551917D01*
X116661172Y-100550402D01*
X116652846Y-100548430D01*
X116644539Y-100546021D01*
X116636290Y-100543195D01*
X116628138Y-100539970D01*
X116620122Y-100536368D01*
X116612282Y-100532406D01*
X116604657Y-100528106D01*
X116597286Y-100523486D01*
X116590209Y-100518567D01*
X116583464Y-100513368D01*
X116577092Y-100507908D01*
X116571131Y-100502207D01*
X116565621Y-100496285D01*
X116560600Y-100490162D01*
X116553994Y-100481230D01*
X116550986Y-100476935D01*
X116548166Y-100472684D01*
X116545529Y-100468428D01*
X116543068Y-100464115D01*
X116540777Y-100459695D01*
X116538651Y-100455116D01*
X116536682Y-100450326D01*
X116534866Y-100445276D01*
X116533196Y-100439915D01*
X116531665Y-100434190D01*
X116530269Y-100428051D01*
X116529000Y-100421448D01*
X116527853Y-100414328D01*
X116526822Y-100406642D01*
X116525900Y-100398337D01*
X116525081Y-100389363D01*
X116524360Y-100379669D01*
X116523731Y-100369204D01*
X116522721Y-100345757D01*
X116522004Y-100318612D01*
X116521531Y-100287363D01*
X116521253Y-100251599D01*
X116521089Y-100164900D01*
X116521464Y-100026049D01*
X116522205Y-99981780D01*
X116523558Y-99949970D01*
X116525705Y-99927388D01*
X116528828Y-99910801D01*
X116533108Y-99896975D01*
X116538728Y-99882678D01*
X116543020Y-99873020D01*
X116547929Y-99863394D01*
X116553411Y-99853846D01*
X116559421Y-99844424D01*
X116565914Y-99835175D01*
X116572847Y-99826148D01*
X116580174Y-99817390D01*
X116587852Y-99808948D01*
X116595836Y-99800869D01*
X116604081Y-99793202D01*
X116612544Y-99785994D01*
X116621179Y-99779292D01*
X116629942Y-99773144D01*
X116638789Y-99767598D01*
X116647675Y-99762701D01*
X116656556Y-99758500D01*
X116664773Y-99755944D01*
X116678968Y-99752936D01*
X116700522Y-99749319D01*
X116730815Y-99744940D01*
X116823144Y-99733274D01*
X116967000Y-99716696D01*
X117173430Y-99693967D01*
X117453481Y-99663846D01*
X118278628Y-99576467D01*
X119660899Y-99432975D01*
X119842018Y-99418411D01*
X119868130Y-99419320D01*
G36*
X119778054Y-108387612D02*
G01*
X119783718Y-108388119D01*
X119789296Y-108388975D01*
X119794800Y-108390190D01*
X119800247Y-108391773D01*
X119805651Y-108393733D01*
X119811026Y-108396079D01*
X119816386Y-108398822D01*
X119821746Y-108401970D01*
X119827121Y-108405532D01*
X119832525Y-108409518D01*
X119837972Y-108413936D01*
X119843477Y-108418798D01*
X119849054Y-108424111D01*
X119854718Y-108429885D01*
X119860483Y-108436129D01*
X119869393Y-108445425D01*
X119873402Y-108449581D01*
X119877126Y-108453744D01*
X119880576Y-108458162D01*
X119883761Y-108463087D01*
X119885258Y-108465816D01*
X119886692Y-108468766D01*
X119888065Y-108471968D01*
X119889378Y-108475452D01*
X119890633Y-108479250D01*
X119891830Y-108483393D01*
X119892971Y-108487913D01*
X119894057Y-108492841D01*
X119896069Y-108504043D01*
X119897877Y-108517252D01*
X119899489Y-108532716D01*
X119900917Y-108550686D01*
X119902170Y-108571411D01*
X119903258Y-108595143D01*
X119904191Y-108622129D01*
X119904978Y-108652622D01*
X119905631Y-108686870D01*
X119906159Y-108725123D01*
X119906878Y-108814647D01*
X119907216Y-108923193D01*
X119907252Y-109052760D01*
X119907065Y-109205350D01*
X119906345Y-109587595D01*
X119904228Y-110634639D01*
X119879534Y-110679796D01*
X119874031Y-110689450D01*
X119868119Y-110698818D01*
X119861821Y-110707881D01*
X119855159Y-110716617D01*
X119848153Y-110725005D01*
X119840826Y-110733026D01*
X119833199Y-110740658D01*
X119825294Y-110747881D01*
X119817133Y-110754674D01*
X119808737Y-110761017D01*
X119800128Y-110766888D01*
X119791328Y-110772267D01*
X119782359Y-110777133D01*
X119773241Y-110781467D01*
X119763998Y-110785246D01*
X119754650Y-110788451D01*
X119746233Y-110790800D01*
X119734737Y-110793319D01*
X119704093Y-110798692D01*
X119665874Y-110804214D01*
X119623240Y-110809529D01*
X119579350Y-110814281D01*
X119537361Y-110818116D01*
X119500432Y-110820678D01*
X119471722Y-110821611D01*
X119459282Y-110821208D01*
X119447110Y-110820010D01*
X119435228Y-110818030D01*
X119423656Y-110815283D01*
X119412415Y-110811784D01*
X119401525Y-110807547D01*
X119391007Y-110802586D01*
X119380882Y-110796917D01*
X119371170Y-110790553D01*
X119361892Y-110783508D01*
X119353070Y-110775799D01*
X119344722Y-110767438D01*
X119336871Y-110758440D01*
X119329536Y-110748820D01*
X119322739Y-110738593D01*
X119316500Y-110727772D01*
X119297450Y-110691084D01*
X119293922Y-110024333D01*
X119291254Y-109604186D01*
X119289234Y-109478668D01*
X119285808Y-109395772D01*
X119280266Y-109345188D01*
X119276479Y-109328791D01*
X119271895Y-109316606D01*
X119266428Y-109307344D01*
X119259986Y-109299716D01*
X119243828Y-109284206D01*
X119237418Y-109278062D01*
X119230884Y-109272330D01*
X119224215Y-109267007D01*
X119217402Y-109262091D01*
X119210437Y-109257580D01*
X119203309Y-109253473D01*
X119196010Y-109249766D01*
X119188530Y-109246458D01*
X119180859Y-109243548D01*
X119172990Y-109241032D01*
X119164911Y-109238908D01*
X119156615Y-109237176D01*
X119148091Y-109235832D01*
X119139330Y-109234874D01*
X119130323Y-109234301D01*
X119121061Y-109234111D01*
X117860145Y-109361905D01*
X117019509Y-109452293D01*
X116621983Y-109498695D01*
X116613216Y-109501792D01*
X116604163Y-109505749D01*
X116594903Y-109510497D01*
X116585515Y-109515970D01*
X116576077Y-109522100D01*
X116566669Y-109528820D01*
X116557368Y-109536064D01*
X116548253Y-109543763D01*
X116539402Y-109551850D01*
X116530895Y-109560259D01*
X116522809Y-109568922D01*
X116515224Y-109577773D01*
X116508217Y-109586743D01*
X116501868Y-109595766D01*
X116496255Y-109604774D01*
X116491456Y-109613701D01*
X116475228Y-109646861D01*
X116471700Y-110313612D01*
X116469429Y-110697566D01*
X116466761Y-110899752D01*
X116464741Y-110952856D01*
X116461977Y-110984727D01*
X116458253Y-111003435D01*
X116453355Y-111017050D01*
X116448299Y-111028423D01*
X116442673Y-111039504D01*
X116436501Y-111050267D01*
X116429808Y-111060685D01*
X116422618Y-111070730D01*
X116414958Y-111080377D01*
X116406851Y-111089598D01*
X116398322Y-111098366D01*
X116389397Y-111106654D01*
X116380099Y-111114436D01*
X116370454Y-111121685D01*
X116360487Y-111128374D01*
X116350222Y-111134476D01*
X116339684Y-111139963D01*
X116328898Y-111144811D01*
X116317889Y-111148990D01*
X116309829Y-111151447D01*
X116298851Y-111154031D01*
X116269569Y-111159419D01*
X116232896Y-111164840D01*
X116191683Y-111169980D01*
X116148783Y-111174524D01*
X116107049Y-111178160D01*
X116069333Y-111180571D01*
X116038489Y-111181445D01*
X116023301Y-111181007D01*
X116008696Y-111179698D01*
X115994678Y-111177520D01*
X115981251Y-111174477D01*
X115968419Y-111170576D01*
X115956187Y-111165818D01*
X115944558Y-111160208D01*
X115933538Y-111153752D01*
X115923129Y-111146451D01*
X115913335Y-111138312D01*
X115904163Y-111129337D01*
X115895614Y-111119532D01*
X115887694Y-111108900D01*
X115880406Y-111097445D01*
X115873755Y-111085171D01*
X115867744Y-111072083D01*
X115866238Y-111066559D01*
X115864889Y-111057058D01*
X115863689Y-111042678D01*
X115862629Y-111022519D01*
X115860898Y-110961257D01*
X115859631Y-110866062D01*
X115858760Y-110729724D01*
X115858220Y-110545034D01*
X115857867Y-110001756D01*
X115860160Y-109159764D01*
X115863026Y-108988435D01*
X115865121Y-108947622D01*
X115867744Y-108930018D01*
X115873258Y-108915905D01*
X115879703Y-108902175D01*
X115887021Y-108888881D01*
X115895151Y-108876076D01*
X115904033Y-108863812D01*
X115913608Y-108852143D01*
X115923816Y-108841121D01*
X115934596Y-108830799D01*
X115945889Y-108821229D01*
X115957634Y-108812464D01*
X115969772Y-108804557D01*
X115982243Y-108797561D01*
X115994987Y-108791527D01*
X116007943Y-108786510D01*
X116021053Y-108782562D01*
X116027646Y-108781005D01*
X116034256Y-108779735D01*
X119772289Y-108387445D01*
X119778054Y-108387612D01*
G37*
X119778054Y-108387612D02*
X119783718Y-108388119D01*
X119789296Y-108388975D01*
X119794800Y-108390190D01*
X119800247Y-108391773D01*
X119805651Y-108393733D01*
X119811026Y-108396079D01*
X119816386Y-108398822D01*
X119821746Y-108401970D01*
X119827121Y-108405532D01*
X119832525Y-108409518D01*
X119837972Y-108413936D01*
X119843477Y-108418798D01*
X119849054Y-108424111D01*
X119854718Y-108429885D01*
X119860483Y-108436129D01*
X119869393Y-108445425D01*
X119873402Y-108449581D01*
X119877126Y-108453744D01*
X119880576Y-108458162D01*
X119883761Y-108463087D01*
X119885258Y-108465816D01*
X119886692Y-108468766D01*
X119888065Y-108471968D01*
X119889378Y-108475452D01*
X119890633Y-108479250D01*
X119891830Y-108483393D01*
X119892971Y-108487913D01*
X119894057Y-108492841D01*
X119896069Y-108504043D01*
X119897877Y-108517252D01*
X119899489Y-108532716D01*
X119900917Y-108550686D01*
X119902170Y-108571411D01*
X119903258Y-108595143D01*
X119904191Y-108622129D01*
X119904978Y-108652622D01*
X119905631Y-108686870D01*
X119906159Y-108725123D01*
X119906878Y-108814647D01*
X119907216Y-108923193D01*
X119907252Y-109052760D01*
X119907065Y-109205350D01*
X119906345Y-109587595D01*
X119904228Y-110634639D01*
X119879534Y-110679796D01*
X119874031Y-110689450D01*
X119868119Y-110698818D01*
X119861821Y-110707881D01*
X119855159Y-110716617D01*
X119848153Y-110725005D01*
X119840826Y-110733026D01*
X119833199Y-110740658D01*
X119825294Y-110747881D01*
X119817133Y-110754674D01*
X119808737Y-110761017D01*
X119800128Y-110766888D01*
X119791328Y-110772267D01*
X119782359Y-110777133D01*
X119773241Y-110781467D01*
X119763998Y-110785246D01*
X119754650Y-110788451D01*
X119746233Y-110790800D01*
X119734737Y-110793319D01*
X119704093Y-110798692D01*
X119665874Y-110804214D01*
X119623240Y-110809529D01*
X119579350Y-110814281D01*
X119537361Y-110818116D01*
X119500432Y-110820678D01*
X119471722Y-110821611D01*
X119459282Y-110821208D01*
X119447110Y-110820010D01*
X119435228Y-110818030D01*
X119423656Y-110815283D01*
X119412415Y-110811784D01*
X119401525Y-110807547D01*
X119391007Y-110802586D01*
X119380882Y-110796917D01*
X119371170Y-110790553D01*
X119361892Y-110783508D01*
X119353070Y-110775799D01*
X119344722Y-110767438D01*
X119336871Y-110758440D01*
X119329536Y-110748820D01*
X119322739Y-110738593D01*
X119316500Y-110727772D01*
X119297450Y-110691084D01*
X119293922Y-110024333D01*
X119291254Y-109604186D01*
X119289234Y-109478668D01*
X119285808Y-109395772D01*
X119280266Y-109345188D01*
X119276479Y-109328791D01*
X119271895Y-109316606D01*
X119266428Y-109307344D01*
X119259986Y-109299716D01*
X119243828Y-109284206D01*
X119237418Y-109278062D01*
X119230884Y-109272330D01*
X119224215Y-109267007D01*
X119217402Y-109262091D01*
X119210437Y-109257580D01*
X119203309Y-109253473D01*
X119196010Y-109249766D01*
X119188530Y-109246458D01*
X119180859Y-109243548D01*
X119172990Y-109241032D01*
X119164911Y-109238908D01*
X119156615Y-109237176D01*
X119148091Y-109235832D01*
X119139330Y-109234874D01*
X119130323Y-109234301D01*
X119121061Y-109234111D01*
X117860145Y-109361905D01*
X117019509Y-109452293D01*
X116621983Y-109498695D01*
X116613216Y-109501792D01*
X116604163Y-109505749D01*
X116594903Y-109510497D01*
X116585515Y-109515970D01*
X116576077Y-109522100D01*
X116566669Y-109528820D01*
X116557368Y-109536064D01*
X116548253Y-109543763D01*
X116539402Y-109551850D01*
X116530895Y-109560259D01*
X116522809Y-109568922D01*
X116515224Y-109577773D01*
X116508217Y-109586743D01*
X116501868Y-109595766D01*
X116496255Y-109604774D01*
X116491456Y-109613701D01*
X116475228Y-109646861D01*
X116471700Y-110313612D01*
X116469429Y-110697566D01*
X116466761Y-110899752D01*
X116464741Y-110952856D01*
X116461977Y-110984727D01*
X116458253Y-111003435D01*
X116453355Y-111017050D01*
X116448299Y-111028423D01*
X116442673Y-111039504D01*
X116436501Y-111050267D01*
X116429808Y-111060685D01*
X116422618Y-111070730D01*
X116414958Y-111080377D01*
X116406851Y-111089598D01*
X116398322Y-111098366D01*
X116389397Y-111106654D01*
X116380099Y-111114436D01*
X116370454Y-111121685D01*
X116360487Y-111128374D01*
X116350222Y-111134476D01*
X116339684Y-111139963D01*
X116328898Y-111144811D01*
X116317889Y-111148990D01*
X116309829Y-111151447D01*
X116298851Y-111154031D01*
X116269569Y-111159419D01*
X116232896Y-111164840D01*
X116191683Y-111169980D01*
X116148783Y-111174524D01*
X116107049Y-111178160D01*
X116069333Y-111180571D01*
X116038489Y-111181445D01*
X116023301Y-111181007D01*
X116008696Y-111179698D01*
X115994678Y-111177520D01*
X115981251Y-111174477D01*
X115968419Y-111170576D01*
X115956187Y-111165818D01*
X115944558Y-111160208D01*
X115933538Y-111153752D01*
X115923129Y-111146451D01*
X115913335Y-111138312D01*
X115904163Y-111129337D01*
X115895614Y-111119532D01*
X115887694Y-111108900D01*
X115880406Y-111097445D01*
X115873755Y-111085171D01*
X115867744Y-111072083D01*
X115866238Y-111066559D01*
X115864889Y-111057058D01*
X115863689Y-111042678D01*
X115862629Y-111022519D01*
X115860898Y-110961257D01*
X115859631Y-110866062D01*
X115858760Y-110729724D01*
X115858220Y-110545034D01*
X115857867Y-110001756D01*
X115860160Y-109159764D01*
X115863026Y-108988435D01*
X115865121Y-108947622D01*
X115867744Y-108930018D01*
X115873258Y-108915905D01*
X115879703Y-108902175D01*
X115887021Y-108888881D01*
X115895151Y-108876076D01*
X115904033Y-108863812D01*
X115913608Y-108852143D01*
X115923816Y-108841121D01*
X115934596Y-108830799D01*
X115945889Y-108821229D01*
X115957634Y-108812464D01*
X115969772Y-108804557D01*
X115982243Y-108797561D01*
X115994987Y-108791527D01*
X116007943Y-108786510D01*
X116021053Y-108782562D01*
X116027646Y-108781005D01*
X116034256Y-108779735D01*
X119772289Y-108387445D01*
X119778054Y-108387612D01*
G36*
X119117534Y-95134773D02*
G01*
X119160131Y-95130320D01*
X119729955Y-95073611D01*
X119739203Y-95073804D01*
X119748774Y-95074361D01*
X119758394Y-95075248D01*
X119767791Y-95076434D01*
X119776692Y-95077883D01*
X119784824Y-95079565D01*
X119788516Y-95080482D01*
X119791914Y-95081444D01*
X119794983Y-95082448D01*
X119797689Y-95083489D01*
X119803866Y-95086277D01*
X119810195Y-95089587D01*
X119816629Y-95093378D01*
X119823122Y-95097611D01*
X119829628Y-95102245D01*
X119836099Y-95107240D01*
X119842490Y-95112554D01*
X119848754Y-95118149D01*
X119854844Y-95123984D01*
X119860714Y-95130019D01*
X119866317Y-95136212D01*
X119871607Y-95142524D01*
X119876537Y-95148915D01*
X119881062Y-95155344D01*
X119885133Y-95161771D01*
X119888705Y-95168156D01*
X119904228Y-95197083D01*
X119906345Y-96242717D01*
X119905904Y-97153589D01*
X119902078Y-97285705D01*
X119898772Y-97312141D01*
X119894350Y-97327862D01*
X119889430Y-97340570D01*
X119883699Y-97353002D01*
X119877205Y-97365112D01*
X119869997Y-97376853D01*
X119862124Y-97388182D01*
X119853633Y-97399051D01*
X119844574Y-97409416D01*
X119834995Y-97419231D01*
X119824945Y-97428450D01*
X119814472Y-97437029D01*
X119803625Y-97444922D01*
X119792452Y-97452083D01*
X119781003Y-97458467D01*
X119769325Y-97464028D01*
X119757467Y-97468721D01*
X119745478Y-97472500D01*
X119522930Y-97499311D01*
X119069467Y-97547289D01*
X118611110Y-97593150D01*
X118373878Y-97613611D01*
X118356320Y-97613487D01*
X118339748Y-97613082D01*
X118323938Y-97612346D01*
X118308669Y-97611230D01*
X118293718Y-97609684D01*
X118278863Y-97607658D01*
X118263883Y-97605103D01*
X118248553Y-97601970D01*
X118232654Y-97598208D01*
X118215961Y-97593768D01*
X118198254Y-97588600D01*
X118179310Y-97582655D01*
X118158906Y-97575883D01*
X118136821Y-97568235D01*
X118086716Y-97550111D01*
X118036559Y-97531867D01*
X118015301Y-97524480D01*
X117996207Y-97518196D01*
X117978990Y-97512974D01*
X117963363Y-97508774D01*
X117949038Y-97505556D01*
X117935728Y-97503280D01*
X117923145Y-97501905D01*
X117911003Y-97501391D01*
X117899014Y-97501697D01*
X117886890Y-97502784D01*
X117874345Y-97504611D01*
X117861091Y-97507137D01*
X117831306Y-97514128D01*
X117809737Y-97520114D01*
X117799810Y-97523145D01*
X117790251Y-97526299D01*
X117780908Y-97529652D01*
X117771626Y-97533277D01*
X117762253Y-97537250D01*
X117752636Y-97541645D01*
X117742623Y-97546535D01*
X117732059Y-97551997D01*
X117720793Y-97558103D01*
X117708671Y-97564928D01*
X117681248Y-97581035D01*
X117648567Y-97600911D01*
X117617299Y-97619080D01*
X117584559Y-97636454D01*
X117550662Y-97652902D01*
X117515922Y-97668292D01*
X117480653Y-97682491D01*
X117445168Y-97695368D01*
X117409783Y-97706789D01*
X117374811Y-97716623D01*
X117291503Y-97729667D01*
X117128109Y-97749938D01*
X116670667Y-97800584D01*
X116221691Y-97845409D01*
X116068880Y-97858404D01*
X116000389Y-97861262D01*
X115991896Y-97859273D01*
X115983374Y-97856762D01*
X115974863Y-97853753D01*
X115966401Y-97850270D01*
X115958026Y-97846336D01*
X115949775Y-97841976D01*
X115941688Y-97837212D01*
X115933802Y-97832069D01*
X115926156Y-97826570D01*
X115918788Y-97820740D01*
X115911737Y-97814602D01*
X115905040Y-97808179D01*
X115898735Y-97801496D01*
X115892862Y-97794577D01*
X115887458Y-97787444D01*
X115882561Y-97780123D01*
X115861395Y-97745550D01*
X115859983Y-96690039D01*
X115860026Y-96615250D01*
X116471700Y-96615250D01*
X116472031Y-96769370D01*
X116472667Y-96819393D01*
X116473817Y-96855492D01*
X116475627Y-96880743D01*
X116478248Y-96898222D01*
X116481829Y-96911005D01*
X116486517Y-96922167D01*
X116490094Y-96929845D01*
X116493706Y-96937028D01*
X116497386Y-96943747D01*
X116501168Y-96950036D01*
X116505087Y-96955929D01*
X116509176Y-96961458D01*
X116513470Y-96966655D01*
X116518002Y-96971556D01*
X116522808Y-96976191D01*
X116527920Y-96980596D01*
X116533373Y-96984801D01*
X116539202Y-96988842D01*
X116545440Y-96992750D01*
X116552121Y-96996559D01*
X116559280Y-97000302D01*
X116566950Y-97004011D01*
X116571683Y-97006178D01*
X116576369Y-97008183D01*
X116581028Y-97010028D01*
X116585680Y-97011717D01*
X116590345Y-97013253D01*
X116595041Y-97014640D01*
X116599789Y-97015880D01*
X116604609Y-97016976D01*
X116609519Y-97017931D01*
X116614541Y-97018749D01*
X116619692Y-97019433D01*
X116624993Y-97019985D01*
X116630464Y-97020410D01*
X116636123Y-97020709D01*
X116641992Y-97020886D01*
X116648089Y-97020944D01*
X116696559Y-97018253D01*
X116780789Y-97011056D01*
X117006952Y-96988401D01*
X117227427Y-96963497D01*
X117304546Y-96953488D01*
X117343061Y-96946861D01*
X117352914Y-96943664D01*
X117362617Y-96939905D01*
X117372152Y-96935600D01*
X117381503Y-96930766D01*
X117390651Y-96925419D01*
X117399579Y-96919576D01*
X117408269Y-96913254D01*
X117416704Y-96906468D01*
X117424865Y-96899236D01*
X117432737Y-96891574D01*
X117440301Y-96883499D01*
X117447539Y-96875027D01*
X117454433Y-96866174D01*
X117460967Y-96856958D01*
X117467123Y-96847395D01*
X117472883Y-96837500D01*
X117498283Y-96791639D01*
X117500400Y-96520000D01*
X117500864Y-96442389D01*
X118115645Y-96442389D01*
X118115975Y-96594470D01*
X118116612Y-96643865D01*
X118117761Y-96679544D01*
X118119572Y-96704540D01*
X118122193Y-96721888D01*
X118125773Y-96734623D01*
X118130461Y-96745778D01*
X118135750Y-96756624D01*
X118141556Y-96766931D01*
X118147863Y-96776688D01*
X118154659Y-96785884D01*
X118161931Y-96794511D01*
X118169665Y-96802556D01*
X118177847Y-96810010D01*
X118186464Y-96816863D01*
X118195504Y-96823104D01*
X118204951Y-96828722D01*
X118214793Y-96833708D01*
X118225016Y-96838052D01*
X118235608Y-96841742D01*
X118246554Y-96844768D01*
X118257841Y-96847121D01*
X118269456Y-96848789D01*
X118319443Y-96846984D01*
X118421304Y-96838581D01*
X118711133Y-96809455D01*
X118999904Y-96776360D01*
X119100443Y-96762995D01*
X119148578Y-96754245D01*
X119156971Y-96751001D01*
X119165453Y-96747116D01*
X119173981Y-96742625D01*
X119182511Y-96737565D01*
X119190999Y-96731971D01*
X119199403Y-96725880D01*
X119207678Y-96719329D01*
X119215782Y-96712352D01*
X119223671Y-96704987D01*
X119231302Y-96697270D01*
X119238630Y-96689236D01*
X119245614Y-96680922D01*
X119252209Y-96672364D01*
X119258372Y-96663599D01*
X119264059Y-96654662D01*
X119269228Y-96645589D01*
X119290394Y-96608195D01*
X119292511Y-96336556D01*
X119293309Y-96232058D01*
X119293206Y-96152770D01*
X119291630Y-96094400D01*
X119290113Y-96071719D01*
X119288013Y-96052658D01*
X119285260Y-96036681D01*
X119281783Y-96023252D01*
X119277510Y-96011834D01*
X119272370Y-96001891D01*
X119266291Y-95992886D01*
X119259202Y-95984284D01*
X119241711Y-95966139D01*
X119234487Y-95959266D01*
X119227346Y-95952926D01*
X119220255Y-95947108D01*
X119213180Y-95941797D01*
X119206089Y-95936983D01*
X119198948Y-95932653D01*
X119191724Y-95928794D01*
X119184385Y-95925393D01*
X119176896Y-95922439D01*
X119169226Y-95919920D01*
X119161341Y-95917822D01*
X119153208Y-95916133D01*
X119144794Y-95914841D01*
X119136065Y-95913933D01*
X119126990Y-95913398D01*
X119117534Y-95913222D01*
X119103376Y-95914086D01*
X119074252Y-95916563D01*
X118978186Y-95925658D01*
X118843491Y-95939118D01*
X118684322Y-95955556D01*
X118471685Y-95978607D01*
X118344774Y-95993920D01*
X118305444Y-95999729D01*
X118277922Y-96004868D01*
X118258999Y-96009758D01*
X118245466Y-96014823D01*
X118236719Y-96019113D01*
X118228208Y-96023783D01*
X118219936Y-96028828D01*
X118211909Y-96034247D01*
X118204129Y-96040039D01*
X118196601Y-96046200D01*
X118189330Y-96052730D01*
X118182319Y-96059625D01*
X118175573Y-96066884D01*
X118169096Y-96074505D01*
X118162891Y-96082486D01*
X118156963Y-96090824D01*
X118151317Y-96099518D01*
X118145956Y-96108565D01*
X118140884Y-96117963D01*
X118136105Y-96127711D01*
X118115645Y-96170750D01*
X118115645Y-96442389D01*
X117500864Y-96442389D01*
X117501002Y-96419368D01*
X117500852Y-96342796D01*
X117499395Y-96286167D01*
X117498004Y-96264044D01*
X117496078Y-96245363D01*
X117493549Y-96229609D01*
X117490347Y-96216267D01*
X117486403Y-96204823D01*
X117481648Y-96194761D01*
X117476012Y-96185568D01*
X117469426Y-96176728D01*
X117453128Y-96158050D01*
X117446343Y-96150797D01*
X117439462Y-96144110D01*
X117432455Y-96137977D01*
X117425291Y-96132386D01*
X117417942Y-96127323D01*
X117410377Y-96122778D01*
X117402566Y-96118737D01*
X117394479Y-96115188D01*
X117386085Y-96112118D01*
X117377356Y-96109516D01*
X117368262Y-96107368D01*
X117358771Y-96105663D01*
X117348854Y-96104387D01*
X117338482Y-96103530D01*
X117327624Y-96103077D01*
X117316250Y-96103017D01*
X117299470Y-96103954D01*
X117271304Y-96106148D01*
X117186869Y-96113777D01*
X117075049Y-96124845D01*
X116947950Y-96138295D01*
X116774758Y-96157168D01*
X116717142Y-96163992D01*
X116674724Y-96169692D01*
X116644410Y-96174730D01*
X116623108Y-96179570D01*
X116607726Y-96184674D01*
X116595172Y-96190506D01*
X116586674Y-96195052D01*
X116578385Y-96199954D01*
X116570315Y-96205203D01*
X116562474Y-96210790D01*
X116554873Y-96216709D01*
X116547523Y-96222950D01*
X116540432Y-96229506D01*
X116533613Y-96236367D01*
X116527074Y-96243526D01*
X116520827Y-96250974D01*
X116514882Y-96258703D01*
X116509249Y-96266706D01*
X116503938Y-96274973D01*
X116498960Y-96283496D01*
X116494326Y-96292267D01*
X116490044Y-96301278D01*
X116471700Y-96340083D01*
X116471700Y-96615250D01*
X115860026Y-96615250D01*
X115860512Y-95768584D01*
X115864547Y-95638122D01*
X115868028Y-95613033D01*
X115872683Y-95598545D01*
X115876532Y-95589315D01*
X115880913Y-95580166D01*
X115885799Y-95571131D01*
X115891160Y-95562242D01*
X115896968Y-95553530D01*
X115903193Y-95545029D01*
X115909807Y-95536769D01*
X115916781Y-95528783D01*
X115924085Y-95521103D01*
X115931691Y-95513761D01*
X115939570Y-95506789D01*
X115947693Y-95500219D01*
X115956030Y-95494083D01*
X115964554Y-95488413D01*
X115973235Y-95483242D01*
X115982044Y-95478600D01*
X115985684Y-95476914D01*
X115989671Y-95475270D01*
X115994326Y-95473632D01*
X115999966Y-95471965D01*
X116006911Y-95470232D01*
X116015480Y-95468398D01*
X116025991Y-95466426D01*
X116038765Y-95464280D01*
X116054119Y-95461924D01*
X116072372Y-95459322D01*
X116118855Y-95453237D01*
X116180764Y-95445737D01*
X116260651Y-95436531D01*
X116361068Y-95425334D01*
X116484567Y-95411855D01*
X116811017Y-95376901D01*
X117260416Y-95329363D01*
X117316250Y-95323482D01*
X117853178Y-95266933D01*
X119117534Y-95134773D01*
G37*
X119117534Y-95134773D02*
X119160131Y-95130320D01*
X119729955Y-95073611D01*
X119739203Y-95073804D01*
X119748774Y-95074361D01*
X119758394Y-95075248D01*
X119767791Y-95076434D01*
X119776692Y-95077883D01*
X119784824Y-95079565D01*
X119788516Y-95080482D01*
X119791914Y-95081444D01*
X119794983Y-95082448D01*
X119797689Y-95083489D01*
X119803866Y-95086277D01*
X119810195Y-95089587D01*
X119816629Y-95093378D01*
X119823122Y-95097611D01*
X119829628Y-95102245D01*
X119836099Y-95107240D01*
X119842490Y-95112554D01*
X119848754Y-95118149D01*
X119854844Y-95123984D01*
X119860714Y-95130019D01*
X119866317Y-95136212D01*
X119871607Y-95142524D01*
X119876537Y-95148915D01*
X119881062Y-95155344D01*
X119885133Y-95161771D01*
X119888705Y-95168156D01*
X119904228Y-95197083D01*
X119906345Y-96242717D01*
X119905904Y-97153589D01*
X119902078Y-97285705D01*
X119898772Y-97312141D01*
X119894350Y-97327862D01*
X119889430Y-97340570D01*
X119883699Y-97353002D01*
X119877205Y-97365112D01*
X119869997Y-97376853D01*
X119862124Y-97388182D01*
X119853633Y-97399051D01*
X119844574Y-97409416D01*
X119834995Y-97419231D01*
X119824945Y-97428450D01*
X119814472Y-97437029D01*
X119803625Y-97444922D01*
X119792452Y-97452083D01*
X119781003Y-97458467D01*
X119769325Y-97464028D01*
X119757467Y-97468721D01*
X119745478Y-97472500D01*
X119522930Y-97499311D01*
X119069467Y-97547289D01*
X118611110Y-97593150D01*
X118373878Y-97613611D01*
X118356320Y-97613487D01*
X118339748Y-97613082D01*
X118323938Y-97612346D01*
X118308669Y-97611230D01*
X118293718Y-97609684D01*
X118278863Y-97607658D01*
X118263883Y-97605103D01*
X118248553Y-97601970D01*
X118232654Y-97598208D01*
X118215961Y-97593768D01*
X118198254Y-97588600D01*
X118179310Y-97582655D01*
X118158906Y-97575883D01*
X118136821Y-97568235D01*
X118086716Y-97550111D01*
X118036559Y-97531867D01*
X118015301Y-97524480D01*
X117996207Y-97518196D01*
X117978990Y-97512974D01*
X117963363Y-97508774D01*
X117949038Y-97505556D01*
X117935728Y-97503280D01*
X117923145Y-97501905D01*
X117911003Y-97501391D01*
X117899014Y-97501697D01*
X117886890Y-97502784D01*
X117874345Y-97504611D01*
X117861091Y-97507137D01*
X117831306Y-97514128D01*
X117809737Y-97520114D01*
X117799810Y-97523145D01*
X117790251Y-97526299D01*
X117780908Y-97529652D01*
X117771626Y-97533277D01*
X117762253Y-97537250D01*
X117752636Y-97541645D01*
X117742623Y-97546535D01*
X117732059Y-97551997D01*
X117720793Y-97558103D01*
X117708671Y-97564928D01*
X117681248Y-97581035D01*
X117648567Y-97600911D01*
X117617299Y-97619080D01*
X117584559Y-97636454D01*
X117550662Y-97652902D01*
X117515922Y-97668292D01*
X117480653Y-97682491D01*
X117445168Y-97695368D01*
X117409783Y-97706789D01*
X117374811Y-97716623D01*
X117291503Y-97729667D01*
X117128109Y-97749938D01*
X116670667Y-97800584D01*
X116221691Y-97845409D01*
X116068880Y-97858404D01*
X116000389Y-97861262D01*
X115991896Y-97859273D01*
X115983374Y-97856762D01*
X115974863Y-97853753D01*
X115966401Y-97850270D01*
X115958026Y-97846336D01*
X115949775Y-97841976D01*
X115941688Y-97837212D01*
X115933802Y-97832069D01*
X115926156Y-97826570D01*
X115918788Y-97820740D01*
X115911737Y-97814602D01*
X115905040Y-97808179D01*
X115898735Y-97801496D01*
X115892862Y-97794577D01*
X115887458Y-97787444D01*
X115882561Y-97780123D01*
X115861395Y-97745550D01*
X115859983Y-96690039D01*
X115860026Y-96615250D01*
X116471700Y-96615250D01*
X116472031Y-96769370D01*
X116472667Y-96819393D01*
X116473817Y-96855492D01*
X116475627Y-96880743D01*
X116478248Y-96898222D01*
X116481829Y-96911005D01*
X116486517Y-96922167D01*
X116490094Y-96929845D01*
X116493706Y-96937028D01*
X116497386Y-96943747D01*
X116501168Y-96950036D01*
X116505087Y-96955929D01*
X116509176Y-96961458D01*
X116513470Y-96966655D01*
X116518002Y-96971556D01*
X116522808Y-96976191D01*
X116527920Y-96980596D01*
X116533373Y-96984801D01*
X116539202Y-96988842D01*
X116545440Y-96992750D01*
X116552121Y-96996559D01*
X116559280Y-97000302D01*
X116566950Y-97004011D01*
X116571683Y-97006178D01*
X116576369Y-97008183D01*
X116581028Y-97010028D01*
X116585680Y-97011717D01*
X116590345Y-97013253D01*
X116595041Y-97014640D01*
X116599789Y-97015880D01*
X116604609Y-97016976D01*
X116609519Y-97017931D01*
X116614541Y-97018749D01*
X116619692Y-97019433D01*
X116624993Y-97019985D01*
X116630464Y-97020410D01*
X116636123Y-97020709D01*
X116641992Y-97020886D01*
X116648089Y-97020944D01*
X116696559Y-97018253D01*
X116780789Y-97011056D01*
X117006952Y-96988401D01*
X117227427Y-96963497D01*
X117304546Y-96953488D01*
X117343061Y-96946861D01*
X117352914Y-96943664D01*
X117362617Y-96939905D01*
X117372152Y-96935600D01*
X117381503Y-96930766D01*
X117390651Y-96925419D01*
X117399579Y-96919576D01*
X117408269Y-96913254D01*
X117416704Y-96906468D01*
X117424865Y-96899236D01*
X117432737Y-96891574D01*
X117440301Y-96883499D01*
X117447539Y-96875027D01*
X117454433Y-96866174D01*
X117460967Y-96856958D01*
X117467123Y-96847395D01*
X117472883Y-96837500D01*
X117498283Y-96791639D01*
X117500400Y-96520000D01*
X117500864Y-96442389D01*
X118115645Y-96442389D01*
X118115975Y-96594470D01*
X118116612Y-96643865D01*
X118117761Y-96679544D01*
X118119572Y-96704540D01*
X118122193Y-96721888D01*
X118125773Y-96734623D01*
X118130461Y-96745778D01*
X118135750Y-96756624D01*
X118141556Y-96766931D01*
X118147863Y-96776688D01*
X118154659Y-96785884D01*
X118161931Y-96794511D01*
X118169665Y-96802556D01*
X118177847Y-96810010D01*
X118186464Y-96816863D01*
X118195504Y-96823104D01*
X118204951Y-96828722D01*
X118214793Y-96833708D01*
X118225016Y-96838052D01*
X118235608Y-96841742D01*
X118246554Y-96844768D01*
X118257841Y-96847121D01*
X118269456Y-96848789D01*
X118319443Y-96846984D01*
X118421304Y-96838581D01*
X118711133Y-96809455D01*
X118999904Y-96776360D01*
X119100443Y-96762995D01*
X119148578Y-96754245D01*
X119156971Y-96751001D01*
X119165453Y-96747116D01*
X119173981Y-96742625D01*
X119182511Y-96737565D01*
X119190999Y-96731971D01*
X119199403Y-96725880D01*
X119207678Y-96719329D01*
X119215782Y-96712352D01*
X119223671Y-96704987D01*
X119231302Y-96697270D01*
X119238630Y-96689236D01*
X119245614Y-96680922D01*
X119252209Y-96672364D01*
X119258372Y-96663599D01*
X119264059Y-96654662D01*
X119269228Y-96645589D01*
X119290394Y-96608195D01*
X119292511Y-96336556D01*
X119293309Y-96232058D01*
X119293206Y-96152770D01*
X119291630Y-96094400D01*
X119290113Y-96071719D01*
X119288013Y-96052658D01*
X119285260Y-96036681D01*
X119281783Y-96023252D01*
X119277510Y-96011834D01*
X119272370Y-96001891D01*
X119266291Y-95992886D01*
X119259202Y-95984284D01*
X119241711Y-95966139D01*
X119234487Y-95959266D01*
X119227346Y-95952926D01*
X119220255Y-95947108D01*
X119213180Y-95941797D01*
X119206089Y-95936983D01*
X119198948Y-95932653D01*
X119191724Y-95928794D01*
X119184385Y-95925393D01*
X119176896Y-95922439D01*
X119169226Y-95919920D01*
X119161341Y-95917822D01*
X119153208Y-95916133D01*
X119144794Y-95914841D01*
X119136065Y-95913933D01*
X119126990Y-95913398D01*
X119117534Y-95913222D01*
X119103376Y-95914086D01*
X119074252Y-95916563D01*
X118978186Y-95925658D01*
X118843491Y-95939118D01*
X118684322Y-95955556D01*
X118471685Y-95978607D01*
X118344774Y-95993920D01*
X118305444Y-95999729D01*
X118277922Y-96004868D01*
X118258999Y-96009758D01*
X118245466Y-96014823D01*
X118236719Y-96019113D01*
X118228208Y-96023783D01*
X118219936Y-96028828D01*
X118211909Y-96034247D01*
X118204129Y-96040039D01*
X118196601Y-96046200D01*
X118189330Y-96052730D01*
X118182319Y-96059625D01*
X118175573Y-96066884D01*
X118169096Y-96074505D01*
X118162891Y-96082486D01*
X118156963Y-96090824D01*
X118151317Y-96099518D01*
X118145956Y-96108565D01*
X118140884Y-96117963D01*
X118136105Y-96127711D01*
X118115645Y-96170750D01*
X118115645Y-96442389D01*
X117500864Y-96442389D01*
X117501002Y-96419368D01*
X117500852Y-96342796D01*
X117499395Y-96286167D01*
X117498004Y-96264044D01*
X117496078Y-96245363D01*
X117493549Y-96229609D01*
X117490347Y-96216267D01*
X117486403Y-96204823D01*
X117481648Y-96194761D01*
X117476012Y-96185568D01*
X117469426Y-96176728D01*
X117453128Y-96158050D01*
X117446343Y-96150797D01*
X117439462Y-96144110D01*
X117432455Y-96137977D01*
X117425291Y-96132386D01*
X117417942Y-96127323D01*
X117410377Y-96122778D01*
X117402566Y-96118737D01*
X117394479Y-96115188D01*
X117386085Y-96112118D01*
X117377356Y-96109516D01*
X117368262Y-96107368D01*
X117358771Y-96105663D01*
X117348854Y-96104387D01*
X117338482Y-96103530D01*
X117327624Y-96103077D01*
X117316250Y-96103017D01*
X117299470Y-96103954D01*
X117271304Y-96106148D01*
X117186869Y-96113777D01*
X117075049Y-96124845D01*
X116947950Y-96138295D01*
X116774758Y-96157168D01*
X116717142Y-96163992D01*
X116674724Y-96169692D01*
X116644410Y-96174730D01*
X116623108Y-96179570D01*
X116607726Y-96184674D01*
X116595172Y-96190506D01*
X116586674Y-96195052D01*
X116578385Y-96199954D01*
X116570315Y-96205203D01*
X116562474Y-96210790D01*
X116554873Y-96216709D01*
X116547523Y-96222950D01*
X116540432Y-96229506D01*
X116533613Y-96236367D01*
X116527074Y-96243526D01*
X116520827Y-96250974D01*
X116514882Y-96258703D01*
X116509249Y-96266706D01*
X116503938Y-96274973D01*
X116498960Y-96283496D01*
X116494326Y-96292267D01*
X116490044Y-96301278D01*
X116471700Y-96340083D01*
X116471700Y-96615250D01*
X115860026Y-96615250D01*
X115860512Y-95768584D01*
X115864547Y-95638122D01*
X115868028Y-95613033D01*
X115872683Y-95598545D01*
X115876532Y-95589315D01*
X115880913Y-95580166D01*
X115885799Y-95571131D01*
X115891160Y-95562242D01*
X115896968Y-95553530D01*
X115903193Y-95545029D01*
X115909807Y-95536769D01*
X115916781Y-95528783D01*
X115924085Y-95521103D01*
X115931691Y-95513761D01*
X115939570Y-95506789D01*
X115947693Y-95500219D01*
X115956030Y-95494083D01*
X115964554Y-95488413D01*
X115973235Y-95483242D01*
X115982044Y-95478600D01*
X115985684Y-95476914D01*
X115989671Y-95475270D01*
X115994326Y-95473632D01*
X115999966Y-95471965D01*
X116006911Y-95470232D01*
X116015480Y-95468398D01*
X116025991Y-95466426D01*
X116038765Y-95464280D01*
X116054119Y-95461924D01*
X116072372Y-95459322D01*
X116118855Y-95453237D01*
X116180764Y-95445737D01*
X116260651Y-95436531D01*
X116361068Y-95425334D01*
X116484567Y-95411855D01*
X116811017Y-95376901D01*
X117260416Y-95329363D01*
X117316250Y-95323482D01*
X117853178Y-95266933D01*
X119117534Y-95134773D01*
D11*
X128511171Y-96221161D02*
X128558790Y-96364019D01*
X128606409Y-96411638D01*
X128701647Y-96459257D01*
X128844504Y-96459257D01*
X128939742Y-96411638D01*
X128987361Y-96364019D01*
X129034980Y-96268780D01*
X129034980Y-95887828D01*
X128034980Y-95887828D01*
X128034980Y-96221161D01*
X128082600Y-96316400D01*
X128130219Y-96364019D01*
X128225457Y-96411638D01*
X128320695Y-96411638D01*
X128415933Y-96364019D01*
X128463552Y-96316400D01*
X128511171Y-96221161D01*
X128511171Y-95887828D01*
X129034980Y-97030685D02*
X128987361Y-96935447D01*
X128892123Y-96887828D01*
X128034980Y-96887828D01*
X128368314Y-97840209D02*
X129034980Y-97840209D01*
X128368314Y-97411638D02*
X128892123Y-97411638D01*
X128987361Y-97459257D01*
X129034980Y-97554495D01*
X129034980Y-97697352D01*
X128987361Y-97792590D01*
X128939742Y-97840209D01*
X128987361Y-98697352D02*
X129034980Y-98602114D01*
X129034980Y-98411638D01*
X128987361Y-98316400D01*
X128892123Y-98268780D01*
X128511171Y-98268780D01*
X128415933Y-98316400D01*
X128368314Y-98411638D01*
X128368314Y-98602114D01*
X128415933Y-98697352D01*
X128511171Y-98744971D01*
X128606409Y-98744971D01*
X128701647Y-98268780D01*
X128987361Y-99125923D02*
X129034980Y-99268780D01*
X129034980Y-99506876D01*
X128987361Y-99602114D01*
X128939742Y-99649733D01*
X128844504Y-99697352D01*
X128749266Y-99697352D01*
X128654028Y-99649733D01*
X128606409Y-99602114D01*
X128558790Y-99506876D01*
X128511171Y-99316400D01*
X128463552Y-99221161D01*
X128415933Y-99173542D01*
X128320695Y-99125923D01*
X128225457Y-99125923D01*
X128130219Y-99173542D01*
X128082600Y-99221161D01*
X128034980Y-99316400D01*
X128034980Y-99554495D01*
X128082600Y-99697352D01*
X128939742Y-100697352D02*
X128987361Y-100649733D01*
X129034980Y-100506876D01*
X129034980Y-100411638D01*
X128987361Y-100268780D01*
X128892123Y-100173542D01*
X128796885Y-100125923D01*
X128606409Y-100078304D01*
X128463552Y-100078304D01*
X128273076Y-100125923D01*
X128177838Y-100173542D01*
X128082600Y-100268780D01*
X128034980Y-100411638D01*
X128034980Y-100506876D01*
X128082600Y-100649733D01*
X128130219Y-100697352D01*
X128987361Y-101078304D02*
X129034980Y-101221161D01*
X129034980Y-101459257D01*
X128987361Y-101554495D01*
X128939742Y-101602114D01*
X128844504Y-101649733D01*
X128749266Y-101649733D01*
X128654028Y-101602114D01*
X128606409Y-101554495D01*
X128558790Y-101459257D01*
X128511171Y-101268780D01*
X128463552Y-101173542D01*
X128415933Y-101125923D01*
X128320695Y-101078304D01*
X128225457Y-101078304D01*
X128130219Y-101125923D01*
X128082600Y-101173542D01*
X128034980Y-101268780D01*
X128034980Y-101506876D01*
X128082600Y-101649733D01*
X129034980Y-102078304D02*
X128034980Y-102078304D01*
X128273076Y-104125923D02*
X128225457Y-104030685D01*
X128225457Y-103840209D01*
X128273076Y-103744971D01*
X128368314Y-103649733D01*
X128463552Y-103602114D01*
X128654028Y-103602114D01*
X128749266Y-103649733D01*
X128844504Y-103744971D01*
X128892123Y-103840209D01*
X128892123Y-104030685D01*
X128844504Y-104125923D01*
X127892123Y-103935447D02*
X127939742Y-103697352D01*
X128082600Y-103459257D01*
X128320695Y-103316400D01*
X128558790Y-103268780D01*
X128796885Y-103316400D01*
X129034980Y-103459257D01*
X129177838Y-103697352D01*
X129225457Y-103935447D01*
X129177838Y-104173542D01*
X129034980Y-104411638D01*
X128796885Y-104554495D01*
X128558790Y-104602114D01*
X128320695Y-104554495D01*
X128082600Y-104411638D01*
X127939742Y-104173542D01*
X127892123Y-103935447D01*
X128511171Y-105792590D02*
X128511171Y-106125923D01*
X129034980Y-106268780D02*
X129034980Y-105792590D01*
X128034980Y-105792590D01*
X128034980Y-106268780D01*
X129034980Y-106697352D02*
X128368314Y-106697352D01*
X128558790Y-106697352D02*
X128463552Y-106744971D01*
X128415933Y-106792590D01*
X128368314Y-106887828D01*
X128368314Y-106983066D01*
X129034980Y-107316400D02*
X128368314Y-107316400D01*
X128034980Y-107316400D02*
X128082600Y-107268780D01*
X128130219Y-107316400D01*
X128082600Y-107364019D01*
X128034980Y-107316400D01*
X128130219Y-107316400D01*
X128987361Y-108221161D02*
X129034980Y-108125923D01*
X129034980Y-107935447D01*
X128987361Y-107840209D01*
X128939742Y-107792590D01*
X128844504Y-107744971D01*
X128558790Y-107744971D01*
X128463552Y-107792590D01*
X128415933Y-107840209D01*
X128368314Y-107935447D01*
X128368314Y-108125923D01*
X128415933Y-108221161D01*
X129034980Y-109411638D02*
X128034980Y-109411638D01*
X128511171Y-109411638D02*
X128511171Y-109983066D01*
X129034980Y-109983066D02*
X128034980Y-109983066D01*
X128987361Y-110840209D02*
X129034980Y-110744971D01*
X129034980Y-110554495D01*
X128987361Y-110459257D01*
X128892123Y-110411638D01*
X128511171Y-110411638D01*
X128415933Y-110459257D01*
X128368314Y-110554495D01*
X128368314Y-110744971D01*
X128415933Y-110840209D01*
X128511171Y-110887828D01*
X128606409Y-110887828D01*
X128701647Y-110411638D01*
X129034980Y-111459257D02*
X128987361Y-111364019D01*
X128892123Y-111316400D01*
X128034980Y-111316400D01*
X128368314Y-112268780D02*
X129177838Y-112268780D01*
X129273076Y-112221161D01*
X129320695Y-112173542D01*
X129368314Y-112078304D01*
X129368314Y-111935447D01*
X129320695Y-111840209D01*
X128987361Y-112268780D02*
X129034980Y-112173542D01*
X129034980Y-111983066D01*
X128987361Y-111887828D01*
X128939742Y-111840209D01*
X128844504Y-111792590D01*
X128558790Y-111792590D01*
X128463552Y-111840209D01*
X128415933Y-111887828D01*
X128368314Y-111983066D01*
X128368314Y-112173542D01*
X128415933Y-112268780D01*
X128987361Y-113125923D02*
X129034980Y-113030685D01*
X129034980Y-112840209D01*
X128987361Y-112744971D01*
X128892123Y-112697352D01*
X128511171Y-112697352D01*
X128415933Y-112744971D01*
X128368314Y-112840209D01*
X128368314Y-113030685D01*
X128415933Y-113125923D01*
X128511171Y-113173542D01*
X128606409Y-113173542D01*
X128701647Y-112697352D01*
X128987361Y-113554495D02*
X129034980Y-113649733D01*
X129034980Y-113840209D01*
X128987361Y-113935447D01*
X128892123Y-113983066D01*
X128844504Y-113983066D01*
X128749266Y-113935447D01*
X128701647Y-113840209D01*
X128701647Y-113697352D01*
X128654028Y-113602114D01*
X128558790Y-113554495D01*
X128511171Y-113554495D01*
X128415933Y-113602114D01*
X128368314Y-113697352D01*
X128368314Y-113840209D01*
X128415933Y-113935447D01*
X129034980Y-114554495D02*
X128987361Y-114459257D01*
X128939742Y-114411638D01*
X128844504Y-114364019D01*
X128558790Y-114364019D01*
X128463552Y-114411638D01*
X128415933Y-114459257D01*
X128368314Y-114554495D01*
X128368314Y-114697352D01*
X128415933Y-114792590D01*
X128463552Y-114840209D01*
X128558790Y-114887828D01*
X128844504Y-114887828D01*
X128939742Y-114840209D01*
X128987361Y-114792590D01*
X129034980Y-114697352D01*
X129034980Y-114554495D01*
X128368314Y-115316400D02*
X129034980Y-115316400D01*
X128463552Y-115316400D02*
X128415933Y-115364019D01*
X128368314Y-115459257D01*
X128368314Y-115602114D01*
X128415933Y-115697352D01*
X128511171Y-115744971D01*
X129034980Y-115744971D01*
X130644980Y-94721161D02*
X129644980Y-94721161D01*
X129644980Y-95102114D01*
X129692600Y-95197352D01*
X129740219Y-95244971D01*
X129835457Y-95292590D01*
X129978314Y-95292590D01*
X130073552Y-95244971D01*
X130121171Y-95197352D01*
X130168790Y-95102114D01*
X130168790Y-94721161D01*
X130549742Y-96292590D02*
X130597361Y-96244971D01*
X130644980Y-96102114D01*
X130644980Y-96006876D01*
X130597361Y-95864019D01*
X130502123Y-95768780D01*
X130406885Y-95721161D01*
X130216409Y-95673542D01*
X130073552Y-95673542D01*
X129883076Y-95721161D01*
X129787838Y-95768780D01*
X129692600Y-95864019D01*
X129644980Y-96006876D01*
X129644980Y-96102114D01*
X129692600Y-96244971D01*
X129740219Y-96292590D01*
X130121171Y-97054495D02*
X130168790Y-97197352D01*
X130216409Y-97244971D01*
X130311647Y-97292590D01*
X130454504Y-97292590D01*
X130549742Y-97244971D01*
X130597361Y-97197352D01*
X130644980Y-97102114D01*
X130644980Y-96721161D01*
X129644980Y-96721161D01*
X129644980Y-97054495D01*
X129692600Y-97149733D01*
X129740219Y-97197352D01*
X129835457Y-97244971D01*
X129930695Y-97244971D01*
X130025933Y-97197352D01*
X130073552Y-97149733D01*
X130121171Y-97054495D01*
X130121171Y-96721161D01*
X129883076Y-99292590D02*
X129835457Y-99197352D01*
X129835457Y-99006876D01*
X129883076Y-98911638D01*
X129978314Y-98816400D01*
X130073552Y-98768780D01*
X130264028Y-98768780D01*
X130359266Y-98816400D01*
X130454504Y-98911638D01*
X130502123Y-99006876D01*
X130502123Y-99197352D01*
X130454504Y-99292590D01*
X129502123Y-99102114D02*
X129549742Y-98864019D01*
X129692600Y-98625923D01*
X129930695Y-98483066D01*
X130168790Y-98435447D01*
X130406885Y-98483066D01*
X130644980Y-98625923D01*
X130787838Y-98864019D01*
X130835457Y-99102114D01*
X130787838Y-99340209D01*
X130644980Y-99578304D01*
X130406885Y-99721161D01*
X130168790Y-99768780D01*
X129930695Y-99721161D01*
X129692600Y-99578304D01*
X129549742Y-99340209D01*
X129502123Y-99102114D01*
X129644980Y-100816400D02*
X129644980Y-101387828D01*
X130644980Y-101102114D02*
X129644980Y-101102114D01*
X130597361Y-102102114D02*
X130644980Y-102006876D01*
X130644980Y-101816400D01*
X130597361Y-101721161D01*
X130502123Y-101673542D01*
X130121171Y-101673542D01*
X130025933Y-101721161D01*
X129978314Y-101816400D01*
X129978314Y-102006876D01*
X130025933Y-102102114D01*
X130121171Y-102149733D01*
X130216409Y-102149733D01*
X130311647Y-101673542D01*
X130597361Y-103006876D02*
X130644980Y-102911638D01*
X130644980Y-102721161D01*
X130597361Y-102625923D01*
X130549742Y-102578304D01*
X130454504Y-102530685D01*
X130168790Y-102530685D01*
X130073552Y-102578304D01*
X130025933Y-102625923D01*
X129978314Y-102721161D01*
X129978314Y-102911638D01*
X130025933Y-103006876D01*
X130644980Y-103435447D02*
X129644980Y-103435447D01*
X130644980Y-103864019D02*
X130121171Y-103864019D01*
X130025933Y-103816400D01*
X129978314Y-103721161D01*
X129978314Y-103578304D01*
X130025933Y-103483066D01*
X130073552Y-103435447D01*
X130644980Y-105102114D02*
X129644980Y-105102114D01*
X130025933Y-105102114D02*
X129978314Y-105197352D01*
X129978314Y-105387828D01*
X130025933Y-105483066D01*
X130073552Y-105530685D01*
X130168790Y-105578304D01*
X130454504Y-105578304D01*
X130549742Y-105530685D01*
X130597361Y-105483066D01*
X130644980Y-105387828D01*
X130644980Y-105197352D01*
X130597361Y-105102114D01*
X129978314Y-105911638D02*
X130644980Y-106149733D01*
X129978314Y-106387828D02*
X130644980Y-106149733D01*
X130883076Y-106054495D01*
X130930695Y-106006876D01*
X130978314Y-105911638D01*
X130359266Y-107483066D02*
X130359266Y-107959257D01*
X130644980Y-107387828D02*
X129644980Y-107721161D01*
X130644980Y-108054495D01*
X129978314Y-108387828D02*
X130644980Y-108387828D01*
X130073552Y-108387828D02*
X130025933Y-108435447D01*
X129978314Y-108530685D01*
X129978314Y-108673542D01*
X130025933Y-108768780D01*
X130121171Y-108816400D01*
X130644980Y-108816400D01*
X130644980Y-109721161D02*
X129644980Y-109721161D01*
X130597361Y-109721161D02*
X130644980Y-109625923D01*
X130644980Y-109435447D01*
X130597361Y-109340209D01*
X130549742Y-109292590D01*
X130454504Y-109244971D01*
X130168790Y-109244971D01*
X130073552Y-109292590D01*
X130025933Y-109340209D01*
X129978314Y-109435447D01*
X129978314Y-109625923D01*
X130025933Y-109721161D01*
X130644980Y-110197352D02*
X129978314Y-110197352D01*
X130168790Y-110197352D02*
X130073552Y-110244971D01*
X130025933Y-110292590D01*
X129978314Y-110387828D01*
X129978314Y-110483066D01*
X130644980Y-110959257D02*
X130597361Y-110864019D01*
X130549742Y-110816400D01*
X130454504Y-110768780D01*
X130168790Y-110768780D01*
X130073552Y-110816400D01*
X130025933Y-110864019D01*
X129978314Y-110959257D01*
X129978314Y-111102114D01*
X130025933Y-111197352D01*
X130073552Y-111244971D01*
X130168790Y-111292590D01*
X130454504Y-111292590D01*
X130549742Y-111244971D01*
X130597361Y-111197352D01*
X130644980Y-111102114D01*
X130644980Y-110959257D01*
X130644980Y-112149733D02*
X129644980Y-112149733D01*
X130597361Y-112149733D02*
X130644980Y-112054495D01*
X130644980Y-111864019D01*
X130597361Y-111768780D01*
X130549742Y-111721161D01*
X130454504Y-111673542D01*
X130168790Y-111673542D01*
X130073552Y-111721161D01*
X130025933Y-111768780D01*
X129978314Y-111864019D01*
X129978314Y-112054495D01*
X130025933Y-112149733D01*
X130644980Y-113054495D02*
X130121171Y-113054495D01*
X130025933Y-113006876D01*
X129978314Y-112911638D01*
X129978314Y-112721161D01*
X130025933Y-112625923D01*
X130597361Y-113054495D02*
X130644980Y-112959257D01*
X130644980Y-112721161D01*
X130597361Y-112625923D01*
X130502123Y-112578304D01*
X130406885Y-112578304D01*
X130311647Y-112625923D01*
X130264028Y-112721161D01*
X130264028Y-112959257D01*
X130216409Y-113054495D01*
X130597361Y-113578304D02*
X130644980Y-113578304D01*
X130740219Y-113530685D01*
X130787838Y-113483066D01*
X130644980Y-115244971D02*
X130644980Y-114768780D01*
X129644980Y-114768780D01*
X130644980Y-116054495D02*
X130644980Y-115578304D01*
X129644980Y-115578304D01*
X130549742Y-116959257D02*
X130597361Y-116911638D01*
X130644980Y-116768780D01*
X130644980Y-116673542D01*
X130597361Y-116530685D01*
X130502123Y-116435447D01*
X130406885Y-116387828D01*
X130216409Y-116340209D01*
X130073552Y-116340209D01*
X129883076Y-116387828D01*
X129787838Y-116435447D01*
X129692600Y-116530685D01*
X129644980Y-116673542D01*
X129644980Y-116768780D01*
X129692600Y-116911638D01*
X129740219Y-116959257D01*
X120481446Y-98419739D02*
X121481446Y-98753073D01*
X120481446Y-99086406D01*
X120576685Y-99372120D02*
X120529066Y-99419739D01*
X120481446Y-99514977D01*
X120481446Y-99753073D01*
X120529066Y-99848311D01*
X120576685Y-99895930D01*
X120671923Y-99943549D01*
X120767161Y-99943549D01*
X120910018Y-99895930D01*
X121481446Y-99324501D01*
X121481446Y-99943549D01*
X121100494Y-101134025D02*
X121100494Y-101895930D01*
X120576685Y-103086406D02*
X120529066Y-103134025D01*
X120481446Y-103229263D01*
X120481446Y-103467358D01*
X120529066Y-103562596D01*
X120576685Y-103610215D01*
X120671923Y-103657834D01*
X120767161Y-103657834D01*
X120910018Y-103610215D01*
X121481446Y-103038787D01*
X121481446Y-103657834D01*
X120481446Y-104276882D02*
X120481446Y-104372120D01*
X120529066Y-104467358D01*
X120576685Y-104514977D01*
X120671923Y-104562596D01*
X120862399Y-104610215D01*
X121100494Y-104610215D01*
X121290970Y-104562596D01*
X121386208Y-104514977D01*
X121433827Y-104467358D01*
X121481446Y-104372120D01*
X121481446Y-104276882D01*
X121433827Y-104181644D01*
X121386208Y-104134025D01*
X121290970Y-104086406D01*
X121100494Y-104038787D01*
X120862399Y-104038787D01*
X120671923Y-104086406D01*
X120576685Y-104134025D01*
X120529066Y-104181644D01*
X120481446Y-104276882D01*
X120576685Y-104991168D02*
X120529066Y-105038787D01*
X120481446Y-105134025D01*
X120481446Y-105372120D01*
X120529066Y-105467358D01*
X120576685Y-105514977D01*
X120671923Y-105562596D01*
X120767161Y-105562596D01*
X120910018Y-105514977D01*
X121481446Y-104943549D01*
X121481446Y-105562596D01*
X120576685Y-105943549D02*
X120529066Y-105991168D01*
X120481446Y-106086406D01*
X120481446Y-106324501D01*
X120529066Y-106419739D01*
X120576685Y-106467358D01*
X120671923Y-106514977D01*
X120767161Y-106514977D01*
X120910018Y-106467358D01*
X121481446Y-105895930D01*
X121481446Y-106514977D01*
X121386208Y-106943549D02*
X121433827Y-106991168D01*
X121481446Y-106943549D01*
X121433827Y-106895930D01*
X121386208Y-106943549D01*
X121481446Y-106943549D01*
X121481446Y-107943549D02*
X121481446Y-107372120D01*
X121481446Y-107657834D02*
X120481446Y-107657834D01*
X120624304Y-107562596D01*
X120719542Y-107467358D01*
X120767161Y-107372120D01*
X120576685Y-108324501D02*
X120529066Y-108372120D01*
X120481446Y-108467358D01*
X120481446Y-108705454D01*
X120529066Y-108800692D01*
X120576685Y-108848311D01*
X120671923Y-108895930D01*
X120767161Y-108895930D01*
X120910018Y-108848311D01*
X121481446Y-108276882D01*
X121481446Y-108895930D01*
X121481446Y-109753073D02*
X120957637Y-109753073D01*
X120862399Y-109705454D01*
X120814780Y-109610215D01*
X120814780Y-109419739D01*
X120862399Y-109324501D01*
X121433827Y-109753073D02*
X121481446Y-109657834D01*
X121481446Y-109419739D01*
X121433827Y-109324501D01*
X121338589Y-109276882D01*
X121243351Y-109276882D01*
X121148113Y-109324501D01*
X121100494Y-109419739D01*
X121100494Y-109657834D01*
X121052875Y-109753073D01*
M02*
