%TF.GenerationSoftware,KiCad,Pcbnew,8.0.2*%
%TF.CreationDate,2024-11-30T10:22:52-06:00*%
%TF.ProjectId,Desktop_50_Pin_TopConn,4465736b-746f-4705-9f35-305f50696e5f,rev?*%
%TF.SameCoordinates,Original*%
%TF.FileFunction,Legend,Bot*%
%TF.FilePolarity,Positive*%
%FSLAX46Y46*%
G04 Gerber Fmt 4.6, Leading zero omitted, Abs format (unit mm)*
G04 Created by KiCad (PCBNEW 8.0.2) date 2024-11-30 10:22:52*
%MOMM*%
%LPD*%
G01*
G04 APERTURE LIST*
G04 Aperture macros list*
%AMHorizOval*
0 Thick line with rounded ends*
0 $1 width*
0 $2 $3 position (X,Y) of the first rounded end (center of the circle)*
0 $4 $5 position (X,Y) of the second rounded end (center of the circle)*
0 Add line between two ends*
20,1,$1,$2,$3,$4,$5,0*
0 Add two circle primitives to create the rounded ends*
1,1,$1,$2,$3*
1,1,$1,$4,$5*%
%AMRotRect*
0 Rectangle, with rotation*
0 The origin of the aperture is its center*
0 $1 length*
0 $2 width*
0 $3 Rotation angle, in degrees counterclockwise*
0 Add horizontal line*
21,1,$1,$2,0,0,$3*%
%AMFreePoly0*
4,1,19,0.500000,-0.750000,0.000000,-0.750000,0.000000,-0.744911,-0.071157,-0.744911,-0.207708,-0.704816,-0.327430,-0.627875,-0.420627,-0.520320,-0.479746,-0.390866,-0.500000,-0.250000,-0.500000,0.250000,-0.479746,0.390866,-0.420627,0.520320,-0.327430,0.627875,-0.207708,0.704816,-0.071157,0.744911,0.000000,0.744911,0.000000,0.750000,0.500000,0.750000,0.500000,-0.750000,0.500000,-0.750000,
$1*%
%AMFreePoly1*
4,1,19,0.000000,0.744911,0.071157,0.744911,0.207708,0.704816,0.327430,0.627875,0.420627,0.520320,0.479746,0.390866,0.500000,0.250000,0.500000,-0.250000,0.479746,-0.390866,0.420627,-0.520320,0.327430,-0.627875,0.207708,-0.704816,0.071157,-0.744911,0.000000,-0.744911,0.000000,-0.750000,-0.500000,-0.750000,-0.500000,0.750000,0.000000,0.750000,0.000000,0.744911,0.000000,0.744911,
$1*%
%AMFreePoly2*
4,1,19,0.550000,-0.750000,0.000000,-0.750000,0.000000,-0.744911,-0.071157,-0.744911,-0.207708,-0.704816,-0.327430,-0.627875,-0.420627,-0.520320,-0.479746,-0.390866,-0.500000,-0.250000,-0.500000,0.250000,-0.479746,0.390866,-0.420627,0.520320,-0.327430,0.627875,-0.207708,0.704816,-0.071157,0.744911,0.000000,0.744911,0.000000,0.750000,0.550000,0.750000,0.550000,-0.750000,0.550000,-0.750000,
$1*%
%AMFreePoly3*
4,1,19,0.000000,0.744911,0.071157,0.744911,0.207708,0.704816,0.327430,0.627875,0.420627,0.520320,0.479746,0.390866,0.500000,0.250000,0.500000,-0.250000,0.479746,-0.390866,0.420627,-0.520320,0.327430,-0.627875,0.207708,-0.704816,0.071157,-0.744911,0.000000,-0.744911,0.000000,-0.750000,-0.550000,-0.750000,-0.550000,0.750000,0.000000,0.750000,0.000000,0.744911,0.000000,0.744911,
$1*%
G04 Aperture macros list end*
%ADD10C,0.150000*%
%ADD11C,0.120000*%
%ADD12C,0.000000*%
%ADD13R,3.480000X1.846667*%
%ADD14C,2.200000*%
%ADD15C,0.650000*%
%ADD16O,2.100000X1.000000*%
%ADD17O,1.800000X1.000000*%
%ADD18RotRect,1.700000X1.700000X45.000000*%
%ADD19HorizOval,1.700000X0.000000X0.000000X0.000000X0.000000X0*%
%ADD20RotRect,1.700000X1.700000X135.000000*%
%ADD21HorizOval,1.700000X0.000000X0.000000X0.000000X0.000000X0*%
%ADD22C,1.700000*%
%ADD23C,1.524000*%
%ADD24R,0.850000X1.100000*%
%ADD25R,0.750000X1.100000*%
%ADD26R,1.200000X1.000000*%
%ADD27R,1.550000X1.350000*%
%ADD28R,1.900000X1.350000*%
%ADD29R,1.170000X1.800000*%
%ADD30FreePoly0,90.000000*%
%ADD31FreePoly1,90.000000*%
%ADD32FreePoly0,180.000000*%
%ADD33FreePoly1,180.000000*%
%ADD34R,0.750000X1.000000*%
%ADD35FreePoly2,180.000000*%
%ADD36R,1.000000X1.500000*%
%ADD37FreePoly3,180.000000*%
%ADD38FreePoly2,0.000000*%
%ADD39FreePoly3,0.000000*%
%ADD40C,1.000000*%
G04 APERTURE END LIST*
D10*
X45806904Y-33752200D02*
X45664047Y-33799819D01*
X45664047Y-33799819D02*
X45425952Y-33799819D01*
X45425952Y-33799819D02*
X45330714Y-33752200D01*
X45330714Y-33752200D02*
X45283095Y-33704580D01*
X45283095Y-33704580D02*
X45235476Y-33609342D01*
X45235476Y-33609342D02*
X45235476Y-33514104D01*
X45235476Y-33514104D02*
X45283095Y-33418866D01*
X45283095Y-33418866D02*
X45330714Y-33371247D01*
X45330714Y-33371247D02*
X45425952Y-33323628D01*
X45425952Y-33323628D02*
X45616428Y-33276009D01*
X45616428Y-33276009D02*
X45711666Y-33228390D01*
X45711666Y-33228390D02*
X45759285Y-33180771D01*
X45759285Y-33180771D02*
X45806904Y-33085533D01*
X45806904Y-33085533D02*
X45806904Y-32990295D01*
X45806904Y-32990295D02*
X45759285Y-32895057D01*
X45759285Y-32895057D02*
X45711666Y-32847438D01*
X45711666Y-32847438D02*
X45616428Y-32799819D01*
X45616428Y-32799819D02*
X45378333Y-32799819D01*
X45378333Y-32799819D02*
X45235476Y-32847438D01*
X44806904Y-33799819D02*
X44806904Y-32799819D01*
X44806904Y-32799819D02*
X44568809Y-32799819D01*
X44568809Y-32799819D02*
X44425952Y-32847438D01*
X44425952Y-32847438D02*
X44330714Y-32942676D01*
X44330714Y-32942676D02*
X44283095Y-33037914D01*
X44283095Y-33037914D02*
X44235476Y-33228390D01*
X44235476Y-33228390D02*
X44235476Y-33371247D01*
X44235476Y-33371247D02*
X44283095Y-33561723D01*
X44283095Y-33561723D02*
X44330714Y-33656961D01*
X44330714Y-33656961D02*
X44425952Y-33752200D01*
X44425952Y-33752200D02*
X44568809Y-33799819D01*
X44568809Y-33799819D02*
X44806904Y-33799819D01*
X43283095Y-33799819D02*
X43854523Y-33799819D01*
X43568809Y-33799819D02*
X43568809Y-32799819D01*
X43568809Y-32799819D02*
X43664047Y-32942676D01*
X43664047Y-32942676D02*
X43759285Y-33037914D01*
X43759285Y-33037914D02*
X43854523Y-33085533D01*
X45404819Y8783334D02*
X46119104Y8783334D01*
X46119104Y8783334D02*
X46261961Y8830953D01*
X46261961Y8830953D02*
X46357200Y8926191D01*
X46357200Y8926191D02*
X46404819Y9069048D01*
X46404819Y9069048D02*
X46404819Y9164286D01*
X46404819Y7783334D02*
X46404819Y8354762D01*
X46404819Y8069048D02*
X45404819Y8069048D01*
X45404819Y8069048D02*
X45547676Y8164286D01*
X45547676Y8164286D02*
X45642914Y8259524D01*
X45642914Y8259524D02*
X45690533Y8354762D01*
X48583333Y18962381D02*
X48583333Y18248096D01*
X48583333Y18248096D02*
X48630952Y18105239D01*
X48630952Y18105239D02*
X48726190Y18010000D01*
X48726190Y18010000D02*
X48869047Y17962381D01*
X48869047Y17962381D02*
X48964285Y17962381D01*
X48107142Y17962381D02*
X48107142Y18962381D01*
X48107142Y18962381D02*
X47726190Y18962381D01*
X47726190Y18962381D02*
X47630952Y18914762D01*
X47630952Y18914762D02*
X47583333Y18867143D01*
X47583333Y18867143D02*
X47535714Y18771905D01*
X47535714Y18771905D02*
X47535714Y18629048D01*
X47535714Y18629048D02*
X47583333Y18533810D01*
X47583333Y18533810D02*
X47630952Y18486191D01*
X47630952Y18486191D02*
X47726190Y18438572D01*
X47726190Y18438572D02*
X48107142Y18438572D01*
X47154761Y18867143D02*
X47107142Y18914762D01*
X47107142Y18914762D02*
X47011904Y18962381D01*
X47011904Y18962381D02*
X46773809Y18962381D01*
X46773809Y18962381D02*
X46678571Y18914762D01*
X46678571Y18914762D02*
X46630952Y18867143D01*
X46630952Y18867143D02*
X46583333Y18771905D01*
X46583333Y18771905D02*
X46583333Y18676667D01*
X46583333Y18676667D02*
X46630952Y18533810D01*
X46630952Y18533810D02*
X47202380Y17962381D01*
X47202380Y17962381D02*
X46583333Y17962381D01*
X37442200Y23372081D02*
X37489819Y23229224D01*
X37489819Y23229224D02*
X37489819Y22991129D01*
X37489819Y22991129D02*
X37442200Y22895891D01*
X37442200Y22895891D02*
X37394580Y22848272D01*
X37394580Y22848272D02*
X37299342Y22800653D01*
X37299342Y22800653D02*
X37204104Y22800653D01*
X37204104Y22800653D02*
X37108866Y22848272D01*
X37108866Y22848272D02*
X37061247Y22895891D01*
X37061247Y22895891D02*
X37013628Y22991129D01*
X37013628Y22991129D02*
X36966009Y23181605D01*
X36966009Y23181605D02*
X36918390Y23276843D01*
X36918390Y23276843D02*
X36870771Y23324462D01*
X36870771Y23324462D02*
X36775533Y23372081D01*
X36775533Y23372081D02*
X36680295Y23372081D01*
X36680295Y23372081D02*
X36585057Y23324462D01*
X36585057Y23324462D02*
X36537438Y23276843D01*
X36537438Y23276843D02*
X36489819Y23181605D01*
X36489819Y23181605D02*
X36489819Y22943510D01*
X36489819Y22943510D02*
X36537438Y22800653D01*
X36489819Y22467319D02*
X37489819Y22229224D01*
X37489819Y22229224D02*
X36775533Y22038748D01*
X36775533Y22038748D02*
X37489819Y21848272D01*
X37489819Y21848272D02*
X36489819Y21610176D01*
X36585057Y21276843D02*
X36537438Y21229224D01*
X36537438Y21229224D02*
X36489819Y21133986D01*
X36489819Y21133986D02*
X36489819Y20895891D01*
X36489819Y20895891D02*
X36537438Y20800653D01*
X36537438Y20800653D02*
X36585057Y20753034D01*
X36585057Y20753034D02*
X36680295Y20705415D01*
X36680295Y20705415D02*
X36775533Y20705415D01*
X36775533Y20705415D02*
X36918390Y20753034D01*
X36918390Y20753034D02*
X37489819Y21324462D01*
X37489819Y21324462D02*
X37489819Y20705415D01*
X37442200Y23372081D02*
X37489819Y23229224D01*
X37489819Y23229224D02*
X37489819Y22991129D01*
X37489819Y22991129D02*
X37442200Y22895891D01*
X37442200Y22895891D02*
X37394580Y22848272D01*
X37394580Y22848272D02*
X37299342Y22800653D01*
X37299342Y22800653D02*
X37204104Y22800653D01*
X37204104Y22800653D02*
X37108866Y22848272D01*
X37108866Y22848272D02*
X37061247Y22895891D01*
X37061247Y22895891D02*
X37013628Y22991129D01*
X37013628Y22991129D02*
X36966009Y23181605D01*
X36966009Y23181605D02*
X36918390Y23276843D01*
X36918390Y23276843D02*
X36870771Y23324462D01*
X36870771Y23324462D02*
X36775533Y23372081D01*
X36775533Y23372081D02*
X36680295Y23372081D01*
X36680295Y23372081D02*
X36585057Y23324462D01*
X36585057Y23324462D02*
X36537438Y23276843D01*
X36537438Y23276843D02*
X36489819Y23181605D01*
X36489819Y23181605D02*
X36489819Y22943510D01*
X36489819Y22943510D02*
X36537438Y22800653D01*
X36489819Y22467319D02*
X37489819Y22229224D01*
X37489819Y22229224D02*
X36775533Y22038748D01*
X36775533Y22038748D02*
X37489819Y21848272D01*
X37489819Y21848272D02*
X36489819Y21610176D01*
X36489819Y21324462D02*
X36489819Y20705415D01*
X36489819Y20705415D02*
X36870771Y21038748D01*
X36870771Y21038748D02*
X36870771Y20895891D01*
X36870771Y20895891D02*
X36918390Y20800653D01*
X36918390Y20800653D02*
X36966009Y20753034D01*
X36966009Y20753034D02*
X37061247Y20705415D01*
X37061247Y20705415D02*
X37299342Y20705415D01*
X37299342Y20705415D02*
X37394580Y20753034D01*
X37394580Y20753034D02*
X37442200Y20800653D01*
X37442200Y20800653D02*
X37489819Y20895891D01*
X37489819Y20895891D02*
X37489819Y21181605D01*
X37489819Y21181605D02*
X37442200Y21276843D01*
X37442200Y21276843D02*
X37394580Y21324462D01*
X40159523Y5495181D02*
X40159523Y4780896D01*
X40159523Y4780896D02*
X40207142Y4638039D01*
X40207142Y4638039D02*
X40302380Y4542800D01*
X40302380Y4542800D02*
X40445237Y4495181D01*
X40445237Y4495181D02*
X40540475Y4495181D01*
X39159523Y4495181D02*
X39730951Y4495181D01*
X39445237Y4495181D02*
X39445237Y5495181D01*
X39445237Y5495181D02*
X39540475Y5352324D01*
X39540475Y5352324D02*
X39635713Y5257086D01*
X39635713Y5257086D02*
X39730951Y5209467D01*
X38826189Y5495181D02*
X38207142Y5495181D01*
X38207142Y5495181D02*
X38540475Y5114229D01*
X38540475Y5114229D02*
X38397618Y5114229D01*
X38397618Y5114229D02*
X38302380Y5066610D01*
X38302380Y5066610D02*
X38254761Y5018991D01*
X38254761Y5018991D02*
X38207142Y4923753D01*
X38207142Y4923753D02*
X38207142Y4685658D01*
X38207142Y4685658D02*
X38254761Y4590420D01*
X38254761Y4590420D02*
X38302380Y4542800D01*
X38302380Y4542800D02*
X38397618Y4495181D01*
X38397618Y4495181D02*
X38683332Y4495181D01*
X38683332Y4495181D02*
X38778570Y4542800D01*
X38778570Y4542800D02*
X38826189Y4590420D01*
X56354819Y18383334D02*
X57069104Y18383334D01*
X57069104Y18383334D02*
X57211961Y18430953D01*
X57211961Y18430953D02*
X57307200Y18526191D01*
X57307200Y18526191D02*
X57354819Y18669048D01*
X57354819Y18669048D02*
X57354819Y18764286D01*
X56783390Y17764286D02*
X56735771Y17859524D01*
X56735771Y17859524D02*
X56688152Y17907143D01*
X56688152Y17907143D02*
X56592914Y17954762D01*
X56592914Y17954762D02*
X56545295Y17954762D01*
X56545295Y17954762D02*
X56450057Y17907143D01*
X56450057Y17907143D02*
X56402438Y17859524D01*
X56402438Y17859524D02*
X56354819Y17764286D01*
X56354819Y17764286D02*
X56354819Y17573810D01*
X56354819Y17573810D02*
X56402438Y17478572D01*
X56402438Y17478572D02*
X56450057Y17430953D01*
X56450057Y17430953D02*
X56545295Y17383334D01*
X56545295Y17383334D02*
X56592914Y17383334D01*
X56592914Y17383334D02*
X56688152Y17430953D01*
X56688152Y17430953D02*
X56735771Y17478572D01*
X56735771Y17478572D02*
X56783390Y17573810D01*
X56783390Y17573810D02*
X56783390Y17764286D01*
X56783390Y17764286D02*
X56831009Y17859524D01*
X56831009Y17859524D02*
X56878628Y17907143D01*
X56878628Y17907143D02*
X56973866Y17954762D01*
X56973866Y17954762D02*
X57164342Y17954762D01*
X57164342Y17954762D02*
X57259580Y17907143D01*
X57259580Y17907143D02*
X57307200Y17859524D01*
X57307200Y17859524D02*
X57354819Y17764286D01*
X57354819Y17764286D02*
X57354819Y17573810D01*
X57354819Y17573810D02*
X57307200Y17478572D01*
X57307200Y17478572D02*
X57259580Y17430953D01*
X57259580Y17430953D02*
X57164342Y17383334D01*
X57164342Y17383334D02*
X56973866Y17383334D01*
X56973866Y17383334D02*
X56878628Y17430953D01*
X56878628Y17430953D02*
X56831009Y17478572D01*
X56831009Y17478572D02*
X56783390Y17573810D01*
X54054819Y18483334D02*
X54769104Y18483334D01*
X54769104Y18483334D02*
X54911961Y18530953D01*
X54911961Y18530953D02*
X55007200Y18626191D01*
X55007200Y18626191D02*
X55054819Y18769048D01*
X55054819Y18769048D02*
X55054819Y18864286D01*
X54054819Y18102381D02*
X54054819Y17435715D01*
X54054819Y17435715D02*
X55054819Y17864286D01*
X37657200Y24583333D02*
X37704819Y24440476D01*
X37704819Y24440476D02*
X37704819Y24202381D01*
X37704819Y24202381D02*
X37657200Y24107143D01*
X37657200Y24107143D02*
X37609580Y24059524D01*
X37609580Y24059524D02*
X37514342Y24011905D01*
X37514342Y24011905D02*
X37419104Y24011905D01*
X37419104Y24011905D02*
X37323866Y24059524D01*
X37323866Y24059524D02*
X37276247Y24107143D01*
X37276247Y24107143D02*
X37228628Y24202381D01*
X37228628Y24202381D02*
X37181009Y24392857D01*
X37181009Y24392857D02*
X37133390Y24488095D01*
X37133390Y24488095D02*
X37085771Y24535714D01*
X37085771Y24535714D02*
X36990533Y24583333D01*
X36990533Y24583333D02*
X36895295Y24583333D01*
X36895295Y24583333D02*
X36800057Y24535714D01*
X36800057Y24535714D02*
X36752438Y24488095D01*
X36752438Y24488095D02*
X36704819Y24392857D01*
X36704819Y24392857D02*
X36704819Y24154762D01*
X36704819Y24154762D02*
X36752438Y24011905D01*
X36704819Y23678571D02*
X37704819Y23440476D01*
X37704819Y23440476D02*
X36990533Y23250000D01*
X36990533Y23250000D02*
X37704819Y23059524D01*
X37704819Y23059524D02*
X36704819Y22821428D01*
X37704819Y21916667D02*
X37704819Y22488095D01*
X37704819Y22202381D02*
X36704819Y22202381D01*
X36704819Y22202381D02*
X36847676Y22297619D01*
X36847676Y22297619D02*
X36942914Y22392857D01*
X36942914Y22392857D02*
X36990533Y22488095D01*
X24533333Y-26604819D02*
X24533333Y-27319104D01*
X24533333Y-27319104D02*
X24580952Y-27461961D01*
X24580952Y-27461961D02*
X24676190Y-27557200D01*
X24676190Y-27557200D02*
X24819047Y-27604819D01*
X24819047Y-27604819D02*
X24914285Y-27604819D01*
X23628571Y-26604819D02*
X23819047Y-26604819D01*
X23819047Y-26604819D02*
X23914285Y-26652438D01*
X23914285Y-26652438D02*
X23961904Y-26700057D01*
X23961904Y-26700057D02*
X24057142Y-26842914D01*
X24057142Y-26842914D02*
X24104761Y-27033390D01*
X24104761Y-27033390D02*
X24104761Y-27414342D01*
X24104761Y-27414342D02*
X24057142Y-27509580D01*
X24057142Y-27509580D02*
X24009523Y-27557200D01*
X24009523Y-27557200D02*
X23914285Y-27604819D01*
X23914285Y-27604819D02*
X23723809Y-27604819D01*
X23723809Y-27604819D02*
X23628571Y-27557200D01*
X23628571Y-27557200D02*
X23580952Y-27509580D01*
X23580952Y-27509580D02*
X23533333Y-27414342D01*
X23533333Y-27414342D02*
X23533333Y-27176247D01*
X23533333Y-27176247D02*
X23580952Y-27081009D01*
X23580952Y-27081009D02*
X23628571Y-27033390D01*
X23628571Y-27033390D02*
X23723809Y-26985771D01*
X23723809Y-26985771D02*
X23914285Y-26985771D01*
X23914285Y-26985771D02*
X24009523Y-27033390D01*
X24009523Y-27033390D02*
X24057142Y-27081009D01*
X24057142Y-27081009D02*
X24104761Y-27176247D01*
X48586904Y-8206819D02*
X48015476Y-8206819D01*
X48301190Y-9206819D02*
X48301190Y-8206819D01*
X47682142Y-9206819D02*
X47682142Y-8206819D01*
X47682142Y-8206819D02*
X47301190Y-8206819D01*
X47301190Y-8206819D02*
X47205952Y-8254438D01*
X47205952Y-8254438D02*
X47158333Y-8302057D01*
X47158333Y-8302057D02*
X47110714Y-8397295D01*
X47110714Y-8397295D02*
X47110714Y-8540152D01*
X47110714Y-8540152D02*
X47158333Y-8635390D01*
X47158333Y-8635390D02*
X47205952Y-8683009D01*
X47205952Y-8683009D02*
X47301190Y-8730628D01*
X47301190Y-8730628D02*
X47682142Y-8730628D01*
X46158333Y-9206819D02*
X46729761Y-9206819D01*
X46444047Y-9206819D02*
X46444047Y-8206819D01*
X46444047Y-8206819D02*
X46539285Y-8349676D01*
X46539285Y-8349676D02*
X46634523Y-8444914D01*
X46634523Y-8444914D02*
X46729761Y-8492533D01*
D11*
%TO.C,SD1*%
X38435000Y-36525000D02*
X38435000Y-46345000D01*
X38435000Y-46345000D02*
X39665000Y-46345000D01*
X41965000Y-46345000D02*
X45635000Y-46345000D01*
X47935000Y-46345000D02*
X50615000Y-46345000D01*
X48275000Y-34705000D02*
X49135000Y-34705000D01*
X50615000Y-40525000D02*
X50615000Y-36075000D01*
X50615000Y-44225000D02*
X50615000Y-41925000D01*
X50615000Y-46345000D02*
X50615000Y-45625000D01*
%TO.C,J1*%
X43150000Y7750000D02*
X43150000Y9150000D01*
X43850000Y9850000D02*
X44450000Y9850000D01*
X44450000Y7050000D02*
X43850000Y7050000D01*
X45150000Y9150000D02*
X45150000Y7750000D01*
X43150000Y9150000D02*
G75*
G02*
X43850000Y9850000I700000J0D01*
G01*
X43850000Y7050000D02*
G75*
G02*
X43150000Y7750000I-1J699999D01*
G01*
X44450000Y9850000D02*
G75*
G02*
X45150000Y9150000I0J-700000D01*
G01*
X45150000Y7750000D02*
G75*
G02*
X44450000Y7050000I-699999J-1D01*
G01*
%TO.C,JP2*%
X46350000Y20200000D02*
X46350000Y20800000D01*
X47050000Y21500000D02*
X48450000Y21500000D01*
X48450000Y19500000D02*
X47050000Y19500000D01*
X49150000Y20800000D02*
X49150000Y20200000D01*
X46350000Y20800000D02*
G75*
G02*
X47050000Y21500000I700000J0D01*
G01*
X47050000Y19500000D02*
G75*
G02*
X46350000Y20200000I0J700000D01*
G01*
X48450000Y21500000D02*
G75*
G02*
X49150000Y20800000I1J-699999D01*
G01*
X49150000Y20200000D02*
G75*
G02*
X48450000Y19500000I-699999J-1D01*
G01*
%TO.C,SW2*%
X30535000Y23338748D02*
X30535000Y20738748D01*
X30535000Y23338748D02*
X30985000Y23788748D01*
X30535000Y20738748D02*
X30985000Y20288748D01*
X32285000Y24788748D02*
X34285000Y24788748D01*
X32285000Y19288748D02*
X34285000Y19288748D01*
X36035000Y23338748D02*
X35585000Y23788748D01*
X36035000Y23338748D02*
X36035000Y20738748D01*
X36035000Y20738748D02*
X35585000Y20288748D01*
%TO.C,SW3*%
X30535000Y23338748D02*
X30535000Y20738748D01*
X30535000Y23338748D02*
X30985000Y23788748D01*
X30535000Y20738748D02*
X30985000Y20288748D01*
X32285000Y24788748D02*
X34285000Y24788748D01*
X32285000Y19288748D02*
X34285000Y19288748D01*
X36035000Y23338748D02*
X35585000Y23788748D01*
X36035000Y23338748D02*
X36035000Y20738748D01*
X36035000Y20738748D02*
X35585000Y20288748D01*
%TO.C,J13*%
X37300000Y2850000D02*
X37300000Y3450000D01*
X37950000Y4150000D02*
X40750000Y4150000D01*
X40250000Y1650000D02*
X40550000Y1950000D01*
X40250000Y1650000D02*
X40850000Y1650000D01*
X40750000Y2150000D02*
X37950000Y2150000D01*
X40850000Y1650000D02*
X40550000Y1950000D01*
X41400000Y3450000D02*
X41400000Y2850000D01*
X37300000Y3450000D02*
G75*
G02*
X38000000Y4150000I700000J0D01*
G01*
X38000000Y2150000D02*
G75*
G02*
X37300000Y2850000I0J700000D01*
G01*
X40700000Y4150000D02*
G75*
G02*
X41400000Y3450000I1J-699999D01*
G01*
X41400000Y2850000D02*
G75*
G02*
X40700000Y2150000I-699999J-1D01*
G01*
%TO.C,J8*%
X54100000Y17350000D02*
X54100000Y18750000D01*
X54800000Y19450000D02*
X55400000Y19450000D01*
X55400000Y16650000D02*
X54800000Y16650000D01*
X56100000Y18750000D02*
X56100000Y17350000D01*
X54100000Y18750000D02*
G75*
G02*
X54800000Y19450000I700000J0D01*
G01*
X54800000Y16650000D02*
G75*
G02*
X54100000Y17350000I-1J699999D01*
G01*
X55400000Y19450000D02*
G75*
G02*
X56100000Y18750000I0J-700000D01*
G01*
X56100000Y17350000D02*
G75*
G02*
X55400000Y16650000I-699999J-1D01*
G01*
%TO.C,J7*%
X51800000Y17450000D02*
X51800000Y18850000D01*
X52500000Y19550000D02*
X53100000Y19550000D01*
X53100000Y16750000D02*
X52500000Y16750000D01*
X53800000Y18850000D02*
X53800000Y17450000D01*
X51800000Y18850000D02*
G75*
G02*
X52500000Y19550000I700000J0D01*
G01*
X52500000Y16750000D02*
G75*
G02*
X51800000Y17450000I-1J699999D01*
G01*
X53100000Y19550000D02*
G75*
G02*
X53800000Y18850000I0J-700000D01*
G01*
X53800000Y17450000D02*
G75*
G02*
X53100000Y16750000I-699999J-1D01*
G01*
%TO.C,SW1*%
X38250000Y24550000D02*
X38700000Y25000000D01*
X38250000Y21950000D02*
X38250000Y24550000D01*
X38250000Y21950000D02*
X38700000Y21500000D01*
X42000000Y26000000D02*
X40000000Y26000000D01*
X42000000Y20500000D02*
X40000000Y20500000D01*
X43750000Y24550000D02*
X43300000Y25000000D01*
X43750000Y21950000D02*
X43300000Y21500000D01*
X43750000Y21950000D02*
X43750000Y24550000D01*
%TO.C,J6*%
X22150000Y-25650000D02*
X22150000Y-25050000D01*
X22700000Y-23850000D02*
X23000000Y-24150000D01*
X22800000Y-24350000D02*
X25600000Y-24350000D01*
X23300000Y-23850000D02*
X22700000Y-23850000D01*
X23300000Y-23850000D02*
X23000000Y-24150000D01*
X25600000Y-26350000D02*
X22800000Y-26350000D01*
X26250000Y-25050000D02*
X26250000Y-25650000D01*
X22150000Y-25050000D02*
G75*
G02*
X22850000Y-24350000I699999J1D01*
G01*
X22850000Y-26350000D02*
G75*
G02*
X22150000Y-25650000I-1J699999D01*
G01*
X25550000Y-24350000D02*
G75*
G02*
X26250000Y-25050000I0J-700000D01*
G01*
X26250000Y-25650000D02*
G75*
G02*
X25550000Y-26350000I-700000J0D01*
G01*
%TO.C,TP1*%
X48025000Y-10200000D02*
G75*
G02*
X46625000Y-10200000I-700000J0D01*
G01*
X46625000Y-10200000D02*
G75*
G02*
X48025000Y-10200000I700000J0D01*
G01*
D12*
%TO.C,G\u002A\u002A\u002A*%
G36*
X60494106Y15360234D02*
G01*
X60516033Y15356024D01*
X60539591Y15348876D01*
X60543751Y15347440D01*
X60598490Y15322386D01*
X60641892Y15289455D01*
X60674547Y15248083D01*
X60697043Y15197703D01*
X60703677Y15167657D01*
X60705147Y15116770D01*
X60702462Y15092399D01*
X60687623Y15040187D01*
X60660818Y14995234D01*
X60622031Y14957522D01*
X60571250Y14927029D01*
X60553287Y14918724D01*
X60535679Y14911781D01*
X60518727Y14907458D01*
X60498764Y14905138D01*
X60472128Y14904199D01*
X60435155Y14904024D01*
X60413139Y14904081D01*
X60381793Y14904688D01*
X60358933Y14906407D01*
X60340996Y14909777D01*
X60324417Y14915336D01*
X60305635Y14923624D01*
X60276142Y14939853D01*
X60236066Y14970929D01*
X60204040Y15007258D01*
X60183031Y15045879D01*
X60174838Y15075377D01*
X60169560Y15121781D01*
X60171330Y15169057D01*
X60180259Y15210785D01*
X60193871Y15239701D01*
X60221632Y15276602D01*
X60257915Y15309637D01*
X60299679Y15335629D01*
X60317941Y15344218D01*
X60337964Y15351754D01*
X60358692Y15356454D01*
X60384557Y15359255D01*
X60419992Y15361097D01*
X60436949Y15361700D01*
X60469262Y15361971D01*
X60494106Y15360234D01*
G37*
G36*
X61171120Y10468826D02*
G01*
X61255214Y10468826D01*
X61252999Y10449573D01*
X61250799Y10438512D01*
X61243893Y10432445D01*
X61228030Y10432598D01*
X61213171Y10433097D01*
X61206525Y10427928D01*
X61205276Y10413231D01*
X61206215Y10402076D01*
X61213064Y10390055D01*
X61229780Y10379902D01*
X61243416Y10372317D01*
X61252209Y10361511D01*
X61254284Y10344597D01*
X61254264Y10339801D01*
X61253161Y10328710D01*
X61248460Y10325769D01*
X61237547Y10330952D01*
X61217807Y10344232D01*
X61216272Y10345293D01*
X61203453Y10353014D01*
X61195026Y10352352D01*
X61184552Y10343085D01*
X61178488Y10338318D01*
X61156436Y10330249D01*
X61130647Y10329155D01*
X61107537Y10335657D01*
X61102515Y10339167D01*
X61089950Y10358184D01*
X61082019Y10388330D01*
X61080989Y10403078D01*
X61117763Y10403078D01*
X61118753Y10390323D01*
X61125888Y10371858D01*
X61138407Y10363868D01*
X61154518Y10368059D01*
X61164019Y10381171D01*
X61168945Y10405227D01*
X61171120Y10434716D01*
X61144441Y10432518D01*
X61137624Y10431913D01*
X61123910Y10428904D01*
X61118629Y10420772D01*
X61117763Y10403078D01*
X61080989Y10403078D01*
X61079257Y10427864D01*
X61079257Y10468826D01*
X61171120Y10468826D01*
G37*
G36*
X61187474Y10577086D02*
G01*
X61191754Y10576717D01*
X61213886Y10574808D01*
X61235715Y10568606D01*
X61259565Y10556914D01*
X61285334Y10540150D01*
X61319095Y10505956D01*
X61341680Y10463551D01*
X61348205Y10440833D01*
X61351363Y10394764D01*
X61342232Y10349556D01*
X61321779Y10307563D01*
X61290974Y10271138D01*
X61250784Y10242635D01*
X61242085Y10238602D01*
X61207790Y10229695D01*
X61168404Y10227121D01*
X61129602Y10230932D01*
X61097060Y10241184D01*
X61071369Y10256342D01*
X61037031Y10287795D01*
X61012973Y10325301D01*
X60999257Y10366708D01*
X60996768Y10399138D01*
X61038263Y10399138D01*
X61045238Y10360364D01*
X61063989Y10323703D01*
X61094733Y10291453D01*
X61099408Y10287927D01*
X61133861Y10271145D01*
X61171462Y10265960D01*
X61209401Y10271612D01*
X61244866Y10287344D01*
X61275047Y10312398D01*
X61297133Y10346017D01*
X61303303Y10362325D01*
X61309036Y10403272D01*
X61302027Y10443763D01*
X61282938Y10481325D01*
X61252426Y10513488D01*
X61228776Y10527583D01*
X61191754Y10537700D01*
X61152961Y10537415D01*
X61117213Y10526271D01*
X61085785Y10505173D01*
X61058756Y10473840D01*
X61042842Y10437730D01*
X61038263Y10399138D01*
X60996768Y10399138D01*
X60995945Y10409864D01*
X61003099Y10452615D01*
X61020782Y10492809D01*
X61049054Y10528292D01*
X61087978Y10556914D01*
X61098434Y10562477D01*
X61120656Y10571727D01*
X61143567Y10576129D01*
X61173772Y10577248D01*
X61187474Y10577086D01*
G37*
G36*
X60534728Y16116336D02*
G01*
X60645188Y16096451D01*
X60708326Y16078621D01*
X60810664Y16038623D01*
X60906864Y15987054D01*
X60996085Y15924891D01*
X61077484Y15853109D01*
X61150217Y15772684D01*
X61213442Y15684592D01*
X61266316Y15589810D01*
X61307996Y15489314D01*
X61337639Y15384080D01*
X61354403Y15275083D01*
X61354912Y15266505D01*
X61355681Y15243597D01*
X61356429Y15210560D01*
X61357114Y15169707D01*
X61357693Y15123350D01*
X61358124Y15073801D01*
X61359301Y14900524D01*
X60833914Y14900524D01*
X60871575Y14938185D01*
X60893342Y14961913D01*
X60934528Y15021636D01*
X60964644Y15089554D01*
X60967313Y15098361D01*
X60974422Y15136291D01*
X60978226Y15182563D01*
X60978773Y15233105D01*
X60976111Y15283840D01*
X60970288Y15330696D01*
X60961352Y15369598D01*
X60942776Y15421534D01*
X60918038Y15471321D01*
X60886385Y15516610D01*
X60844819Y15562359D01*
X60802625Y15600577D01*
X60744536Y15640775D01*
X60679590Y15672209D01*
X60604749Y15696580D01*
X60588752Y15700701D01*
X60561730Y15706749D01*
X60535974Y15710774D01*
X60507670Y15713168D01*
X60473001Y15714318D01*
X60428154Y15714615D01*
X60404484Y15714549D01*
X60365037Y15713872D01*
X60333914Y15712145D01*
X60307316Y15708984D01*
X60281446Y15704004D01*
X60252504Y15696820D01*
X60203376Y15681682D01*
X60126039Y15647704D01*
X60058622Y15604229D01*
X60001524Y15551729D01*
X59955145Y15490678D01*
X59919884Y15421548D01*
X59896141Y15344812D01*
X59884316Y15260945D01*
X59883243Y15219424D01*
X59890823Y15142353D01*
X59911040Y15070742D01*
X59943724Y15005104D01*
X59988705Y14945952D01*
X60030332Y14900524D01*
X59896070Y14900524D01*
X59896070Y14546968D01*
X59899571Y14546968D01*
X61355800Y14546968D01*
X61357824Y12908710D01*
X61357870Y12870451D01*
X61358080Y12675130D01*
X61358225Y12493452D01*
X61358306Y12325116D01*
X61358320Y12169821D01*
X61358267Y12027264D01*
X61358145Y11897145D01*
X61357955Y11779162D01*
X61357694Y11673013D01*
X61357362Y11578397D01*
X61356958Y11495011D01*
X61356480Y11422554D01*
X61355928Y11360726D01*
X61355301Y11309223D01*
X61354597Y11267745D01*
X61353816Y11235990D01*
X61352957Y11213656D01*
X61352017Y11200441D01*
X61337332Y11106566D01*
X61308364Y10997384D01*
X61267182Y10894908D01*
X61213568Y10798692D01*
X61147304Y10708295D01*
X61068172Y10623270D01*
X61041859Y10598765D01*
X60952245Y10526943D01*
X60857474Y10468136D01*
X60757583Y10422359D01*
X60652610Y10389627D01*
X60542592Y10369954D01*
X60427566Y10363358D01*
X60402065Y10363504D01*
X60342460Y10365595D01*
X60289551Y10370640D01*
X60238162Y10379246D01*
X60183115Y10392020D01*
X60172305Y10394879D01*
X60071556Y10429253D01*
X59974104Y10476198D01*
X59881704Y10534481D01*
X59796113Y10602867D01*
X59719086Y10680122D01*
X59652380Y10765012D01*
X59641426Y10781418D01*
X59603754Y10845804D01*
X59568676Y10917444D01*
X59538601Y10991104D01*
X59515937Y11061548D01*
X59495402Y11137431D01*
X59883427Y11137431D01*
X59885569Y11088424D01*
X60174559Y11084644D01*
X60174559Y11135936D01*
X60175783Y11162260D01*
X60187014Y11214248D01*
X60210027Y11258678D01*
X60244881Y11295643D01*
X60291633Y11325236D01*
X60313399Y11334796D01*
X60369253Y11350678D01*
X60427845Y11356774D01*
X60486373Y11353379D01*
X60542036Y11340789D01*
X60592033Y11319298D01*
X60633561Y11289203D01*
X60655010Y11266158D01*
X60675393Y11233187D01*
X60687536Y11194530D01*
X60692963Y11146529D01*
X60695922Y11084639D01*
X60836831Y11086531D01*
X60977741Y11088424D01*
X60978977Y11154934D01*
X60978999Y11178789D01*
X60971538Y11266779D01*
X60952504Y11349925D01*
X60922392Y11426891D01*
X60881692Y11496340D01*
X60830899Y11556933D01*
X60787942Y11595894D01*
X60724946Y11639688D01*
X60656665Y11672170D01*
X60581865Y11693774D01*
X60499314Y11704935D01*
X60407778Y11706088D01*
X60357762Y11703140D01*
X60301429Y11696084D01*
X60251202Y11684413D01*
X60202766Y11667061D01*
X60151802Y11642966D01*
X60115734Y11621003D01*
X60070788Y11586262D01*
X60027275Y11545623D01*
X59989063Y11502750D01*
X59960024Y11461311D01*
X59940787Y11424310D01*
X59914951Y11357199D01*
X59896099Y11284143D01*
X59885251Y11209450D01*
X59883427Y11137431D01*
X59495402Y11137431D01*
X59493507Y11144432D01*
X59492541Y12128087D01*
X59896070Y12128087D01*
X59896070Y11778032D01*
X60407778Y11778032D01*
X60967239Y11778032D01*
X60967239Y12128087D01*
X59896070Y12128087D01*
X59492541Y12128087D01*
X59492129Y12548153D01*
X59896070Y12548153D01*
X59896070Y12198098D01*
X60967239Y12198098D01*
X60967239Y12548153D01*
X59896070Y12548153D01*
X59492129Y12548153D01*
X59491479Y13209758D01*
X59491289Y13407352D01*
X59491118Y13596869D01*
X59491032Y13702719D01*
X59895823Y13702719D01*
X59897697Y13533961D01*
X59899571Y13365202D01*
X60183115Y13282315D01*
X60203606Y13276325D01*
X60267313Y13257703D01*
X60329117Y13239636D01*
X60387096Y13222688D01*
X60439327Y13207420D01*
X60483888Y13194395D01*
X60518854Y13184174D01*
X60542303Y13177320D01*
X60569628Y13168886D01*
X60593297Y13160602D01*
X60608339Y13154143D01*
X60612315Y13150444D01*
X60610595Y13149678D01*
X60597556Y13145271D01*
X60572884Y13137493D01*
X60537846Y13126724D01*
X60493703Y13113348D01*
X60441721Y13097745D01*
X60383163Y13080297D01*
X60319294Y13061387D01*
X60251376Y13041397D01*
X59896070Y12937117D01*
X59896070Y12766626D01*
X59896172Y12715479D01*
X59896558Y12672927D01*
X59897314Y12641543D01*
X59898523Y12619862D01*
X59900268Y12606421D01*
X59902634Y12599754D01*
X59905704Y12598398D01*
X59907174Y12598862D01*
X59919744Y12603269D01*
X59944077Y12611994D01*
X59979165Y12624668D01*
X60024002Y12640925D01*
X60077578Y12660400D01*
X60138885Y12682724D01*
X60206917Y12707533D01*
X60280664Y12734458D01*
X60359119Y12763133D01*
X60441273Y12793192D01*
X60967208Y12985722D01*
X60967130Y13160750D01*
X60967051Y13335777D01*
X60638068Y13436918D01*
X60627707Y13440107D01*
X60563564Y13459988D01*
X60504051Y13478672D01*
X60450421Y13495751D01*
X60403927Y13510815D01*
X60365820Y13523453D01*
X60337356Y13533257D01*
X60319785Y13539818D01*
X60314361Y13542725D01*
X60314466Y13542800D01*
X60322881Y13546010D01*
X60343272Y13552894D01*
X60374324Y13563030D01*
X60414720Y13575999D01*
X60463146Y13591381D01*
X60518285Y13608755D01*
X60578821Y13627701D01*
X60643438Y13647799D01*
X60967239Y13748208D01*
X60967239Y13921952D01*
X60967233Y13956573D01*
X60967133Y14002478D01*
X60966794Y14037106D01*
X60966068Y14062143D01*
X60964808Y14079276D01*
X60962867Y14090191D01*
X60960098Y14096575D01*
X60956353Y14100114D01*
X60951486Y14102495D01*
X60950297Y14102974D01*
X60937923Y14107642D01*
X60913707Y14116610D01*
X60878681Y14129501D01*
X60833879Y14145935D01*
X60780335Y14165536D01*
X60719083Y14187924D01*
X60651154Y14212723D01*
X60577584Y14239553D01*
X60499406Y14268037D01*
X60417652Y14297796D01*
X59899571Y14486300D01*
X59897698Y14310591D01*
X59897657Y14306728D01*
X59897331Y14245555D01*
X59897714Y14196997D01*
X59898797Y14161395D01*
X59900568Y14139093D01*
X59903019Y14130435D01*
X59904711Y14129751D01*
X59917767Y14125472D01*
X59942465Y14117795D01*
X59977530Y14107106D01*
X60021690Y14093786D01*
X60073670Y14078219D01*
X60132196Y14060789D01*
X60195994Y14041879D01*
X60263792Y14021872D01*
X60293894Y14012985D01*
X60359437Y13993471D01*
X60420048Y13975203D01*
X60474511Y13958561D01*
X60521609Y13943925D01*
X60560125Y13931675D01*
X60588845Y13922191D01*
X60606550Y13915854D01*
X60612026Y13913042D01*
X60611998Y13913020D01*
X60604104Y13910107D01*
X60584111Y13903745D01*
X60553349Y13894330D01*
X60513152Y13882261D01*
X60464850Y13867933D01*
X60409774Y13851745D01*
X60349258Y13834094D01*
X60284631Y13815377D01*
X60222292Y13797380D01*
X60159400Y13779215D01*
X60101035Y13762349D01*
X60048687Y13747214D01*
X60003842Y13734238D01*
X59967987Y13723852D01*
X59942612Y13716486D01*
X59929202Y13712572D01*
X59895823Y13702719D01*
X59491032Y13702719D01*
X59490974Y13773335D01*
X59490857Y13937230D01*
X59490771Y14089037D01*
X59490718Y14229236D01*
X59490700Y14358309D01*
X59490718Y14476737D01*
X59490776Y14585003D01*
X59490874Y14683587D01*
X59491016Y14772970D01*
X59491203Y14853636D01*
X59491438Y14926063D01*
X59491722Y14990735D01*
X59492058Y15048133D01*
X59492448Y15098738D01*
X59492894Y15143032D01*
X59493398Y15181495D01*
X59493962Y15214610D01*
X59494589Y15242858D01*
X59495280Y15266721D01*
X59496037Y15286679D01*
X59496864Y15303215D01*
X59497761Y15316809D01*
X59498731Y15327944D01*
X59499777Y15337100D01*
X59500899Y15344760D01*
X59512723Y15403812D01*
X59544417Y15509405D01*
X59588605Y15611583D01*
X59644317Y15707897D01*
X59651591Y15718566D01*
X59686016Y15763391D01*
X59728026Y15811394D01*
X59774289Y15859095D01*
X59821469Y15903011D01*
X59866234Y15939661D01*
X59901891Y15965063D01*
X59997000Y16021118D01*
X60098069Y16065201D01*
X60203736Y16097038D01*
X60312642Y16116355D01*
X60423426Y16122879D01*
X60534728Y16116336D01*
G37*
%TD*%
%LPC*%
D13*
%TO.C,J3*%
X2000000Y15235000D03*
X2000000Y12465000D03*
X2000000Y9695000D03*
X2000000Y6925000D03*
X2000000Y4155000D03*
X2000000Y1385000D03*
X2000000Y-1385000D03*
X2000000Y-4155000D03*
X2000000Y-6925000D03*
X2000000Y-9695000D03*
X2000000Y-12465000D03*
X2000000Y-15235000D03*
%TD*%
D14*
%TO.C,H4*%
X18500000Y17500000D03*
%TD*%
D15*
%TO.C,J12*%
X57595000Y110000D03*
X57595000Y5890000D03*
D16*
X57075000Y-1320000D03*
D17*
X61275000Y-1320000D03*
D16*
X57075000Y7320000D03*
D17*
X61275000Y7320000D03*
%TD*%
D18*
%TO.C,J5*%
X54803949Y21696051D03*
D19*
X56600000Y19900000D03*
X58396051Y18103949D03*
%TD*%
D20*
%TO.C,J14*%
X50928949Y-14396051D03*
D21*
X52725000Y-12600000D03*
X54521051Y-10803949D03*
%TD*%
D14*
%TO.C,H3*%
X47500000Y-17500000D03*
%TD*%
%TO.C,H1*%
X47500000Y17500000D03*
%TD*%
D22*
%TO.C,J10*%
X58903500Y-4905400D03*
X58903500Y-7405400D03*
D23*
X58903500Y-9905400D03*
X58903500Y-12405400D03*
%TD*%
D14*
%TO.C,H2*%
X18500000Y-17500000D03*
%TD*%
D24*
%TO.C,SD1*%
X47650000Y-35075000D03*
X46550000Y-35075000D03*
X45450000Y-35075000D03*
X44350000Y-35075000D03*
X43250000Y-35075000D03*
X42150000Y-35075000D03*
X41050000Y-35075000D03*
D25*
X40000000Y-35075000D03*
D26*
X50285000Y-41225000D03*
X50285000Y-44925000D03*
D27*
X50110000Y-35200000D03*
D28*
X46785000Y-45900000D03*
X40815000Y-45900000D03*
D29*
X38790000Y-35425000D03*
%TD*%
D30*
%TO.C,J1*%
X44150000Y7800000D03*
D31*
X44150000Y9100000D03*
%TD*%
D32*
%TO.C,JP2*%
X48400000Y20500000D03*
D33*
X47100000Y20500000D03*
%TD*%
D34*
%TO.C,SW2*%
X35160000Y19038748D03*
X35160000Y25038748D03*
X31410000Y19038748D03*
X31410000Y25038748D03*
%TD*%
%TO.C,SW3*%
X35160000Y19038748D03*
X35160000Y25038748D03*
X31410000Y19038748D03*
X31410000Y25038748D03*
%TD*%
D35*
%TO.C,J13*%
X40650000Y3150000D03*
D36*
X39350000Y3150000D03*
D37*
X38050000Y3150000D03*
%TD*%
D30*
%TO.C,J8*%
X55100000Y17400000D03*
D31*
X55100000Y18700000D03*
%TD*%
D30*
%TO.C,J7*%
X52800000Y17500000D03*
D31*
X52800000Y18800000D03*
%TD*%
D34*
%TO.C,SW1*%
X39125000Y26250000D03*
X39125000Y20250000D03*
X42875000Y26250000D03*
X42875000Y20250000D03*
%TD*%
D38*
%TO.C,J6*%
X22900000Y-25350000D03*
D36*
X24200000Y-25350000D03*
D39*
X25500000Y-25350000D03*
%TD*%
D40*
%TO.C,TP1*%
X47325000Y-10200000D03*
%TD*%
%LPD*%
M02*
