%TF.GenerationSoftware,KiCad,Pcbnew,8.0.2*%
%TF.CreationDate,2024-11-27T18:37:01-06:00*%
%TF.ProjectId,Desktop_50_Pin_TopConn,4465736b-746f-4705-9f35-305f50696e5f,rev?*%
%TF.SameCoordinates,Original*%
%TF.FileFunction,Paste,Top*%
%TF.FilePolarity,Positive*%
%FSLAX46Y46*%
G04 Gerber Fmt 4.6, Leading zero omitted, Abs format (unit mm)*
G04 Created by KiCad (PCBNEW 8.0.2) date 2024-11-27 18:37:01*
%MOMM*%
%LPD*%
G01*
G04 APERTURE LIST*
G04 Aperture macros list*
%AMRoundRect*
0 Rectangle with rounded corners*
0 $1 Rounding radius*
0 $2 $3 $4 $5 $6 $7 $8 $9 X,Y pos of 4 corners*
0 Add a 4 corners polygon primitive as box body*
4,1,4,$2,$3,$4,$5,$6,$7,$8,$9,$2,$3,0*
0 Add four circle primitives for the rounded corners*
1,1,$1+$1,$2,$3*
1,1,$1+$1,$4,$5*
1,1,$1+$1,$6,$7*
1,1,$1+$1,$8,$9*
0 Add four rect primitives between the rounded corners*
20,1,$1+$1,$2,$3,$4,$5,0*
20,1,$1+$1,$4,$5,$6,$7,0*
20,1,$1+$1,$6,$7,$8,$9,0*
20,1,$1+$1,$8,$9,$2,$3,0*%
%AMOutline5P*
0 Free polygon, 5 corners , with rotation*
0 The origin of the aperture is its center*
0 number of corners: always 5*
0 $1 to $10 corner X, Y*
0 $11 Rotation angle, in degrees counterclockwise*
0 create outline with 5 corners*
4,1,5,$1,$2,$3,$4,$5,$6,$7,$8,$9,$10,$1,$2,$11*%
%AMOutline6P*
0 Free polygon, 6 corners , with rotation*
0 The origin of the aperture is its center*
0 number of corners: always 6*
0 $1 to $12 corner X, Y*
0 $13 Rotation angle, in degrees counterclockwise*
0 create outline with 6 corners*
4,1,6,$1,$2,$3,$4,$5,$6,$7,$8,$9,$10,$11,$12,$1,$2,$13*%
%AMOutline7P*
0 Free polygon, 7 corners , with rotation*
0 The origin of the aperture is its center*
0 number of corners: always 7*
0 $1 to $14 corner X, Y*
0 $15 Rotation angle, in degrees counterclockwise*
0 create outline with 7 corners*
4,1,7,$1,$2,$3,$4,$5,$6,$7,$8,$9,$10,$11,$12,$13,$14,$1,$2,$15*%
%AMOutline8P*
0 Free polygon, 8 corners , with rotation*
0 The origin of the aperture is its center*
0 number of corners: always 8*
0 $1 to $16 corner X, Y*
0 $17 Rotation angle, in degrees counterclockwise*
0 create outline with 8 corners*
4,1,8,$1,$2,$3,$4,$5,$6,$7,$8,$9,$10,$11,$12,$13,$14,$15,$16,$1,$2,$17*%
G04 Aperture macros list end*
%ADD10RoundRect,0.135000X-0.135000X-0.185000X0.135000X-0.185000X0.135000X0.185000X-0.135000X0.185000X0*%
%ADD11RoundRect,0.135000X-0.185000X0.135000X-0.185000X-0.135000X0.185000X-0.135000X0.185000X0.135000X0*%
%ADD12RoundRect,0.200000X-0.275000X0.200000X-0.275000X-0.200000X0.275000X-0.200000X0.275000X0.200000X0*%
%ADD13RoundRect,0.250000X0.250000X0.475000X-0.250000X0.475000X-0.250000X-0.475000X0.250000X-0.475000X0*%
%ADD14RoundRect,0.150000X-0.825000X-0.150000X0.825000X-0.150000X0.825000X0.150000X-0.825000X0.150000X0*%
%ADD15RoundRect,0.250000X-0.475000X0.250000X-0.475000X-0.250000X0.475000X-0.250000X0.475000X0.250000X0*%
%ADD16RoundRect,0.250000X0.475000X-0.250000X0.475000X0.250000X-0.475000X0.250000X-0.475000X-0.250000X0*%
%ADD17RoundRect,0.250000X-0.250000X-0.475000X0.250000X-0.475000X0.250000X0.475000X-0.250000X0.475000X0*%
%ADD18RoundRect,0.237500X-0.287500X-0.237500X0.287500X-0.237500X0.287500X0.237500X-0.287500X0.237500X0*%
%ADD19RoundRect,0.150000X0.150000X-0.587500X0.150000X0.587500X-0.150000X0.587500X-0.150000X-0.587500X0*%
%ADD20RoundRect,0.200000X0.200000X0.275000X-0.200000X0.275000X-0.200000X-0.275000X0.200000X-0.275000X0*%
%ADD21RoundRect,0.250000X0.325000X0.650000X-0.325000X0.650000X-0.325000X-0.650000X0.325000X-0.650000X0*%
%ADD22RoundRect,0.135000X0.135000X0.185000X-0.135000X0.185000X-0.135000X-0.185000X0.135000X-0.185000X0*%
%ADD23RoundRect,0.100000X0.637500X0.100000X-0.637500X0.100000X-0.637500X-0.100000X0.637500X-0.100000X0*%
%ADD24RoundRect,0.050000X-0.050000X-0.387500X0.050000X-0.387500X0.050000X0.387500X-0.050000X0.387500X0*%
%ADD25RoundRect,0.050000X-0.387500X-0.050000X0.387500X-0.050000X0.387500X0.050000X-0.387500X0.050000X0*%
%ADD26RoundRect,0.249999X-0.395001X-0.395001X0.395001X-0.395001X0.395001X0.395001X-0.395001X0.395001X0*%
%ADD27RoundRect,0.100000X-0.100000X0.637500X-0.100000X-0.637500X0.100000X-0.637500X0.100000X0.637500X0*%
%ADD28RoundRect,0.150000X-0.150000X0.587500X-0.150000X-0.587500X0.150000X-0.587500X0.150000X0.587500X0*%
%ADD29RoundRect,0.200000X-0.200000X-0.275000X0.200000X-0.275000X0.200000X0.275000X-0.200000X0.275000X0*%
%ADD30RoundRect,0.375000X-0.625000X-0.375000X0.625000X-0.375000X0.625000X0.375000X-0.625000X0.375000X0*%
%ADD31RoundRect,0.500000X-0.500000X-1.400000X0.500000X-1.400000X0.500000X1.400000X-0.500000X1.400000X0*%
%ADD32RoundRect,0.250000X1.000000X0.650000X-1.000000X0.650000X-1.000000X-0.650000X1.000000X-0.650000X0*%
%ADD33RoundRect,0.250000X0.325000X0.450000X-0.325000X0.450000X-0.325000X-0.450000X0.325000X-0.450000X0*%
%ADD34RoundRect,0.100000X0.100000X-0.637500X0.100000X0.637500X-0.100000X0.637500X-0.100000X-0.637500X0*%
%ADD35RoundRect,0.200000X0.275000X-0.200000X0.275000X0.200000X-0.275000X0.200000X-0.275000X-0.200000X0*%
%ADD36RoundRect,0.375000X-0.375000X0.625000X-0.375000X-0.625000X0.375000X-0.625000X0.375000X0.625000X0*%
%ADD37RoundRect,0.500000X-1.400000X0.500000X-1.400000X-0.500000X1.400000X-0.500000X1.400000X0.500000X0*%
%ADD38RoundRect,0.140000X-0.140000X-0.170000X0.140000X-0.170000X0.140000X0.170000X-0.140000X0.170000X0*%
%ADD39RoundRect,0.100000X-0.100000X0.155000X-0.100000X-0.155000X0.100000X-0.155000X0.100000X0.155000X0*%
%ADD40RoundRect,0.140000X0.170000X-0.140000X0.170000X0.140000X-0.170000X0.140000X-0.170000X-0.140000X0*%
%ADD41RoundRect,0.250000X0.300000X-0.300000X0.300000X0.300000X-0.300000X0.300000X-0.300000X-0.300000X0*%
%ADD42RoundRect,0.218750X0.218750X0.256250X-0.218750X0.256250X-0.218750X-0.256250X0.218750X-0.256250X0*%
%ADD43Outline5P,-0.100000X0.700000X0.000000X0.800000X0.100000X0.800000X0.100000X-0.800000X-0.100000X-0.800000X270.000000*%
%ADD44R,0.250000X0.300000*%
%ADD45RoundRect,0.135000X0.185000X-0.135000X0.185000X0.135000X-0.185000X0.135000X-0.185000X-0.135000X0*%
%ADD46R,1.400000X1.200000*%
%ADD47R,1.450000X0.600000*%
%ADD48R,1.450000X0.300000*%
%ADD49RoundRect,0.079500X0.079500X0.100500X-0.079500X0.100500X-0.079500X-0.100500X0.079500X-0.100500X0*%
%ADD50R,1.550000X0.600000*%
%ADD51R,1.800000X1.200000*%
G04 APERTURE END LIST*
D10*
%TO.C,R1*%
X32450000Y-20300000D03*
X33470000Y-20300000D03*
%TD*%
D11*
%TO.C,R50*%
X35250000Y-13475000D03*
X35250000Y-12455000D03*
%TD*%
D12*
%TO.C,R28*%
X7925000Y13625000D03*
X7925000Y15275000D03*
%TD*%
D13*
%TO.C,C3*%
X16765400Y-11164400D03*
X14865400Y-11164400D03*
%TD*%
%TO.C,C4*%
X11250000Y-17150000D03*
X9350000Y-17150000D03*
%TD*%
D14*
%TO.C,U3*%
X12525000Y8810000D03*
X12525000Y7540000D03*
X12525000Y6270000D03*
X12525000Y5000000D03*
X12525000Y3730000D03*
X12525000Y2460000D03*
X12525000Y1190000D03*
X17475000Y1190000D03*
X17475000Y2460000D03*
X17475000Y3730000D03*
X17475000Y5000000D03*
X17475000Y6270000D03*
X17475000Y7540000D03*
X17475000Y8810000D03*
%TD*%
D15*
%TO.C,C7*%
X16250000Y-18675000D03*
X16250000Y-20575000D03*
%TD*%
D13*
%TO.C,C1*%
X38100000Y16000000D03*
X36200000Y16000000D03*
%TD*%
%TO.C,C2*%
X17375000Y-13425000D03*
X15475000Y-13425000D03*
%TD*%
%TO.C,C5*%
X11250000Y-24950000D03*
X9350000Y-24950000D03*
%TD*%
D16*
%TO.C,C6*%
X11800000Y-15550000D03*
X11800000Y-13650000D03*
%TD*%
D17*
%TO.C,C12*%
X7200000Y-4912500D03*
X9100000Y-4912500D03*
%TD*%
D18*
%TO.C,D1*%
X21875000Y-25450000D03*
X23625000Y-25450000D03*
%TD*%
%TO.C,D2*%
X26806052Y-25088609D03*
X25056052Y-25088609D03*
%TD*%
D19*
%TO.C,Q1*%
X9350000Y-22862500D03*
X11250000Y-22862500D03*
X10300000Y-20987500D03*
%TD*%
D14*
%TO.C,U2*%
X22275000Y8710000D03*
X22275000Y7440000D03*
X22275000Y6170000D03*
X22275000Y4900000D03*
X22275000Y3630000D03*
X22275000Y2360000D03*
X22275000Y1090000D03*
X27225000Y1090000D03*
X27225000Y2360000D03*
X27225000Y3630000D03*
X27225000Y4900000D03*
X27225000Y6170000D03*
X27225000Y7440000D03*
X27225000Y8710000D03*
%TD*%
D16*
%TO.C,C17*%
X29450000Y-3300000D03*
X29450000Y-1400000D03*
%TD*%
%TO.C,C16*%
X10100000Y-11900000D03*
X10100000Y-10000000D03*
%TD*%
D14*
%TO.C,U5*%
X17475000Y-1190000D03*
X17475000Y-2460000D03*
X17475000Y-3730000D03*
X17475000Y-5000000D03*
X17475000Y-6270000D03*
X17475000Y-7540000D03*
X17475000Y-8810000D03*
X12525000Y-8810000D03*
X12525000Y-7540000D03*
X12525000Y-6270000D03*
X12525000Y-5000000D03*
X12525000Y-3730000D03*
X12525000Y-2460000D03*
X12525000Y-1190000D03*
%TD*%
D20*
%TO.C,R5*%
X19175000Y8400000D03*
X20825000Y8400000D03*
%TD*%
D21*
%TO.C,C8*%
X4800000Y-4866250D03*
X1850000Y-4866250D03*
%TD*%
D22*
%TO.C,R9*%
X20610000Y3750000D03*
X19590000Y3750000D03*
%TD*%
D14*
%TO.C,U1*%
X12525000Y18810000D03*
X12525000Y17540000D03*
X12525000Y16270000D03*
X12525000Y15000000D03*
X12525000Y13730000D03*
X12525000Y12460000D03*
X12525000Y11190000D03*
X17475000Y11190000D03*
X17475000Y12460000D03*
X17475000Y13730000D03*
X17475000Y15000000D03*
X17475000Y16270000D03*
X17475000Y17540000D03*
X17475000Y18810000D03*
%TD*%
D10*
%TO.C,R59*%
X35140000Y-14775000D03*
X36160000Y-14775000D03*
%TD*%
D14*
%TO.C,U4*%
X22275000Y18710000D03*
X22275000Y17440000D03*
X22275000Y16170000D03*
X22275000Y14900000D03*
X22275000Y13630000D03*
X22275000Y12360000D03*
X22275000Y11090000D03*
X27225000Y11090000D03*
X27225000Y12360000D03*
X27225000Y13630000D03*
X27225000Y14900000D03*
X27225000Y16170000D03*
X27225000Y17440000D03*
X27225000Y18710000D03*
%TD*%
D23*
%TO.C,U6*%
X18900000Y-16325000D03*
X18900000Y-15675000D03*
X18900000Y-15025000D03*
X18900000Y-14375000D03*
X18900000Y-13725000D03*
X18900000Y-13075000D03*
X18900000Y-12425000D03*
X18900000Y-11775000D03*
X18900000Y-11125000D03*
X18900000Y-10475000D03*
X13175000Y-10475000D03*
X13175000Y-11125000D03*
X13175000Y-11775000D03*
X13175000Y-12425000D03*
X13175000Y-13075000D03*
X13175000Y-13725000D03*
X13175000Y-14375000D03*
X13175000Y-15025000D03*
X13175000Y-15675000D03*
X13175000Y-16325000D03*
%TD*%
D10*
%TO.C,R47*%
X34610000Y-200000D03*
X33590000Y-200000D03*
%TD*%
D24*
%TO.C,U13*%
X27400000Y-11562500D03*
X27800000Y-11562500D03*
X28200000Y-11562500D03*
X28600000Y-11562500D03*
X29000000Y-11562500D03*
X29400000Y-11562500D03*
X29800000Y-11562500D03*
X30200000Y-11562500D03*
X30600000Y-11562500D03*
X31000000Y-11562500D03*
X31400000Y-11562500D03*
X31800000Y-11562500D03*
X32200000Y-11562500D03*
X32600000Y-11562500D03*
D25*
X33437500Y-12400000D03*
X33437500Y-12800000D03*
X33437500Y-13200000D03*
X33437500Y-13600000D03*
X33437500Y-14000000D03*
X33437500Y-14400000D03*
X33437500Y-14800000D03*
X33437500Y-15200000D03*
X33437500Y-15600000D03*
X33437500Y-16000000D03*
X33437500Y-16400000D03*
X33437500Y-16800000D03*
X33437500Y-17200000D03*
X33437500Y-17600000D03*
D24*
X32600000Y-18437500D03*
X32200000Y-18437500D03*
X31800000Y-18437500D03*
X31400000Y-18437500D03*
X31000000Y-18437500D03*
X30600000Y-18437500D03*
X30200000Y-18437500D03*
X29800000Y-18437500D03*
X29400000Y-18437500D03*
X29000000Y-18437500D03*
X28600000Y-18437500D03*
X28200000Y-18437500D03*
X27800000Y-18437500D03*
X27400000Y-18437500D03*
D25*
X26562500Y-17600000D03*
X26562500Y-17200000D03*
X26562500Y-16800000D03*
X26562500Y-16400000D03*
X26562500Y-16000000D03*
X26562500Y-15600000D03*
X26562500Y-15200000D03*
X26562500Y-14800000D03*
X26562500Y-14400000D03*
X26562500Y-14000000D03*
X26562500Y-13600000D03*
X26562500Y-13200000D03*
X26562500Y-12800000D03*
X26562500Y-12400000D03*
D26*
X30800000Y-15800000D03*
X30800000Y-14200000D03*
X29200000Y-15800000D03*
X29200000Y-14200000D03*
%TD*%
D27*
%TO.C,U7*%
X7925000Y17137500D03*
X7275000Y17137500D03*
X6625000Y17137500D03*
X5975000Y17137500D03*
X5325000Y17137500D03*
X4675000Y17137500D03*
X4025000Y17137500D03*
X3375000Y17137500D03*
X2725000Y17137500D03*
X2075000Y17137500D03*
X2075000Y22862500D03*
X2725000Y22862500D03*
X3375000Y22862500D03*
X4025000Y22862500D03*
X4675000Y22862500D03*
X5325000Y22862500D03*
X5975000Y22862500D03*
X6625000Y22862500D03*
X7275000Y22862500D03*
X7925000Y22862500D03*
%TD*%
D13*
%TO.C,C15*%
X9300000Y7100000D03*
X7400000Y7100000D03*
%TD*%
D17*
%TO.C,C19*%
X32500000Y18050000D03*
X34400000Y18050000D03*
%TD*%
D13*
%TO.C,C14*%
X9400000Y4650000D03*
X7500000Y4650000D03*
%TD*%
D17*
%TO.C,C20*%
X32650000Y15450000D03*
X34550000Y15450000D03*
%TD*%
D28*
%TO.C,Q2*%
X11250000Y22862500D03*
X9350000Y22862500D03*
X10300000Y20987500D03*
%TD*%
D15*
%TO.C,C23*%
X15700000Y23150000D03*
X15700000Y21250000D03*
%TD*%
D21*
%TO.C,C22*%
X34975000Y10400000D03*
X32025000Y10400000D03*
%TD*%
D12*
%TO.C,R22*%
X36200000Y12425000D03*
X36200000Y14075000D03*
%TD*%
D29*
%TO.C,R7*%
X20925000Y6200000D03*
X19275000Y6200000D03*
%TD*%
D15*
%TO.C,C18*%
X29450000Y-5000000D03*
X29450000Y-6900000D03*
%TD*%
D20*
%TO.C,R25*%
X28575000Y-24950000D03*
X30225000Y-24950000D03*
%TD*%
D13*
%TO.C,C10*%
X3750000Y7187500D03*
X1850000Y7187500D03*
%TD*%
D30*
%TO.C,U10*%
X1850000Y2300000D03*
X1850000Y0D03*
D31*
X8150000Y0D03*
D30*
X1850000Y-2300000D03*
%TD*%
D32*
%TO.C,D4*%
X25650000Y21500000D03*
X21650000Y21500000D03*
%TD*%
D21*
%TO.C,C9*%
X4800000Y4941250D03*
X1850000Y4941250D03*
%TD*%
D32*
%TO.C,D3*%
X35350000Y20400000D03*
X31350000Y20400000D03*
%TD*%
D33*
%TO.C,F2*%
X20575000Y24500000D03*
X18525000Y24500000D03*
%TD*%
D15*
%TO.C,C24*%
X13200000Y23150000D03*
X13200000Y21250000D03*
%TD*%
D34*
%TO.C,U8*%
X2075000Y-17137500D03*
X2725000Y-17137500D03*
X3375000Y-17137500D03*
X4025000Y-17137500D03*
X4675000Y-17137500D03*
X5325000Y-17137500D03*
X5975000Y-17137500D03*
X6625000Y-17137500D03*
X7275000Y-17137500D03*
X7925000Y-17137500D03*
X7925000Y-22862500D03*
X7275000Y-22862500D03*
X6625000Y-22862500D03*
X5975000Y-22862500D03*
X5325000Y-22862500D03*
X4675000Y-22862500D03*
X4025000Y-22862500D03*
X3375000Y-22862500D03*
X2725000Y-22862500D03*
X2075000Y-22862500D03*
%TD*%
D35*
%TO.C,R23*%
X36000000Y13125000D03*
X36000000Y11475000D03*
%TD*%
D23*
%TO.C,U9*%
X13187500Y-23400000D03*
X13187500Y-22750000D03*
X13187500Y-22100000D03*
X13187500Y-21450000D03*
X13187500Y-20800000D03*
X13187500Y-20150000D03*
X13187500Y-19500000D03*
X13187500Y-18850000D03*
X13187500Y-18200000D03*
X13187500Y-17550000D03*
X18912500Y-17550000D03*
X18912500Y-18200000D03*
X18912500Y-18850000D03*
X18912500Y-19500000D03*
X18912500Y-20150000D03*
X18912500Y-20800000D03*
X18912500Y-21450000D03*
X18912500Y-22100000D03*
X18912500Y-22750000D03*
X18912500Y-23400000D03*
%TD*%
D22*
%TO.C,R58*%
X40975000Y-16650000D03*
X41995000Y-16650000D03*
%TD*%
D13*
%TO.C,C11*%
X3750000Y-7112500D03*
X1850000Y-7112500D03*
%TD*%
D17*
%TO.C,C21*%
X32500000Y13050000D03*
X34400000Y13050000D03*
%TD*%
%TO.C,C13*%
X7250000Y-7200000D03*
X9150000Y-7200000D03*
%TD*%
D36*
%TO.C,U11*%
X27012500Y-1850000D03*
X24712500Y-1850000D03*
D37*
X24712500Y-8150000D03*
D36*
X22412500Y-1850000D03*
%TD*%
D10*
%TO.C,R54*%
X22310000Y-23850000D03*
X21290000Y-23850000D03*
%TD*%
D16*
%TO.C,C25*%
X19950000Y-3250000D03*
X19950000Y-1350000D03*
%TD*%
D38*
%TO.C,C41*%
X12570000Y-25550000D03*
X13530000Y-25550000D03*
%TD*%
%TO.C,C29*%
X30430000Y-8600000D03*
X29470000Y-8600000D03*
%TD*%
%TO.C,C30*%
X32830000Y-8700000D03*
X31870000Y-8700000D03*
%TD*%
D22*
%TO.C,R48*%
X33490000Y1300000D03*
X34510000Y1300000D03*
%TD*%
D38*
%TO.C,C33*%
X34580000Y-9750000D03*
X33620000Y-9750000D03*
%TD*%
D39*
%TO.C,Q3*%
X23350000Y-14900000D03*
X24350000Y-14900000D03*
X23850000Y-13610000D03*
%TD*%
D40*
%TO.C,C27*%
X35250000Y-19270000D03*
X35250000Y-20230000D03*
%TD*%
D41*
%TO.C,D5*%
X32050000Y-6300000D03*
X32050000Y-3500000D03*
%TD*%
D42*
%TO.C,D6*%
X20137500Y-25500000D03*
X18562500Y-25500000D03*
%TD*%
D10*
%TO.C,R49*%
X36660000Y-9700000D03*
X35640000Y-9700000D03*
%TD*%
%TO.C,R53*%
X16310000Y-24300000D03*
X15290000Y-24300000D03*
%TD*%
D11*
%TO.C,R55*%
X40950000Y-15660000D03*
X40950000Y-14640000D03*
%TD*%
D38*
%TO.C,C34*%
X34906500Y-8750000D03*
X33946500Y-8750000D03*
%TD*%
D40*
%TO.C,C38*%
X39850000Y-16620000D03*
X39850000Y-17580000D03*
%TD*%
D38*
%TO.C,C36*%
X31960000Y-19600000D03*
X31000000Y-19600000D03*
%TD*%
%TO.C,C32*%
X30030000Y-9900000D03*
X29070000Y-9900000D03*
%TD*%
D33*
%TO.C,F1*%
X22825000Y24550000D03*
X24875000Y24550000D03*
%TD*%
D10*
%TO.C,R60*%
X12590000Y-24500000D03*
X13610000Y-24500000D03*
%TD*%
D43*
%TO.C,U12*%
X37900000Y-16100000D03*
D44*
X38650000Y-17300000D03*
X38150000Y-17300000D03*
X37650000Y-17300000D03*
X37150000Y-17300000D03*
X37150000Y-14900000D03*
X37650000Y-14900000D03*
X38150000Y-14900000D03*
X38650000Y-14900000D03*
%TD*%
D40*
%TO.C,C39*%
X39800000Y-14670000D03*
X39800000Y-15630000D03*
%TD*%
D42*
%TO.C,D7*%
X16737500Y-25500000D03*
X15162500Y-25500000D03*
%TD*%
D45*
%TO.C,R52*%
X34800000Y-10840000D03*
X34800000Y-11860000D03*
%TD*%
D38*
%TO.C,C35*%
X27880000Y-10000000D03*
X26920000Y-10000000D03*
%TD*%
%TO.C,C37*%
X34770000Y-18200000D03*
X35730000Y-18200000D03*
%TD*%
%TO.C,C28*%
X29430000Y-19700000D03*
X28470000Y-19700000D03*
%TD*%
D16*
%TO.C,C26*%
X19950000Y-8650000D03*
X19950000Y-6750000D03*
%TD*%
D46*
%TO.C,Y1*%
X26450000Y-21400000D03*
X24250000Y-21400000D03*
X24250000Y-23100000D03*
X26450000Y-23100000D03*
%TD*%
D38*
%TO.C,C31*%
X32680000Y-9800000D03*
X31720000Y-9800000D03*
%TD*%
D45*
%TO.C,R51*%
X35950000Y-10840000D03*
X35950000Y-11860000D03*
%TD*%
D10*
%TO.C,R92*%
X20490000Y-10595000D03*
X21510000Y-10595000D03*
%TD*%
%TO.C,R95*%
X20490000Y-13413888D03*
X21510000Y-13413888D03*
%TD*%
%TO.C,R82*%
X19280000Y10900000D03*
X20300000Y10900000D03*
%TD*%
%TO.C,R96*%
X20490000Y-14823332D03*
X21510000Y-14823332D03*
%TD*%
%TO.C,R93*%
X20490000Y-12004444D03*
X21510000Y-12004444D03*
%TD*%
%TO.C,R94*%
X19470000Y13750000D03*
X20490000Y13750000D03*
%TD*%
%TO.C,R90*%
X19330000Y16150000D03*
X20350000Y16150000D03*
%TD*%
%TO.C,R91*%
X20490000Y-21870552D03*
X21510000Y-21870552D03*
%TD*%
D22*
%TO.C,R89*%
X21510000Y-20461108D03*
X20490000Y-20461108D03*
%TD*%
D10*
%TO.C,R79*%
X19340000Y2090000D03*
X20360000Y2090000D03*
%TD*%
%TO.C,R88*%
X20490000Y-19051664D03*
X21510000Y-19051664D03*
%TD*%
%TO.C,R80*%
X19340000Y100000D03*
X20360000Y100000D03*
%TD*%
%TO.C,R81*%
X19330000Y9750000D03*
X20350000Y9750000D03*
%TD*%
%TO.C,R83*%
X19280000Y11950000D03*
X20300000Y11950000D03*
%TD*%
%TO.C,R86*%
X19330000Y14900000D03*
X20350000Y14900000D03*
%TD*%
D22*
%TO.C,R87*%
X21510000Y-17642220D03*
X20490000Y-17642220D03*
%TD*%
%TO.C,R85*%
X20490000Y-16232776D03*
X21510000Y-16232776D03*
%TD*%
D47*
%TO.C,J12*%
X36805000Y-350000D03*
X36805000Y450000D03*
D48*
X36805000Y1650000D03*
X36805000Y2650000D03*
X36805000Y3150000D03*
X36805000Y4150000D03*
D47*
X36805000Y5350000D03*
X36805000Y6150000D03*
X36805000Y6150000D03*
X36805000Y5350000D03*
D48*
X36805000Y4650000D03*
X36805000Y3650000D03*
X36805000Y2150000D03*
X36805000Y1150000D03*
D47*
X36805000Y450000D03*
X36805000Y-350000D03*
%TD*%
D10*
%TO.C,R84*%
X19330000Y12900000D03*
X20350000Y12900000D03*
%TD*%
D49*
%TO.C,R57*%
X34345000Y2150000D03*
X33655000Y2150000D03*
%TD*%
%TO.C,R56*%
X34345000Y3650000D03*
X33655000Y3650000D03*
%TD*%
D29*
%TO.C,R46*%
X4200000Y-25075000D03*
X5850000Y-25075000D03*
%TD*%
D12*
%TO.C,R45*%
X9875000Y15275000D03*
X9875000Y13625000D03*
%TD*%
D35*
%TO.C,R44*%
X9875000Y-15275000D03*
X9875000Y-13625000D03*
%TD*%
%TO.C,R43*%
X7925000Y-11825000D03*
X7925000Y-10175000D03*
%TD*%
D12*
%TO.C,R42*%
X2075000Y11825000D03*
X2075000Y10175000D03*
%TD*%
D35*
%TO.C,R41*%
X7925000Y-15262500D03*
X7925000Y-13612500D03*
%TD*%
D12*
%TO.C,R40*%
X2075000Y15275000D03*
X2075000Y13625000D03*
%TD*%
D35*
%TO.C,R39*%
X5975000Y-11825000D03*
X5975000Y-10175000D03*
%TD*%
D12*
%TO.C,R38*%
X4025000Y11825000D03*
X4025000Y10175000D03*
%TD*%
D35*
%TO.C,R37*%
X5975000Y-15262500D03*
X5975000Y-13612500D03*
%TD*%
D12*
%TO.C,R36*%
X4025000Y15275000D03*
X4025000Y13625000D03*
%TD*%
D35*
%TO.C,R35*%
X4025000Y-11825000D03*
X4025000Y-10175000D03*
%TD*%
D12*
%TO.C,R34*%
X5975000Y11825000D03*
X5975000Y10175000D03*
%TD*%
D35*
%TO.C,R33*%
X4025000Y-15262500D03*
X4025000Y-13612500D03*
%TD*%
D12*
%TO.C,R32*%
X5975000Y15275000D03*
X5975000Y13625000D03*
%TD*%
D35*
%TO.C,R31*%
X2075000Y-11825000D03*
X2075000Y-10175000D03*
%TD*%
D12*
%TO.C,R30*%
X7925000Y11825000D03*
X7925000Y10175000D03*
%TD*%
D35*
%TO.C,R29*%
X2075000Y-15262500D03*
X2075000Y-13612500D03*
%TD*%
D10*
%TO.C,R27*%
X34790000Y17450000D03*
X35810000Y17450000D03*
%TD*%
%TO.C,R26*%
X36888748Y15265000D03*
X37908748Y15265000D03*
%TD*%
D22*
%TO.C,R24*%
X29410000Y-26150000D03*
X28390000Y-26150000D03*
%TD*%
D50*
%TO.C,J4*%
X38075000Y11000000D03*
X38075000Y12000000D03*
X38075000Y13000000D03*
X38075000Y14000000D03*
D51*
X41950000Y9700000D03*
X41950000Y15300000D03*
%TD*%
M02*
