M48
; DRILL file {KiCad 8.0.2} date 2024-12-01T19:44:38-0600
; FORMAT={-:-/ absolute / inch / decimal}
; #@! TF.CreationDate,2024-12-01T19:44:38-06:00
; #@! TF.GenerationSoftware,Kicad,Pcbnew,8.0.2
; #@! TF.FileFunction,Plated,1,4,PTH
FMAT,2
INCH
; #@! TA.AperFunction,Plated,PTH,ViaDrill
T1C0.0079
; #@! TA.AperFunction,Plated,PTH,ViaDrill
T2C0.0157
; #@! TA.AperFunction,Plated,PTH,ComponentDrill
T3C0.0236
; #@! TA.AperFunction,Plated,PTH,ComponentDrill
T4C0.0394
%
G90
G05
T1
X0.3071Y-0.5512
X0.31Y-0.7087
X0.3238Y0.315
X0.3445Y-0.4902
X0.3593Y-0.6516
X0.3622Y-0.1535
X0.3829Y0.6476
X0.3967Y0.2362
X0.403Y-0.273
X0.403Y-0.403
X0.413Y-0.053
X0.413Y-0.103
X0.4213Y0.0394
X0.452Y0.3461
X0.4596Y-0.6516
X0.463Y-0.403
X0.4685Y0.3937
X0.4721Y0.267
X0.473Y0.0187
X0.473Y-0.053
X0.4764Y0.0787
X0.493Y0.577
X0.4937Y0.6476
X0.4946Y0.1254
X0.503Y-0.3937
X0.5042Y0.1517
X0.5108Y0.0404
X0.513Y-0.273
X0.523Y-0.5961
X0.5254Y-0.3341
X0.5364Y-0.2362
X0.543Y0.6181
X0.543Y0.377
X0.5551Y0.1211
X0.563Y-0.6516
X0.5807Y-0.1388
X0.583Y0.577
X0.5915Y0.6476
X0.6142Y-0.2008
X0.6173Y-0.5366
X0.6181Y0.4819
X0.623Y0.7136
X0.623Y0.377
X0.653Y-0.103
X0.6543Y-0.4913
X0.6739Y-0.5402
X0.6791Y0.1201
X0.6801Y-0.0394
X0.6821Y-0.0787
X0.6909Y0.478
X0.7165Y-0.0394
X0.7205Y0.0866
X0.7244Y-0.2756
X0.7283Y0.252
X0.7323Y0.3543
X0.7352Y-0.4902
X0.7362Y0.0591
X0.7386Y-0.611
X0.7587Y0.5512
X0.7638Y-0.3937
X0.7835Y0.4724
X0.7835Y-0.4724
X0.7953Y0.0
X0.8012Y-0.6467
X0.8051Y-0.315
X0.813Y-0.374
X0.8161Y-0.1575
X0.8287Y-0.5512
X0.8543Y-0.4281
X0.8632Y0.3821
X0.8941Y0.6504
X0.9071Y0.7508
X0.9114Y0.5287
X0.9142Y0.0913
X0.9173Y0.0409
X0.9224Y0.0669
X0.9307Y0.439
X0.9339Y0.648
X0.943Y0.347
X0.9508Y0.5157
X0.9555Y0.0921
X0.9567Y0.322
X0.973Y0.577
X0.9946Y0.5295
X1.0094Y0.5937
X1.011Y0.648
X1.0146Y0.4299
X1.0315Y0.1378
X1.0421Y0.7697
X1.0508Y0.6602
X1.0539Y0.2807
X1.0602Y0.5454
X1.085Y-0.0846
X1.1096Y-0.3693
X1.1161Y-0.4402
X1.126Y0.748
X1.1289Y0.5254
X1.1299Y0.3228
X1.1382Y-0.4028
X1.1386Y0.2752
X1.1443Y0.4252
X1.1457Y0.2126
X1.1512Y0.648
X1.1524Y-0.0638
X1.153Y0.087
X1.1535Y0.5713
X1.1693Y0.5511
X1.1719Y0.0085
X1.1732Y0.315
X1.185Y0.4291
X1.2004Y0.663
X1.2087Y0.3189
X1.2106Y-0.3465
X1.2126Y0.5472
X1.2262Y0.6283
X1.2303Y0.3354
X1.2321Y-0.4535
X1.2579Y0.4465
X1.2587Y-0.2465
X1.2594Y-0.4433
X1.2598Y-0.2126
X1.2603Y-0.1752
X1.262Y-0.647
X1.2638Y-0.2713
X1.2665Y-0.2933
X1.2731Y-0.4688
X1.275Y-0.3574
X1.2756Y-0.122
X1.293Y0.437
X1.2979Y-0.5817
X1.3268Y0.5039
X1.3306Y-0.4526
X1.3392Y-0.6156
X1.3439Y-0.2575
X1.3465Y-0.1654
X1.3528Y-0.5921
X1.363Y0.337
X1.3669Y0.748
X1.3689Y-0.1157
X1.3701Y0.3976
X1.3819Y-0.1378
X1.3886Y0.5295
X1.3925Y0.5516
X1.3929Y-0.6161
X1.3937Y0.6551
X1.4013Y-0.5417
X1.403Y0.167
X1.4031Y-0.6614
X1.4065Y0.0748
X1.4086Y-0.5133
X1.4094Y0.2717
X1.4094Y-0.1515
X1.4149Y0.6168
X1.4288Y-0.5535
X1.437Y0.4311
X1.4374Y0.5783
X1.4449Y0.6535
X1.4587Y0.5267
X1.4612Y-0.5574
X1.4644Y0.4404
X1.4693Y-0.4322
X1.4702Y-0.5813
X1.4726Y-0.3944
X1.4772Y-0.3685
X1.4783Y-0.4961
X1.4827Y-0.4508
X1.4827Y-0.4732
X1.4865Y0.3183
X1.4866Y-0.4121
X1.4921Y0.6417
X1.4953Y-0.5862
X1.4957Y0.5941
X1.5029Y-0.1799
X1.5039Y0.5547
X1.5039Y0.6201
X1.5098Y0.2677
X1.5139Y-0.2877
X1.5197Y-0.563
X1.5216Y-0.5846
X1.5276Y0.437
X1.5354Y-0.6378
X1.537Y-0.2894
X1.5417Y-0.4933
X1.5433Y0.6417
X1.5433Y0.4567
X1.5472Y0.689
X1.5512Y-0.6575
X1.556Y-0.2997
X1.5602Y-0.0402
X1.561Y0.2854
X1.5628Y-0.4982
X1.5669Y-0.5569
X1.5732Y-0.4571
X1.5776Y-0.2947
X1.5815Y0.5295
X1.5866Y-0.3513
X1.5886Y0.7504
X1.589Y0.4193
X1.5969Y-0.6984
X1.5992Y-0.2894
X1.6031Y0.6197
X1.6063Y-0.5669
X1.6102Y0.3543
X1.6154Y0.6512
X1.6173Y-0.4969
X1.623Y0.557
X1.6299Y-0.6299
X1.6309Y-0.56
X1.6358Y0.3089
X1.6358Y0.1854
X1.6371Y-0.1716
X1.6413Y-0.585
X1.6417Y0.3996
X1.6425Y0.5276
X1.6495Y-0.2143
X1.6528Y-0.1865
X1.6595Y-0.4934
X1.6622Y-0.3472
X1.663Y0.657
X1.6677Y-0.1492
X1.6693Y-0.6756
X1.6728Y-0.2921
X1.6743Y-0.2081
X1.675Y-0.4335
X1.6752Y-0.561
X1.6789Y-0.4555
X1.6801Y-0.506
X1.6819Y-0.3831
X1.6909Y0.5299
X1.693Y0.3976
X1.7126Y0.3031
X1.7356Y-0.2608
X1.743Y0.537
X1.743Y0.417
X1.7492Y-0.7248
X1.752Y-0.0748
X1.7557Y-0.4687
X1.7646Y-0.5417
X1.7687Y0.3953
X1.8055Y-0.4484
X1.813Y0.247
X1.8329Y-0.1832
X1.8425Y-0.3531
X1.8563Y-0.1902
X1.8571Y-0.4472
X1.8628Y-0.5559
X1.8787Y-0.6756
X1.8837Y-0.5453
X1.9055Y-0.1378
X1.9185Y-0.6224
X1.9291Y-0.5236
X1.9311Y-0.4654
X1.9527Y-0.1024
X1.9605Y-0.0591
X1.9685Y-0.3189
X1.9697Y-0.5705
X1.9707Y-0.3898
X1.973Y0.417
X1.9764Y-0.2283
X1.9843Y0.0827
X1.9953Y-0.335
X2.0Y0.1654
X2.0008Y-0.3835
X2.0362Y-0.5476
X2.0491Y-0.4196
X2.0512Y-0.126
X2.063Y-0.2756
X2.063Y-0.3815
X2.0709Y-0.5394
X2.0987Y-0.4523
X2.1209Y-0.4692
X2.1319Y-0.315
X2.1345Y-0.4862
X2.1437Y-0.3819
X2.1772Y-0.2953
X2.1962Y-0.4722
X2.2087Y-0.5591
X2.2126Y-0.1732
X2.3228Y0.0256
X2.3583Y0.0197
X2.3937Y0.126
X2.4437Y-0.0421
X2.4634Y-0.0063
T2
X0.1969Y0.7087
X0.1969Y0.6299
X0.1969Y0.5512
X0.1969Y0.4724
X0.1969Y0.3937
X0.1969Y0.315
X0.1969Y0.2362
X0.1969Y0.1575
X0.1969Y0.0787
X0.1969Y0.0
X0.1969Y-0.0787
X0.1969Y-0.1575
X0.1969Y-0.2362
X0.1969Y-0.315
X0.1969Y-0.3937
X0.1969Y-0.4724
X0.1969Y-0.5512
X0.1969Y-0.6299
X0.1969Y-0.7087
X0.2756Y0.748
X0.2756Y0.6693
X0.2756Y0.5906
X0.2756Y0.5118
X0.2756Y0.4331
X0.2756Y0.3543
X0.2756Y0.2756
X0.2756Y0.1315
X0.2756Y0.0394
X0.2756Y-0.0394
X0.2756Y-0.1181
X0.2756Y-0.1969
X0.2756Y-0.2756
X0.2756Y-0.3543
X0.2756Y-0.4331
X0.2756Y-0.5118
X0.2756Y-0.6693
X0.2756Y-0.748
X0.276Y0.2035
X0.2762Y-0.5825
X0.8031Y0.102
X0.8243Y0.1614
X0.8268Y0.7087
X0.8268Y0.6299
X0.8268Y0.5512
X0.8268Y0.4724
X0.8268Y0.3992
X0.8268Y0.315
X0.8268Y0.2445
X0.937Y0.0
X0.937Y-0.0787
X0.937Y-0.1575
X0.937Y-0.2362
X0.937Y-0.315
X0.937Y-0.3937
X0.937Y-0.4724
X0.937Y-0.5512
X0.937Y-0.6299
X0.937Y-0.7087
X0.9843Y0.0364
X0.9843Y-0.0423
X0.9843Y-0.1211
X0.9843Y-0.1998
X0.9843Y-0.2785
X0.9843Y-0.3573
X0.9843Y-0.436
X0.9843Y-0.5148
X0.9843Y-0.5935
X0.9843Y-0.6722
X0.9843Y-0.751
T4
X1.9223Y0.6616
X2.0207Y0.6616
X2.1191Y0.6616
X2.2175Y0.6616
T3
G00X2.275Y-0.1858
M15
G01X2.3183Y-0.1858
M16
G05
G00X2.275Y-0.526
M15
G01X2.3183Y-0.526
M16
G05
G00X2.4463Y-0.1858
M15
G01X2.4778Y-0.1858
M16
G05
G00X2.4463Y-0.526
M15
G01X2.4778Y-0.526
M16
G05
M30
