%TF.GenerationSoftware,KiCad,Pcbnew,8.0.2*%
%TF.CreationDate,2024-11-30T10:22:52-06:00*%
%TF.ProjectId,Desktop_50_Pin_TopConn,4465736b-746f-4705-9f35-305f50696e5f,rev?*%
%TF.SameCoordinates,Original*%
%TF.FileFunction,Copper,L2,Inr*%
%TF.FilePolarity,Positive*%
%FSLAX46Y46*%
G04 Gerber Fmt 4.6, Leading zero omitted, Abs format (unit mm)*
G04 Created by KiCad (PCBNEW 8.0.2) date 2024-11-30 10:22:52*
%MOMM*%
%LPD*%
G01*
G04 APERTURE LIST*
G04 Aperture macros list*
%AMHorizOval*
0 Thick line with rounded ends*
0 $1 width*
0 $2 $3 position (X,Y) of the first rounded end (center of the circle)*
0 $4 $5 position (X,Y) of the second rounded end (center of the circle)*
0 Add line between two ends*
20,1,$1,$2,$3,$4,$5,0*
0 Add two circle primitives to create the rounded ends*
1,1,$1,$2,$3*
1,1,$1,$4,$5*%
%AMRotRect*
0 Rectangle, with rotation*
0 The origin of the aperture is its center*
0 $1 length*
0 $2 width*
0 $3 Rotation angle, in degrees counterclockwise*
0 Add horizontal line*
21,1,$1,$2,0,0,$3*%
G04 Aperture macros list end*
%TA.AperFunction,ComponentPad*%
%ADD10O,2.100000X1.000000*%
%TD*%
%TA.AperFunction,ComponentPad*%
%ADD11O,1.800000X1.000000*%
%TD*%
%TA.AperFunction,ComponentPad*%
%ADD12RotRect,1.700000X1.700000X45.000000*%
%TD*%
%TA.AperFunction,ComponentPad*%
%ADD13HorizOval,1.700000X0.000000X0.000000X0.000000X0.000000X0*%
%TD*%
%TA.AperFunction,ComponentPad*%
%ADD14RotRect,1.700000X1.700000X135.000000*%
%TD*%
%TA.AperFunction,ComponentPad*%
%ADD15HorizOval,1.700000X0.000000X0.000000X0.000000X0.000000X0*%
%TD*%
%TA.AperFunction,ComponentPad*%
%ADD16C,1.700000*%
%TD*%
%TA.AperFunction,ComponentPad*%
%ADD17C,1.524000*%
%TD*%
%TA.AperFunction,ViaPad*%
%ADD18C,0.800000*%
%TD*%
%TA.AperFunction,ViaPad*%
%ADD19C,0.400000*%
%TD*%
%TA.AperFunction,Conductor*%
%ADD20C,0.200000*%
%TD*%
G04 APERTURE END LIST*
D10*
%TO.N,GND*%
%TO.C,J12*%
X57075000Y-1320000D03*
D11*
X61275000Y-1320000D03*
D10*
X57075000Y7320000D03*
D11*
X61275000Y7320000D03*
%TD*%
D12*
%TO.N,GND*%
%TO.C,J5*%
X54803949Y21696051D03*
D13*
%TO.N,Net-(J5-Pin_2)*%
X56600000Y19900000D03*
%TO.N,GND*%
X58396051Y18103949D03*
%TD*%
D14*
%TO.N,/Pico/SWCLK*%
%TO.C,J14*%
X50928949Y-14396051D03*
D15*
%TO.N,GND*%
X52725000Y-12600000D03*
%TO.N,/Pico/SWDIO*%
X54521051Y-10803949D03*
%TD*%
D16*
%TO.N,Net-(D4-A)*%
%TO.C,J10*%
X58903500Y-4905400D03*
%TO.N,GND*%
X58903500Y-7405400D03*
D17*
X58903500Y-9905400D03*
%TO.N,unconnected-(J10-12V-Pad4)*%
X58903500Y-12405400D03*
%TD*%
D18*
%TO.N,GND*%
X7000000Y17000000D03*
X7000000Y-9000000D03*
X7000000Y-1000000D03*
X25000000Y-17075000D03*
X25000000Y925000D03*
X25000000Y-1075000D03*
X25000000Y18925000D03*
X7000000Y11000000D03*
X25000000Y2925000D03*
D19*
X12250000Y3075000D03*
D18*
X7000000Y-13000000D03*
X7000000Y5000000D03*
X25000000Y-5075000D03*
X25000000Y-15075000D03*
X25000000Y14925000D03*
D19*
X14100000Y3075000D03*
D18*
X25000000Y8925000D03*
X25000000Y6925000D03*
X25000000Y4925000D03*
X25000000Y-11075000D03*
X7000000Y-3000000D03*
X7000000Y9000000D03*
X25000000Y-3075000D03*
X7000000Y-19000000D03*
X7014889Y-14795000D03*
X7000000Y7000000D03*
X7000000Y-17000000D03*
X25000000Y16925000D03*
X25000000Y12925000D03*
D19*
X17250000Y3050000D03*
D18*
X7000000Y-7000000D03*
X7000000Y19000000D03*
X25000000Y-13075000D03*
X25000000Y10925000D03*
X7000000Y-5000000D03*
X25000000Y-9075000D03*
X7000000Y13000000D03*
X25000000Y-7075000D03*
X25000000Y-19075000D03*
X7000000Y1000000D03*
X7000000Y-11000000D03*
X7000000Y15000000D03*
X7000000Y3000000D03*
D19*
%TO.N,+2V8*%
X20350000Y-16425000D03*
X12975000Y1025000D03*
X11675000Y-16050000D03*
X8750000Y-12450000D03*
X21700000Y-10875000D03*
X16100000Y13125000D03*
X17275000Y-1000000D03*
X26700000Y10400000D03*
X26125000Y18000000D03*
X12325000Y16775000D03*
X18674002Y-12450000D03*
X9125000Y-16050000D03*
X14300000Y-16050000D03*
X10700000Y1000000D03*
X34900000Y18100000D03*
X35975000Y10700000D03*
X9725000Y16700000D03*
X14950000Y16800000D03*
D18*
%TO.N,+5V*%
X5000000Y-16000000D03*
X23800000Y-16000000D03*
D19*
%TO.N,ATN*%
X8225000Y8000000D03*
X26450000Y7400000D03*
D18*
X5000000Y8000000D03*
X23800000Y8000000D03*
D19*
%TO.N,BSY*%
X12807046Y3853991D03*
D18*
X23800000Y4000000D03*
D19*
X29580000Y4000000D03*
X34650000Y3990000D03*
D18*
X5000000Y4000000D03*
D19*
%TO.N,DBP*%
X17825000Y0D03*
X19875000Y0D03*
D18*
X23800000Y0D03*
X5000000Y0D03*
%TO.N,ACK*%
X5000000Y6000000D03*
D19*
X10075000Y6000000D03*
D18*
X23800000Y6000000D03*
D19*
%TO.N,RST*%
X11900000Y10000000D03*
D18*
X5000000Y10000000D03*
D19*
X20700000Y10000000D03*
D18*
X23800000Y10000000D03*
%TO.N,MSG*%
X23800000Y16000000D03*
X5000000Y16000000D03*
D19*
X20650000Y15700000D03*
X19575000Y15700000D03*
%TO.N,SEL*%
X11475000Y2000000D03*
D18*
X5000000Y2000000D03*
X23800000Y2000000D03*
D19*
X11481740Y8509571D03*
%TO.N,CD*%
X20175000Y14000000D03*
D18*
X23800000Y14000000D03*
X5000000Y14000000D03*
%TO.N,REQ*%
X23800000Y18000000D03*
X5000000Y18000000D03*
D19*
X20550000Y18825000D03*
D18*
%TO.N,IO*%
X23800000Y12000000D03*
X5000000Y12000000D03*
D19*
X19900000Y12000000D03*
%TO.N,DB7*%
X7875000Y-18000000D03*
D18*
X23800000Y-18000000D03*
X5000000Y-18000000D03*
D19*
%TO.N,DB6*%
X21050000Y-14000000D03*
D18*
X23800000Y-14000000D03*
D19*
X7800000Y-14000000D03*
D18*
X5000000Y-14000000D03*
%TO.N,DB5*%
X5000000Y-12000000D03*
X23800000Y-12000000D03*
D19*
%TO.N,DB4*%
X12250000Y-10000000D03*
X19400000Y-10000000D03*
D18*
X5000000Y-10000000D03*
X23800000Y-10000000D03*
D19*
%TO.N,DB3*%
X13345112Y-8486883D03*
D18*
X23800000Y-8000000D03*
X5000000Y-8000000D03*
%TO.N,DB2*%
X5000000Y-6000000D03*
X23800000Y-6000000D03*
D19*
X13625000Y-6000000D03*
%TO.N,DB1*%
X14750000Y-3525000D03*
D18*
X23800000Y-4000000D03*
X5000000Y-4000000D03*
%TO.N,DB0*%
X5000000Y-2000000D03*
X23800000Y-2000000D03*
D19*
X17325000Y-2000000D03*
%TD*%
D20*
%TO.N,SEL*%
X11481740Y2006740D02*
X11475000Y2000000D01*
X11481740Y8509571D02*
X11481740Y2006740D01*
%TD*%
%TA.AperFunction,Conductor*%
%TO.N,+2V8*%
G36*
X24551743Y19929815D02*
G01*
X24597498Y19877011D01*
X24607442Y19807853D01*
X24578417Y19744297D01*
X24546698Y19718110D01*
X24543251Y19716121D01*
X24388745Y19603865D01*
X24260959Y19461943D01*
X24165473Y19296557D01*
X24165470Y19296550D01*
X24120022Y19156674D01*
X24106458Y19114928D01*
X24095021Y19006109D01*
X24068436Y18941494D01*
X24011139Y18901510D01*
X23945920Y18897780D01*
X23895487Y18908500D01*
X23704513Y18908500D01*
X23517714Y18868795D01*
X23343246Y18791117D01*
X23188745Y18678865D01*
X23060959Y18536943D01*
X22965473Y18371557D01*
X22965470Y18371550D01*
X22921959Y18237635D01*
X22906458Y18189928D01*
X22886496Y18000000D01*
X22906458Y17810072D01*
X22906459Y17810069D01*
X22965470Y17628451D01*
X22965473Y17628444D01*
X23060960Y17463056D01*
X23188747Y17321134D01*
X23343248Y17208882D01*
X23517712Y17131206D01*
X23542906Y17125851D01*
X23564362Y17121290D01*
X23625844Y17088098D01*
X23659620Y17026935D01*
X23654968Y16957220D01*
X23613363Y16901088D01*
X23564362Y16878710D01*
X23517714Y16868795D01*
X23430480Y16829956D01*
X23345643Y16792184D01*
X23343246Y16791117D01*
X23188745Y16678865D01*
X23060959Y16536943D01*
X22965473Y16371557D01*
X22965470Y16371550D01*
X22914113Y16213489D01*
X22906458Y16189928D01*
X22886496Y16000000D01*
X22906458Y15810072D01*
X22906459Y15810069D01*
X22965470Y15628451D01*
X22965473Y15628444D01*
X23060960Y15463056D01*
X23188747Y15321134D01*
X23343248Y15208882D01*
X23517712Y15131206D01*
X23542906Y15125851D01*
X23564362Y15121290D01*
X23625844Y15088098D01*
X23659620Y15026935D01*
X23654968Y14957220D01*
X23613363Y14901088D01*
X23564362Y14878710D01*
X23517714Y14868795D01*
X23343246Y14791117D01*
X23188745Y14678865D01*
X23060959Y14536943D01*
X22965473Y14371557D01*
X22965470Y14371550D01*
X22906459Y14189932D01*
X22906458Y14189928D01*
X22886496Y14000000D01*
X22906458Y13810072D01*
X22906459Y13810069D01*
X22965470Y13628451D01*
X22965473Y13628444D01*
X23060960Y13463056D01*
X23188747Y13321134D01*
X23343248Y13208882D01*
X23517712Y13131206D01*
X23542906Y13125851D01*
X23564362Y13121290D01*
X23625844Y13088098D01*
X23659620Y13026935D01*
X23654968Y12957220D01*
X23613363Y12901088D01*
X23564362Y12878710D01*
X23517714Y12868795D01*
X23343246Y12791117D01*
X23188745Y12678865D01*
X23060959Y12536943D01*
X22965473Y12371557D01*
X22965470Y12371550D01*
X22906459Y12189932D01*
X22906458Y12189928D01*
X22886496Y12000000D01*
X22906458Y11810072D01*
X22906459Y11810069D01*
X22965470Y11628451D01*
X22965473Y11628444D01*
X23060960Y11463056D01*
X23188747Y11321134D01*
X23343248Y11208882D01*
X23517712Y11131206D01*
X23542906Y11125851D01*
X23564362Y11121290D01*
X23625844Y11088098D01*
X23659620Y11026935D01*
X23654968Y10957220D01*
X23613363Y10901088D01*
X23564362Y10878710D01*
X23517714Y10868795D01*
X23343246Y10791117D01*
X23188745Y10678865D01*
X23060959Y10536943D01*
X22965473Y10371557D01*
X22965470Y10371550D01*
X22906459Y10189932D01*
X22906458Y10189928D01*
X22886496Y10000000D01*
X22906458Y9810072D01*
X22906459Y9810069D01*
X22965470Y9628451D01*
X22965473Y9628444D01*
X23060960Y9463056D01*
X23106361Y9412633D01*
X23175022Y9336377D01*
X23205252Y9273385D01*
X23196627Y9204050D01*
X23151885Y9150385D01*
X23085233Y9129427D01*
X23083045Y9129405D01*
X23026517Y9129326D01*
X19925000Y9125000D01*
X19909498Y10000001D01*
X19986296Y10000001D01*
X19986296Y10000000D01*
X20007034Y9829199D01*
X20049921Y9716117D01*
X20068046Y9668325D01*
X20112540Y9603865D01*
X20165786Y9526726D01*
X20165789Y9526723D01*
X20294567Y9412635D01*
X20294568Y9412635D01*
X20294570Y9412633D01*
X20446917Y9332675D01*
X20446919Y9332675D01*
X20446920Y9332674D01*
X20613972Y9291500D01*
X20786028Y9291500D01*
X20953079Y9332674D01*
X20953079Y9332675D01*
X20953083Y9332675D01*
X21105430Y9412633D01*
X21234215Y9526727D01*
X21331954Y9668325D01*
X21392965Y9829199D01*
X21413704Y10000000D01*
X21392965Y10170801D01*
X21331954Y10331675D01*
X21234215Y10473273D01*
X21234213Y10473275D01*
X21234210Y10473278D01*
X21105432Y10587366D01*
X20953079Y10667327D01*
X20786028Y10708500D01*
X20613972Y10708500D01*
X20446920Y10667327D01*
X20294567Y10587366D01*
X20165789Y10473278D01*
X20165786Y10473275D01*
X20068045Y10331674D01*
X20007034Y10170802D01*
X19986296Y10000001D01*
X19909498Y10000001D01*
X19886617Y11291500D01*
X19986028Y11291500D01*
X20153079Y11332674D01*
X20153079Y11332675D01*
X20153083Y11332675D01*
X20305430Y11412633D01*
X20434215Y11526727D01*
X20531954Y11668325D01*
X20592965Y11829199D01*
X20613704Y12000000D01*
X20592965Y12170801D01*
X20531954Y12331675D01*
X20434215Y12473273D01*
X20434213Y12473275D01*
X20434210Y12473278D01*
X20305432Y12587366D01*
X20153079Y12667327D01*
X19986028Y12708500D01*
X19861513Y12708500D01*
X19849783Y13370534D01*
X19921917Y13332675D01*
X19921919Y13332675D01*
X19921920Y13332674D01*
X20088972Y13291500D01*
X20261028Y13291500D01*
X20428079Y13332674D01*
X20428079Y13332675D01*
X20428083Y13332675D01*
X20580430Y13412633D01*
X20709215Y13526727D01*
X20806954Y13668325D01*
X20867965Y13829199D01*
X20888704Y14000000D01*
X20867965Y14170801D01*
X20806954Y14331675D01*
X20709215Y14473273D01*
X20709213Y14473275D01*
X20709210Y14473278D01*
X20580432Y14587366D01*
X20428079Y14667327D01*
X20261028Y14708500D01*
X20088972Y14708500D01*
X19921920Y14667327D01*
X19827685Y14617869D01*
X19820370Y15030774D01*
X19828083Y15032675D01*
X19980430Y15112633D01*
X20030273Y15156791D01*
X20093505Y15186512D01*
X20162769Y15177329D01*
X20194725Y15156792D01*
X20244570Y15112633D01*
X20396917Y15032675D01*
X20396919Y15032675D01*
X20396920Y15032674D01*
X20563972Y14991500D01*
X20736028Y14991500D01*
X20903079Y15032674D01*
X20903079Y15032675D01*
X20903083Y15032675D01*
X21055430Y15112633D01*
X21184215Y15226727D01*
X21281954Y15368325D01*
X21342965Y15529199D01*
X21363704Y15700000D01*
X21342965Y15870801D01*
X21281954Y16031675D01*
X21184215Y16173273D01*
X21184213Y16173275D01*
X21184210Y16173278D01*
X21055432Y16287366D01*
X20903079Y16367327D01*
X20736028Y16408500D01*
X20563972Y16408500D01*
X20396920Y16367327D01*
X20244569Y16287367D01*
X20194727Y16243210D01*
X20131493Y16213489D01*
X20062230Y16222673D01*
X20030273Y16243210D01*
X19980430Y16287367D01*
X19828079Y16367327D01*
X19796553Y16375098D01*
X19784037Y17081552D01*
X19817246Y17183757D01*
X19850500Y17393713D01*
X19850500Y17606287D01*
X19817246Y17816243D01*
X19768354Y17966714D01*
X19753149Y18825001D01*
X19836296Y18825001D01*
X19836296Y18825000D01*
X19857034Y18654199D01*
X19918045Y18493327D01*
X19918046Y18493325D01*
X20002098Y18371556D01*
X20015786Y18351726D01*
X20015789Y18351723D01*
X20144567Y18237635D01*
X20144568Y18237635D01*
X20144570Y18237633D01*
X20296917Y18157675D01*
X20296919Y18157675D01*
X20296920Y18157674D01*
X20463972Y18116500D01*
X20636028Y18116500D01*
X20803079Y18157674D01*
X20803079Y18157675D01*
X20803083Y18157675D01*
X20955430Y18237633D01*
X21084215Y18351727D01*
X21181954Y18493325D01*
X21242965Y18654199D01*
X21263704Y18825000D01*
X21258387Y18868794D01*
X21242965Y18995802D01*
X21181954Y19156674D01*
X21181954Y19156675D01*
X21084215Y19298273D01*
X21084213Y19298275D01*
X21084210Y19298278D01*
X20955432Y19412366D01*
X20803079Y19492327D01*
X20636028Y19533500D01*
X20463972Y19533500D01*
X20296920Y19492327D01*
X20144567Y19412366D01*
X20015789Y19298278D01*
X20015786Y19298275D01*
X19918045Y19156674D01*
X19857034Y18995802D01*
X19836296Y18825001D01*
X19753149Y18825001D01*
X19733228Y19949500D01*
X24484704Y19949500D01*
X24551743Y19929815D01*
G37*
%TD.AperFunction*%
%TA.AperFunction,Conductor*%
G36*
X37498785Y19929815D02*
G01*
X37544540Y19877011D01*
X37555698Y19828917D01*
X37561901Y19603865D01*
X37846493Y9277239D01*
X37828663Y9209683D01*
X37777139Y9162491D01*
X37722713Y9149823D01*
X25977790Y9133443D01*
X25910723Y9153034D01*
X25864895Y9205774D01*
X25859686Y9219125D01*
X25834529Y9296551D01*
X25834526Y9296557D01*
X25739040Y9461944D01*
X25611253Y9603866D01*
X25456752Y9716118D01*
X25282288Y9793794D01*
X25282286Y9793795D01*
X25235637Y9803710D01*
X25174155Y9836902D01*
X25140379Y9898065D01*
X25145031Y9967780D01*
X25186636Y10023912D01*
X25235637Y10046290D01*
X25282288Y10056206D01*
X25456752Y10133882D01*
X25611253Y10246134D01*
X25739040Y10388056D01*
X25834527Y10553444D01*
X25893542Y10735072D01*
X25913504Y10925000D01*
X25893542Y11114928D01*
X25834527Y11296556D01*
X25739040Y11461944D01*
X25611253Y11603866D01*
X25456752Y11716118D01*
X25282288Y11793794D01*
X25282286Y11793795D01*
X25235637Y11803710D01*
X25174155Y11836902D01*
X25140379Y11898065D01*
X25145031Y11967780D01*
X25186636Y12023912D01*
X25235637Y12046290D01*
X25282288Y12056206D01*
X25456752Y12133882D01*
X25611253Y12246134D01*
X25739040Y12388056D01*
X25834527Y12553444D01*
X25893542Y12735072D01*
X25913504Y12925000D01*
X25893542Y13114928D01*
X25834527Y13296556D01*
X25739040Y13461944D01*
X25611253Y13603866D01*
X25456752Y13716118D01*
X25282288Y13793794D01*
X25282286Y13793795D01*
X25235637Y13803710D01*
X25174155Y13836902D01*
X25140379Y13898065D01*
X25145031Y13967780D01*
X25186636Y14023912D01*
X25235637Y14046290D01*
X25282288Y14056206D01*
X25456752Y14133882D01*
X25611253Y14246134D01*
X25739040Y14388056D01*
X25834527Y14553444D01*
X25893542Y14735072D01*
X25913504Y14925000D01*
X25893542Y15114928D01*
X25834527Y15296556D01*
X25739040Y15461944D01*
X25611253Y15603866D01*
X25456752Y15716118D01*
X25282288Y15793794D01*
X25282286Y15793795D01*
X25235637Y15803710D01*
X25174155Y15836902D01*
X25140379Y15898065D01*
X25145031Y15967780D01*
X25186636Y16023912D01*
X25235637Y16046290D01*
X25282288Y16056206D01*
X25456752Y16133882D01*
X25611253Y16246134D01*
X25739040Y16388056D01*
X25834527Y16553444D01*
X25893542Y16735072D01*
X25913504Y16925000D01*
X25893542Y17114928D01*
X25834527Y17296556D01*
X25739040Y17461944D01*
X25611253Y17603866D01*
X25456752Y17716118D01*
X25282288Y17793794D01*
X25282286Y17793795D01*
X25235637Y17803710D01*
X25174155Y17836902D01*
X25140379Y17898065D01*
X25145031Y17967780D01*
X25186636Y18023912D01*
X25235637Y18046290D01*
X25282288Y18056206D01*
X25456752Y18133882D01*
X25611253Y18246134D01*
X25739040Y18388056D01*
X25834527Y18553444D01*
X25893542Y18735072D01*
X25913504Y18925000D01*
X25893542Y19114928D01*
X25834527Y19296556D01*
X25739040Y19461944D01*
X25611253Y19603866D01*
X25456752Y19716118D01*
X25456748Y19716121D01*
X25453302Y19718110D01*
X25451704Y19719785D01*
X25451494Y19719938D01*
X25451522Y19719977D01*
X25405083Y19768674D01*
X25391857Y19837280D01*
X25417821Y19902146D01*
X25474733Y19942678D01*
X25515296Y19949500D01*
X37431746Y19949500D01*
X37498785Y19929815D01*
G37*
%TD.AperFunction*%
%TD*%
%TA.AperFunction,Conductor*%
%TO.N,+2V8*%
G36*
X6446649Y19929815D02*
G01*
X6492404Y19877011D01*
X6502348Y19807853D01*
X6473323Y19744297D01*
X6452498Y19725185D01*
X6417642Y19699860D01*
X6388745Y19678865D01*
X6260959Y19536943D01*
X6165473Y19371557D01*
X6165470Y19371550D01*
X6106459Y19189932D01*
X6106458Y19189928D01*
X6086496Y19000000D01*
X6106458Y18810072D01*
X6106459Y18810069D01*
X6165470Y18628451D01*
X6165473Y18628444D01*
X6260960Y18463056D01*
X6388747Y18321134D01*
X6543248Y18208882D01*
X6717712Y18131206D01*
X6742906Y18125851D01*
X6764362Y18121290D01*
X6825844Y18088098D01*
X6859620Y18026935D01*
X6854968Y17957220D01*
X6813363Y17901088D01*
X6764362Y17878710D01*
X6717714Y17868795D01*
X6543246Y17791117D01*
X6388745Y17678865D01*
X6260959Y17536943D01*
X6165473Y17371557D01*
X6165470Y17371550D01*
X6106459Y17189932D01*
X6106458Y17189928D01*
X6086496Y17000000D01*
X6106458Y16810072D01*
X6106459Y16810069D01*
X6165470Y16628451D01*
X6165473Y16628444D01*
X6260960Y16463056D01*
X6388747Y16321134D01*
X6543248Y16208882D01*
X6717712Y16131206D01*
X6740402Y16126383D01*
X6764362Y16121290D01*
X6825844Y16088098D01*
X6859620Y16026935D01*
X6854968Y15957220D01*
X6813363Y15901088D01*
X6764362Y15878710D01*
X6717714Y15868795D01*
X6543246Y15791117D01*
X6388745Y15678865D01*
X6260959Y15536943D01*
X6165473Y15371557D01*
X6165470Y15371550D01*
X6106459Y15189932D01*
X6106458Y15189928D01*
X6086496Y15000000D01*
X6106458Y14810072D01*
X6106459Y14810069D01*
X6165470Y14628451D01*
X6165473Y14628444D01*
X6260960Y14463056D01*
X6388747Y14321134D01*
X6543248Y14208882D01*
X6717712Y14131206D01*
X6742906Y14125851D01*
X6764362Y14121290D01*
X6825844Y14088098D01*
X6859620Y14026935D01*
X6854968Y13957220D01*
X6813363Y13901088D01*
X6764362Y13878710D01*
X6717714Y13868795D01*
X6543246Y13791117D01*
X6388745Y13678865D01*
X6260959Y13536943D01*
X6165473Y13371557D01*
X6165470Y13371550D01*
X6106459Y13189932D01*
X6106458Y13189928D01*
X6086496Y13000000D01*
X6106458Y12810072D01*
X6106459Y12810069D01*
X6165470Y12628451D01*
X6165473Y12628444D01*
X6260960Y12463056D01*
X6388747Y12321134D01*
X6543248Y12208882D01*
X6717712Y12131206D01*
X6742906Y12125851D01*
X6764362Y12121290D01*
X6825844Y12088098D01*
X6859620Y12026935D01*
X6854968Y11957220D01*
X6813363Y11901088D01*
X6764362Y11878710D01*
X6717714Y11868795D01*
X6543246Y11791117D01*
X6388745Y11678865D01*
X6260959Y11536943D01*
X6165473Y11371557D01*
X6165470Y11371550D01*
X6106459Y11189932D01*
X6106458Y11189928D01*
X6086496Y11000000D01*
X6106458Y10810072D01*
X6106459Y10810069D01*
X6165470Y10628451D01*
X6165473Y10628444D01*
X6260960Y10463056D01*
X6388747Y10321134D01*
X6543248Y10208882D01*
X6717712Y10131206D01*
X6742906Y10125851D01*
X6764362Y10121290D01*
X6825844Y10088098D01*
X6859620Y10026935D01*
X6854968Y9957220D01*
X6813363Y9901088D01*
X6764362Y9878710D01*
X6717714Y9868795D01*
X6543246Y9791117D01*
X6388745Y9678865D01*
X6260959Y9536943D01*
X6165473Y9371557D01*
X6165470Y9371550D01*
X6110980Y9203846D01*
X6106458Y9189928D01*
X6086496Y9000000D01*
X6106458Y8810072D01*
X6106459Y8810069D01*
X6165470Y8628451D01*
X6165473Y8628444D01*
X6260960Y8463056D01*
X6388747Y8321134D01*
X6543248Y8208882D01*
X6717712Y8131206D01*
X6742906Y8125851D01*
X6764362Y8121290D01*
X6825844Y8088098D01*
X6859620Y8026935D01*
X6854968Y7957220D01*
X6813363Y7901088D01*
X6764362Y7878710D01*
X6717714Y7868795D01*
X6543246Y7791117D01*
X6388745Y7678865D01*
X6260959Y7536943D01*
X6165473Y7371557D01*
X6165470Y7371550D01*
X6106459Y7189932D01*
X6106458Y7189928D01*
X6086496Y7000000D01*
X6106458Y6810072D01*
X6106459Y6810069D01*
X6165470Y6628451D01*
X6165473Y6628444D01*
X6260960Y6463056D01*
X6388747Y6321134D01*
X6543248Y6208882D01*
X6717712Y6131206D01*
X6742906Y6125851D01*
X6764362Y6121290D01*
X6825844Y6088098D01*
X6859620Y6026935D01*
X6854968Y5957220D01*
X6813363Y5901088D01*
X6764362Y5878710D01*
X6717714Y5868795D01*
X6543246Y5791117D01*
X6388745Y5678865D01*
X6260959Y5536943D01*
X6165473Y5371557D01*
X6165470Y5371550D01*
X6106459Y5189932D01*
X6106458Y5189928D01*
X6086496Y5000000D01*
X6106458Y4810072D01*
X6106459Y4810069D01*
X6165470Y4628451D01*
X6165473Y4628444D01*
X6260960Y4463056D01*
X6282028Y4439658D01*
X6383227Y4327264D01*
X6388747Y4321134D01*
X6543248Y4208882D01*
X6717712Y4131206D01*
X6742906Y4125851D01*
X6764362Y4121290D01*
X6825844Y4088098D01*
X6859620Y4026935D01*
X6854968Y3957220D01*
X6813363Y3901088D01*
X6764362Y3878710D01*
X6717714Y3868795D01*
X6543246Y3791117D01*
X6388745Y3678865D01*
X6260959Y3536943D01*
X6165473Y3371557D01*
X6165470Y3371550D01*
X6109381Y3198925D01*
X6106458Y3189928D01*
X6086496Y3000000D01*
X6106458Y2810072D01*
X6106459Y2810069D01*
X6165470Y2628451D01*
X6165473Y2628444D01*
X6260960Y2463056D01*
X6357453Y2355890D01*
X6368500Y2343620D01*
X6388747Y2321134D01*
X6543248Y2208882D01*
X6717712Y2131206D01*
X6742906Y2125851D01*
X6764362Y2121290D01*
X6825844Y2088098D01*
X6859620Y2026935D01*
X6854968Y1957220D01*
X6813363Y1901088D01*
X6764362Y1878710D01*
X6717714Y1868795D01*
X6543246Y1791117D01*
X6388745Y1678865D01*
X6260959Y1536943D01*
X6165473Y1371557D01*
X6165470Y1371550D01*
X6106459Y1189932D01*
X6106458Y1189928D01*
X6086496Y1000000D01*
X6106458Y810072D01*
X6106459Y810069D01*
X6165470Y628451D01*
X6165473Y628444D01*
X6260960Y463056D01*
X6388747Y321134D01*
X6543248Y208882D01*
X6717712Y131206D01*
X6742906Y125851D01*
X6764362Y121290D01*
X6825844Y88098D01*
X6859620Y26935D01*
X6854968Y-42780D01*
X6813363Y-98912D01*
X6764362Y-121290D01*
X6717714Y-131205D01*
X6543246Y-208883D01*
X6388745Y-321135D01*
X6260959Y-463057D01*
X6165473Y-628443D01*
X6165470Y-628450D01*
X6106459Y-810068D01*
X6106458Y-810072D01*
X6086496Y-1000000D01*
X6106458Y-1189928D01*
X6106459Y-1189931D01*
X6165470Y-1371549D01*
X6165473Y-1371556D01*
X6260960Y-1536944D01*
X6388747Y-1678866D01*
X6543248Y-1791118D01*
X6717712Y-1868794D01*
X6742906Y-1874149D01*
X6764362Y-1878710D01*
X6825844Y-1911902D01*
X6859620Y-1973065D01*
X6854968Y-2042780D01*
X6813363Y-2098912D01*
X6764362Y-2121290D01*
X6717714Y-2131205D01*
X6543246Y-2208883D01*
X6388745Y-2321135D01*
X6260959Y-2463057D01*
X6165473Y-2628443D01*
X6165470Y-2628450D01*
X6106459Y-2810068D01*
X6106458Y-2810072D01*
X6086496Y-3000000D01*
X6106458Y-3189928D01*
X6106459Y-3189931D01*
X6165470Y-3371549D01*
X6165473Y-3371556D01*
X6260960Y-3536944D01*
X6388747Y-3678866D01*
X6543248Y-3791118D01*
X6717712Y-3868794D01*
X6742906Y-3874149D01*
X6764362Y-3878710D01*
X6825844Y-3911902D01*
X6859620Y-3973065D01*
X6854968Y-4042780D01*
X6813363Y-4098912D01*
X6764362Y-4121290D01*
X6717714Y-4131205D01*
X6543246Y-4208883D01*
X6388745Y-4321135D01*
X6260959Y-4463057D01*
X6165473Y-4628443D01*
X6165470Y-4628450D01*
X6106459Y-4810068D01*
X6106458Y-4810072D01*
X6086496Y-5000000D01*
X6106458Y-5189928D01*
X6106459Y-5189931D01*
X6165470Y-5371549D01*
X6165473Y-5371556D01*
X6260960Y-5536944D01*
X6388747Y-5678866D01*
X6543248Y-5791118D01*
X6717712Y-5868794D01*
X6742906Y-5874149D01*
X6764362Y-5878710D01*
X6825844Y-5911902D01*
X6859620Y-5973065D01*
X6854968Y-6042780D01*
X6813363Y-6098912D01*
X6764362Y-6121290D01*
X6717714Y-6131205D01*
X6543246Y-6208883D01*
X6388745Y-6321135D01*
X6260959Y-6463057D01*
X6165473Y-6628443D01*
X6165470Y-6628450D01*
X6106459Y-6810068D01*
X6106458Y-6810072D01*
X6086496Y-7000000D01*
X6106458Y-7189928D01*
X6106459Y-7189931D01*
X6165470Y-7371549D01*
X6165473Y-7371556D01*
X6260960Y-7536944D01*
X6388747Y-7678866D01*
X6543248Y-7791118D01*
X6717712Y-7868794D01*
X6742906Y-7874149D01*
X6764362Y-7878710D01*
X6825844Y-7911902D01*
X6859620Y-7973065D01*
X6854968Y-8042780D01*
X6813363Y-8098912D01*
X6764362Y-8121290D01*
X6717714Y-8131205D01*
X6543246Y-8208883D01*
X6388745Y-8321135D01*
X6260959Y-8463057D01*
X6165473Y-8628443D01*
X6165470Y-8628450D01*
X6106459Y-8810068D01*
X6106458Y-8810072D01*
X6086496Y-9000000D01*
X6106458Y-9189928D01*
X6106459Y-9189931D01*
X6165470Y-9371549D01*
X6165473Y-9371556D01*
X6260960Y-9536944D01*
X6388747Y-9678866D01*
X6543248Y-9791118D01*
X6717712Y-9868794D01*
X6742906Y-9874149D01*
X6764362Y-9878710D01*
X6825844Y-9911902D01*
X6859620Y-9973065D01*
X6854968Y-10042780D01*
X6813363Y-10098912D01*
X6764362Y-10121290D01*
X6717714Y-10131205D01*
X6543246Y-10208883D01*
X6388745Y-10321135D01*
X6260959Y-10463057D01*
X6165473Y-10628443D01*
X6165470Y-10628450D01*
X6106459Y-10810068D01*
X6106458Y-10810072D01*
X6086496Y-11000000D01*
X6106458Y-11189928D01*
X6106459Y-11189931D01*
X6165470Y-11371549D01*
X6165473Y-11371556D01*
X6260960Y-11536944D01*
X6388747Y-11678866D01*
X6543248Y-11791118D01*
X6717712Y-11868794D01*
X6742906Y-11874149D01*
X6764362Y-11878710D01*
X6825844Y-11911902D01*
X6859620Y-11973065D01*
X6854968Y-12042780D01*
X6813363Y-12098912D01*
X6764362Y-12121290D01*
X6717714Y-12131205D01*
X6543246Y-12208883D01*
X6388745Y-12321135D01*
X6260959Y-12463057D01*
X6165473Y-12628443D01*
X6165470Y-12628450D01*
X6106459Y-12810068D01*
X6106458Y-12810072D01*
X6086496Y-13000000D01*
X6106458Y-13189928D01*
X6106459Y-13189931D01*
X6165470Y-13371549D01*
X6165473Y-13371556D01*
X6260960Y-13536944D01*
X6388747Y-13678866D01*
X6543248Y-13791118D01*
X6548871Y-13794364D01*
X6547429Y-13796860D01*
X6591076Y-13833949D01*
X6611407Y-13900796D01*
X6592371Y-13968022D01*
X6560299Y-14002311D01*
X6403634Y-14116135D01*
X6275848Y-14258057D01*
X6180362Y-14423443D01*
X6180359Y-14423450D01*
X6121348Y-14605068D01*
X6121347Y-14605072D01*
X6101385Y-14795000D01*
X6121347Y-14984928D01*
X6121348Y-14984931D01*
X6180359Y-15166549D01*
X6180362Y-15166556D01*
X6275849Y-15331944D01*
X6285724Y-15342911D01*
X6393903Y-15463057D01*
X6403636Y-15473866D01*
X6558137Y-15586118D01*
X6732601Y-15663794D01*
X6919402Y-15703500D01*
X7110376Y-15703500D01*
X7297177Y-15663794D01*
X7471641Y-15586118D01*
X7626142Y-15473866D01*
X7753929Y-15331944D01*
X7849416Y-15166556D01*
X7908431Y-14984928D01*
X7928393Y-14795000D01*
X7928392Y-14794997D01*
X7929072Y-14788536D01*
X7930312Y-14788666D01*
X7948078Y-14728166D01*
X8000882Y-14682411D01*
X8022708Y-14674811D01*
X8053083Y-14667325D01*
X8205430Y-14587367D01*
X8334215Y-14473273D01*
X8431954Y-14331675D01*
X8492965Y-14170801D01*
X8513704Y-14000000D01*
X8513704Y-13999999D01*
X20336296Y-13999999D01*
X20336296Y-14000000D01*
X20357034Y-14170801D01*
X20418045Y-14331673D01*
X20418046Y-14331675D01*
X20515785Y-14473273D01*
X20515786Y-14473274D01*
X20515789Y-14473277D01*
X20644567Y-14587365D01*
X20644568Y-14587365D01*
X20644570Y-14587367D01*
X20796917Y-14667325D01*
X20796919Y-14667325D01*
X20796920Y-14667326D01*
X20963972Y-14708500D01*
X21136028Y-14708500D01*
X21303079Y-14667326D01*
X21303079Y-14667325D01*
X21303083Y-14667325D01*
X21455430Y-14587367D01*
X21584215Y-14473273D01*
X21681954Y-14331675D01*
X21742965Y-14170801D01*
X21763704Y-14000000D01*
X21751659Y-13900796D01*
X21742965Y-13829198D01*
X21712459Y-13748762D01*
X21681954Y-13668325D01*
X21584215Y-13526727D01*
X21584213Y-13526725D01*
X21584210Y-13526722D01*
X21455432Y-13412634D01*
X21303079Y-13332673D01*
X21136028Y-13291500D01*
X20963972Y-13291500D01*
X20796920Y-13332673D01*
X20644567Y-13412634D01*
X20515789Y-13526722D01*
X20515786Y-13526725D01*
X20418045Y-13668326D01*
X20357034Y-13829198D01*
X20336296Y-13999999D01*
X8513704Y-13999999D01*
X8501659Y-13900796D01*
X8492965Y-13829198D01*
X8462459Y-13748762D01*
X8431954Y-13668325D01*
X8334215Y-13526727D01*
X8334213Y-13526725D01*
X8334210Y-13526722D01*
X8205432Y-13412634D01*
X8053079Y-13332673D01*
X7987889Y-13316606D01*
X7927508Y-13281450D01*
X7895720Y-13219230D01*
X7894243Y-13183255D01*
X7913504Y-13000000D01*
X7893542Y-12810072D01*
X7834527Y-12628444D01*
X7739040Y-12463056D01*
X7611253Y-12321134D01*
X7456752Y-12208882D01*
X7282288Y-12131206D01*
X7282286Y-12131205D01*
X7235637Y-12121290D01*
X7174155Y-12088098D01*
X7140379Y-12026935D01*
X7145031Y-11957220D01*
X7186636Y-11901088D01*
X7235637Y-11878710D01*
X7282288Y-11868794D01*
X7456752Y-11791118D01*
X7611253Y-11678866D01*
X7739040Y-11536944D01*
X7834527Y-11371556D01*
X7893542Y-11189928D01*
X7913504Y-11000000D01*
X7893542Y-10810072D01*
X7834527Y-10628444D01*
X7739040Y-10463056D01*
X7611253Y-10321134D01*
X7456752Y-10208882D01*
X7282288Y-10131206D01*
X7282286Y-10131205D01*
X7235637Y-10121290D01*
X7174155Y-10088098D01*
X7140379Y-10026935D01*
X7142176Y-9999999D01*
X11536296Y-9999999D01*
X11536296Y-10000000D01*
X11557034Y-10170801D01*
X11618045Y-10331673D01*
X11618046Y-10331675D01*
X11715785Y-10473273D01*
X11715786Y-10473274D01*
X11715789Y-10473277D01*
X11844567Y-10587365D01*
X11844568Y-10587365D01*
X11844570Y-10587367D01*
X11996917Y-10667325D01*
X11996919Y-10667325D01*
X11996920Y-10667326D01*
X12163972Y-10708500D01*
X12336028Y-10708500D01*
X12503079Y-10667326D01*
X12503079Y-10667325D01*
X12503083Y-10667325D01*
X12655430Y-10587367D01*
X12784215Y-10473273D01*
X12881954Y-10331675D01*
X12942965Y-10170801D01*
X12963704Y-10000000D01*
X12963704Y-9999999D01*
X18686296Y-9999999D01*
X18686296Y-10000000D01*
X18707034Y-10170801D01*
X18768045Y-10331673D01*
X18768046Y-10331675D01*
X18865785Y-10473273D01*
X18865786Y-10473274D01*
X18865789Y-10473277D01*
X18994567Y-10587365D01*
X18994568Y-10587365D01*
X18994570Y-10587367D01*
X19146917Y-10667325D01*
X19146919Y-10667325D01*
X19146920Y-10667326D01*
X19313972Y-10708500D01*
X19486028Y-10708500D01*
X19653079Y-10667326D01*
X19653079Y-10667325D01*
X19653083Y-10667325D01*
X19805430Y-10587367D01*
X19934215Y-10473273D01*
X20031954Y-10331675D01*
X20092965Y-10170801D01*
X20113704Y-10000000D01*
X20110434Y-9973065D01*
X20092965Y-9829198D01*
X20062459Y-9748762D01*
X20031954Y-9668325D01*
X19934215Y-9526727D01*
X19934213Y-9526725D01*
X19934210Y-9526722D01*
X19805432Y-9412634D01*
X19653079Y-9332673D01*
X19486028Y-9291500D01*
X19313972Y-9291500D01*
X19146920Y-9332673D01*
X18994567Y-9412634D01*
X18865789Y-9526722D01*
X18865786Y-9526725D01*
X18768045Y-9668326D01*
X18707034Y-9829198D01*
X18686296Y-9999999D01*
X12963704Y-9999999D01*
X12960434Y-9973065D01*
X12942965Y-9829198D01*
X12912459Y-9748762D01*
X12881954Y-9668325D01*
X12784215Y-9526727D01*
X12784213Y-9526725D01*
X12784210Y-9526722D01*
X12655432Y-9412634D01*
X12503079Y-9332673D01*
X12336028Y-9291500D01*
X12163972Y-9291500D01*
X11996920Y-9332673D01*
X11844567Y-9412634D01*
X11715789Y-9526722D01*
X11715786Y-9526725D01*
X11618045Y-9668326D01*
X11557034Y-9829198D01*
X11536296Y-9999999D01*
X7142176Y-9999999D01*
X7145031Y-9957220D01*
X7186636Y-9901088D01*
X7235637Y-9878710D01*
X7282288Y-9868794D01*
X7456752Y-9791118D01*
X7611253Y-9678866D01*
X7739040Y-9536944D01*
X7834527Y-9371556D01*
X7893542Y-9189928D01*
X7913504Y-9000000D01*
X7893542Y-8810072D01*
X7834527Y-8628444D01*
X7752796Y-8486882D01*
X12631408Y-8486882D01*
X12631408Y-8486883D01*
X12652146Y-8657684D01*
X12713157Y-8818556D01*
X12713158Y-8818558D01*
X12810897Y-8960156D01*
X12810898Y-8960157D01*
X12810901Y-8960160D01*
X12939679Y-9074248D01*
X12939680Y-9074248D01*
X12939682Y-9074250D01*
X13092029Y-9154208D01*
X13092031Y-9154208D01*
X13092032Y-9154209D01*
X13259084Y-9195383D01*
X13431140Y-9195383D01*
X13598191Y-9154209D01*
X13598191Y-9154208D01*
X13598195Y-9154208D01*
X13750542Y-9074250D01*
X13879327Y-8960156D01*
X13977066Y-8818558D01*
X14038077Y-8657684D01*
X14058816Y-8486883D01*
X14038691Y-8321134D01*
X14038077Y-8316081D01*
X13997422Y-8208882D01*
X13977066Y-8155208D01*
X13879327Y-8013610D01*
X13879325Y-8013608D01*
X13879322Y-8013605D01*
X13750544Y-7899517D01*
X13598191Y-7819556D01*
X13431140Y-7778383D01*
X13259084Y-7778383D01*
X13092032Y-7819556D01*
X12939679Y-7899517D01*
X12810901Y-8013605D01*
X12810898Y-8013608D01*
X12713157Y-8155209D01*
X12652146Y-8316081D01*
X12631408Y-8486882D01*
X7752796Y-8486882D01*
X7739040Y-8463056D01*
X7611253Y-8321134D01*
X7456752Y-8208882D01*
X7282288Y-8131206D01*
X7282286Y-8131205D01*
X7235637Y-8121290D01*
X7174155Y-8088098D01*
X7140379Y-8026935D01*
X7145031Y-7957220D01*
X7186636Y-7901088D01*
X7235637Y-7878710D01*
X7282288Y-7868794D01*
X7456752Y-7791118D01*
X7611253Y-7678866D01*
X7739040Y-7536944D01*
X7834527Y-7371556D01*
X7893542Y-7189928D01*
X7913504Y-7000000D01*
X7893542Y-6810072D01*
X7834527Y-6628444D01*
X7739040Y-6463056D01*
X7611253Y-6321134D01*
X7456752Y-6208882D01*
X7282288Y-6131206D01*
X7282286Y-6131205D01*
X7235637Y-6121290D01*
X7174155Y-6088098D01*
X7140379Y-6026935D01*
X7142176Y-5999999D01*
X12911296Y-5999999D01*
X12911296Y-6000000D01*
X12932034Y-6170801D01*
X12993045Y-6331673D01*
X12993046Y-6331675D01*
X13090785Y-6473273D01*
X13090786Y-6473274D01*
X13090789Y-6473277D01*
X13219567Y-6587365D01*
X13219568Y-6587365D01*
X13219570Y-6587367D01*
X13371917Y-6667325D01*
X13371919Y-6667325D01*
X13371920Y-6667326D01*
X13538972Y-6708500D01*
X13711028Y-6708500D01*
X13878079Y-6667326D01*
X13878079Y-6667325D01*
X13878083Y-6667325D01*
X14030430Y-6587367D01*
X14159215Y-6473273D01*
X14256954Y-6331675D01*
X14317965Y-6170801D01*
X14338704Y-6000000D01*
X14335434Y-5973065D01*
X14317965Y-5829198D01*
X14287459Y-5748762D01*
X14256954Y-5668325D01*
X14159215Y-5526727D01*
X14159213Y-5526725D01*
X14159210Y-5526722D01*
X14030432Y-5412634D01*
X13878079Y-5332673D01*
X13711028Y-5291500D01*
X13538972Y-5291500D01*
X13371920Y-5332673D01*
X13219567Y-5412634D01*
X13090789Y-5526722D01*
X13090786Y-5526725D01*
X12993045Y-5668326D01*
X12932034Y-5829198D01*
X12911296Y-5999999D01*
X7142176Y-5999999D01*
X7145031Y-5957220D01*
X7186636Y-5901088D01*
X7235637Y-5878710D01*
X7282288Y-5868794D01*
X7456752Y-5791118D01*
X7611253Y-5678866D01*
X7739040Y-5536944D01*
X7834527Y-5371556D01*
X7893542Y-5189928D01*
X7913504Y-5000000D01*
X7893542Y-4810072D01*
X7834527Y-4628444D01*
X7739040Y-4463056D01*
X7611253Y-4321134D01*
X7456752Y-4208882D01*
X7282288Y-4131206D01*
X7282286Y-4131205D01*
X7235637Y-4121290D01*
X7174155Y-4088098D01*
X7140379Y-4026935D01*
X7145031Y-3957220D01*
X7186636Y-3901088D01*
X7235637Y-3878710D01*
X7282288Y-3868794D01*
X7456752Y-3791118D01*
X7611253Y-3678866D01*
X7739040Y-3536944D01*
X7745936Y-3524999D01*
X14036296Y-3524999D01*
X14036296Y-3525000D01*
X14057034Y-3695801D01*
X14118045Y-3856673D01*
X14118046Y-3856675D01*
X14153819Y-3908500D01*
X14215786Y-3998274D01*
X14215789Y-3998277D01*
X14344567Y-4112365D01*
X14344568Y-4112365D01*
X14344570Y-4112367D01*
X14496917Y-4192325D01*
X14496919Y-4192325D01*
X14496920Y-4192326D01*
X14663972Y-4233500D01*
X14836028Y-4233500D01*
X15003079Y-4192326D01*
X15003079Y-4192325D01*
X15003083Y-4192325D01*
X15155430Y-4112367D01*
X15284215Y-3998273D01*
X15381954Y-3856675D01*
X15442965Y-3695801D01*
X15463704Y-3525000D01*
X15442965Y-3354199D01*
X15381954Y-3193325D01*
X15284215Y-3051727D01*
X15284213Y-3051725D01*
X15284210Y-3051722D01*
X15155432Y-2937634D01*
X15003079Y-2857673D01*
X14836028Y-2816500D01*
X14663972Y-2816500D01*
X14496920Y-2857673D01*
X14344567Y-2937634D01*
X14215789Y-3051722D01*
X14215786Y-3051725D01*
X14118045Y-3193326D01*
X14057034Y-3354198D01*
X14036296Y-3524999D01*
X7745936Y-3524999D01*
X7834527Y-3371556D01*
X7893542Y-3189928D01*
X7913504Y-3000000D01*
X7893542Y-2810072D01*
X7834527Y-2628444D01*
X7739040Y-2463056D01*
X7611253Y-2321134D01*
X7456752Y-2208882D01*
X7282288Y-2131206D01*
X7282286Y-2131205D01*
X7235637Y-2121290D01*
X7174155Y-2088098D01*
X7140379Y-2026935D01*
X7142176Y-1999999D01*
X16611296Y-1999999D01*
X16611296Y-2000000D01*
X16632034Y-2170801D01*
X16693045Y-2331673D01*
X16693046Y-2331675D01*
X16790785Y-2473273D01*
X16790786Y-2473274D01*
X16790789Y-2473277D01*
X16919567Y-2587365D01*
X16919568Y-2587365D01*
X16919570Y-2587367D01*
X17071917Y-2667325D01*
X17071919Y-2667325D01*
X17071920Y-2667326D01*
X17238972Y-2708500D01*
X17411028Y-2708500D01*
X17578079Y-2667326D01*
X17578079Y-2667325D01*
X17578083Y-2667325D01*
X17730430Y-2587367D01*
X17859215Y-2473273D01*
X17956954Y-2331675D01*
X18017965Y-2170801D01*
X18038704Y-2000000D01*
X18035434Y-1973065D01*
X18017965Y-1829198D01*
X17987459Y-1748762D01*
X17956954Y-1668325D01*
X17859215Y-1526727D01*
X17859213Y-1526725D01*
X17859210Y-1526722D01*
X17730432Y-1412634D01*
X17578079Y-1332673D01*
X17411028Y-1291500D01*
X17238972Y-1291500D01*
X17071920Y-1332673D01*
X16919567Y-1412634D01*
X16790789Y-1526722D01*
X16790786Y-1526725D01*
X16693045Y-1668326D01*
X16632034Y-1829198D01*
X16611296Y-1999999D01*
X7142176Y-1999999D01*
X7145031Y-1957220D01*
X7186636Y-1901088D01*
X7235637Y-1878710D01*
X7282288Y-1868794D01*
X7456752Y-1791118D01*
X7611253Y-1678866D01*
X7739040Y-1536944D01*
X7834527Y-1371556D01*
X7893542Y-1189928D01*
X7913504Y-1000000D01*
X7893542Y-810072D01*
X7834527Y-628444D01*
X7739040Y-463056D01*
X7611253Y-321134D01*
X7456752Y-208882D01*
X7282288Y-131206D01*
X7282286Y-131205D01*
X7235637Y-121290D01*
X7174155Y-88098D01*
X7140379Y-26935D01*
X7142176Y1D01*
X17111296Y1D01*
X17111296Y0D01*
X17132034Y-170801D01*
X17193045Y-331673D01*
X17193046Y-331675D01*
X17290785Y-473273D01*
X17290786Y-473274D01*
X17290789Y-473277D01*
X17419567Y-587365D01*
X17419568Y-587365D01*
X17419570Y-587367D01*
X17571917Y-667325D01*
X17571919Y-667325D01*
X17571920Y-667326D01*
X17738972Y-708500D01*
X17911028Y-708500D01*
X18078079Y-667326D01*
X18078079Y-667325D01*
X18078083Y-667325D01*
X18230430Y-587367D01*
X18359215Y-473273D01*
X18456954Y-331675D01*
X18517965Y-170801D01*
X18538704Y0D01*
X18538704Y1D01*
X19161296Y1D01*
X19161296Y0D01*
X19182034Y-170801D01*
X19243045Y-331673D01*
X19243046Y-331675D01*
X19340785Y-473273D01*
X19340786Y-473274D01*
X19340789Y-473277D01*
X19469567Y-587365D01*
X19469568Y-587365D01*
X19469570Y-587367D01*
X19621917Y-667325D01*
X19621919Y-667325D01*
X19621920Y-667326D01*
X19788972Y-708500D01*
X19961028Y-708500D01*
X20128079Y-667326D01*
X20128079Y-667325D01*
X20128083Y-667325D01*
X20280430Y-587367D01*
X20409215Y-473273D01*
X20506954Y-331675D01*
X20567965Y-170801D01*
X20588704Y0D01*
X20585434Y26935D01*
X20567965Y170802D01*
X20537459Y251238D01*
X20506954Y331675D01*
X20409215Y473273D01*
X20409213Y473275D01*
X20409210Y473278D01*
X20280432Y587366D01*
X20128079Y667327D01*
X19961028Y708500D01*
X19788972Y708500D01*
X19621920Y667327D01*
X19469567Y587366D01*
X19340789Y473278D01*
X19340786Y473275D01*
X19243045Y331674D01*
X19182034Y170802D01*
X19161296Y1D01*
X18538704Y1D01*
X18535434Y26935D01*
X18517965Y170802D01*
X18487459Y251238D01*
X18456954Y331675D01*
X18359215Y473273D01*
X18359213Y473275D01*
X18359210Y473278D01*
X18230432Y587366D01*
X18078079Y667327D01*
X17911028Y708500D01*
X17738972Y708500D01*
X17571920Y667327D01*
X17419567Y587366D01*
X17290789Y473278D01*
X17290786Y473275D01*
X17193045Y331674D01*
X17132034Y170802D01*
X17111296Y1D01*
X7142176Y1D01*
X7145031Y42780D01*
X7186636Y98912D01*
X7235637Y121290D01*
X7282288Y131206D01*
X7456752Y208882D01*
X7611253Y321134D01*
X7739040Y463056D01*
X7834527Y628444D01*
X7893542Y810072D01*
X7913504Y1000000D01*
X7893542Y1189928D01*
X7834527Y1371556D01*
X7739040Y1536944D01*
X7611253Y1678866D01*
X7456752Y1791118D01*
X7282288Y1868794D01*
X7282286Y1868795D01*
X7235637Y1878710D01*
X7174155Y1911902D01*
X7140379Y1973065D01*
X7145031Y2042780D01*
X7186636Y2098912D01*
X7235637Y2121290D01*
X7282288Y2131206D01*
X7456752Y2208882D01*
X7611253Y2321134D01*
X7739040Y2463056D01*
X7834527Y2628444D01*
X7893542Y2810072D01*
X7913504Y3000000D01*
X7893542Y3189928D01*
X7834527Y3371556D01*
X7739040Y3536944D01*
X7611253Y3678866D01*
X7456752Y3791118D01*
X7282288Y3868794D01*
X7282286Y3868795D01*
X7235637Y3878710D01*
X7174155Y3911902D01*
X7140379Y3973065D01*
X7145031Y4042780D01*
X7186636Y4098912D01*
X7235637Y4121290D01*
X7282288Y4131206D01*
X7456752Y4208882D01*
X7611253Y4321134D01*
X7739040Y4463056D01*
X7834527Y4628444D01*
X7893542Y4810072D01*
X7913504Y5000000D01*
X7893542Y5189928D01*
X7834527Y5371556D01*
X7739040Y5536944D01*
X7611253Y5678866D01*
X7456752Y5791118D01*
X7282288Y5868794D01*
X7282286Y5868795D01*
X7235637Y5878710D01*
X7174155Y5911902D01*
X7140379Y5973065D01*
X7142176Y6000001D01*
X9361296Y6000001D01*
X9361296Y6000000D01*
X9382034Y5829199D01*
X9443045Y5668327D01*
X9443046Y5668325D01*
X9540783Y5526730D01*
X9540786Y5526726D01*
X9540789Y5526723D01*
X9669567Y5412635D01*
X9669568Y5412635D01*
X9669570Y5412633D01*
X9821917Y5332675D01*
X9821919Y5332675D01*
X9821920Y5332674D01*
X9988972Y5291500D01*
X10161028Y5291500D01*
X10328079Y5332674D01*
X10328079Y5332675D01*
X10328083Y5332675D01*
X10480430Y5412633D01*
X10609215Y5526727D01*
X10647190Y5581744D01*
X10701473Y5625733D01*
X10770922Y5633393D01*
X10833487Y5602289D01*
X10869304Y5542298D01*
X10873240Y5511303D01*
X10873240Y2414059D01*
X10853555Y2347020D01*
X10851291Y2343620D01*
X10843046Y2331676D01*
X10782034Y2170802D01*
X10761296Y2000001D01*
X10761296Y2000000D01*
X10782034Y1829199D01*
X10843045Y1668327D01*
X10843046Y1668325D01*
X10940785Y1526727D01*
X10940786Y1526726D01*
X10940789Y1526723D01*
X11069567Y1412635D01*
X11069568Y1412635D01*
X11069570Y1412633D01*
X11221917Y1332675D01*
X11221919Y1332675D01*
X11221920Y1332674D01*
X11388972Y1291500D01*
X11561028Y1291500D01*
X11728079Y1332674D01*
X11728079Y1332675D01*
X11728083Y1332675D01*
X11880430Y1412633D01*
X12009215Y1526727D01*
X12106954Y1668325D01*
X12167965Y1829199D01*
X12188704Y2000000D01*
X12167965Y2170801D01*
X12167964Y2170804D01*
X12167964Y2170806D01*
X12157450Y2198528D01*
X12152082Y2268191D01*
X12185228Y2329697D01*
X12246366Y2363519D01*
X12273391Y2366500D01*
X12336028Y2366500D01*
X12503079Y2407674D01*
X12503079Y2407675D01*
X12503083Y2407675D01*
X12655430Y2487633D01*
X12784215Y2601727D01*
X12881954Y2743325D01*
X12942965Y2904199D01*
X12963704Y3075000D01*
X12963703Y3075002D01*
X12964389Y3080644D01*
X12992011Y3144822D01*
X13049945Y3183879D01*
X13057805Y3186094D01*
X13060129Y3186666D01*
X13212476Y3266624D01*
X13212476Y3266625D01*
X13213777Y3267307D01*
X13282286Y3281033D01*
X13347339Y3255540D01*
X13388283Y3198925D01*
X13394499Y3142566D01*
X13386296Y3075002D01*
X13386296Y3075000D01*
X13407034Y2904199D01*
X13449921Y2791117D01*
X13468046Y2743325D01*
X13565785Y2601727D01*
X13565786Y2601726D01*
X13565789Y2601723D01*
X13694567Y2487635D01*
X13694568Y2487635D01*
X13694570Y2487633D01*
X13846917Y2407675D01*
X13846919Y2407675D01*
X13846920Y2407674D01*
X14013972Y2366500D01*
X14186028Y2366500D01*
X14353079Y2407674D01*
X14353079Y2407675D01*
X14353083Y2407675D01*
X14505430Y2487633D01*
X14634215Y2601727D01*
X14731954Y2743325D01*
X14792965Y2904199D01*
X14810669Y3050001D01*
X16536296Y3050001D01*
X16536296Y3050000D01*
X16557034Y2879199D01*
X16618045Y2718327D01*
X16618046Y2718325D01*
X16715785Y2576727D01*
X16715786Y2576726D01*
X16715789Y2576723D01*
X16844567Y2462635D01*
X16844568Y2462635D01*
X16844570Y2462633D01*
X16996917Y2382675D01*
X16996919Y2382675D01*
X16996920Y2382674D01*
X17163972Y2341500D01*
X17336028Y2341500D01*
X17503079Y2382674D01*
X17503079Y2382675D01*
X17503083Y2382675D01*
X17655430Y2462633D01*
X17784215Y2576727D01*
X17881954Y2718325D01*
X17942965Y2879199D01*
X17963704Y3050000D01*
X17960669Y3075000D01*
X17942965Y3220802D01*
X17885794Y3371550D01*
X17881954Y3381675D01*
X17784215Y3523273D01*
X17784213Y3523275D01*
X17784210Y3523278D01*
X17655432Y3637366D01*
X17503079Y3717327D01*
X17336028Y3758500D01*
X17163972Y3758500D01*
X16996920Y3717327D01*
X16844567Y3637366D01*
X16715789Y3523278D01*
X16715786Y3523275D01*
X16618045Y3381674D01*
X16557034Y3220802D01*
X16536296Y3050001D01*
X14810669Y3050001D01*
X14813704Y3075000D01*
X14796001Y3220802D01*
X14792965Y3245802D01*
X14741798Y3380718D01*
X14731954Y3406675D01*
X14634215Y3548273D01*
X14634213Y3548275D01*
X14634210Y3548278D01*
X14505432Y3662366D01*
X14353079Y3742327D01*
X14186028Y3783500D01*
X14013972Y3783500D01*
X13846918Y3742326D01*
X13693267Y3661684D01*
X13624759Y3647960D01*
X13559706Y3673452D01*
X13518762Y3730068D01*
X13512546Y3786428D01*
X13520750Y3853991D01*
X13500011Y4024792D01*
X13499198Y4026935D01*
X13439000Y4185665D01*
X13439000Y4185666D01*
X13341261Y4327264D01*
X13341259Y4327266D01*
X13341256Y4327269D01*
X13212478Y4441357D01*
X13060125Y4521318D01*
X12893074Y4562491D01*
X12721018Y4562491D01*
X12553966Y4521318D01*
X12401615Y4441358D01*
X12296467Y4348204D01*
X12233234Y4318483D01*
X12163970Y4327667D01*
X12110667Y4372839D01*
X12090247Y4439658D01*
X12090240Y4441020D01*
X12090240Y8105278D01*
X12109925Y8172317D01*
X12112173Y8175694D01*
X12113694Y8177896D01*
X12174705Y8338770D01*
X12195444Y8509571D01*
X12192121Y8536943D01*
X12174705Y8680373D01*
X12125518Y8810069D01*
X12113694Y8841246D01*
X12015955Y8982844D01*
X12015953Y8982846D01*
X12015950Y8982849D01*
X11912169Y9074791D01*
X11875042Y9133980D01*
X11875810Y9203846D01*
X11914228Y9262205D01*
X11978098Y9290530D01*
X11979457Y9290703D01*
X11986023Y9291500D01*
X11986028Y9291500D01*
X12153083Y9332675D01*
X12305430Y9412633D01*
X12434215Y9526727D01*
X12531954Y9668325D01*
X12592965Y9829199D01*
X12613704Y10000000D01*
X12610434Y10026935D01*
X12592965Y10170802D01*
X12562459Y10251238D01*
X12531954Y10331675D01*
X12434215Y10473273D01*
X12434213Y10473275D01*
X12434210Y10473278D01*
X12305432Y10587366D01*
X12153079Y10667327D01*
X11986028Y10708500D01*
X11813972Y10708500D01*
X11646920Y10667327D01*
X11494567Y10587366D01*
X11365789Y10473278D01*
X11365786Y10473275D01*
X11268045Y10331674D01*
X11207034Y10170802D01*
X11186296Y10000001D01*
X11186296Y10000000D01*
X11207034Y9829199D01*
X11268045Y9668327D01*
X11268046Y9668325D01*
X11365785Y9526727D01*
X11365786Y9526726D01*
X11365789Y9526723D01*
X11469570Y9434781D01*
X11506697Y9375592D01*
X11505929Y9305726D01*
X11467511Y9247367D01*
X11403641Y9219042D01*
X11402292Y9218870D01*
X11395711Y9218071D01*
X11228660Y9176898D01*
X11076307Y9096937D01*
X10947529Y8982849D01*
X10947526Y8982846D01*
X10849785Y8841245D01*
X10788774Y8680373D01*
X10768036Y8509572D01*
X10768036Y8509571D01*
X10788774Y8338770D01*
X10849785Y8177897D01*
X10849786Y8177896D01*
X10851288Y8175720D01*
X10851897Y8173873D01*
X10853272Y8171254D01*
X10852836Y8171026D01*
X10873173Y8109368D01*
X10873240Y8105278D01*
X10873240Y6488698D01*
X10853555Y6421659D01*
X10800751Y6375904D01*
X10731593Y6365960D01*
X10668037Y6394985D01*
X10647191Y6418257D01*
X10609218Y6473269D01*
X10609216Y6473271D01*
X10609215Y6473273D01*
X10609212Y6473276D01*
X10609210Y6473278D01*
X10480432Y6587366D01*
X10328079Y6667327D01*
X10161028Y6708500D01*
X9988972Y6708500D01*
X9821920Y6667327D01*
X9669567Y6587366D01*
X9540789Y6473278D01*
X9540786Y6473275D01*
X9443045Y6331674D01*
X9382034Y6170802D01*
X9361296Y6000001D01*
X7142176Y6000001D01*
X7145031Y6042780D01*
X7186636Y6098912D01*
X7235637Y6121290D01*
X7282288Y6131206D01*
X7456752Y6208882D01*
X7611253Y6321134D01*
X7739040Y6463056D01*
X7834527Y6628444D01*
X7893542Y6810072D01*
X7913504Y7000000D01*
X7894512Y7180691D01*
X7907081Y7249415D01*
X7954813Y7300439D01*
X8022553Y7317557D01*
X8047504Y7314045D01*
X8138972Y7291500D01*
X8311028Y7291500D01*
X8478079Y7332674D01*
X8478079Y7332675D01*
X8478083Y7332675D01*
X8630430Y7412633D01*
X8759215Y7526727D01*
X8856954Y7668325D01*
X8917965Y7829199D01*
X8938704Y8000000D01*
X8935434Y8026935D01*
X8917965Y8170802D01*
X8887459Y8251238D01*
X8856954Y8331675D01*
X8759215Y8473273D01*
X8759213Y8473275D01*
X8759210Y8473278D01*
X8630432Y8587366D01*
X8478079Y8667327D01*
X8311028Y8708500D01*
X8138972Y8708500D01*
X8138970Y8708500D01*
X8047507Y8685957D01*
X7977705Y8689027D01*
X7920643Y8729347D01*
X7894438Y8794116D01*
X7894511Y8819301D01*
X7913504Y9000000D01*
X7893542Y9189928D01*
X7834527Y9371556D01*
X7739040Y9536944D01*
X7611253Y9678866D01*
X7456752Y9791118D01*
X7282288Y9868794D01*
X7282286Y9868795D01*
X7235637Y9878710D01*
X7174155Y9911902D01*
X7140379Y9973065D01*
X7145031Y10042780D01*
X7186636Y10098912D01*
X7235637Y10121290D01*
X7282288Y10131206D01*
X7456752Y10208882D01*
X7611253Y10321134D01*
X7739040Y10463056D01*
X7834527Y10628444D01*
X7893542Y10810072D01*
X7913504Y11000000D01*
X7893542Y11189928D01*
X7834527Y11371556D01*
X7739040Y11536944D01*
X7611253Y11678866D01*
X7456752Y11791118D01*
X7282288Y11868794D01*
X7282286Y11868795D01*
X7235637Y11878710D01*
X7174155Y11911902D01*
X7140379Y11973065D01*
X7145031Y12042780D01*
X7186636Y12098912D01*
X7235637Y12121290D01*
X7282288Y12131206D01*
X7456752Y12208882D01*
X7611253Y12321134D01*
X7739040Y12463056D01*
X7834527Y12628444D01*
X7893542Y12810072D01*
X7913504Y13000000D01*
X7893542Y13189928D01*
X7834527Y13371556D01*
X7739040Y13536944D01*
X7611253Y13678866D01*
X7456752Y13791118D01*
X7282288Y13868794D01*
X7282286Y13868795D01*
X7235637Y13878710D01*
X7174155Y13911902D01*
X7140379Y13973065D01*
X7145031Y14042780D01*
X7186636Y14098912D01*
X7235637Y14121290D01*
X7282288Y14131206D01*
X7456752Y14208882D01*
X7611253Y14321134D01*
X7739040Y14463056D01*
X7834527Y14628444D01*
X7893542Y14810072D01*
X7913504Y15000000D01*
X7893542Y15189928D01*
X7834527Y15371556D01*
X7739040Y15536944D01*
X7611253Y15678866D01*
X7456752Y15791118D01*
X7282288Y15868794D01*
X7282286Y15868795D01*
X7235637Y15878710D01*
X7174155Y15911902D01*
X7140379Y15973065D01*
X7145031Y16042780D01*
X7186636Y16098912D01*
X7235637Y16121290D01*
X7282288Y16131206D01*
X7456752Y16208882D01*
X7611253Y16321134D01*
X7739040Y16463056D01*
X7834527Y16628444D01*
X7893542Y16810072D01*
X7913504Y17000000D01*
X7893542Y17189928D01*
X7834527Y17371556D01*
X7739040Y17536944D01*
X7611253Y17678866D01*
X7456752Y17791118D01*
X7282288Y17868794D01*
X7282286Y17868795D01*
X7235637Y17878710D01*
X7174155Y17911902D01*
X7140379Y17973065D01*
X7145031Y18042780D01*
X7186636Y18098912D01*
X7235637Y18121290D01*
X7282288Y18131206D01*
X7456752Y18208882D01*
X7611253Y18321134D01*
X7739040Y18463056D01*
X7834527Y18628444D01*
X7893542Y18810072D01*
X7913504Y19000000D01*
X7893542Y19189928D01*
X7834527Y19371556D01*
X7739040Y19536944D01*
X7611253Y19678866D01*
X7547503Y19725184D01*
X7504839Y19780512D01*
X7498860Y19850125D01*
X7531466Y19911920D01*
X7592305Y19946278D01*
X7620390Y19949500D01*
X19733227Y19949500D01*
X19768355Y17966712D01*
X19751557Y18018412D01*
X19655051Y18207816D01*
X19655049Y18207819D01*
X19655048Y18207821D01*
X19530109Y18379787D01*
X19379786Y18530110D01*
X19207820Y18655049D01*
X19018414Y18751556D01*
X19018413Y18751557D01*
X19018412Y18751557D01*
X18816243Y18817246D01*
X18816241Y18817247D01*
X18816240Y18817247D01*
X18654957Y18842792D01*
X18606287Y18850500D01*
X18393713Y18850500D01*
X18345042Y18842792D01*
X18183760Y18817247D01*
X17981585Y18751556D01*
X17792179Y18655049D01*
X17620213Y18530110D01*
X17469890Y18379787D01*
X17344951Y18207821D01*
X17248444Y18018415D01*
X17182753Y17816240D01*
X17149500Y17606287D01*
X17149500Y17393714D01*
X17181776Y17189928D01*
X17182754Y17183757D01*
X17228560Y17042780D01*
X17248444Y16981586D01*
X17344951Y16792180D01*
X17469890Y16620214D01*
X17620213Y16469891D01*
X17792179Y16344952D01*
X17792181Y16344951D01*
X17792184Y16344949D01*
X17981588Y16248443D01*
X18183757Y16182754D01*
X18393713Y16149500D01*
X18393714Y16149500D01*
X18606286Y16149500D01*
X18606287Y16149500D01*
X18800962Y16180334D01*
X18870254Y16171380D01*
X18923706Y16126383D01*
X18944346Y16059632D01*
X18936301Y16013890D01*
X18882035Y15870802D01*
X18861296Y15700001D01*
X18861296Y15700000D01*
X18882034Y15529199D01*
X18941823Y15371550D01*
X18943046Y15368325D01*
X19040785Y15226727D01*
X19040786Y15226726D01*
X19040789Y15226723D01*
X19169567Y15112635D01*
X19169568Y15112635D01*
X19169570Y15112633D01*
X19321917Y15032675D01*
X19321919Y15032675D01*
X19321920Y15032674D01*
X19488972Y14991500D01*
X19661028Y14991500D01*
X19820370Y15030774D01*
X19827685Y14617869D01*
X19769567Y14587366D01*
X19640789Y14473278D01*
X19640786Y14473275D01*
X19543045Y14331674D01*
X19482034Y14170802D01*
X19461296Y14000001D01*
X19461296Y14000000D01*
X19482034Y13829199D01*
X19543045Y13668327D01*
X19543046Y13668325D01*
X19640785Y13526727D01*
X19640786Y13526726D01*
X19640789Y13526723D01*
X19769567Y13412635D01*
X19769568Y13412635D01*
X19769570Y13412633D01*
X19849783Y13370534D01*
X19861513Y12708500D01*
X19813972Y12708500D01*
X19646920Y12667327D01*
X19494567Y12587366D01*
X19365789Y12473278D01*
X19365786Y12473275D01*
X19268045Y12331674D01*
X19207034Y12170802D01*
X19186296Y12000001D01*
X19186296Y12000000D01*
X19207034Y11829199D01*
X19268045Y11668327D01*
X19268046Y11668325D01*
X19365785Y11526727D01*
X19365786Y11526726D01*
X19365789Y11526723D01*
X19494567Y11412635D01*
X19494568Y11412635D01*
X19494570Y11412633D01*
X19646917Y11332675D01*
X19646919Y11332675D01*
X19646920Y11332674D01*
X19813972Y11291500D01*
X19886617Y11291500D01*
X19925000Y9125000D01*
X23026517Y9129326D01*
X23029009Y8515335D01*
X23012397Y8452832D01*
X22965473Y8371558D01*
X22906459Y8189932D01*
X22906458Y8189928D01*
X22886496Y8000000D01*
X22906458Y7810072D01*
X22906459Y7810069D01*
X22965473Y7628443D01*
X23016604Y7539881D01*
X23033216Y7478384D01*
X23037068Y6529294D01*
X23020456Y6466791D01*
X22965473Y6371558D01*
X22906459Y6189932D01*
X22906458Y6189928D01*
X22886496Y6000000D01*
X22906458Y5810072D01*
X22906459Y5810069D01*
X22965470Y5628451D01*
X22965473Y5628444D01*
X23024778Y5525725D01*
X23041390Y5464228D01*
X23045128Y4543254D01*
X23028516Y4480751D01*
X22965473Y4371558D01*
X22906459Y4189932D01*
X22906458Y4189928D01*
X22886496Y4000000D01*
X22906458Y3810072D01*
X22906459Y3810069D01*
X22965470Y3628451D01*
X22965473Y3628444D01*
X23032951Y3511568D01*
X23049563Y3450071D01*
X23053187Y2557213D01*
X23036575Y2494710D01*
X22965473Y2371558D01*
X22909252Y2198528D01*
X22906458Y2189928D01*
X22886496Y2000000D01*
X22906458Y1810072D01*
X22906459Y1810069D01*
X22965470Y1628451D01*
X22965473Y1628444D01*
X23041125Y1497411D01*
X23057737Y1435914D01*
X23061247Y571171D01*
X23044635Y508668D01*
X22965473Y371557D01*
X22965470Y371550D01*
X22906459Y189932D01*
X22906458Y189928D01*
X22886496Y0D01*
X22906458Y-189928D01*
X22906459Y-189931D01*
X22965470Y-371549D01*
X22965473Y-371556D01*
X23049298Y-516746D01*
X23065910Y-578243D01*
X23069305Y-1414870D01*
X23052694Y-1477372D01*
X22965472Y-1628446D01*
X22965470Y-1628450D01*
X22906459Y-1810068D01*
X22906458Y-1810072D01*
X22886496Y-2000000D01*
X22906458Y-2189928D01*
X22906459Y-2189931D01*
X22965470Y-2371549D01*
X22965473Y-2371556D01*
X23057472Y-2530904D01*
X23074084Y-2592401D01*
X23077365Y-3400910D01*
X23060753Y-3463413D01*
X22965473Y-3628443D01*
X22965470Y-3628450D01*
X22906459Y-3810068D01*
X22906458Y-3810072D01*
X22886496Y-4000000D01*
X22906458Y-4189928D01*
X22906459Y-4189931D01*
X22965470Y-4371549D01*
X22965473Y-4371556D01*
X23064209Y-4542571D01*
X23062174Y-4543745D01*
X23082054Y-4599474D01*
X23082255Y-4606042D01*
X23085430Y-5388581D01*
X23066018Y-5455700D01*
X23061756Y-5461960D01*
X23060961Y-5463053D01*
X22965473Y-5628443D01*
X22965470Y-5628450D01*
X22906459Y-5810068D01*
X22906458Y-5810072D01*
X22886496Y-6000000D01*
X22906458Y-6189928D01*
X22906459Y-6189931D01*
X22965470Y-6371549D01*
X22965473Y-6371556D01*
X23060959Y-6536943D01*
X23064778Y-6542199D01*
X23062987Y-6543500D01*
X23088795Y-6597273D01*
X23090415Y-6616754D01*
X23093507Y-7378804D01*
X23074095Y-7445923D01*
X23061671Y-7462265D01*
X23060965Y-7463048D01*
X23060957Y-7463059D01*
X22965473Y-7628443D01*
X22965470Y-7628450D01*
X22906459Y-7810068D01*
X22906458Y-7810072D01*
X22886496Y-8000000D01*
X22906458Y-8189928D01*
X22906459Y-8189931D01*
X22965470Y-8371549D01*
X22965473Y-8371556D01*
X23060958Y-8536942D01*
X23060959Y-8536943D01*
X23060960Y-8536944D01*
X23066715Y-8543336D01*
X23096948Y-8606326D01*
X23098568Y-8625809D01*
X23101587Y-9369831D01*
X23082175Y-9436950D01*
X23069741Y-9453303D01*
X23060961Y-9463054D01*
X23060957Y-9463059D01*
X22965473Y-9628443D01*
X22965470Y-9628450D01*
X22906459Y-9810068D01*
X22906458Y-9810072D01*
X22886496Y-10000000D01*
X22906458Y-10189928D01*
X22906459Y-10189931D01*
X22965470Y-10371549D01*
X22965473Y-10371556D01*
X23060958Y-10536942D01*
X23074872Y-10552395D01*
X23105101Y-10615386D01*
X23106720Y-10634863D01*
X23109666Y-11360858D01*
X23090254Y-11427977D01*
X23077819Y-11444331D01*
X23060961Y-11463054D01*
X23060957Y-11463059D01*
X22965473Y-11628443D01*
X22965470Y-11628450D01*
X22906459Y-11810068D01*
X22906458Y-11810072D01*
X22886496Y-12000000D01*
X22906458Y-12189928D01*
X22906459Y-12189931D01*
X22965470Y-12371549D01*
X22965473Y-12371556D01*
X23060957Y-12536940D01*
X23060958Y-12536942D01*
X23060960Y-12536944D01*
X23083025Y-12561450D01*
X23113254Y-12624441D01*
X23114873Y-12643918D01*
X23117746Y-13351884D01*
X23098334Y-13419003D01*
X23085899Y-13435357D01*
X23060961Y-13463054D01*
X23060957Y-13463059D01*
X22965473Y-13628443D01*
X22965470Y-13628450D01*
X22911562Y-13794364D01*
X22906458Y-13810072D01*
X22886496Y-14000000D01*
X22906458Y-14189928D01*
X22906459Y-14189931D01*
X22965470Y-14371549D01*
X22965473Y-14371556D01*
X23060960Y-14536944D01*
X23079197Y-14557199D01*
X23091177Y-14570504D01*
X23121406Y-14633496D01*
X23123025Y-14652972D01*
X23125825Y-15342911D01*
X23106413Y-15410030D01*
X23093978Y-15426384D01*
X23060961Y-15463054D01*
X23060957Y-15463059D01*
X22965473Y-15628443D01*
X22965470Y-15628450D01*
X22906459Y-15810068D01*
X22906458Y-15810072D01*
X22886496Y-16000000D01*
X22906458Y-16189928D01*
X22906459Y-16189931D01*
X22965470Y-16371549D01*
X22965473Y-16371556D01*
X23060960Y-16536944D01*
X23081773Y-16560059D01*
X23099330Y-16579559D01*
X23129559Y-16642551D01*
X23131178Y-16662027D01*
X23133905Y-17333938D01*
X23114493Y-17401057D01*
X23102057Y-17417412D01*
X23060961Y-17463054D01*
X23060957Y-17463059D01*
X22965473Y-17628443D01*
X22965470Y-17628450D01*
X22906459Y-17810068D01*
X22906458Y-17810072D01*
X22886496Y-18000000D01*
X22906458Y-18189928D01*
X22906459Y-18189931D01*
X22965470Y-18371549D01*
X22965473Y-18371556D01*
X23060960Y-18536944D01*
X23083874Y-18562393D01*
X23107483Y-18588614D01*
X23137712Y-18651606D01*
X23139331Y-18671082D01*
X23144015Y-19824997D01*
X23124603Y-19892115D01*
X23071985Y-19938084D01*
X23020016Y-19949500D01*
X7620390Y-19949500D01*
X7553351Y-19929815D01*
X7507596Y-19877011D01*
X7497652Y-19807853D01*
X7526677Y-19744297D01*
X7547501Y-19725184D01*
X7611253Y-19678866D01*
X7739040Y-19536944D01*
X7834527Y-19371556D01*
X7893542Y-19189928D01*
X7913504Y-19000000D01*
X7896137Y-18834767D01*
X7908706Y-18766041D01*
X7956438Y-18715017D01*
X7989781Y-18701412D01*
X8128083Y-18667325D01*
X8280430Y-18587367D01*
X8409215Y-18473273D01*
X8506954Y-18331675D01*
X8567965Y-18170801D01*
X8588704Y-18000000D01*
X8585434Y-17973065D01*
X8567965Y-17829198D01*
X8537459Y-17748762D01*
X8506954Y-17668325D01*
X8409215Y-17526727D01*
X8409213Y-17526725D01*
X8409210Y-17526722D01*
X8280432Y-17412634D01*
X8244381Y-17393713D01*
X17149500Y-17393713D01*
X17149500Y-17606286D01*
X17181776Y-17810072D01*
X17182754Y-17816243D01*
X17242460Y-17999999D01*
X17248444Y-18018414D01*
X17344951Y-18207820D01*
X17469890Y-18379786D01*
X17620213Y-18530109D01*
X17792179Y-18655048D01*
X17792181Y-18655049D01*
X17792184Y-18655051D01*
X17981588Y-18751557D01*
X18183757Y-18817246D01*
X18393713Y-18850500D01*
X18393714Y-18850500D01*
X18606286Y-18850500D01*
X18606287Y-18850500D01*
X18816243Y-18817246D01*
X19018412Y-18751557D01*
X19207816Y-18655051D01*
X19244439Y-18628443D01*
X19379786Y-18530109D01*
X19379788Y-18530106D01*
X19379792Y-18530104D01*
X19530104Y-18379792D01*
X19530106Y-18379788D01*
X19530109Y-18379786D01*
X19654276Y-18208883D01*
X19655051Y-18207816D01*
X19751557Y-18018412D01*
X19817246Y-17816243D01*
X19850500Y-17606287D01*
X19850500Y-17393713D01*
X19817246Y-17183757D01*
X19751557Y-16981588D01*
X19655051Y-16792184D01*
X19655049Y-16792181D01*
X19655048Y-16792179D01*
X19530109Y-16620213D01*
X19379786Y-16469890D01*
X19207820Y-16344951D01*
X19018414Y-16248444D01*
X19018413Y-16248443D01*
X19018412Y-16248443D01*
X18816243Y-16182754D01*
X18816241Y-16182753D01*
X18816240Y-16182753D01*
X18654957Y-16157208D01*
X18606287Y-16149500D01*
X18393713Y-16149500D01*
X18345042Y-16157208D01*
X18183760Y-16182753D01*
X17981585Y-16248444D01*
X17792179Y-16344951D01*
X17620213Y-16469890D01*
X17469890Y-16620213D01*
X17344951Y-16792179D01*
X17248444Y-16981585D01*
X17182753Y-17183760D01*
X17149500Y-17393713D01*
X8244381Y-17393713D01*
X8128079Y-17332673D01*
X7989783Y-17298587D01*
X7929402Y-17263431D01*
X7897614Y-17201211D01*
X7896137Y-17165235D01*
X7913504Y-17000000D01*
X7893542Y-16810072D01*
X7834527Y-16628444D01*
X7739040Y-16463056D01*
X7611253Y-16321134D01*
X7456752Y-16208882D01*
X7282288Y-16131206D01*
X7282286Y-16131205D01*
X7095487Y-16091500D01*
X6904513Y-16091500D01*
X6717714Y-16131205D01*
X6543246Y-16208883D01*
X6388745Y-16321135D01*
X6260959Y-16463057D01*
X6165473Y-16628443D01*
X6165470Y-16628450D01*
X6112270Y-16792184D01*
X6106458Y-16810072D01*
X6086496Y-17000000D01*
X6106458Y-17189928D01*
X6106459Y-17189931D01*
X6165470Y-17371549D01*
X6165473Y-17371556D01*
X6260960Y-17536944D01*
X6388747Y-17678866D01*
X6543248Y-17791118D01*
X6717712Y-17868794D01*
X6742906Y-17874149D01*
X6764362Y-17878710D01*
X6825844Y-17911902D01*
X6859620Y-17973065D01*
X6854968Y-18042780D01*
X6813363Y-18098912D01*
X6764362Y-18121290D01*
X6717714Y-18131205D01*
X6717712Y-18131206D01*
X6545634Y-18207820D01*
X6543246Y-18208883D01*
X6388745Y-18321135D01*
X6260959Y-18463057D01*
X6165473Y-18628443D01*
X6165470Y-18628450D01*
X6106459Y-18810068D01*
X6106458Y-18810072D01*
X6086496Y-19000000D01*
X6106458Y-19189928D01*
X6106459Y-19189931D01*
X6165470Y-19371549D01*
X6165473Y-19371556D01*
X6260960Y-19536944D01*
X6388747Y-19678866D01*
X6452496Y-19725183D01*
X6495161Y-19780512D01*
X6501140Y-19850125D01*
X6468534Y-19911920D01*
X6407695Y-19946278D01*
X6379610Y-19949500D01*
X174500Y-19949500D01*
X107461Y-19929815D01*
X61706Y-19877011D01*
X50500Y-19825500D01*
X50500Y18000000D01*
X4086496Y18000000D01*
X4106458Y17810072D01*
X4106459Y17810069D01*
X4165470Y17628451D01*
X4165473Y17628444D01*
X4260960Y17463056D01*
X4388747Y17321134D01*
X4543248Y17208882D01*
X4717712Y17131206D01*
X4742906Y17125851D01*
X4764362Y17121290D01*
X4825844Y17088098D01*
X4859620Y17026935D01*
X4854968Y16957220D01*
X4813363Y16901088D01*
X4764362Y16878710D01*
X4717714Y16868795D01*
X4717712Y16868794D01*
X4545634Y16792180D01*
X4543246Y16791117D01*
X4388745Y16678865D01*
X4260959Y16536943D01*
X4165473Y16371557D01*
X4165470Y16371550D01*
X4106459Y16189932D01*
X4106458Y16189928D01*
X4086496Y16000000D01*
X4106458Y15810072D01*
X4106459Y15810069D01*
X4165470Y15628451D01*
X4165473Y15628444D01*
X4260960Y15463056D01*
X4388747Y15321134D01*
X4543248Y15208882D01*
X4717712Y15131206D01*
X4742906Y15125851D01*
X4764362Y15121290D01*
X4825844Y15088098D01*
X4859620Y15026935D01*
X4854968Y14957220D01*
X4813363Y14901088D01*
X4764362Y14878710D01*
X4717714Y14868795D01*
X4543246Y14791117D01*
X4388745Y14678865D01*
X4260959Y14536943D01*
X4165473Y14371557D01*
X4165470Y14371550D01*
X4106459Y14189932D01*
X4106458Y14189928D01*
X4086496Y14000000D01*
X4106458Y13810072D01*
X4106459Y13810069D01*
X4165470Y13628451D01*
X4165473Y13628444D01*
X4260960Y13463056D01*
X4388747Y13321134D01*
X4543248Y13208882D01*
X4717712Y13131206D01*
X4742906Y13125851D01*
X4764362Y13121290D01*
X4825844Y13088098D01*
X4859620Y13026935D01*
X4854968Y12957220D01*
X4813363Y12901088D01*
X4764362Y12878710D01*
X4717714Y12868795D01*
X4543246Y12791117D01*
X4388745Y12678865D01*
X4260959Y12536943D01*
X4165473Y12371557D01*
X4165470Y12371550D01*
X4106459Y12189932D01*
X4106458Y12189928D01*
X4086496Y12000000D01*
X4106458Y11810072D01*
X4106459Y11810069D01*
X4165470Y11628451D01*
X4165473Y11628444D01*
X4260960Y11463056D01*
X4388747Y11321134D01*
X4543248Y11208882D01*
X4717712Y11131206D01*
X4742906Y11125851D01*
X4764362Y11121290D01*
X4825844Y11088098D01*
X4859620Y11026935D01*
X4854968Y10957220D01*
X4813363Y10901088D01*
X4764362Y10878710D01*
X4717714Y10868795D01*
X4543246Y10791117D01*
X4388745Y10678865D01*
X4260959Y10536943D01*
X4165473Y10371557D01*
X4165470Y10371550D01*
X4106459Y10189932D01*
X4106458Y10189928D01*
X4086496Y10000000D01*
X4106458Y9810072D01*
X4106459Y9810069D01*
X4165470Y9628451D01*
X4165473Y9628444D01*
X4260960Y9463056D01*
X4388747Y9321134D01*
X4543248Y9208882D01*
X4717712Y9131206D01*
X4726557Y9129326D01*
X4764362Y9121290D01*
X4825844Y9088098D01*
X4859620Y9026935D01*
X4854968Y8957220D01*
X4813363Y8901088D01*
X4764362Y8878710D01*
X4717714Y8868795D01*
X4543246Y8791117D01*
X4388745Y8678865D01*
X4260959Y8536943D01*
X4165473Y8371557D01*
X4165470Y8371550D01*
X4106459Y8189932D01*
X4106458Y8189928D01*
X4086496Y8000000D01*
X4106458Y7810072D01*
X4106459Y7810069D01*
X4165470Y7628451D01*
X4165473Y7628444D01*
X4260960Y7463056D01*
X4388747Y7321134D01*
X4543248Y7208882D01*
X4717712Y7131206D01*
X4742906Y7125851D01*
X4764362Y7121290D01*
X4825844Y7088098D01*
X4859620Y7026935D01*
X4854968Y6957220D01*
X4813363Y6901088D01*
X4764362Y6878710D01*
X4717714Y6868795D01*
X4543246Y6791117D01*
X4388745Y6678865D01*
X4260959Y6536943D01*
X4165473Y6371557D01*
X4165470Y6371550D01*
X4106459Y6189932D01*
X4106458Y6189928D01*
X4086496Y6000000D01*
X4106458Y5810072D01*
X4106459Y5810069D01*
X4165470Y5628451D01*
X4165473Y5628444D01*
X4260960Y5463056D01*
X4388747Y5321134D01*
X4543248Y5208882D01*
X4717712Y5131206D01*
X4742906Y5125851D01*
X4764362Y5121290D01*
X4825844Y5088098D01*
X4859620Y5026935D01*
X4854968Y4957220D01*
X4813363Y4901088D01*
X4764362Y4878710D01*
X4717714Y4868795D01*
X4543246Y4791117D01*
X4388745Y4678865D01*
X4260959Y4536943D01*
X4165473Y4371557D01*
X4165470Y4371550D01*
X4106459Y4189932D01*
X4106458Y4189928D01*
X4086496Y4000000D01*
X4106458Y3810072D01*
X4106459Y3810069D01*
X4165470Y3628451D01*
X4165473Y3628444D01*
X4260960Y3463056D01*
X4388747Y3321134D01*
X4543248Y3208882D01*
X4717712Y3131206D01*
X4742906Y3125851D01*
X4764362Y3121290D01*
X4825844Y3088098D01*
X4859620Y3026935D01*
X4854968Y2957220D01*
X4813363Y2901088D01*
X4764362Y2878710D01*
X4717714Y2868795D01*
X4543246Y2791117D01*
X4388745Y2678865D01*
X4260959Y2536943D01*
X4165473Y2371557D01*
X4165470Y2371550D01*
X4109252Y2198528D01*
X4106458Y2189928D01*
X4086496Y2000000D01*
X4106458Y1810072D01*
X4106459Y1810069D01*
X4165470Y1628451D01*
X4165473Y1628444D01*
X4260960Y1463056D01*
X4388747Y1321134D01*
X4543248Y1208882D01*
X4717712Y1131206D01*
X4742906Y1125851D01*
X4764362Y1121290D01*
X4825844Y1088098D01*
X4859620Y1026935D01*
X4854968Y957220D01*
X4813363Y901088D01*
X4764362Y878710D01*
X4717714Y868795D01*
X4543246Y791117D01*
X4388745Y678865D01*
X4260959Y536943D01*
X4165473Y371557D01*
X4165470Y371550D01*
X4106459Y189932D01*
X4106458Y189928D01*
X4086496Y0D01*
X4106458Y-189928D01*
X4106459Y-189931D01*
X4165470Y-371549D01*
X4165473Y-371556D01*
X4260960Y-536944D01*
X4388747Y-678866D01*
X4543248Y-791118D01*
X4717712Y-868794D01*
X4742906Y-874149D01*
X4764362Y-878710D01*
X4825844Y-911902D01*
X4859620Y-973065D01*
X4854968Y-1042780D01*
X4813363Y-1098912D01*
X4764362Y-1121290D01*
X4717714Y-1131205D01*
X4543246Y-1208883D01*
X4388745Y-1321135D01*
X4260959Y-1463057D01*
X4165473Y-1628443D01*
X4165470Y-1628450D01*
X4106459Y-1810068D01*
X4106458Y-1810072D01*
X4086496Y-2000000D01*
X4106458Y-2189928D01*
X4106459Y-2189931D01*
X4165470Y-2371549D01*
X4165473Y-2371556D01*
X4260960Y-2536944D01*
X4388747Y-2678866D01*
X4543248Y-2791118D01*
X4717712Y-2868794D01*
X4742906Y-2874149D01*
X4764362Y-2878710D01*
X4825844Y-2911902D01*
X4859620Y-2973065D01*
X4854968Y-3042780D01*
X4813363Y-3098912D01*
X4764362Y-3121290D01*
X4717714Y-3131205D01*
X4543246Y-3208883D01*
X4388745Y-3321135D01*
X4260959Y-3463057D01*
X4165473Y-3628443D01*
X4165470Y-3628450D01*
X4106459Y-3810068D01*
X4106458Y-3810072D01*
X4086496Y-4000000D01*
X4106458Y-4189928D01*
X4106459Y-4189931D01*
X4165470Y-4371549D01*
X4165473Y-4371556D01*
X4260960Y-4536944D01*
X4388747Y-4678866D01*
X4543248Y-4791118D01*
X4717712Y-4868794D01*
X4742906Y-4874149D01*
X4764362Y-4878710D01*
X4825844Y-4911902D01*
X4859620Y-4973065D01*
X4854968Y-5042780D01*
X4813363Y-5098912D01*
X4764362Y-5121290D01*
X4717714Y-5131205D01*
X4543246Y-5208883D01*
X4388745Y-5321135D01*
X4260959Y-5463057D01*
X4165473Y-5628443D01*
X4165470Y-5628450D01*
X4106459Y-5810068D01*
X4106458Y-5810072D01*
X4086496Y-6000000D01*
X4106458Y-6189928D01*
X4106459Y-6189931D01*
X4165470Y-6371549D01*
X4165473Y-6371556D01*
X4260960Y-6536944D01*
X4388747Y-6678866D01*
X4543248Y-6791118D01*
X4717712Y-6868794D01*
X4742906Y-6874149D01*
X4764362Y-6878710D01*
X4825844Y-6911902D01*
X4859620Y-6973065D01*
X4854968Y-7042780D01*
X4813363Y-7098912D01*
X4764362Y-7121290D01*
X4717714Y-7131205D01*
X4543246Y-7208883D01*
X4388745Y-7321135D01*
X4260959Y-7463057D01*
X4165473Y-7628443D01*
X4165470Y-7628450D01*
X4106459Y-7810068D01*
X4106458Y-7810072D01*
X4086496Y-8000000D01*
X4106458Y-8189928D01*
X4106459Y-8189931D01*
X4165470Y-8371549D01*
X4165473Y-8371556D01*
X4260960Y-8536944D01*
X4388747Y-8678866D01*
X4543248Y-8791118D01*
X4717712Y-8868794D01*
X4742906Y-8874149D01*
X4764362Y-8878710D01*
X4825844Y-8911902D01*
X4859620Y-8973065D01*
X4854968Y-9042780D01*
X4813363Y-9098912D01*
X4764362Y-9121290D01*
X4717714Y-9131205D01*
X4717712Y-9131206D01*
X4573568Y-9195383D01*
X4543246Y-9208883D01*
X4388745Y-9321135D01*
X4260959Y-9463057D01*
X4165473Y-9628443D01*
X4165470Y-9628450D01*
X4106459Y-9810068D01*
X4106458Y-9810072D01*
X4086496Y-10000000D01*
X4106458Y-10189928D01*
X4106459Y-10189931D01*
X4165470Y-10371549D01*
X4165473Y-10371556D01*
X4260960Y-10536944D01*
X4388747Y-10678866D01*
X4543248Y-10791118D01*
X4717712Y-10868794D01*
X4742906Y-10874149D01*
X4764362Y-10878710D01*
X4825844Y-10911902D01*
X4859620Y-10973065D01*
X4854968Y-11042780D01*
X4813363Y-11098912D01*
X4764362Y-11121290D01*
X4717714Y-11131205D01*
X4543246Y-11208883D01*
X4388745Y-11321135D01*
X4260959Y-11463057D01*
X4165473Y-11628443D01*
X4165470Y-11628450D01*
X4106459Y-11810068D01*
X4106458Y-11810072D01*
X4086496Y-12000000D01*
X4106458Y-12189928D01*
X4106459Y-12189931D01*
X4165470Y-12371549D01*
X4165473Y-12371556D01*
X4260960Y-12536944D01*
X4388747Y-12678866D01*
X4543248Y-12791118D01*
X4717712Y-12868794D01*
X4742906Y-12874149D01*
X4764362Y-12878710D01*
X4825844Y-12911902D01*
X4859620Y-12973065D01*
X4854968Y-13042780D01*
X4813363Y-13098912D01*
X4764362Y-13121290D01*
X4717714Y-13131205D01*
X4717712Y-13131206D01*
X4600826Y-13183247D01*
X4543246Y-13208883D01*
X4388745Y-13321135D01*
X4260959Y-13463057D01*
X4165473Y-13628443D01*
X4165470Y-13628450D01*
X4111562Y-13794364D01*
X4106458Y-13810072D01*
X4086496Y-14000000D01*
X4106458Y-14189928D01*
X4106459Y-14189931D01*
X4165470Y-14371549D01*
X4165473Y-14371556D01*
X4260960Y-14536944D01*
X4306361Y-14587367D01*
X4378354Y-14667324D01*
X4388747Y-14678866D01*
X4543248Y-14791118D01*
X4717712Y-14868794D01*
X4742906Y-14874149D01*
X4764362Y-14878710D01*
X4825844Y-14911902D01*
X4859620Y-14973065D01*
X4854968Y-15042780D01*
X4813363Y-15098912D01*
X4764362Y-15121290D01*
X4717714Y-15131205D01*
X4543246Y-15208883D01*
X4388745Y-15321135D01*
X4260959Y-15463057D01*
X4165473Y-15628443D01*
X4165470Y-15628450D01*
X4106459Y-15810068D01*
X4106458Y-15810072D01*
X4086496Y-16000000D01*
X4106458Y-16189928D01*
X4106459Y-16189931D01*
X4165470Y-16371549D01*
X4165473Y-16371556D01*
X4260960Y-16536944D01*
X4388747Y-16678866D01*
X4543248Y-16791118D01*
X4717712Y-16868794D01*
X4742906Y-16874149D01*
X4764362Y-16878710D01*
X4825844Y-16911902D01*
X4859620Y-16973065D01*
X4854968Y-17042780D01*
X4813363Y-17098912D01*
X4764362Y-17121290D01*
X4717714Y-17131205D01*
X4717712Y-17131206D01*
X4560478Y-17201211D01*
X4543246Y-17208883D01*
X4388745Y-17321135D01*
X4260959Y-17463057D01*
X4165473Y-17628443D01*
X4165470Y-17628450D01*
X4106459Y-17810068D01*
X4106458Y-17810072D01*
X4086496Y-18000000D01*
X4106458Y-18189928D01*
X4106459Y-18189931D01*
X4165470Y-18371549D01*
X4165473Y-18371556D01*
X4260960Y-18536944D01*
X4388747Y-18678866D01*
X4543248Y-18791118D01*
X4717712Y-18868794D01*
X4904513Y-18908500D01*
X5095487Y-18908500D01*
X5282288Y-18868794D01*
X5456752Y-18791118D01*
X5611253Y-18678866D01*
X5739040Y-18536944D01*
X5834527Y-18371556D01*
X5893542Y-18189928D01*
X5913504Y-18000000D01*
X5893542Y-17810072D01*
X5834527Y-17628444D01*
X5739040Y-17463056D01*
X5611253Y-17321134D01*
X5456752Y-17208882D01*
X5282288Y-17131206D01*
X5282286Y-17131205D01*
X5235637Y-17121290D01*
X5174155Y-17088098D01*
X5140379Y-17026935D01*
X5145031Y-16957220D01*
X5186636Y-16901088D01*
X5235637Y-16878710D01*
X5282288Y-16868794D01*
X5456752Y-16791118D01*
X5611253Y-16678866D01*
X5739040Y-16536944D01*
X5834527Y-16371556D01*
X5893542Y-16189928D01*
X5913504Y-16000000D01*
X5893542Y-15810072D01*
X5834527Y-15628444D01*
X5739040Y-15463056D01*
X5611253Y-15321134D01*
X5456752Y-15208882D01*
X5282288Y-15131206D01*
X5282286Y-15131205D01*
X5235637Y-15121290D01*
X5174155Y-15088098D01*
X5140379Y-15026935D01*
X5145031Y-14957220D01*
X5186636Y-14901088D01*
X5235637Y-14878710D01*
X5282288Y-14868794D01*
X5456752Y-14791118D01*
X5611253Y-14678866D01*
X5739040Y-14536944D01*
X5834527Y-14371556D01*
X5893542Y-14189928D01*
X5913504Y-14000000D01*
X5893542Y-13810072D01*
X5834527Y-13628444D01*
X5739040Y-13463056D01*
X5611253Y-13321134D01*
X5456752Y-13208882D01*
X5282288Y-13131206D01*
X5282286Y-13131205D01*
X5235637Y-13121290D01*
X5174155Y-13088098D01*
X5140379Y-13026935D01*
X5145031Y-12957220D01*
X5186636Y-12901088D01*
X5235637Y-12878710D01*
X5282288Y-12868794D01*
X5456752Y-12791118D01*
X5611253Y-12678866D01*
X5739040Y-12536944D01*
X5834527Y-12371556D01*
X5893542Y-12189928D01*
X5913504Y-12000000D01*
X5893542Y-11810072D01*
X5834527Y-11628444D01*
X5739040Y-11463056D01*
X5611253Y-11321134D01*
X5456752Y-11208882D01*
X5282288Y-11131206D01*
X5282286Y-11131205D01*
X5235637Y-11121290D01*
X5174155Y-11088098D01*
X5140379Y-11026935D01*
X5145031Y-10957220D01*
X5186636Y-10901088D01*
X5235637Y-10878710D01*
X5282288Y-10868794D01*
X5456752Y-10791118D01*
X5611253Y-10678866D01*
X5739040Y-10536944D01*
X5834527Y-10371556D01*
X5893542Y-10189928D01*
X5913504Y-10000000D01*
X5893542Y-9810072D01*
X5834527Y-9628444D01*
X5739040Y-9463056D01*
X5611253Y-9321134D01*
X5456752Y-9208882D01*
X5282288Y-9131206D01*
X5282286Y-9131205D01*
X5235637Y-9121290D01*
X5174155Y-9088098D01*
X5140379Y-9026935D01*
X5145031Y-8957220D01*
X5186636Y-8901088D01*
X5235637Y-8878710D01*
X5282288Y-8868794D01*
X5456752Y-8791118D01*
X5611253Y-8678866D01*
X5739040Y-8536944D01*
X5834527Y-8371556D01*
X5893542Y-8189928D01*
X5913504Y-8000000D01*
X5893542Y-7810072D01*
X5834527Y-7628444D01*
X5739040Y-7463056D01*
X5611253Y-7321134D01*
X5456752Y-7208882D01*
X5282288Y-7131206D01*
X5282286Y-7131205D01*
X5235637Y-7121290D01*
X5174155Y-7088098D01*
X5140379Y-7026935D01*
X5145031Y-6957220D01*
X5186636Y-6901088D01*
X5235637Y-6878710D01*
X5282288Y-6868794D01*
X5456752Y-6791118D01*
X5611253Y-6678866D01*
X5739040Y-6536944D01*
X5834527Y-6371556D01*
X5893542Y-6189928D01*
X5913504Y-6000000D01*
X5893542Y-5810072D01*
X5834527Y-5628444D01*
X5739040Y-5463056D01*
X5611253Y-5321134D01*
X5456752Y-5208882D01*
X5282288Y-5131206D01*
X5282286Y-5131205D01*
X5235637Y-5121290D01*
X5174155Y-5088098D01*
X5140379Y-5026935D01*
X5145031Y-4957220D01*
X5186636Y-4901088D01*
X5235637Y-4878710D01*
X5282288Y-4868794D01*
X5456752Y-4791118D01*
X5611253Y-4678866D01*
X5739040Y-4536944D01*
X5834527Y-4371556D01*
X5893542Y-4189928D01*
X5913504Y-4000000D01*
X5893542Y-3810072D01*
X5834527Y-3628444D01*
X5739040Y-3463056D01*
X5611253Y-3321134D01*
X5456752Y-3208882D01*
X5282288Y-3131206D01*
X5282286Y-3131205D01*
X5235637Y-3121290D01*
X5174155Y-3088098D01*
X5140379Y-3026935D01*
X5145031Y-2957220D01*
X5186636Y-2901088D01*
X5235637Y-2878710D01*
X5282288Y-2868794D01*
X5456752Y-2791118D01*
X5611253Y-2678866D01*
X5739040Y-2536944D01*
X5834527Y-2371556D01*
X5893542Y-2189928D01*
X5913504Y-2000000D01*
X5893542Y-1810072D01*
X5834527Y-1628444D01*
X5739040Y-1463056D01*
X5611253Y-1321134D01*
X5456752Y-1208882D01*
X5282288Y-1131206D01*
X5282286Y-1131205D01*
X5235637Y-1121290D01*
X5174155Y-1088098D01*
X5140379Y-1026935D01*
X5145031Y-957220D01*
X5186636Y-901088D01*
X5235637Y-878710D01*
X5282288Y-868794D01*
X5456752Y-791118D01*
X5611253Y-678866D01*
X5739040Y-536944D01*
X5834527Y-371556D01*
X5893542Y-189928D01*
X5913504Y0D01*
X5893542Y189928D01*
X5834527Y371556D01*
X5739040Y536944D01*
X5611253Y678866D01*
X5456752Y791118D01*
X5282288Y868794D01*
X5282286Y868795D01*
X5235637Y878710D01*
X5174155Y911902D01*
X5140379Y973065D01*
X5145031Y1042780D01*
X5186636Y1098912D01*
X5235637Y1121290D01*
X5282288Y1131206D01*
X5456752Y1208882D01*
X5611253Y1321134D01*
X5739040Y1463056D01*
X5834527Y1628444D01*
X5893542Y1810072D01*
X5913504Y2000000D01*
X5893542Y2189928D01*
X5834527Y2371556D01*
X5739040Y2536944D01*
X5611253Y2678866D01*
X5456752Y2791118D01*
X5282288Y2868794D01*
X5282286Y2868795D01*
X5235637Y2878710D01*
X5174155Y2911902D01*
X5140379Y2973065D01*
X5145031Y3042780D01*
X5186636Y3098912D01*
X5235637Y3121290D01*
X5282288Y3131206D01*
X5456752Y3208882D01*
X5611253Y3321134D01*
X5739040Y3463056D01*
X5834527Y3628444D01*
X5893542Y3810072D01*
X5913504Y4000000D01*
X5893542Y4189928D01*
X5834527Y4371556D01*
X5739040Y4536944D01*
X5611253Y4678866D01*
X5456752Y4791118D01*
X5282288Y4868794D01*
X5282286Y4868795D01*
X5235637Y4878710D01*
X5174155Y4911902D01*
X5140379Y4973065D01*
X5145031Y5042780D01*
X5186636Y5098912D01*
X5235637Y5121290D01*
X5282288Y5131206D01*
X5456752Y5208882D01*
X5611253Y5321134D01*
X5739040Y5463056D01*
X5834527Y5628444D01*
X5893542Y5810072D01*
X5913504Y6000000D01*
X5893542Y6189928D01*
X5834527Y6371556D01*
X5739040Y6536944D01*
X5611253Y6678866D01*
X5456752Y6791118D01*
X5282288Y6868794D01*
X5282286Y6868795D01*
X5235637Y6878710D01*
X5174155Y6911902D01*
X5140379Y6973065D01*
X5145031Y7042780D01*
X5186636Y7098912D01*
X5235637Y7121290D01*
X5282288Y7131206D01*
X5456752Y7208882D01*
X5611253Y7321134D01*
X5739040Y7463056D01*
X5834527Y7628444D01*
X5893542Y7810072D01*
X5913504Y8000000D01*
X5893542Y8189928D01*
X5834527Y8371556D01*
X5739040Y8536944D01*
X5611253Y8678866D01*
X5456752Y8791118D01*
X5282288Y8868794D01*
X5282286Y8868795D01*
X5235637Y8878710D01*
X5174155Y8911902D01*
X5140379Y8973065D01*
X5145031Y9042780D01*
X5186636Y9098912D01*
X5235637Y9121290D01*
X5282288Y9131206D01*
X5456752Y9208882D01*
X5611253Y9321134D01*
X5739040Y9463056D01*
X5834527Y9628444D01*
X5893542Y9810072D01*
X5913504Y10000000D01*
X5893542Y10189928D01*
X5834527Y10371556D01*
X5739040Y10536944D01*
X5611253Y10678866D01*
X5456752Y10791118D01*
X5282288Y10868794D01*
X5282286Y10868795D01*
X5235637Y10878710D01*
X5174155Y10911902D01*
X5140379Y10973065D01*
X5145031Y11042780D01*
X5186636Y11098912D01*
X5235637Y11121290D01*
X5282288Y11131206D01*
X5456752Y11208882D01*
X5611253Y11321134D01*
X5739040Y11463056D01*
X5834527Y11628444D01*
X5893542Y11810072D01*
X5913504Y12000000D01*
X5893542Y12189928D01*
X5834527Y12371556D01*
X5739040Y12536944D01*
X5611253Y12678866D01*
X5456752Y12791118D01*
X5282288Y12868794D01*
X5282286Y12868795D01*
X5235637Y12878710D01*
X5174155Y12911902D01*
X5140379Y12973065D01*
X5145031Y13042780D01*
X5186636Y13098912D01*
X5235637Y13121290D01*
X5282288Y13131206D01*
X5456752Y13208882D01*
X5611253Y13321134D01*
X5739040Y13463056D01*
X5834527Y13628444D01*
X5893542Y13810072D01*
X5913504Y14000000D01*
X5893542Y14189928D01*
X5834527Y14371556D01*
X5739040Y14536944D01*
X5611253Y14678866D01*
X5456752Y14791118D01*
X5282288Y14868794D01*
X5282286Y14868795D01*
X5235637Y14878710D01*
X5174155Y14911902D01*
X5140379Y14973065D01*
X5145031Y15042780D01*
X5186636Y15098912D01*
X5235637Y15121290D01*
X5282288Y15131206D01*
X5456752Y15208882D01*
X5611253Y15321134D01*
X5739040Y15463056D01*
X5834527Y15628444D01*
X5893542Y15810072D01*
X5913504Y16000000D01*
X5893542Y16189928D01*
X5834527Y16371556D01*
X5739040Y16536944D01*
X5611253Y16678866D01*
X5456752Y16791118D01*
X5282288Y16868794D01*
X5282286Y16868795D01*
X5235637Y16878710D01*
X5174155Y16911902D01*
X5140379Y16973065D01*
X5145031Y17042780D01*
X5186636Y17098912D01*
X5235637Y17121290D01*
X5282288Y17131206D01*
X5456752Y17208882D01*
X5611253Y17321134D01*
X5739040Y17463056D01*
X5834527Y17628444D01*
X5893542Y17810072D01*
X5913504Y18000000D01*
X5893542Y18189928D01*
X5834527Y18371556D01*
X5739040Y18536944D01*
X5611253Y18678866D01*
X5456752Y18791118D01*
X5282288Y18868794D01*
X5282286Y18868795D01*
X5095487Y18908500D01*
X4904513Y18908500D01*
X4717714Y18868795D01*
X4543246Y18791117D01*
X4388745Y18678865D01*
X4260959Y18536943D01*
X4165473Y18371557D01*
X4165470Y18371550D01*
X4112270Y18207816D01*
X4106458Y18189928D01*
X4086496Y18000000D01*
X50500Y18000000D01*
X50500Y19825500D01*
X70185Y19892539D01*
X122989Y19938294D01*
X174500Y19949500D01*
X6379610Y19949500D01*
X6446649Y19929815D01*
G37*
%TD.AperFunction*%
%TA.AperFunction,Conductor*%
G36*
X19796553Y16375098D02*
G01*
X19661028Y16408500D01*
X19617758Y16408500D01*
X19550719Y16428185D01*
X19504964Y16480989D01*
X19495020Y16550147D01*
X19524045Y16613703D01*
X19530077Y16620181D01*
X19530104Y16620208D01*
X19530106Y16620212D01*
X19530109Y16620214D01*
X19654276Y16791117D01*
X19655051Y16792184D01*
X19751557Y16981588D01*
X19784037Y17081553D01*
X19796553Y16375098D01*
G37*
%TD.AperFunction*%
%TD*%
M02*
