%TF.GenerationSoftware,KiCad,Pcbnew,8.0.2*%
%TF.CreationDate,2024-12-01T19:44:38-06:00*%
%TF.ProjectId,Desktop_50_Pin_TopConn,4465736b-746f-4705-9f35-305f50696e5f,rev?*%
%TF.SameCoordinates,Original*%
%TF.FileFunction,Soldermask,Top*%
%TF.FilePolarity,Negative*%
%FSLAX46Y46*%
G04 Gerber Fmt 4.6, Leading zero omitted, Abs format (unit mm)*
G04 Created by KiCad (PCBNEW 8.0.2) date 2024-12-01 19:44:38*
%MOMM*%
%LPD*%
G01*
G04 APERTURE LIST*
G04 Aperture macros list*
%AMRoundRect*
0 Rectangle with rounded corners*
0 $1 Rounding radius*
0 $2 $3 $4 $5 $6 $7 $8 $9 X,Y pos of 4 corners*
0 Add a 4 corners polygon primitive as box body*
4,1,4,$2,$3,$4,$5,$6,$7,$8,$9,$2,$3,0*
0 Add four circle primitives for the rounded corners*
1,1,$1+$1,$2,$3*
1,1,$1+$1,$4,$5*
1,1,$1+$1,$6,$7*
1,1,$1+$1,$8,$9*
0 Add four rect primitives between the rounded corners*
20,1,$1+$1,$2,$3,$4,$5,0*
20,1,$1+$1,$4,$5,$6,$7,0*
20,1,$1+$1,$6,$7,$8,$9,0*
20,1,$1+$1,$8,$9,$2,$3,0*%
G04 Aperture macros list end*
%ADD10RoundRect,0.225000X-0.250000X0.225000X-0.250000X-0.225000X0.250000X-0.225000X0.250000X0.225000X0*%
%ADD11RoundRect,0.225000X-0.225000X-0.250000X0.225000X-0.250000X0.225000X0.250000X-0.225000X0.250000X0*%
%ADD12RoundRect,0.225000X0.225000X0.250000X-0.225000X0.250000X-0.225000X-0.250000X0.225000X-0.250000X0*%
%ADD13R,3.480000X1.846667*%
%ADD14RoundRect,0.140000X-0.140000X-0.170000X0.140000X-0.170000X0.140000X0.170000X-0.140000X0.170000X0*%
%ADD15RoundRect,0.100000X0.100000X-0.637500X0.100000X0.637500X-0.100000X0.637500X-0.100000X-0.637500X0*%
%ADD16RoundRect,0.140000X-0.170000X0.140000X-0.170000X-0.140000X0.170000X-0.140000X0.170000X0.140000X0*%
%ADD17RoundRect,0.140000X0.140000X0.170000X-0.140000X0.170000X-0.140000X-0.170000X0.140000X-0.170000X0*%
%ADD18R,1.100000X0.850000*%
%ADD19R,1.100000X0.750000*%
%ADD20R,1.000000X1.200000*%
%ADD21R,1.350000X1.550000*%
%ADD22R,1.350000X1.900000*%
%ADD23R,1.800000X1.170000*%
%ADD24RoundRect,0.243750X0.243750X0.456250X-0.243750X0.456250X-0.243750X-0.456250X0.243750X-0.456250X0*%
%ADD25C,2.200000*%
%ADD26RoundRect,0.135000X0.135000X0.185000X-0.135000X0.185000X-0.135000X-0.185000X0.135000X-0.185000X0*%
%ADD27RoundRect,0.200000X0.200000X0.275000X-0.200000X0.275000X-0.200000X-0.275000X0.200000X-0.275000X0*%
%ADD28RoundRect,0.200000X-0.275000X0.200000X-0.275000X-0.200000X0.275000X-0.200000X0.275000X0.200000X0*%
%ADD29RoundRect,0.150000X0.150000X-0.587500X0.150000X0.587500X-0.150000X0.587500X-0.150000X-0.587500X0*%
%ADD30RoundRect,0.200000X0.275000X-0.200000X0.275000X0.200000X-0.275000X0.200000X-0.275000X-0.200000X0*%
%ADD31RoundRect,0.135000X0.185000X-0.135000X0.185000X0.135000X-0.185000X0.135000X-0.185000X-0.135000X0*%
%ADD32RoundRect,0.135000X-0.135000X-0.185000X0.135000X-0.185000X0.135000X0.185000X-0.135000X0.185000X0*%
%ADD33C,0.650000*%
%ADD34R,1.240000X0.600000*%
%ADD35R,1.240000X0.300000*%
%ADD36O,2.100000X1.000000*%
%ADD37O,1.800000X1.000000*%
%ADD38RoundRect,0.100000X-0.637500X-0.100000X0.637500X-0.100000X0.637500X0.100000X-0.637500X0.100000X0*%
%ADD39RoundRect,0.100000X0.637500X0.100000X-0.637500X0.100000X-0.637500X-0.100000X0.637500X-0.100000X0*%
%ADD40RoundRect,0.050000X-0.050000X0.387500X-0.050000X-0.387500X0.050000X-0.387500X0.050000X0.387500X0*%
%ADD41RoundRect,0.050000X-0.387500X0.050000X-0.387500X-0.050000X0.387500X-0.050000X0.387500X0.050000X0*%
%ADD42R,3.200000X3.200000*%
%ADD43RoundRect,0.100000X-0.100000X0.637500X-0.100000X-0.637500X0.100000X-0.637500X0.100000X0.637500X0*%
%ADD44RoundRect,0.135000X-0.185000X0.135000X-0.185000X-0.135000X0.185000X-0.135000X0.185000X0.135000X0*%
%ADD45RoundRect,0.250000X-0.325000X-0.450000X0.325000X-0.450000X0.325000X0.450000X-0.325000X0.450000X0*%
%ADD46RoundRect,0.150000X-0.150000X0.587500X-0.150000X-0.587500X0.150000X-0.587500X0.150000X0.587500X0*%
%ADD47RoundRect,0.102000X-0.300000X-0.775000X0.300000X-0.775000X0.300000X0.775000X-0.300000X0.775000X0*%
%ADD48RoundRect,0.102000X0.600000X0.900000X-0.600000X0.900000X-0.600000X-0.900000X0.600000X-0.900000X0*%
%ADD49RoundRect,0.225000X0.250000X-0.225000X0.250000X0.225000X-0.250000X0.225000X-0.250000X-0.225000X0*%
%ADD50RoundRect,0.225000X0.225000X0.375000X-0.225000X0.375000X-0.225000X-0.375000X0.225000X-0.375000X0*%
%ADD51RoundRect,0.140000X0.170000X-0.140000X0.170000X0.140000X-0.170000X0.140000X-0.170000X-0.140000X0*%
%ADD52RoundRect,0.375000X-0.625000X-0.375000X0.625000X-0.375000X0.625000X0.375000X-0.625000X0.375000X0*%
%ADD53RoundRect,0.500000X-0.500000X-1.400000X0.500000X-1.400000X0.500000X1.400000X-0.500000X1.400000X0*%
%ADD54RoundRect,0.062500X-0.387500X-0.062500X0.387500X-0.062500X0.387500X0.062500X-0.387500X0.062500X0*%
%ADD55R,0.200000X1.600000*%
%ADD56C,1.700000*%
%ADD57C,1.524000*%
%ADD58RoundRect,0.200000X-0.200000X-0.275000X0.200000X-0.275000X0.200000X0.275000X-0.200000X0.275000X0*%
%ADD59RoundRect,0.250000X0.325000X0.450000X-0.325000X0.450000X-0.325000X-0.450000X0.325000X-0.450000X0*%
%ADD60RoundRect,0.375000X0.625000X0.375000X-0.625000X0.375000X-0.625000X-0.375000X0.625000X-0.375000X0*%
%ADD61RoundRect,0.500000X0.500000X1.400000X-0.500000X1.400000X-0.500000X-1.400000X0.500000X-1.400000X0*%
%ADD62R,1.200000X1.400000*%
%ADD63RoundRect,0.250000X0.450000X-0.325000X0.450000X0.325000X-0.450000X0.325000X-0.450000X-0.325000X0*%
G04 APERTURE END LIST*
D10*
%TO.C,C26*%
X41900000Y2975000D03*
X41900000Y1425000D03*
%TD*%
%TO.C,C25*%
X40400000Y2975000D03*
X40400000Y1425000D03*
%TD*%
D11*
%TO.C,C24*%
X17150000Y200000D03*
X18700000Y200000D03*
%TD*%
%TO.C,C20*%
X35425000Y8300000D03*
X36975000Y8300000D03*
%TD*%
%TO.C,C19*%
X38600000Y8300000D03*
X40150000Y8300000D03*
%TD*%
D12*
%TO.C,C9*%
X10075000Y4520000D03*
X8525000Y4520000D03*
%TD*%
D13*
%TO.C,J3*%
X2000000Y16620000D03*
X2000000Y13850000D03*
X2000000Y11080000D03*
X2000000Y8310000D03*
X2000000Y5540000D03*
X2000000Y2770000D03*
X2000000Y0D03*
X2000000Y-2770000D03*
X2000000Y-5540000D03*
X2000000Y-8310000D03*
X2000000Y-11080000D03*
X2000000Y-13850000D03*
X2000000Y-16620000D03*
%TD*%
D11*
%TO.C,C3*%
X26550000Y-10350000D03*
X28100000Y-10350000D03*
%TD*%
D14*
%TO.C,C4*%
X16060000Y-13060000D03*
X17020000Y-13060000D03*
%TD*%
D15*
%TO.C,U3*%
X34740000Y12300000D03*
X35390000Y12300000D03*
X36040000Y12300000D03*
X36690000Y12300000D03*
X37340000Y12300000D03*
X37990000Y12300000D03*
X38640000Y12300000D03*
X38640000Y18025000D03*
X37990000Y18025000D03*
X37340000Y18025000D03*
X36690000Y18025000D03*
X36040000Y18025000D03*
X35390000Y18025000D03*
X34740000Y18025000D03*
%TD*%
D11*
%TO.C,C7*%
X26550000Y-18975000D03*
X28100000Y-18975000D03*
%TD*%
D16*
%TO.C,C1*%
X52780000Y-11200000D03*
X52780000Y-12160000D03*
%TD*%
D17*
%TO.C,C2*%
X22815000Y-10080000D03*
X21855000Y-10080000D03*
%TD*%
D14*
%TO.C,C5*%
X16070000Y13010000D03*
X17030000Y13010000D03*
%TD*%
D17*
%TO.C,C6*%
X22815000Y-18725000D03*
X21855000Y-18725000D03*
%TD*%
%TO.C,C12*%
X14210000Y-4180000D03*
X13250000Y-4180000D03*
%TD*%
D18*
%TO.C,SD1*%
X63750000Y6445000D03*
X63750000Y5345000D03*
X63750000Y4245000D03*
X63750000Y3145000D03*
X63750000Y2045000D03*
X63750000Y945000D03*
X63750000Y-155000D03*
D19*
X63750000Y-1205000D03*
D20*
X57600000Y9080000D03*
X53900000Y9080000D03*
D21*
X63625000Y8905000D03*
D22*
X52925000Y5580000D03*
X52925000Y-390000D03*
D23*
X63400000Y-2415000D03*
%TD*%
D24*
%TO.C,D1*%
X47367500Y-18450000D03*
X45492500Y-18450000D03*
%TD*%
%TO.C,D2*%
X42395832Y-18450000D03*
X40520832Y-18450000D03*
%TD*%
D25*
%TO.C,H4*%
X18500000Y17500000D03*
%TD*%
D26*
%TO.C,R54*%
X31325000Y-16220000D03*
X30305000Y-16220000D03*
%TD*%
D27*
%TO.C,R46*%
X17925000Y14280000D03*
X16275000Y14280000D03*
%TD*%
D28*
%TO.C,R42*%
X9125000Y7775000D03*
X9125000Y6125000D03*
%TD*%
D26*
%TO.C,R56*%
X55850000Y-8175000D03*
X54830000Y-8175000D03*
%TD*%
D28*
%TO.C,R30*%
X14975000Y7775000D03*
X14975000Y6125000D03*
%TD*%
D26*
%TO.C,R4*%
X48320000Y-12200000D03*
X47300000Y-12200000D03*
%TD*%
D29*
%TO.C,Q1*%
X16675000Y-11350000D03*
X18575000Y-11350000D03*
X17625000Y-9475000D03*
%TD*%
D30*
%TO.C,R39*%
X12950000Y-7750000D03*
X12950000Y-6100000D03*
%TD*%
%TO.C,R31*%
X9050000Y-7750000D03*
X9050000Y-6100000D03*
%TD*%
D15*
%TO.C,U2*%
X28650000Y12227500D03*
X29300000Y12227500D03*
X29950000Y12227500D03*
X30600000Y12227500D03*
X31250000Y12227500D03*
X31900000Y12227500D03*
X32550000Y12227500D03*
X32550000Y17952500D03*
X31900000Y17952500D03*
X31250000Y17952500D03*
X30600000Y17952500D03*
X29950000Y17952500D03*
X29300000Y17952500D03*
X28650000Y17952500D03*
%TD*%
D10*
%TO.C,C17*%
X43400000Y2975000D03*
X43400000Y1425000D03*
%TD*%
D31*
%TO.C,R84*%
X23710000Y9620000D03*
X23710000Y10640000D03*
%TD*%
D32*
%TO.C,R24*%
X30305000Y-2690000D03*
X31325000Y-2690000D03*
%TD*%
D14*
%TO.C,C16*%
X17350000Y4240000D03*
X18310000Y4240000D03*
%TD*%
D30*
%TO.C,R33*%
X11000000Y-10775000D03*
X11000000Y-9125000D03*
%TD*%
D31*
%TO.C,R2*%
X34110000Y-14370000D03*
X34110000Y-13350000D03*
%TD*%
D14*
%TO.C,C29*%
X45450000Y-11893333D03*
X46410000Y-11893333D03*
%TD*%
D16*
%TO.C,C30*%
X39450000Y-14800000D03*
X39450000Y-15760000D03*
%TD*%
D26*
%TO.C,R48*%
X55850000Y-10635000D03*
X54830000Y-10635000D03*
%TD*%
D33*
%TO.C,J12*%
X58855000Y-11930000D03*
X58855000Y-6150000D03*
D34*
X57735000Y-12240000D03*
X57735000Y-11440000D03*
D35*
X57735000Y-10290000D03*
X57735000Y-9290000D03*
X57735000Y-8790000D03*
X57735000Y-7790000D03*
D34*
X57735000Y-6640000D03*
X57735000Y-5840000D03*
X57735000Y-5840000D03*
X57735000Y-6640000D03*
D35*
X57735000Y-7290000D03*
X57735000Y-8290000D03*
X57735000Y-9790000D03*
X57735000Y-10790000D03*
D34*
X57735000Y-11440000D03*
X57735000Y-12240000D03*
D36*
X58335000Y-13360000D03*
D37*
X62535000Y-13360000D03*
D36*
X58335000Y-4720000D03*
D37*
X62535000Y-4720000D03*
%TD*%
D38*
%TO.C,U5*%
X22137500Y3025000D03*
X22137500Y2375000D03*
X22137500Y1725000D03*
X22137500Y1075000D03*
X22137500Y425000D03*
X22137500Y-225000D03*
X22137500Y-875000D03*
X27862500Y-875000D03*
X27862500Y-225000D03*
X27862500Y425000D03*
X27862500Y1075000D03*
X27862500Y1725000D03*
X27862500Y2375000D03*
X27862500Y3025000D03*
%TD*%
D28*
%TO.C,R36*%
X11075000Y10800000D03*
X11075000Y9150000D03*
%TD*%
D26*
%TO.C,R3*%
X48310000Y-13200000D03*
X47290000Y-13200000D03*
%TD*%
D28*
%TO.C,R5*%
X32140000Y10555000D03*
X32140000Y8905000D03*
%TD*%
D30*
%TO.C,R35*%
X11000000Y-7750000D03*
X11000000Y-6100000D03*
%TD*%
D16*
%TO.C,C33*%
X44930000Y-5510000D03*
X44930000Y-6470000D03*
%TD*%
D12*
%TO.C,C8*%
X10000000Y-4450000D03*
X8450000Y-4450000D03*
%TD*%
D28*
%TO.C,R38*%
X11075000Y7775000D03*
X11075000Y6125000D03*
%TD*%
D31*
%TO.C,R9*%
X29380000Y-9630000D03*
X29380000Y-8610000D03*
%TD*%
D15*
%TO.C,U1*%
X23050000Y12137500D03*
X23700000Y12137500D03*
X24350000Y12137500D03*
X25000000Y12137500D03*
X25650000Y12137500D03*
X26300000Y12137500D03*
X26950000Y12137500D03*
X26950000Y17862500D03*
X26300000Y17862500D03*
X25650000Y17862500D03*
X25000000Y17862500D03*
X24350000Y17862500D03*
X23700000Y17862500D03*
X23050000Y17862500D03*
%TD*%
D28*
%TO.C,R40*%
X9125000Y10800000D03*
X9125000Y9150000D03*
%TD*%
D26*
%TO.C,R85*%
X31325000Y-9476734D03*
X30305000Y-9476734D03*
%TD*%
D15*
%TO.C,U4*%
X40370000Y12200000D03*
X41020000Y12200000D03*
X41670000Y12200000D03*
X42320000Y12200000D03*
X42970000Y12200000D03*
X43620000Y12200000D03*
X44270000Y12200000D03*
X44270000Y17925000D03*
X43620000Y17925000D03*
X42970000Y17925000D03*
X42320000Y17925000D03*
X41670000Y17925000D03*
X41020000Y17925000D03*
X40370000Y17925000D03*
%TD*%
D16*
%TO.C,C27*%
X44980000Y-14780000D03*
X44980000Y-15740000D03*
%TD*%
D39*
%TO.C,U6*%
X27862500Y-8975000D03*
X27862500Y-8325000D03*
X27862500Y-7675000D03*
X27862500Y-7025000D03*
X27862500Y-6375000D03*
X27862500Y-5725000D03*
X27862500Y-5075000D03*
X27862500Y-4425000D03*
X27862500Y-3775000D03*
X27862500Y-3125000D03*
X22137500Y-3125000D03*
X22137500Y-3775000D03*
X22137500Y-4425000D03*
X22137500Y-5075000D03*
X22137500Y-5725000D03*
X22137500Y-6375000D03*
X22137500Y-7025000D03*
X22137500Y-7675000D03*
X22137500Y-8325000D03*
X22137500Y-8975000D03*
%TD*%
D32*
%TO.C,R47*%
X54830000Y-6945000D03*
X55850000Y-6945000D03*
%TD*%
D40*
%TO.C,U13*%
X42600000Y-6562500D03*
X42200000Y-6562500D03*
X41800000Y-6562500D03*
X41400000Y-6562500D03*
X41000000Y-6562500D03*
X40600000Y-6562500D03*
X40200000Y-6562500D03*
X39800000Y-6562500D03*
X39400000Y-6562500D03*
X39000000Y-6562500D03*
X38600000Y-6562500D03*
X38200000Y-6562500D03*
X37800000Y-6562500D03*
X37400000Y-6562500D03*
D41*
X36562500Y-7400000D03*
X36562500Y-7800000D03*
X36562500Y-8200000D03*
X36562500Y-8600000D03*
X36562500Y-9000000D03*
X36562500Y-9400000D03*
X36562500Y-9800000D03*
X36562500Y-10200000D03*
X36562500Y-10600000D03*
X36562500Y-11000000D03*
X36562500Y-11400000D03*
X36562500Y-11800000D03*
X36562500Y-12200000D03*
X36562500Y-12600000D03*
D40*
X37400000Y-13437500D03*
X37800000Y-13437500D03*
X38200000Y-13437500D03*
X38600000Y-13437500D03*
X39000000Y-13437500D03*
X39400000Y-13437500D03*
X39800000Y-13437500D03*
X40200000Y-13437500D03*
X40600000Y-13437500D03*
X41000000Y-13437500D03*
X41400000Y-13437500D03*
X41800000Y-13437500D03*
X42200000Y-13437500D03*
X42600000Y-13437500D03*
D41*
X43437500Y-12600000D03*
X43437500Y-12200000D03*
X43437500Y-11800000D03*
X43437500Y-11400000D03*
X43437500Y-11000000D03*
X43437500Y-10600000D03*
X43437500Y-10200000D03*
X43437500Y-9800000D03*
X43437500Y-9400000D03*
X43437500Y-9000000D03*
X43437500Y-8600000D03*
X43437500Y-8200000D03*
X43437500Y-7800000D03*
X43437500Y-7400000D03*
D42*
X40000000Y-10000000D03*
%TD*%
D24*
%TO.C,D6*%
X37384166Y-18450000D03*
X35509166Y-18450000D03*
%TD*%
D43*
%TO.C,U7*%
X14925000Y18362500D03*
X14275000Y18362500D03*
X13625000Y18362500D03*
X12975000Y18362500D03*
X12325000Y18362500D03*
X11675000Y18362500D03*
X11025000Y18362500D03*
X10375000Y18362500D03*
X9725000Y18362500D03*
X9075000Y18362500D03*
X9075000Y12637500D03*
X9725000Y12637500D03*
X10375000Y12637500D03*
X11025000Y12637500D03*
X11675000Y12637500D03*
X12325000Y12637500D03*
X12975000Y12637500D03*
X13625000Y12637500D03*
X14275000Y12637500D03*
X14925000Y12637500D03*
%TD*%
D17*
%TO.C,C15*%
X16285000Y4250000D03*
X15325000Y4250000D03*
%TD*%
D14*
%TO.C,C14*%
X13445000Y4250000D03*
X14405000Y4250000D03*
%TD*%
D26*
%TO.C,R49*%
X53910000Y-7000000D03*
X52890000Y-7000000D03*
%TD*%
D28*
%TO.C,R45*%
X16925000Y7775000D03*
X16925000Y6125000D03*
%TD*%
D14*
%TO.C,C21*%
X27818000Y4496000D03*
X28778000Y4496000D03*
%TD*%
D26*
%TO.C,R87*%
X31325000Y-10838800D03*
X30305000Y-10838800D03*
%TD*%
D44*
%TO.C,R53*%
X40470000Y-15590000D03*
X40470000Y-16610000D03*
%TD*%
%TO.C,R55*%
X46027500Y-5480000D03*
X46027500Y-6500000D03*
%TD*%
D25*
%TO.C,H3*%
X62500000Y-17500000D03*
%TD*%
D45*
%TO.C,F3*%
X53407000Y-5410000D03*
X55457000Y-5410000D03*
%TD*%
D46*
%TO.C,Q2*%
X18525000Y11350000D03*
X16625000Y11350000D03*
X17575000Y9475000D03*
%TD*%
D47*
%TO.C,J4*%
X51180000Y-15060000D03*
X52180000Y-15060000D03*
X53180000Y-15060000D03*
X54180000Y-15060000D03*
D48*
X49880000Y-18935000D03*
X55480000Y-18935000D03*
%TD*%
D25*
%TO.C,H1*%
X62500000Y17500000D03*
%TD*%
D14*
%TO.C,C23*%
X33120000Y7700000D03*
X34080000Y7700000D03*
%TD*%
D31*
%TO.C,R86*%
X42410000Y9680000D03*
X42410000Y10700000D03*
%TD*%
D44*
%TO.C,R83*%
X37970000Y10700000D03*
X37970000Y9680000D03*
%TD*%
%TO.C,R50*%
X46950000Y-14750000D03*
X46950000Y-15770000D03*
%TD*%
%TO.C,R81*%
X24840000Y10640000D03*
X24840000Y9620000D03*
%TD*%
D49*
%TO.C,C22*%
X40462000Y4991000D03*
X40462000Y6541000D03*
%TD*%
D14*
%TO.C,C34*%
X39010000Y-5290000D03*
X39970000Y-5290000D03*
%TD*%
D50*
%TO.C,D8*%
X49478000Y2718000D03*
X46178000Y2718000D03*
%TD*%
D27*
%TO.C,R22*%
X53230000Y-9900000D03*
X51580000Y-9900000D03*
%TD*%
D44*
%TO.C,R80*%
X30570000Y10790000D03*
X30570000Y9770000D03*
%TD*%
D28*
%TO.C,R7*%
X33770000Y10580000D03*
X33770000Y8930000D03*
%TD*%
D51*
%TO.C,C38*%
X49320000Y-6470000D03*
X49320000Y-5510000D03*
%TD*%
D26*
%TO.C,R88*%
X31325000Y-12200866D03*
X30305000Y-12200866D03*
%TD*%
D44*
%TO.C,R79*%
X29360000Y10790000D03*
X29360000Y9770000D03*
%TD*%
D16*
%TO.C,C36*%
X36580000Y-14720000D03*
X36580000Y-15680000D03*
%TD*%
D26*
%TO.C,R89*%
X31325000Y-13562932D03*
X30305000Y-13562932D03*
%TD*%
%TO.C,R91*%
X31325000Y-14925000D03*
X30305000Y-14925000D03*
%TD*%
D51*
%TO.C,C18*%
X39700000Y-4080000D03*
X39700000Y-3120000D03*
%TD*%
D16*
%TO.C,C43*%
X44600000Y3260000D03*
X44600000Y2300000D03*
%TD*%
D28*
%TO.C,R32*%
X13025000Y10800000D03*
X13025000Y9150000D03*
%TD*%
D30*
%TO.C,R43*%
X14900000Y-7750000D03*
X14900000Y-6100000D03*
%TD*%
D44*
%TO.C,R1*%
X47940000Y-14750000D03*
X47940000Y-15770000D03*
%TD*%
D28*
%TO.C,R25*%
X29794000Y1003000D03*
X29794000Y-647000D03*
%TD*%
D14*
%TO.C,C10*%
X11270000Y4250000D03*
X12230000Y4250000D03*
%TD*%
D31*
%TO.C,R90*%
X39600000Y9680000D03*
X39600000Y10700000D03*
%TD*%
D14*
%TO.C,C32*%
X45450000Y-12866666D03*
X46410000Y-12866666D03*
%TD*%
D52*
%TO.C,U10*%
X8850000Y2300000D03*
X8850000Y0D03*
D53*
X15150000Y0D03*
D52*
X8850000Y-2300000D03*
%TD*%
D50*
%TO.C,D4*%
X49478000Y10338000D03*
X46178000Y10338000D03*
%TD*%
D45*
%TO.C,F1*%
X42485000Y5004000D03*
X44535000Y5004000D03*
%TD*%
D54*
%TO.C,U12*%
X45895000Y-7560000D03*
X45895000Y-8060000D03*
X45895000Y-8560000D03*
X45895000Y-9060000D03*
X48745000Y-9060000D03*
X48745000Y-8560000D03*
X48745000Y-8060000D03*
X48745000Y-7560000D03*
D55*
X47320000Y-8310000D03*
%TD*%
D51*
%TO.C,C39*%
X48232500Y-6470000D03*
X48232500Y-5510000D03*
%TD*%
D28*
%TO.C,R34*%
X13025000Y7775000D03*
X13025000Y6125000D03*
%TD*%
D31*
%TO.C,R94*%
X36590000Y9680000D03*
X36590000Y10700000D03*
%TD*%
D50*
%TO.C,D3*%
X49478000Y5258000D03*
X46178000Y5258000D03*
%TD*%
D26*
%TO.C,R93*%
X31325000Y-5390536D03*
X30305000Y-5390536D03*
%TD*%
D30*
%TO.C,R37*%
X12950000Y-10775000D03*
X12950000Y-9125000D03*
%TD*%
D56*
%TO.C,J10*%
X48825400Y16803500D03*
X51325400Y16803500D03*
D57*
X53825400Y16803500D03*
X56325400Y16803500D03*
%TD*%
D30*
%TO.C,R41*%
X14900000Y-10775000D03*
X14900000Y-9125000D03*
%TD*%
D15*
%TO.C,U8*%
X9075000Y-18362500D03*
X9725000Y-18362500D03*
X10375000Y-18362500D03*
X11025000Y-18362500D03*
X11675000Y-18362500D03*
X12325000Y-18362500D03*
X12975000Y-18362500D03*
X13625000Y-18362500D03*
X14275000Y-18362500D03*
X14925000Y-18362500D03*
X14925000Y-12637500D03*
X14275000Y-12637500D03*
X13625000Y-12637500D03*
X12975000Y-12637500D03*
X12325000Y-12637500D03*
X11675000Y-12637500D03*
X11025000Y-12637500D03*
X10375000Y-12637500D03*
X9725000Y-12637500D03*
X9075000Y-12637500D03*
%TD*%
D24*
%TO.C,D7*%
X32412500Y-18450000D03*
X30537500Y-18450000D03*
%TD*%
D58*
%TO.C,R23*%
X51565000Y-8370000D03*
X53215000Y-8370000D03*
%TD*%
D31*
%TO.C,R52*%
X45960000Y-15770000D03*
X45960000Y-14750000D03*
%TD*%
D32*
%TO.C,R26*%
X24490000Y4990000D03*
X25510000Y4990000D03*
%TD*%
D30*
%TO.C,R29*%
X9050000Y-10775000D03*
X9050000Y-9125000D03*
%TD*%
D12*
%TO.C,C40*%
X34785000Y-12100000D03*
X33235000Y-12100000D03*
%TD*%
D59*
%TO.C,F5*%
X44535000Y7036000D03*
X42485000Y7036000D03*
%TD*%
D39*
%TO.C,U9*%
X27862500Y-17600000D03*
X27862500Y-16950000D03*
X27862500Y-16300000D03*
X27862500Y-15650000D03*
X27862500Y-15000000D03*
X27862500Y-14350000D03*
X27862500Y-13700000D03*
X27862500Y-13050000D03*
X27862500Y-12400000D03*
X27862500Y-11750000D03*
X22137500Y-11750000D03*
X22137500Y-12400000D03*
X22137500Y-13050000D03*
X22137500Y-13700000D03*
X22137500Y-14350000D03*
X22137500Y-15000000D03*
X22137500Y-15650000D03*
X22137500Y-16300000D03*
X22137500Y-16950000D03*
X22137500Y-17600000D03*
%TD*%
D51*
%TO.C,C35*%
X38730000Y-4080000D03*
X38730000Y-3120000D03*
%TD*%
D17*
%TO.C,C37*%
X49050000Y-11050000D03*
X48090000Y-11050000D03*
%TD*%
D30*
%TO.C,R44*%
X16925000Y-7750000D03*
X16925000Y-6100000D03*
%TD*%
D16*
%TO.C,C28*%
X35310000Y-13630000D03*
X35310000Y-14590000D03*
%TD*%
D31*
%TO.C,R58*%
X47135000Y-6500000D03*
X47135000Y-5480000D03*
%TD*%
D26*
%TO.C,R96*%
X31325000Y-8114668D03*
X30305000Y-8114668D03*
%TD*%
D28*
%TO.C,R28*%
X14975000Y10800000D03*
X14975000Y9150000D03*
%TD*%
D31*
%TO.C,R82*%
X35460000Y9710000D03*
X35460000Y10730000D03*
%TD*%
D14*
%TO.C,C11*%
X11250000Y-4180000D03*
X12210000Y-4180000D03*
%TD*%
D26*
%TO.C,R95*%
X31325000Y-6752602D03*
X30305000Y-6752602D03*
%TD*%
D17*
%TO.C,C13*%
X16305000Y-4180000D03*
X15345000Y-4180000D03*
%TD*%
D60*
%TO.C,U11*%
X38278000Y1180000D03*
X38278000Y3480000D03*
D61*
X31978000Y3480000D03*
D60*
X38278000Y5780000D03*
%TD*%
D50*
%TO.C,D9*%
X49478000Y7798000D03*
X46178000Y7798000D03*
%TD*%
D62*
%TO.C,Y1*%
X33150000Y-8070000D03*
X33150000Y-10270000D03*
X34850000Y-10270000D03*
X34850000Y-8070000D03*
%TD*%
D26*
%TO.C,R92*%
X31325000Y-4028470D03*
X30305000Y-4028470D03*
%TD*%
%TO.C,R27*%
X25510000Y6160000D03*
X24490000Y6160000D03*
%TD*%
D25*
%TO.C,H2*%
X18500000Y-17500000D03*
%TD*%
D14*
%TO.C,C31*%
X45450000Y-13840000D03*
X46410000Y-13840000D03*
%TD*%
D26*
%TO.C,R51*%
X51910000Y-7000000D03*
X50890000Y-7000000D03*
%TD*%
D63*
%TO.C,F4*%
X46304000Y12615000D03*
X46304000Y14665000D03*
%TD*%
D11*
%TO.C,C42*%
X33335000Y-6290000D03*
X34885000Y-6290000D03*
%TD*%
D26*
%TO.C,R57*%
X55850000Y-9405000D03*
X54830000Y-9405000D03*
%TD*%
M02*
