M48
; DRILL file {KiCad 8.0.2} date 2024-11-30T10:22:52-0600
; FORMAT={-:-/ absolute / inch / decimal}
; #@! TF.CreationDate,2024-11-30T10:22:52-06:00
; #@! TF.GenerationSoftware,Kicad,Pcbnew,8.0.2
; #@! TF.FileFunction,Plated,1,4,PTH
FMAT,2
INCH
; #@! TA.AperFunction,Plated,PTH,ViaDrill
T1C0.0079
; #@! TA.AperFunction,Plated,PTH,ViaDrill
T2C0.0157
; #@! TA.AperFunction,Plated,PTH,ComponentDrill
T3C0.0236
; #@! TA.AperFunction,Plated,PTH,ComponentDrill
T4C0.0394
%
G90
G05
T1
X0.3071Y-0.5512
X0.31Y-0.7087
X0.3238Y0.315
X0.3445Y-0.4902
X0.3593Y-0.6319
X0.3829Y0.6575
X0.3967Y0.2362
X0.4213Y0.0394
X0.4518Y0.0787
X0.452Y0.335
X0.4596Y-0.6319
X0.4685Y0.3937
X0.4823Y0.1211
X0.4823Y-0.3937
X0.4852Y0.6604
X0.5042Y0.1517
X0.5108Y0.0404
X0.5254Y-0.3341
X0.5364Y-0.2362
X0.5551Y0.1211
X0.563Y-0.6319
X0.5807Y-0.1388
X0.5886Y0.6614
X0.6339Y0.5167
X0.6791Y0.1201
X0.6801Y-0.0394
X0.6821Y-0.0787
X0.7018Y0.0
X0.7352Y-0.4902
X0.7638Y-0.3937
X0.7707Y0.6181
X0.7825Y0.0
X0.7835Y0.4724
X0.7943Y0.5512
X0.8012Y-0.6467
X0.8091Y0.7411
X0.813Y0.6181
X0.815Y0.3937
X0.8287Y-0.5512
X0.8543Y-0.4281
X1.0285Y0.7087
X1.0413Y0.2913
X1.0512Y0.4094
X1.1646Y0.1575
X1.3642Y0.1571
X1.374Y0.7126
X1.4163Y0.4213
T2
X0.1969Y0.7087
X0.1969Y0.6299
X0.1969Y0.5512
X0.1969Y0.4724
X0.1969Y0.3937
X0.1969Y0.315
X0.1969Y0.2362
X0.1969Y0.1575
X0.1969Y0.0787
X0.1969Y0.0
X0.1969Y-0.0787
X0.1969Y-0.1575
X0.1969Y-0.2362
X0.1969Y-0.315
X0.1969Y-0.3937
X0.1969Y-0.4724
X0.1969Y-0.5512
X0.1969Y-0.6299
X0.1969Y-0.7087
X0.2756Y0.748
X0.2756Y0.6693
X0.2756Y0.5906
X0.2756Y0.5118
X0.2756Y0.4331
X0.2756Y0.3543
X0.2756Y0.2756
X0.2756Y0.1969
X0.2756Y0.1181
X0.2756Y0.0394
X0.2756Y-0.0394
X0.2756Y-0.1181
X0.2756Y-0.1969
X0.2756Y-0.2756
X0.2756Y-0.3543
X0.2756Y-0.4331
X0.2756Y-0.5118
X0.2756Y-0.6693
X0.2756Y-0.748
X0.2762Y-0.5825
X0.937Y0.7087
X0.937Y0.6299
X0.937Y0.5512
X0.937Y0.4724
X0.937Y0.3937
X0.937Y0.315
X0.937Y0.2362
X0.937Y0.1575
X0.937Y0.0787
X0.937Y0.0
X0.937Y-0.0787
X0.937Y-0.1575
X0.937Y-0.2362
X0.937Y-0.315
X0.937Y-0.3937
X0.937Y-0.4724
X0.937Y-0.5512
X0.937Y-0.6299
X0.937Y-0.7087
X0.9843Y0.7451
X0.9843Y0.6663
X0.9843Y0.5876
X0.9843Y0.5089
X0.9843Y0.4301
X0.9843Y0.3514
X0.9843Y0.2726
X0.9843Y0.1939
X0.9843Y0.1152
X0.9843Y0.0364
X0.9843Y-0.0423
X0.9843Y-0.1211
X0.9843Y-0.1998
X0.9843Y-0.2785
X0.9843Y-0.3573
X0.9843Y-0.436
X0.9843Y-0.5148
X0.9843Y-0.5935
X0.9843Y-0.6722
X0.9843Y-0.751
T4
X2.0051Y-0.5668
X2.0758Y-0.4961
X2.1465Y-0.4254
X2.1576Y0.8542
X2.2283Y0.7835
X2.2991Y0.7128
X2.319Y-0.1931
X2.319Y-0.2916
X2.319Y-0.39
X2.319Y-0.4884
T3
G00X2.2254Y0.2882
M15
G01X2.2687Y0.2882
M16
G05
G00X2.2254Y-0.052
M15
G01X2.2687Y-0.052
M16
G05
G00X2.3967Y0.2882
M15
G01X2.4281Y0.2882
M16
G05
G00X2.3967Y-0.052
M15
G01X2.4281Y-0.052
M16
G05
M30
