%TF.GenerationSoftware,KiCad,Pcbnew,8.0.2*%
%TF.CreationDate,2024-11-27T18:37:01-06:00*%
%TF.ProjectId,Desktop_50_Pin_TopConn,4465736b-746f-4705-9f35-305f50696e5f,rev?*%
%TF.SameCoordinates,Original*%
%TF.FileFunction,Copper,L2,Inr*%
%TF.FilePolarity,Positive*%
%FSLAX46Y46*%
G04 Gerber Fmt 4.6, Leading zero omitted, Abs format (unit mm)*
G04 Created by KiCad (PCBNEW 8.0.2) date 2024-11-27 18:37:01*
%MOMM*%
%LPD*%
G01*
G04 APERTURE LIST*
G04 Aperture macros list*
%AMHorizOval*
0 Thick line with rounded ends*
0 $1 width*
0 $2 $3 position (X,Y) of the first rounded end (center of the circle)*
0 $4 $5 position (X,Y) of the second rounded end (center of the circle)*
0 Add line between two ends*
20,1,$1,$2,$3,$4,$5,0*
0 Add two circle primitives to create the rounded ends*
1,1,$1,$2,$3*
1,1,$1,$4,$5*%
%AMRotRect*
0 Rectangle, with rotation*
0 The origin of the aperture is its center*
0 $1 length*
0 $2 width*
0 $3 Rotation angle, in degrees counterclockwise*
0 Add horizontal line*
21,1,$1,$2,0,0,$3*%
G04 Aperture macros list end*
%TA.AperFunction,ComponentPad*%
%ADD10RotRect,1.700000X1.700000X135.000000*%
%TD*%
%TA.AperFunction,ComponentPad*%
%ADD11HorizOval,1.700000X0.000000X0.000000X0.000000X0.000000X0*%
%TD*%
%TA.AperFunction,ComponentPad*%
%ADD12O,2.100000X1.000000*%
%TD*%
%TA.AperFunction,ComponentPad*%
%ADD13O,1.600000X1.000000*%
%TD*%
%TA.AperFunction,ComponentPad*%
%ADD14C,1.700000*%
%TD*%
%TA.AperFunction,ComponentPad*%
%ADD15C,1.524000*%
%TD*%
%TA.AperFunction,ComponentPad*%
%ADD16RotRect,1.700000X1.700000X45.000000*%
%TD*%
%TA.AperFunction,ComponentPad*%
%ADD17HorizOval,1.700000X0.000000X0.000000X0.000000X0.000000X0*%
%TD*%
%TA.AperFunction,ComponentPad*%
%ADD18C,4.000000*%
%TD*%
%TA.AperFunction,ComponentPad*%
%ADD19R,1.600000X1.600000*%
%TD*%
%TA.AperFunction,ComponentPad*%
%ADD20C,1.600000*%
%TD*%
%TA.AperFunction,ViaPad*%
%ADD21C,0.800000*%
%TD*%
G04 APERTURE END LIST*
D10*
%TO.N,/piccolo/SWCLK*%
%TO.C,J14*%
X35403949Y-21446051D03*
D11*
%TO.N,GND*%
X37200000Y-19650000D03*
%TO.N,/piccolo/SWDIO*%
X38996051Y-17853949D03*
%TD*%
D12*
%TO.N,GND*%
%TO.C,J12*%
X37720000Y-1420000D03*
D13*
X41900000Y-1420000D03*
D12*
X37720000Y7220000D03*
D13*
X41900000Y7220000D03*
%TD*%
D14*
%TO.N,Net-(D4-A)*%
%TO.C,J10*%
X39553500Y-5005400D03*
%TO.N,GND*%
X39553500Y-7505400D03*
D15*
X39553500Y-10005400D03*
%TO.N,unconnected-(J10-12V-Pad4)*%
X39553500Y-12505400D03*
%TD*%
D16*
%TO.N,GND*%
%TO.C,J5*%
X35453949Y21596051D03*
D17*
%TO.N,Net-(J5-Pin_2)*%
X37250000Y19800000D03*
%TO.N,GND*%
X39046051Y18003949D03*
%TD*%
D18*
%TO.N,GND*%
%TO.C,J3*%
X-3600000Y23549991D03*
X-3600000Y-23550009D03*
D19*
%TO.N,REQ*%
X-3300000Y16619991D03*
D20*
%TO.N,MSG*%
X-3300000Y13849991D03*
%TO.N,IO*%
X-3300000Y11079991D03*
%TO.N,RST*%
X-3300000Y8309991D03*
%TO.N,ACK*%
X-3300000Y5539991D03*
%TO.N,BSY*%
X-3300000Y2769991D03*
%TO.N,GND*%
X-3300000Y-9D03*
%TO.N,DB0*%
X-3300000Y-2770009D03*
%TO.N,GND*%
X-3300000Y-5540009D03*
%TO.N,DB3*%
X-3300000Y-8310009D03*
%TO.N,DB5*%
X-3300000Y-11080009D03*
%TO.N,DB6*%
X-3300000Y-13850009D03*
%TO.N,DB7*%
X-3300000Y-16620009D03*
%TO.N,GND*%
X-6140000Y15234991D03*
%TO.N,CD*%
X-6140000Y12464991D03*
%TO.N,GND*%
X-6140000Y9694991D03*
%TO.N,ATN*%
X-6140000Y6924991D03*
%TO.N,GND*%
X-6140000Y4154991D03*
%TO.N,SEL*%
X-6140000Y1384991D03*
%TO.N,DBP*%
X-6140000Y-1385009D03*
%TO.N,DB1*%
X-6140000Y-4155009D03*
%TO.N,DB2*%
X-6140000Y-6925009D03*
%TO.N,DB4*%
X-6140000Y-9695009D03*
%TO.N,GND*%
X-6140000Y-12465009D03*
%TO.N,+5V*%
X-6140000Y-15235009D03*
%TD*%
D21*
%TO.N,SEL*%
X15000000Y1111113D03*
%TO.N,REQ*%
X15000000Y18888889D03*
%TO.N,GND*%
X15000000Y-2222220D03*
%TO.N,RST*%
X15000000Y10000001D03*
%TO.N,ACK*%
X15000000Y5555557D03*
%TO.N,GND*%
X15000000Y-11111108D03*
%TO.N,BSY*%
X15000000Y3333335D03*
%TO.N,DB7*%
X15000000Y-16666663D03*
%TO.N,GND*%
X15000000Y2D03*
X15000000Y15555556D03*
%TO.N,MSG*%
X15000000Y16666667D03*
%TO.N,DB2*%
X15000000Y-7777775D03*
%TO.N,GND*%
X15000000Y-20000000D03*
%TO.N,DB3*%
X15000000Y-9999997D03*
%TO.N,GND*%
X15000000Y8888890D03*
X15000000Y11111112D03*
X15000000Y-4444442D03*
%TO.N,DBP*%
X15000000Y-1111109D03*
%TO.N,GND*%
X15000000Y-6666664D03*
X15000000Y7777779D03*
%TO.N,IO*%
X15000000Y12222223D03*
%TO.N,GND*%
X15000000Y-14444441D03*
X15000000Y13333334D03*
X15000000Y2222224D03*
%TO.N,DB1*%
X15000000Y-5555553D03*
%TO.N,GND*%
X15000000Y-15555552D03*
X15000000Y-18888885D03*
X15000000Y-13333330D03*
X15000000Y4444446D03*
X15000000Y6666668D03*
%TO.N,DB0*%
X15000000Y-3333331D03*
%TO.N,CD*%
X15000000Y14444445D03*
%TO.N,GND*%
X15000000Y17777778D03*
X15000000Y-8888886D03*
X15000000Y-17777774D03*
X15000000Y-12222219D03*
X15000000Y20000000D03*
%TO.N,MSG*%
X0Y16666667D03*
%TO.N,GND*%
X0Y11111112D03*
%TO.N,IO*%
X0Y12222223D03*
%TO.N,GND*%
X0Y-20000000D03*
X-9200000Y0D03*
X0Y-8888886D03*
%TO.N,ATN*%
X0Y7777779D03*
%TO.N,DBP*%
X0Y-1111109D03*
%TO.N,DB2*%
X0Y-7777775D03*
%TO.N,DB3*%
X0Y-9999997D03*
%TO.N,DB4*%
X0Y-12222219D03*
%TO.N,DB7*%
X0Y-18888885D03*
%TO.N,GND*%
X0Y20000000D03*
X0Y-17777774D03*
X0Y17777778D03*
%TO.N,CD*%
X0Y14444445D03*
%TO.N,DB0*%
X0Y-3333331D03*
%TO.N,GND*%
X0Y6666668D03*
X0Y-2222220D03*
X0Y2222224D03*
X-50000Y13333334D03*
X0Y15555556D03*
%TO.N,DB5*%
X0Y-14444441D03*
%TO.N,GND*%
X0Y-6666664D03*
X0Y-4444442D03*
X0Y-15555552D03*
X0Y-13333330D03*
%TO.N,DB1*%
X0Y-5555553D03*
%TO.N,GND*%
X0Y4444446D03*
X0Y-11111108D03*
X0Y8888890D03*
X0Y2D03*
%TO.N,DB6*%
X0Y-16666663D03*
%TO.N,REQ*%
X0Y18888889D03*
%TO.N,BSY*%
X0Y3333335D03*
%TO.N,ACK*%
X0Y5555557D03*
%TO.N,RST*%
X0Y10000001D03*
%TO.N,SEL*%
X0Y1111113D03*
%TD*%
M02*
