%TF.GenerationSoftware,KiCad,Pcbnew,8.0.2*%
%TF.CreationDate,2024-11-30T10:22:52-06:00*%
%TF.ProjectId,Desktop_50_Pin_TopConn,4465736b-746f-4705-9f35-305f50696e5f,rev?*%
%TF.SameCoordinates,Original*%
%TF.FileFunction,Copper,L4,Bot*%
%TF.FilePolarity,Positive*%
%FSLAX46Y46*%
G04 Gerber Fmt 4.6, Leading zero omitted, Abs format (unit mm)*
G04 Created by KiCad (PCBNEW 8.0.2) date 2024-11-30 10:22:52*
%MOMM*%
%LPD*%
G01*
G04 APERTURE LIST*
G04 Aperture macros list*
%AMHorizOval*
0 Thick line with rounded ends*
0 $1 width*
0 $2 $3 position (X,Y) of the first rounded end (center of the circle)*
0 $4 $5 position (X,Y) of the second rounded end (center of the circle)*
0 Add line between two ends*
20,1,$1,$2,$3,$4,$5,0*
0 Add two circle primitives to create the rounded ends*
1,1,$1,$2,$3*
1,1,$1,$4,$5*%
%AMRotRect*
0 Rectangle, with rotation*
0 The origin of the aperture is its center*
0 $1 length*
0 $2 width*
0 $3 Rotation angle, in degrees counterclockwise*
0 Add horizontal line*
21,1,$1,$2,0,0,$3*%
%AMFreePoly0*
4,1,19,0.500000,-0.750000,0.000000,-0.750000,0.000000,-0.744911,-0.071157,-0.744911,-0.207708,-0.704816,-0.327430,-0.627875,-0.420627,-0.520320,-0.479746,-0.390866,-0.500000,-0.250000,-0.500000,0.250000,-0.479746,0.390866,-0.420627,0.520320,-0.327430,0.627875,-0.207708,0.704816,-0.071157,0.744911,0.000000,0.744911,0.000000,0.750000,0.500000,0.750000,0.500000,-0.750000,0.500000,-0.750000,
$1*%
%AMFreePoly1*
4,1,19,0.000000,0.744911,0.071157,0.744911,0.207708,0.704816,0.327430,0.627875,0.420627,0.520320,0.479746,0.390866,0.500000,0.250000,0.500000,-0.250000,0.479746,-0.390866,0.420627,-0.520320,0.327430,-0.627875,0.207708,-0.704816,0.071157,-0.744911,0.000000,-0.744911,0.000000,-0.750000,-0.500000,-0.750000,-0.500000,0.750000,0.000000,0.750000,0.000000,0.744911,0.000000,0.744911,
$1*%
%AMFreePoly2*
4,1,19,0.550000,-0.750000,0.000000,-0.750000,0.000000,-0.744911,-0.071157,-0.744911,-0.207708,-0.704816,-0.327430,-0.627875,-0.420627,-0.520320,-0.479746,-0.390866,-0.500000,-0.250000,-0.500000,0.250000,-0.479746,0.390866,-0.420627,0.520320,-0.327430,0.627875,-0.207708,0.704816,-0.071157,0.744911,0.000000,0.744911,0.000000,0.750000,0.550000,0.750000,0.550000,-0.750000,0.550000,-0.750000,
$1*%
%AMFreePoly3*
4,1,19,0.000000,0.744911,0.071157,0.744911,0.207708,0.704816,0.327430,0.627875,0.420627,0.520320,0.479746,0.390866,0.500000,0.250000,0.500000,-0.250000,0.479746,-0.390866,0.420627,-0.520320,0.327430,-0.627875,0.207708,-0.704816,0.071157,-0.744911,0.000000,-0.744911,0.000000,-0.750000,-0.550000,-0.750000,-0.550000,0.750000,0.000000,0.750000,0.000000,0.744911,0.000000,0.744911,
$1*%
G04 Aperture macros list end*
%TA.AperFunction,SMDPad,CuDef*%
%ADD10R,3.480000X1.846667*%
%TD*%
%TA.AperFunction,ComponentPad*%
%ADD11O,2.100000X1.000000*%
%TD*%
%TA.AperFunction,ComponentPad*%
%ADD12O,1.800000X1.000000*%
%TD*%
%TA.AperFunction,ComponentPad*%
%ADD13RotRect,1.700000X1.700000X45.000000*%
%TD*%
%TA.AperFunction,ComponentPad*%
%ADD14HorizOval,1.700000X0.000000X0.000000X0.000000X0.000000X0*%
%TD*%
%TA.AperFunction,ComponentPad*%
%ADD15RotRect,1.700000X1.700000X135.000000*%
%TD*%
%TA.AperFunction,ComponentPad*%
%ADD16HorizOval,1.700000X0.000000X0.000000X0.000000X0.000000X0*%
%TD*%
%TA.AperFunction,ComponentPad*%
%ADD17C,1.700000*%
%TD*%
%TA.AperFunction,ComponentPad*%
%ADD18C,1.524000*%
%TD*%
%TA.AperFunction,SMDPad,CuDef*%
%ADD19R,0.850000X1.100000*%
%TD*%
%TA.AperFunction,SMDPad,CuDef*%
%ADD20R,0.750000X1.100000*%
%TD*%
%TA.AperFunction,SMDPad,CuDef*%
%ADD21R,1.200000X1.000000*%
%TD*%
%TA.AperFunction,SMDPad,CuDef*%
%ADD22R,1.550000X1.350000*%
%TD*%
%TA.AperFunction,SMDPad,CuDef*%
%ADD23R,1.900000X1.350000*%
%TD*%
%TA.AperFunction,SMDPad,CuDef*%
%ADD24R,1.170000X1.800000*%
%TD*%
%TA.AperFunction,SMDPad,CuDef*%
%ADD25FreePoly0,90.000000*%
%TD*%
%TA.AperFunction,SMDPad,CuDef*%
%ADD26FreePoly1,90.000000*%
%TD*%
%TA.AperFunction,SMDPad,CuDef*%
%ADD27FreePoly0,180.000000*%
%TD*%
%TA.AperFunction,SMDPad,CuDef*%
%ADD28FreePoly1,180.000000*%
%TD*%
%TA.AperFunction,SMDPad,CuDef*%
%ADD29R,0.750000X1.000000*%
%TD*%
%TA.AperFunction,SMDPad,CuDef*%
%ADD30FreePoly2,180.000000*%
%TD*%
%TA.AperFunction,SMDPad,CuDef*%
%ADD31R,1.000000X1.500000*%
%TD*%
%TA.AperFunction,SMDPad,CuDef*%
%ADD32FreePoly3,180.000000*%
%TD*%
%TA.AperFunction,SMDPad,CuDef*%
%ADD33FreePoly2,0.000000*%
%TD*%
%TA.AperFunction,SMDPad,CuDef*%
%ADD34FreePoly3,0.000000*%
%TD*%
%TA.AperFunction,SMDPad,CuDef*%
%ADD35C,1.000000*%
%TD*%
%TA.AperFunction,ViaPad*%
%ADD36C,0.800000*%
%TD*%
%TA.AperFunction,ViaPad*%
%ADD37C,0.400000*%
%TD*%
%TA.AperFunction,Conductor*%
%ADD38C,0.200000*%
%TD*%
G04 APERTURE END LIST*
D10*
%TO.P,J3,14,P14*%
%TO.N,GND*%
X2000000Y15235000D03*
%TO.P,J3,15,P15*%
%TO.N,CD*%
X2000000Y12465000D03*
%TO.P,J3,16,P16*%
%TO.N,GND*%
X2000000Y9695000D03*
%TO.P,J3,17,P17*%
%TO.N,ATN*%
X2000000Y6925000D03*
%TO.P,J3,18,P18*%
%TO.N,GND*%
X2000000Y4155000D03*
%TO.P,J3,19,P19*%
%TO.N,SEL*%
X2000000Y1385000D03*
%TO.P,J3,20,P20*%
%TO.N,DBP*%
X2000000Y-1385000D03*
%TO.P,J3,21,P21*%
%TO.N,DB1*%
X2000000Y-4155000D03*
%TO.P,J3,22,P22*%
%TO.N,DB2*%
X2000000Y-6925000D03*
%TO.P,J3,23,P23*%
%TO.N,DB4*%
X2000000Y-9695000D03*
%TO.P,J3,24,P24*%
%TO.N,GND*%
X2000000Y-12465000D03*
%TO.P,J3,25,P25*%
%TO.N,+5V*%
X2000000Y-15235000D03*
%TD*%
D11*
%TO.P,J12,S1,SHIELD*%
%TO.N,GND*%
X57075000Y-1320000D03*
D12*
X61275000Y-1320000D03*
D11*
X57075000Y7320000D03*
D12*
X61275000Y7320000D03*
%TD*%
D13*
%TO.P,J5,1,Pin_1*%
%TO.N,GND*%
X54803949Y21696051D03*
D14*
%TO.P,J5,2,Pin_2*%
%TO.N,Net-(J5-Pin_2)*%
X56600000Y19900000D03*
%TO.P,J5,3,Pin_3*%
%TO.N,GND*%
X58396051Y18103949D03*
%TD*%
D15*
%TO.P,J14,1,Pin_1*%
%TO.N,/Pico/SWCLK*%
X50928949Y-14396051D03*
D16*
%TO.P,J14,2,Pin_2*%
%TO.N,GND*%
X52725000Y-12600000D03*
%TO.P,J14,3,Pin_3*%
%TO.N,/Pico/SWDIO*%
X54521051Y-10803949D03*
%TD*%
D17*
%TO.P,J10,1,5V*%
%TO.N,Net-(D4-A)*%
X58903500Y-4905400D03*
%TO.P,J10,2,GND*%
%TO.N,GND*%
X58903500Y-7405400D03*
D18*
%TO.P,J10,3,GND*%
X58903500Y-9905400D03*
%TO.P,J10,4,12V*%
%TO.N,unconnected-(J10-12V-Pad4)*%
X58903500Y-12405400D03*
%TD*%
D19*
%TO.P,SD1,1,DAT2*%
%TO.N,SD_D2*%
X47650000Y-35075000D03*
%TO.P,SD1,2,DAT3/CD*%
%TO.N,SD_D3_CS*%
X46550000Y-35075000D03*
%TO.P,SD1,3,CMD*%
%TO.N,SD_CMD_MOSI*%
X45450000Y-35075000D03*
%TO.P,SD1,4,VDD*%
%TO.N,+3V3*%
X44350000Y-35075000D03*
%TO.P,SD1,5,CLK*%
%TO.N,SD_CLK*%
X43250000Y-35075000D03*
%TO.P,SD1,6,VSS*%
%TO.N,GND*%
X42150000Y-35075000D03*
%TO.P,SD1,7,DAT0*%
%TO.N,SD_D0_MISO*%
X41050000Y-35075000D03*
D20*
%TO.P,SD1,8,DAT1*%
%TO.N,SD_D1*%
X40000000Y-35075000D03*
D21*
%TO.P,SD1,9,DET_B*%
%TO.N,unconnected-(SD1-DET_B-Pad9)*%
X50285000Y-41225000D03*
%TO.P,SD1,10,DET_A*%
%TO.N,unconnected-(SD1-DET_A-Pad10)*%
X50285000Y-44925000D03*
D22*
%TO.P,SD1,11,SHIELD*%
%TO.N,GND*%
X50110000Y-35200000D03*
D23*
X46785000Y-45900000D03*
X40815000Y-45900000D03*
D24*
X38790000Y-35425000D03*
%TD*%
D25*
%TO.P,J1,1,Pin_1*%
%TO.N,ACK*%
X44150000Y7800000D03*
D26*
%TO.P,J1,2,Pin_2*%
%TO.N,ACKDr*%
X44150000Y9100000D03*
%TD*%
D27*
%TO.P,JP2,1,A*%
%TO.N,Net-(JP2-A)*%
X48400000Y20500000D03*
D28*
%TO.P,JP2,2,B*%
%TO.N,Net-(JP1-A)*%
X47100000Y20500000D03*
%TD*%
D29*
%TO.P,SW2,1,1*%
%TO.N,GND*%
X35160000Y19038748D03*
X35160000Y25038748D03*
%TO.P,SW2,2,2*%
%TO.N,Net-(R58-Pad2)*%
X31410000Y19038748D03*
X31410000Y25038748D03*
%TD*%
%TO.P,SW3,1,1*%
%TO.N,GND*%
X35160000Y19038748D03*
X35160000Y25038748D03*
%TO.P,SW3,2,2*%
%TO.N,/Pico/RUN*%
X31410000Y19038748D03*
X31410000Y25038748D03*
%TD*%
D30*
%TO.P,J13,1,Pin_1*%
%TO.N,Net-(J13-Pin_1)*%
X40650000Y3150000D03*
D31*
%TO.P,J13,2,Pin_2*%
%TO.N,oCD_iSEL*%
X39350000Y3150000D03*
D32*
%TO.P,J13,3,Pin_3*%
%TO.N,Net-(J13-Pin_3)*%
X38050000Y3150000D03*
%TD*%
D25*
%TO.P,J8,1,Pin_1*%
%TO.N,Net-(D3-K)*%
X55100000Y17400000D03*
D26*
%TO.P,J8,2,Pin_2*%
%TO.N,+5VP*%
X55100000Y18700000D03*
%TD*%
D25*
%TO.P,J7,1,Pin_1*%
%TO.N,+5V*%
X52800000Y17500000D03*
D26*
%TO.P,J7,2,Pin_2*%
%TO.N,Net-(J7-Pin_2)*%
X52800000Y18800000D03*
%TD*%
D29*
%TO.P,SW1,1,1*%
%TO.N,GND*%
X39125000Y26250000D03*
X39125000Y20250000D03*
%TO.P,SW1,2,2*%
%TO.N,RST*%
X42875000Y26250000D03*
X42875000Y20250000D03*
%TD*%
D33*
%TO.P,J6,1,Pin_1*%
%TO.N,unconnected-(J6-Pin_1-Pad1)*%
X22900000Y-25350000D03*
D31*
%TO.P,J6,2,Pin_2*%
%TO.N,TRM_ON_J*%
X24200000Y-25350000D03*
D34*
%TO.P,J6,3,Pin_3*%
%TO.N,GND*%
X25500000Y-25350000D03*
%TD*%
D35*
%TO.P,TP1,1,1*%
%TO.N,/Pico/RUN*%
X47325000Y-10200000D03*
%TD*%
D36*
%TO.N,GND*%
X7000000Y17000000D03*
X7000000Y-9000000D03*
X7000000Y-1000000D03*
X25000000Y-17075000D03*
X25000000Y925000D03*
X25000000Y-1075000D03*
X25000000Y18925000D03*
X7000000Y11000000D03*
X25000000Y2925000D03*
D37*
X12250000Y3075000D03*
D36*
X7000000Y-13000000D03*
X7000000Y5000000D03*
X25000000Y-5075000D03*
X25000000Y-15075000D03*
X25000000Y14925000D03*
D37*
X14100000Y3075000D03*
D36*
X25000000Y8925000D03*
X25000000Y6925000D03*
X25000000Y4925000D03*
X25000000Y-11075000D03*
X7000000Y-3000000D03*
X7000000Y9000000D03*
X25000000Y-3075000D03*
X7000000Y-19000000D03*
X7014889Y-14795000D03*
X7000000Y7000000D03*
X7000000Y-17000000D03*
X25000000Y16925000D03*
X25000000Y12925000D03*
D37*
X17250000Y3050000D03*
D36*
X7000000Y-7000000D03*
X7000000Y19000000D03*
X25000000Y-13075000D03*
X25000000Y10925000D03*
X7000000Y-5000000D03*
X25000000Y-9075000D03*
X7000000Y13000000D03*
X25000000Y-7075000D03*
X25000000Y-19075000D03*
X7000000Y1000000D03*
X7000000Y-11000000D03*
X7000000Y15000000D03*
X7000000Y3000000D03*
D37*
%TO.N,+2V8*%
X20350000Y-16425000D03*
X12975000Y1025000D03*
X11675000Y-16050000D03*
X8750000Y-12450000D03*
X21700000Y-10875000D03*
X16100000Y13125000D03*
X17275000Y-1000000D03*
X26700000Y10400000D03*
X26125000Y18000000D03*
X12325000Y16775000D03*
X18674002Y-12450000D03*
X9125000Y-16050000D03*
X14300000Y-16050000D03*
X10700000Y1000000D03*
X34900000Y18100000D03*
X35975000Y10700000D03*
X9725000Y16700000D03*
X14950000Y16800000D03*
D36*
%TO.N,+5V*%
X5000000Y-16000000D03*
X23800000Y-16000000D03*
D37*
%TO.N,ATN*%
X8225000Y8000000D03*
X26450000Y7400000D03*
D36*
X5000000Y8000000D03*
X23800000Y8000000D03*
D37*
%TO.N,BSY*%
X12807046Y3853991D03*
D36*
X23800000Y4000000D03*
D37*
X29580000Y4000000D03*
X34650000Y3990000D03*
D36*
X5000000Y4000000D03*
D37*
%TO.N,DBP*%
X17825000Y0D03*
X19875000Y0D03*
D36*
X23800000Y0D03*
X5000000Y0D03*
%TO.N,ACK*%
X5000000Y6000000D03*
D37*
X10075000Y6000000D03*
D36*
X23800000Y6000000D03*
D37*
%TO.N,RST*%
X11900000Y10000000D03*
D36*
X5000000Y10000000D03*
D37*
X20700000Y10000000D03*
D36*
X23800000Y10000000D03*
%TO.N,MSG*%
X23800000Y16000000D03*
X5000000Y16000000D03*
D37*
X20650000Y15700000D03*
X19575000Y15700000D03*
%TO.N,SEL*%
X11475000Y2000000D03*
D36*
X5000000Y2000000D03*
X23800000Y2000000D03*
D37*
X11481740Y8509571D03*
%TO.N,CD*%
X20175000Y14000000D03*
D36*
X23800000Y14000000D03*
X5000000Y14000000D03*
%TO.N,REQ*%
X23800000Y18000000D03*
X5000000Y18000000D03*
D37*
X20550000Y18825000D03*
D36*
%TO.N,IO*%
X23800000Y12000000D03*
X5000000Y12000000D03*
D37*
X19900000Y12000000D03*
%TO.N,DB7*%
X7875000Y-18000000D03*
D36*
X23800000Y-18000000D03*
X5000000Y-18000000D03*
D37*
%TO.N,DB6*%
X21050000Y-14000000D03*
D36*
X23800000Y-14000000D03*
D37*
X7800000Y-14000000D03*
D36*
X5000000Y-14000000D03*
%TO.N,DB5*%
X5000000Y-12000000D03*
X23800000Y-12000000D03*
D37*
%TO.N,DB4*%
X12250000Y-10000000D03*
X19400000Y-10000000D03*
D36*
X5000000Y-10000000D03*
X23800000Y-10000000D03*
D37*
%TO.N,DB3*%
X13345112Y-8486883D03*
D36*
X23800000Y-8000000D03*
X5000000Y-8000000D03*
%TO.N,DB2*%
X5000000Y-6000000D03*
X23800000Y-6000000D03*
D37*
X13625000Y-6000000D03*
%TO.N,DB1*%
X14750000Y-3525000D03*
D36*
X23800000Y-4000000D03*
X5000000Y-4000000D03*
%TO.N,DB0*%
X5000000Y-2000000D03*
X23800000Y-2000000D03*
D37*
X17325000Y-2000000D03*
%TD*%
D38*
%TO.N,GND*%
X2000000Y-12465000D02*
X2535000Y-13000000D01*
X24720000Y-14795000D02*
X25000000Y-15075000D01*
X25000000Y-17075000D02*
X20125610Y-17075000D01*
X2000000Y15235000D02*
X3415000Y16650000D01*
X24925000Y-13000000D02*
X25000000Y-13075000D01*
X2995000Y5150000D02*
X6850000Y5150000D01*
X20125610Y-17075000D02*
X19100610Y-16050000D01*
X7014889Y-14795000D02*
X24720000Y-14795000D01*
X2000000Y4155000D02*
X2995000Y5150000D01*
X25000000Y16925000D02*
X20022182Y16925000D01*
X6650000Y16650000D02*
X7000000Y17000000D01*
X2535000Y-13000000D02*
X7000000Y-13000000D01*
X7000000Y-9000000D02*
X24925000Y-9000000D01*
X3415000Y16650000D02*
X6650000Y16650000D01*
X7950000Y16050000D02*
X7000000Y17000000D01*
X6850000Y5150000D02*
X7000000Y5000000D01*
X24925000Y-9000000D02*
X25000000Y-9075000D01*
X2955000Y10650000D02*
X6650000Y10650000D01*
X17450000Y-16050000D02*
X16500000Y-17000000D01*
X16500000Y-17000000D02*
X7000000Y-17000000D01*
X7000000Y-13000000D02*
X24925000Y-13000000D01*
X19147182Y16050000D02*
X7950000Y16050000D01*
X20022182Y16925000D02*
X19147182Y16050000D01*
X2000000Y9695000D02*
X2955000Y10650000D01*
X6650000Y10650000D02*
X7000000Y11000000D01*
X19100610Y-16050000D02*
X17450000Y-16050000D01*
%TO.N,+5V*%
X5455000Y-15545000D02*
X23345000Y-15545000D01*
X5000000Y-16000000D02*
X5455000Y-15545000D01*
X4235000Y-15235000D02*
X5000000Y-16000000D01*
X2000000Y-15235000D02*
X4235000Y-15235000D01*
X23345000Y-15545000D02*
X23800000Y-16000000D01*
%TO.N,ATN*%
X25850000Y8000000D02*
X26450000Y7400000D01*
X23800000Y8000000D02*
X25850000Y8000000D01*
X3075000Y8000000D02*
X5000000Y8000000D01*
X5000000Y8000000D02*
X8225000Y8000000D01*
X8225000Y8000000D02*
X23800000Y8000000D01*
X2000000Y6925000D02*
X3075000Y8000000D01*
%TO.N,BSY*%
X29590000Y3990000D02*
X29580000Y4000000D01*
X29580000Y4000000D02*
X23800000Y4000000D01*
X34650000Y3990000D02*
X29590000Y3990000D01*
X5000000Y4000000D02*
X23800000Y4000000D01*
%TO.N,DBP*%
X19875000Y0D02*
X23800000Y0D01*
X5000000Y0D02*
X17825000Y0D01*
X17825000Y0D02*
X19875000Y0D01*
X2000000Y-1385000D02*
X3615000Y-1385000D01*
X3615000Y-1385000D02*
X5000000Y0D01*
%TO.N,ACK*%
X5000000Y6000000D02*
X10075000Y6000000D01*
X10075000Y6000000D02*
X23800000Y6000000D01*
%TO.N,RST*%
X11900000Y10000000D02*
X23800000Y10000000D01*
X5000000Y10000000D02*
X11900000Y10000000D01*
%TO.N,MSG*%
X5000000Y16000000D02*
X5300000Y15700000D01*
X5300000Y15700000D02*
X19575000Y15700000D01*
X23500000Y15700000D02*
X23800000Y16000000D01*
X19575000Y15700000D02*
X23500000Y15700000D01*
%TO.N,SEL*%
X4385000Y1385000D02*
X5000000Y2000000D01*
X5000000Y2000000D02*
X23800000Y2000000D01*
X2000000Y1385000D02*
X4385000Y1385000D01*
%TO.N,CD*%
X19975000Y14000000D02*
X20175000Y14000000D01*
X3465000Y12465000D02*
X5000000Y14000000D01*
X5000000Y14000000D02*
X19925000Y14000000D01*
X2000000Y12465000D02*
X3465000Y12465000D01*
X19950000Y14025000D02*
X19975000Y14000000D01*
X19925000Y14000000D02*
X19950000Y14025000D01*
X23800000Y14000000D02*
X20175000Y14000000D01*
%TO.N,REQ*%
X19825000Y19550000D02*
X20550000Y18825000D01*
X15875000Y18125000D02*
X17300000Y19550000D01*
X5000000Y18000000D02*
X5125000Y18125000D01*
X20550000Y18825000D02*
X21375000Y18000000D01*
X17300000Y19550000D02*
X19825000Y19550000D01*
X21375000Y18000000D02*
X23800000Y18000000D01*
X5125000Y18125000D02*
X15875000Y18125000D01*
%TO.N,IO*%
X23800000Y12000000D02*
X19900000Y12000000D01*
X5000000Y12000000D02*
X19900000Y12000000D01*
%TO.N,DB7*%
X16500000Y-19375000D02*
X20025000Y-19375000D01*
X5000000Y-18000000D02*
X7875000Y-18000000D01*
X21400000Y-18000000D02*
X23800000Y-18000000D01*
X15125000Y-18000000D02*
X16500000Y-19375000D01*
X20025000Y-19375000D02*
X21400000Y-18000000D01*
X7875000Y-18000000D02*
X15125000Y-18000000D01*
%TO.N,DB6*%
X5000000Y-14000000D02*
X7800000Y-14000000D01*
X7800000Y-14000000D02*
X23800000Y-14000000D01*
%TO.N,DB5*%
X5000000Y-12000000D02*
X19775000Y-12000000D01*
X19775000Y-12000000D02*
X23800000Y-12000000D01*
%TO.N,DB4*%
X19400000Y-10000000D02*
X12250000Y-10000000D01*
X23800000Y-10000000D02*
X19400000Y-10000000D01*
X12250000Y-10000000D02*
X5000000Y-10000000D01*
X4695000Y-9695000D02*
X5000000Y-10000000D01*
X2000000Y-9695000D02*
X4695000Y-9695000D01*
%TO.N,DB3*%
X13725000Y-8000000D02*
X23800000Y-8000000D01*
X5000000Y-8000000D02*
X13725000Y-8000000D01*
X13725000Y-8106995D02*
X13725000Y-8000000D01*
X13345112Y-8486883D02*
X13725000Y-8106995D01*
%TO.N,DB2*%
X5000000Y-6000000D02*
X13625000Y-6000000D01*
X2000000Y-6925000D02*
X4075000Y-6925000D01*
X23800000Y-6000000D02*
X13625000Y-6000000D01*
X4075000Y-6925000D02*
X5000000Y-6000000D01*
%TO.N,DB1*%
X2000000Y-4155000D02*
X4845000Y-4155000D01*
X14775000Y-4000000D02*
X23800000Y-4000000D01*
X5000000Y-4000000D02*
X14775000Y-4000000D01*
X14750000Y-3525000D02*
X14750000Y-3975000D01*
X4845000Y-4155000D02*
X5000000Y-4000000D01*
X14750000Y-3975000D02*
X14775000Y-4000000D01*
%TO.N,DB0*%
X5000000Y-2000000D02*
X17325000Y-2000000D01*
X17325000Y-2000000D02*
X23800000Y-2000000D01*
%TD*%
%TA.AperFunction,Conductor*%
%TO.N,GND*%
G36*
X4232966Y-16516506D02*
G01*
X4266216Y-16542782D01*
X4388747Y-16678866D01*
X4543248Y-16791118D01*
X4717712Y-16868794D01*
X4755156Y-16876753D01*
X4817630Y-16910482D01*
X4851951Y-16972631D01*
X4847223Y-17043470D01*
X4804947Y-17100508D01*
X4755156Y-17123247D01*
X4717711Y-17131206D01*
X4543247Y-17208882D01*
X4388744Y-17321135D01*
X4260965Y-17463048D01*
X4260958Y-17463058D01*
X4165476Y-17628438D01*
X4165473Y-17628445D01*
X4106457Y-17810072D01*
X4086496Y-18000000D01*
X4106457Y-18189927D01*
X4112270Y-18207816D01*
X4165473Y-18371556D01*
X4165476Y-18371561D01*
X4260958Y-18536941D01*
X4260965Y-18536951D01*
X4388744Y-18678864D01*
X4449999Y-18723368D01*
X4543248Y-18791118D01*
X4717712Y-18868794D01*
X4904513Y-18908500D01*
X5095487Y-18908500D01*
X5282288Y-18868794D01*
X5456752Y-18791118D01*
X5611253Y-18678866D01*
X5621645Y-18667325D01*
X5637074Y-18650190D01*
X5697520Y-18612950D01*
X5730710Y-18608500D01*
X7478780Y-18608500D01*
X7537335Y-18622933D01*
X7547946Y-18628502D01*
X7621917Y-18667325D01*
X7621918Y-18667325D01*
X7621920Y-18667326D01*
X7725444Y-18692842D01*
X7788972Y-18708500D01*
X7788975Y-18708500D01*
X7961025Y-18708500D01*
X7961028Y-18708500D01*
X8128083Y-18667325D01*
X8202054Y-18628502D01*
X8212665Y-18622933D01*
X8271220Y-18608500D01*
X14820761Y-18608500D01*
X14888882Y-18628502D01*
X14909856Y-18645405D01*
X15998855Y-19734405D01*
X16032881Y-19796717D01*
X16027816Y-19867533D01*
X15985269Y-19924368D01*
X15918749Y-19949179D01*
X15909760Y-19949500D01*
X176500Y-19949500D01*
X108379Y-19929498D01*
X61886Y-19875842D01*
X50500Y-19823500D01*
X50500Y-16789812D01*
X70502Y-16721691D01*
X124158Y-16675198D01*
X189969Y-16664534D01*
X211362Y-16666834D01*
X211368Y-16666834D01*
X3788632Y-16666834D01*
X3788638Y-16666834D01*
X3788645Y-16666833D01*
X3788649Y-16666833D01*
X3849196Y-16660324D01*
X3849199Y-16660323D01*
X3849201Y-16660323D01*
X3986204Y-16609223D01*
X4097074Y-16526225D01*
X4163592Y-16501415D01*
X4232966Y-16516506D01*
G37*
%TD.AperFunction*%
%TA.AperFunction,Conductor*%
G36*
X30532131Y19929498D02*
G01*
X30578624Y19875842D01*
X30588728Y19805568D01*
X30582065Y19779467D01*
X30533011Y19647953D01*
X30533009Y19647945D01*
X30526500Y19587398D01*
X30526500Y18490099D01*
X30533009Y18429552D01*
X30533011Y18429544D01*
X30584110Y18292546D01*
X30584112Y18292541D01*
X30671738Y18175487D01*
X30788792Y18087861D01*
X30788794Y18087860D01*
X30788796Y18087859D01*
X30847875Y18065824D01*
X30925795Y18036760D01*
X30925803Y18036758D01*
X30986350Y18030249D01*
X30986355Y18030249D01*
X30986362Y18030248D01*
X30986368Y18030248D01*
X31833632Y18030248D01*
X31833638Y18030248D01*
X31833645Y18030249D01*
X31833649Y18030249D01*
X31894196Y18036758D01*
X31894199Y18036759D01*
X31894201Y18036759D01*
X32031204Y18087859D01*
X32031799Y18088304D01*
X32047428Y18100004D01*
X34186296Y18100004D01*
X34186296Y18099997D01*
X34207034Y17929201D01*
X34252214Y17810072D01*
X34268046Y17768325D01*
X34365785Y17626727D01*
X34494570Y17512633D01*
X34494571Y17512633D01*
X34494573Y17512631D01*
X34544122Y17486626D01*
X34646917Y17432675D01*
X34646918Y17432675D01*
X34646920Y17432674D01*
X34804977Y17393717D01*
X34813972Y17391500D01*
X34813975Y17391500D01*
X34986025Y17391500D01*
X34986028Y17391500D01*
X35153083Y17432675D01*
X35305430Y17512633D01*
X35411143Y17606287D01*
X46149500Y17606287D01*
X46149500Y17393713D01*
X46182754Y17183757D01*
X46248443Y16981588D01*
X46344949Y16792184D01*
X46469896Y16620208D01*
X46469898Y16620206D01*
X46469900Y16620203D01*
X46620202Y16469901D01*
X46620205Y16469899D01*
X46620208Y16469896D01*
X46792184Y16344949D01*
X46981588Y16248443D01*
X47183757Y16182754D01*
X47393713Y16149500D01*
X47393716Y16149500D01*
X47606284Y16149500D01*
X47606287Y16149500D01*
X47816243Y16182754D01*
X48018412Y16248443D01*
X48207816Y16344949D01*
X48379792Y16469896D01*
X48530104Y16620208D01*
X48655051Y16792184D01*
X48751557Y16981588D01*
X48817246Y17183757D01*
X48850500Y17393713D01*
X48850500Y17606287D01*
X48817246Y17816243D01*
X48751557Y18018412D01*
X48655051Y18207816D01*
X48530104Y18379792D01*
X48530101Y18379795D01*
X48530099Y18379798D01*
X48379797Y18530100D01*
X48379794Y18530102D01*
X48379792Y18530104D01*
X48207816Y18655051D01*
X48018412Y18751557D01*
X47816243Y18817246D01*
X47606287Y18850500D01*
X47393713Y18850500D01*
X47183757Y18817246D01*
X47183754Y18817246D01*
X47183753Y18817245D01*
X46981588Y18751557D01*
X46981586Y18751556D01*
X46792180Y18655049D01*
X46620205Y18530102D01*
X46620202Y18530100D01*
X46469900Y18379798D01*
X46469898Y18379795D01*
X46344951Y18207820D01*
X46248444Y18018414D01*
X46248443Y18018412D01*
X46186964Y17829199D01*
X46182754Y17816243D01*
X46149500Y17606287D01*
X35411143Y17606287D01*
X35434215Y17626727D01*
X35531954Y17768325D01*
X35592965Y17929199D01*
X35595043Y17946321D01*
X35623109Y18011532D01*
X35676093Y18049189D01*
X35780965Y18088304D01*
X35897904Y18175844D01*
X35985444Y18292783D01*
X35985444Y18292784D01*
X36036494Y18429655D01*
X36042999Y18490151D01*
X36043000Y18490163D01*
X36043000Y18784748D01*
X35097695Y18784748D01*
X35067541Y18788409D01*
X34986029Y18808500D01*
X34986028Y18808500D01*
X34813972Y18808500D01*
X34813970Y18808500D01*
X34732459Y18788409D01*
X34702305Y18784748D01*
X34277000Y18784748D01*
X34277000Y18490164D01*
X34277181Y18486785D01*
X34275902Y18486717D01*
X34269233Y18434806D01*
X34207034Y18270800D01*
X34186296Y18100004D01*
X32047428Y18100004D01*
X32148261Y18175487D01*
X32235887Y18292541D01*
X32235887Y18292542D01*
X32235889Y18292544D01*
X32286989Y18429547D01*
X32287555Y18434806D01*
X32293499Y18490099D01*
X32293500Y18490116D01*
X32293500Y19587381D01*
X32293499Y19587398D01*
X32286990Y19647945D01*
X32286988Y19647953D01*
X32237935Y19779467D01*
X32232869Y19850283D01*
X32266894Y19912595D01*
X32329206Y19946620D01*
X32355990Y19949500D01*
X34214543Y19949500D01*
X34282664Y19929498D01*
X34329157Y19875842D01*
X34339261Y19805568D01*
X34332599Y19779468D01*
X34283505Y19647843D01*
X34277000Y19587346D01*
X34277000Y19292748D01*
X34906000Y19292748D01*
X34906000Y19823500D01*
X34926002Y19891621D01*
X34979658Y19938114D01*
X35032000Y19949500D01*
X35288000Y19949500D01*
X35356121Y19929498D01*
X35402614Y19875842D01*
X35414000Y19823500D01*
X35414000Y19292748D01*
X36043000Y19292748D01*
X36043000Y19587334D01*
X36042999Y19587346D01*
X36036494Y19647843D01*
X35987401Y19779468D01*
X35982337Y19850284D01*
X36016362Y19912596D01*
X36078674Y19946621D01*
X36105457Y19949500D01*
X38116000Y19949500D01*
X38184121Y19929498D01*
X38230614Y19875842D01*
X38242000Y19823500D01*
X38242000Y19701403D01*
X38248505Y19640907D01*
X38299555Y19504036D01*
X38299555Y19504035D01*
X38387095Y19387096D01*
X38504034Y19299556D01*
X38640906Y19248506D01*
X38701402Y19242001D01*
X38701415Y19242000D01*
X38871000Y19242000D01*
X38871000Y19823500D01*
X38891002Y19891621D01*
X38944658Y19938114D01*
X38997000Y19949500D01*
X39253000Y19949500D01*
X39321121Y19929498D01*
X39367614Y19875842D01*
X39379000Y19823500D01*
X39379000Y19242000D01*
X39548585Y19242000D01*
X39548597Y19242001D01*
X39609093Y19248506D01*
X39745964Y19299556D01*
X39745965Y19299556D01*
X39862904Y19387096D01*
X39950444Y19504035D01*
X39950444Y19504036D01*
X40001494Y19640907D01*
X40007999Y19701403D01*
X40008000Y19701415D01*
X40008000Y19823500D01*
X40028002Y19891621D01*
X40081658Y19938114D01*
X40134000Y19949500D01*
X41865500Y19949500D01*
X41933621Y19929498D01*
X41980114Y19875842D01*
X41991500Y19823500D01*
X41991500Y19701351D01*
X41998009Y19640804D01*
X41998011Y19640796D01*
X42049110Y19503798D01*
X42049112Y19503793D01*
X42136738Y19386739D01*
X42253792Y19299113D01*
X42253794Y19299112D01*
X42253796Y19299111D01*
X42270856Y19292748D01*
X42390795Y19248012D01*
X42390803Y19248010D01*
X42451350Y19241501D01*
X42451355Y19241501D01*
X42451362Y19241500D01*
X42451368Y19241500D01*
X43298632Y19241500D01*
X43298638Y19241500D01*
X43298645Y19241501D01*
X43298649Y19241501D01*
X43359196Y19248010D01*
X43359199Y19248011D01*
X43359201Y19248011D01*
X43496204Y19299111D01*
X43496799Y19299556D01*
X43613261Y19386739D01*
X43700887Y19503793D01*
X43700887Y19503794D01*
X43700889Y19503796D01*
X43751989Y19640799D01*
X43752747Y19647843D01*
X43758499Y19701351D01*
X43758500Y19701368D01*
X43758500Y19823500D01*
X43778502Y19891621D01*
X43832158Y19938114D01*
X43884500Y19949500D01*
X46042072Y19949500D01*
X46110193Y19929498D01*
X46156685Y19875843D01*
X46207950Y19763588D01*
X46207953Y19763583D01*
X46286968Y19640632D01*
X46286970Y19640630D01*
X46378213Y19535328D01*
X46379630Y19533571D01*
X46381125Y19531967D01*
X46491584Y19436255D01*
X46612538Y19358523D01*
X46745487Y19297807D01*
X46883442Y19257300D01*
X47028111Y19236500D01*
X47028115Y19236500D01*
X47599994Y19236500D01*
X47600000Y19236500D01*
X47673079Y19241727D01*
X47709416Y19252398D01*
X47762849Y19256219D01*
X47900000Y19236500D01*
X48471885Y19236500D01*
X48471889Y19236500D01*
X48616558Y19257300D01*
X48754513Y19297807D01*
X48887462Y19358523D01*
X49002725Y19432598D01*
X49004172Y19433421D01*
X49008376Y19436230D01*
X49008416Y19436255D01*
X49008420Y19436257D01*
X49118878Y19531971D01*
X49213032Y19640632D01*
X49292047Y19763583D01*
X49339519Y19867532D01*
X49343315Y19875843D01*
X49389808Y19929498D01*
X49457928Y19949500D01*
X49823500Y19949500D01*
X49891621Y19929498D01*
X49938114Y19875842D01*
X49949500Y19823500D01*
X49949500Y-13402099D01*
X49929498Y-13470220D01*
X49912595Y-13491194D01*
X49332925Y-14070863D01*
X49332908Y-14070882D01*
X49294691Y-14118307D01*
X49256258Y-14202465D01*
X49233948Y-14251317D01*
X49213139Y-14396051D01*
X49233948Y-14540785D01*
X49294691Y-14673794D01*
X49332911Y-14721223D01*
X49912596Y-15300908D01*
X49946620Y-15363219D01*
X49949500Y-15390002D01*
X49949500Y-19823500D01*
X49929498Y-19891621D01*
X49875842Y-19938114D01*
X49823500Y-19949500D01*
X20615240Y-19949500D01*
X20547119Y-19929498D01*
X20500626Y-19875842D01*
X20490522Y-19805568D01*
X20520016Y-19740988D01*
X20526145Y-19734405D01*
X21615144Y-18645405D01*
X21677456Y-18611380D01*
X21704239Y-18608500D01*
X23069290Y-18608500D01*
X23137411Y-18628502D01*
X23162926Y-18650190D01*
X23188744Y-18678864D01*
X23249999Y-18723368D01*
X23343248Y-18791118D01*
X23517712Y-18868794D01*
X23704513Y-18908500D01*
X23895487Y-18908500D01*
X24082288Y-18868794D01*
X24256752Y-18791118D01*
X24411253Y-18678866D01*
X24437073Y-18650190D01*
X24539034Y-18536951D01*
X24539035Y-18536949D01*
X24539040Y-18536944D01*
X24634527Y-18371556D01*
X24693542Y-18189928D01*
X24713504Y-18000000D01*
X24693542Y-17810072D01*
X24634527Y-17628444D01*
X24539040Y-17463056D01*
X24539038Y-17463054D01*
X24539034Y-17463048D01*
X24476605Y-17393713D01*
X46149500Y-17393713D01*
X46149500Y-17606287D01*
X46182754Y-17816243D01*
X46248443Y-18018412D01*
X46344949Y-18207816D01*
X46469896Y-18379792D01*
X46469898Y-18379794D01*
X46469900Y-18379797D01*
X46620202Y-18530099D01*
X46620205Y-18530101D01*
X46620208Y-18530104D01*
X46792184Y-18655051D01*
X46981588Y-18751557D01*
X47183757Y-18817246D01*
X47393713Y-18850500D01*
X47393716Y-18850500D01*
X47606284Y-18850500D01*
X47606287Y-18850500D01*
X47816243Y-18817246D01*
X48018412Y-18751557D01*
X48207816Y-18655051D01*
X48379792Y-18530104D01*
X48530104Y-18379792D01*
X48655051Y-18207816D01*
X48751557Y-18018412D01*
X48817246Y-17816243D01*
X48850500Y-17606287D01*
X48850500Y-17393713D01*
X48817246Y-17183757D01*
X48751557Y-16981588D01*
X48655051Y-16792184D01*
X48530104Y-16620208D01*
X48530101Y-16620205D01*
X48530099Y-16620202D01*
X48379797Y-16469900D01*
X48379794Y-16469898D01*
X48379792Y-16469896D01*
X48207816Y-16344949D01*
X48018412Y-16248443D01*
X47816243Y-16182754D01*
X47606287Y-16149500D01*
X47393713Y-16149500D01*
X47183757Y-16182754D01*
X47183754Y-16182754D01*
X47183753Y-16182755D01*
X46981588Y-16248443D01*
X46981586Y-16248444D01*
X46792180Y-16344951D01*
X46620205Y-16469898D01*
X46620202Y-16469900D01*
X46469900Y-16620202D01*
X46469898Y-16620205D01*
X46344951Y-16792180D01*
X46248444Y-16981586D01*
X46248443Y-16981588D01*
X46184343Y-17178868D01*
X46182754Y-17183757D01*
X46149500Y-17393713D01*
X24476605Y-17393713D01*
X24411255Y-17321135D01*
X24256752Y-17208882D01*
X24082288Y-17131206D01*
X24044842Y-17123246D01*
X23982370Y-17089519D01*
X23948048Y-17027369D01*
X23952776Y-16956530D01*
X23995052Y-16899493D01*
X24044842Y-16876753D01*
X24082288Y-16868794D01*
X24256752Y-16791118D01*
X24411253Y-16678866D01*
X24473960Y-16609223D01*
X24539034Y-16536951D01*
X24539035Y-16536949D01*
X24539040Y-16536944D01*
X24634527Y-16371556D01*
X24693542Y-16189928D01*
X24713504Y-16000000D01*
X24693542Y-15810072D01*
X24634527Y-15628444D01*
X24539040Y-15463056D01*
X24539038Y-15463054D01*
X24539034Y-15463048D01*
X24411255Y-15321135D01*
X24256752Y-15208882D01*
X24082288Y-15131206D01*
X24044842Y-15123246D01*
X23982370Y-15089519D01*
X23948048Y-15027369D01*
X23952776Y-14956530D01*
X23995052Y-14899493D01*
X24044842Y-14876753D01*
X24082288Y-14868794D01*
X24256752Y-14791118D01*
X24411253Y-14678866D01*
X24539040Y-14536944D01*
X24634527Y-14371556D01*
X24693542Y-14189928D01*
X24713504Y-14000000D01*
X24693542Y-13810072D01*
X24634527Y-13628444D01*
X24539040Y-13463056D01*
X24539038Y-13463054D01*
X24539034Y-13463048D01*
X24411255Y-13321135D01*
X24256752Y-13208882D01*
X24082288Y-13131206D01*
X24044842Y-13123246D01*
X23982370Y-13089519D01*
X23948048Y-13027369D01*
X23952776Y-12956530D01*
X23995052Y-12899493D01*
X24044842Y-12876753D01*
X24082288Y-12868794D01*
X24256752Y-12791118D01*
X24411253Y-12678866D01*
X24539040Y-12536944D01*
X24634527Y-12371556D01*
X24693542Y-12189928D01*
X24713504Y-12000000D01*
X24693542Y-11810072D01*
X24634527Y-11628444D01*
X24539040Y-11463056D01*
X24539038Y-11463054D01*
X24539034Y-11463048D01*
X24411255Y-11321135D01*
X24256752Y-11208882D01*
X24082288Y-11131206D01*
X24061719Y-11126834D01*
X24044842Y-11123246D01*
X23982370Y-11089519D01*
X23948048Y-11027369D01*
X23952776Y-10956530D01*
X23995052Y-10899493D01*
X24044842Y-10876753D01*
X24082288Y-10868794D01*
X24256752Y-10791118D01*
X24411253Y-10678866D01*
X24421647Y-10667322D01*
X24539034Y-10536951D01*
X24539035Y-10536949D01*
X24539040Y-10536944D01*
X24634527Y-10371556D01*
X24690271Y-10199996D01*
X46311620Y-10199996D01*
X46311620Y-10200003D01*
X46331090Y-10397694D01*
X46331091Y-10397700D01*
X46331092Y-10397701D01*
X46388759Y-10587804D01*
X46482405Y-10763004D01*
X46608432Y-10916568D01*
X46761996Y-11042595D01*
X46937196Y-11136241D01*
X47127299Y-11193908D01*
X47127303Y-11193908D01*
X47127305Y-11193909D01*
X47324997Y-11213380D01*
X47325000Y-11213380D01*
X47325003Y-11213380D01*
X47522694Y-11193909D01*
X47522695Y-11193908D01*
X47522701Y-11193908D01*
X47712804Y-11136241D01*
X47888004Y-11042595D01*
X48041568Y-10916568D01*
X48167595Y-10763004D01*
X48261241Y-10587804D01*
X48318908Y-10397701D01*
X48321484Y-10371554D01*
X48338380Y-10200003D01*
X48338380Y-10199996D01*
X48318909Y-10002305D01*
X48318908Y-10002303D01*
X48318908Y-10002299D01*
X48261241Y-9812196D01*
X48167595Y-9636996D01*
X48041568Y-9483432D01*
X47888004Y-9357405D01*
X47712804Y-9263759D01*
X47522701Y-9206092D01*
X47522700Y-9206091D01*
X47522694Y-9206090D01*
X47325003Y-9186620D01*
X47324997Y-9186620D01*
X47127305Y-9206090D01*
X46937195Y-9263759D01*
X46761995Y-9357405D01*
X46608432Y-9483432D01*
X46482405Y-9636995D01*
X46388759Y-9812195D01*
X46331090Y-10002305D01*
X46311620Y-10199996D01*
X24690271Y-10199996D01*
X24693542Y-10189928D01*
X24713504Y-10000000D01*
X24693542Y-9810072D01*
X24634527Y-9628444D01*
X24539040Y-9463056D01*
X24539038Y-9463054D01*
X24539034Y-9463048D01*
X24411255Y-9321135D01*
X24256752Y-9208882D01*
X24082288Y-9131206D01*
X24044842Y-9123246D01*
X23982370Y-9089519D01*
X23948048Y-9027369D01*
X23952776Y-8956530D01*
X23995052Y-8899493D01*
X24044842Y-8876753D01*
X24082288Y-8868794D01*
X24256752Y-8791118D01*
X24411253Y-8678866D01*
X24426021Y-8662465D01*
X24539034Y-8536951D01*
X24539035Y-8536949D01*
X24539040Y-8536944D01*
X24634527Y-8371556D01*
X24693542Y-8189928D01*
X24713504Y-8000000D01*
X24693542Y-7810072D01*
X24634527Y-7628444D01*
X24539040Y-7463056D01*
X24539038Y-7463054D01*
X24539034Y-7463048D01*
X24411255Y-7321135D01*
X24256752Y-7208882D01*
X24082288Y-7131206D01*
X24044842Y-7123246D01*
X23982370Y-7089519D01*
X23948048Y-7027369D01*
X23952776Y-6956530D01*
X23995052Y-6899493D01*
X24044842Y-6876753D01*
X24082288Y-6868794D01*
X24256752Y-6791118D01*
X24411253Y-6678866D01*
X24539040Y-6536944D01*
X24634527Y-6371556D01*
X24693542Y-6189928D01*
X24713504Y-6000000D01*
X24693542Y-5810072D01*
X24634527Y-5628444D01*
X24539040Y-5463056D01*
X24539038Y-5463054D01*
X24539034Y-5463048D01*
X24411255Y-5321135D01*
X24256752Y-5208882D01*
X24082288Y-5131206D01*
X24075523Y-5129768D01*
X24044842Y-5123246D01*
X23982370Y-5089519D01*
X23948048Y-5027369D01*
X23952776Y-4956530D01*
X23995052Y-4899493D01*
X24044842Y-4876753D01*
X24082288Y-4868794D01*
X24256752Y-4791118D01*
X24411253Y-4678866D01*
X24539040Y-4536944D01*
X24634527Y-4371556D01*
X24693542Y-4189928D01*
X24713504Y-4000000D01*
X24693542Y-3810072D01*
X24634527Y-3628444D01*
X24539040Y-3463056D01*
X24539038Y-3463054D01*
X24539034Y-3463048D01*
X24411255Y-3321135D01*
X24256752Y-3208882D01*
X24082288Y-3131206D01*
X24044842Y-3123246D01*
X23982370Y-3089519D01*
X23948048Y-3027369D01*
X23952776Y-2956530D01*
X23995052Y-2899493D01*
X24044842Y-2876753D01*
X24082288Y-2868794D01*
X24256752Y-2791118D01*
X24411253Y-2678866D01*
X24474611Y-2608500D01*
X24539034Y-2536951D01*
X24539035Y-2536949D01*
X24539040Y-2536944D01*
X24634527Y-2371556D01*
X24693542Y-2189928D01*
X24713504Y-2000000D01*
X24693542Y-1810072D01*
X24634527Y-1628444D01*
X24539040Y-1463056D01*
X24539038Y-1463054D01*
X24539034Y-1463048D01*
X24411255Y-1321135D01*
X24256752Y-1208882D01*
X24082288Y-1131206D01*
X24044842Y-1123246D01*
X23982370Y-1089519D01*
X23948048Y-1027369D01*
X23952776Y-956530D01*
X23995052Y-899493D01*
X24044842Y-876753D01*
X24082288Y-868794D01*
X24256752Y-791118D01*
X24411253Y-678866D01*
X24539040Y-536944D01*
X24634527Y-371556D01*
X24693542Y-189928D01*
X24713504Y0D01*
X24693542Y189928D01*
X24634527Y371556D01*
X24539040Y536944D01*
X24539038Y536946D01*
X24539034Y536952D01*
X24411255Y678865D01*
X24256752Y791118D01*
X24082288Y868794D01*
X24044842Y876754D01*
X23982370Y910481D01*
X23948048Y972631D01*
X23952776Y1043470D01*
X23995052Y1100507D01*
X24044842Y1123247D01*
X24082288Y1131206D01*
X24256752Y1208882D01*
X24411253Y1321134D01*
X24470604Y1387050D01*
X24539034Y1463049D01*
X24539035Y1463051D01*
X24539040Y1463056D01*
X24634527Y1628444D01*
X24693542Y1810072D01*
X24713504Y2000000D01*
X24693542Y2189928D01*
X24634527Y2371556D01*
X24539040Y2536944D01*
X24539038Y2536946D01*
X24539034Y2536952D01*
X24411255Y2678865D01*
X24256752Y2791118D01*
X24082288Y2868794D01*
X24044842Y2876754D01*
X23982370Y2910481D01*
X23948048Y2972631D01*
X23952776Y3043470D01*
X23995052Y3100507D01*
X24044842Y3123247D01*
X24082288Y3131206D01*
X24256752Y3208882D01*
X24411253Y3321134D01*
X24421645Y3332675D01*
X24437074Y3349810D01*
X24497520Y3387050D01*
X24530710Y3391500D01*
X29183780Y3391500D01*
X29242335Y3377067D01*
X29252946Y3371498D01*
X29326917Y3332675D01*
X29326918Y3332675D01*
X29326920Y3332674D01*
X29460204Y3299823D01*
X29493972Y3291500D01*
X29493975Y3291500D01*
X29666025Y3291500D01*
X29666028Y3291500D01*
X29833083Y3332675D01*
X29898612Y3367068D01*
X29957166Y3381500D01*
X34253780Y3381500D01*
X34312335Y3367067D01*
X34345216Y3349810D01*
X34396917Y3322675D01*
X34396918Y3322675D01*
X34396920Y3322674D01*
X34523396Y3291501D01*
X34563972Y3281500D01*
X34563975Y3281500D01*
X34736025Y3281500D01*
X34736028Y3281500D01*
X34903083Y3322675D01*
X35055430Y3402633D01*
X35070770Y3416223D01*
X37036500Y3416223D01*
X37036500Y2884279D01*
X37036585Y2883488D01*
X37036585Y2826916D01*
X37055764Y2693530D01*
X37055764Y2693525D01*
X37055765Y2693525D01*
X37057047Y2684602D01*
X37098223Y2544374D01*
X37098229Y2544359D01*
X37157950Y2413588D01*
X37157953Y2413583D01*
X37236968Y2290632D01*
X37236970Y2290630D01*
X37328213Y2185328D01*
X37329630Y2183571D01*
X37331125Y2181967D01*
X37441584Y2086255D01*
X37562538Y2008523D01*
X37695487Y1947807D01*
X37833442Y1907300D01*
X37978111Y1886500D01*
X37978115Y1886500D01*
X38599994Y1886500D01*
X38600000Y1886500D01*
X38673079Y1891727D01*
X38683119Y1894675D01*
X38732653Y1895993D01*
X38732961Y1898853D01*
X38801350Y1891501D01*
X38801355Y1891501D01*
X38801362Y1891500D01*
X38801368Y1891500D01*
X39898632Y1891500D01*
X39898638Y1891500D01*
X39959201Y1898011D01*
X39959203Y1898012D01*
X39967037Y1898854D01*
X39967095Y1898311D01*
X40005826Y1900040D01*
X40100000Y1886500D01*
X40100003Y1886500D01*
X40721885Y1886500D01*
X40721889Y1886500D01*
X40866558Y1907300D01*
X41004513Y1947807D01*
X41137462Y2008523D01*
X41252725Y2082598D01*
X41254172Y2083421D01*
X41258376Y2086230D01*
X41258416Y2086255D01*
X41258420Y2086257D01*
X41368878Y2181971D01*
X41463032Y2290632D01*
X41542047Y2413583D01*
X41598979Y2538248D01*
X41601255Y2542597D01*
X41601775Y2544369D01*
X41601776Y2544369D01*
X41642953Y2684606D01*
X41646389Y2708500D01*
X41659128Y2797103D01*
X41663415Y2826921D01*
X41663415Y2883488D01*
X41663500Y2883778D01*
X41663500Y3415722D01*
X41663415Y3416512D01*
X41663415Y3473080D01*
X41663414Y3473085D01*
X41644236Y3606471D01*
X41644235Y3606476D01*
X41644235Y3606475D01*
X41642953Y3615394D01*
X41642953Y3615395D01*
X41639121Y3628444D01*
X41601776Y3755627D01*
X41601775Y3755632D01*
X41542047Y3886417D01*
X41463032Y4009368D01*
X41371786Y4114673D01*
X41370368Y4116431D01*
X41368874Y4118034D01*
X41319517Y4160801D01*
X41258416Y4213745D01*
X41137462Y4291477D01*
X41004513Y4352193D01*
X40958528Y4365696D01*
X40866566Y4392698D01*
X40866559Y4392700D01*
X40837624Y4396860D01*
X40721889Y4413500D01*
X40100000Y4413500D01*
X40056152Y4410364D01*
X40026917Y4408273D01*
X40016867Y4405322D01*
X39967342Y4403982D01*
X39967038Y4401147D01*
X39898649Y4408500D01*
X39898638Y4408500D01*
X38801362Y4408500D01*
X38801350Y4408500D01*
X38732963Y4401147D01*
X38732904Y4401689D01*
X38694173Y4399961D01*
X38634778Y4408500D01*
X38600000Y4413500D01*
X37978111Y4413500D01*
X37895963Y4401689D01*
X37833440Y4392700D01*
X37833433Y4392698D01*
X37695490Y4352194D01*
X37695487Y4352193D01*
X37562538Y4291477D01*
X37562536Y4291476D01*
X37562530Y4291473D01*
X37447290Y4217413D01*
X37445836Y4216585D01*
X37441577Y4213741D01*
X37331122Y4118030D01*
X37236970Y4009371D01*
X37157953Y3886418D01*
X37157950Y3886413D01*
X37101031Y3761777D01*
X37098746Y3757409D01*
X37057049Y3615403D01*
X37057044Y3615382D01*
X37036585Y3473085D01*
X37036585Y3416512D01*
X37036500Y3416223D01*
X35070770Y3416223D01*
X35184215Y3516727D01*
X35281954Y3658325D01*
X35342965Y3819199D01*
X35363704Y3990000D01*
X35361352Y4009368D01*
X35342965Y4160800D01*
X35331919Y4189928D01*
X35281954Y4321675D01*
X35184215Y4463273D01*
X35055430Y4577367D01*
X35055429Y4577368D01*
X35055426Y4577370D01*
X34903087Y4657323D01*
X34903079Y4657327D01*
X34736031Y4698500D01*
X34736028Y4698500D01*
X34563972Y4698500D01*
X34563968Y4698500D01*
X34396920Y4657327D01*
X34396912Y4657323D01*
X34312335Y4612933D01*
X34253780Y4598500D01*
X29995273Y4598500D01*
X29936718Y4612933D01*
X29852132Y4657327D01*
X29833083Y4667325D01*
X29833082Y4667326D01*
X29833081Y4667326D01*
X29666031Y4708500D01*
X29666028Y4708500D01*
X29493972Y4708500D01*
X29493968Y4708500D01*
X29326920Y4667327D01*
X29326912Y4667323D01*
X29242335Y4622933D01*
X29183780Y4608500D01*
X24530710Y4608500D01*
X24462589Y4628502D01*
X24437074Y4650190D01*
X24411255Y4678865D01*
X24256752Y4791118D01*
X24082288Y4868794D01*
X24044842Y4876754D01*
X23982370Y4910481D01*
X23948048Y4972631D01*
X23952776Y5043470D01*
X23995052Y5100507D01*
X24044842Y5123247D01*
X24082288Y5131206D01*
X24256752Y5208882D01*
X24411253Y5321134D01*
X24539040Y5463056D01*
X24634527Y5628444D01*
X24693542Y5810072D01*
X24713504Y6000000D01*
X24693542Y6189928D01*
X24634527Y6371556D01*
X24539040Y6536944D01*
X24539038Y6536946D01*
X24539034Y6536952D01*
X24411255Y6678865D01*
X24256752Y6791118D01*
X24082288Y6868794D01*
X24044842Y6876754D01*
X23982370Y6910481D01*
X23948048Y6972631D01*
X23952776Y7043470D01*
X23995052Y7100507D01*
X24044842Y7123247D01*
X24082288Y7131206D01*
X24256752Y7208882D01*
X24411253Y7321134D01*
X24421645Y7332675D01*
X24437074Y7349810D01*
X24497520Y7387050D01*
X24530710Y7391500D01*
X25545761Y7391500D01*
X25613882Y7371498D01*
X25634856Y7354595D01*
X25735943Y7253508D01*
X25764660Y7209093D01*
X25814295Y7078214D01*
X25818046Y7068325D01*
X25915785Y6926727D01*
X26044570Y6812633D01*
X26044571Y6812633D01*
X26044573Y6812631D01*
X26085563Y6791118D01*
X26196917Y6732675D01*
X26196918Y6732675D01*
X26196920Y6732674D01*
X26335714Y6698465D01*
X26363972Y6691500D01*
X26363975Y6691500D01*
X26536025Y6691500D01*
X26536028Y6691500D01*
X26703083Y6732675D01*
X26855430Y6812633D01*
X26984215Y6926727D01*
X27081954Y7068325D01*
X27142965Y7229199D01*
X27160243Y7371498D01*
X27163704Y7399997D01*
X27163704Y7400004D01*
X27142965Y7570800D01*
X27132060Y7599556D01*
X27081954Y7731675D01*
X26984215Y7873273D01*
X26855430Y7987367D01*
X26855429Y7987368D01*
X26855426Y7987370D01*
X26703087Y8067323D01*
X26703086Y8067324D01*
X26703083Y8067325D01*
X26703079Y8067326D01*
X26703074Y8067328D01*
X26657745Y8078501D01*
X26598806Y8111743D01*
X26223627Y8486922D01*
X26223625Y8486923D01*
X26223623Y8486925D01*
X26084877Y8567030D01*
X26084874Y8567031D01*
X26084873Y8567032D01*
X26084871Y8567033D01*
X26084870Y8567033D01*
X25961833Y8600000D01*
X25961831Y8600001D01*
X25930112Y8608500D01*
X25930111Y8608500D01*
X24530710Y8608500D01*
X24462589Y8628502D01*
X24437074Y8650190D01*
X24411255Y8678865D01*
X24256752Y8791118D01*
X24082288Y8868794D01*
X24044842Y8876754D01*
X23982370Y8910481D01*
X23948048Y8972631D01*
X23952776Y9043470D01*
X23995052Y9100507D01*
X24044842Y9123247D01*
X24082288Y9131206D01*
X24173657Y9171886D01*
X42886500Y9171886D01*
X42886500Y8600006D01*
X42891727Y8526919D01*
X42902397Y8490581D01*
X42906219Y8437152D01*
X42886500Y8300000D01*
X42886500Y7728111D01*
X42902044Y7620000D01*
X42907300Y7583441D01*
X42907302Y7583434D01*
X42930566Y7504205D01*
X42947807Y7445487D01*
X43008523Y7312538D01*
X43075138Y7208882D01*
X43082587Y7197292D01*
X43083419Y7195831D01*
X43086255Y7191584D01*
X43086257Y7191580D01*
X43086259Y7191578D01*
X43181967Y7081126D01*
X43181971Y7081122D01*
X43290632Y6986968D01*
X43384368Y6926728D01*
X43412731Y6908500D01*
X43413583Y6907953D01*
X43538239Y6851024D01*
X43542595Y6848745D01*
X43544368Y6848225D01*
X43544369Y6848224D01*
X43684606Y6807047D01*
X43684615Y6807046D01*
X43684618Y6807045D01*
X43779482Y6793406D01*
X43826921Y6786585D01*
X43883488Y6786585D01*
X43883777Y6786500D01*
X43935764Y6786500D01*
X44415721Y6786500D01*
X44416512Y6786585D01*
X44473079Y6786585D01*
X44615394Y6807047D01*
X44615395Y6807047D01*
X44755632Y6848225D01*
X44886417Y6907953D01*
X45009368Y6986968D01*
X45114685Y7078226D01*
X45116435Y7079636D01*
X45118030Y7081123D01*
X45118033Y7081125D01*
X45213745Y7191584D01*
X45291477Y7312538D01*
X45352193Y7445487D01*
X45392700Y7583442D01*
X45413500Y7728111D01*
X45413500Y8300000D01*
X45408273Y8373079D01*
X45397602Y8409417D01*
X45393781Y8462849D01*
X45413500Y8600000D01*
X45413500Y9171886D01*
X45411904Y9182988D01*
X45392700Y9316558D01*
X45352193Y9454513D01*
X45291477Y9587462D01*
X45217406Y9702718D01*
X45216579Y9704171D01*
X45213743Y9708419D01*
X45213743Y9708420D01*
X45118029Y9818878D01*
X45009368Y9913032D01*
X44944631Y9954636D01*
X44886418Y9992047D01*
X44834956Y10015549D01*
X44761767Y10048974D01*
X44757406Y10051255D01*
X44615402Y10092951D01*
X44615381Y10092956D01*
X44473084Y10113415D01*
X44473079Y10113415D01*
X44416512Y10113415D01*
X44416223Y10113500D01*
X44364236Y10113500D01*
X43935764Y10113500D01*
X43884279Y10113500D01*
X43883488Y10113415D01*
X43826915Y10113415D01*
X43693529Y10094236D01*
X43693524Y10094236D01*
X43690489Y10093799D01*
X43684601Y10092953D01*
X43544373Y10051777D01*
X43544358Y10051771D01*
X43413587Y9992050D01*
X43413582Y9992047D01*
X43339874Y9944679D01*
X43290632Y9913032D01*
X43290630Y9913031D01*
X43290628Y9913029D01*
X43290622Y9913025D01*
X43185326Y9821787D01*
X43183577Y9820376D01*
X43181966Y9818875D01*
X43086257Y9708419D01*
X43008525Y9587466D01*
X43008523Y9587463D01*
X43008523Y9587462D01*
X42951706Y9463049D01*
X42947806Y9454510D01*
X42907302Y9316567D01*
X42907300Y9316560D01*
X42903435Y9289676D01*
X42890971Y9202981D01*
X42886500Y9171886D01*
X24173657Y9171886D01*
X24256752Y9208882D01*
X24411253Y9321134D01*
X24539040Y9463056D01*
X24634527Y9628444D01*
X24693542Y9810072D01*
X24713504Y10000000D01*
X24693542Y10189928D01*
X24634527Y10371556D01*
X24618103Y10400004D01*
X25986296Y10400004D01*
X25986296Y10399997D01*
X26007034Y10229201D01*
X26058707Y10092951D01*
X26068046Y10068325D01*
X26165785Y9926727D01*
X26294570Y9812633D01*
X26294571Y9812633D01*
X26294573Y9812631D01*
X26375465Y9770176D01*
X26446917Y9732675D01*
X26446918Y9732675D01*
X26446920Y9732674D01*
X26545312Y9708423D01*
X26613972Y9691500D01*
X26613975Y9691500D01*
X26786025Y9691500D01*
X26786028Y9691500D01*
X26953083Y9732675D01*
X27105430Y9812633D01*
X27234215Y9926727D01*
X27331954Y10068325D01*
X27392965Y10229199D01*
X27410250Y10371555D01*
X27413704Y10399997D01*
X27413704Y10400004D01*
X27392965Y10570800D01*
X27378668Y10608500D01*
X27343965Y10700004D01*
X35261296Y10700004D01*
X35261296Y10699997D01*
X35282034Y10529201D01*
X35341821Y10371556D01*
X35343046Y10368325D01*
X35440785Y10226727D01*
X35569570Y10112633D01*
X35569571Y10112633D01*
X35569573Y10112631D01*
X35650465Y10070176D01*
X35721917Y10032675D01*
X35721918Y10032675D01*
X35721920Y10032674D01*
X35854486Y10000000D01*
X35888972Y9991500D01*
X35888975Y9991500D01*
X36061025Y9991500D01*
X36061028Y9991500D01*
X36228083Y10032675D01*
X36380430Y10112633D01*
X36509215Y10226727D01*
X36606954Y10368325D01*
X36667965Y10529199D01*
X36682656Y10650190D01*
X36688704Y10699997D01*
X36688704Y10700004D01*
X36667965Y10870800D01*
X36667028Y10873273D01*
X36606954Y11031675D01*
X36509215Y11173273D01*
X36380430Y11287367D01*
X36380429Y11287368D01*
X36380426Y11287370D01*
X36228087Y11367323D01*
X36228079Y11367327D01*
X36061031Y11408500D01*
X36061028Y11408500D01*
X35888972Y11408500D01*
X35888968Y11408500D01*
X35721920Y11367327D01*
X35721912Y11367323D01*
X35569573Y11287370D01*
X35569568Y11287366D01*
X35440785Y11173273D01*
X35343045Y11031674D01*
X35282034Y10870800D01*
X35261296Y10700004D01*
X27343965Y10700004D01*
X27331954Y10731675D01*
X27234215Y10873273D01*
X27105430Y10987367D01*
X27105429Y10987368D01*
X27105426Y10987370D01*
X26953087Y11067323D01*
X26953079Y11067327D01*
X26786031Y11108500D01*
X26786028Y11108500D01*
X26613972Y11108500D01*
X26613968Y11108500D01*
X26446920Y11067327D01*
X26446912Y11067323D01*
X26294573Y10987370D01*
X26294568Y10987366D01*
X26165785Y10873273D01*
X26068045Y10731674D01*
X26007034Y10570800D01*
X25986296Y10400004D01*
X24618103Y10400004D01*
X24539040Y10536944D01*
X24539038Y10536946D01*
X24539034Y10536952D01*
X24411255Y10678865D01*
X24256752Y10791118D01*
X24082288Y10868794D01*
X24044842Y10876754D01*
X23982370Y10910481D01*
X23948048Y10972631D01*
X23952776Y11043470D01*
X23995052Y11100507D01*
X24044842Y11123247D01*
X24082288Y11131206D01*
X24256752Y11208882D01*
X24411253Y11321134D01*
X24421647Y11332678D01*
X24539034Y11463049D01*
X24539035Y11463051D01*
X24539040Y11463056D01*
X24634527Y11628444D01*
X24693542Y11810072D01*
X24713504Y12000000D01*
X24693542Y12189928D01*
X24634527Y12371556D01*
X24539040Y12536944D01*
X24539038Y12536946D01*
X24539034Y12536952D01*
X24411255Y12678865D01*
X24256752Y12791118D01*
X24082288Y12868794D01*
X24044842Y12876754D01*
X23982370Y12910481D01*
X23948048Y12972631D01*
X23952776Y13043470D01*
X23995052Y13100507D01*
X24044842Y13123247D01*
X24082288Y13131206D01*
X24256752Y13208882D01*
X24411253Y13321134D01*
X24456601Y13371498D01*
X24539034Y13463049D01*
X24539035Y13463051D01*
X24539040Y13463056D01*
X24634527Y13628444D01*
X24693542Y13810072D01*
X24713504Y14000000D01*
X24693542Y14189928D01*
X24634527Y14371556D01*
X24539040Y14536944D01*
X24539038Y14536946D01*
X24539034Y14536952D01*
X24411255Y14678865D01*
X24256752Y14791118D01*
X24082288Y14868794D01*
X24044842Y14876754D01*
X23982370Y14910481D01*
X23948048Y14972631D01*
X23952776Y15043470D01*
X23995052Y15100507D01*
X24044842Y15123247D01*
X24082288Y15131206D01*
X24256752Y15208882D01*
X24411253Y15321134D01*
X24411255Y15321136D01*
X24539034Y15463049D01*
X24539035Y15463051D01*
X24539040Y15463056D01*
X24634527Y15628444D01*
X24693542Y15810072D01*
X24713504Y16000000D01*
X24693542Y16189928D01*
X24634527Y16371556D01*
X24539040Y16536944D01*
X24539038Y16536946D01*
X24539034Y16536952D01*
X24411255Y16678865D01*
X24256752Y16791118D01*
X24082288Y16868794D01*
X24044842Y16876754D01*
X23982370Y16910481D01*
X23948048Y16972631D01*
X23952776Y17043470D01*
X23995052Y17100507D01*
X24044842Y17123247D01*
X24082288Y17131206D01*
X24256752Y17208882D01*
X24411253Y17321134D01*
X24437073Y17349810D01*
X24539034Y17463049D01*
X24539035Y17463051D01*
X24539040Y17463056D01*
X24634527Y17628444D01*
X24693542Y17810072D01*
X24713504Y18000000D01*
X24713504Y18000004D01*
X25411296Y18000004D01*
X25411296Y17999997D01*
X25432034Y17829201D01*
X25455121Y17768327D01*
X25493046Y17668325D01*
X25590785Y17526727D01*
X25719570Y17412633D01*
X25719571Y17412633D01*
X25719573Y17412631D01*
X25767710Y17387367D01*
X25871917Y17332675D01*
X25871918Y17332675D01*
X25871920Y17332674D01*
X25972077Y17307988D01*
X26038972Y17291500D01*
X26038975Y17291500D01*
X26211025Y17291500D01*
X26211028Y17291500D01*
X26378083Y17332675D01*
X26530430Y17412633D01*
X26659215Y17526727D01*
X26756954Y17668325D01*
X26817965Y17829199D01*
X26830107Y17929199D01*
X26838704Y17999997D01*
X26838704Y18000004D01*
X26819559Y18157675D01*
X26817965Y18170801D01*
X26756954Y18331675D01*
X26659215Y18473273D01*
X26530430Y18587367D01*
X26530429Y18587368D01*
X26530426Y18587370D01*
X26378087Y18667323D01*
X26378079Y18667327D01*
X26211031Y18708500D01*
X26211028Y18708500D01*
X26038972Y18708500D01*
X26038968Y18708500D01*
X25871920Y18667327D01*
X25871912Y18667323D01*
X25719573Y18587370D01*
X25719568Y18587366D01*
X25590785Y18473273D01*
X25493045Y18331674D01*
X25432034Y18170800D01*
X25411296Y18000004D01*
X24713504Y18000004D01*
X24693542Y18189928D01*
X24634527Y18371556D01*
X24539040Y18536944D01*
X24539038Y18536946D01*
X24539034Y18536952D01*
X24411255Y18678865D01*
X24256752Y18791118D01*
X24082288Y18868794D01*
X23895487Y18908500D01*
X23704513Y18908500D01*
X23517711Y18868794D01*
X23343247Y18791118D01*
X23188744Y18678865D01*
X23162926Y18650190D01*
X23102480Y18612950D01*
X23069290Y18608500D01*
X21679239Y18608500D01*
X21611118Y18628502D01*
X21590144Y18645405D01*
X21264056Y18971493D01*
X21235339Y19015908D01*
X21235092Y19016558D01*
X21181954Y19156675D01*
X21084215Y19298273D01*
X20955430Y19412367D01*
X20955429Y19412368D01*
X20955426Y19412370D01*
X20803087Y19492323D01*
X20803086Y19492324D01*
X20803083Y19492325D01*
X20803079Y19492326D01*
X20803074Y19492328D01*
X20757745Y19503501D01*
X20698805Y19536744D01*
X20501144Y19734405D01*
X20467118Y19796717D01*
X20472183Y19867532D01*
X20514730Y19924368D01*
X20581250Y19949179D01*
X20590239Y19949500D01*
X30464010Y19949500D01*
X30532131Y19929498D01*
G37*
%TD.AperFunction*%
%TA.AperFunction,Conductor*%
G36*
X8387660Y-16173502D02*
G01*
X8434153Y-16227158D01*
X8437351Y-16234819D01*
X8444701Y-16254199D01*
X8493046Y-16381675D01*
X8590785Y-16523273D01*
X8719570Y-16637367D01*
X8719571Y-16637367D01*
X8719573Y-16637369D01*
X8791651Y-16675198D01*
X8871917Y-16717325D01*
X8871918Y-16717325D01*
X8871920Y-16717326D01*
X9030394Y-16756385D01*
X9038972Y-16758500D01*
X9038975Y-16758500D01*
X9211025Y-16758500D01*
X9211028Y-16758500D01*
X9378083Y-16717325D01*
X9530430Y-16637367D01*
X9659215Y-16523273D01*
X9756954Y-16381675D01*
X9805299Y-16254199D01*
X9812649Y-16234819D01*
X9855508Y-16178218D01*
X9922163Y-16153774D01*
X9930461Y-16153500D01*
X10869539Y-16153500D01*
X10937660Y-16173502D01*
X10984153Y-16227158D01*
X10987351Y-16234819D01*
X10994701Y-16254199D01*
X11043046Y-16381675D01*
X11140785Y-16523273D01*
X11269570Y-16637367D01*
X11269571Y-16637367D01*
X11269573Y-16637369D01*
X11341651Y-16675198D01*
X11421917Y-16717325D01*
X11421918Y-16717325D01*
X11421920Y-16717326D01*
X11580394Y-16756385D01*
X11588972Y-16758500D01*
X11588975Y-16758500D01*
X11761025Y-16758500D01*
X11761028Y-16758500D01*
X11928083Y-16717325D01*
X12080430Y-16637367D01*
X12209215Y-16523273D01*
X12306954Y-16381675D01*
X12355299Y-16254199D01*
X12362649Y-16234819D01*
X12405508Y-16178218D01*
X12472163Y-16153774D01*
X12480461Y-16153500D01*
X13494539Y-16153500D01*
X13562660Y-16173502D01*
X13609153Y-16227158D01*
X13612351Y-16234819D01*
X13619701Y-16254199D01*
X13668046Y-16381675D01*
X13765785Y-16523273D01*
X13894570Y-16637367D01*
X13894571Y-16637367D01*
X13894573Y-16637369D01*
X13966651Y-16675198D01*
X14046917Y-16717325D01*
X14046918Y-16717325D01*
X14046920Y-16717326D01*
X14205394Y-16756385D01*
X14213972Y-16758500D01*
X14213975Y-16758500D01*
X14386025Y-16758500D01*
X14386028Y-16758500D01*
X14553083Y-16717325D01*
X14705430Y-16637367D01*
X14834215Y-16523273D01*
X14931954Y-16381675D01*
X14980299Y-16254199D01*
X14987649Y-16234819D01*
X15030508Y-16178218D01*
X15097163Y-16153774D01*
X15105461Y-16153500D01*
X17667902Y-16153500D01*
X17736023Y-16173502D01*
X17782516Y-16227158D01*
X17792620Y-16297432D01*
X17763126Y-16362012D01*
X17741963Y-16381436D01*
X17620205Y-16469898D01*
X17620202Y-16469900D01*
X17469900Y-16620202D01*
X17469898Y-16620205D01*
X17344951Y-16792180D01*
X17248444Y-16981586D01*
X17248443Y-16981588D01*
X17184343Y-17178868D01*
X17182754Y-17183757D01*
X17149500Y-17393713D01*
X17149500Y-17606287D01*
X17182754Y-17816243D01*
X17248443Y-18018412D01*
X17344949Y-18207816D01*
X17469896Y-18379792D01*
X17469898Y-18379794D01*
X17469900Y-18379797D01*
X17620202Y-18530099D01*
X17620208Y-18530104D01*
X17631851Y-18538563D01*
X17675206Y-18594784D01*
X17681283Y-18665520D01*
X17648152Y-18728313D01*
X17586333Y-18763225D01*
X17557792Y-18766500D01*
X16804239Y-18766500D01*
X16736118Y-18746498D01*
X16715144Y-18729595D01*
X15498633Y-17513083D01*
X15498623Y-17513075D01*
X15359877Y-17432970D01*
X15359874Y-17432969D01*
X15359873Y-17432968D01*
X15359871Y-17432967D01*
X15359870Y-17432967D01*
X15263562Y-17407162D01*
X15205111Y-17391500D01*
X15205109Y-17391500D01*
X8271220Y-17391500D01*
X8212665Y-17377067D01*
X8128087Y-17332677D01*
X8128079Y-17332673D01*
X7961031Y-17291500D01*
X7961028Y-17291500D01*
X7788972Y-17291500D01*
X7788968Y-17291500D01*
X7621920Y-17332673D01*
X7621912Y-17332677D01*
X7537335Y-17377067D01*
X7478780Y-17391500D01*
X5730710Y-17391500D01*
X5662589Y-17371498D01*
X5637074Y-17349810D01*
X5611255Y-17321135D01*
X5456752Y-17208882D01*
X5282288Y-17131206D01*
X5244842Y-17123246D01*
X5182370Y-17089519D01*
X5148048Y-17027369D01*
X5152776Y-16956530D01*
X5195052Y-16899493D01*
X5244842Y-16876753D01*
X5282288Y-16868794D01*
X5456752Y-16791118D01*
X5611253Y-16678866D01*
X5673960Y-16609223D01*
X5739034Y-16536951D01*
X5739035Y-16536949D01*
X5739040Y-16536944D01*
X5834527Y-16371556D01*
X5877090Y-16240563D01*
X5917164Y-16181957D01*
X5982561Y-16154321D01*
X5996923Y-16153500D01*
X8319539Y-16153500D01*
X8387660Y-16173502D01*
G37*
%TD.AperFunction*%
%TA.AperFunction,Conductor*%
G36*
X22871198Y-16173502D02*
G01*
X22917691Y-16227158D01*
X22922910Y-16240563D01*
X22925471Y-16248444D01*
X22965473Y-16371556D01*
X22965476Y-16371561D01*
X23060958Y-16536941D01*
X23060965Y-16536951D01*
X23188744Y-16678864D01*
X23188747Y-16678866D01*
X23343248Y-16791118D01*
X23517712Y-16868794D01*
X23555156Y-16876753D01*
X23617630Y-16910482D01*
X23651951Y-16972631D01*
X23647223Y-17043470D01*
X23604947Y-17100508D01*
X23555156Y-17123247D01*
X23517711Y-17131206D01*
X23343247Y-17208882D01*
X23188744Y-17321135D01*
X23162926Y-17349810D01*
X23102480Y-17387050D01*
X23069290Y-17391500D01*
X21319889Y-17391500D01*
X21261438Y-17407162D01*
X21165130Y-17432967D01*
X21165123Y-17432970D01*
X21026376Y-17513075D01*
X21026366Y-17513083D01*
X19809856Y-18729595D01*
X19747544Y-18763620D01*
X19720761Y-18766500D01*
X19442208Y-18766500D01*
X19374087Y-18746498D01*
X19327594Y-18692842D01*
X19317490Y-18622568D01*
X19346984Y-18557988D01*
X19368149Y-18538563D01*
X19370377Y-18536944D01*
X19379792Y-18530104D01*
X19530104Y-18379792D01*
X19655051Y-18207816D01*
X19751557Y-18018412D01*
X19817246Y-17816243D01*
X19850500Y-17606287D01*
X19850500Y-17393713D01*
X19817246Y-17183757D01*
X19817240Y-17183739D01*
X19816642Y-17181245D01*
X19816691Y-17180258D01*
X19816471Y-17178868D01*
X19816763Y-17178821D01*
X19820187Y-17110337D01*
X19861505Y-17052601D01*
X19927478Y-17026370D01*
X19997160Y-17039970D01*
X19997715Y-17040260D01*
X20021229Y-17052601D01*
X20096917Y-17092325D01*
X20096918Y-17092325D01*
X20096920Y-17092326D01*
X20254665Y-17131206D01*
X20263972Y-17133500D01*
X20263975Y-17133500D01*
X20436025Y-17133500D01*
X20436028Y-17133500D01*
X20603083Y-17092325D01*
X20755430Y-17012367D01*
X20884215Y-16898273D01*
X20981954Y-16756675D01*
X21042965Y-16595801D01*
X21051413Y-16526227D01*
X21063704Y-16425003D01*
X21063704Y-16424996D01*
X21047882Y-16294687D01*
X21059527Y-16224652D01*
X21107188Y-16172031D01*
X21172963Y-16153500D01*
X22803077Y-16153500D01*
X22871198Y-16173502D01*
G37*
%TD.AperFunction*%
%TA.AperFunction,Conductor*%
G36*
X7462335Y-14622933D02*
G01*
X7472946Y-14628502D01*
X7546917Y-14667325D01*
X7631453Y-14688161D01*
X7692807Y-14723884D01*
X7725108Y-14787107D01*
X7718101Y-14857757D01*
X7674010Y-14913403D01*
X7606834Y-14936378D01*
X7601299Y-14936500D01*
X5644438Y-14936500D01*
X5576317Y-14916498D01*
X5529824Y-14862842D01*
X5519720Y-14792568D01*
X5549214Y-14727988D01*
X5570375Y-14708565D01*
X5611253Y-14678866D01*
X5621645Y-14667325D01*
X5637074Y-14650190D01*
X5697520Y-14612950D01*
X5730710Y-14608500D01*
X7403780Y-14608500D01*
X7462335Y-14622933D01*
G37*
%TD.AperFunction*%
%TA.AperFunction,Conductor*%
G36*
X20712335Y-14622933D02*
G01*
X20722946Y-14628502D01*
X20796917Y-14667325D01*
X20881453Y-14688161D01*
X20942807Y-14723884D01*
X20975108Y-14787107D01*
X20968101Y-14857757D01*
X20924010Y-14913403D01*
X20856834Y-14936378D01*
X20851299Y-14936500D01*
X7998701Y-14936500D01*
X7930580Y-14916498D01*
X7884087Y-14862842D01*
X7873983Y-14792568D01*
X7903477Y-14727988D01*
X7963203Y-14689604D01*
X7968547Y-14688161D01*
X8053083Y-14667325D01*
X8127054Y-14628502D01*
X8137665Y-14622933D01*
X8196220Y-14608500D01*
X20653780Y-14608500D01*
X20712335Y-14622933D01*
G37*
%TD.AperFunction*%
%TA.AperFunction,Conductor*%
G36*
X23137411Y-14628502D02*
G01*
X23162926Y-14650190D01*
X23188743Y-14678863D01*
X23188746Y-14678865D01*
X23188747Y-14678866D01*
X23229622Y-14708564D01*
X23272977Y-14764786D01*
X23279053Y-14835522D01*
X23245921Y-14898314D01*
X23184101Y-14933225D01*
X23155562Y-14936500D01*
X21248701Y-14936500D01*
X21180580Y-14916498D01*
X21134087Y-14862842D01*
X21123983Y-14792568D01*
X21153477Y-14727988D01*
X21213203Y-14689604D01*
X21218547Y-14688161D01*
X21303083Y-14667325D01*
X21377054Y-14628502D01*
X21387665Y-14622933D01*
X21446220Y-14608500D01*
X23069290Y-14608500D01*
X23137411Y-14628502D01*
G37*
%TD.AperFunction*%
%TA.AperFunction,Conductor*%
G36*
X8033520Y-12628502D02*
G01*
X8080013Y-12682158D01*
X8083202Y-12689800D01*
X8118046Y-12781675D01*
X8215785Y-12923273D01*
X8344570Y-13037367D01*
X8344571Y-13037367D01*
X8344573Y-13037369D01*
X8425465Y-13079824D01*
X8496917Y-13117325D01*
X8601739Y-13143161D01*
X8663093Y-13178884D01*
X8695394Y-13242107D01*
X8688387Y-13312757D01*
X8644296Y-13368403D01*
X8577120Y-13391378D01*
X8571585Y-13391500D01*
X8196220Y-13391500D01*
X8137665Y-13377067D01*
X8053087Y-13332677D01*
X8053079Y-13332673D01*
X7886031Y-13291500D01*
X7886028Y-13291500D01*
X7713972Y-13291500D01*
X7713968Y-13291500D01*
X7546920Y-13332673D01*
X7546912Y-13332677D01*
X7462335Y-13377067D01*
X7403780Y-13391500D01*
X5730710Y-13391500D01*
X5662589Y-13371498D01*
X5637074Y-13349810D01*
X5611255Y-13321135D01*
X5456752Y-13208882D01*
X5282288Y-13131206D01*
X5244842Y-13123246D01*
X5182370Y-13089519D01*
X5148048Y-13027369D01*
X5152776Y-12956530D01*
X5195052Y-12899493D01*
X5244842Y-12876753D01*
X5282288Y-12868794D01*
X5456752Y-12791118D01*
X5611253Y-12678866D01*
X5611255Y-12678864D01*
X5637074Y-12650190D01*
X5697520Y-12612950D01*
X5730710Y-12608500D01*
X7965399Y-12608500D01*
X8033520Y-12628502D01*
G37*
%TD.AperFunction*%
%TA.AperFunction,Conductor*%
G36*
X17957522Y-12628502D02*
G01*
X18004015Y-12682158D01*
X18007204Y-12689800D01*
X18042048Y-12781675D01*
X18139787Y-12923273D01*
X18268572Y-13037367D01*
X18268573Y-13037367D01*
X18268575Y-13037369D01*
X18349467Y-13079824D01*
X18420919Y-13117325D01*
X18525741Y-13143161D01*
X18587095Y-13178884D01*
X18619396Y-13242107D01*
X18612389Y-13312757D01*
X18568298Y-13368403D01*
X18501122Y-13391378D01*
X18495587Y-13391500D01*
X8928415Y-13391500D01*
X8860294Y-13371498D01*
X8813801Y-13317842D01*
X8803697Y-13247568D01*
X8833191Y-13182988D01*
X8892917Y-13144604D01*
X8898261Y-13143161D01*
X9003083Y-13117325D01*
X9155430Y-13037367D01*
X9284215Y-12923273D01*
X9381954Y-12781675D01*
X9416790Y-12689818D01*
X9459647Y-12633219D01*
X9526302Y-12608774D01*
X9534601Y-12608500D01*
X17889401Y-12608500D01*
X17957522Y-12628502D01*
G37*
%TD.AperFunction*%
%TA.AperFunction,Conductor*%
G36*
X23137411Y-12628502D02*
G01*
X23162926Y-12650190D01*
X23188744Y-12678864D01*
X23230611Y-12709282D01*
X23343248Y-12791118D01*
X23517712Y-12868794D01*
X23555156Y-12876753D01*
X23617630Y-12910482D01*
X23651951Y-12972631D01*
X23647223Y-13043470D01*
X23604947Y-13100508D01*
X23555156Y-13123247D01*
X23517711Y-13131206D01*
X23343247Y-13208882D01*
X23188744Y-13321135D01*
X23162926Y-13349810D01*
X23102480Y-13387050D01*
X23069290Y-13391500D01*
X21446220Y-13391500D01*
X21387665Y-13377067D01*
X21303087Y-13332677D01*
X21303079Y-13332673D01*
X21136031Y-13291500D01*
X21136028Y-13291500D01*
X20963972Y-13291500D01*
X20963968Y-13291500D01*
X20796920Y-13332673D01*
X20796912Y-13332677D01*
X20712335Y-13377067D01*
X20653780Y-13391500D01*
X18852417Y-13391500D01*
X18784296Y-13371498D01*
X18737803Y-13317842D01*
X18727699Y-13247568D01*
X18757193Y-13182988D01*
X18816919Y-13144604D01*
X18822263Y-13143161D01*
X18927085Y-13117325D01*
X19079432Y-13037367D01*
X19208217Y-12923273D01*
X19305956Y-12781675D01*
X19340792Y-12689818D01*
X19383649Y-12633219D01*
X19450304Y-12608774D01*
X19458603Y-12608500D01*
X19694889Y-12608500D01*
X23069290Y-12608500D01*
X23137411Y-12628502D01*
G37*
%TD.AperFunction*%
%TA.AperFunction,Conductor*%
G36*
X4448060Y-12721959D02*
G01*
X4543248Y-12791118D01*
X4717712Y-12868794D01*
X4755156Y-12876753D01*
X4817630Y-12910482D01*
X4851951Y-12972631D01*
X4847223Y-13043470D01*
X4804947Y-13100508D01*
X4755156Y-13123247D01*
X4717711Y-13131206D01*
X4543247Y-13208882D01*
X4448061Y-13278039D01*
X4381193Y-13301898D01*
X4312041Y-13285817D01*
X4262561Y-13234903D01*
X4248000Y-13176103D01*
X4248000Y-12823896D01*
X4268002Y-12755775D01*
X4321658Y-12709282D01*
X4391932Y-12699178D01*
X4448060Y-12721959D01*
G37*
%TD.AperFunction*%
%TA.AperFunction,Conductor*%
G36*
X11912335Y-10622933D02*
G01*
X11922946Y-10628502D01*
X11996917Y-10667325D01*
X11996918Y-10667325D01*
X11996920Y-10667326D01*
X12146522Y-10704199D01*
X12163972Y-10708500D01*
X12163975Y-10708500D01*
X12336025Y-10708500D01*
X12336028Y-10708500D01*
X12503083Y-10667325D01*
X12577054Y-10628502D01*
X12587665Y-10622933D01*
X12646220Y-10608500D01*
X19003780Y-10608500D01*
X19062335Y-10622933D01*
X19072946Y-10628502D01*
X19146917Y-10667325D01*
X19146918Y-10667325D01*
X19146920Y-10667326D01*
X19296522Y-10704199D01*
X19313972Y-10708500D01*
X19313975Y-10708500D01*
X19486025Y-10708500D01*
X19486028Y-10708500D01*
X19653083Y-10667325D01*
X19727054Y-10628502D01*
X19737665Y-10622933D01*
X19796220Y-10608500D01*
X20876430Y-10608500D01*
X20944551Y-10628502D01*
X20991044Y-10682158D01*
X21001511Y-10749687D01*
X20986296Y-10874996D01*
X20986296Y-10875003D01*
X21007034Y-11045799D01*
X21007035Y-11045801D01*
X21068046Y-11206675D01*
X21068052Y-11206684D01*
X21068188Y-11206943D01*
X21068232Y-11207166D01*
X21070749Y-11213801D01*
X21069645Y-11214219D01*
X21082135Y-11276556D01*
X21056233Y-11342659D01*
X20998704Y-11384264D01*
X20956621Y-11391500D01*
X5730710Y-11391500D01*
X5662589Y-11371498D01*
X5637074Y-11349810D01*
X5611255Y-11321135D01*
X5456752Y-11208882D01*
X5282288Y-11131206D01*
X5261719Y-11126834D01*
X5244842Y-11123246D01*
X5182370Y-11089519D01*
X5148048Y-11027369D01*
X5152776Y-10956530D01*
X5195052Y-10899493D01*
X5244842Y-10876753D01*
X5282288Y-10868794D01*
X5456752Y-10791118D01*
X5611253Y-10678866D01*
X5621645Y-10667325D01*
X5637074Y-10650190D01*
X5697520Y-10612950D01*
X5730710Y-10608500D01*
X11853780Y-10608500D01*
X11912335Y-10622933D01*
G37*
%TD.AperFunction*%
%TA.AperFunction,Conductor*%
G36*
X12614643Y-8628502D02*
G01*
X12661136Y-8682158D01*
X12664334Y-8689819D01*
X12713158Y-8818558D01*
X12810897Y-8960156D01*
X12939682Y-9074250D01*
X12939683Y-9074250D01*
X12939685Y-9074252D01*
X13091504Y-9153933D01*
X13142527Y-9203301D01*
X13158759Y-9272417D01*
X13135047Y-9339337D01*
X13078920Y-9382814D01*
X13032949Y-9391500D01*
X12646220Y-9391500D01*
X12587665Y-9377067D01*
X12503087Y-9332677D01*
X12503079Y-9332673D01*
X12336031Y-9291500D01*
X12336028Y-9291500D01*
X12163972Y-9291500D01*
X12163968Y-9291500D01*
X11996920Y-9332673D01*
X11996912Y-9332677D01*
X11912335Y-9377067D01*
X11853780Y-9391500D01*
X5730710Y-9391500D01*
X5662589Y-9371498D01*
X5637074Y-9349810D01*
X5611255Y-9321135D01*
X5456752Y-9208882D01*
X5282288Y-9131206D01*
X5244842Y-9123246D01*
X5182370Y-9089519D01*
X5148048Y-9027369D01*
X5152776Y-8956530D01*
X5195052Y-8899493D01*
X5244842Y-8876753D01*
X5282288Y-8868794D01*
X5456752Y-8791118D01*
X5611253Y-8678866D01*
X5626021Y-8662465D01*
X5637074Y-8650190D01*
X5697520Y-8612950D01*
X5730710Y-8608500D01*
X12546522Y-8608500D01*
X12614643Y-8628502D01*
G37*
%TD.AperFunction*%
%TA.AperFunction,Conductor*%
G36*
X23137411Y-8628502D02*
G01*
X23162926Y-8650190D01*
X23188744Y-8678864D01*
X23188747Y-8678866D01*
X23343248Y-8791118D01*
X23517712Y-8868794D01*
X23555156Y-8876753D01*
X23617630Y-8910482D01*
X23651951Y-8972631D01*
X23647223Y-9043470D01*
X23604947Y-9100508D01*
X23555156Y-9123247D01*
X23517711Y-9131206D01*
X23343247Y-9208882D01*
X23188744Y-9321135D01*
X23162926Y-9349810D01*
X23102480Y-9387050D01*
X23069290Y-9391500D01*
X19796220Y-9391500D01*
X19737665Y-9377067D01*
X19653087Y-9332677D01*
X19653079Y-9332673D01*
X19486031Y-9291500D01*
X19486028Y-9291500D01*
X19313972Y-9291500D01*
X19313968Y-9291500D01*
X19146920Y-9332673D01*
X19146912Y-9332677D01*
X19062335Y-9377067D01*
X19003780Y-9391500D01*
X13657275Y-9391500D01*
X13589154Y-9371498D01*
X13542661Y-9317842D01*
X13532557Y-9247568D01*
X13562051Y-9182988D01*
X13598720Y-9153933D01*
X13750538Y-9074252D01*
X13750537Y-9074252D01*
X13750542Y-9074250D01*
X13879327Y-8960156D01*
X13977066Y-8818558D01*
X14025890Y-8689819D01*
X14068749Y-8633218D01*
X14135404Y-8608774D01*
X14143702Y-8608500D01*
X23069290Y-8608500D01*
X23137411Y-8628502D01*
G37*
%TD.AperFunction*%
%TA.AperFunction,Conductor*%
G36*
X13287335Y-6622933D02*
G01*
X13297946Y-6628502D01*
X13371917Y-6667325D01*
X13371918Y-6667325D01*
X13371920Y-6667326D01*
X13530394Y-6706385D01*
X13538972Y-6708500D01*
X13538975Y-6708500D01*
X13711025Y-6708500D01*
X13711028Y-6708500D01*
X13878083Y-6667325D01*
X13952054Y-6628502D01*
X13962665Y-6622933D01*
X14021220Y-6608500D01*
X23069290Y-6608500D01*
X23137411Y-6628502D01*
X23162926Y-6650190D01*
X23188744Y-6678864D01*
X23249999Y-6723368D01*
X23343248Y-6791118D01*
X23517712Y-6868794D01*
X23555156Y-6876753D01*
X23617630Y-6910482D01*
X23651951Y-6972631D01*
X23647223Y-7043470D01*
X23604947Y-7100508D01*
X23555156Y-7123247D01*
X23517711Y-7131206D01*
X23343247Y-7208882D01*
X23188744Y-7321135D01*
X23162926Y-7349810D01*
X23102480Y-7387050D01*
X23069290Y-7391500D01*
X5730710Y-7391500D01*
X5662589Y-7371498D01*
X5637074Y-7349810D01*
X5611255Y-7321135D01*
X5456752Y-7208882D01*
X5282288Y-7131206D01*
X5244842Y-7123246D01*
X5182370Y-7089519D01*
X5148048Y-7027369D01*
X5152776Y-6956530D01*
X5195052Y-6899493D01*
X5244842Y-6876753D01*
X5282288Y-6868794D01*
X5456752Y-6791118D01*
X5611253Y-6678866D01*
X5621645Y-6667325D01*
X5637074Y-6650190D01*
X5697520Y-6612950D01*
X5730710Y-6608500D01*
X13228780Y-6608500D01*
X13287335Y-6622933D01*
G37*
%TD.AperFunction*%
%TA.AperFunction,Conductor*%
G36*
X23137411Y-4628502D02*
G01*
X23162926Y-4650190D01*
X23188744Y-4678864D01*
X23188747Y-4678866D01*
X23343248Y-4791118D01*
X23517712Y-4868794D01*
X23555156Y-4876753D01*
X23617630Y-4910482D01*
X23651951Y-4972631D01*
X23647223Y-5043470D01*
X23604947Y-5100508D01*
X23555156Y-5123247D01*
X23517711Y-5131206D01*
X23343247Y-5208882D01*
X23188744Y-5321135D01*
X23162926Y-5349810D01*
X23102480Y-5387050D01*
X23069290Y-5391500D01*
X14021220Y-5391500D01*
X13962665Y-5377067D01*
X13878087Y-5332677D01*
X13878079Y-5332673D01*
X13711031Y-5291500D01*
X13711028Y-5291500D01*
X13538972Y-5291500D01*
X13538968Y-5291500D01*
X13371920Y-5332673D01*
X13371912Y-5332677D01*
X13287335Y-5377067D01*
X13228780Y-5391500D01*
X5730710Y-5391500D01*
X5662589Y-5371498D01*
X5637074Y-5349810D01*
X5611255Y-5321135D01*
X5456752Y-5208882D01*
X5282288Y-5131206D01*
X5275523Y-5129768D01*
X5244842Y-5123246D01*
X5182370Y-5089519D01*
X5148048Y-5027369D01*
X5152776Y-4956530D01*
X5195052Y-4899493D01*
X5244842Y-4876753D01*
X5282288Y-4868794D01*
X5456752Y-4791118D01*
X5611253Y-4678866D01*
X5611255Y-4678864D01*
X5637074Y-4650190D01*
X5697520Y-4612950D01*
X5730710Y-4608500D01*
X14694889Y-4608500D01*
X14694890Y-4608500D01*
X14855110Y-4608500D01*
X23069290Y-4608500D01*
X23137411Y-4628502D01*
G37*
%TD.AperFunction*%
%TA.AperFunction,Conductor*%
G36*
X14538276Y-2628502D02*
G01*
X14584769Y-2682158D01*
X14594873Y-2752432D01*
X14565379Y-2817012D01*
X14505653Y-2855396D01*
X14500309Y-2856839D01*
X14496919Y-2857674D01*
X14496912Y-2857677D01*
X14344573Y-2937630D01*
X14344568Y-2937634D01*
X14215785Y-3051727D01*
X14118045Y-3193326D01*
X14073729Y-3310180D01*
X14030871Y-3366782D01*
X13964215Y-3391226D01*
X13955917Y-3391500D01*
X5730710Y-3391500D01*
X5662589Y-3371498D01*
X5637074Y-3349810D01*
X5611255Y-3321135D01*
X5456752Y-3208882D01*
X5282288Y-3131206D01*
X5244842Y-3123246D01*
X5182370Y-3089519D01*
X5148048Y-3027369D01*
X5152776Y-2956530D01*
X5195052Y-2899493D01*
X5244842Y-2876753D01*
X5282288Y-2868794D01*
X5456752Y-2791118D01*
X5611253Y-2678866D01*
X5615185Y-2674499D01*
X5637074Y-2650190D01*
X5697520Y-2612950D01*
X5730710Y-2608500D01*
X14470155Y-2608500D01*
X14538276Y-2628502D01*
G37*
%TD.AperFunction*%
%TA.AperFunction,Conductor*%
G36*
X16551313Y-628502D02*
G01*
X16597806Y-682158D01*
X16607910Y-752432D01*
X16601004Y-779180D01*
X16582034Y-829200D01*
X16561296Y-999996D01*
X16561296Y-1000003D01*
X16582034Y-1170799D01*
X16601004Y-1220820D01*
X16606458Y-1291607D01*
X16572775Y-1354105D01*
X16510651Y-1388472D01*
X16483192Y-1391500D01*
X5730710Y-1391500D01*
X5662589Y-1371498D01*
X5637074Y-1349810D01*
X5611255Y-1321135D01*
X5456752Y-1208882D01*
X5282288Y-1131206D01*
X5244842Y-1123246D01*
X5182370Y-1089519D01*
X5148048Y-1027369D01*
X5152776Y-956530D01*
X5195052Y-899493D01*
X5244842Y-876753D01*
X5282288Y-868794D01*
X5456752Y-791118D01*
X5611253Y-678866D01*
X5617411Y-672027D01*
X5637074Y-650190D01*
X5697520Y-612950D01*
X5730710Y-608500D01*
X16483192Y-608500D01*
X16551313Y-628502D01*
G37*
%TD.AperFunction*%
%TA.AperFunction,Conductor*%
G36*
X9976313Y1371498D02*
G01*
X10022806Y1317842D01*
X10032910Y1247568D01*
X10026004Y1220820D01*
X10007034Y1170800D01*
X9986296Y1000004D01*
X9986296Y999997D01*
X10007034Y829201D01*
X10026004Y779180D01*
X10031458Y708393D01*
X9997775Y645895D01*
X9935651Y611528D01*
X9908192Y608500D01*
X5730710Y608500D01*
X5662589Y628502D01*
X5637074Y650190D01*
X5611255Y678865D01*
X5456752Y791118D01*
X5282288Y868794D01*
X5244842Y876754D01*
X5182370Y910481D01*
X5148048Y972631D01*
X5152776Y1043470D01*
X5195052Y1100507D01*
X5244842Y1123247D01*
X5282288Y1131206D01*
X5456752Y1208882D01*
X5611253Y1321134D01*
X5611255Y1321136D01*
X5637074Y1349810D01*
X5697520Y1387050D01*
X5730710Y1391500D01*
X9908192Y1391500D01*
X9976313Y1371498D01*
G37*
%TD.AperFunction*%
%TA.AperFunction,Conductor*%
G36*
X12280996Y3371498D02*
G01*
X12296428Y3359813D01*
X12401616Y3266624D01*
X12401617Y3266624D01*
X12401619Y3266622D01*
X12433452Y3249915D01*
X12553963Y3186666D01*
X12553964Y3186666D01*
X12553966Y3186665D01*
X12712440Y3147606D01*
X12721018Y3145491D01*
X12721021Y3145491D01*
X12893071Y3145491D01*
X12893074Y3145491D01*
X13060129Y3186666D01*
X13212476Y3266624D01*
X13317663Y3359813D01*
X13381916Y3390013D01*
X13401217Y3391500D01*
X23069290Y3391500D01*
X23137411Y3371498D01*
X23162926Y3349810D01*
X23188744Y3321136D01*
X23243297Y3281501D01*
X23343248Y3208882D01*
X23517712Y3131206D01*
X23555156Y3123247D01*
X23617630Y3089518D01*
X23651951Y3027369D01*
X23647223Y2956530D01*
X23604947Y2899492D01*
X23555156Y2876753D01*
X23517711Y2868794D01*
X23343247Y2791118D01*
X23188744Y2678865D01*
X23162926Y2650190D01*
X23102480Y2612950D01*
X23069290Y2608500D01*
X11871220Y2608500D01*
X11812665Y2622933D01*
X11728087Y2667323D01*
X11728079Y2667327D01*
X11561031Y2708500D01*
X11561028Y2708500D01*
X11388972Y2708500D01*
X11388968Y2708500D01*
X11221920Y2667327D01*
X11221912Y2667323D01*
X11137335Y2622933D01*
X11078780Y2608500D01*
X5730710Y2608500D01*
X5662589Y2628502D01*
X5637074Y2650190D01*
X5611255Y2678865D01*
X5456752Y2791118D01*
X5282288Y2868794D01*
X5244842Y2876754D01*
X5182370Y2910481D01*
X5148048Y2972631D01*
X5152776Y3043470D01*
X5195052Y3100507D01*
X5244842Y3123247D01*
X5282288Y3131206D01*
X5456752Y3208882D01*
X5611253Y3321134D01*
X5621645Y3332675D01*
X5637074Y3349810D01*
X5697520Y3387050D01*
X5730710Y3391500D01*
X12212875Y3391500D01*
X12280996Y3371498D01*
G37*
%TD.AperFunction*%
%TA.AperFunction,Conductor*%
G36*
X9737335Y5377067D02*
G01*
X9747946Y5371498D01*
X9821917Y5332675D01*
X9821918Y5332675D01*
X9821920Y5332674D01*
X9931688Y5305619D01*
X9988972Y5291500D01*
X9988975Y5291500D01*
X10161025Y5291500D01*
X10161028Y5291500D01*
X10328083Y5332675D01*
X10402054Y5371498D01*
X10412665Y5377067D01*
X10471220Y5391500D01*
X23069290Y5391500D01*
X23137411Y5371498D01*
X23162926Y5349810D01*
X23188744Y5321136D01*
X23234271Y5288059D01*
X23343248Y5208882D01*
X23517712Y5131206D01*
X23555156Y5123247D01*
X23617630Y5089518D01*
X23651951Y5027369D01*
X23647223Y4956530D01*
X23604947Y4899492D01*
X23555156Y4876753D01*
X23517711Y4868794D01*
X23343247Y4791118D01*
X23188744Y4678865D01*
X23162926Y4650190D01*
X23102480Y4612950D01*
X23069290Y4608500D01*
X5730710Y4608500D01*
X5662589Y4628502D01*
X5637074Y4650190D01*
X5611255Y4678865D01*
X5456752Y4791118D01*
X5282288Y4868794D01*
X5244842Y4876754D01*
X5182370Y4910481D01*
X5148048Y4972631D01*
X5152776Y5043470D01*
X5195052Y5100507D01*
X5244842Y5123247D01*
X5282288Y5131206D01*
X5456752Y5208882D01*
X5611253Y5321134D01*
X5621645Y5332675D01*
X5637074Y5349810D01*
X5697520Y5387050D01*
X5730710Y5391500D01*
X9678780Y5391500D01*
X9737335Y5377067D01*
G37*
%TD.AperFunction*%
%TA.AperFunction,Conductor*%
G36*
X4440908Y5283200D02*
G01*
X4443112Y5281635D01*
X4543248Y5208882D01*
X4717712Y5131206D01*
X4755156Y5123247D01*
X4817630Y5089518D01*
X4851951Y5027369D01*
X4847223Y4956530D01*
X4804947Y4899492D01*
X4755156Y4876753D01*
X4717711Y4868794D01*
X4543247Y4791118D01*
X4448061Y4721961D01*
X4381193Y4698102D01*
X4312041Y4714183D01*
X4262561Y4765097D01*
X4248000Y4823897D01*
X4248000Y5126920D01*
X4247999Y5126925D01*
X4243773Y5166226D01*
X4256377Y5236095D01*
X4304753Y5288059D01*
X4373544Y5305619D01*
X4440908Y5283200D01*
G37*
%TD.AperFunction*%
%TA.AperFunction,Conductor*%
G36*
X7887335Y7377067D02*
G01*
X7897946Y7371498D01*
X7971917Y7332675D01*
X7971918Y7332675D01*
X7971920Y7332674D01*
X8130394Y7293615D01*
X8138972Y7291500D01*
X8138975Y7291500D01*
X8311025Y7291500D01*
X8311028Y7291500D01*
X8478083Y7332675D01*
X8552054Y7371498D01*
X8562665Y7377067D01*
X8621220Y7391500D01*
X23069290Y7391500D01*
X23137411Y7371498D01*
X23162926Y7349810D01*
X23188744Y7321136D01*
X23231110Y7290355D01*
X23343248Y7208882D01*
X23517712Y7131206D01*
X23555156Y7123247D01*
X23617630Y7089518D01*
X23651951Y7027369D01*
X23647223Y6956530D01*
X23604947Y6899492D01*
X23555156Y6876753D01*
X23517711Y6868794D01*
X23343247Y6791118D01*
X23188744Y6678865D01*
X23162926Y6650190D01*
X23102480Y6612950D01*
X23069290Y6608500D01*
X10471220Y6608500D01*
X10412665Y6622933D01*
X10328087Y6667323D01*
X10328079Y6667327D01*
X10161031Y6708500D01*
X10161028Y6708500D01*
X9988972Y6708500D01*
X9988968Y6708500D01*
X9821920Y6667327D01*
X9821912Y6667323D01*
X9737335Y6622933D01*
X9678780Y6608500D01*
X5730710Y6608500D01*
X5662589Y6628502D01*
X5637074Y6650190D01*
X5611255Y6678865D01*
X5456752Y6791118D01*
X5282288Y6868794D01*
X5244842Y6876754D01*
X5182370Y6910481D01*
X5148048Y6972631D01*
X5152776Y7043470D01*
X5195052Y7100507D01*
X5244842Y7123247D01*
X5282288Y7131206D01*
X5456752Y7208882D01*
X5611253Y7321134D01*
X5621645Y7332675D01*
X5637074Y7349810D01*
X5697520Y7387050D01*
X5730710Y7391500D01*
X7828780Y7391500D01*
X7887335Y7377067D01*
G37*
%TD.AperFunction*%
%TA.AperFunction,Conductor*%
G36*
X11194470Y9371498D02*
G01*
X11240963Y9317842D01*
X11251067Y9247568D01*
X11221573Y9182988D01*
X11184904Y9153933D01*
X11076313Y9096941D01*
X11076308Y9096937D01*
X10947525Y8982844D01*
X10849785Y8841245D01*
X10792358Y8689820D01*
X10749500Y8633219D01*
X10682844Y8608774D01*
X10674546Y8608500D01*
X8621220Y8608500D01*
X8562665Y8622933D01*
X8478087Y8667323D01*
X8478079Y8667327D01*
X8311031Y8708500D01*
X8311028Y8708500D01*
X8138972Y8708500D01*
X8138968Y8708500D01*
X7971920Y8667327D01*
X7971912Y8667323D01*
X7887335Y8622933D01*
X7828780Y8608500D01*
X5730710Y8608500D01*
X5662589Y8628502D01*
X5637074Y8650190D01*
X5611255Y8678865D01*
X5456752Y8791118D01*
X5282288Y8868794D01*
X5244842Y8876754D01*
X5182370Y8910481D01*
X5148048Y8972631D01*
X5152776Y9043470D01*
X5195052Y9100507D01*
X5244842Y9123247D01*
X5282288Y9131206D01*
X5456752Y9208882D01*
X5611253Y9321134D01*
X5621645Y9332675D01*
X5637074Y9349810D01*
X5697520Y9387050D01*
X5730710Y9391500D01*
X11126349Y9391500D01*
X11194470Y9371498D01*
G37*
%TD.AperFunction*%
%TA.AperFunction,Conductor*%
G36*
X19562335Y11377067D02*
G01*
X19580897Y11367325D01*
X19646917Y11332675D01*
X19646918Y11332675D01*
X19646920Y11332674D01*
X19768629Y11302676D01*
X19813972Y11291500D01*
X19813975Y11291500D01*
X19986025Y11291500D01*
X19986028Y11291500D01*
X20153083Y11332675D01*
X20219103Y11367325D01*
X20237665Y11377067D01*
X20296220Y11391500D01*
X23069290Y11391500D01*
X23137411Y11371498D01*
X23162926Y11349810D01*
X23188744Y11321136D01*
X23235219Y11287370D01*
X23343248Y11208882D01*
X23517712Y11131206D01*
X23555156Y11123247D01*
X23617630Y11089518D01*
X23651951Y11027369D01*
X23647223Y10956530D01*
X23604947Y10899492D01*
X23555156Y10876753D01*
X23517711Y10868794D01*
X23343247Y10791118D01*
X23188744Y10678865D01*
X23162926Y10650190D01*
X23102480Y10612950D01*
X23069290Y10608500D01*
X21096220Y10608500D01*
X21037665Y10622933D01*
X20953087Y10667323D01*
X20953079Y10667327D01*
X20786031Y10708500D01*
X20786028Y10708500D01*
X20613972Y10708500D01*
X20613968Y10708500D01*
X20446920Y10667327D01*
X20446912Y10667323D01*
X20362335Y10622933D01*
X20303780Y10608500D01*
X12296220Y10608500D01*
X12237665Y10622933D01*
X12153087Y10667323D01*
X12153079Y10667327D01*
X11986031Y10708500D01*
X11986028Y10708500D01*
X11813972Y10708500D01*
X11813968Y10708500D01*
X11646920Y10667327D01*
X11646912Y10667323D01*
X11562335Y10622933D01*
X11503780Y10608500D01*
X5730710Y10608500D01*
X5662589Y10628502D01*
X5637074Y10650190D01*
X5611255Y10678865D01*
X5456752Y10791118D01*
X5282288Y10868794D01*
X5244842Y10876754D01*
X5182370Y10910481D01*
X5148048Y10972631D01*
X5152776Y11043470D01*
X5195052Y11100507D01*
X5244842Y11123247D01*
X5282288Y11131206D01*
X5456752Y11208882D01*
X5611253Y11321134D01*
X5615112Y11325420D01*
X5637074Y11349810D01*
X5697520Y11387050D01*
X5730710Y11391500D01*
X19503780Y11391500D01*
X19562335Y11377067D01*
G37*
%TD.AperFunction*%
%TA.AperFunction,Conductor*%
G36*
X4375160Y11332670D02*
G01*
X4383986Y11325420D01*
X4388743Y11321137D01*
X4388746Y11321135D01*
X4388747Y11321134D01*
X4543248Y11208882D01*
X4717712Y11131206D01*
X4755156Y11123247D01*
X4817630Y11089518D01*
X4851951Y11027369D01*
X4847223Y10956530D01*
X4804947Y10899492D01*
X4755156Y10876753D01*
X4717711Y10868794D01*
X4543247Y10791118D01*
X4421304Y10702521D01*
X4354436Y10678662D01*
X4285284Y10694743D01*
X4235804Y10745657D01*
X4229187Y10760425D01*
X4190444Y10864300D01*
X4102902Y10981241D01*
X4096532Y10987611D01*
X4098260Y10989340D01*
X4063590Y11035648D01*
X4058521Y11106464D01*
X4092542Y11168778D01*
X4100728Y11175872D01*
X4103259Y11178403D01*
X4103259Y11178405D01*
X4103261Y11178405D01*
X4143722Y11232455D01*
X4196290Y11302676D01*
X4198185Y11301257D01*
X4239263Y11342355D01*
X4308634Y11357464D01*
X4375160Y11332670D01*
G37*
%TD.AperFunction*%
%TA.AperFunction,Conductor*%
G36*
X15344551Y13371498D02*
G01*
X15391044Y13317842D01*
X15401511Y13250313D01*
X15386296Y13125004D01*
X15386296Y13124997D01*
X15407034Y12954201D01*
X15407035Y12954199D01*
X15468046Y12793325D01*
X15468052Y12793316D01*
X15468188Y12793057D01*
X15468232Y12792834D01*
X15470749Y12786199D01*
X15469645Y12785781D01*
X15482135Y12723444D01*
X15456233Y12657341D01*
X15398704Y12615736D01*
X15356621Y12608500D01*
X5730710Y12608500D01*
X5662589Y12628502D01*
X5637074Y12650190D01*
X5611255Y12678865D01*
X5456752Y12791118D01*
X5282288Y12868794D01*
X5244842Y12876754D01*
X5182370Y12910481D01*
X5148048Y12972631D01*
X5152776Y13043470D01*
X5195052Y13100507D01*
X5244842Y13123247D01*
X5282288Y13131206D01*
X5456752Y13208882D01*
X5611253Y13321134D01*
X5621645Y13332675D01*
X5637074Y13349810D01*
X5697520Y13387050D01*
X5730710Y13391500D01*
X15276430Y13391500D01*
X15344551Y13371498D01*
G37*
%TD.AperFunction*%
%TA.AperFunction,Conductor*%
G36*
X19237335Y15077067D02*
G01*
X19247946Y15071498D01*
X19321917Y15032675D01*
X19321918Y15032675D01*
X19321920Y15032674D01*
X19480394Y14993615D01*
X19488972Y14991500D01*
X19488975Y14991500D01*
X19661025Y14991500D01*
X19661028Y14991500D01*
X19828083Y15032675D01*
X19902054Y15071498D01*
X19912665Y15077067D01*
X19971220Y15091500D01*
X20253780Y15091500D01*
X20312335Y15077067D01*
X20322946Y15071498D01*
X20396917Y15032675D01*
X20396918Y15032675D01*
X20396920Y15032674D01*
X20555394Y14993615D01*
X20563972Y14991500D01*
X20563975Y14991500D01*
X20736025Y14991500D01*
X20736028Y14991500D01*
X20903083Y15032675D01*
X20977054Y15071498D01*
X20987665Y15077067D01*
X21046220Y15091500D01*
X23425134Y15091500D01*
X23493255Y15071498D01*
X23539748Y15017842D01*
X23549852Y14947568D01*
X23520358Y14882988D01*
X23476383Y14850394D01*
X23430637Y14830027D01*
X23343247Y14791118D01*
X23188744Y14678865D01*
X23162926Y14650190D01*
X23102480Y14612950D01*
X23069290Y14608500D01*
X20571220Y14608500D01*
X20512665Y14622933D01*
X20428087Y14667323D01*
X20428079Y14667327D01*
X20261031Y14708500D01*
X20261028Y14708500D01*
X20088972Y14708500D01*
X20088970Y14708500D01*
X19921914Y14667325D01*
X19856922Y14633214D01*
X19830980Y14623076D01*
X19792608Y14612794D01*
X19759996Y14608500D01*
X5730710Y14608500D01*
X5662589Y14628502D01*
X5637074Y14650190D01*
X5611255Y14678865D01*
X5456752Y14791118D01*
X5383129Y14823897D01*
X5323616Y14850394D01*
X5269521Y14896373D01*
X5248872Y14964300D01*
X5268224Y15032608D01*
X5321435Y15079610D01*
X5374866Y15091500D01*
X5380110Y15091500D01*
X19178780Y15091500D01*
X19237335Y15077067D01*
G37*
%TD.AperFunction*%
%TA.AperFunction,Conductor*%
G36*
X16602882Y19929498D02*
G01*
X16649375Y19875842D01*
X16659479Y19805568D01*
X16629985Y19740988D01*
X16623856Y19734405D01*
X15659856Y18770405D01*
X15597544Y18736379D01*
X15570761Y18733500D01*
X5576996Y18733500D01*
X5508875Y18753502D01*
X5502935Y18757564D01*
X5456752Y18791118D01*
X5282288Y18868794D01*
X5095487Y18908500D01*
X4904513Y18908500D01*
X4717711Y18868794D01*
X4543247Y18791118D01*
X4388744Y18678865D01*
X4260965Y18536952D01*
X4260958Y18536942D01*
X4170228Y18379792D01*
X4165473Y18371556D01*
X4159030Y18351727D01*
X4106457Y18189928D01*
X4086496Y18000000D01*
X4106457Y17810073D01*
X4136526Y17717530D01*
X4165473Y17628444D01*
X4165476Y17628439D01*
X4260958Y17463059D01*
X4260965Y17463049D01*
X4388744Y17321136D01*
X4435223Y17287367D01*
X4543248Y17208882D01*
X4717712Y17131206D01*
X4755156Y17123247D01*
X4817630Y17089518D01*
X4851951Y17027369D01*
X4847223Y16956530D01*
X4804947Y16899492D01*
X4755156Y16876753D01*
X4717711Y16868794D01*
X4543247Y16791118D01*
X4388746Y16678866D01*
X4265882Y16542412D01*
X4205436Y16505173D01*
X4134452Y16506525D01*
X4096737Y16525855D01*
X3985965Y16608779D01*
X3849093Y16659829D01*
X3788597Y16666334D01*
X2254000Y16666334D01*
X2254000Y15489000D01*
X4181501Y15489000D01*
X4249622Y15468998D01*
X4275137Y15447310D01*
X4388744Y15321136D01*
X4388747Y15321134D01*
X4543248Y15208882D01*
X4717712Y15131206D01*
X4755156Y15123247D01*
X4817630Y15089518D01*
X4851951Y15027369D01*
X4847223Y14956530D01*
X4804947Y14899492D01*
X4755156Y14876753D01*
X4717711Y14868794D01*
X4543247Y14791118D01*
X4448061Y14721961D01*
X4381193Y14698102D01*
X4312041Y14714183D01*
X4262561Y14765097D01*
X4248000Y14823897D01*
X4248000Y14981000D01*
X1872000Y14981000D01*
X1803879Y15001002D01*
X1757386Y15054658D01*
X1746000Y15107000D01*
X1746000Y16666334D01*
X211402Y16666334D01*
X189970Y16664029D01*
X120101Y16676634D01*
X68139Y16725012D01*
X50500Y16789307D01*
X50500Y19823500D01*
X70502Y19891621D01*
X124158Y19938114D01*
X176500Y19949500D01*
X16534761Y19949500D01*
X16602882Y19929498D01*
G37*
%TD.AperFunction*%
%TA.AperFunction,Conductor*%
G36*
X9315300Y17496498D02*
G01*
X9361793Y17442842D01*
X9371897Y17372568D01*
X9342403Y17307988D01*
X9325163Y17292547D01*
X9325275Y17292421D01*
X9319570Y17287368D01*
X9319570Y17287367D01*
X9303661Y17273273D01*
X9190785Y17173273D01*
X9093045Y17031674D01*
X9032034Y16870800D01*
X9011296Y16700004D01*
X9011296Y16699997D01*
X9032034Y16529201D01*
X9051004Y16479180D01*
X9056458Y16408393D01*
X9022775Y16345895D01*
X8960651Y16311528D01*
X8933192Y16308500D01*
X5943678Y16308500D01*
X5875557Y16328502D01*
X5834559Y16371500D01*
X5834523Y16371562D01*
X5739040Y16536944D01*
X5739038Y16536946D01*
X5739034Y16536952D01*
X5611255Y16678865D01*
X5456752Y16791118D01*
X5282288Y16868794D01*
X5244842Y16876754D01*
X5182370Y16910481D01*
X5148048Y16972631D01*
X5152776Y17043470D01*
X5195052Y17100507D01*
X5244842Y17123247D01*
X5282288Y17131206D01*
X5456752Y17208882D01*
X5611253Y17321134D01*
X5642946Y17356332D01*
X5739032Y17463047D01*
X5739032Y17463048D01*
X5739040Y17463056D01*
X5739045Y17463066D01*
X5740128Y17464555D01*
X5740986Y17465218D01*
X5743459Y17467963D01*
X5743960Y17467512D01*
X5796348Y17507912D01*
X5842069Y17516500D01*
X9247179Y17516500D01*
X9315300Y17496498D01*
G37*
%TD.AperFunction*%
%TA.AperFunction,Conductor*%
G36*
X19588882Y18921498D02*
G01*
X19609856Y18904595D01*
X19835943Y18678508D01*
X19864660Y18634093D01*
X19904097Y18530104D01*
X19918046Y18493325D01*
X20015785Y18351727D01*
X20144570Y18237633D01*
X20296917Y18157675D01*
X20342250Y18146502D01*
X20401191Y18113260D01*
X21001372Y17513079D01*
X21001373Y17513078D01*
X21001375Y17513077D01*
X21047191Y17486625D01*
X21140127Y17432968D01*
X21211847Y17413751D01*
X21294889Y17391500D01*
X21294890Y17391500D01*
X21455110Y17391500D01*
X23069290Y17391500D01*
X23137411Y17371498D01*
X23162926Y17349810D01*
X23188744Y17321136D01*
X23235223Y17287367D01*
X23343248Y17208882D01*
X23517712Y17131206D01*
X23555156Y17123247D01*
X23617630Y17089518D01*
X23651951Y17027369D01*
X23647223Y16956530D01*
X23604947Y16899492D01*
X23555156Y16876753D01*
X23517711Y16868794D01*
X23343247Y16791118D01*
X23188744Y16678865D01*
X23060965Y16536952D01*
X23060958Y16536942D01*
X23017277Y16461283D01*
X22965477Y16371562D01*
X22965441Y16371500D01*
X22914059Y16322507D01*
X22856322Y16308500D01*
X21046220Y16308500D01*
X20987665Y16322933D01*
X20903087Y16367323D01*
X20903079Y16367327D01*
X20736031Y16408500D01*
X20736028Y16408500D01*
X20563972Y16408500D01*
X20563968Y16408500D01*
X20396920Y16367327D01*
X20396912Y16367323D01*
X20312335Y16322933D01*
X20253780Y16308500D01*
X19971220Y16308500D01*
X19912665Y16322933D01*
X19828087Y16367323D01*
X19828079Y16367327D01*
X19661031Y16408500D01*
X19661028Y16408500D01*
X19622587Y16408500D01*
X19554466Y16428502D01*
X19507973Y16482158D01*
X19497869Y16552432D01*
X19527041Y16616309D01*
X19526887Y16616441D01*
X19527349Y16616983D01*
X19527363Y16617012D01*
X19527503Y16617164D01*
X19530095Y16620200D01*
X19530104Y16620208D01*
X19655051Y16792184D01*
X19751557Y16981588D01*
X19817246Y17183757D01*
X19850500Y17393713D01*
X19850500Y17606287D01*
X19817246Y17816243D01*
X19751557Y18018412D01*
X19655051Y18207816D01*
X19530104Y18379792D01*
X19530101Y18379795D01*
X19530099Y18379798D01*
X19379797Y18530100D01*
X19379794Y18530102D01*
X19379792Y18530104D01*
X19207816Y18655051D01*
X19113250Y18703235D01*
X19061637Y18751981D01*
X19044571Y18820896D01*
X19067472Y18888098D01*
X19123069Y18932250D01*
X19170455Y18941500D01*
X19520761Y18941500D01*
X19588882Y18921498D01*
G37*
%TD.AperFunction*%
%TD*%
M02*
