M48
; DRILL file {KiCad 8.0.2} date 2024-11-27T18:37:01-0600
; FORMAT={-:-/ absolute / inch / decimal}
; #@! TF.CreationDate,2024-11-27T18:37:01-06:00
; #@! TF.GenerationSoftware,Kicad,Pcbnew,8.0.2
; #@! TF.FileFunction,Plated,1,4,PTH
FMAT,2
INCH
; #@! TA.AperFunction,Plated,PTH,ViaDrill
T1C0.0157
; #@! TA.AperFunction,Plated,PTH,ComponentDrill
T2C0.0236
; #@! TA.AperFunction,Plated,PTH,ComponentDrill
T3C0.0394
; #@! TA.AperFunction,Plated,PTH,ComponentDrill
T4C0.1260
%
G90
G05
T1
X-0.3622Y0.0
X-0.002Y0.5249
X0.0Y0.7874
X0.0Y0.7437
X0.0Y0.6999
X0.0Y0.6562
X0.0Y0.6124
X0.0Y0.5687
X0.0Y0.4812
X0.0Y0.4374
X0.0Y0.3937
X0.0Y0.35
X0.0Y0.3062
X0.0Y0.2625
X0.0Y0.2187
X0.0Y0.175
X0.0Y0.1312
X0.0Y0.0875
X0.0Y0.0437
X0.0Y0.0
X0.0Y-0.0437
X0.0Y-0.0875
X0.0Y-0.1312
X0.0Y-0.175
X0.0Y-0.2187
X0.0Y-0.2625
X0.0Y-0.3062
X0.0Y-0.35
X0.0Y-0.3937
X0.0Y-0.4374
X0.0Y-0.4812
X0.0Y-0.5249
X0.0Y-0.5687
X0.0Y-0.6124
X0.0Y-0.6562
X0.0Y-0.6999
X0.0Y-0.7437
X0.0Y-0.7874
X0.5906Y0.7874
X0.5906Y0.7437
X0.5906Y0.6999
X0.5906Y0.6562
X0.5906Y0.6124
X0.5906Y0.5687
X0.5906Y0.5249
X0.5906Y0.4812
X0.5906Y0.4374
X0.5906Y0.3937
X0.5906Y0.35
X0.5906Y0.3062
X0.5906Y0.2625
X0.5906Y0.2187
X0.5906Y0.175
X0.5906Y0.1312
X0.5906Y0.0875
X0.5906Y0.0437
X0.5906Y0.0
X0.5906Y-0.0437
X0.5906Y-0.0875
X0.5906Y-0.1312
X0.5906Y-0.175
X0.5906Y-0.2187
X0.5906Y-0.2625
X0.5906Y-0.3062
X0.5906Y-0.35
X0.5906Y-0.3937
X0.5906Y-0.4374
X0.5906Y-0.4812
X0.5906Y-0.5249
X0.5906Y-0.5687
X0.5906Y-0.6124
X0.5906Y-0.6562
X0.5906Y-0.6999
X0.5906Y-0.7437
X0.5906Y-0.7874
T3
X-0.2417Y0.5998
X-0.2417Y0.4907
X-0.2417Y0.3817
X-0.2417Y0.2726
X-0.2417Y0.1636
X-0.2417Y0.0545
X-0.2417Y-0.0545
X-0.2417Y-0.1636
X-0.2417Y-0.2726
X-0.2417Y-0.3817
X-0.2417Y-0.4907
X-0.2417Y-0.5998
X-0.1299Y0.6543
X-0.1299Y0.5453
X-0.1299Y0.4362
X-0.1299Y0.3272
X-0.1299Y0.2181
X-0.1299Y0.1091
X-0.1299Y-0.0
X-0.1299Y-0.1091
X-0.1299Y-0.2181
X-0.1299Y-0.3272
X-0.1299Y-0.4362
X-0.1299Y-0.5453
X-0.1299Y-0.6543
X1.3939Y-0.8443
X1.3958Y0.8502
X1.4646Y-0.7736
X1.4665Y0.7795
X1.5353Y-0.7029
X1.5372Y0.7088
X1.5572Y-0.1971
X1.5572Y-0.2955
X1.5572Y-0.3939
X1.5572Y-0.4923
T4
X-0.1417Y0.9272
X-0.1417Y-0.9272
T2
G00X1.4634Y0.2843
M15
G01X1.5067Y0.2843
M16
G05
G00X1.4634Y-0.0559
M15
G01X1.5067Y-0.0559
M16
G05
G00X1.6378Y0.2843
M15
G01X1.6614Y0.2843
M16
G05
G00X1.6378Y-0.0559
M15
G01X1.6614Y-0.0559
M16
G05
M30
