M48
; DRILL file {KiCad 8.0.4-8.0.4-0~ubuntu22.04.1} date 2024-07-18T12:52:16-0600
; FORMAT={-:-/ absolute / inch / decimal}
; #@! TF.CreationDate,2024-07-18T12:52:16-06:00
; #@! TF.GenerationSoftware,Kicad,Pcbnew,8.0.4-8.0.4-0~ubuntu22.04.1
; #@! TF.FileFunction,Plated,1,2,PTH
FMAT,2
INCH
; #@! TA.AperFunction,Plated,PTH,ViaDrill
T1C0.0118
; #@! TA.AperFunction,Plated,PTH,ViaDrill
T2C0.0157
; #@! TA.AperFunction,Plated,PTH,ComponentDrill
T3C0.0394
%
G90
G05
T1
X4.414Y-3.098
X4.529Y-4.407
X4.529Y-4.432
X4.531Y-3.213
X4.552Y-3.31
X4.552Y-3.433
X4.564Y-3.596
X4.577Y-4.09
X4.585Y-3.09
X4.589Y-4.852
X4.612Y-2.985
X4.6665Y-3.6875
X4.673Y-3.835
X4.694Y-3.079
X4.696Y-4.02
X4.752Y-3.648
X4.776Y-3.174
X4.783Y-3.832
X4.8255Y-3.6405
X4.8498Y-3.8756
X4.861Y-4.0247
X4.861Y-3.998
X4.861Y-3.971
X4.89Y-3.601
X4.891Y-3.644
X4.897Y-4.808
X4.901Y-3.779
X4.919Y-3.871
X4.9208Y-3.5302
X4.929Y-5.059
X4.93Y-2.875
X4.93Y-2.928
X4.936Y-3.35
X4.9385Y-3.2845
X4.9405Y-3.2265
X4.9409Y-3.6371
X4.9409Y-3.8018
X4.943Y-3.001
X4.943Y-3.561
X4.943Y-4.161
X4.9466Y-5.4214
X4.9468Y-5.3702
X4.9477Y-5.2423
X4.9485Y-5.2935
X4.949Y-5.115
X4.9505Y-4.8925
X4.951Y-4.94
X4.951Y-4.976
X4.952Y-3.14
X4.953Y-3.18
X4.96Y-5.474
X4.963Y-3.88
X4.965Y-5.208
X4.966Y-3.719
X4.969Y-4.825
X4.97Y-4.615
X4.972Y-3.032
X5.002Y-3.744
X5.007Y-5.128
X5.013Y-4.436
X5.016Y-3.422
X5.023Y-4.225
X5.024Y-3.701
X5.034Y-4.623
X5.043Y-4.436
X5.066Y-3.587
X5.072Y-2.92
X5.079Y-3.194
X5.08Y-4.141
X5.08Y-5.053
X5.0814Y-3.523
X5.084Y-4.105
X5.085Y-2.857
X5.087Y-4.704
X5.088Y-3.358
X5.1Y-2.881
X5.102Y-3.591
X5.106Y-2.76
X5.113Y-3.467
X5.118Y-3.231
X5.1186Y-3.0586
X5.126Y-3.504
X5.131Y-4.177
X5.134Y-2.937
X5.14Y-4.049
X5.146Y-3.549
X5.148Y-2.881
X5.164Y-5.466
X5.168Y-3.195
X5.1765Y-3.4735
X5.183Y-5.699
X5.19Y-4.142
X5.196Y-3.296
X5.198Y-3.517
X5.2Y-2.9054
X5.203Y-3.566
X5.217Y-4.268
X5.219Y-3.095
X5.219Y-3.117
X5.2572Y-3.9908
X5.26Y-4.279
X5.2685Y-2.8065
X5.271Y-3.024
X5.279Y-5.196
X5.2822Y-3.9908
X5.284Y-3.689
X5.294Y-2.807
X5.2944Y-2.9631
X5.3008Y-3.2962
X5.3038Y-3.1102
X5.306Y-5.171
X5.3092Y-3.9908
X5.3152Y-4.1678
X5.32Y-2.9054
X5.321Y-2.857
X5.327Y-3.214
X5.328Y-4.849
X5.331Y-3.542
X5.334Y-5.221
X5.335Y-3.275
X5.345Y-3.131
X5.346Y-2.968
X5.349Y-2.939
X5.352Y-3.432
X5.354Y-3.843
X5.3775Y-4.4205
X5.378Y-4.104
X5.39Y-3.401
X5.394Y-4.166
X5.4105Y-3.4215
X5.411Y-2.884
X5.411Y-4.13
X5.411Y-4.392
X5.421Y-3.642
X5.421Y-3.668
X5.421Y-3.805
X5.421Y-3.83
X5.428Y-4.258
X5.433Y-4.693
X5.442Y-2.961
X5.4428Y-4.5562
X5.4428Y-4.5812
X5.446Y-2.918
X5.454Y-3.462
X5.458Y-3.511
X5.458Y-3.668
X5.458Y-3.83
X5.472Y-3.167
X5.472Y-3.354
X5.4796Y-3.645
X5.4796Y-3.8019
X5.485Y-3.492
X5.487Y-4.399
X5.497Y-3.424
X5.5023Y-4.3281
X5.503Y-3.846
X5.507Y-3.376
X5.511Y-3.628
X5.525Y-3.665
X5.5316Y-3.825
X5.5344Y-3.543
X5.542Y-3.448
X5.545Y-4.963
X5.556Y-3.666
X5.556Y-3.853
X5.578Y-3.398
X5.5785Y-3.876
X5.584Y-3.667
X5.591Y-3.427
X5.606Y-3.633
X5.609Y-3.954
X5.615Y-5.033
X5.615Y-5.731
X5.617Y-3.213
X5.624Y-3.386
X5.628Y-3.925
X5.6313Y-3.684
X5.6529Y-3.6591
X5.6529Y-3.9535
X5.689Y-5.015
X5.7652Y-3.656
X5.87Y-5.068
X5.89Y-3.558
X5.891Y-4.078
X5.9Y-5.688
X6.043Y-5.015
X6.301Y-2.906
X6.333Y-2.656
X6.61Y-3.188
X6.669Y-2.67
X6.669Y-3.215
X6.68Y-3.889
X6.681Y-5.264
X6.706Y-5.239
X6.714Y-3.891
X6.734Y-4.727
X6.734Y-5.211
X6.771Y-4.155
X6.787Y-3.972
X6.788Y-3.898
X6.8Y-4.232
X6.811Y-4.298
X6.816Y-4.161
X6.992Y-4.582
X7.012Y-2.883
X7.012Y-2.913
X7.012Y-2.942
X7.013Y-3.252
X7.013Y-3.279
X7.013Y-3.306
X7.084Y-2.892
X7.135Y-2.683
X7.1351Y-2.6409
X7.261Y-2.761
T2
X6.134Y-2.805
X6.166Y-2.805
X6.199Y-2.805
T3
X4.184Y-2.6978
X4.184Y-2.7978
X4.184Y-2.8978
X4.184Y-2.9978
X4.184Y-3.0978
X4.184Y-3.1978
X4.184Y-3.2978
X4.184Y-3.3978
X4.184Y-3.4978
X4.184Y-3.5978
X4.184Y-3.6978
X4.184Y-3.7978
X4.184Y-3.8978
X4.184Y-3.9978
X4.184Y-4.0978
X4.184Y-4.1978
X4.184Y-4.2978
X4.184Y-4.3978
X4.184Y-4.4978
X4.184Y-4.5978
X4.184Y-4.6978
X4.184Y-4.7978
X4.184Y-4.8978
X4.184Y-4.9978
X4.184Y-5.0978
X4.284Y-2.6978
X4.284Y-2.7978
X4.284Y-2.8978
X4.284Y-2.9978
X4.284Y-3.0978
X4.284Y-3.1978
X4.284Y-3.2978
X4.284Y-3.3978
X4.284Y-3.4978
X4.284Y-3.5978
X4.284Y-3.6978
X4.284Y-3.7978
X4.284Y-3.8978
X4.284Y-3.9978
X4.284Y-4.0978
X4.284Y-4.1978
X4.284Y-4.2978
X4.284Y-4.3978
X4.284Y-4.4978
X4.284Y-4.5978
X4.284Y-4.6978
X4.284Y-4.7978
X4.284Y-4.8978
X4.284Y-4.9978
X4.284Y-5.0978
X4.4119Y-5.4041
X4.4119Y-5.5026
X4.4119Y-5.601
X4.4119Y-5.6994
X4.512Y-2.774
X4.612Y-2.774
X4.712Y-2.774
X5.087Y-3.9
X5.187Y-3.9
X5.573Y-3.081
X5.673Y-3.081
X5.773Y-3.081
X5.7963Y-3.7618
X5.7963Y-3.8618
X5.7963Y-3.9618
X5.7963Y-4.0618
X5.7963Y-4.1618
X5.7963Y-4.2618
X5.7963Y-4.3618
X5.7963Y-4.4618
X5.7963Y-4.5618
X5.7963Y-4.6618
X5.7963Y-4.7618
X5.7963Y-4.8618
X5.7963Y-4.9618
X5.7963Y-5.0618
X5.7963Y-5.1618
X5.7963Y-5.2618
X5.7963Y-5.3618
X5.7963Y-5.4618
X5.7963Y-5.5618
X5.7963Y-5.6618
X5.9233Y-4.4874
X6.0233Y-4.4874
X6.026Y-2.7
X6.026Y-3.0937
X6.1233Y-4.4874
X6.126Y-2.7
X6.126Y-3.0937
X6.4963Y-3.7618
X6.4963Y-3.8618
X6.4963Y-3.9618
X6.4963Y-4.0618
X6.4963Y-4.1618
X6.4963Y-4.2618
X6.4963Y-4.3618
X6.4963Y-4.4618
X6.4963Y-4.5618
X6.4963Y-4.6618
X6.4963Y-4.7618
X6.4963Y-4.8618
X6.4963Y-4.9618
X6.4963Y-5.0618
X6.4963Y-5.1618
X6.4963Y-5.2618
X6.4963Y-5.3618
X6.4963Y-5.4618
X6.4963Y-5.5618
X6.4963Y-5.6618
X6.605Y-2.738
X6.705Y-2.738
X7.314Y-3.065
X7.314Y-3.165
X7.314Y-3.265
M30
