%TF.GenerationSoftware,KiCad,Pcbnew,(5.1.6-0-10_14)*%
%TF.CreationDate,2021-03-30T09:57:07-05:00*%
%TF.ProjectId,bluepill_scsi,626c7565-7069-46c6-9c5f-736373692e6b,rev?*%
%TF.SameCoordinates,Original*%
%TF.FileFunction,Soldermask,Bot*%
%TF.FilePolarity,Negative*%
%FSLAX46Y46*%
G04 Gerber Fmt 4.6, Leading zero omitted, Abs format (unit mm)*
G04 Created by KiCad (PCBNEW (5.1.6-0-10_14)) date 2021-03-30 09:57:07*
%MOMM*%
%LPD*%
G01*
G04 APERTURE LIST*
%TA.AperFunction,Profile*%
%ADD10C,0.050000*%
%TD*%
%ADD11O,2.350000X1.827200*%
%ADD12R,2.350000X1.827200*%
%ADD13C,2.800000*%
%ADD14C,1.800000*%
%ADD15R,1.800000X1.800000*%
%ADD16O,1.800000X1.800000*%
%ADD17R,1.700000X1.700000*%
%ADD18O,1.700000X1.700000*%
%ADD19R,1.350000X1.350000*%
%ADD20C,1.350000*%
%ADD21R,1.900000X1.900000*%
%ADD22O,1.900000X1.900000*%
G04 APERTURE END LIST*
D10*
X71755000Y-149225000D02*
X71120000Y-149225000D01*
X71120000Y-147955000D02*
X71120000Y-149225000D01*
X114935000Y-149225000D02*
X71755000Y-149225000D01*
X114935000Y-147955000D02*
X114935000Y-149225000D01*
X114935000Y-75565000D02*
X71120000Y-75565000D01*
X114935000Y-147955000D02*
X114935000Y-75565000D01*
X71120000Y-147955000D02*
X71120000Y-75565000D01*
D11*
%TO.C,U1*%
X90805000Y-83083400D03*
X90805000Y-85674200D03*
X90805000Y-88214200D03*
X90805000Y-90754200D03*
X90805000Y-93294200D03*
X90805000Y-95834200D03*
X90805000Y-98374200D03*
X90805000Y-100914200D03*
X90805000Y-103454200D03*
X90805000Y-105994200D03*
X90805000Y-108534200D03*
X90805000Y-111074200D03*
X90805000Y-113614200D03*
X90805000Y-116154200D03*
X90805000Y-118694200D03*
X90805000Y-121234200D03*
X90805000Y-123774200D03*
X90805000Y-126314200D03*
X90805000Y-128854200D03*
X90805000Y-131394200D03*
X75565000Y-131394200D03*
X75565000Y-128854200D03*
X75565000Y-126314200D03*
X75565000Y-123774200D03*
X75565000Y-121234200D03*
X75565000Y-118694200D03*
X75565000Y-116154200D03*
X75565000Y-113614200D03*
X75565000Y-111074200D03*
X75565000Y-108534200D03*
X75565000Y-105994200D03*
X75565000Y-103454200D03*
X75565000Y-100914200D03*
X75565000Y-98374200D03*
X75565000Y-95834200D03*
X75565000Y-93294200D03*
X75565000Y-90754200D03*
X75565000Y-88214200D03*
X75565000Y-85674200D03*
D12*
X75565000Y-83134200D03*
%TD*%
D13*
%TO.C,H1*%
X75057000Y-78867000D03*
%TD*%
D14*
%TO.C,J2*%
X107315000Y-81915000D03*
X107315000Y-84455000D03*
X107315000Y-86995000D03*
X107315000Y-89535000D03*
X107315000Y-92075000D03*
X107315000Y-94615000D03*
X107315000Y-97155000D03*
X107315000Y-99695000D03*
X107315000Y-102235000D03*
X107315000Y-104775000D03*
X107315000Y-107315000D03*
X107315000Y-109855000D03*
X107315000Y-112395000D03*
X107315000Y-114935000D03*
X107315000Y-117475000D03*
X107315000Y-120015000D03*
X107315000Y-122555000D03*
X107315000Y-125095000D03*
X107315000Y-127635000D03*
X107315000Y-130175000D03*
X107315000Y-132715000D03*
X107315000Y-135255000D03*
X107315000Y-137795000D03*
X107315000Y-140335000D03*
X107315000Y-142875000D03*
X109855000Y-81915000D03*
X109855000Y-84455000D03*
X109855000Y-86995000D03*
X109855000Y-89535000D03*
X109855000Y-92075000D03*
X109855000Y-94615000D03*
X109855000Y-97155000D03*
X109855000Y-99695000D03*
X109855000Y-102235000D03*
X109855000Y-104775000D03*
X109855000Y-107315000D03*
X109855000Y-109855000D03*
X109855000Y-112395000D03*
X109855000Y-114935000D03*
X109855000Y-117475000D03*
X109855000Y-120015000D03*
X109855000Y-122555000D03*
X109855000Y-125095000D03*
X109855000Y-127635000D03*
X109855000Y-130175000D03*
X109855000Y-132715000D03*
X109855000Y-135255000D03*
X109855000Y-137795000D03*
X109855000Y-140335000D03*
G36*
G01*
X110755000Y-142239705D02*
X110755000Y-143510295D01*
G75*
G02*
X110490295Y-143775000I-264705J0D01*
G01*
X109219705Y-143775000D01*
G75*
G02*
X108955000Y-143510295I0J264705D01*
G01*
X108955000Y-142239705D01*
G75*
G02*
X109219705Y-141975000I264705J0D01*
G01*
X110490295Y-141975000D01*
G75*
G02*
X110755000Y-142239705I0J-264705D01*
G01*
G37*
%TD*%
D15*
%TO.C,JP1*%
X100965000Y-81915000D03*
D16*
X100965000Y-79375000D03*
%TD*%
%TO.C,JP2*%
X97155000Y-79375000D03*
D15*
X97155000Y-81915000D03*
%TD*%
D17*
%TO.C,RN1*%
X97155000Y-86995000D03*
D18*
X97155000Y-89535000D03*
X97155000Y-92075000D03*
X97155000Y-94615000D03*
X97155000Y-97155000D03*
X97155000Y-99695000D03*
X97155000Y-102235000D03*
X97155000Y-104775000D03*
X97155000Y-107315000D03*
X97155000Y-109855000D03*
%TD*%
D17*
%TO.C,RN2*%
X100965000Y-86995000D03*
D18*
X100965000Y-89535000D03*
X100965000Y-92075000D03*
X100965000Y-94615000D03*
X100965000Y-97155000D03*
X100965000Y-99695000D03*
X100965000Y-102235000D03*
X100965000Y-104775000D03*
X100965000Y-107315000D03*
X100965000Y-109855000D03*
%TD*%
%TO.C,RN3*%
X97155000Y-113665000D03*
X97155000Y-116205000D03*
X97155000Y-118745000D03*
X97155000Y-121285000D03*
X97155000Y-123825000D03*
X97155000Y-126365000D03*
X97155000Y-128905000D03*
X97155000Y-131445000D03*
X97155000Y-133985000D03*
D17*
X97155000Y-136525000D03*
%TD*%
D18*
%TO.C,RN4*%
X100965000Y-113665000D03*
X100965000Y-116205000D03*
X100965000Y-118745000D03*
X100965000Y-121285000D03*
X100965000Y-123825000D03*
X100965000Y-126365000D03*
X100965000Y-128905000D03*
X100965000Y-131445000D03*
X100965000Y-133985000D03*
D17*
X100965000Y-136525000D03*
%TD*%
D15*
%TO.C,J3*%
X73025000Y-146685000D03*
D16*
X73025000Y-144145000D03*
X73025000Y-141605000D03*
X73025000Y-139065000D03*
%TD*%
D19*
%TO.C,J4*%
X93345000Y-144145000D03*
D20*
X95845000Y-144145000D03*
X98345000Y-144145000D03*
X100845000Y-144145000D03*
%TD*%
D21*
%TO.C,D4*%
X79375000Y-77851000D03*
D22*
X86995000Y-77851000D03*
%TD*%
%TO.C,D5*%
X86995000Y-81407000D03*
D21*
X79375000Y-81407000D03*
%TD*%
M02*
