M48
; DRILL file {KiCad (5.1.6-0-10_14)} date Tuesday, March 30, 2021 at 09:57:37 AM
; FORMAT={-:-/ absolute / inch / decimal}
; #@! TF.CreationDate,2021-03-30T09:57:37-05:00
; #@! TF.GenerationSoftware,Kicad,Pcbnew,(5.1.6-0-10_14)
; #@! TF.FileFunction,Plated,1,2,PTH
FMAT,2
INCH
T1C0.0157
T2C0.0315
T3C0.0354
T4C0.0394
T5C0.0400
%
G90
G05
T1
X2.975Y-5.325
X3.075Y-4.775
X3.1541Y-5.0376
X3.175Y-3.625
X3.175Y-4.375
X3.2827Y-4.6673
X3.3569Y-4.8833
X3.375Y-4.675
X3.475Y-3.875
X3.475Y-4.925
X3.675Y-3.125
X3.675Y-4.125
T2
X3.825Y-4.475
X3.825Y-4.575
X3.825Y-4.675
X3.825Y-4.775
X3.825Y-4.875
X3.825Y-4.975
X3.825Y-5.075
X3.825Y-5.175
X3.825Y-5.275
X3.825Y-5.375
X3.975Y-4.475
X3.975Y-4.575
X3.975Y-4.675
X3.975Y-4.775
X3.975Y-4.875
X3.975Y-4.975
X3.975Y-5.075
X3.975Y-5.175
X3.975Y-5.275
X3.975Y-5.375
X3.825Y-3.425
X3.825Y-3.525
X3.825Y-3.625
X3.825Y-3.725
X3.825Y-3.825
X3.825Y-3.925
X3.825Y-4.025
X3.825Y-4.125
X3.825Y-4.225
X3.825Y-4.325
X3.975Y-3.425
X3.975Y-3.525
X3.975Y-3.625
X3.975Y-3.725
X3.975Y-3.825
X3.975Y-3.925
X3.975Y-4.025
X3.975Y-4.125
X3.975Y-4.225
X3.975Y-4.325
T3
X3.125Y-3.065
X3.425Y-3.065
X3.675Y-5.675
X3.7734Y-5.675
X3.8719Y-5.675
X3.9703Y-5.675
X3.125Y-3.205
X3.425Y-3.205
T4
X2.875Y-5.475
X2.875Y-5.575
X2.875Y-5.675
X2.875Y-5.775
X3.825Y-3.125
X3.825Y-3.225
X4.225Y-3.225
X4.225Y-3.325
X4.225Y-3.425
X4.225Y-3.525
X4.225Y-3.625
X4.225Y-3.725
X4.225Y-3.825
X4.225Y-3.925
X4.225Y-4.025
X4.225Y-4.125
X4.225Y-4.225
X4.225Y-4.325
X4.225Y-4.425
X4.225Y-4.525
X4.225Y-4.625
X4.225Y-4.725
X4.225Y-4.825
X4.225Y-4.925
X4.225Y-5.025
X4.225Y-5.125
X4.225Y-5.225
X4.225Y-5.325
X4.225Y-5.425
X4.225Y-5.525
X4.225Y-5.625
X4.325Y-3.225
X4.325Y-3.325
X4.325Y-3.425
X4.325Y-3.525
X4.325Y-3.625
X4.325Y-3.725
X4.325Y-3.825
X4.325Y-3.925
X4.325Y-4.025
X4.325Y-4.125
X4.325Y-4.225
X4.325Y-4.325
X4.325Y-4.425
X4.325Y-4.525
X4.325Y-4.625
X4.325Y-4.725
X4.325Y-4.825
X4.325Y-4.925
X4.325Y-5.025
X4.325Y-5.125
X4.325Y-5.225
X4.325Y-5.325
X4.325Y-5.425
X4.325Y-5.525
X4.325Y-5.625
X3.975Y-3.125
X3.975Y-3.225
T5
X2.975Y-3.273
X2.975Y-3.373
X2.975Y-3.473
X2.975Y-3.573
X2.975Y-3.673
X2.975Y-3.773
X2.975Y-3.873
X2.975Y-3.973
X2.975Y-4.073
X2.975Y-4.173
X2.975Y-4.273
X2.975Y-4.373
X2.975Y-4.473
X2.975Y-4.573
X2.975Y-4.673
X2.975Y-4.773
X2.975Y-4.873
X2.975Y-4.973
X2.975Y-5.073
X2.975Y-5.173
X3.575Y-3.271
X3.575Y-3.373
X3.575Y-3.473
X3.575Y-3.573
X3.575Y-3.673
X3.575Y-3.773
X3.575Y-3.873
X3.575Y-3.973
X3.575Y-4.073
X3.575Y-4.173
X3.575Y-4.273
X3.575Y-4.373
X3.575Y-4.473
X3.575Y-4.573
X3.575Y-4.673
X3.575Y-4.773
X3.575Y-4.873
X3.575Y-4.973
X3.575Y-5.073
X3.575Y-5.173
T0
M30
