%FSLAX45Y45*%
G04 Gerber Fmt 4.5, Leading zero omitted, Abs format (unit mm)*
G04 Created by KiCad (PCBNEW (5.1.10-1-10_14)) date 2021-10-09 14:12:27*
%MOMM*%
%LPD*%
G01*
G04 APERTURE LIST*
%TA.AperFunction,Profile*%
%ADD10C,0.050000*%
%TD*%
%ADD11C,0.200000*%
%ADD12C,0.300000*%
G04 APERTURE END LIST*
D10*
X12509500Y-14970500D02*
G75*
G02*
X12484100Y-14995900I-25400J0D01*
G01*
X8808500Y-14995500D02*
G75*
G02*
X8783100Y-14970100I0J25400D01*
G01*
X8783500Y-9613900D02*
G75*
G02*
X8808900Y-9588500I25400J0D01*
G01*
X12471400Y-9588500D02*
G75*
G02*
X12509500Y-9626600I0J-38100D01*
G01*
X12484100Y-14995900D02*
X8808500Y-14995500D01*
X12471400Y-9588500D02*
X8808900Y-9588500D01*
X12509500Y-14970500D02*
X12509500Y-9626600D01*
X8783100Y-14970100D02*
X8783500Y-9613900D01*
D11*
X9338500Y-10300500D02*
X9378500Y-10340500D01*
X9378500Y-10300500D02*
X9338500Y-10340500D01*
X9539350Y-13739420D02*
X9579350Y-13779420D01*
X9579350Y-13739420D02*
X9539350Y-13779420D01*
X9663500Y-9900500D02*
X9703500Y-9940500D01*
X9703500Y-9900500D02*
X9663500Y-9940500D01*
X9688880Y-11371830D02*
X9728880Y-11411830D01*
X9728880Y-11371830D02*
X9688880Y-11411830D01*
X9713500Y-12625500D02*
X9753500Y-12665500D01*
X9753500Y-12625500D02*
X9713500Y-12665500D01*
X9764380Y-13924190D02*
X9804380Y-13964190D01*
X9804380Y-13924190D02*
X9764380Y-13964190D01*
X9958900Y-11671670D02*
X9998900Y-11711670D01*
X9998900Y-11671670D02*
X9958900Y-11711670D01*
X10063500Y-11375500D02*
X10103500Y-11415500D01*
X10103500Y-11375500D02*
X10063500Y-11415500D01*
X10703620Y-13109920D02*
X10743620Y-13149920D01*
X10743620Y-13109920D02*
X10703620Y-13149920D01*
X11336380Y-10568870D02*
X11376380Y-10608870D01*
X11376380Y-10568870D02*
X11336380Y-10608870D01*
X11528180Y-10620390D02*
X11568180Y-10660390D01*
X11568180Y-10620390D02*
X11528180Y-10660390D01*
X11638500Y-10400500D02*
X11678500Y-10440500D01*
X11678500Y-10400500D02*
X11638500Y-10440500D01*
X12263500Y-12150500D02*
X12303500Y-12190500D01*
X12303500Y-12150500D02*
X12263500Y-12190500D01*
X10871500Y-9817500D02*
G75*
G03*
X10871500Y-9817500I-40000J0D01*
G01*
X10871500Y-10071500D02*
G75*
G03*
X10871500Y-10071500I-40000J0D01*
G01*
X10871500Y-10325500D02*
G75*
G03*
X10871500Y-10325500I-40000J0D01*
G01*
X10871500Y-10579500D02*
G75*
G03*
X10871500Y-10579500I-40000J0D01*
G01*
X10871500Y-10833500D02*
G75*
G03*
X10871500Y-10833500I-40000J0D01*
G01*
X10871500Y-11087500D02*
G75*
G03*
X10871500Y-11087500I-40000J0D01*
G01*
X10871500Y-11341500D02*
G75*
G03*
X10871500Y-11341500I-40000J0D01*
G01*
X10871500Y-11595500D02*
G75*
G03*
X10871500Y-11595500I-40000J0D01*
G01*
X10871500Y-11849500D02*
G75*
G03*
X10871500Y-11849500I-40000J0D01*
G01*
X10871500Y-12103500D02*
G75*
G03*
X10871500Y-12103500I-40000J0D01*
G01*
X10871500Y-12484500D02*
G75*
G03*
X10871500Y-12484500I-40000J0D01*
G01*
X10871500Y-12738500D02*
G75*
G03*
X10871500Y-12738500I-40000J0D01*
G01*
X10871500Y-12992500D02*
G75*
G03*
X10871500Y-12992500I-40000J0D01*
G01*
X10871500Y-13246500D02*
G75*
G03*
X10871500Y-13246500I-40000J0D01*
G01*
X10871500Y-13500500D02*
G75*
G03*
X10871500Y-13500500I-40000J0D01*
G01*
X10871500Y-13754500D02*
G75*
G03*
X10871500Y-13754500I-40000J0D01*
G01*
X10871500Y-14008500D02*
G75*
G03*
X10871500Y-14008500I-40000J0D01*
G01*
X10871500Y-14262500D02*
G75*
G03*
X10871500Y-14262500I-40000J0D01*
G01*
X10871500Y-14516500D02*
G75*
G03*
X10871500Y-14516500I-40000J0D01*
G01*
X10871500Y-14770500D02*
G75*
G03*
X10871500Y-14770500I-40000J0D01*
G01*
X11252500Y-9817500D02*
G75*
G03*
X11252500Y-9817500I-40000J0D01*
G01*
X11252500Y-10071500D02*
G75*
G03*
X11252500Y-10071500I-40000J0D01*
G01*
X11252500Y-10325500D02*
G75*
G03*
X11252500Y-10325500I-40000J0D01*
G01*
X11252500Y-10579500D02*
G75*
G03*
X11252500Y-10579500I-40000J0D01*
G01*
X11252500Y-10833500D02*
G75*
G03*
X11252500Y-10833500I-40000J0D01*
G01*
X11252500Y-11087500D02*
G75*
G03*
X11252500Y-11087500I-40000J0D01*
G01*
X11252500Y-11341500D02*
G75*
G03*
X11252500Y-11341500I-40000J0D01*
G01*
X11252500Y-11595500D02*
G75*
G03*
X11252500Y-11595500I-40000J0D01*
G01*
X11252500Y-11849500D02*
G75*
G03*
X11252500Y-11849500I-40000J0D01*
G01*
X11252500Y-12103500D02*
G75*
G03*
X11252500Y-12103500I-40000J0D01*
G01*
X11252500Y-12484500D02*
G75*
G03*
X11252500Y-12484500I-40000J0D01*
G01*
X11252500Y-12738500D02*
G75*
G03*
X11252500Y-12738500I-40000J0D01*
G01*
X11252500Y-12992500D02*
G75*
G03*
X11252500Y-12992500I-40000J0D01*
G01*
X11252500Y-13246500D02*
G75*
G03*
X11252500Y-13246500I-40000J0D01*
G01*
X11252500Y-13500500D02*
G75*
G03*
X11252500Y-13500500I-40000J0D01*
G01*
X11252500Y-13754500D02*
G75*
G03*
X11252500Y-13754500I-40000J0D01*
G01*
X11252500Y-14008500D02*
G75*
G03*
X11252500Y-14008500I-40000J0D01*
G01*
X11252500Y-14262500D02*
G75*
G03*
X11252500Y-14262500I-40000J0D01*
G01*
X11252500Y-14516500D02*
G75*
G03*
X11252500Y-14516500I-40000J0D01*
G01*
X11252500Y-14770500D02*
G75*
G03*
X11252500Y-14770500I-40000J0D01*
G01*
X9708500Y-14050500D02*
X9708500Y-14140500D01*
X9663500Y-14095500D02*
X9753500Y-14095500D01*
X9708500Y-14812500D02*
X9708500Y-14902500D01*
X9663500Y-14857500D02*
X9753500Y-14857500D01*
X11768856Y-10656856D02*
X11768856Y-10586144D01*
X11698144Y-10586144D01*
X11698144Y-10656856D01*
X11768856Y-10656856D01*
X11768856Y-10933856D02*
X11768856Y-10863144D01*
X11698144Y-10863144D01*
X11698144Y-10933856D01*
X11768856Y-10933856D01*
X11768856Y-11210856D02*
X11768856Y-11140144D01*
X11698144Y-11140144D01*
X11698144Y-11210856D01*
X11768856Y-11210856D01*
X11768856Y-11487856D02*
X11768856Y-11417144D01*
X11698144Y-11417144D01*
X11698144Y-11487856D01*
X11768856Y-11487856D01*
X11768856Y-11764856D02*
X11768856Y-11694144D01*
X11698144Y-11694144D01*
X11698144Y-11764856D01*
X11768856Y-11764856D01*
X11768856Y-12041856D02*
X11768856Y-11971144D01*
X11698144Y-11971144D01*
X11698144Y-12041856D01*
X11768856Y-12041856D01*
X11768856Y-12318856D02*
X11768856Y-12248144D01*
X11698144Y-12248144D01*
X11698144Y-12318856D01*
X11768856Y-12318856D01*
X11768856Y-12595856D02*
X11768856Y-12525144D01*
X11698144Y-12525144D01*
X11698144Y-12595856D01*
X11768856Y-12595856D01*
X11768856Y-12872856D02*
X11768856Y-12802144D01*
X11698144Y-12802144D01*
X11698144Y-12872856D01*
X11768856Y-12872856D01*
X11768856Y-13149856D02*
X11768856Y-13079144D01*
X11698144Y-13079144D01*
X11698144Y-13149856D01*
X11768856Y-13149856D01*
X11768856Y-13426856D02*
X11768856Y-13356144D01*
X11698144Y-13356144D01*
X11698144Y-13426856D01*
X11768856Y-13426856D01*
X11768856Y-13703856D02*
X11768856Y-13633144D01*
X11698144Y-13633144D01*
X11698144Y-13703856D01*
X11768856Y-13703856D01*
X11768856Y-13980856D02*
X11768856Y-13910144D01*
X11698144Y-13910144D01*
X11698144Y-13980856D01*
X11768856Y-13980856D01*
X12052856Y-10795356D02*
X12052856Y-10724644D01*
X11982144Y-10724644D01*
X11982144Y-10795356D01*
X12052856Y-10795356D01*
X12052856Y-11072356D02*
X12052856Y-11001644D01*
X11982144Y-11001644D01*
X11982144Y-11072356D01*
X12052856Y-11072356D01*
X12052856Y-11349356D02*
X12052856Y-11278644D01*
X11982144Y-11278644D01*
X11982144Y-11349356D01*
X12052856Y-11349356D01*
X12052856Y-11626356D02*
X12052856Y-11555644D01*
X11982144Y-11555644D01*
X11982144Y-11626356D01*
X12052856Y-11626356D01*
X12052856Y-11903356D02*
X12052856Y-11832644D01*
X11982144Y-11832644D01*
X11982144Y-11903356D01*
X12052856Y-11903356D01*
X12052856Y-12180356D02*
X12052856Y-12109644D01*
X11982144Y-12109644D01*
X11982144Y-12180356D01*
X12052856Y-12180356D01*
X12052856Y-12457356D02*
X12052856Y-12386644D01*
X11982144Y-12386644D01*
X11982144Y-12457356D01*
X12052856Y-12457356D01*
X12052856Y-12734356D02*
X12052856Y-12663644D01*
X11982144Y-12663644D01*
X11982144Y-12734356D01*
X12052856Y-12734356D01*
X12052856Y-13011356D02*
X12052856Y-12940644D01*
X11982144Y-12940644D01*
X11982144Y-13011356D01*
X12052856Y-13011356D01*
X12052856Y-13288356D02*
X12052856Y-13217644D01*
X11982144Y-13217644D01*
X11982144Y-13288356D01*
X12052856Y-13288356D01*
X12052856Y-13565356D02*
X12052856Y-13494644D01*
X11982144Y-13494644D01*
X11982144Y-13565356D01*
X12052856Y-13565356D01*
X12052856Y-13842356D02*
X12052856Y-13771644D01*
X11982144Y-13771644D01*
X11982144Y-13842356D01*
X12052856Y-13842356D01*
X8959500Y-9971280D02*
X9010300Y-9920480D01*
X8959500Y-9869680D01*
X8908700Y-9920480D01*
X8959500Y-9971280D01*
X8959500Y-10225280D02*
X9010300Y-10174480D01*
X8959500Y-10123680D01*
X8908700Y-10174480D01*
X8959500Y-10225280D01*
X8959500Y-10479280D02*
X9010300Y-10428480D01*
X8959500Y-10377680D01*
X8908700Y-10428480D01*
X8959500Y-10479280D01*
X8959500Y-10733280D02*
X9010300Y-10682480D01*
X8959500Y-10631680D01*
X8908700Y-10682480D01*
X8959500Y-10733280D01*
X8959500Y-10987280D02*
X9010300Y-10936480D01*
X8959500Y-10885680D01*
X8908700Y-10936480D01*
X8959500Y-10987280D01*
X8959500Y-11241280D02*
X9010300Y-11190480D01*
X8959500Y-11139680D01*
X8908700Y-11190480D01*
X8959500Y-11241280D01*
X8959500Y-11495280D02*
X9010300Y-11444480D01*
X8959500Y-11393680D01*
X8908700Y-11444480D01*
X8959500Y-11495280D01*
X8959500Y-11749280D02*
X9010300Y-11698480D01*
X8959500Y-11647680D01*
X8908700Y-11698480D01*
X8959500Y-11749280D01*
X8959500Y-12003280D02*
X9010300Y-11952480D01*
X8959500Y-11901680D01*
X8908700Y-11952480D01*
X8959500Y-12003280D01*
X8959500Y-12257280D02*
X9010300Y-12206480D01*
X8959500Y-12155680D01*
X8908700Y-12206480D01*
X8959500Y-12257280D01*
X8959500Y-12511280D02*
X9010300Y-12460480D01*
X8959500Y-12409680D01*
X8908700Y-12460480D01*
X8959500Y-12511280D01*
X8959500Y-12765280D02*
X9010300Y-12714480D01*
X8959500Y-12663680D01*
X8908700Y-12714480D01*
X8959500Y-12765280D01*
X8959500Y-13019280D02*
X9010300Y-12968480D01*
X8959500Y-12917680D01*
X8908700Y-12968480D01*
X8959500Y-13019280D01*
X8959500Y-13273280D02*
X9010300Y-13222480D01*
X8959500Y-13171680D01*
X8908700Y-13222480D01*
X8959500Y-13273280D01*
X8959500Y-13527280D02*
X9010300Y-13476480D01*
X8959500Y-13425680D01*
X8908700Y-13476480D01*
X8959500Y-13527280D01*
X8959500Y-13781280D02*
X9010300Y-13730480D01*
X8959500Y-13679680D01*
X8908700Y-13730480D01*
X8959500Y-13781280D01*
X8959500Y-14035280D02*
X9010300Y-13984480D01*
X8959500Y-13933680D01*
X8908700Y-13984480D01*
X8959500Y-14035280D01*
X8959500Y-14289280D02*
X9010300Y-14238480D01*
X8959500Y-14187680D01*
X8908700Y-14238480D01*
X8959500Y-14289280D01*
X8959500Y-14543280D02*
X9010300Y-14492480D01*
X8959500Y-14441680D01*
X8908700Y-14492480D01*
X8959500Y-14543280D01*
X8959500Y-14802360D02*
X9010300Y-14751560D01*
X8959500Y-14700760D01*
X8908700Y-14751560D01*
X8959500Y-14802360D01*
X10483500Y-9971280D02*
X10534300Y-9920480D01*
X10483500Y-9869680D01*
X10432700Y-9920480D01*
X10483500Y-9971280D01*
X10483500Y-10225280D02*
X10534300Y-10174480D01*
X10483500Y-10123680D01*
X10432700Y-10174480D01*
X10483500Y-10225280D01*
X10483500Y-10479280D02*
X10534300Y-10428480D01*
X10483500Y-10377680D01*
X10432700Y-10428480D01*
X10483500Y-10479280D01*
X10483500Y-10733280D02*
X10534300Y-10682480D01*
X10483500Y-10631680D01*
X10432700Y-10682480D01*
X10483500Y-10733280D01*
X10483500Y-10987280D02*
X10534300Y-10936480D01*
X10483500Y-10885680D01*
X10432700Y-10936480D01*
X10483500Y-10987280D01*
X10483500Y-11241280D02*
X10534300Y-11190480D01*
X10483500Y-11139680D01*
X10432700Y-11190480D01*
X10483500Y-11241280D01*
X10483500Y-11495280D02*
X10534300Y-11444480D01*
X10483500Y-11393680D01*
X10432700Y-11444480D01*
X10483500Y-11495280D01*
X10483500Y-11749280D02*
X10534300Y-11698480D01*
X10483500Y-11647680D01*
X10432700Y-11698480D01*
X10483500Y-11749280D01*
X10483500Y-12003280D02*
X10534300Y-11952480D01*
X10483500Y-11901680D01*
X10432700Y-11952480D01*
X10483500Y-12003280D01*
X10483500Y-12257280D02*
X10534300Y-12206480D01*
X10483500Y-12155680D01*
X10432700Y-12206480D01*
X10483500Y-12257280D01*
X10483500Y-12511280D02*
X10534300Y-12460480D01*
X10483500Y-12409680D01*
X10432700Y-12460480D01*
X10483500Y-12511280D01*
X10483500Y-12765280D02*
X10534300Y-12714480D01*
X10483500Y-12663680D01*
X10432700Y-12714480D01*
X10483500Y-12765280D01*
X10483500Y-13019280D02*
X10534300Y-12968480D01*
X10483500Y-12917680D01*
X10432700Y-12968480D01*
X10483500Y-13019280D01*
X10483500Y-13273280D02*
X10534300Y-13222480D01*
X10483500Y-13171680D01*
X10432700Y-13222480D01*
X10483500Y-13273280D01*
X10483500Y-13527280D02*
X10534300Y-13476480D01*
X10483500Y-13425680D01*
X10432700Y-13476480D01*
X10483500Y-13527280D01*
X10483500Y-13781280D02*
X10534300Y-13730480D01*
X10483500Y-13679680D01*
X10432700Y-13730480D01*
X10483500Y-13781280D01*
X10483500Y-14035280D02*
X10534300Y-13984480D01*
X10483500Y-13933680D01*
X10432700Y-13984480D01*
X10483500Y-14035280D01*
X10483500Y-14289280D02*
X10534300Y-14238480D01*
X10483500Y-14187680D01*
X10432700Y-14238480D01*
X10483500Y-14289280D01*
X10483500Y-14543280D02*
X10534300Y-14492480D01*
X10483500Y-14441680D01*
X10432700Y-14492480D01*
X10483500Y-14543280D01*
X10483500Y-14797280D02*
X10534300Y-14746480D01*
X10483500Y-14695680D01*
X10432700Y-14746480D01*
X10483500Y-14797280D01*
X11603500Y-9768500D02*
X11923500Y-10088500D01*
X11923500Y-9768500D02*
X11603500Y-10088500D01*
X11923500Y-9928500D02*
G75*
G03*
X11923500Y-9928500I-160000J0D01*
G01*
X11603500Y-14478500D02*
X11923500Y-14798500D01*
X11923500Y-14478500D02*
X11603500Y-14798500D01*
X11923500Y-14638500D02*
G75*
G03*
X11923500Y-14638500I-160000J0D01*
G01*
D12*
X9067028Y-15464114D02*
X9067028Y-15164114D01*
X9138457Y-15164114D01*
X9181314Y-15178400D01*
X9209886Y-15206971D01*
X9224171Y-15235543D01*
X9238457Y-15292686D01*
X9238457Y-15335543D01*
X9224171Y-15392686D01*
X9209886Y-15421257D01*
X9181314Y-15449829D01*
X9138457Y-15464114D01*
X9067028Y-15464114D01*
X9367028Y-15464114D02*
X9367028Y-15264114D01*
X9367028Y-15321257D02*
X9381314Y-15292686D01*
X9395600Y-15278400D01*
X9424171Y-15264114D01*
X9452743Y-15264114D01*
X9552743Y-15464114D02*
X9552743Y-15264114D01*
X9552743Y-15164114D02*
X9538457Y-15178400D01*
X9552743Y-15192686D01*
X9567028Y-15178400D01*
X9552743Y-15164114D01*
X9552743Y-15192686D01*
X9738457Y-15464114D02*
X9709886Y-15449829D01*
X9695600Y-15421257D01*
X9695600Y-15164114D01*
X9895600Y-15464114D02*
X9867028Y-15449829D01*
X9852743Y-15421257D01*
X9852743Y-15164114D01*
X10238457Y-15464114D02*
X10238457Y-15164114D01*
X10338457Y-15378400D01*
X10438457Y-15164114D01*
X10438457Y-15464114D01*
X10709886Y-15464114D02*
X10709886Y-15306971D01*
X10695600Y-15278400D01*
X10667028Y-15264114D01*
X10609886Y-15264114D01*
X10581314Y-15278400D01*
X10709886Y-15449829D02*
X10681314Y-15464114D01*
X10609886Y-15464114D01*
X10581314Y-15449829D01*
X10567028Y-15421257D01*
X10567028Y-15392686D01*
X10581314Y-15364114D01*
X10609886Y-15349829D01*
X10681314Y-15349829D01*
X10709886Y-15335543D01*
X10852743Y-15264114D02*
X10852743Y-15564114D01*
X10852743Y-15278400D02*
X10881314Y-15264114D01*
X10938457Y-15264114D01*
X10967028Y-15278400D01*
X10981314Y-15292686D01*
X10995600Y-15321257D01*
X10995600Y-15406971D01*
X10981314Y-15435543D01*
X10967028Y-15449829D01*
X10938457Y-15464114D01*
X10881314Y-15464114D01*
X10852743Y-15449829D01*
X11124171Y-15435543D02*
X11138457Y-15449829D01*
X11124171Y-15464114D01*
X11109886Y-15449829D01*
X11124171Y-15435543D01*
X11124171Y-15464114D01*
X11124171Y-15278400D02*
X11138457Y-15292686D01*
X11124171Y-15306971D01*
X11109886Y-15292686D01*
X11124171Y-15278400D01*
X11124171Y-15306971D01*
X8740600Y-15938400D02*
X8780600Y-15978400D01*
X8780600Y-15938400D02*
X8740600Y-15978400D01*
X9124171Y-15794114D02*
X9152743Y-15794114D01*
X9181314Y-15808400D01*
X9195600Y-15822686D01*
X9209886Y-15851257D01*
X9224171Y-15908400D01*
X9224171Y-15979829D01*
X9209886Y-16036971D01*
X9195600Y-16065543D01*
X9181314Y-16079829D01*
X9152743Y-16094114D01*
X9124171Y-16094114D01*
X9095600Y-16079829D01*
X9081314Y-16065543D01*
X9067028Y-16036971D01*
X9052743Y-15979829D01*
X9052743Y-15908400D01*
X9067028Y-15851257D01*
X9081314Y-15822686D01*
X9095600Y-15808400D01*
X9124171Y-15794114D01*
X9352743Y-16065543D02*
X9367028Y-16079829D01*
X9352743Y-16094114D01*
X9338457Y-16079829D01*
X9352743Y-16065543D01*
X9352743Y-16094114D01*
X9624171Y-15894114D02*
X9624171Y-16094114D01*
X9552743Y-15779829D02*
X9481314Y-15994114D01*
X9667028Y-15994114D01*
X9838457Y-15794114D02*
X9867028Y-15794114D01*
X9895600Y-15808400D01*
X9909886Y-15822686D01*
X9924171Y-15851257D01*
X9938457Y-15908400D01*
X9938457Y-15979829D01*
X9924171Y-16036971D01*
X9909886Y-16065543D01*
X9895600Y-16079829D01*
X9867028Y-16094114D01*
X9838457Y-16094114D01*
X9809886Y-16079829D01*
X9795600Y-16065543D01*
X9781314Y-16036971D01*
X9767028Y-15979829D01*
X9767028Y-15908400D01*
X9781314Y-15851257D01*
X9795600Y-15822686D01*
X9809886Y-15808400D01*
X9838457Y-15794114D01*
X10124171Y-15794114D02*
X10152743Y-15794114D01*
X10181314Y-15808400D01*
X10195600Y-15822686D01*
X10209886Y-15851257D01*
X10224171Y-15908400D01*
X10224171Y-15979829D01*
X10209886Y-16036971D01*
X10195600Y-16065543D01*
X10181314Y-16079829D01*
X10152743Y-16094114D01*
X10124171Y-16094114D01*
X10095600Y-16079829D01*
X10081314Y-16065543D01*
X10067028Y-16036971D01*
X10052743Y-15979829D01*
X10052743Y-15908400D01*
X10067028Y-15851257D01*
X10081314Y-15822686D01*
X10095600Y-15808400D01*
X10124171Y-15794114D01*
X10352743Y-16094114D02*
X10352743Y-15894114D01*
X10352743Y-15922686D02*
X10367028Y-15908400D01*
X10395600Y-15894114D01*
X10438457Y-15894114D01*
X10467028Y-15908400D01*
X10481314Y-15936971D01*
X10481314Y-16094114D01*
X10481314Y-15936971D02*
X10495600Y-15908400D01*
X10524171Y-15894114D01*
X10567028Y-15894114D01*
X10595600Y-15908400D01*
X10609886Y-15936971D01*
X10609886Y-16094114D01*
X10752743Y-16094114D02*
X10752743Y-15894114D01*
X10752743Y-15922686D02*
X10767028Y-15908400D01*
X10795600Y-15894114D01*
X10838457Y-15894114D01*
X10867028Y-15908400D01*
X10881314Y-15936971D01*
X10881314Y-16094114D01*
X10881314Y-15936971D02*
X10895600Y-15908400D01*
X10924171Y-15894114D01*
X10967028Y-15894114D01*
X10995600Y-15908400D01*
X11009886Y-15936971D01*
X11009886Y-16094114D01*
X11595600Y-15779829D02*
X11338457Y-16165543D01*
X11981314Y-15794114D02*
X12009886Y-15794114D01*
X12038457Y-15808400D01*
X12052743Y-15822686D01*
X12067028Y-15851257D01*
X12081314Y-15908400D01*
X12081314Y-15979829D01*
X12067028Y-16036971D01*
X12052743Y-16065543D01*
X12038457Y-16079829D01*
X12009886Y-16094114D01*
X11981314Y-16094114D01*
X11952743Y-16079829D01*
X11938457Y-16065543D01*
X11924171Y-16036971D01*
X11909886Y-15979829D01*
X11909886Y-15908400D01*
X11924171Y-15851257D01*
X11938457Y-15822686D01*
X11952743Y-15808400D01*
X11981314Y-15794114D01*
X12209886Y-16065543D02*
X12224171Y-16079829D01*
X12209886Y-16094114D01*
X12195600Y-16079829D01*
X12209886Y-16065543D01*
X12209886Y-16094114D01*
X12409886Y-15794114D02*
X12438457Y-15794114D01*
X12467028Y-15808400D01*
X12481314Y-15822686D01*
X12495600Y-15851257D01*
X12509886Y-15908400D01*
X12509886Y-15979829D01*
X12495600Y-16036971D01*
X12481314Y-16065543D01*
X12467028Y-16079829D01*
X12438457Y-16094114D01*
X12409886Y-16094114D01*
X12381314Y-16079829D01*
X12367028Y-16065543D01*
X12352743Y-16036971D01*
X12338457Y-15979829D01*
X12338457Y-15908400D01*
X12352743Y-15851257D01*
X12367028Y-15822686D01*
X12381314Y-15808400D01*
X12409886Y-15794114D01*
X12795600Y-16094114D02*
X12624171Y-16094114D01*
X12709886Y-16094114D02*
X12709886Y-15794114D01*
X12681314Y-15836971D01*
X12652743Y-15865543D01*
X12624171Y-15879829D01*
X13067028Y-15794114D02*
X12924171Y-15794114D01*
X12909886Y-15936971D01*
X12924171Y-15922686D01*
X12952743Y-15908400D01*
X13024171Y-15908400D01*
X13052743Y-15922686D01*
X13067028Y-15936971D01*
X13081314Y-15965543D01*
X13081314Y-16036971D01*
X13067028Y-16065543D01*
X13052743Y-16079829D01*
X13024171Y-16094114D01*
X12952743Y-16094114D01*
X12924171Y-16079829D01*
X12909886Y-16065543D01*
X13181314Y-15794114D02*
X13381314Y-15794114D01*
X13252743Y-16094114D01*
X13481314Y-15794114D02*
X13481314Y-15851257D01*
X13595600Y-15794114D02*
X13595600Y-15851257D01*
X14038457Y-16208400D02*
X14024171Y-16194114D01*
X13995600Y-16151257D01*
X13981314Y-16122686D01*
X13967028Y-16079829D01*
X13952743Y-16008400D01*
X13952743Y-15951257D01*
X13967028Y-15879829D01*
X13981314Y-15836971D01*
X13995600Y-15808400D01*
X14024171Y-15765543D01*
X14038457Y-15751257D01*
X14309886Y-16094114D02*
X14138457Y-16094114D01*
X14224171Y-16094114D02*
X14224171Y-15794114D01*
X14195600Y-15836971D01*
X14167028Y-15865543D01*
X14138457Y-15879829D01*
X14409886Y-15794114D02*
X14595600Y-15794114D01*
X14495600Y-15908400D01*
X14538457Y-15908400D01*
X14567028Y-15922686D01*
X14581314Y-15936971D01*
X14595600Y-15965543D01*
X14595600Y-16036971D01*
X14581314Y-16065543D01*
X14567028Y-16079829D01*
X14538457Y-16094114D01*
X14452743Y-16094114D01*
X14424171Y-16079829D01*
X14409886Y-16065543D01*
X14952743Y-16094114D02*
X14952743Y-15794114D01*
X15081314Y-16094114D02*
X15081314Y-15936971D01*
X15067028Y-15908400D01*
X15038457Y-15894114D01*
X14995600Y-15894114D01*
X14967028Y-15908400D01*
X14952743Y-15922686D01*
X15267028Y-16094114D02*
X15238457Y-16079829D01*
X15224171Y-16065543D01*
X15209886Y-16036971D01*
X15209886Y-15951257D01*
X15224171Y-15922686D01*
X15238457Y-15908400D01*
X15267028Y-15894114D01*
X15309886Y-15894114D01*
X15338457Y-15908400D01*
X15352743Y-15922686D01*
X15367028Y-15951257D01*
X15367028Y-16036971D01*
X15352743Y-16065543D01*
X15338457Y-16079829D01*
X15309886Y-16094114D01*
X15267028Y-16094114D01*
X15538457Y-16094114D02*
X15509886Y-16079829D01*
X15495600Y-16051257D01*
X15495600Y-15794114D01*
X15767028Y-16079829D02*
X15738457Y-16094114D01*
X15681314Y-16094114D01*
X15652743Y-16079829D01*
X15638457Y-16051257D01*
X15638457Y-15936971D01*
X15652743Y-15908400D01*
X15681314Y-15894114D01*
X15738457Y-15894114D01*
X15767028Y-15908400D01*
X15781314Y-15936971D01*
X15781314Y-15965543D01*
X15638457Y-15994114D01*
X15895600Y-16079829D02*
X15924171Y-16094114D01*
X15981314Y-16094114D01*
X16009886Y-16079829D01*
X16024171Y-16051257D01*
X16024171Y-16036971D01*
X16009886Y-16008400D01*
X15981314Y-15994114D01*
X15938457Y-15994114D01*
X15909886Y-15979829D01*
X15895600Y-15951257D01*
X15895600Y-15936971D01*
X15909886Y-15908400D01*
X15938457Y-15894114D01*
X15981314Y-15894114D01*
X16009886Y-15908400D01*
X16124171Y-16208400D02*
X16138457Y-16194114D01*
X16167028Y-16151257D01*
X16181314Y-16122686D01*
X16195600Y-16079829D01*
X16209886Y-16008400D01*
X16209886Y-15951257D01*
X16195600Y-15879829D01*
X16181314Y-15836971D01*
X16167028Y-15808400D01*
X16138457Y-15765543D01*
X16124171Y-15751257D01*
X8780600Y-16354400D02*
G75*
G03*
X8780600Y-16354400I-40000J0D01*
G01*
X9124171Y-16190114D02*
X9152743Y-16190114D01*
X9181314Y-16204400D01*
X9195600Y-16218686D01*
X9209886Y-16247257D01*
X9224171Y-16304400D01*
X9224171Y-16375829D01*
X9209886Y-16432971D01*
X9195600Y-16461543D01*
X9181314Y-16475829D01*
X9152743Y-16490114D01*
X9124171Y-16490114D01*
X9095600Y-16475829D01*
X9081314Y-16461543D01*
X9067028Y-16432971D01*
X9052743Y-16375829D01*
X9052743Y-16304400D01*
X9067028Y-16247257D01*
X9081314Y-16218686D01*
X9095600Y-16204400D01*
X9124171Y-16190114D01*
X9352743Y-16461543D02*
X9367028Y-16475829D01*
X9352743Y-16490114D01*
X9338457Y-16475829D01*
X9352743Y-16461543D01*
X9352743Y-16490114D01*
X9538457Y-16318686D02*
X9509886Y-16304400D01*
X9495600Y-16290114D01*
X9481314Y-16261543D01*
X9481314Y-16247257D01*
X9495600Y-16218686D01*
X9509886Y-16204400D01*
X9538457Y-16190114D01*
X9595600Y-16190114D01*
X9624171Y-16204400D01*
X9638457Y-16218686D01*
X9652743Y-16247257D01*
X9652743Y-16261543D01*
X9638457Y-16290114D01*
X9624171Y-16304400D01*
X9595600Y-16318686D01*
X9538457Y-16318686D01*
X9509886Y-16332971D01*
X9495600Y-16347257D01*
X9481314Y-16375829D01*
X9481314Y-16432971D01*
X9495600Y-16461543D01*
X9509886Y-16475829D01*
X9538457Y-16490114D01*
X9595600Y-16490114D01*
X9624171Y-16475829D01*
X9638457Y-16461543D01*
X9652743Y-16432971D01*
X9652743Y-16375829D01*
X9638457Y-16347257D01*
X9624171Y-16332971D01*
X9595600Y-16318686D01*
X9838457Y-16190114D02*
X9867028Y-16190114D01*
X9895600Y-16204400D01*
X9909886Y-16218686D01*
X9924171Y-16247257D01*
X9938457Y-16304400D01*
X9938457Y-16375829D01*
X9924171Y-16432971D01*
X9909886Y-16461543D01*
X9895600Y-16475829D01*
X9867028Y-16490114D01*
X9838457Y-16490114D01*
X9809886Y-16475829D01*
X9795600Y-16461543D01*
X9781314Y-16432971D01*
X9767028Y-16375829D01*
X9767028Y-16304400D01*
X9781314Y-16247257D01*
X9795600Y-16218686D01*
X9809886Y-16204400D01*
X9838457Y-16190114D01*
X10124171Y-16190114D02*
X10152743Y-16190114D01*
X10181314Y-16204400D01*
X10195600Y-16218686D01*
X10209886Y-16247257D01*
X10224171Y-16304400D01*
X10224171Y-16375829D01*
X10209886Y-16432971D01*
X10195600Y-16461543D01*
X10181314Y-16475829D01*
X10152743Y-16490114D01*
X10124171Y-16490114D01*
X10095600Y-16475829D01*
X10081314Y-16461543D01*
X10067028Y-16432971D01*
X10052743Y-16375829D01*
X10052743Y-16304400D01*
X10067028Y-16247257D01*
X10081314Y-16218686D01*
X10095600Y-16204400D01*
X10124171Y-16190114D01*
X10352743Y-16490114D02*
X10352743Y-16290114D01*
X10352743Y-16318686D02*
X10367028Y-16304400D01*
X10395600Y-16290114D01*
X10438457Y-16290114D01*
X10467028Y-16304400D01*
X10481314Y-16332971D01*
X10481314Y-16490114D01*
X10481314Y-16332971D02*
X10495600Y-16304400D01*
X10524171Y-16290114D01*
X10567028Y-16290114D01*
X10595600Y-16304400D01*
X10609886Y-16332971D01*
X10609886Y-16490114D01*
X10752743Y-16490114D02*
X10752743Y-16290114D01*
X10752743Y-16318686D02*
X10767028Y-16304400D01*
X10795600Y-16290114D01*
X10838457Y-16290114D01*
X10867028Y-16304400D01*
X10881314Y-16332971D01*
X10881314Y-16490114D01*
X10881314Y-16332971D02*
X10895600Y-16304400D01*
X10924171Y-16290114D01*
X10967028Y-16290114D01*
X10995600Y-16304400D01*
X11009886Y-16332971D01*
X11009886Y-16490114D01*
X11595600Y-16175829D02*
X11338457Y-16561543D01*
X11981314Y-16190114D02*
X12009886Y-16190114D01*
X12038457Y-16204400D01*
X12052743Y-16218686D01*
X12067028Y-16247257D01*
X12081314Y-16304400D01*
X12081314Y-16375829D01*
X12067028Y-16432971D01*
X12052743Y-16461543D01*
X12038457Y-16475829D01*
X12009886Y-16490114D01*
X11981314Y-16490114D01*
X11952743Y-16475829D01*
X11938457Y-16461543D01*
X11924171Y-16432971D01*
X11909886Y-16375829D01*
X11909886Y-16304400D01*
X11924171Y-16247257D01*
X11938457Y-16218686D01*
X11952743Y-16204400D01*
X11981314Y-16190114D01*
X12209886Y-16461543D02*
X12224171Y-16475829D01*
X12209886Y-16490114D01*
X12195600Y-16475829D01*
X12209886Y-16461543D01*
X12209886Y-16490114D01*
X12409886Y-16190114D02*
X12438457Y-16190114D01*
X12467028Y-16204400D01*
X12481314Y-16218686D01*
X12495600Y-16247257D01*
X12509886Y-16304400D01*
X12509886Y-16375829D01*
X12495600Y-16432971D01*
X12481314Y-16461543D01*
X12467028Y-16475829D01*
X12438457Y-16490114D01*
X12409886Y-16490114D01*
X12381314Y-16475829D01*
X12367028Y-16461543D01*
X12352743Y-16432971D01*
X12338457Y-16375829D01*
X12338457Y-16304400D01*
X12352743Y-16247257D01*
X12367028Y-16218686D01*
X12381314Y-16204400D01*
X12409886Y-16190114D01*
X12609886Y-16190114D02*
X12795600Y-16190114D01*
X12695600Y-16304400D01*
X12738457Y-16304400D01*
X12767028Y-16318686D01*
X12781314Y-16332971D01*
X12795600Y-16361543D01*
X12795600Y-16432971D01*
X12781314Y-16461543D01*
X12767028Y-16475829D01*
X12738457Y-16490114D01*
X12652743Y-16490114D01*
X12624171Y-16475829D01*
X12609886Y-16461543D01*
X13081314Y-16490114D02*
X12909886Y-16490114D01*
X12995600Y-16490114D02*
X12995600Y-16190114D01*
X12967028Y-16232971D01*
X12938457Y-16261543D01*
X12909886Y-16275829D01*
X13352743Y-16190114D02*
X13209886Y-16190114D01*
X13195600Y-16332971D01*
X13209886Y-16318686D01*
X13238457Y-16304400D01*
X13309886Y-16304400D01*
X13338457Y-16318686D01*
X13352743Y-16332971D01*
X13367028Y-16361543D01*
X13367028Y-16432971D01*
X13352743Y-16461543D01*
X13338457Y-16475829D01*
X13309886Y-16490114D01*
X13238457Y-16490114D01*
X13209886Y-16475829D01*
X13195600Y-16461543D01*
X13481314Y-16190114D02*
X13481314Y-16247257D01*
X13595600Y-16190114D02*
X13595600Y-16247257D01*
X14038457Y-16604400D02*
X14024171Y-16590114D01*
X13995600Y-16547257D01*
X13981314Y-16518686D01*
X13967028Y-16475829D01*
X13952743Y-16404400D01*
X13952743Y-16347257D01*
X13967028Y-16275829D01*
X13981314Y-16232971D01*
X13995600Y-16204400D01*
X14024171Y-16161543D01*
X14038457Y-16147257D01*
X14281314Y-16290114D02*
X14281314Y-16490114D01*
X14209886Y-16175829D02*
X14138457Y-16390114D01*
X14324171Y-16390114D01*
X14495600Y-16190114D02*
X14524171Y-16190114D01*
X14552743Y-16204400D01*
X14567028Y-16218686D01*
X14581314Y-16247257D01*
X14595600Y-16304400D01*
X14595600Y-16375829D01*
X14581314Y-16432971D01*
X14567028Y-16461543D01*
X14552743Y-16475829D01*
X14524171Y-16490114D01*
X14495600Y-16490114D01*
X14467028Y-16475829D01*
X14452743Y-16461543D01*
X14438457Y-16432971D01*
X14424171Y-16375829D01*
X14424171Y-16304400D01*
X14438457Y-16247257D01*
X14452743Y-16218686D01*
X14467028Y-16204400D01*
X14495600Y-16190114D01*
X14952743Y-16490114D02*
X14952743Y-16190114D01*
X15081314Y-16490114D02*
X15081314Y-16332971D01*
X15067028Y-16304400D01*
X15038457Y-16290114D01*
X14995600Y-16290114D01*
X14967028Y-16304400D01*
X14952743Y-16318686D01*
X15267028Y-16490114D02*
X15238457Y-16475829D01*
X15224171Y-16461543D01*
X15209886Y-16432971D01*
X15209886Y-16347257D01*
X15224171Y-16318686D01*
X15238457Y-16304400D01*
X15267028Y-16290114D01*
X15309886Y-16290114D01*
X15338457Y-16304400D01*
X15352743Y-16318686D01*
X15367028Y-16347257D01*
X15367028Y-16432971D01*
X15352743Y-16461543D01*
X15338457Y-16475829D01*
X15309886Y-16490114D01*
X15267028Y-16490114D01*
X15538457Y-16490114D02*
X15509886Y-16475829D01*
X15495600Y-16447257D01*
X15495600Y-16190114D01*
X15767028Y-16475829D02*
X15738457Y-16490114D01*
X15681314Y-16490114D01*
X15652743Y-16475829D01*
X15638457Y-16447257D01*
X15638457Y-16332971D01*
X15652743Y-16304400D01*
X15681314Y-16290114D01*
X15738457Y-16290114D01*
X15767028Y-16304400D01*
X15781314Y-16332971D01*
X15781314Y-16361543D01*
X15638457Y-16390114D01*
X15895600Y-16475829D02*
X15924171Y-16490114D01*
X15981314Y-16490114D01*
X16009886Y-16475829D01*
X16024171Y-16447257D01*
X16024171Y-16432971D01*
X16009886Y-16404400D01*
X15981314Y-16390114D01*
X15938457Y-16390114D01*
X15909886Y-16375829D01*
X15895600Y-16347257D01*
X15895600Y-16332971D01*
X15909886Y-16304400D01*
X15938457Y-16290114D01*
X15981314Y-16290114D01*
X16009886Y-16304400D01*
X16124171Y-16604400D02*
X16138457Y-16590114D01*
X16167028Y-16547257D01*
X16181314Y-16518686D01*
X16195600Y-16475829D01*
X16209886Y-16404400D01*
X16209886Y-16347257D01*
X16195600Y-16275829D01*
X16181314Y-16232971D01*
X16167028Y-16204400D01*
X16138457Y-16161543D01*
X16124171Y-16147257D01*
X8735600Y-16705400D02*
X8735600Y-16795400D01*
X8690600Y-16750400D02*
X8780600Y-16750400D01*
X9124171Y-16586114D02*
X9152743Y-16586114D01*
X9181314Y-16600400D01*
X9195600Y-16614686D01*
X9209886Y-16643257D01*
X9224171Y-16700400D01*
X9224171Y-16771829D01*
X9209886Y-16828972D01*
X9195600Y-16857543D01*
X9181314Y-16871829D01*
X9152743Y-16886114D01*
X9124171Y-16886114D01*
X9095600Y-16871829D01*
X9081314Y-16857543D01*
X9067028Y-16828972D01*
X9052743Y-16771829D01*
X9052743Y-16700400D01*
X9067028Y-16643257D01*
X9081314Y-16614686D01*
X9095600Y-16600400D01*
X9124171Y-16586114D01*
X9352743Y-16857543D02*
X9367028Y-16871829D01*
X9352743Y-16886114D01*
X9338457Y-16871829D01*
X9352743Y-16857543D01*
X9352743Y-16886114D01*
X9509886Y-16886114D02*
X9567028Y-16886114D01*
X9595600Y-16871829D01*
X9609886Y-16857543D01*
X9638457Y-16814686D01*
X9652743Y-16757543D01*
X9652743Y-16643257D01*
X9638457Y-16614686D01*
X9624171Y-16600400D01*
X9595600Y-16586114D01*
X9538457Y-16586114D01*
X9509886Y-16600400D01*
X9495600Y-16614686D01*
X9481314Y-16643257D01*
X9481314Y-16714686D01*
X9495600Y-16743257D01*
X9509886Y-16757543D01*
X9538457Y-16771829D01*
X9595600Y-16771829D01*
X9624171Y-16757543D01*
X9638457Y-16743257D01*
X9652743Y-16714686D01*
X9838457Y-16586114D02*
X9867028Y-16586114D01*
X9895600Y-16600400D01*
X9909886Y-16614686D01*
X9924171Y-16643257D01*
X9938457Y-16700400D01*
X9938457Y-16771829D01*
X9924171Y-16828972D01*
X9909886Y-16857543D01*
X9895600Y-16871829D01*
X9867028Y-16886114D01*
X9838457Y-16886114D01*
X9809886Y-16871829D01*
X9795600Y-16857543D01*
X9781314Y-16828972D01*
X9767028Y-16771829D01*
X9767028Y-16700400D01*
X9781314Y-16643257D01*
X9795600Y-16614686D01*
X9809886Y-16600400D01*
X9838457Y-16586114D01*
X10124171Y-16586114D02*
X10152743Y-16586114D01*
X10181314Y-16600400D01*
X10195600Y-16614686D01*
X10209886Y-16643257D01*
X10224171Y-16700400D01*
X10224171Y-16771829D01*
X10209886Y-16828972D01*
X10195600Y-16857543D01*
X10181314Y-16871829D01*
X10152743Y-16886114D01*
X10124171Y-16886114D01*
X10095600Y-16871829D01*
X10081314Y-16857543D01*
X10067028Y-16828972D01*
X10052743Y-16771829D01*
X10052743Y-16700400D01*
X10067028Y-16643257D01*
X10081314Y-16614686D01*
X10095600Y-16600400D01*
X10124171Y-16586114D01*
X10352743Y-16886114D02*
X10352743Y-16686114D01*
X10352743Y-16714686D02*
X10367028Y-16700400D01*
X10395600Y-16686114D01*
X10438457Y-16686114D01*
X10467028Y-16700400D01*
X10481314Y-16728971D01*
X10481314Y-16886114D01*
X10481314Y-16728971D02*
X10495600Y-16700400D01*
X10524171Y-16686114D01*
X10567028Y-16686114D01*
X10595600Y-16700400D01*
X10609886Y-16728971D01*
X10609886Y-16886114D01*
X10752743Y-16886114D02*
X10752743Y-16686114D01*
X10752743Y-16714686D02*
X10767028Y-16700400D01*
X10795600Y-16686114D01*
X10838457Y-16686114D01*
X10867028Y-16700400D01*
X10881314Y-16728971D01*
X10881314Y-16886114D01*
X10881314Y-16728971D02*
X10895600Y-16700400D01*
X10924171Y-16686114D01*
X10967028Y-16686114D01*
X10995600Y-16700400D01*
X11009886Y-16728971D01*
X11009886Y-16886114D01*
X11595600Y-16571829D02*
X11338457Y-16957543D01*
X11981314Y-16586114D02*
X12009886Y-16586114D01*
X12038457Y-16600400D01*
X12052743Y-16614686D01*
X12067028Y-16643257D01*
X12081314Y-16700400D01*
X12081314Y-16771829D01*
X12067028Y-16828972D01*
X12052743Y-16857543D01*
X12038457Y-16871829D01*
X12009886Y-16886114D01*
X11981314Y-16886114D01*
X11952743Y-16871829D01*
X11938457Y-16857543D01*
X11924171Y-16828972D01*
X11909886Y-16771829D01*
X11909886Y-16700400D01*
X11924171Y-16643257D01*
X11938457Y-16614686D01*
X11952743Y-16600400D01*
X11981314Y-16586114D01*
X12209886Y-16857543D02*
X12224171Y-16871829D01*
X12209886Y-16886114D01*
X12195600Y-16871829D01*
X12209886Y-16857543D01*
X12209886Y-16886114D01*
X12409886Y-16586114D02*
X12438457Y-16586114D01*
X12467028Y-16600400D01*
X12481314Y-16614686D01*
X12495600Y-16643257D01*
X12509886Y-16700400D01*
X12509886Y-16771829D01*
X12495600Y-16828972D01*
X12481314Y-16857543D01*
X12467028Y-16871829D01*
X12438457Y-16886114D01*
X12409886Y-16886114D01*
X12381314Y-16871829D01*
X12367028Y-16857543D01*
X12352743Y-16828972D01*
X12338457Y-16771829D01*
X12338457Y-16700400D01*
X12352743Y-16643257D01*
X12367028Y-16614686D01*
X12381314Y-16600400D01*
X12409886Y-16586114D01*
X12609886Y-16586114D02*
X12795600Y-16586114D01*
X12695600Y-16700400D01*
X12738457Y-16700400D01*
X12767028Y-16714686D01*
X12781314Y-16728971D01*
X12795600Y-16757543D01*
X12795600Y-16828972D01*
X12781314Y-16857543D01*
X12767028Y-16871829D01*
X12738457Y-16886114D01*
X12652743Y-16886114D01*
X12624171Y-16871829D01*
X12609886Y-16857543D01*
X13067028Y-16586114D02*
X12924171Y-16586114D01*
X12909886Y-16728971D01*
X12924171Y-16714686D01*
X12952743Y-16700400D01*
X13024171Y-16700400D01*
X13052743Y-16714686D01*
X13067028Y-16728971D01*
X13081314Y-16757543D01*
X13081314Y-16828972D01*
X13067028Y-16857543D01*
X13052743Y-16871829D01*
X13024171Y-16886114D01*
X12952743Y-16886114D01*
X12924171Y-16871829D01*
X12909886Y-16857543D01*
X13338457Y-16686114D02*
X13338457Y-16886114D01*
X13267028Y-16571829D02*
X13195600Y-16786114D01*
X13381314Y-16786114D01*
X13481314Y-16586114D02*
X13481314Y-16643257D01*
X13595600Y-16586114D02*
X13595600Y-16643257D01*
X14038457Y-17000400D02*
X14024171Y-16986114D01*
X13995600Y-16943257D01*
X13981314Y-16914686D01*
X13967028Y-16871829D01*
X13952743Y-16800400D01*
X13952743Y-16743257D01*
X13967028Y-16671829D01*
X13981314Y-16628971D01*
X13995600Y-16600400D01*
X14024171Y-16557543D01*
X14038457Y-16543257D01*
X14138457Y-16614686D02*
X14152743Y-16600400D01*
X14181314Y-16586114D01*
X14252743Y-16586114D01*
X14281314Y-16600400D01*
X14295600Y-16614686D01*
X14309886Y-16643257D01*
X14309886Y-16671829D01*
X14295600Y-16714686D01*
X14124171Y-16886114D01*
X14309886Y-16886114D01*
X14667028Y-16886114D02*
X14667028Y-16586114D01*
X14795600Y-16886114D02*
X14795600Y-16728971D01*
X14781314Y-16700400D01*
X14752743Y-16686114D01*
X14709886Y-16686114D01*
X14681314Y-16700400D01*
X14667028Y-16714686D01*
X14981314Y-16886114D02*
X14952743Y-16871829D01*
X14938457Y-16857543D01*
X14924171Y-16828972D01*
X14924171Y-16743257D01*
X14938457Y-16714686D01*
X14952743Y-16700400D01*
X14981314Y-16686114D01*
X15024171Y-16686114D01*
X15052743Y-16700400D01*
X15067028Y-16714686D01*
X15081314Y-16743257D01*
X15081314Y-16828972D01*
X15067028Y-16857543D01*
X15052743Y-16871829D01*
X15024171Y-16886114D01*
X14981314Y-16886114D01*
X15252743Y-16886114D02*
X15224171Y-16871829D01*
X15209886Y-16843257D01*
X15209886Y-16586114D01*
X15481314Y-16871829D02*
X15452743Y-16886114D01*
X15395600Y-16886114D01*
X15367028Y-16871829D01*
X15352743Y-16843257D01*
X15352743Y-16728971D01*
X15367028Y-16700400D01*
X15395600Y-16686114D01*
X15452743Y-16686114D01*
X15481314Y-16700400D01*
X15495600Y-16728971D01*
X15495600Y-16757543D01*
X15352743Y-16786114D01*
X15609886Y-16871829D02*
X15638457Y-16886114D01*
X15695600Y-16886114D01*
X15724171Y-16871829D01*
X15738457Y-16843257D01*
X15738457Y-16828972D01*
X15724171Y-16800400D01*
X15695600Y-16786114D01*
X15652743Y-16786114D01*
X15624171Y-16771829D01*
X15609886Y-16743257D01*
X15609886Y-16728971D01*
X15624171Y-16700400D01*
X15652743Y-16686114D01*
X15695600Y-16686114D01*
X15724171Y-16700400D01*
X15838457Y-17000400D02*
X15852743Y-16986114D01*
X15881314Y-16943257D01*
X15895600Y-16914686D01*
X15909886Y-16871829D01*
X15924171Y-16800400D01*
X15924171Y-16743257D01*
X15909886Y-16671829D01*
X15895600Y-16628971D01*
X15881314Y-16600400D01*
X15852743Y-16557543D01*
X15838457Y-16543257D01*
X8765956Y-17181756D02*
X8765956Y-17111044D01*
X8695244Y-17111044D01*
X8695244Y-17181756D01*
X8765956Y-17181756D01*
X9224171Y-17282114D02*
X9052743Y-17282114D01*
X9138457Y-17282114D02*
X9138457Y-16982114D01*
X9109886Y-17024972D01*
X9081314Y-17053543D01*
X9052743Y-17067829D01*
X9352743Y-17253543D02*
X9367028Y-17267829D01*
X9352743Y-17282114D01*
X9338457Y-17267829D01*
X9352743Y-17253543D01*
X9352743Y-17282114D01*
X9552743Y-16982114D02*
X9581314Y-16982114D01*
X9609886Y-16996400D01*
X9624171Y-17010686D01*
X9638457Y-17039257D01*
X9652743Y-17096400D01*
X9652743Y-17167829D01*
X9638457Y-17224972D01*
X9624171Y-17253543D01*
X9609886Y-17267829D01*
X9581314Y-17282114D01*
X9552743Y-17282114D01*
X9524171Y-17267829D01*
X9509886Y-17253543D01*
X9495600Y-17224972D01*
X9481314Y-17167829D01*
X9481314Y-17096400D01*
X9495600Y-17039257D01*
X9509886Y-17010686D01*
X9524171Y-16996400D01*
X9552743Y-16982114D01*
X9838457Y-16982114D02*
X9867028Y-16982114D01*
X9895600Y-16996400D01*
X9909886Y-17010686D01*
X9924171Y-17039257D01*
X9938457Y-17096400D01*
X9938457Y-17167829D01*
X9924171Y-17224972D01*
X9909886Y-17253543D01*
X9895600Y-17267829D01*
X9867028Y-17282114D01*
X9838457Y-17282114D01*
X9809886Y-17267829D01*
X9795600Y-17253543D01*
X9781314Y-17224972D01*
X9767028Y-17167829D01*
X9767028Y-17096400D01*
X9781314Y-17039257D01*
X9795600Y-17010686D01*
X9809886Y-16996400D01*
X9838457Y-16982114D01*
X10124171Y-16982114D02*
X10152743Y-16982114D01*
X10181314Y-16996400D01*
X10195600Y-17010686D01*
X10209886Y-17039257D01*
X10224171Y-17096400D01*
X10224171Y-17167829D01*
X10209886Y-17224972D01*
X10195600Y-17253543D01*
X10181314Y-17267829D01*
X10152743Y-17282114D01*
X10124171Y-17282114D01*
X10095600Y-17267829D01*
X10081314Y-17253543D01*
X10067028Y-17224972D01*
X10052743Y-17167829D01*
X10052743Y-17096400D01*
X10067028Y-17039257D01*
X10081314Y-17010686D01*
X10095600Y-16996400D01*
X10124171Y-16982114D01*
X10352743Y-17282114D02*
X10352743Y-17082114D01*
X10352743Y-17110686D02*
X10367028Y-17096400D01*
X10395600Y-17082114D01*
X10438457Y-17082114D01*
X10467028Y-17096400D01*
X10481314Y-17124972D01*
X10481314Y-17282114D01*
X10481314Y-17124972D02*
X10495600Y-17096400D01*
X10524171Y-17082114D01*
X10567028Y-17082114D01*
X10595600Y-17096400D01*
X10609886Y-17124972D01*
X10609886Y-17282114D01*
X10752743Y-17282114D02*
X10752743Y-17082114D01*
X10752743Y-17110686D02*
X10767028Y-17096400D01*
X10795600Y-17082114D01*
X10838457Y-17082114D01*
X10867028Y-17096400D01*
X10881314Y-17124972D01*
X10881314Y-17282114D01*
X10881314Y-17124972D02*
X10895600Y-17096400D01*
X10924171Y-17082114D01*
X10967028Y-17082114D01*
X10995600Y-17096400D01*
X11009886Y-17124972D01*
X11009886Y-17282114D01*
X11595600Y-16967829D02*
X11338457Y-17353543D01*
X11981314Y-16982114D02*
X12009886Y-16982114D01*
X12038457Y-16996400D01*
X12052743Y-17010686D01*
X12067028Y-17039257D01*
X12081314Y-17096400D01*
X12081314Y-17167829D01*
X12067028Y-17224972D01*
X12052743Y-17253543D01*
X12038457Y-17267829D01*
X12009886Y-17282114D01*
X11981314Y-17282114D01*
X11952743Y-17267829D01*
X11938457Y-17253543D01*
X11924171Y-17224972D01*
X11909886Y-17167829D01*
X11909886Y-17096400D01*
X11924171Y-17039257D01*
X11938457Y-17010686D01*
X11952743Y-16996400D01*
X11981314Y-16982114D01*
X12209886Y-17253543D02*
X12224171Y-17267829D01*
X12209886Y-17282114D01*
X12195600Y-17267829D01*
X12209886Y-17253543D01*
X12209886Y-17282114D01*
X12409886Y-16982114D02*
X12438457Y-16982114D01*
X12467028Y-16996400D01*
X12481314Y-17010686D01*
X12495600Y-17039257D01*
X12509886Y-17096400D01*
X12509886Y-17167829D01*
X12495600Y-17224972D01*
X12481314Y-17253543D01*
X12467028Y-17267829D01*
X12438457Y-17282114D01*
X12409886Y-17282114D01*
X12381314Y-17267829D01*
X12367028Y-17253543D01*
X12352743Y-17224972D01*
X12338457Y-17167829D01*
X12338457Y-17096400D01*
X12352743Y-17039257D01*
X12367028Y-17010686D01*
X12381314Y-16996400D01*
X12409886Y-16982114D01*
X12609886Y-16982114D02*
X12795600Y-16982114D01*
X12695600Y-17096400D01*
X12738457Y-17096400D01*
X12767028Y-17110686D01*
X12781314Y-17124972D01*
X12795600Y-17153543D01*
X12795600Y-17224972D01*
X12781314Y-17253543D01*
X12767028Y-17267829D01*
X12738457Y-17282114D01*
X12652743Y-17282114D01*
X12624171Y-17267829D01*
X12609886Y-17253543D01*
X12938457Y-17282114D02*
X12995600Y-17282114D01*
X13024171Y-17267829D01*
X13038457Y-17253543D01*
X13067028Y-17210686D01*
X13081314Y-17153543D01*
X13081314Y-17039257D01*
X13067028Y-17010686D01*
X13052743Y-16996400D01*
X13024171Y-16982114D01*
X12967028Y-16982114D01*
X12938457Y-16996400D01*
X12924171Y-17010686D01*
X12909886Y-17039257D01*
X12909886Y-17110686D01*
X12924171Y-17139257D01*
X12938457Y-17153543D01*
X12967028Y-17167829D01*
X13024171Y-17167829D01*
X13052743Y-17153543D01*
X13067028Y-17139257D01*
X13081314Y-17110686D01*
X13338457Y-17082114D02*
X13338457Y-17282114D01*
X13267028Y-16967829D02*
X13195600Y-17182114D01*
X13381314Y-17182114D01*
X13481314Y-16982114D02*
X13481314Y-17039257D01*
X13595600Y-16982114D02*
X13595600Y-17039257D01*
X14038457Y-17396400D02*
X14024171Y-17382114D01*
X13995600Y-17339257D01*
X13981314Y-17310686D01*
X13967028Y-17267829D01*
X13952743Y-17196400D01*
X13952743Y-17139257D01*
X13967028Y-17067829D01*
X13981314Y-17024972D01*
X13995600Y-16996400D01*
X14024171Y-16953543D01*
X14038457Y-16939257D01*
X14138457Y-17010686D02*
X14152743Y-16996400D01*
X14181314Y-16982114D01*
X14252743Y-16982114D01*
X14281314Y-16996400D01*
X14295600Y-17010686D01*
X14309886Y-17039257D01*
X14309886Y-17067829D01*
X14295600Y-17110686D01*
X14124171Y-17282114D01*
X14309886Y-17282114D01*
X14581314Y-16982114D02*
X14438457Y-16982114D01*
X14424171Y-17124972D01*
X14438457Y-17110686D01*
X14467028Y-17096400D01*
X14538457Y-17096400D01*
X14567028Y-17110686D01*
X14581314Y-17124972D01*
X14595600Y-17153543D01*
X14595600Y-17224972D01*
X14581314Y-17253543D01*
X14567028Y-17267829D01*
X14538457Y-17282114D01*
X14467028Y-17282114D01*
X14438457Y-17267829D01*
X14424171Y-17253543D01*
X14952743Y-17282114D02*
X14952743Y-16982114D01*
X15081314Y-17282114D02*
X15081314Y-17124972D01*
X15067028Y-17096400D01*
X15038457Y-17082114D01*
X14995600Y-17082114D01*
X14967028Y-17096400D01*
X14952743Y-17110686D01*
X15267028Y-17282114D02*
X15238457Y-17267829D01*
X15224171Y-17253543D01*
X15209886Y-17224972D01*
X15209886Y-17139257D01*
X15224171Y-17110686D01*
X15238457Y-17096400D01*
X15267028Y-17082114D01*
X15309886Y-17082114D01*
X15338457Y-17096400D01*
X15352743Y-17110686D01*
X15367028Y-17139257D01*
X15367028Y-17224972D01*
X15352743Y-17253543D01*
X15338457Y-17267829D01*
X15309886Y-17282114D01*
X15267028Y-17282114D01*
X15538457Y-17282114D02*
X15509886Y-17267829D01*
X15495600Y-17239257D01*
X15495600Y-16982114D01*
X15767028Y-17267829D02*
X15738457Y-17282114D01*
X15681314Y-17282114D01*
X15652743Y-17267829D01*
X15638457Y-17239257D01*
X15638457Y-17124972D01*
X15652743Y-17096400D01*
X15681314Y-17082114D01*
X15738457Y-17082114D01*
X15767028Y-17096400D01*
X15781314Y-17124972D01*
X15781314Y-17153543D01*
X15638457Y-17182114D01*
X15895600Y-17267829D02*
X15924171Y-17282114D01*
X15981314Y-17282114D01*
X16009886Y-17267829D01*
X16024171Y-17239257D01*
X16024171Y-17224972D01*
X16009886Y-17196400D01*
X15981314Y-17182114D01*
X15938457Y-17182114D01*
X15909886Y-17167829D01*
X15895600Y-17139257D01*
X15895600Y-17124972D01*
X15909886Y-17096400D01*
X15938457Y-17082114D01*
X15981314Y-17082114D01*
X16009886Y-17096400D01*
X16124171Y-17396400D02*
X16138457Y-17382114D01*
X16167028Y-17339257D01*
X16181314Y-17310686D01*
X16195600Y-17267829D01*
X16209886Y-17196400D01*
X16209886Y-17139257D01*
X16195600Y-17067829D01*
X16181314Y-17024972D01*
X16167028Y-16996400D01*
X16138457Y-16953543D01*
X16124171Y-16939257D01*
X8729800Y-17593200D02*
X8780600Y-17542400D01*
X8729800Y-17491600D01*
X8679000Y-17542400D01*
X8729800Y-17593200D01*
X9224171Y-17678114D02*
X9052743Y-17678114D01*
X9138457Y-17678114D02*
X9138457Y-17378114D01*
X9109886Y-17420972D01*
X9081314Y-17449543D01*
X9052743Y-17463829D01*
X9352743Y-17649543D02*
X9367028Y-17663829D01*
X9352743Y-17678114D01*
X9338457Y-17663829D01*
X9352743Y-17649543D01*
X9352743Y-17678114D01*
X9552743Y-17378114D02*
X9581314Y-17378114D01*
X9609886Y-17392400D01*
X9624171Y-17406686D01*
X9638457Y-17435257D01*
X9652743Y-17492400D01*
X9652743Y-17563829D01*
X9638457Y-17620972D01*
X9624171Y-17649543D01*
X9609886Y-17663829D01*
X9581314Y-17678114D01*
X9552743Y-17678114D01*
X9524171Y-17663829D01*
X9509886Y-17649543D01*
X9495600Y-17620972D01*
X9481314Y-17563829D01*
X9481314Y-17492400D01*
X9495600Y-17435257D01*
X9509886Y-17406686D01*
X9524171Y-17392400D01*
X9552743Y-17378114D01*
X9938457Y-17678114D02*
X9767028Y-17678114D01*
X9852743Y-17678114D02*
X9852743Y-17378114D01*
X9824171Y-17420972D01*
X9795600Y-17449543D01*
X9767028Y-17463829D01*
X10195600Y-17378114D02*
X10138457Y-17378114D01*
X10109886Y-17392400D01*
X10095600Y-17406686D01*
X10067028Y-17449543D01*
X10052743Y-17506686D01*
X10052743Y-17620972D01*
X10067028Y-17649543D01*
X10081314Y-17663829D01*
X10109886Y-17678114D01*
X10167028Y-17678114D01*
X10195600Y-17663829D01*
X10209886Y-17649543D01*
X10224171Y-17620972D01*
X10224171Y-17549543D01*
X10209886Y-17520972D01*
X10195600Y-17506686D01*
X10167028Y-17492400D01*
X10109886Y-17492400D01*
X10081314Y-17506686D01*
X10067028Y-17520972D01*
X10052743Y-17549543D01*
X10352743Y-17678114D02*
X10352743Y-17478114D01*
X10352743Y-17506686D02*
X10367028Y-17492400D01*
X10395600Y-17478114D01*
X10438457Y-17478114D01*
X10467028Y-17492400D01*
X10481314Y-17520972D01*
X10481314Y-17678114D01*
X10481314Y-17520972D02*
X10495600Y-17492400D01*
X10524171Y-17478114D01*
X10567028Y-17478114D01*
X10595600Y-17492400D01*
X10609886Y-17520972D01*
X10609886Y-17678114D01*
X10752743Y-17678114D02*
X10752743Y-17478114D01*
X10752743Y-17506686D02*
X10767028Y-17492400D01*
X10795600Y-17478114D01*
X10838457Y-17478114D01*
X10867028Y-17492400D01*
X10881314Y-17520972D01*
X10881314Y-17678114D01*
X10881314Y-17520972D02*
X10895600Y-17492400D01*
X10924171Y-17478114D01*
X10967028Y-17478114D01*
X10995600Y-17492400D01*
X11009886Y-17520972D01*
X11009886Y-17678114D01*
X11595600Y-17363829D02*
X11338457Y-17749543D01*
X11981314Y-17378114D02*
X12009886Y-17378114D01*
X12038457Y-17392400D01*
X12052743Y-17406686D01*
X12067028Y-17435257D01*
X12081314Y-17492400D01*
X12081314Y-17563829D01*
X12067028Y-17620972D01*
X12052743Y-17649543D01*
X12038457Y-17663829D01*
X12009886Y-17678114D01*
X11981314Y-17678114D01*
X11952743Y-17663829D01*
X11938457Y-17649543D01*
X11924171Y-17620972D01*
X11909886Y-17563829D01*
X11909886Y-17492400D01*
X11924171Y-17435257D01*
X11938457Y-17406686D01*
X11952743Y-17392400D01*
X11981314Y-17378114D01*
X12209886Y-17649543D02*
X12224171Y-17663829D01*
X12209886Y-17678114D01*
X12195600Y-17663829D01*
X12209886Y-17649543D01*
X12209886Y-17678114D01*
X12409886Y-17378114D02*
X12438457Y-17378114D01*
X12467028Y-17392400D01*
X12481314Y-17406686D01*
X12495600Y-17435257D01*
X12509886Y-17492400D01*
X12509886Y-17563829D01*
X12495600Y-17620972D01*
X12481314Y-17649543D01*
X12467028Y-17663829D01*
X12438457Y-17678114D01*
X12409886Y-17678114D01*
X12381314Y-17663829D01*
X12367028Y-17649543D01*
X12352743Y-17620972D01*
X12338457Y-17563829D01*
X12338457Y-17492400D01*
X12352743Y-17435257D01*
X12367028Y-17406686D01*
X12381314Y-17392400D01*
X12409886Y-17378114D01*
X12767028Y-17478114D02*
X12767028Y-17678114D01*
X12695600Y-17363829D02*
X12624171Y-17578114D01*
X12809886Y-17578114D01*
X12981314Y-17378114D02*
X13009886Y-17378114D01*
X13038457Y-17392400D01*
X13052743Y-17406686D01*
X13067028Y-17435257D01*
X13081314Y-17492400D01*
X13081314Y-17563829D01*
X13067028Y-17620972D01*
X13052743Y-17649543D01*
X13038457Y-17663829D01*
X13009886Y-17678114D01*
X12981314Y-17678114D01*
X12952743Y-17663829D01*
X12938457Y-17649543D01*
X12924171Y-17620972D01*
X12909886Y-17563829D01*
X12909886Y-17492400D01*
X12924171Y-17435257D01*
X12938457Y-17406686D01*
X12952743Y-17392400D01*
X12981314Y-17378114D01*
X13267028Y-17378114D02*
X13295600Y-17378114D01*
X13324171Y-17392400D01*
X13338457Y-17406686D01*
X13352743Y-17435257D01*
X13367028Y-17492400D01*
X13367028Y-17563829D01*
X13352743Y-17620972D01*
X13338457Y-17649543D01*
X13324171Y-17663829D01*
X13295600Y-17678114D01*
X13267028Y-17678114D01*
X13238457Y-17663829D01*
X13224171Y-17649543D01*
X13209886Y-17620972D01*
X13195600Y-17563829D01*
X13195600Y-17492400D01*
X13209886Y-17435257D01*
X13224171Y-17406686D01*
X13238457Y-17392400D01*
X13267028Y-17378114D01*
X13481314Y-17378114D02*
X13481314Y-17435257D01*
X13595600Y-17378114D02*
X13595600Y-17435257D01*
X14038457Y-17792400D02*
X14024171Y-17778114D01*
X13995600Y-17735257D01*
X13981314Y-17706686D01*
X13967028Y-17663829D01*
X13952743Y-17592400D01*
X13952743Y-17535257D01*
X13967028Y-17463829D01*
X13981314Y-17420972D01*
X13995600Y-17392400D01*
X14024171Y-17349543D01*
X14038457Y-17335257D01*
X14281314Y-17478114D02*
X14281314Y-17678114D01*
X14209886Y-17363829D02*
X14138457Y-17578114D01*
X14324171Y-17578114D01*
X14495600Y-17378114D02*
X14524171Y-17378114D01*
X14552743Y-17392400D01*
X14567028Y-17406686D01*
X14581314Y-17435257D01*
X14595600Y-17492400D01*
X14595600Y-17563829D01*
X14581314Y-17620972D01*
X14567028Y-17649543D01*
X14552743Y-17663829D01*
X14524171Y-17678114D01*
X14495600Y-17678114D01*
X14467028Y-17663829D01*
X14452743Y-17649543D01*
X14438457Y-17620972D01*
X14424171Y-17563829D01*
X14424171Y-17492400D01*
X14438457Y-17435257D01*
X14452743Y-17406686D01*
X14467028Y-17392400D01*
X14495600Y-17378114D01*
X14952743Y-17678114D02*
X14952743Y-17378114D01*
X15081314Y-17678114D02*
X15081314Y-17520972D01*
X15067028Y-17492400D01*
X15038457Y-17478114D01*
X14995600Y-17478114D01*
X14967028Y-17492400D01*
X14952743Y-17506686D01*
X15267028Y-17678114D02*
X15238457Y-17663829D01*
X15224171Y-17649543D01*
X15209886Y-17620972D01*
X15209886Y-17535257D01*
X15224171Y-17506686D01*
X15238457Y-17492400D01*
X15267028Y-17478114D01*
X15309886Y-17478114D01*
X15338457Y-17492400D01*
X15352743Y-17506686D01*
X15367028Y-17535257D01*
X15367028Y-17620972D01*
X15352743Y-17649543D01*
X15338457Y-17663829D01*
X15309886Y-17678114D01*
X15267028Y-17678114D01*
X15538457Y-17678114D02*
X15509886Y-17663829D01*
X15495600Y-17635257D01*
X15495600Y-17378114D01*
X15767028Y-17663829D02*
X15738457Y-17678114D01*
X15681314Y-17678114D01*
X15652743Y-17663829D01*
X15638457Y-17635257D01*
X15638457Y-17520972D01*
X15652743Y-17492400D01*
X15681314Y-17478114D01*
X15738457Y-17478114D01*
X15767028Y-17492400D01*
X15781314Y-17520972D01*
X15781314Y-17549543D01*
X15638457Y-17578114D01*
X15895600Y-17663829D02*
X15924171Y-17678114D01*
X15981314Y-17678114D01*
X16009886Y-17663829D01*
X16024171Y-17635257D01*
X16024171Y-17620972D01*
X16009886Y-17592400D01*
X15981314Y-17578114D01*
X15938457Y-17578114D01*
X15909886Y-17563829D01*
X15895600Y-17535257D01*
X15895600Y-17520972D01*
X15909886Y-17492400D01*
X15938457Y-17478114D01*
X15981314Y-17478114D01*
X16009886Y-17492400D01*
X16124171Y-17792400D02*
X16138457Y-17778114D01*
X16167028Y-17735257D01*
X16181314Y-17706686D01*
X16195600Y-17663829D01*
X16209886Y-17592400D01*
X16209886Y-17535257D01*
X16195600Y-17463829D01*
X16181314Y-17420972D01*
X16167028Y-17392400D01*
X16138457Y-17349543D01*
X16124171Y-17335257D01*
X8460600Y-17778400D02*
X8780600Y-18098400D01*
X8780600Y-17778400D02*
X8460600Y-18098400D01*
X8780600Y-17938400D02*
G75*
G03*
X8780600Y-17938400I-160000J0D01*
G01*
X9038457Y-17774114D02*
X9224171Y-17774114D01*
X9124171Y-17888400D01*
X9167028Y-17888400D01*
X9195600Y-17902686D01*
X9209886Y-17916972D01*
X9224171Y-17945543D01*
X9224171Y-18016972D01*
X9209886Y-18045543D01*
X9195600Y-18059829D01*
X9167028Y-18074114D01*
X9081314Y-18074114D01*
X9052743Y-18059829D01*
X9038457Y-18045543D01*
X9352743Y-18045543D02*
X9367028Y-18059829D01*
X9352743Y-18074114D01*
X9338457Y-18059829D01*
X9352743Y-18045543D01*
X9352743Y-18074114D01*
X9481314Y-17802686D02*
X9495600Y-17788400D01*
X9524171Y-17774114D01*
X9595600Y-17774114D01*
X9624171Y-17788400D01*
X9638457Y-17802686D01*
X9652743Y-17831257D01*
X9652743Y-17859829D01*
X9638457Y-17902686D01*
X9467028Y-18074114D01*
X9652743Y-18074114D01*
X9838457Y-17774114D02*
X9867028Y-17774114D01*
X9895600Y-17788400D01*
X9909886Y-17802686D01*
X9924171Y-17831257D01*
X9938457Y-17888400D01*
X9938457Y-17959829D01*
X9924171Y-18016972D01*
X9909886Y-18045543D01*
X9895600Y-18059829D01*
X9867028Y-18074114D01*
X9838457Y-18074114D01*
X9809886Y-18059829D01*
X9795600Y-18045543D01*
X9781314Y-18016972D01*
X9767028Y-17959829D01*
X9767028Y-17888400D01*
X9781314Y-17831257D01*
X9795600Y-17802686D01*
X9809886Y-17788400D01*
X9838457Y-17774114D01*
X10124171Y-17774114D02*
X10152743Y-17774114D01*
X10181314Y-17788400D01*
X10195600Y-17802686D01*
X10209886Y-17831257D01*
X10224171Y-17888400D01*
X10224171Y-17959829D01*
X10209886Y-18016972D01*
X10195600Y-18045543D01*
X10181314Y-18059829D01*
X10152743Y-18074114D01*
X10124171Y-18074114D01*
X10095600Y-18059829D01*
X10081314Y-18045543D01*
X10067028Y-18016972D01*
X10052743Y-17959829D01*
X10052743Y-17888400D01*
X10067028Y-17831257D01*
X10081314Y-17802686D01*
X10095600Y-17788400D01*
X10124171Y-17774114D01*
X10352743Y-18074114D02*
X10352743Y-17874114D01*
X10352743Y-17902686D02*
X10367028Y-17888400D01*
X10395600Y-17874114D01*
X10438457Y-17874114D01*
X10467028Y-17888400D01*
X10481314Y-17916972D01*
X10481314Y-18074114D01*
X10481314Y-17916972D02*
X10495600Y-17888400D01*
X10524171Y-17874114D01*
X10567028Y-17874114D01*
X10595600Y-17888400D01*
X10609886Y-17916972D01*
X10609886Y-18074114D01*
X10752743Y-18074114D02*
X10752743Y-17874114D01*
X10752743Y-17902686D02*
X10767028Y-17888400D01*
X10795600Y-17874114D01*
X10838457Y-17874114D01*
X10867028Y-17888400D01*
X10881314Y-17916972D01*
X10881314Y-18074114D01*
X10881314Y-17916972D02*
X10895600Y-17888400D01*
X10924171Y-17874114D01*
X10967028Y-17874114D01*
X10995600Y-17888400D01*
X11009886Y-17916972D01*
X11009886Y-18074114D01*
X11595600Y-17759829D02*
X11338457Y-18145543D01*
X11981314Y-17774114D02*
X12009886Y-17774114D01*
X12038457Y-17788400D01*
X12052743Y-17802686D01*
X12067028Y-17831257D01*
X12081314Y-17888400D01*
X12081314Y-17959829D01*
X12067028Y-18016972D01*
X12052743Y-18045543D01*
X12038457Y-18059829D01*
X12009886Y-18074114D01*
X11981314Y-18074114D01*
X11952743Y-18059829D01*
X11938457Y-18045543D01*
X11924171Y-18016972D01*
X11909886Y-17959829D01*
X11909886Y-17888400D01*
X11924171Y-17831257D01*
X11938457Y-17802686D01*
X11952743Y-17788400D01*
X11981314Y-17774114D01*
X12209886Y-18045543D02*
X12224171Y-18059829D01*
X12209886Y-18074114D01*
X12195600Y-18059829D01*
X12209886Y-18045543D01*
X12209886Y-18074114D01*
X12509886Y-18074114D02*
X12338457Y-18074114D01*
X12424171Y-18074114D02*
X12424171Y-17774114D01*
X12395600Y-17816972D01*
X12367028Y-17845543D01*
X12338457Y-17859829D01*
X12624171Y-17802686D02*
X12638457Y-17788400D01*
X12667028Y-17774114D01*
X12738457Y-17774114D01*
X12767028Y-17788400D01*
X12781314Y-17802686D01*
X12795600Y-17831257D01*
X12795600Y-17859829D01*
X12781314Y-17902686D01*
X12609886Y-18074114D01*
X12795600Y-18074114D01*
X13052743Y-17774114D02*
X12995600Y-17774114D01*
X12967028Y-17788400D01*
X12952743Y-17802686D01*
X12924171Y-17845543D01*
X12909886Y-17902686D01*
X12909886Y-18016972D01*
X12924171Y-18045543D01*
X12938457Y-18059829D01*
X12967028Y-18074114D01*
X13024171Y-18074114D01*
X13052743Y-18059829D01*
X13067028Y-18045543D01*
X13081314Y-18016972D01*
X13081314Y-17945543D01*
X13067028Y-17916972D01*
X13052743Y-17902686D01*
X13024171Y-17888400D01*
X12967028Y-17888400D01*
X12938457Y-17902686D01*
X12924171Y-17916972D01*
X12909886Y-17945543D01*
X13267028Y-17774114D02*
X13295600Y-17774114D01*
X13324171Y-17788400D01*
X13338457Y-17802686D01*
X13352743Y-17831257D01*
X13367028Y-17888400D01*
X13367028Y-17959829D01*
X13352743Y-18016972D01*
X13338457Y-18045543D01*
X13324171Y-18059829D01*
X13295600Y-18074114D01*
X13267028Y-18074114D01*
X13238457Y-18059829D01*
X13224171Y-18045543D01*
X13209886Y-18016972D01*
X13195600Y-17959829D01*
X13195600Y-17888400D01*
X13209886Y-17831257D01*
X13224171Y-17802686D01*
X13238457Y-17788400D01*
X13267028Y-17774114D01*
X13481314Y-17774114D02*
X13481314Y-17831257D01*
X13595600Y-17774114D02*
X13595600Y-17831257D01*
X14038457Y-18188400D02*
X14024171Y-18174114D01*
X13995600Y-18131257D01*
X13981314Y-18102686D01*
X13967028Y-18059829D01*
X13952743Y-17988400D01*
X13952743Y-17931257D01*
X13967028Y-17859829D01*
X13981314Y-17816972D01*
X13995600Y-17788400D01*
X14024171Y-17745543D01*
X14038457Y-17731257D01*
X14138457Y-17802686D02*
X14152743Y-17788400D01*
X14181314Y-17774114D01*
X14252743Y-17774114D01*
X14281314Y-17788400D01*
X14295600Y-17802686D01*
X14309886Y-17831257D01*
X14309886Y-17859829D01*
X14295600Y-17902686D01*
X14124171Y-18074114D01*
X14309886Y-18074114D01*
X14667028Y-18074114D02*
X14667028Y-17774114D01*
X14795600Y-18074114D02*
X14795600Y-17916972D01*
X14781314Y-17888400D01*
X14752743Y-17874114D01*
X14709886Y-17874114D01*
X14681314Y-17888400D01*
X14667028Y-17902686D01*
X14981314Y-18074114D02*
X14952743Y-18059829D01*
X14938457Y-18045543D01*
X14924171Y-18016972D01*
X14924171Y-17931257D01*
X14938457Y-17902686D01*
X14952743Y-17888400D01*
X14981314Y-17874114D01*
X15024171Y-17874114D01*
X15052743Y-17888400D01*
X15067028Y-17902686D01*
X15081314Y-17931257D01*
X15081314Y-18016972D01*
X15067028Y-18045543D01*
X15052743Y-18059829D01*
X15024171Y-18074114D01*
X14981314Y-18074114D01*
X15252743Y-18074114D02*
X15224171Y-18059829D01*
X15209886Y-18031257D01*
X15209886Y-17774114D01*
X15481314Y-18059829D02*
X15452743Y-18074114D01*
X15395600Y-18074114D01*
X15367028Y-18059829D01*
X15352743Y-18031257D01*
X15352743Y-17916972D01*
X15367028Y-17888400D01*
X15395600Y-17874114D01*
X15452743Y-17874114D01*
X15481314Y-17888400D01*
X15495600Y-17916972D01*
X15495600Y-17945543D01*
X15352743Y-17974114D01*
X15609886Y-18059829D02*
X15638457Y-18074114D01*
X15695600Y-18074114D01*
X15724171Y-18059829D01*
X15738457Y-18031257D01*
X15738457Y-18016972D01*
X15724171Y-17988400D01*
X15695600Y-17974114D01*
X15652743Y-17974114D01*
X15624171Y-17959829D01*
X15609886Y-17931257D01*
X15609886Y-17916972D01*
X15624171Y-17888400D01*
X15652743Y-17874114D01*
X15695600Y-17874114D01*
X15724171Y-17888400D01*
X15838457Y-18188400D02*
X15852743Y-18174114D01*
X15881314Y-18131257D01*
X15895600Y-18102686D01*
X15909886Y-18059829D01*
X15924171Y-17988400D01*
X15924171Y-17931257D01*
X15909886Y-17859829D01*
X15895600Y-17816972D01*
X15881314Y-17788400D01*
X15852743Y-17745543D01*
X15838457Y-17731257D01*
M02*
