M48
; DRILL file {KiCad (5.1.10-1-10_14)} date Saturday, October 09, 2021 at 02:12:26 PM
; FORMAT={-:-/ absolute / metric / decimal}
; #@! TF.CreationDate,2021-10-09T14:12:26-05:00
; #@! TF.GenerationSoftware,Kicad,Pcbnew,(5.1.10-1-10_14)
; #@! TF.FileFunction,Plated,1,2,PTH
FMAT,2
METRIC
T1C0.400
T2C0.800
T3C0.900
T4C1.000
T5C1.016
T6C3.200
%
G90
G05
T1
X93.585Y-103.205
X95.593Y-137.594
X96.835Y-99.205
X97.089Y-113.918
X97.335Y-126.455
X97.844Y-139.442
X99.789Y-116.917
X100.835Y-113.955
X107.236Y-131.299
X113.564Y-105.889
X115.482Y-106.404
X116.585Y-104.205
X122.835Y-121.705
T2
X108.315Y-98.175
X108.315Y-100.715
X108.315Y-103.255
X108.315Y-105.795
X108.315Y-108.335
X108.315Y-110.875
X108.315Y-113.415
X108.315Y-115.955
X108.315Y-118.495
X108.315Y-121.035
X108.315Y-124.845
X108.315Y-127.385
X108.315Y-129.925
X108.315Y-132.465
X108.315Y-135.005
X108.315Y-137.545
X108.315Y-140.085
X108.315Y-142.625
X108.315Y-145.165
X108.315Y-147.705
X112.125Y-98.175
X112.125Y-100.715
X112.125Y-103.255
X112.125Y-105.795
X112.125Y-108.335
X112.125Y-110.875
X112.125Y-113.415
X112.125Y-115.955
X112.125Y-118.495
X112.125Y-121.035
X112.125Y-124.845
X112.125Y-127.385
X112.125Y-129.925
X112.125Y-132.465
X112.125Y-135.005
X112.125Y-137.545
X112.125Y-140.085
X112.125Y-142.625
X112.125Y-145.165
X112.125Y-147.705
T3
X97.085Y-140.955
X97.085Y-148.575
T4
X117.335Y-106.215
X117.335Y-108.985
X117.335Y-111.755
X117.335Y-114.525
X117.335Y-117.295
X117.335Y-120.065
X117.335Y-122.835
X117.335Y-125.605
X117.335Y-128.375
X117.335Y-131.145
X117.335Y-133.915
X117.335Y-136.685
X117.335Y-139.455
X120.175Y-107.6
X120.175Y-110.37
X120.175Y-113.14
X120.175Y-115.91
X120.175Y-118.68
X120.175Y-121.45
X120.175Y-124.22
X120.175Y-126.99
X120.175Y-129.76
X120.175Y-132.53
X120.175Y-135.3
X120.175Y-138.07
T5
X89.595Y-99.205
X89.595Y-101.745
X89.595Y-104.285
X89.595Y-106.825
X89.595Y-109.365
X89.595Y-111.905
X89.595Y-114.445
X89.595Y-116.985
X89.595Y-119.525
X89.595Y-122.065
X89.595Y-124.605
X89.595Y-127.145
X89.595Y-129.685
X89.595Y-132.225
X89.595Y-134.765
X89.595Y-137.305
X89.595Y-139.845
X89.595Y-142.385
X89.595Y-144.925
X89.595Y-147.516
X104.835Y-99.205
X104.835Y-101.745
X104.835Y-104.285
X104.835Y-106.825
X104.835Y-109.365
X104.835Y-111.905
X104.835Y-114.445
X104.835Y-116.985
X104.835Y-119.525
X104.835Y-122.065
X104.835Y-124.605
X104.835Y-127.145
X104.835Y-129.685
X104.835Y-132.225
X104.835Y-134.765
X104.835Y-137.305
X104.835Y-139.845
X104.835Y-142.385
X104.835Y-144.925
X104.835Y-147.465
T6
X117.635Y-99.285
X117.635Y-146.385
T0
M30
