%FSLAX45Y45*%
G04 Gerber Fmt 4.5, Leading zero omitted, Abs format (unit mm)*
G04 Created by KiCad (PCBNEW (5.1.10-1-10_14)) date 2021-10-09 14:12:27*
%MOMM*%
%LPD*%
G01*
G04 APERTURE LIST*
%TA.AperFunction,Profile*%
%ADD10C,0.050000*%
%TD*%
%ADD11C,0.200000*%
%ADD12C,0.300000*%
G04 APERTURE END LIST*
D10*
X12509500Y-14970500D02*
G75*
G02*
X12484100Y-14995900I-25400J0D01*
G01*
X8808500Y-14995500D02*
G75*
G02*
X8783100Y-14970100I0J25400D01*
G01*
X8783500Y-9613900D02*
G75*
G02*
X8808900Y-9588500I25400J0D01*
G01*
X12471400Y-9588500D02*
G75*
G02*
X12509500Y-9626600I0J-38100D01*
G01*
X12484100Y-14995900D02*
X8808500Y-14995500D01*
X12471400Y-9588500D02*
X8808900Y-9588500D01*
X12509500Y-14970500D02*
X12509500Y-9626600D01*
X8783100Y-14970100D02*
X8783500Y-9613900D01*
D11*
D12*
X9067028Y-15464114D02*
X9067028Y-15164114D01*
X9138457Y-15164114D01*
X9181314Y-15178400D01*
X9209886Y-15206971D01*
X9224171Y-15235543D01*
X9238457Y-15292686D01*
X9238457Y-15335543D01*
X9224171Y-15392686D01*
X9209886Y-15421257D01*
X9181314Y-15449829D01*
X9138457Y-15464114D01*
X9067028Y-15464114D01*
X9367028Y-15464114D02*
X9367028Y-15264114D01*
X9367028Y-15321257D02*
X9381314Y-15292686D01*
X9395600Y-15278400D01*
X9424171Y-15264114D01*
X9452743Y-15264114D01*
X9552743Y-15464114D02*
X9552743Y-15264114D01*
X9552743Y-15164114D02*
X9538457Y-15178400D01*
X9552743Y-15192686D01*
X9567028Y-15178400D01*
X9552743Y-15164114D01*
X9552743Y-15192686D01*
X9738457Y-15464114D02*
X9709886Y-15449829D01*
X9695600Y-15421257D01*
X9695600Y-15164114D01*
X9895600Y-15464114D02*
X9867028Y-15449829D01*
X9852743Y-15421257D01*
X9852743Y-15164114D01*
X10238457Y-15464114D02*
X10238457Y-15164114D01*
X10338457Y-15378400D01*
X10438457Y-15164114D01*
X10438457Y-15464114D01*
X10709886Y-15464114D02*
X10709886Y-15306971D01*
X10695600Y-15278400D01*
X10667028Y-15264114D01*
X10609886Y-15264114D01*
X10581314Y-15278400D01*
X10709886Y-15449829D02*
X10681314Y-15464114D01*
X10609886Y-15464114D01*
X10581314Y-15449829D01*
X10567028Y-15421257D01*
X10567028Y-15392686D01*
X10581314Y-15364114D01*
X10609886Y-15349829D01*
X10681314Y-15349829D01*
X10709886Y-15335543D01*
X10852743Y-15264114D02*
X10852743Y-15564114D01*
X10852743Y-15278400D02*
X10881314Y-15264114D01*
X10938457Y-15264114D01*
X10967028Y-15278400D01*
X10981314Y-15292686D01*
X10995600Y-15321257D01*
X10995600Y-15406971D01*
X10981314Y-15435543D01*
X10967028Y-15449829D01*
X10938457Y-15464114D01*
X10881314Y-15464114D01*
X10852743Y-15449829D01*
X11124171Y-15435543D02*
X11138457Y-15449829D01*
X11124171Y-15464114D01*
X11109886Y-15449829D01*
X11124171Y-15435543D01*
X11124171Y-15464114D01*
X11124171Y-15278400D02*
X11138457Y-15292686D01*
X11124171Y-15306971D01*
X11109886Y-15292686D01*
X11124171Y-15278400D01*
X11124171Y-15306971D01*
M02*
