%TF.GenerationSoftware,KiCad,Pcbnew,(5.1.10-1-10_14)*%
%TF.CreationDate,2021-10-09T14:12:20-05:00*%
%TF.ProjectId,bluepill_scsi,626c7565-7069-46c6-9c5f-736373692e6b,rev?*%
%TF.SameCoordinates,Original*%
%TF.FileFunction,Soldermask,Top*%
%TF.FilePolarity,Negative*%
%FSLAX46Y46*%
G04 Gerber Fmt 4.6, Leading zero omitted, Abs format (unit mm)*
G04 Created by KiCad (PCBNEW (5.1.10-1-10_14)) date 2021-10-09 14:12:20*
%MOMM*%
%LPD*%
G01*
G04 APERTURE LIST*
%TA.AperFunction,Profile*%
%ADD10C,0.050000*%
%TD*%
%ADD11O,2.350000X1.827200*%
%ADD12O,1.700000X1.700000*%
%ADD13O,1.900000X1.900000*%
%ADD14C,1.700000*%
%ADD15C,4.100000*%
G04 APERTURE END LIST*
D10*
X125095000Y-149705000D02*
G75*
G02*
X124841000Y-149959000I-254000J0D01*
G01*
X88085000Y-149955000D02*
G75*
G02*
X87831000Y-149701000I0J254000D01*
G01*
X87835000Y-96139000D02*
G75*
G02*
X88089000Y-95885000I254000J0D01*
G01*
X124714000Y-95885000D02*
G75*
G02*
X125095000Y-96266000I0J-381000D01*
G01*
X124841000Y-149959000D02*
X88085000Y-149955000D01*
X124714000Y-95885000D02*
X88089000Y-95885000D01*
X125095000Y-149705000D02*
X125095000Y-96266000D01*
X87831000Y-149701000D02*
X87835000Y-96139000D01*
D11*
%TO.C,U1*%
X89595000Y-147515600D03*
X89595000Y-144924800D03*
X89595000Y-142384800D03*
X89595000Y-139844800D03*
X89595000Y-137304800D03*
X89595000Y-134764800D03*
X89595000Y-132224800D03*
X89595000Y-129684800D03*
X89595000Y-127144800D03*
X89595000Y-124604800D03*
X89595000Y-122064800D03*
X89595000Y-119524800D03*
X89595000Y-116984800D03*
X89595000Y-114444800D03*
X89595000Y-111904800D03*
X89595000Y-109364800D03*
X89595000Y-106824800D03*
X89595000Y-104284800D03*
X89595000Y-101744800D03*
X89595000Y-99204800D03*
X104835000Y-99204800D03*
X104835000Y-101744800D03*
X104835000Y-104284800D03*
X104835000Y-106824800D03*
X104835000Y-109364800D03*
X104835000Y-111904800D03*
X104835000Y-114444800D03*
X104835000Y-116984800D03*
X104835000Y-119524800D03*
X104835000Y-122064800D03*
X104835000Y-124604800D03*
X104835000Y-127144800D03*
X104835000Y-129684800D03*
X104835000Y-132224800D03*
X104835000Y-134764800D03*
X104835000Y-137304800D03*
X104835000Y-139844800D03*
X104835000Y-142384800D03*
X104835000Y-144924800D03*
G36*
G01*
X105960000Y-148378400D02*
X103710000Y-148378400D01*
G75*
G02*
X103660000Y-148328400I0J50000D01*
G01*
X103660000Y-146601200D01*
G75*
G02*
X103710000Y-146551200I50000J0D01*
G01*
X105960000Y-146551200D01*
G75*
G02*
X106010000Y-146601200I0J-50000D01*
G01*
X106010000Y-148328400D01*
G75*
G02*
X105960000Y-148378400I-50000J0D01*
G01*
G37*
%TD*%
%TO.C,RN1*%
G36*
G01*
X107515000Y-97325000D02*
X109115000Y-97325000D01*
G75*
G02*
X109165000Y-97375000I0J-50000D01*
G01*
X109165000Y-98975000D01*
G75*
G02*
X109115000Y-99025000I-50000J0D01*
G01*
X107515000Y-99025000D01*
G75*
G02*
X107465000Y-98975000I0J50000D01*
G01*
X107465000Y-97375000D01*
G75*
G02*
X107515000Y-97325000I50000J0D01*
G01*
G37*
D12*
X108315000Y-100715000D03*
X108315000Y-103255000D03*
X108315000Y-105795000D03*
X108315000Y-108335000D03*
X108315000Y-110875000D03*
X108315000Y-113415000D03*
X108315000Y-115955000D03*
X108315000Y-118495000D03*
X108315000Y-121035000D03*
%TD*%
%TO.C,RN2*%
G36*
G01*
X111325000Y-97325000D02*
X112925000Y-97325000D01*
G75*
G02*
X112975000Y-97375000I0J-50000D01*
G01*
X112975000Y-98975000D01*
G75*
G02*
X112925000Y-99025000I-50000J0D01*
G01*
X111325000Y-99025000D01*
G75*
G02*
X111275000Y-98975000I0J50000D01*
G01*
X111275000Y-97375000D01*
G75*
G02*
X111325000Y-97325000I50000J0D01*
G01*
G37*
X112125000Y-100715000D03*
X112125000Y-103255000D03*
X112125000Y-105795000D03*
X112125000Y-108335000D03*
X112125000Y-110875000D03*
X112125000Y-113415000D03*
X112125000Y-115955000D03*
X112125000Y-118495000D03*
X112125000Y-121035000D03*
%TD*%
%TO.C,RN3*%
X108315000Y-147705000D03*
X108315000Y-145165000D03*
X108315000Y-142625000D03*
X108315000Y-140085000D03*
X108315000Y-137545000D03*
X108315000Y-135005000D03*
X108315000Y-132465000D03*
X108315000Y-129925000D03*
X108315000Y-127385000D03*
G36*
G01*
X107515000Y-123995000D02*
X109115000Y-123995000D01*
G75*
G02*
X109165000Y-124045000I0J-50000D01*
G01*
X109165000Y-125645000D01*
G75*
G02*
X109115000Y-125695000I-50000J0D01*
G01*
X107515000Y-125695000D01*
G75*
G02*
X107465000Y-125645000I0J50000D01*
G01*
X107465000Y-124045000D01*
G75*
G02*
X107515000Y-123995000I50000J0D01*
G01*
G37*
%TD*%
%TO.C,RN4*%
X112125000Y-147705000D03*
X112125000Y-145165000D03*
X112125000Y-142625000D03*
X112125000Y-140085000D03*
X112125000Y-137545000D03*
X112125000Y-135005000D03*
X112125000Y-132465000D03*
X112125000Y-129925000D03*
X112125000Y-127385000D03*
G36*
G01*
X111325000Y-123995000D02*
X112925000Y-123995000D01*
G75*
G02*
X112975000Y-124045000I0J-50000D01*
G01*
X112975000Y-125645000D01*
G75*
G02*
X112925000Y-125695000I-50000J0D01*
G01*
X111325000Y-125695000D01*
G75*
G02*
X111275000Y-125645000I0J50000D01*
G01*
X111275000Y-124045000D01*
G75*
G02*
X111325000Y-123995000I50000J0D01*
G01*
G37*
%TD*%
%TO.C,D5*%
G36*
G01*
X96185000Y-140005000D02*
X97985000Y-140005000D01*
G75*
G02*
X98035000Y-140055000I0J-50000D01*
G01*
X98035000Y-141855000D01*
G75*
G02*
X97985000Y-141905000I-50000J0D01*
G01*
X96185000Y-141905000D01*
G75*
G02*
X96135000Y-141855000I0J50000D01*
G01*
X96135000Y-140055000D01*
G75*
G02*
X96185000Y-140005000I50000J0D01*
G01*
G37*
D13*
X97085000Y-148575000D03*
%TD*%
%TO.C,J2*%
G36*
G01*
X118135000Y-140305000D02*
X116535000Y-140305000D01*
G75*
G02*
X116485000Y-140255000I0J50000D01*
G01*
X116485000Y-138655000D01*
G75*
G02*
X116535000Y-138605000I50000J0D01*
G01*
X118135000Y-138605000D01*
G75*
G02*
X118185000Y-138655000I0J-50000D01*
G01*
X118185000Y-140255000D01*
G75*
G02*
X118135000Y-140305000I-50000J0D01*
G01*
G37*
D14*
X117335000Y-136685000D03*
X117335000Y-133915000D03*
X117335000Y-131145000D03*
X117335000Y-128375000D03*
X117335000Y-125605000D03*
X117335000Y-122835000D03*
X117335000Y-120065000D03*
X117335000Y-117295000D03*
X117335000Y-114525000D03*
X117335000Y-111755000D03*
X117335000Y-108985000D03*
X117335000Y-106215000D03*
X120175000Y-138070000D03*
X120175000Y-135300000D03*
X120175000Y-132530000D03*
X120175000Y-129760000D03*
X120175000Y-126990000D03*
X120175000Y-124220000D03*
X120175000Y-121450000D03*
X120175000Y-118680000D03*
X120175000Y-115910000D03*
X120175000Y-113140000D03*
X120175000Y-110370000D03*
X120175000Y-107600000D03*
D15*
X117635000Y-146385000D03*
X117635000Y-99285000D03*
%TD*%
M02*
