%TF.GenerationSoftware,KiCad,Pcbnew,6.0.5-a6ca702e91~116~ubuntu21.10.1*%
%TF.CreationDate,2023-10-13T08:30:05-06:00*%
%TF.ProjectId,Desktop_50_Pin_TopConn,4465736b-746f-4705-9f35-305f50696e5f,rev?*%
%TF.SameCoordinates,Original*%
%TF.FileFunction,Soldermask,Bot*%
%TF.FilePolarity,Negative*%
%FSLAX46Y46*%
G04 Gerber Fmt 4.6, Leading zero omitted, Abs format (unit mm)*
G04 Created by KiCad (PCBNEW 6.0.5-a6ca702e91~116~ubuntu21.10.1) date 2023-10-13 08:30:05*
%MOMM*%
%LPD*%
G01*
G04 APERTURE LIST*
G04 Aperture macros list*
%AMRoundRect*
0 Rectangle with rounded corners*
0 $1 Rounding radius*
0 $2 $3 $4 $5 $6 $7 $8 $9 X,Y pos of 4 corners*
0 Add a 4 corners polygon primitive as box body*
4,1,4,$2,$3,$4,$5,$6,$7,$8,$9,$2,$3,0*
0 Add four circle primitives for the rounded corners*
1,1,$1+$1,$2,$3*
1,1,$1+$1,$4,$5*
1,1,$1+$1,$6,$7*
1,1,$1+$1,$8,$9*
0 Add four rect primitives between the rounded corners*
20,1,$1+$1,$2,$3,$4,$5,0*
20,1,$1+$1,$4,$5,$6,$7,0*
20,1,$1+$1,$6,$7,$8,$9,0*
20,1,$1+$1,$8,$9,$2,$3,0*%
%AMHorizOval*
0 Thick line with rounded ends*
0 $1 width*
0 $2 $3 position (X,Y) of the first rounded end (center of the circle)*
0 $4 $5 position (X,Y) of the second rounded end (center of the circle)*
0 Add line between two ends*
20,1,$1,$2,$3,$4,$5,0*
0 Add two circle primitives to create the rounded ends*
1,1,$1,$2,$3*
1,1,$1,$4,$5*%
%AMRotRect*
0 Rectangle, with rotation*
0 The origin of the aperture is its center*
0 $1 length*
0 $2 width*
0 $3 Rotation angle, in degrees counterclockwise*
0 Add horizontal line*
21,1,$1,$2,0,0,$3*%
%AMFreePoly0*
4,1,57,0.281438,0.792513,0.314631,0.788760,0.324366,0.782642,0.335575,0.780064,0.361670,0.759195,0.389950,0.741421,0.741668,0.389704,0.759398,0.361385,0.780215,0.335261,0.782772,0.324050,0.788875,0.314303,0.792571,0.281098,0.800000,0.248529,0.800000,-0.248878,0.792513,-0.281438,0.788760,-0.314632,0.782641,-0.324367,0.780064,-0.335575,0.759196,-0.361669,0.741421,-0.389950,
0.389704,-0.741668,0.361385,-0.759398,0.335261,-0.780215,0.324050,-0.782772,0.314303,-0.788875,0.281098,-0.792571,0.248529,-0.800000,-0.248878,-0.800000,-0.281438,-0.792513,-0.314632,-0.788760,-0.324367,-0.782641,-0.335575,-0.780064,-0.361669,-0.759196,-0.389950,-0.741421,-0.741668,-0.389704,-0.759398,-0.361385,-0.780215,-0.335261,-0.782772,-0.324050,-0.788875,-0.314303,-0.792571,-0.281098,
-0.800000,-0.248529,-0.800000,0.248878,-0.792513,0.281438,-0.788760,0.314631,-0.782642,0.324366,-0.780064,0.335575,-0.759195,0.361670,-0.741421,0.389950,-0.389704,0.741668,-0.361385,0.759398,-0.335261,0.780215,-0.324050,0.782772,-0.314303,0.788875,-0.281098,0.792571,-0.248529,0.800000,0.248878,0.800000,0.281438,0.792513,0.281438,0.792513,$1*%
G04 Aperture macros list end*
%ADD10C,1.700000*%
%ADD11C,1.524000*%
%ADD12C,1.150000*%
%ADD13C,1.650000*%
%ADD14R,1.700000X1.700000*%
%ADD15O,1.700000X1.700000*%
%ADD16C,0.650000*%
%ADD17O,2.100000X1.000000*%
%ADD18O,1.600000X1.000000*%
%ADD19C,3.200000*%
%ADD20RotRect,1.700000X1.700000X45.000000*%
%ADD21HorizOval,1.700000X0.000000X0.000000X0.000000X0.000000X0*%
%ADD22O,1.100000X1.800000*%
%ADD23O,1.050000X1.450000*%
%ADD24FreePoly0,180.000000*%
%ADD25C,1.600000*%
%ADD26RoundRect,0.200000X0.600000X0.600000X-0.600000X0.600000X-0.600000X-0.600000X0.600000X-0.600000X0*%
%ADD27R,1.574800X1.574800*%
%ADD28C,1.574800*%
G04 APERTURE END LIST*
D10*
%TO.C,J3*%
X112062500Y-144765400D03*
X112062500Y-142265400D03*
D11*
X112062500Y-139765400D03*
X112062500Y-137265400D03*
%TD*%
D12*
%TO.C,SD1*%
X177811080Y-113415780D03*
D13*
X177811080Y-92415780D03*
%TD*%
D14*
%TO.C,J1*%
X114604800Y-70459600D03*
D15*
X117144800Y-70459600D03*
X119684800Y-70459600D03*
%TD*%
D14*
%TO.C,J2*%
X108813600Y-129484200D03*
D15*
X106273600Y-129484200D03*
X108813600Y-126944200D03*
X106273600Y-126944200D03*
X108813600Y-124404200D03*
X106273600Y-124404200D03*
X108813600Y-121864200D03*
X106273600Y-121864200D03*
X108813600Y-119324200D03*
X106273600Y-119324200D03*
X108813600Y-116784200D03*
X106273600Y-116784200D03*
X108813600Y-114244200D03*
X106273600Y-114244200D03*
X108813600Y-111704200D03*
X106273600Y-111704200D03*
X108813600Y-109164200D03*
X106273600Y-109164200D03*
X108813600Y-106624200D03*
X106273600Y-106624200D03*
X108813600Y-104084200D03*
X106273600Y-104084200D03*
X108813600Y-101544200D03*
X106273600Y-101544200D03*
X108813600Y-99004200D03*
X106273600Y-99004200D03*
X108813600Y-96464200D03*
X106273600Y-96464200D03*
X108813600Y-93924200D03*
X106273600Y-93924200D03*
X108813600Y-91384200D03*
X106273600Y-91384200D03*
X108813600Y-88844200D03*
X106273600Y-88844200D03*
X108813600Y-86304200D03*
X106273600Y-86304200D03*
X108813600Y-83764200D03*
X106273600Y-83764200D03*
X108813600Y-81224200D03*
X106273600Y-81224200D03*
X108813600Y-78684200D03*
X106273600Y-78684200D03*
X108813600Y-76144200D03*
X106273600Y-76144200D03*
X108813600Y-73604200D03*
X106273600Y-73604200D03*
X108813600Y-71064200D03*
X106273600Y-71064200D03*
X108813600Y-68524200D03*
X106273600Y-68524200D03*
%TD*%
D14*
%TO.C,J5*%
X191084200Y-78105000D03*
D15*
X191084200Y-80645000D03*
X191084200Y-83185000D03*
%TD*%
D14*
%TO.C,J11*%
X128676400Y-107492800D03*
D15*
X128676400Y-110032800D03*
%TD*%
D16*
%TO.C,J4*%
X188230200Y-134473200D03*
X188230200Y-140253200D03*
D17*
X187700200Y-133043200D03*
D18*
X191880200Y-133043200D03*
X191880200Y-141683200D03*
D17*
X187700200Y-141683200D03*
%TD*%
D14*
%TO.C,J9*%
X175488600Y-142435600D03*
D15*
X178028600Y-142435600D03*
%TD*%
D19*
%TO.C,H3*%
X150164800Y-137109200D03*
%TD*%
%TO.C,H1*%
X123139200Y-110032800D03*
%TD*%
D14*
%TO.C,J8*%
X175488600Y-132435600D03*
D15*
X178028600Y-132435600D03*
%TD*%
D14*
%TO.C,J7*%
X173075600Y-69799200D03*
D15*
X175615600Y-69799200D03*
%TD*%
D20*
%TO.C,J10*%
X140505355Y-79088155D03*
D21*
X142301406Y-80884206D03*
X144097457Y-82680257D03*
%TD*%
D22*
%TO.C,RP1*%
X157767600Y-128126200D03*
D23*
X162917600Y-125096200D03*
D22*
X163217600Y-128126200D03*
D23*
X158067600Y-125096200D03*
D24*
X169382600Y-128256200D03*
D25*
X169382600Y-125716200D03*
D26*
X169382600Y-123176200D03*
D25*
X169382600Y-120636200D03*
X169382600Y-118096200D03*
X169382600Y-115556200D03*
X169382600Y-113016200D03*
D26*
X169382600Y-110476200D03*
D25*
X169382600Y-107936200D03*
X169382600Y-105396200D03*
X169382600Y-102856200D03*
X169382600Y-100316200D03*
D26*
X169382600Y-97776200D03*
D25*
X169382600Y-95236200D03*
X169382600Y-92696200D03*
X169382600Y-90156200D03*
X169382600Y-87616200D03*
D26*
X169382600Y-85076200D03*
D25*
X169382600Y-82536200D03*
X169382600Y-79996200D03*
X151602600Y-79996200D03*
X151602600Y-82536200D03*
D26*
X151602600Y-85076200D03*
D25*
X151602600Y-87616200D03*
X151602600Y-90156200D03*
X151602600Y-92696200D03*
X151602600Y-95236200D03*
D26*
X151602600Y-97776200D03*
D25*
X151602600Y-100316200D03*
X151602600Y-102856200D03*
X151602600Y-105396200D03*
X151602600Y-107936200D03*
D26*
X151602600Y-110476200D03*
D25*
X151602600Y-113016200D03*
X151602600Y-115556200D03*
X151602600Y-118096200D03*
X151602600Y-120636200D03*
D26*
X151602600Y-123176200D03*
D25*
X151602600Y-125716200D03*
X151602600Y-128256200D03*
D27*
X159908400Y-98426200D03*
D28*
X157368400Y-98426200D03*
X154828400Y-98426200D03*
%TD*%
D19*
%TO.C,H2*%
X150164800Y-69799200D03*
%TD*%
M02*
