%TF.GenerationSoftware,KiCad,Pcbnew,6.0.5-a6ca702e91~116~ubuntu21.10.1*%
%TF.CreationDate,2023-10-13T08:30:05-06:00*%
%TF.ProjectId,Desktop_50_Pin_TopConn,4465736b-746f-4705-9f35-305f50696e5f,rev?*%
%TF.SameCoordinates,Original*%
%TF.FileFunction,Soldermask,Top*%
%TF.FilePolarity,Negative*%
%FSLAX46Y46*%
G04 Gerber Fmt 4.6, Leading zero omitted, Abs format (unit mm)*
G04 Created by KiCad (PCBNEW 6.0.5-a6ca702e91~116~ubuntu21.10.1) date 2023-10-13 08:30:05*
%MOMM*%
%LPD*%
G01*
G04 APERTURE LIST*
G04 Aperture macros list*
%AMRoundRect*
0 Rectangle with rounded corners*
0 $1 Rounding radius*
0 $2 $3 $4 $5 $6 $7 $8 $9 X,Y pos of 4 corners*
0 Add a 4 corners polygon primitive as box body*
4,1,4,$2,$3,$4,$5,$6,$7,$8,$9,$2,$3,0*
0 Add four circle primitives for the rounded corners*
1,1,$1+$1,$2,$3*
1,1,$1+$1,$4,$5*
1,1,$1+$1,$6,$7*
1,1,$1+$1,$8,$9*
0 Add four rect primitives between the rounded corners*
20,1,$1+$1,$2,$3,$4,$5,0*
20,1,$1+$1,$4,$5,$6,$7,0*
20,1,$1+$1,$6,$7,$8,$9,0*
20,1,$1+$1,$8,$9,$2,$3,0*%
%AMHorizOval*
0 Thick line with rounded ends*
0 $1 width*
0 $2 $3 position (X,Y) of the first rounded end (center of the circle)*
0 $4 $5 position (X,Y) of the second rounded end (center of the circle)*
0 Add line between two ends*
20,1,$1,$2,$3,$4,$5,0*
0 Add two circle primitives to create the rounded ends*
1,1,$1,$2,$3*
1,1,$1,$4,$5*%
%AMRotRect*
0 Rectangle, with rotation*
0 The origin of the aperture is its center*
0 $1 length*
0 $2 width*
0 $3 Rotation angle, in degrees counterclockwise*
0 Add horizontal line*
21,1,$1,$2,0,0,$3*%
%AMFreePoly0*
4,1,22,0.500000,-0.750000,0.000000,-0.750000,0.000000,-0.745033,-0.079941,-0.743568,-0.215256,-0.701293,-0.333266,-0.622738,-0.424486,-0.514219,-0.481581,-0.384460,-0.499164,-0.250000,-0.500000,-0.250000,-0.500000,0.250000,-0.499164,0.250000,-0.499963,0.256109,-0.478152,0.396186,-0.417904,0.524511,-0.324060,0.630769,-0.204165,0.706417,-0.067858,0.745374,0.000000,0.744959,0.000000,0.750000,
0.500000,0.750000,0.500000,-0.750000,0.500000,-0.750000,$1*%
%AMFreePoly1*
4,1,20,0.000000,0.744959,0.073905,0.744508,0.209726,0.703889,0.328688,0.626782,0.421226,0.519385,0.479903,0.390333,0.500000,0.250000,0.500000,-0.250000,0.499851,-0.262216,0.476331,-0.402017,0.414519,-0.529596,0.319384,-0.634700,0.198574,-0.708877,0.061801,-0.746166,0.000000,-0.745033,0.000000,-0.750000,-0.500000,-0.750000,-0.500000,0.750000,0.000000,0.750000,0.000000,0.744959,
0.000000,0.744959,$1*%
%AMFreePoly2*
4,1,57,1.881438,0.792513,1.914631,0.788760,1.924366,0.782642,1.935575,0.780064,1.961670,0.759195,1.989950,0.741421,2.341668,0.389704,2.359398,0.361385,2.380215,0.335261,2.382772,0.324050,2.388875,0.314303,2.392571,0.281098,2.400000,0.248529,2.400000,-0.248878,2.392513,-0.281438,2.388760,-0.314632,2.382641,-0.324367,2.380064,-0.335575,2.359196,-0.361669,2.341421,-0.389950,
1.989704,-0.741668,1.961385,-0.759398,1.935261,-0.780215,1.924050,-0.782772,1.914303,-0.788875,1.881098,-0.792571,1.848529,-0.800000,-0.248878,-0.800000,-0.281438,-0.792513,-0.314632,-0.788760,-0.324367,-0.782641,-0.335575,-0.780064,-0.361669,-0.759196,-0.389950,-0.741421,-0.741668,-0.389704,-0.759398,-0.361385,-0.780215,-0.335261,-0.782772,-0.324050,-0.788875,-0.314303,-0.792571,-0.281098,
-0.800000,-0.248529,-0.800000,0.248878,-0.792513,0.281438,-0.788760,0.314631,-0.782642,0.324366,-0.780064,0.335575,-0.759195,0.361670,-0.741421,0.389950,-0.389704,0.741668,-0.361385,0.759398,-0.335261,0.780215,-0.324050,0.782772,-0.314303,0.788875,-0.281098,0.792571,-0.248529,0.800000,1.848878,0.800000,1.881438,0.792513,1.881438,0.792513,$1*%
%AMFreePoly3*
4,1,57,0.281438,0.792513,0.314631,0.788760,0.324366,0.782642,0.335575,0.780064,0.361670,0.759195,0.389950,0.741421,0.741668,0.389704,0.759398,0.361385,0.780215,0.335261,0.782772,0.324050,0.788875,0.314303,0.792571,0.281098,0.800000,0.248529,0.800000,-0.248878,0.792513,-0.281438,0.788760,-0.314632,0.782641,-0.324367,0.780064,-0.335575,0.759196,-0.361669,0.741421,-0.389950,
0.389704,-0.741668,0.361385,-0.759398,0.335261,-0.780215,0.324050,-0.782772,0.314303,-0.788875,0.281098,-0.792571,0.248529,-0.800000,-0.248878,-0.800000,-0.281438,-0.792513,-0.314632,-0.788760,-0.324367,-0.782641,-0.335575,-0.780064,-0.361669,-0.759196,-0.389950,-0.741421,-0.741668,-0.389704,-0.759398,-0.361385,-0.780215,-0.335261,-0.782772,-0.324050,-0.788875,-0.314303,-0.792571,-0.281098,
-0.800000,-0.248529,-0.800000,0.248878,-0.792513,0.281438,-0.788760,0.314631,-0.782642,0.324366,-0.780064,0.335575,-0.759195,0.361670,-0.741421,0.389950,-0.389704,0.741668,-0.361385,0.759398,-0.335261,0.780215,-0.324050,0.782772,-0.314303,0.788875,-0.281098,0.792571,-0.248529,0.800000,0.248878,0.800000,0.281438,0.792513,0.281438,0.792513,$1*%
G04 Aperture macros list end*
%ADD10C,1.700000*%
%ADD11C,1.524000*%
%ADD12RoundRect,0.250001X0.462499X0.624999X-0.462499X0.624999X-0.462499X-0.624999X0.462499X-0.624999X0*%
%ADD13R,1.500000X2.000000*%
%ADD14R,3.800000X2.000000*%
%ADD15RoundRect,0.250000X-0.450000X0.325000X-0.450000X-0.325000X0.450000X-0.325000X0.450000X0.325000X0*%
%ADD16RoundRect,0.250000X0.325000X0.450000X-0.325000X0.450000X-0.325000X-0.450000X0.325000X-0.450000X0*%
%ADD17RoundRect,0.250000X0.450000X-0.325000X0.450000X0.325000X-0.450000X0.325000X-0.450000X-0.325000X0*%
%ADD18RoundRect,0.250000X-0.325000X-0.450000X0.325000X-0.450000X0.325000X0.450000X-0.325000X0.450000X0*%
%ADD19C,1.150000*%
%ADD20C,1.650000*%
%ADD21R,1.500000X0.960000*%
%ADD22R,1.500000X1.100000*%
%ADD23R,2.800000X1.500000*%
%ADD24R,2.500000X1.800000*%
%ADD25R,1.700000X1.700000*%
%ADD26O,1.700000X1.700000*%
%ADD27RoundRect,0.160000X0.197500X0.160000X-0.197500X0.160000X-0.197500X-0.160000X0.197500X-0.160000X0*%
%ADD28RoundRect,0.237500X-0.250000X-0.237500X0.250000X-0.237500X0.250000X0.237500X-0.250000X0.237500X0*%
%ADD29FreePoly0,0.000000*%
%ADD30FreePoly1,0.000000*%
%ADD31RoundRect,0.135000X-0.185000X0.135000X-0.185000X-0.135000X0.185000X-0.135000X0.185000X0.135000X0*%
%ADD32RoundRect,0.160000X-0.197500X-0.160000X0.197500X-0.160000X0.197500X0.160000X-0.197500X0.160000X0*%
%ADD33RoundRect,0.150000X-0.587500X-0.150000X0.587500X-0.150000X0.587500X0.150000X-0.587500X0.150000X0*%
%ADD34RoundRect,0.250000X0.250000X0.475000X-0.250000X0.475000X-0.250000X-0.475000X0.250000X-0.475000X0*%
%ADD35RoundRect,0.200000X0.200000X0.275000X-0.200000X0.275000X-0.200000X-0.275000X0.200000X-0.275000X0*%
%ADD36RoundRect,0.135000X0.135000X0.185000X-0.135000X0.185000X-0.135000X-0.185000X0.135000X-0.185000X0*%
%ADD37RoundRect,0.250000X0.475000X-0.337500X0.475000X0.337500X-0.475000X0.337500X-0.475000X-0.337500X0*%
%ADD38R,1.800000X2.500000*%
%ADD39RoundRect,0.100000X-0.637500X-0.100000X0.637500X-0.100000X0.637500X0.100000X-0.637500X0.100000X0*%
%ADD40RoundRect,0.250000X-0.337500X-0.475000X0.337500X-0.475000X0.337500X0.475000X-0.337500X0.475000X0*%
%ADD41C,0.650000*%
%ADD42R,1.450000X0.600000*%
%ADD43R,1.450000X0.300000*%
%ADD44O,2.100000X1.000000*%
%ADD45O,1.600000X1.000000*%
%ADD46RoundRect,0.100000X0.637500X0.100000X-0.637500X0.100000X-0.637500X-0.100000X0.637500X-0.100000X0*%
%ADD47RoundRect,0.250000X0.337500X0.475000X-0.337500X0.475000X-0.337500X-0.475000X0.337500X-0.475000X0*%
%ADD48RoundRect,0.135000X-0.135000X-0.185000X0.135000X-0.185000X0.135000X0.185000X-0.135000X0.185000X0*%
%ADD49RoundRect,0.250000X-0.475000X0.337500X-0.475000X-0.337500X0.475000X-0.337500X0.475000X0.337500X0*%
%ADD50C,3.200000*%
%ADD51FreePoly0,180.000000*%
%ADD52FreePoly1,180.000000*%
%ADD53RoundRect,0.125000X-0.415000X0.125000X-0.415000X-0.125000X0.415000X-0.125000X0.415000X0.125000X0*%
%ADD54RoundRect,0.262500X-0.337500X0.262500X-0.337500X-0.262500X0.337500X-0.262500X0.337500X0.262500X0*%
%ADD55RoundRect,0.250000X0.475000X-0.250000X0.475000X0.250000X-0.475000X0.250000X-0.475000X-0.250000X0*%
%ADD56RoundRect,0.237500X0.287500X0.237500X-0.287500X0.237500X-0.287500X-0.237500X0.287500X-0.237500X0*%
%ADD57RoundRect,0.187500X0.312500X0.187500X-0.312500X0.187500X-0.312500X-0.187500X0.312500X-0.187500X0*%
%ADD58RotRect,1.700000X1.700000X45.000000*%
%ADD59HorizOval,1.700000X0.000000X0.000000X0.000000X0.000000X0*%
%ADD60RoundRect,0.237500X-0.237500X0.250000X-0.237500X-0.250000X0.237500X-0.250000X0.237500X0.250000X0*%
%ADD61RoundRect,0.150000X-0.150000X0.825000X-0.150000X-0.825000X0.150000X-0.825000X0.150000X0.825000X0*%
%ADD62RoundRect,0.200000X-0.200000X-0.275000X0.200000X-0.275000X0.200000X0.275000X-0.200000X0.275000X0*%
%ADD63RoundRect,0.102000X0.775000X-0.300000X0.775000X0.300000X-0.775000X0.300000X-0.775000X-0.300000X0*%
%ADD64RoundRect,0.102000X-0.900000X0.600000X-0.900000X-0.600000X0.900000X-0.600000X0.900000X0.600000X0*%
%ADD65O,1.100000X1.800000*%
%ADD66O,1.050000X1.450000*%
%ADD67FreePoly2,180.000000*%
%ADD68FreePoly3,180.000000*%
%ADD69O,3.200000X1.600000*%
%ADD70C,1.600000*%
%ADD71RoundRect,0.200000X1.400000X0.600000X-1.400000X0.600000X-1.400000X-0.600000X1.400000X-0.600000X0*%
%ADD72RoundRect,0.200000X0.600000X0.600000X-0.600000X0.600000X-0.600000X-0.600000X0.600000X-0.600000X0*%
%ADD73R,1.574800X1.574800*%
%ADD74C,1.574800*%
%ADD75RoundRect,0.300000X0.450000X0.450000X-0.450000X0.450000X-0.450000X-0.450000X0.450000X-0.450000X0*%
%ADD76RoundRect,0.237500X0.250000X0.237500X-0.250000X0.237500X-0.250000X-0.237500X0.250000X-0.237500X0*%
%ADD77RoundRect,0.135000X0.185000X-0.135000X0.185000X0.135000X-0.185000X0.135000X-0.185000X-0.135000X0*%
G04 APERTURE END LIST*
D10*
%TO.C,J3*%
X112062500Y-144765400D03*
X112062500Y-142265400D03*
D11*
X112062500Y-139765400D03*
X112062500Y-137265400D03*
%TD*%
D12*
%TO.C,C3*%
X116041500Y-93167200D03*
X113066500Y-93167200D03*
%TD*%
%TO.C,C4*%
X117870300Y-109118400D03*
X114895300Y-109118400D03*
%TD*%
D13*
%TO.C,U3*%
X120393220Y-98146920D03*
X118093220Y-98146920D03*
D14*
X118093220Y-104446920D03*
D13*
X115793220Y-98146920D03*
%TD*%
D15*
%TO.C,C7*%
X171577000Y-132377200D03*
X171577000Y-134427200D03*
%TD*%
D16*
%TO.C,C1*%
X120728100Y-74904600D03*
X118678100Y-74904600D03*
%TD*%
%TO.C,C2*%
X116078000Y-95554800D03*
X114028000Y-95554800D03*
%TD*%
D17*
%TO.C,C5*%
X123596400Y-99941600D03*
X123596400Y-97891600D03*
%TD*%
%TO.C,C6*%
X169697400Y-69808200D03*
X169697400Y-67758200D03*
%TD*%
D18*
%TO.C,C12*%
X173701600Y-118389400D03*
X175751600Y-118389400D03*
%TD*%
D19*
%TO.C,SD1*%
X177811080Y-113415780D03*
D20*
X177811080Y-92415780D03*
D21*
X175011080Y-114095780D03*
X175011080Y-112895780D03*
D22*
X175011080Y-111595780D03*
X175011080Y-109895780D03*
X175011080Y-107465780D03*
X175011080Y-104965780D03*
X175011080Y-102465780D03*
X175011080Y-99965780D03*
X175011080Y-97465780D03*
X175011080Y-94965780D03*
X175011080Y-92465780D03*
D23*
X176811080Y-115555780D03*
X176811080Y-90455780D03*
X191311080Y-115555780D03*
X191311080Y-88255780D03*
%TD*%
D24*
%TO.C,D1*%
X178435000Y-75412600D03*
X174435000Y-75412600D03*
%TD*%
%TO.C,D2*%
X174472600Y-137177800D03*
X178472600Y-137177800D03*
%TD*%
D25*
%TO.C,J1*%
X114604800Y-70459600D03*
D26*
X117144800Y-70459600D03*
X119684800Y-70459600D03*
%TD*%
D27*
%TO.C,R42*%
X138671900Y-133908800D03*
X137476900Y-133908800D03*
%TD*%
D28*
%TO.C,R56*%
X135919200Y-110566200D03*
X137744200Y-110566200D03*
%TD*%
D29*
%TO.C,JP2*%
X185022100Y-79425800D03*
D30*
X186322100Y-79425800D03*
%TD*%
D31*
%TO.C,R66*%
X138404600Y-92200000D03*
X138404600Y-93220000D03*
%TD*%
D32*
%TO.C,R30*%
X136371400Y-113588800D03*
X137566400Y-113588800D03*
%TD*%
D33*
%TO.C,Q1*%
X117551200Y-78460600D03*
X117551200Y-80360600D03*
X119426200Y-79410600D03*
%TD*%
D28*
%TO.C,R39*%
X123135400Y-126568200D03*
X124960400Y-126568200D03*
%TD*%
D34*
%TO.C,C17*%
X117663000Y-112699800D03*
X115763000Y-112699800D03*
%TD*%
D27*
%TO.C,R16*%
X138849700Y-122936000D03*
X137654700Y-122936000D03*
%TD*%
D28*
%TO.C,R4*%
X122379100Y-87172800D03*
X124204100Y-87172800D03*
%TD*%
D35*
%TO.C,R24*%
X185216800Y-68351400D03*
X183566800Y-68351400D03*
%TD*%
D36*
%TO.C,R67*%
X147372800Y-96850200D03*
X146352800Y-96850200D03*
%TD*%
D25*
%TO.C,J2*%
X108813600Y-129484200D03*
D26*
X106273600Y-129484200D03*
X108813600Y-126944200D03*
X106273600Y-126944200D03*
X108813600Y-124404200D03*
X106273600Y-124404200D03*
X108813600Y-121864200D03*
X106273600Y-121864200D03*
X108813600Y-119324200D03*
X106273600Y-119324200D03*
X108813600Y-116784200D03*
X106273600Y-116784200D03*
X108813600Y-114244200D03*
X106273600Y-114244200D03*
X108813600Y-111704200D03*
X106273600Y-111704200D03*
X108813600Y-109164200D03*
X106273600Y-109164200D03*
X108813600Y-106624200D03*
X106273600Y-106624200D03*
X108813600Y-104084200D03*
X106273600Y-104084200D03*
X108813600Y-101544200D03*
X106273600Y-101544200D03*
X108813600Y-99004200D03*
X106273600Y-99004200D03*
X108813600Y-96464200D03*
X106273600Y-96464200D03*
X108813600Y-93924200D03*
X106273600Y-93924200D03*
X108813600Y-91384200D03*
X106273600Y-91384200D03*
X108813600Y-88844200D03*
X106273600Y-88844200D03*
X108813600Y-86304200D03*
X106273600Y-86304200D03*
X108813600Y-83764200D03*
X106273600Y-83764200D03*
X108813600Y-81224200D03*
X106273600Y-81224200D03*
X108813600Y-78684200D03*
X106273600Y-78684200D03*
X108813600Y-76144200D03*
X106273600Y-76144200D03*
X108813600Y-73604200D03*
X106273600Y-73604200D03*
X108813600Y-71064200D03*
X106273600Y-71064200D03*
X108813600Y-68524200D03*
X106273600Y-68524200D03*
%TD*%
D37*
%TO.C,C16*%
X181686200Y-133393000D03*
X181686200Y-131318000D03*
%TD*%
D28*
%TO.C,R33*%
X123135400Y-121564400D03*
X124960400Y-121564400D03*
%TD*%
D38*
%TO.C,D5*%
X182092600Y-139840200D03*
X182092600Y-143840200D03*
%TD*%
D39*
%TO.C,U5*%
X113573000Y-81961800D03*
X113573000Y-82611800D03*
X113573000Y-83261800D03*
X113573000Y-83911800D03*
X113573000Y-84561800D03*
X113573000Y-85211800D03*
X113573000Y-85861800D03*
X113573000Y-86511800D03*
X113573000Y-87161800D03*
X113573000Y-87811800D03*
X119298000Y-87811800D03*
X119298000Y-87161800D03*
X119298000Y-86511800D03*
X119298000Y-85861800D03*
X119298000Y-85211800D03*
X119298000Y-84561800D03*
X119298000Y-83911800D03*
X119298000Y-83261800D03*
X119298000Y-82611800D03*
X119298000Y-81961800D03*
%TD*%
D28*
%TO.C,R36*%
X123139200Y-131419600D03*
X124964200Y-131419600D03*
%TD*%
%TO.C,R5*%
X122379100Y-85547200D03*
X124204100Y-85547200D03*
%TD*%
D39*
%TO.C,U14*%
X127617300Y-79888800D03*
X127617300Y-80538800D03*
X127617300Y-81188800D03*
X127617300Y-81838800D03*
X127617300Y-82488800D03*
X127617300Y-83138800D03*
X127617300Y-83788800D03*
X133342300Y-83788800D03*
X133342300Y-83138800D03*
X133342300Y-82488800D03*
X133342300Y-81838800D03*
X133342300Y-81188800D03*
X133342300Y-80538800D03*
X133342300Y-79888800D03*
%TD*%
D28*
%TO.C,R35*%
X123139200Y-118389400D03*
X124964200Y-118389400D03*
%TD*%
%TO.C,R1*%
X123139200Y-123240800D03*
X124964200Y-123240800D03*
%TD*%
D40*
%TO.C,C8*%
X131419600Y-136398000D03*
X133494600Y-136398000D03*
%TD*%
D28*
%TO.C,R38*%
X123139200Y-128143000D03*
X124964200Y-128143000D03*
%TD*%
D25*
%TO.C,J5*%
X191084200Y-78105000D03*
D26*
X191084200Y-80645000D03*
X191084200Y-83185000D03*
%TD*%
D25*
%TO.C,J11*%
X128676400Y-107492800D03*
D26*
X128676400Y-110032800D03*
%TD*%
D27*
%TO.C,R17*%
X138634400Y-129387600D03*
X137439400Y-129387600D03*
%TD*%
D41*
%TO.C,J4*%
X188230200Y-134473200D03*
X188230200Y-140253200D03*
D42*
X186785200Y-140613200D03*
X186785200Y-139813200D03*
D43*
X186785200Y-138613200D03*
X186785200Y-137613200D03*
X186785200Y-137113200D03*
X186785200Y-136113200D03*
D42*
X186785200Y-134913200D03*
X186785200Y-134113200D03*
X186785200Y-134113200D03*
X186785200Y-134913200D03*
D43*
X186785200Y-135613200D03*
X186785200Y-136613200D03*
X186785200Y-138113200D03*
X186785200Y-139113200D03*
D42*
X186785200Y-139813200D03*
X186785200Y-140613200D03*
D44*
X187700200Y-133043200D03*
D45*
X191880200Y-133043200D03*
X191880200Y-141683200D03*
D44*
X187700200Y-141683200D03*
%TD*%
D28*
%TO.C,R9*%
X122431800Y-82245200D03*
X124256800Y-82245200D03*
%TD*%
D27*
%TO.C,R13*%
X138875100Y-119253000D03*
X137680100Y-119253000D03*
%TD*%
D17*
%TO.C,F3*%
X178739800Y-70916800D03*
X178739800Y-68866800D03*
%TD*%
D28*
%TO.C,R40*%
X123133500Y-124968000D03*
X124958500Y-124968000D03*
%TD*%
%TO.C,R59*%
X184812300Y-77241400D03*
X186637300Y-77241400D03*
%TD*%
D46*
%TO.C,U4*%
X135552100Y-134573200D03*
X135552100Y-133923200D03*
X135552100Y-133273200D03*
X135552100Y-132623200D03*
X135552100Y-131973200D03*
X135552100Y-131323200D03*
X135552100Y-130673200D03*
X135552100Y-130023200D03*
X135552100Y-129373200D03*
X135552100Y-128723200D03*
X129827100Y-128723200D03*
X129827100Y-129373200D03*
X129827100Y-130023200D03*
X129827100Y-130673200D03*
X129827100Y-131323200D03*
X129827100Y-131973200D03*
X129827100Y-132623200D03*
X129827100Y-133273200D03*
X129827100Y-133923200D03*
X129827100Y-134573200D03*
%TD*%
D27*
%TO.C,R18*%
X138634400Y-130632200D03*
X137439400Y-130632200D03*
%TD*%
D39*
%TO.C,U6*%
X114409300Y-121458800D03*
X114409300Y-122108800D03*
X114409300Y-122758800D03*
X114409300Y-123408800D03*
X114409300Y-124058800D03*
X114409300Y-124708800D03*
X114409300Y-125358800D03*
X114409300Y-126008800D03*
X114409300Y-126658800D03*
X114409300Y-127308800D03*
X120134300Y-127308800D03*
X120134300Y-126658800D03*
X120134300Y-126008800D03*
X120134300Y-125358800D03*
X120134300Y-124708800D03*
X120134300Y-124058800D03*
X120134300Y-123408800D03*
X120134300Y-122758800D03*
X120134300Y-122108800D03*
X120134300Y-121458800D03*
%TD*%
%TO.C,U13*%
X127564500Y-71913200D03*
X127564500Y-72563200D03*
X127564500Y-73213200D03*
X127564500Y-73863200D03*
X127564500Y-74513200D03*
X127564500Y-75163200D03*
X127564500Y-75813200D03*
X133289500Y-75813200D03*
X133289500Y-75163200D03*
X133289500Y-74513200D03*
X133289500Y-73863200D03*
X133289500Y-73213200D03*
X133289500Y-72563200D03*
X133289500Y-71913200D03*
%TD*%
D40*
%TO.C,C15*%
X130513000Y-114376200D03*
X132588000Y-114376200D03*
%TD*%
D47*
%TO.C,C19*%
X137664100Y-72466200D03*
X135589100Y-72466200D03*
%TD*%
D48*
%TO.C,R11*%
X138430000Y-84480400D03*
X139450000Y-84480400D03*
%TD*%
D25*
%TO.C,J9*%
X175488600Y-142435600D03*
D26*
X178028600Y-142435600D03*
%TD*%
D47*
%TO.C,C14*%
X135778600Y-77901800D03*
X133703600Y-77901800D03*
%TD*%
D36*
%TO.C,R69*%
X148060600Y-109270800D03*
X147040600Y-109270800D03*
%TD*%
D39*
%TO.C,U16*%
X127591900Y-95713000D03*
X127591900Y-96363000D03*
X127591900Y-97013000D03*
X127591900Y-97663000D03*
X127591900Y-98313000D03*
X127591900Y-98963000D03*
X127591900Y-99613000D03*
X133316900Y-99613000D03*
X133316900Y-98963000D03*
X133316900Y-98313000D03*
X133316900Y-97663000D03*
X133316900Y-97013000D03*
X133316900Y-96363000D03*
X133316900Y-95713000D03*
%TD*%
D49*
%TO.C,C20*%
X143129000Y-106175900D03*
X143129000Y-108250900D03*
%TD*%
D50*
%TO.C,H3*%
X150164800Y-137109200D03*
%TD*%
D33*
%TO.C,Q2*%
X116410500Y-117922000D03*
X116410500Y-119822000D03*
X118285500Y-118872000D03*
%TD*%
D28*
%TO.C,R3*%
X122381000Y-88798400D03*
X124206000Y-88798400D03*
%TD*%
D27*
%TO.C,R15*%
X138849700Y-121742200D03*
X137654700Y-121742200D03*
%TD*%
D50*
%TO.C,H1*%
X123139200Y-110032800D03*
%TD*%
D51*
%TO.C,JP1*%
X182420900Y-79375000D03*
D52*
X181120900Y-79375000D03*
%TD*%
D37*
%TO.C,C22*%
X185216800Y-72052000D03*
X185216800Y-69977000D03*
%TD*%
D53*
%TO.C,SD2*%
X190950600Y-119695600D03*
X190950600Y-120795600D03*
X190950600Y-121895600D03*
X190950600Y-122645600D03*
X190950600Y-123345600D03*
X190950600Y-124095600D03*
X190950600Y-125195600D03*
X190950600Y-126295600D03*
X190950600Y-127395600D03*
D54*
X184860600Y-128770600D03*
X189310600Y-118320600D03*
X184860600Y-118320600D03*
X189310600Y-128770600D03*
%TD*%
D35*
%TO.C,R22*%
X137019800Y-93751400D03*
X135369800Y-93751400D03*
%TD*%
D28*
%TO.C,R7*%
X122429900Y-78943200D03*
X124254900Y-78943200D03*
%TD*%
D25*
%TO.C,J8*%
X175488600Y-132435600D03*
D26*
X178028600Y-132435600D03*
%TD*%
D28*
%TO.C,R8*%
X122431800Y-80619600D03*
X124256800Y-80619600D03*
%TD*%
%TO.C,R2*%
X122377200Y-90449400D03*
X124202200Y-90449400D03*
%TD*%
D55*
%TO.C,C18*%
X113362100Y-80162400D03*
X113362100Y-78262400D03*
%TD*%
D31*
%TO.C,R21*%
X184277000Y-134463600D03*
X184277000Y-135483600D03*
%TD*%
D27*
%TO.C,R12*%
X138875100Y-118160800D03*
X137680100Y-118160800D03*
%TD*%
D36*
%TO.C,R25*%
X135331200Y-126161800D03*
X134311200Y-126161800D03*
%TD*%
D27*
%TO.C,R19*%
X138646500Y-132638800D03*
X137451500Y-132638800D03*
%TD*%
D40*
%TO.C,C10*%
X131448900Y-138531600D03*
X133523900Y-138531600D03*
%TD*%
D39*
%TO.C,U15*%
X127591900Y-87712000D03*
X127591900Y-88362000D03*
X127591900Y-89012000D03*
X127591900Y-89662000D03*
X127591900Y-90312000D03*
X127591900Y-90962000D03*
X127591900Y-91612000D03*
X133316900Y-91612000D03*
X133316900Y-90962000D03*
X133316900Y-90312000D03*
X133316900Y-89662000D03*
X133316900Y-89012000D03*
X133316900Y-88362000D03*
X133316900Y-87712000D03*
%TD*%
D56*
%TO.C,D4*%
X141170600Y-110591600D03*
X139420600Y-110591600D03*
%TD*%
D40*
%TO.C,C9*%
X131372700Y-93700600D03*
X133447700Y-93700600D03*
%TD*%
D48*
%TO.C,R68*%
X147140200Y-89789000D03*
X148160200Y-89789000D03*
%TD*%
D28*
%TO.C,R10*%
X122381000Y-83921600D03*
X124206000Y-83921600D03*
%TD*%
%TO.C,R34*%
X123137300Y-119964200D03*
X124962300Y-119964200D03*
%TD*%
D56*
%TO.C,D3*%
X141006800Y-113842800D03*
X139256800Y-113842800D03*
%TD*%
D48*
%TO.C,R65*%
X146122200Y-80391000D03*
X147142200Y-80391000D03*
%TD*%
D25*
%TO.C,J7*%
X173075600Y-69799200D03*
D26*
X175615600Y-69799200D03*
%TD*%
D28*
%TO.C,R37*%
X123139200Y-129743200D03*
X124964200Y-129743200D03*
%TD*%
D57*
%TO.C,SW1*%
X118564400Y-96075100D03*
X124564400Y-96075100D03*
X118564400Y-92325100D03*
X124564400Y-92325100D03*
%TD*%
D16*
%TO.C,F2*%
X130345400Y-67411600D03*
X128295400Y-67411600D03*
%TD*%
D58*
%TO.C,J10*%
X140505355Y-79088155D03*
D59*
X142301406Y-80884206D03*
X144097457Y-82680257D03*
%TD*%
D60*
%TO.C,R41*%
X115620800Y-78486000D03*
X115620800Y-80311000D03*
%TD*%
D61*
%TO.C,U8*%
X141198600Y-103189000D03*
X139928600Y-103189000D03*
X138658600Y-103189000D03*
X137388600Y-103189000D03*
X136118600Y-103189000D03*
X134848600Y-103189000D03*
X133578600Y-103189000D03*
X133578600Y-108139000D03*
X134848600Y-108139000D03*
X136118600Y-108139000D03*
X137388600Y-108139000D03*
X138658600Y-108139000D03*
X139928600Y-108139000D03*
X141198600Y-108139000D03*
%TD*%
D62*
%TO.C,R23*%
X130035800Y-78155800D03*
X131685800Y-78155800D03*
%TD*%
D63*
%TO.C,J6*%
X187966600Y-70334000D03*
X187966600Y-69334000D03*
X187966600Y-68334000D03*
X187966600Y-67334000D03*
D64*
X191841600Y-71634000D03*
X191841600Y-66034000D03*
%TD*%
D62*
%TO.C,R26*%
X183566800Y-66649600D03*
X185216800Y-66649600D03*
%TD*%
D48*
%TO.C,R29*%
X147089400Y-92735400D03*
X148109400Y-92735400D03*
%TD*%
D27*
%TO.C,R14*%
X138875100Y-120370600D03*
X137680100Y-120370600D03*
%TD*%
D65*
%TO.C,RP1*%
X157767600Y-128126200D03*
D66*
X162917600Y-125096200D03*
D65*
X163217600Y-128126200D03*
D66*
X158067600Y-125096200D03*
D67*
X170982600Y-128256200D03*
D68*
X169382600Y-128256200D03*
D69*
X170182600Y-125716200D03*
D70*
X169382600Y-125716200D03*
D71*
X170182600Y-123176200D03*
D72*
X169382600Y-123176200D03*
D70*
X169382600Y-120636200D03*
D69*
X170182600Y-120636200D03*
D70*
X169382600Y-118096200D03*
D69*
X170182600Y-118096200D03*
D70*
X169382600Y-115556200D03*
D69*
X170182600Y-115556200D03*
X170182600Y-113016200D03*
D70*
X169382600Y-113016200D03*
D71*
X170182600Y-110476200D03*
D72*
X169382600Y-110476200D03*
D69*
X170182600Y-107936200D03*
D70*
X169382600Y-107936200D03*
D69*
X170182600Y-105396200D03*
D70*
X169382600Y-105396200D03*
X169382600Y-102856200D03*
D69*
X170182600Y-102856200D03*
X170182600Y-100316200D03*
D70*
X169382600Y-100316200D03*
D71*
X170182600Y-97776200D03*
D72*
X169382600Y-97776200D03*
D69*
X170182600Y-95236200D03*
D70*
X169382600Y-95236200D03*
X169382600Y-92696200D03*
D69*
X170182600Y-92696200D03*
X170182600Y-90156200D03*
D70*
X169382600Y-90156200D03*
D69*
X170182600Y-87616200D03*
D70*
X169382600Y-87616200D03*
D72*
X169382600Y-85076200D03*
D71*
X170182600Y-85076200D03*
D69*
X170182600Y-82536200D03*
D70*
X169382600Y-82536200D03*
X169382600Y-79996200D03*
D69*
X170182600Y-79996200D03*
X150802600Y-79996200D03*
D70*
X151602600Y-79996200D03*
D69*
X150802600Y-82536200D03*
D70*
X151602600Y-82536200D03*
D72*
X151602600Y-85076200D03*
D71*
X150802600Y-85076200D03*
D70*
X151602600Y-87616200D03*
D69*
X150802600Y-87616200D03*
D70*
X151602600Y-90156200D03*
D69*
X150802600Y-90156200D03*
X150802600Y-92696200D03*
D70*
X151602600Y-92696200D03*
X151602600Y-95236200D03*
D69*
X150802600Y-95236200D03*
D72*
X151602600Y-97776200D03*
D71*
X150802600Y-97776200D03*
D70*
X151602600Y-100316200D03*
D69*
X150802600Y-100316200D03*
D70*
X151602600Y-102856200D03*
D69*
X150802600Y-102856200D03*
X150802600Y-105396200D03*
D70*
X151602600Y-105396200D03*
D69*
X150802600Y-107936200D03*
D70*
X151602600Y-107936200D03*
D72*
X151602600Y-110476200D03*
D71*
X150802600Y-110476200D03*
D69*
X150802600Y-113016200D03*
D70*
X151602600Y-113016200D03*
X151602600Y-115556200D03*
D69*
X150802600Y-115556200D03*
D70*
X151602600Y-118096200D03*
D69*
X150802600Y-118096200D03*
D70*
X151602600Y-120636200D03*
D69*
X150802600Y-120636200D03*
D72*
X151602600Y-123176200D03*
D71*
X150802600Y-123176200D03*
D70*
X151602600Y-125716200D03*
D69*
X150802600Y-125716200D03*
X150802600Y-128256200D03*
D70*
X151602600Y-128256200D03*
D73*
X159908400Y-98426200D03*
D74*
X157368400Y-98426200D03*
X154828400Y-98426200D03*
D75*
X160492600Y-125126200D03*
X159492600Y-128426200D03*
X161492600Y-128426200D03*
%TD*%
D46*
%TO.C,U9*%
X135552100Y-123600400D03*
X135552100Y-122950400D03*
X135552100Y-122300400D03*
X135552100Y-121650400D03*
X135552100Y-121000400D03*
X135552100Y-120350400D03*
X135552100Y-119700400D03*
X135552100Y-119050400D03*
X135552100Y-118400400D03*
X135552100Y-117750400D03*
X129827100Y-117750400D03*
X129827100Y-118400400D03*
X129827100Y-119050400D03*
X129827100Y-119700400D03*
X129827100Y-120350400D03*
X129827100Y-121000400D03*
X129827100Y-121650400D03*
X129827100Y-122300400D03*
X129827100Y-122950400D03*
X129827100Y-123600400D03*
%TD*%
D49*
%TO.C,C23*%
X178003200Y-122965300D03*
X178003200Y-125040300D03*
%TD*%
D76*
%TO.C,R58*%
X182671100Y-77241400D03*
X180846100Y-77241400D03*
%TD*%
D77*
%TO.C,R20*%
X184658000Y-140768800D03*
X184658000Y-139748800D03*
%TD*%
D28*
%TO.C,R6*%
X122429900Y-77266800D03*
X124254900Y-77266800D03*
%TD*%
D48*
%TO.C,R28*%
X137744200Y-80924400D03*
X138764200Y-80924400D03*
%TD*%
%TO.C,R61*%
X147040600Y-108153200D03*
X148060600Y-108153200D03*
%TD*%
D47*
%TO.C,C11*%
X129844800Y-125603000D03*
X127769800Y-125603000D03*
%TD*%
D49*
%TO.C,C21*%
X131572000Y-105232200D03*
X131572000Y-107307200D03*
%TD*%
D40*
%TO.C,C13*%
X131423500Y-85750400D03*
X133498500Y-85750400D03*
%TD*%
D50*
%TO.C,H2*%
X150164800Y-69799200D03*
%TD*%
M02*
