%TF.GenerationSoftware,KiCad,Pcbnew,6.0.5-a6ca702e91~116~ubuntu21.10.1*%
%TF.CreationDate,2023-10-13T08:30:05-06:00*%
%TF.ProjectId,Desktop_50_Pin_TopConn,4465736b-746f-4705-9f35-305f50696e5f,rev?*%
%TF.SameCoordinates,Original*%
%TF.FileFunction,Profile,NP*%
%FSLAX46Y46*%
G04 Gerber Fmt 4.6, Leading zero omitted, Abs format (unit mm)*
G04 Created by KiCad (PCBNEW 6.0.5-a6ca702e91~116~ubuntu21.10.1) date 2023-10-13 08:30:05*
%MOMM*%
%LPD*%
G01*
G04 APERTURE LIST*
%TA.AperFunction,Profile*%
%ADD10C,0.100000*%
%TD*%
G04 APERTURE END LIST*
D10*
X152903975Y-75576396D02*
G75*
G03*
X152450800Y-76022200I-15575J-437404D01*
G01*
X152446796Y-77953025D02*
G75*
G03*
X152892600Y-78406200I437404J-15575D01*
G01*
X129355000Y-63800000D02*
X193680000Y-63800000D01*
X193680000Y-146405600D02*
X193680000Y-63800000D01*
X152446797Y-77953025D02*
X152450800Y-76022200D01*
X100000000Y-146410000D02*
X140716000Y-146410000D01*
X168021000Y-75576397D02*
X152903975Y-75576397D01*
X168012599Y-78226240D02*
G75*
G03*
X168465775Y-77876400I15901J447840D01*
G01*
X168466807Y-76029572D02*
G75*
G03*
X168021000Y-75576397I-437407J15572D01*
G01*
X193680000Y-146405600D02*
X140716000Y-146410000D01*
X129355000Y-63800000D02*
X100000000Y-63800000D01*
X168465775Y-77876400D02*
X168466803Y-76029572D01*
X100000000Y-63800000D02*
X100000000Y-146410000D01*
%TO.C,RP1*%
X166992600Y-87026200D02*
X153992600Y-87026200D01*
X167502600Y-78826200D02*
X167492600Y-86526200D01*
X153492600Y-86526200D02*
X153492600Y-78916200D01*
X168012600Y-78226200D02*
G75*
G03*
X167502600Y-78826200I2J-516752D01*
G01*
X166992600Y-87026200D02*
G75*
G03*
X167492600Y-86526200I-1J500001D01*
G01*
X153492600Y-86526200D02*
G75*
G03*
X153992600Y-87026200I500000J0D01*
G01*
X153492600Y-78916200D02*
G75*
G03*
X152892600Y-78406200I-516750J0D01*
G01*
%TD*%
M02*
