M48
; DRILL file {KiCad 6.0.5-a6ca702e91~116~ubuntu21.10.1} date Tue 22 Nov 2022 05:46:08 AM MST
; FORMAT={-:-/ absolute / inch / decimal}
; #@! TF.CreationDate,2022-11-22T05:46:08-07:00
; #@! TF.GenerationSoftware,Kicad,Pcbnew,6.0.5-a6ca702e91~116~ubuntu21.10.1
; #@! TF.FileFunction,Plated,1,2,PTH
FMAT,2
INCH
; #@! TA.AperFunction,Plated,PTH,ViaDrill
T1C0.0118
; #@! TA.AperFunction,Plated,PTH,ViaDrill
T2C0.0157
; #@! TA.AperFunction,Plated,PTH,ComponentDrill
T3C0.0300
; #@! TA.AperFunction,Plated,PTH,ComponentDrill
T4C0.0354
; #@! TA.AperFunction,Plated,PTH,ComponentDrill
T5C0.0394
%
G90
G05
T1
X3.98Y-2.55
X4.382Y-3.238
X4.414Y-3.734
X4.416Y-3.266
X4.418Y-3.054
X4.464Y-4.296
X4.474Y-3.3
X4.508Y-4.136
X4.512Y-4.498
X4.574Y-4.824
X4.612Y-3.542
X4.628Y-4.824
X4.642Y-4.6283
X4.722Y-3.156
X4.738Y-3.304
X4.738Y-3.784
X4.772Y-3.644
X4.774Y-2.676
X4.784Y-4.546
X4.796Y-2.946
X4.796Y-3.026
X4.836Y-4.626
X4.856Y-3.518
X4.862Y-4.946
X4.888Y-2.846
X4.902Y-3.79
X4.91Y-4.584
X4.956Y-3.842
X5.0Y-3.85
X5.04Y-3.544
X5.046Y-2.616
X5.13Y-3.302
X5.142Y-4.8456
X5.142Y-5.112
X5.144Y-4.67
X5.144Y-5.01
X5.154Y-5.196
X5.1578Y-4.5822
X5.1583Y-4.9737
X5.16Y-4.612
X5.16Y-5.07
X5.162Y-4.742
X5.1664Y-4.8776
X5.176Y-4.79
X5.1788Y-4.9072
X5.179Y-4.715
X5.182Y-3.064
X5.182Y-3.454
X5.183Y-3.227
X5.184Y-4.672
X5.184Y-4.944
X5.1843Y-5.0397
X5.186Y-2.974
X5.186Y-3.144
X5.198Y-3.292
X5.208Y-4.814
X5.218Y-4.024
X5.224Y-3.898
X5.224Y-4.766
X5.234Y-3.3
X5.236Y-3.824
X5.286Y-3.764
X5.292Y-3.62
X5.296Y-4.024
X5.33Y-4.102
X5.332Y-3.476
X5.348Y-3.246
X5.363Y-4.887
X5.366Y-3.17
X5.374Y-3.34
X5.426Y-3.196
X5.434Y-4.162
X5.438Y-4.0
X5.44Y-3.884
X5.44Y-4.578
X5.452Y-3.826
X5.462Y-3.218
X5.462Y-3.71
X5.47Y-3.634
X5.4822Y-3.596
X5.484Y-3.412
X5.484Y-4.008
X5.486Y-3.45
X5.49Y-3.058
X5.504Y-4.392
X5.514Y-2.864
X5.564Y-3.538
X5.58Y-4.97
X5.609Y-3.949
X5.6141Y-3.8839
X5.632Y-3.252
X5.634Y-4.53
X5.638Y-3.142
X5.668Y-5.026
X5.674Y-4.598
X5.682Y-4.078
X5.684Y-3.352
X5.704Y-4.59
X5.704Y-5.022
X5.708Y-2.974
X5.728Y-4.604
X5.73Y-4.01
X5.73Y-5.046
X5.734Y-3.616
X5.734Y-3.748
X5.738Y-2.96
X5.758Y-3.526
X5.764Y-4.206
X5.78Y-4.01
X5.794Y-4.08
X5.834Y-4.488
X5.845Y-4.851
X5.858Y-3.29
X5.866Y-3.462
X5.874Y-4.002
X5.89Y-3.266
X5.892Y-3.606
X5.902Y-5.25
X5.904Y-4.8
X5.92Y-4.134
X5.962Y-5.194
X5.994Y-5.122
X6.04Y-4.788
X6.044Y-4.388
X6.046Y-4.534
X6.168Y-4.832
X6.22Y-3.884
X6.266Y-4.94
X6.282Y-4.824
X6.356Y-4.956
X6.376Y-3.732
X6.496Y-3.062
X6.786Y-2.732
X6.802Y-3.564
X6.864Y-4.552
X6.944Y-4.312
X6.966Y-2.764
X7.01Y-3.866
X7.102Y-3.79
X7.204Y-2.974
X7.352Y-5.068
X7.352Y-5.1
X7.3535Y-5.1325
T2
X5.1158Y-3.4954
X5.12Y-3.196
X5.122Y-3.36
X5.124Y-3.256
X5.132Y-2.88
X5.136Y-3.06
X5.138Y-3.438
X5.14Y-3.136
X5.164Y-2.944
X5.451Y-3.935
X5.534Y-4.08
X5.564Y-4.08
X5.57Y-2.902
X5.574Y-3.924
X5.584Y-3.858
X5.594Y-4.08
X5.631Y-3.449
X5.664Y-3.812
X6.8223Y-3.9357
X6.8311Y-4.2309
X6.978Y-3.812
X7.042Y-3.782
T3
X5.3117Y-5.402
X5.3117Y-5.5004
X5.3117Y-5.5988
X5.3117Y-5.6972
T4
X5.972Y-2.986
X5.972Y-3.086
X5.972Y-3.186
X5.972Y-3.286
X5.972Y-3.386
X5.972Y-3.486
X5.972Y-3.586
X5.972Y-3.686
X5.972Y-3.786
X5.972Y-3.886
X5.972Y-3.986
X5.972Y-4.086
X5.972Y-4.186
X5.972Y-4.286
X5.972Y-4.386
X5.972Y-4.486
X5.972Y-4.586
X5.972Y-4.686
X5.972Y-4.786
X5.972Y-4.886
X6.672Y-2.986
X6.672Y-3.086
X6.672Y-3.186
X6.672Y-3.286
X6.672Y-3.386
X6.672Y-3.486
X6.672Y-3.586
X6.672Y-3.686
X6.672Y-3.786
X6.672Y-3.886
X6.672Y-3.986
X6.672Y-4.086
X6.672Y-4.186
X6.672Y-4.286
X6.672Y-4.386
X6.672Y-4.486
X6.672Y-4.586
X6.672Y-4.686
X6.672Y-4.786
X6.672Y-4.886
T5
X4.184Y-2.6978
X4.184Y-2.7978
X4.184Y-2.8978
X4.184Y-2.9978
X4.184Y-3.0978
X4.184Y-3.1978
X4.184Y-3.2978
X4.184Y-3.3978
X4.184Y-3.4978
X4.184Y-3.5978
X4.184Y-3.6978
X4.184Y-3.7978
X4.184Y-3.8978
X4.184Y-3.9978
X4.184Y-4.0978
X4.184Y-4.1978
X4.184Y-4.2978
X4.184Y-4.3978
X4.184Y-4.4978
X4.184Y-4.5978
X4.184Y-4.6978
X4.184Y-4.7978
X4.184Y-4.8978
X4.184Y-4.9978
X4.184Y-5.0978
X4.284Y-2.6978
X4.284Y-2.7978
X4.284Y-2.8978
X4.284Y-2.9978
X4.284Y-3.0978
X4.284Y-3.1978
X4.284Y-3.2978
X4.284Y-3.3978
X4.284Y-3.4978
X4.284Y-3.5978
X4.284Y-3.6978
X4.284Y-3.7978
X4.284Y-3.8978
X4.284Y-3.9978
X4.284Y-4.0978
X4.284Y-4.1978
X4.284Y-4.2978
X4.284Y-4.3978
X4.284Y-4.4978
X4.284Y-4.5978
X4.284Y-4.6978
X4.284Y-4.7978
X4.284Y-4.8978
X4.284Y-4.9978
X4.284Y-5.0978
X4.862Y-3.672
X4.962Y-3.672
X5.062Y-3.672
X5.584Y-4.176
X5.584Y-4.276
X5.684Y-4.176
X5.684Y-4.276
X6.202Y-2.746
X6.302Y-2.746
X6.9843Y-4.828
X6.9843Y-4.928
X7.264Y-2.7598
X7.264Y-2.8598
X7.378Y-4.828
X7.378Y-4.928
X7.518Y-2.962
X7.518Y-3.062
X7.518Y-3.162
T0
M30
