M48
; DRILL file {KiCad 6.0.5-a6ca702e91~116~ubuntu21.10.1} date Fri 13 Oct 2023 08:30:07 AM MDT
; FORMAT={-:-/ absolute / inch / decimal}
; #@! TF.CreationDate,2023-10-13T08:30:07-06:00
; #@! TF.GenerationSoftware,Kicad,Pcbnew,6.0.5-a6ca702e91~116~ubuntu21.10.1
; #@! TF.FileFunction,Plated,1,4,PTH
FMAT,2
INCH
; #@! TA.AperFunction,Plated,PTH,ViaDrill
T1C0.0118
; #@! TA.AperFunction,Plated,PTH,ViaDrill
T2C0.0157
; #@! TA.AperFunction,Plated,PTH,ComponentDrill
T3C0.0236
; #@! TA.AperFunction,Plated,PTH,ComponentDrill
T4C0.0394
%
G90
G05
T1
X4.409Y-3.112
X4.5Y-3.501
X4.505Y-3.116
X4.545Y-3.516
X4.574Y-3.272
X4.575Y-3.414
X4.577Y-4.898
X4.584Y-3.548
X4.585Y-3.09
X4.6238Y-4.8152
X4.645Y-5.077
X4.6495Y-3.4865
X4.703Y-4.602
X4.714Y-3.788
X4.751Y-3.789
X4.767Y-3.599
X4.793Y-3.795
X4.805Y-3.857
X4.854Y-3.478
X4.854Y-3.523
X4.9046Y-2.9775
X4.913Y-2.932
X4.9276Y-3.5795
X4.933Y-3.504
X4.9335Y-3.2795
X4.9351Y-3.411
X4.9355Y-3.0644
X4.9361Y-3.676
X4.9466Y-3.2285
X4.949Y-3.171
X4.957Y-3.578
X4.9571Y-3.529
X4.964Y-3.764
X4.9645Y-2.8565
X4.966Y-2.945
X4.9696Y-3.2754
X4.97Y-4.949
X4.98Y-3.059
X4.986Y-3.016
X4.992Y-5.294
X5.015Y-3.704
X5.0233Y-3.6307
X5.024Y-3.337
X5.032Y-4.888
X5.035Y-4.606
X5.037Y-5.01
X5.0635Y-3.1295
X5.07Y-3.548
X5.0725Y-3.8565
X5.0725Y-3.9185
X5.0728Y-3.7682
X5.073Y-3.028
X5.0732Y-3.6068
X5.0735Y-3.3915
X5.0738Y-3.4559
X5.082Y-3.695
X5.098Y-2.91
X5.109Y-3.937
X5.114Y-3.31
X5.121Y-3.222
X5.125Y-3.689
X5.13Y-3.001
X5.1334Y-2.9336
X5.1427Y-3.8653
X5.1625Y-2.9845
X5.1697Y-3.5807
X5.176Y-3.868
X5.178Y-3.818
X5.187Y-3.631
X5.1895Y-3.1715
X5.1902Y-2.8568
X5.191Y-2.9337
X5.193Y-3.479
X5.229Y-4.96
X5.231Y-3.116
X5.244Y-3.423
X5.266Y-3.117
X5.273Y-3.42
X5.274Y-3.739
X5.277Y-4.504
X5.295Y-3.714
X5.2958Y-2.8312
X5.2985Y-2.8635
X5.316Y-5.414
X5.327Y-3.226
X5.3355Y-3.3035
X5.336Y-3.454
X5.345Y-3.841
X5.346Y-3.112
X5.349Y-5.028
X5.352Y-3.154
X5.3548Y-3.7938
X5.355Y-3.42
X5.358Y-3.272
X5.36Y-3.654
X5.363Y-3.504
X5.373Y-3.887
X5.378Y-3.386
X5.38Y-5.026
X5.3842Y-3.3492
X5.388Y-4.622
X5.3945Y-2.9625
X5.397Y-5.047
X5.4Y-3.034
X5.409Y-3.989
X5.418Y-4.611
X5.423Y-3.372
X5.45Y-4.611
X5.462Y-2.873
X5.485Y-3.713
X5.486Y-4.139
X5.4869Y-3.6701
X5.487Y-3.486
X5.515Y-3.929
X5.551Y-3.647
X5.552Y-3.9
X5.575Y-3.594
X5.578Y-3.975
X5.581Y-3.635
X5.591Y-3.895
X5.635Y-4.111
X5.674Y-3.858
X5.6745Y-3.7952
X5.681Y-3.709
X5.712Y-3.868
X5.748Y-3.519
X5.769Y-3.559
X5.771Y-3.732
X5.822Y-3.975
X5.826Y-4.656
X5.832Y-3.622
X5.86Y-3.441
X5.888Y-5.168
X6.092Y-4.468
X6.098Y-3.487
X6.113Y-5.068
X6.277Y-4.991
X6.305Y-5.176
X6.338Y-5.164
X6.356Y-4.991
X6.375Y-5.161
X6.413Y-5.163
X6.531Y-3.448
X6.54Y-4.746
X6.791Y-3.646
X6.812Y-3.787
X6.842Y-3.641
X6.849Y-3.884
X6.849Y-3.986
X6.8512Y-3.6998
X6.8555Y-4.0925
X6.858Y-3.789
X6.902Y-4.739
X6.9025Y-4.7865
X6.9215Y-4.8055
X6.9369Y-4.2799
X6.9378Y-4.3538
X6.943Y-4.23
X6.991Y-4.351
X7.038Y-3.893
X7.067Y-3.919
X7.114Y-3.9
X7.148Y-3.874
X7.1918Y-3.0832
X7.2325Y-2.7305
X7.248Y-5.389
X7.249Y-5.467
X7.2495Y-2.7475
X7.282Y-5.447
X7.2851Y-5.4158
X7.308Y-4.773
X7.327Y-4.861
X7.3337Y-2.6903
X7.3341Y-2.6509
X7.3473Y-4.9723
X7.349Y-4.93
X7.349Y-4.799
X7.3494Y-5.0156
X7.351Y-4.674
X7.351Y-4.885
X7.351Y-5.051
X7.352Y-4.756
X7.356Y-4.713
T2
X4.539Y-4.139
X4.834Y-4.024
X4.834Y-4.059
X4.834Y-4.094
X4.922Y-4.1
X4.9385Y-3.9325
X4.991Y-4.628
X4.9928Y-5.247
X4.994Y-5.181
X4.995Y-4.679
X4.996Y-4.735
X4.997Y-4.798
X4.998Y-4.857
X4.999Y-5.053
X5.001Y-5.118
X5.123Y-4.139
X5.181Y-4.298
X5.579Y-4.419
X5.693Y-4.134
X5.831Y-4.532
X6.913Y-3.3
X6.949Y-3.885
X6.963Y-3.992
X6.965Y-3.937
X6.999Y-4.664
X7.0054Y-3.1726
X7.037Y-3.204
X7.0659Y-3.2331
X7.096Y-3.33
X7.1275Y-3.3615
X7.157Y-3.391
X7.35Y-2.612
X7.424Y-4.55
X7.45Y-4.929
X7.576Y-4.929
T4
X4.184Y-2.6978
X4.184Y-2.7978
X4.184Y-2.8978
X4.184Y-2.9978
X4.184Y-3.0978
X4.184Y-3.1978
X4.184Y-3.2978
X4.184Y-3.3978
X4.184Y-3.4978
X4.184Y-3.5978
X4.184Y-3.6978
X4.184Y-3.7978
X4.184Y-3.8978
X4.184Y-3.9978
X4.184Y-4.0978
X4.184Y-4.1978
X4.184Y-4.2978
X4.184Y-4.3978
X4.184Y-4.4978
X4.184Y-4.5978
X4.184Y-4.6978
X4.184Y-4.7978
X4.184Y-4.8978
X4.184Y-4.9978
X4.184Y-5.0978
X4.284Y-2.6978
X4.284Y-2.7978
X4.284Y-2.8978
X4.284Y-2.9978
X4.284Y-3.0978
X4.284Y-3.1978
X4.284Y-3.2978
X4.284Y-3.3978
X4.284Y-3.4978
X4.284Y-3.5978
X4.284Y-3.6978
X4.284Y-3.7978
X4.284Y-3.8978
X4.284Y-3.9978
X4.284Y-4.0978
X4.284Y-4.1978
X4.284Y-4.2978
X4.284Y-4.3978
X4.284Y-4.4978
X4.284Y-4.5978
X4.284Y-4.6978
X4.284Y-4.7978
X4.284Y-4.8978
X4.284Y-4.9978
X4.284Y-5.0978
X4.4119Y-5.4041
X4.4119Y-5.5026
X4.4119Y-5.601
X4.4119Y-5.6994
X4.512Y-2.774
X4.612Y-2.774
X4.712Y-2.774
X5.066Y-4.232
X5.066Y-4.332
X5.5317Y-3.1137
X5.6024Y-3.1844
X5.6731Y-3.2551
X5.9686Y-3.1495
X5.9686Y-3.2495
X5.9686Y-3.3495
X5.9686Y-3.4495
X5.9686Y-3.5495
X5.9686Y-3.6495
X5.9686Y-3.7495
X5.9686Y-3.8495
X5.9686Y-3.9495
X5.9686Y-4.0495
X5.9686Y-4.1495
X5.9686Y-4.2495
X5.9686Y-4.3495
X5.9686Y-4.4495
X5.9686Y-4.5495
X5.9686Y-4.6495
X5.9686Y-4.7495
X5.9686Y-4.8495
X5.9686Y-4.9495
X5.9686Y-5.0495
X6.0956Y-3.875
X6.1956Y-3.875
X6.2956Y-3.875
X6.6686Y-3.1495
X6.6686Y-3.2495
X6.6686Y-3.3495
X6.6686Y-3.4495
X6.6686Y-3.5495
X6.6686Y-3.6495
X6.6686Y-3.7495
X6.6686Y-3.8495
X6.6686Y-3.9495
X6.6686Y-4.0495
X6.6686Y-4.1495
X6.6686Y-4.2495
X6.6686Y-4.3495
X6.6686Y-4.4495
X6.6686Y-4.5495
X6.6686Y-4.6495
X6.6686Y-4.7495
X6.6686Y-4.8495
X6.6686Y-4.9495
X6.6686Y-5.0495
X6.814Y-2.748
X6.909Y-5.214
X6.909Y-5.6077
X6.914Y-2.748
X7.009Y-5.214
X7.009Y-5.6077
X7.523Y-3.075
X7.523Y-3.175
X7.523Y-3.275
T3
G00X7.3681Y-5.2379
M15
G01X7.4114Y-5.2379
M16
G05
G00X7.3681Y-5.5781
M15
G01X7.4114Y-5.5781
M16
G05
G00X7.5425Y-5.2379
M15
G01X7.5661Y-5.2379
M16
G05
G00X7.5425Y-5.5781
M15
G01X7.5661Y-5.5781
M16
G05
T0
M30
